<svg width="24" height="24" viewBox="0 0 24 24" fill="none" xmlns="http://www.w3.org/2000/svg">
<path d="M17.7787 10.2289C18.0756 9.92938 18.0735 9.44588 17.7739 9.14899C17.4744 8.85211 16.9909 8.85427 16.694 9.15381L14.9149 10.9488C14.1929 11.6773 13.696 12.1771 13.2749 12.5152C12.8659 12.8437 12.6032 12.9563 12.3679 12.9863C12.2202 13.0052 12.0707 13.0052 11.923 12.9863C11.6877 12.9563 11.425 12.8437 11.016 12.5152C10.5949 12.1771 10.098 11.6773 9.376 10.9488L7.59692 9.15381C7.30004 8.85427 6.81653 8.85211 6.51699 9.14899C6.21744 9.44588 6.21528 9.92938 6.51217 10.2289L8.3233 12.0563C9.00542 12.7446 9.56293 13.3071 10.0597 13.706C10.5762 14.1208 11.1005 14.4211 11.7299 14.5014C12.0058 14.5365 12.2851 14.5365 12.561 14.5014C13.1904 14.4211 13.7147 14.1208 14.2312 13.706C14.728 13.3071 15.2855 12.7446 15.9676 12.0563L17.7787 10.2289Z" fill="white" fill-opacity="0.72"/>
</svg>
