<svg width="10" height="6" viewBox="0 0 10 6" fill="none" xmlns="http://www.w3.org/2000/svg">
<path d="M9.81562 1.52476C10.063 1.27514 10.0612 0.872218 9.8116 0.624813C9.56198 0.377409 9.15906 0.379207 8.91166 0.628828L7.42909 2.12468C6.8274 2.73177 6.4133 3.1482 6.06243 3.42999C5.7216 3.70371 5.50268 3.79761 5.30661 3.8226C5.1835 3.83829 5.05893 3.83829 4.93581 3.8226C4.73975 3.79761 4.52082 3.70371 4.17999 3.42999C3.82912 3.1482 3.41502 2.73177 2.81333 2.12468L1.33077 0.628828C1.08336 0.379206 0.680444 0.377409 0.430821 0.624813C0.1812 0.872217 0.179403 1.27514 0.426806 1.52476L1.93608 3.04756C2.50452 3.62111 2.9691 4.08988 3.38306 4.42232C3.81351 4.76802 4.25043 5.01826 4.77489 5.08511C5.00485 5.11442 5.23757 5.11442 5.46753 5.08511C5.99199 5.01826 6.42891 4.76802 6.85937 4.42232C7.27332 4.08988 7.7379 3.62111 8.30634 3.04756L9.81562 1.52476Z" fill="#2E2E2E"/>
</svg>
