<svg width="21" height="20" viewBox="0 0 21 20" fill="none" xmlns="http://www.w3.org/2000/svg">
<g clip-path="url(#clip0_2004_692)">
<path d="M9.08482 5.18438C8.8352 4.93698 8.43228 4.93878 8.18487 5.1884C7.93747 5.43802 7.93927 5.84094 8.18889 6.08834L9.68474 7.57091C10.2918 8.1726 10.7083 8.5867 10.99 8.93757C11.2638 9.2784 11.3577 9.49732 11.3827 9.69339C11.3984 9.8165 11.3984 9.94107 11.3827 10.0642C11.3577 10.2603 11.2638 10.4792 10.99 10.82C10.7083 11.1709 10.2918 11.585 9.68474 12.1867L8.18889 13.6692C7.93927 13.9166 7.93747 14.3196 8.18487 14.5692C8.43228 14.8188 8.8352 14.8206 9.08482 14.5732L10.6076 13.0639C11.1812 12.4955 11.6499 12.0309 11.9824 11.6169C12.3281 11.1865 12.5783 10.7496 12.6452 10.2251C12.6745 9.99515 12.6745 9.76243 12.6452 9.53247C12.5783 9.00801 12.3281 8.57109 11.9824 8.14063C11.6499 7.72668 11.1812 7.26209 10.6076 6.69366L9.08482 5.18438Z" fill="white" fill-opacity="0.72"/>
</g>
<defs>
<clipPath id="clip0_2004_692">
<rect width="20" height="20" fill="white" transform="translate(0.560059)"/>
</clipPath>
</defs>
</svg>
