<svg width="16" height="16" viewBox="0 0 16 16" fill="none" xmlns="http://www.w3.org/2000/svg">
<g opacity="0.4">
<path d="M12.5734 7.08433C12.8208 6.83471 12.819 6.43179 12.5694 6.18438C12.3198 5.93698 11.9169 5.93878 11.6695 6.1884L10.1869 7.68425C9.58521 8.29134 9.17112 8.70777 8.82024 8.98956C8.47941 9.26328 8.26049 9.35718 8.06442 9.38217C7.94131 9.39786 7.81674 9.39786 7.69363 9.38217C7.49756 9.35718 7.27864 9.26328 6.9378 8.98956C6.58693 8.70777 6.17284 8.29134 5.57114 7.68425L4.08858 6.1884C3.84118 5.93878 3.43826 5.93698 3.18863 6.18438C2.93901 6.43179 2.93722 6.83471 3.18462 7.08433L4.69389 8.60713C5.26233 9.18068 5.72692 9.64945 6.14087 9.98189C6.57133 10.3276 7.00824 10.5778 7.53271 10.6447C7.76267 10.674 7.99538 10.674 8.22534 10.6447C8.7498 10.5778 9.18672 10.3276 9.61718 9.98189C10.0311 9.64945 10.4957 9.18068 11.0642 8.60713L12.5734 7.08433Z" fill="#2E2E2E"/>
</g>
</svg>
