<svg width="16" height="12" viewBox="0 0 16 12" fill="none" xmlns="http://www.w3.org/2000/svg">
<path d="M12.1398 0.941847C11.8709 0.675256 11.4367 0.677193 11.1701 0.946173C10.9035 1.21515 10.9055 1.64932 11.1744 1.91591L12.7863 3.51345C13.4405 4.1618 13.8892 4.60801 14.1928 4.98609C14.2915 5.10896 14.3685 5.21713 14.4283 5.31459L0.685714 5.31459C0.307005 5.31459 0 5.6216 0 6.00031C0 6.37902 0.307005 6.68602 0.685714 6.68602L14.4283 6.68602C14.3685 6.78348 14.2915 6.89165 14.1928 7.01452C13.8892 7.3926 13.4405 7.83881 12.7863 8.48716L11.1744 10.0847C10.9055 10.3513 10.9035 10.7855 11.1701 11.0544C11.4367 11.3234 11.8709 11.3254 12.1398 11.0588L13.7808 9.43244C14.3988 8.81992 14.9039 8.31931 15.2621 7.87326C15.6346 7.40942 15.9043 6.93862 15.9763 6.37348C15.9921 6.24959 16 6.12495 16 6.00031C16 5.87567 15.9921 5.75103 15.9763 5.62713C15.9043 5.062 15.6346 4.5912 15.2621 4.12736C14.9039 3.6813 14.3988 3.18068 13.7807 2.56816L12.1398 0.941847Z" fill="#2E2E2E"/>
</svg>
