<svg width="5" height="10" viewBox="0 0 5 10" fill="none" xmlns="http://www.w3.org/2000/svg">
<g opacity="0.4">
<path d="M1.08433 0.305599C0.834707 0.0581951 0.431788 0.0599928 0.184384 0.309615C-0.0630207 0.559236 -0.061223 0.962155 0.188399 1.20956L1.68425 2.69212C2.29134 3.29382 2.70777 3.70791 2.98956 4.05878C3.26328 4.39962 3.35718 4.61854 3.38217 4.81461C3.39786 4.93772 3.39786 5.06229 3.38217 5.1854C3.35718 5.38147 3.26328 5.60039 2.98956 5.94122C2.70777 6.2921 2.29134 6.70619 1.68425 7.30788L0.188399 8.79045C-0.061223 9.03785 -0.0630207 9.44077 0.184384 9.69039C0.431788 9.94002 0.834707 9.94181 1.08433 9.69441L2.60713 8.18513C3.18068 7.6167 3.64945 7.15211 3.98189 6.73816C4.32759 6.3077 4.57783 5.87078 4.64468 5.34632C4.67399 5.11636 4.67399 4.88365 4.64468 4.65368C4.57783 4.12922 4.32759 3.69231 3.98189 3.26185C3.64945 2.84789 3.18068 2.38331 2.60713 1.81487L1.08433 0.305599Z" fill="#2E2E2E"/>
</g>
</svg>
