<svg width="604" height="376" viewBox="0 0 604 376" fill="none" xmlns="http://www.w3.org/2000/svg">
<path d="M360 109.5L430 109.5L492 109.25L505.125 109.124C512.256 109.055 518 103.255 518 96.1244L518 79L518 74C518 66.8203 512.18 61 505 61L481.5 61" stroke="#E0E0E0"/>
<path d="M360 207.5L430 207.5L492 207.25L505.125 207.124C512.256 207.055 518 201.255 518 194.124L518 177L518 172C518 164.82 512.18 159 505 159L481.5 159" stroke="#E0E0E0"/>
<path d="M360 276L480 276" stroke="#E0E0E0"/>
<path d="M360 340L480 340" stroke="#E0E0E0"/>
<rect x="350" y="25" width="1" height="203" fill="#E0E0E0"/>
<line x1="356" y1="60.5" x2="374" y2="60.5" stroke="#F9D94A"/>
<path d="M372 56.0132L379.136 60.965L372 65.3872L372 56L372 56.0132Z" fill="#F9D94A"/>
<rect x="383" y="41" width="92" height="40" rx="13" fill="#F9D94A"/>
<path d="M399.67 66V56.06H403.31C404.019 56.06 404.621 56.1813 405.116 56.424C405.62 56.6573 406.007 56.9933 406.278 57.432C406.549 57.8707 406.684 58.398 406.684 59.014C406.684 59.4713 406.577 59.8773 406.362 60.232C406.157 60.5867 405.881 60.8713 405.536 61.086C405.191 61.3007 404.817 61.422 404.416 61.45L404.346 61.324C404.999 61.324 405.503 61.4733 405.858 61.772C406.222 62.0613 406.432 62.5187 406.488 63.144L406.74 66H405.774L405.536 63.228C405.499 62.7707 405.335 62.4347 405.046 62.22C404.757 61.996 404.29 61.884 403.646 61.884H400.622V66H399.67ZM400.622 60.96H403.464C404.145 60.96 404.682 60.792 405.074 60.456C405.475 60.1107 405.676 59.6253 405.676 59C405.676 58.3467 405.475 57.8473 405.074 57.502C404.673 57.1567 404.08 56.984 403.296 56.984H400.622V60.96ZM411.436 66.168C410.727 66.168 410.125 66.0047 409.63 65.678C409.136 65.342 408.753 64.8847 408.482 64.306C408.221 63.718 408.09 63.046 408.09 62.29C408.09 61.534 408.221 60.8667 408.482 60.288C408.744 59.7 409.117 59.2427 409.602 58.916C410.097 58.58 410.69 58.412 411.38 58.412C412.043 58.412 412.617 58.5707 413.102 58.888C413.588 59.2053 413.956 59.6533 414.208 60.232C414.47 60.8107 414.6 61.4873 414.6 62.262V62.556H409.056C409.094 63.4333 409.322 64.11 409.742 64.586C410.162 65.0527 410.727 65.286 411.436 65.286C411.978 65.286 412.421 65.1553 412.766 64.894C413.112 64.6327 413.35 64.2873 413.48 63.858L414.474 63.928C414.288 64.5813 413.928 65.118 413.396 65.538C412.864 65.958 412.211 66.168 411.436 66.168ZM409.056 61.73H413.592C413.546 60.9367 413.326 60.3347 412.934 59.924C412.542 59.504 412.024 59.294 411.38 59.294C410.736 59.294 410.209 59.504 409.798 59.924C409.388 60.344 409.14 60.946 409.056 61.73ZM422.173 68.1H421.249V64.124L421.389 64.306C421.314 64.6607 421.155 64.978 420.913 65.258C420.679 65.538 420.385 65.762 420.031 65.93C419.676 66.0887 419.293 66.168 418.883 66.168C418.192 66.168 417.613 65.9953 417.147 65.65C416.68 65.2953 416.33 64.8287 416.097 64.25C415.863 63.662 415.747 63.0087 415.747 62.29C415.747 61.5713 415.863 60.9227 416.097 60.344C416.33 59.756 416.68 59.2893 417.147 58.944C417.613 58.5893 418.197 58.412 418.897 58.412C419.513 58.412 420.045 58.58 420.493 58.916C420.95 59.252 421.267 59.742 421.445 60.386L421.291 60.456L421.319 58.58H422.173V68.1ZM418.967 65.286C419.424 65.286 419.825 65.1693 420.171 64.936C420.516 64.6933 420.782 64.348 420.969 63.9C421.155 63.452 421.249 62.9153 421.249 62.29C421.249 61.6647 421.151 61.128 420.955 60.68C420.768 60.232 420.502 59.8913 420.157 59.658C419.821 59.4153 419.424 59.294 418.967 59.294C418.276 59.294 417.725 59.56 417.315 60.092C416.913 60.624 416.713 61.3567 416.713 62.29C416.713 63.2233 416.913 63.956 417.315 64.488C417.716 65.02 418.267 65.286 418.967 65.286ZM426.903 66.168C426.166 66.168 425.573 65.9207 425.125 65.426C424.687 64.922 424.467 64.2313 424.467 63.354V58.58H425.391V63.074C425.391 63.8393 425.536 64.4087 425.825 64.782C426.124 65.1553 426.563 65.342 427.141 65.342C427.785 65.342 428.289 65.132 428.653 64.712C429.027 64.292 429.213 63.7227 429.213 63.004V58.58H430.137V66H429.269L429.255 64.096L429.395 64.166C429.274 64.8007 428.994 65.2953 428.555 65.65C428.126 65.9953 427.575 66.168 426.903 66.168ZM435.143 66.168C434.434 66.168 433.832 66.0047 433.337 65.678C432.843 65.342 432.46 64.8847 432.189 64.306C431.928 63.718 431.797 63.046 431.797 62.29C431.797 61.534 431.928 60.8667 432.189 60.288C432.451 59.7 432.824 59.2427 433.309 58.916C433.804 58.58 434.397 58.412 435.087 58.412C435.75 58.412 436.324 58.5707 436.809 58.888C437.295 59.2053 437.663 59.6533 437.915 60.232C438.177 60.8107 438.307 61.4873 438.307 62.262V62.556H432.763C432.801 63.4333 433.029 64.11 433.449 64.586C433.869 65.0527 434.434 65.286 435.143 65.286C435.685 65.286 436.128 65.1553 436.473 64.894C436.819 64.6327 437.057 64.2873 437.187 63.858L438.181 63.928C437.995 64.5813 437.635 65.118 437.103 65.538C436.571 65.958 435.918 66.168 435.143 66.168ZM432.763 61.73H437.299C437.253 60.9367 437.033 60.3347 436.641 59.924C436.249 59.504 435.731 59.294 435.087 59.294C434.443 59.294 433.916 59.504 433.505 59.924C433.095 60.344 432.847 60.946 432.763 61.73ZM442.59 66.168C441.946 66.168 441.395 66.0653 440.938 65.86C440.49 65.6453 440.14 65.3513 439.888 64.978C439.636 64.6047 439.491 64.1847 439.454 63.718L440.42 63.648C440.476 64.1427 440.681 64.5393 441.036 64.838C441.4 65.1367 441.918 65.286 442.59 65.286C443.178 65.286 443.635 65.188 443.962 64.992C444.288 64.796 444.452 64.4927 444.452 64.082C444.452 63.858 444.4 63.6713 444.298 63.522C444.204 63.3633 444.008 63.228 443.71 63.116C443.411 62.9947 442.963 62.8827 442.366 62.78C441.666 62.6493 441.12 62.4953 440.728 62.318C440.336 62.1313 440.06 61.9027 439.902 61.632C439.743 61.352 439.664 61.0207 439.664 60.638C439.664 59.9753 439.902 59.4387 440.378 59.028C440.854 58.6173 441.516 58.412 442.366 58.412C442.944 58.412 443.434 58.5193 443.836 58.734C444.246 58.9487 444.568 59.2333 444.802 59.588C445.035 59.9333 445.189 60.316 445.264 60.736L444.298 60.82C444.242 60.5307 444.134 60.274 443.976 60.05C443.817 59.8167 443.602 59.6347 443.332 59.504C443.061 59.364 442.734 59.294 442.352 59.294C441.792 59.294 441.362 59.4153 441.064 59.658C440.774 59.8913 440.63 60.204 440.63 60.596C440.63 60.8667 440.69 61.0907 440.812 61.268C440.933 61.436 441.134 61.576 441.414 61.688C441.694 61.7907 442.081 61.884 442.576 61.968C443.313 62.0893 443.887 62.2433 444.298 62.43C444.718 62.6073 445.012 62.8313 445.18 63.102C445.348 63.3633 445.432 63.6853 445.432 64.068C445.432 64.516 445.31 64.8987 445.068 65.216C444.825 65.524 444.489 65.762 444.06 65.93C443.64 66.0887 443.15 66.168 442.59 66.168ZM449.342 66C448.736 66 448.288 65.86 447.998 65.58C447.709 65.2907 447.564 64.852 447.564 64.264V56.844H448.488V64.236C448.488 64.5813 448.563 64.824 448.712 64.964C448.871 65.104 449.109 65.174 449.426 65.174H450.406V66H449.342ZM446.402 59.406V58.58H450.406V59.406H446.402ZM457.097 66V58.454H455.011V57.642H455.795C456.169 57.642 456.463 57.5953 456.677 57.502C456.901 57.4087 457.06 57.25 457.153 57.026C457.247 56.7927 457.293 56.4707 457.293 56.06H458.049V66H457.097Z" fill="#2E2E2E"/>
<path d="M481.105 63.2103C482.268 63.2103 483.21 62.2678 483.21 61.1052C483.21 59.9425 482.268 59 481.105 59C479.943 59 479 59.9425 479 61.1052C479 62.2678 479.943 63.2103 481.105 63.2103Z" fill="white" stroke="#E0E0E0" stroke-width="0.953282" stroke-miterlimit="10"/>
<path d="M363.137 114.374L356 109.422L363.137 105L363.137 114.387L363.137 114.374Z" fill="#F9D94A"/>
<line x1="356" y1="158.5" x2="374" y2="158.5" stroke="#F9D94A"/>
<path d="M372 154.013L379.136 158.965L372 163.387L372 154L372 154.013Z" fill="#F9D94A"/>
<rect x="383" y="139" width="92" height="40" rx="13" fill="#F9D94A"/>
<path d="M398.454 164V154.06H402.094C402.804 154.06 403.406 154.181 403.9 154.424C404.404 154.657 404.792 154.993 405.062 155.432C405.333 155.871 405.468 156.398 405.468 157.014C405.468 157.471 405.361 157.877 405.146 158.232C404.941 158.587 404.666 158.871 404.32 159.086C403.975 159.301 403.602 159.422 403.2 159.45L403.13 159.324C403.784 159.324 404.288 159.473 404.642 159.772C405.006 160.061 405.216 160.519 405.272 161.144L405.524 164H404.558L404.32 161.228C404.283 160.771 404.12 160.435 403.83 160.22C403.541 159.996 403.074 159.884 402.43 159.884H399.406V164H398.454ZM399.406 158.96H402.248C402.93 158.96 403.466 158.792 403.858 158.456C404.26 158.111 404.46 157.625 404.46 157C404.46 156.347 404.26 155.847 403.858 155.502C403.457 155.157 402.864 154.984 402.08 154.984H399.406V158.96ZM410.22 164.168C409.511 164.168 408.909 164.005 408.414 163.678C407.92 163.342 407.537 162.885 407.266 162.306C407.005 161.718 406.874 161.046 406.874 160.29C406.874 159.534 407.005 158.867 407.266 158.288C407.528 157.7 407.901 157.243 408.386 156.916C408.881 156.58 409.474 156.412 410.164 156.412C410.827 156.412 411.401 156.571 411.886 156.888C412.372 157.205 412.74 157.653 412.992 158.232C413.254 158.811 413.384 159.487 413.384 160.262V160.556H407.84C407.878 161.433 408.106 162.11 408.526 162.586C408.946 163.053 409.511 163.286 410.22 163.286C410.762 163.286 411.205 163.155 411.55 162.894C411.896 162.633 412.134 162.287 412.264 161.858L413.258 161.928C413.072 162.581 412.712 163.118 412.18 163.538C411.648 163.958 410.995 164.168 410.22 164.168ZM407.84 159.73H412.376C412.33 158.937 412.11 158.335 411.718 157.924C411.326 157.504 410.808 157.294 410.164 157.294C409.52 157.294 408.993 157.504 408.582 157.924C408.172 158.344 407.924 158.946 407.84 159.73ZM420.957 166.1H420.033V162.124L420.173 162.306C420.098 162.661 419.939 162.978 419.697 163.258C419.463 163.538 419.169 163.762 418.815 163.93C418.46 164.089 418.077 164.168 417.667 164.168C416.976 164.168 416.397 163.995 415.931 163.65C415.464 163.295 415.114 162.829 414.881 162.25C414.647 161.662 414.531 161.009 414.531 160.29C414.531 159.571 414.647 158.923 414.881 158.344C415.114 157.756 415.464 157.289 415.931 156.944C416.397 156.589 416.981 156.412 417.681 156.412C418.297 156.412 418.829 156.58 419.277 156.916C419.734 157.252 420.051 157.742 420.229 158.386L420.075 158.456L420.103 156.58H420.957V166.1ZM417.751 163.286C418.208 163.286 418.609 163.169 418.955 162.936C419.3 162.693 419.566 162.348 419.753 161.9C419.939 161.452 420.033 160.915 420.033 160.29C420.033 159.665 419.935 159.128 419.739 158.68C419.552 158.232 419.286 157.891 418.941 157.658C418.605 157.415 418.208 157.294 417.751 157.294C417.06 157.294 416.509 157.56 416.099 158.092C415.697 158.624 415.497 159.357 415.497 160.29C415.497 161.223 415.697 161.956 416.099 162.488C416.5 163.02 417.051 163.286 417.751 163.286ZM425.688 164.168C424.95 164.168 424.358 163.921 423.91 163.426C423.471 162.922 423.252 162.231 423.252 161.354V156.58H424.176V161.074C424.176 161.839 424.32 162.409 424.61 162.782C424.908 163.155 425.347 163.342 425.926 163.342C426.57 163.342 427.074 163.132 427.438 162.712C427.811 162.292 427.998 161.723 427.998 161.004V156.58H428.922V164H428.054L428.04 162.096L428.18 162.166C428.058 162.801 427.778 163.295 427.34 163.65C426.91 163.995 426.36 164.168 425.688 164.168ZM433.928 164.168C433.218 164.168 432.616 164.005 432.122 163.678C431.627 163.342 431.244 162.885 430.974 162.306C430.712 161.718 430.582 161.046 430.582 160.29C430.582 159.534 430.712 158.867 430.974 158.288C431.235 157.7 431.608 157.243 432.094 156.916C432.588 156.58 433.181 156.412 433.872 156.412C434.534 156.412 435.108 156.571 435.594 156.888C436.079 157.205 436.448 157.653 436.7 158.232C436.961 158.811 437.092 159.487 437.092 160.262V160.556H431.548C431.585 161.433 431.814 162.11 432.234 162.586C432.654 163.053 433.218 163.286 433.928 163.286C434.469 163.286 434.912 163.155 435.258 162.894C435.603 162.633 435.841 162.287 435.972 161.858L436.966 161.928C436.779 162.581 436.42 163.118 435.888 163.538C435.356 163.958 434.702 164.168 433.928 164.168ZM431.548 159.73H436.084C436.037 158.937 435.818 158.335 435.426 157.924C435.034 157.504 434.516 157.294 433.872 157.294C433.228 157.294 432.7 157.504 432.29 157.924C431.879 158.344 431.632 158.946 431.548 159.73ZM441.374 164.168C440.73 164.168 440.179 164.065 439.722 163.86C439.274 163.645 438.924 163.351 438.672 162.978C438.42 162.605 438.275 162.185 438.238 161.718L439.204 161.648C439.26 162.143 439.465 162.539 439.82 162.838C440.184 163.137 440.702 163.286 441.374 163.286C441.962 163.286 442.419 163.188 442.746 162.992C443.072 162.796 443.236 162.493 443.236 162.082C443.236 161.858 443.184 161.671 443.082 161.522C442.988 161.363 442.792 161.228 442.494 161.116C442.195 160.995 441.747 160.883 441.15 160.78C440.45 160.649 439.904 160.495 439.512 160.318C439.12 160.131 438.844 159.903 438.686 159.632C438.527 159.352 438.448 159.021 438.448 158.638C438.448 157.975 438.686 157.439 439.162 157.028C439.638 156.617 440.3 156.412 441.15 156.412C441.728 156.412 442.218 156.519 442.62 156.734C443.03 156.949 443.352 157.233 443.586 157.588C443.819 157.933 443.973 158.316 444.048 158.736L443.082 158.82C443.026 158.531 442.918 158.274 442.76 158.05C442.601 157.817 442.386 157.635 442.116 157.504C441.845 157.364 441.518 157.294 441.136 157.294C440.576 157.294 440.146 157.415 439.848 157.658C439.558 157.891 439.414 158.204 439.414 158.596C439.414 158.867 439.474 159.091 439.596 159.268C439.717 159.436 439.918 159.576 440.198 159.688C440.478 159.791 440.865 159.884 441.36 159.968C442.097 160.089 442.671 160.243 443.082 160.43C443.502 160.607 443.796 160.831 443.964 161.102C444.132 161.363 444.216 161.685 444.216 162.068C444.216 162.516 444.094 162.899 443.852 163.216C443.609 163.524 443.273 163.762 442.844 163.93C442.424 164.089 441.934 164.168 441.374 164.168ZM448.127 164C447.52 164 447.072 163.86 446.783 163.58C446.493 163.291 446.349 162.852 446.349 162.264V154.844H447.273V162.236C447.273 162.581 447.347 162.824 447.497 162.964C447.655 163.104 447.893 163.174 448.211 163.174H449.191V164H448.127ZM445.187 157.406V156.58H449.191V157.406H445.187ZM454.075 164C454.075 163.328 454.187 162.721 454.411 162.18C454.645 161.629 455.032 161.111 455.573 160.626C456.124 160.131 456.871 159.641 457.813 159.156C458.317 158.895 458.728 158.652 459.045 158.428C459.363 158.195 459.596 157.947 459.745 157.686C459.895 157.425 459.969 157.107 459.969 156.734C459.969 156.351 459.885 156.015 459.717 155.726C459.549 155.427 459.302 155.194 458.975 155.026C458.649 154.858 458.243 154.774 457.757 154.774C457.011 154.774 456.413 154.975 455.965 155.376C455.517 155.777 455.237 156.356 455.125 157.112L454.131 157.042C454.243 156.062 454.617 155.283 455.251 154.704C455.886 154.125 456.721 153.836 457.757 153.836C458.429 153.836 459.003 153.962 459.479 154.214C459.965 154.457 460.333 154.793 460.585 155.222C460.837 155.651 460.963 156.146 460.963 156.706C460.963 157.219 460.87 157.663 460.683 158.036C460.506 158.4 460.212 158.741 459.801 159.058C459.4 159.366 458.863 159.693 458.191 160.038C457.239 160.533 456.516 161.046 456.021 161.578C455.536 162.11 455.275 162.609 455.237 163.076H460.963V164H454.075Z" fill="#2E2E2E"/>
<path d="M481.105 161.21C482.268 161.21 483.21 160.268 483.21 159.105C483.21 157.943 482.268 157 481.105 157C479.943 157 479 157.943 479 159.105C479 160.268 479.943 161.21 481.105 161.21Z" fill="white" stroke="#E0E0E0" stroke-width="0.953282" stroke-miterlimit="10"/>
<path d="M363.137 212.374L356 207.422L363.137 203L363.137 212.387L363.137 212.374Z" fill="#F9D94A"/>
<rect x="350" y="240" width="1" height="136" fill="#E0E0E0"/>
<path d="M363.137 280.374L356 275.422L363.137 271L363.137 280.387L363.137 280.374Z" fill="#F9D94A"/>
<path d="M478.105 278.21C479.268 278.21 480.21 277.268 480.21 276.105C480.21 274.943 479.268 274 478.105 274C476.943 274 476 274.943 476 276.105C476 277.268 476.943 278.21 478.105 278.21Z" fill="white" stroke="#E0E0E0" stroke-width="0.953282" stroke-miterlimit="10"/>
<rect x="484" y="320" width="120" height="40" rx="13" fill="#F9D94A"/>
<path d="M508.478 345V335.06H512.118C512.827 335.06 513.429 335.181 513.924 335.424C514.428 335.657 514.815 335.993 515.086 336.432C515.356 336.871 515.492 337.398 515.492 338.014C515.492 338.471 515.384 338.877 515.17 339.232C514.964 339.587 514.689 339.871 514.344 340.086C513.998 340.301 513.625 340.422 513.224 340.45L513.154 340.324C513.807 340.324 514.311 340.473 514.666 340.772C515.03 341.061 515.24 341.519 515.296 342.144L515.548 345H514.582L514.344 342.228C514.306 341.771 514.143 341.435 513.854 341.22C513.564 340.996 513.098 340.884 512.454 340.884H509.43V345H508.478ZM509.43 339.96H512.272C512.953 339.96 513.49 339.792 513.882 339.456C514.283 339.111 514.484 338.625 514.484 338C514.484 337.347 514.283 336.847 513.882 336.502C513.48 336.157 512.888 335.984 512.104 335.984H509.43V339.96ZM520.244 345.168C519.535 345.168 518.933 345.005 518.438 344.678C517.943 344.342 517.561 343.885 517.29 343.306C517.029 342.718 516.898 342.046 516.898 341.29C516.898 340.534 517.029 339.867 517.29 339.288C517.551 338.7 517.925 338.243 518.41 337.916C518.905 337.58 519.497 337.412 520.188 337.412C520.851 337.412 521.425 337.571 521.91 337.888C522.395 338.205 522.764 338.653 523.016 339.232C523.277 339.811 523.408 340.487 523.408 341.262V341.556H517.864C517.901 342.433 518.13 343.11 518.55 343.586C518.97 344.053 519.535 344.286 520.244 344.286C520.785 344.286 521.229 344.155 521.574 343.894C521.919 343.633 522.157 343.287 522.288 342.858L523.282 342.928C523.095 343.581 522.736 344.118 522.204 344.538C521.672 344.958 521.019 345.168 520.244 345.168ZM517.864 340.73H522.4C522.353 339.937 522.134 339.335 521.742 338.924C521.35 338.504 520.832 338.294 520.188 338.294C519.544 338.294 519.017 338.504 518.606 338.924C518.195 339.344 517.948 339.946 517.864 340.73ZM527.69 345.168C527.046 345.168 526.495 345.065 526.038 344.86C525.59 344.645 525.24 344.351 524.988 343.978C524.736 343.605 524.591 343.185 524.554 342.718L525.52 342.648C525.576 343.143 525.781 343.539 526.136 343.838C526.5 344.137 527.018 344.286 527.69 344.286C528.278 344.286 528.735 344.188 529.062 343.992C529.389 343.796 529.552 343.493 529.552 343.082C529.552 342.858 529.501 342.671 529.398 342.522C529.305 342.363 529.109 342.228 528.81 342.116C528.511 341.995 528.063 341.883 527.466 341.78C526.766 341.649 526.22 341.495 525.828 341.318C525.436 341.131 525.161 340.903 525.002 340.632C524.843 340.352 524.764 340.021 524.764 339.638C524.764 338.975 525.002 338.439 525.478 338.028C525.954 337.617 526.617 337.412 527.466 337.412C528.045 337.412 528.535 337.519 528.936 337.734C529.347 337.949 529.669 338.233 529.902 338.588C530.135 338.933 530.289 339.316 530.364 339.736L529.398 339.82C529.342 339.531 529.235 339.274 529.076 339.05C528.917 338.817 528.703 338.635 528.432 338.504C528.161 338.364 527.835 338.294 527.452 338.294C526.892 338.294 526.463 338.415 526.164 338.658C525.875 338.891 525.73 339.204 525.73 339.596C525.73 339.867 525.791 340.091 525.912 340.268C526.033 340.436 526.234 340.576 526.514 340.688C526.794 340.791 527.181 340.884 527.676 340.968C528.413 341.089 528.987 341.243 529.398 341.43C529.818 341.607 530.112 341.831 530.28 342.102C530.448 342.363 530.532 342.685 530.532 343.068C530.532 343.516 530.411 343.899 530.168 344.216C529.925 344.524 529.589 344.762 529.16 344.93C528.74 345.089 528.25 345.168 527.69 345.168ZM532.181 347.1V337.58H533.021L533.049 339.456L532.895 339.386C533.082 338.742 533.404 338.252 533.861 337.916C534.319 337.58 534.851 337.412 535.457 337.412C536.157 337.412 536.736 337.589 537.193 337.944C537.66 338.289 538.01 338.756 538.243 339.344C538.486 339.923 538.607 340.571 538.607 341.29C538.607 342.009 538.491 342.662 538.257 343.25C538.024 343.829 537.674 344.295 537.207 344.65C536.741 344.995 536.157 345.168 535.457 345.168C535.047 345.168 534.664 345.089 534.309 344.93C533.964 344.762 533.67 344.538 533.427 344.258C533.194 343.978 533.035 343.661 532.951 343.306L533.105 343.124V347.1H532.181ZM535.387 344.286C536.078 344.286 536.624 344.02 537.025 343.488C537.427 342.956 537.627 342.223 537.627 341.29C537.627 340.357 537.427 339.624 537.025 339.092C536.624 338.56 536.073 338.294 535.373 338.294C534.916 338.294 534.515 338.415 534.169 338.658C533.833 338.891 533.572 339.232 533.385 339.68C533.199 340.128 533.105 340.665 533.105 341.29C533.105 341.915 533.199 342.452 533.385 342.9C533.572 343.348 533.838 343.693 534.183 343.936C534.529 344.169 534.93 344.286 535.387 344.286ZM543.075 345.168C542.403 345.168 541.815 345.009 541.311 344.692C540.817 344.375 540.434 343.927 540.163 343.348C539.893 342.76 539.757 342.074 539.757 341.29C539.757 340.497 539.893 339.811 540.163 339.232C540.434 338.653 540.817 338.205 541.311 337.888C541.815 337.571 542.403 337.412 543.075 337.412C543.747 337.412 544.331 337.571 544.825 337.888C545.32 338.205 545.703 338.653 545.973 339.232C546.244 339.811 546.379 340.497 546.379 341.29C546.379 342.074 546.244 342.76 545.973 343.348C545.703 343.927 545.32 344.375 544.825 344.692C544.331 345.009 543.747 345.168 543.075 345.168ZM543.075 344.286C543.803 344.286 544.373 344.02 544.783 343.488C545.203 342.947 545.413 342.214 545.413 341.29C545.413 340.366 545.203 339.638 544.783 339.106C544.373 338.565 543.803 338.294 543.075 338.294C542.347 338.294 541.773 338.565 541.353 339.106C540.933 339.638 540.723 340.366 540.723 341.29C540.723 342.214 540.933 342.947 541.353 343.488C541.773 344.02 542.347 344.286 543.075 344.286ZM548.041 345V337.58H548.881L548.923 339.526L548.811 339.442C548.885 338.985 549.039 338.607 549.273 338.308C549.515 338.009 549.809 337.785 550.155 337.636C550.5 337.487 550.873 337.412 551.275 337.412C551.844 337.412 552.311 337.538 552.675 337.79C553.048 338.042 553.323 338.383 553.501 338.812C553.678 339.232 553.767 339.703 553.767 340.226V345H552.843V340.562C552.843 340.077 552.782 339.661 552.661 339.316C552.549 338.971 552.362 338.705 552.101 338.518C551.839 338.331 551.499 338.238 551.079 338.238C550.444 338.238 549.931 338.443 549.539 338.854C549.156 339.265 548.965 339.834 548.965 340.562V345H548.041ZM558.534 345.168C557.89 345.168 557.339 345.065 556.882 344.86C556.434 344.645 556.084 344.351 555.832 343.978C555.58 343.605 555.435 343.185 555.398 342.718L556.364 342.648C556.42 343.143 556.625 343.539 556.98 343.838C557.344 344.137 557.862 344.286 558.534 344.286C559.122 344.286 559.579 344.188 559.906 343.992C560.233 343.796 560.396 343.493 560.396 343.082C560.396 342.858 560.345 342.671 560.242 342.522C560.149 342.363 559.953 342.228 559.654 342.116C559.355 341.995 558.907 341.883 558.31 341.78C557.61 341.649 557.064 341.495 556.672 341.318C556.28 341.131 556.005 340.903 555.846 340.632C555.687 340.352 555.608 340.021 555.608 339.638C555.608 338.975 555.846 338.439 556.322 338.028C556.798 337.617 557.461 337.412 558.31 337.412C558.889 337.412 559.379 337.519 559.78 337.734C560.191 337.949 560.513 338.233 560.746 338.588C560.979 338.933 561.133 339.316 561.208 339.736L560.242 339.82C560.186 339.531 560.079 339.274 559.92 339.05C559.761 338.817 559.547 338.635 559.276 338.504C559.005 338.364 558.679 338.294 558.296 338.294C557.736 338.294 557.307 338.415 557.008 338.658C556.719 338.891 556.574 339.204 556.574 339.596C556.574 339.867 556.635 340.091 556.756 340.268C556.877 340.436 557.078 340.576 557.358 340.688C557.638 340.791 558.025 340.884 558.52 340.968C559.257 341.089 559.831 341.243 560.242 341.43C560.662 341.607 560.956 341.831 561.124 342.102C561.292 342.363 561.376 342.685 561.376 343.068C561.376 343.516 561.255 343.899 561.012 344.216C560.769 344.524 560.433 344.762 560.004 344.93C559.584 345.089 559.094 345.168 558.534 345.168ZM565.867 345.168C565.158 345.168 564.556 345.005 564.061 344.678C563.566 344.342 563.184 343.885 562.913 343.306C562.652 342.718 562.521 342.046 562.521 341.29C562.521 340.534 562.652 339.867 562.913 339.288C563.174 338.7 563.548 338.243 564.033 337.916C564.528 337.58 565.12 337.412 565.811 337.412C566.474 337.412 567.048 337.571 567.533 337.888C568.018 338.205 568.387 338.653 568.639 339.232C568.9 339.811 569.031 340.487 569.031 341.262V341.556H563.487C563.524 342.433 563.753 343.11 564.173 343.586C564.593 344.053 565.158 344.286 565.867 344.286C566.408 344.286 566.852 344.155 567.197 343.894C567.542 343.633 567.78 343.287 567.911 342.858L568.905 342.928C568.718 343.581 568.359 344.118 567.827 344.538C567.295 344.958 566.642 345.168 565.867 345.168ZM563.487 340.73H568.023C567.976 339.937 567.757 339.335 567.365 338.924C566.973 338.504 566.455 338.294 565.811 338.294C565.167 338.294 564.64 338.504 564.229 338.924C563.818 339.344 563.571 339.946 563.487 340.73ZM574.052 345C574.052 344.328 574.164 343.721 574.388 343.18C574.621 342.629 575.009 342.111 575.55 341.626C576.101 341.131 576.847 340.641 577.79 340.156C578.294 339.895 578.705 339.652 579.022 339.428C579.339 339.195 579.573 338.947 579.722 338.686C579.871 338.425 579.946 338.107 579.946 337.734C579.946 337.351 579.862 337.015 579.694 336.726C579.526 336.427 579.279 336.194 578.952 336.026C578.625 335.858 578.219 335.774 577.734 335.774C576.987 335.774 576.39 335.975 575.942 336.376C575.494 336.777 575.214 337.356 575.102 338.112L574.108 338.042C574.22 337.062 574.593 336.283 575.228 335.704C575.863 335.125 576.698 334.836 577.734 334.836C578.406 334.836 578.98 334.962 579.456 335.214C579.941 335.457 580.31 335.793 580.562 336.222C580.814 336.651 580.94 337.146 580.94 337.706C580.94 338.219 580.847 338.663 580.66 339.036C580.483 339.4 580.189 339.741 579.778 340.058C579.377 340.366 578.84 340.693 578.168 341.038C577.216 341.533 576.493 342.046 575.998 342.578C575.513 343.11 575.251 343.609 575.214 344.076H580.94V345H574.052Z" fill="#2E2E2E"/>
<rect x="484" y="256" width="120" height="40" rx="13" fill="#F9D94A"/>
<path d="M509.694 281V271.06H513.334C514.043 271.06 514.645 271.181 515.14 271.424C515.644 271.657 516.031 271.993 516.302 272.432C516.572 272.871 516.708 273.398 516.708 274.014C516.708 274.471 516.6 274.877 516.386 275.232C516.18 275.587 515.905 275.871 515.56 276.086C515.214 276.301 514.841 276.422 514.44 276.45L514.37 276.324C515.023 276.324 515.527 276.473 515.882 276.772C516.246 277.061 516.456 277.519 516.512 278.144L516.764 281H515.798L515.56 278.228C515.522 277.771 515.359 277.435 515.07 277.22C514.78 276.996 514.314 276.884 513.67 276.884H510.646V281H509.694ZM510.646 275.96H513.488C514.169 275.96 514.706 275.792 515.098 275.456C515.499 275.111 515.7 274.625 515.7 274C515.7 273.347 515.499 272.847 515.098 272.502C514.696 272.157 514.104 271.984 513.32 271.984H510.646V275.96ZM521.46 281.168C520.75 281.168 520.148 281.005 519.654 280.678C519.159 280.342 518.776 279.885 518.506 279.306C518.244 278.718 518.114 278.046 518.114 277.29C518.114 276.534 518.244 275.867 518.506 275.288C518.767 274.7 519.14 274.243 519.626 273.916C520.12 273.58 520.713 273.412 521.404 273.412C522.066 273.412 522.64 273.571 523.126 273.888C523.611 274.205 523.98 274.653 524.232 275.232C524.493 275.811 524.624 276.487 524.624 277.262V277.556H519.08C519.117 278.433 519.346 279.11 519.766 279.586C520.186 280.053 520.75 280.286 521.46 280.286C522.001 280.286 522.444 280.155 522.79 279.894C523.135 279.633 523.373 279.287 523.504 278.858L524.498 278.928C524.311 279.581 523.952 280.118 523.42 280.538C522.888 280.958 522.234 281.168 521.46 281.168ZM519.08 276.73H523.616C523.569 275.937 523.35 275.335 522.958 274.924C522.566 274.504 522.048 274.294 521.404 274.294C520.76 274.294 520.232 274.504 519.822 274.924C519.411 275.344 519.164 275.946 519.08 276.73ZM528.906 281.168C528.262 281.168 527.711 281.065 527.254 280.86C526.806 280.645 526.456 280.351 526.204 279.978C525.952 279.605 525.807 279.185 525.77 278.718L526.736 278.648C526.792 279.143 526.997 279.539 527.352 279.838C527.716 280.137 528.234 280.286 528.906 280.286C529.494 280.286 529.951 280.188 530.278 279.992C530.605 279.796 530.768 279.493 530.768 279.082C530.768 278.858 530.717 278.671 530.614 278.522C530.521 278.363 530.325 278.228 530.026 278.116C529.727 277.995 529.279 277.883 528.682 277.78C527.982 277.649 527.436 277.495 527.044 277.318C526.652 277.131 526.377 276.903 526.218 276.632C526.059 276.352 525.98 276.021 525.98 275.638C525.98 274.975 526.218 274.439 526.694 274.028C527.17 273.617 527.833 273.412 528.682 273.412C529.261 273.412 529.751 273.519 530.152 273.734C530.563 273.949 530.885 274.233 531.118 274.588C531.351 274.933 531.505 275.316 531.58 275.736L530.614 275.82C530.558 275.531 530.451 275.274 530.292 275.05C530.133 274.817 529.919 274.635 529.648 274.504C529.377 274.364 529.051 274.294 528.668 274.294C528.108 274.294 527.679 274.415 527.38 274.658C527.091 274.891 526.946 275.204 526.946 275.596C526.946 275.867 527.007 276.091 527.128 276.268C527.249 276.436 527.45 276.576 527.73 276.688C528.01 276.791 528.397 276.884 528.892 276.968C529.629 277.089 530.203 277.243 530.614 277.43C531.034 277.607 531.328 277.831 531.496 278.102C531.664 278.363 531.748 278.685 531.748 279.068C531.748 279.516 531.627 279.899 531.384 280.216C531.141 280.524 530.805 280.762 530.376 280.93C529.956 281.089 529.466 281.168 528.906 281.168ZM533.397 283.1V273.58H534.237L534.265 275.456L534.111 275.386C534.298 274.742 534.62 274.252 535.077 273.916C535.534 273.58 536.066 273.412 536.673 273.412C537.373 273.412 537.952 273.589 538.409 273.944C538.876 274.289 539.226 274.756 539.459 275.344C539.702 275.923 539.823 276.571 539.823 277.29C539.823 278.009 539.706 278.662 539.473 279.25C539.24 279.829 538.89 280.295 538.423 280.65C537.956 280.995 537.373 281.168 536.673 281.168C536.262 281.168 535.88 281.089 535.525 280.93C535.18 280.762 534.886 280.538 534.643 280.258C534.41 279.978 534.251 279.661 534.167 279.306L534.321 279.124V283.1H533.397ZM536.603 280.286C537.294 280.286 537.84 280.02 538.241 279.488C538.642 278.956 538.843 278.223 538.843 277.29C538.843 276.357 538.642 275.624 538.241 275.092C537.84 274.56 537.289 274.294 536.589 274.294C536.132 274.294 535.73 274.415 535.385 274.658C535.049 274.891 534.788 275.232 534.601 275.68C534.414 276.128 534.321 276.665 534.321 277.29C534.321 277.915 534.414 278.452 534.601 278.9C534.788 279.348 535.054 279.693 535.399 279.936C535.744 280.169 536.146 280.286 536.603 280.286ZM544.291 281.168C543.619 281.168 543.031 281.009 542.527 280.692C542.032 280.375 541.65 279.927 541.379 279.348C541.108 278.76 540.973 278.074 540.973 277.29C540.973 276.497 541.108 275.811 541.379 275.232C541.65 274.653 542.032 274.205 542.527 273.888C543.031 273.571 543.619 273.412 544.291 273.412C544.963 273.412 545.546 273.571 546.041 273.888C546.536 274.205 546.918 274.653 547.189 275.232C547.46 275.811 547.595 276.497 547.595 277.29C547.595 278.074 547.46 278.76 547.189 279.348C546.918 279.927 546.536 280.375 546.041 280.692C545.546 281.009 544.963 281.168 544.291 281.168ZM544.291 280.286C545.019 280.286 545.588 280.02 545.999 279.488C546.419 278.947 546.629 278.214 546.629 277.29C546.629 276.366 546.419 275.638 545.999 275.106C545.588 274.565 545.019 274.294 544.291 274.294C543.563 274.294 542.989 274.565 542.569 275.106C542.149 275.638 541.939 276.366 541.939 277.29C541.939 278.214 542.149 278.947 542.569 279.488C542.989 280.02 543.563 280.286 544.291 280.286ZM549.256 281V273.58H550.096L550.138 275.526L550.026 275.442C550.101 274.985 550.255 274.607 550.488 274.308C550.731 274.009 551.025 273.785 551.37 273.636C551.716 273.487 552.089 273.412 552.49 273.412C553.06 273.412 553.526 273.538 553.89 273.79C554.264 274.042 554.539 274.383 554.716 274.812C554.894 275.232 554.982 275.703 554.982 276.226V281H554.058V276.562C554.058 276.077 553.998 275.661 553.876 275.316C553.764 274.971 553.578 274.705 553.316 274.518C553.055 274.331 552.714 274.238 552.294 274.238C551.66 274.238 551.146 274.443 550.754 274.854C550.372 275.265 550.18 275.834 550.18 276.562V281H549.256ZM559.75 281.168C559.106 281.168 558.555 281.065 558.098 280.86C557.65 280.645 557.3 280.351 557.048 279.978C556.796 279.605 556.651 279.185 556.614 278.718L557.58 278.648C557.636 279.143 557.841 279.539 558.196 279.838C558.56 280.137 559.078 280.286 559.75 280.286C560.338 280.286 560.795 280.188 561.122 279.992C561.448 279.796 561.612 279.493 561.612 279.082C561.612 278.858 561.56 278.671 561.458 278.522C561.364 278.363 561.168 278.228 560.87 278.116C560.571 277.995 560.123 277.883 559.526 277.78C558.826 277.649 558.28 277.495 557.888 277.318C557.496 277.131 557.22 276.903 557.062 276.632C556.903 276.352 556.824 276.021 556.824 275.638C556.824 274.975 557.062 274.439 557.538 274.028C558.014 273.617 558.676 273.412 559.526 273.412C560.104 273.412 560.594 273.519 560.996 273.734C561.406 273.949 561.728 274.233 561.962 274.588C562.195 274.933 562.349 275.316 562.424 275.736L561.458 275.82C561.402 275.531 561.294 275.274 561.136 275.05C560.977 274.817 560.762 274.635 560.492 274.504C560.221 274.364 559.894 274.294 559.512 274.294C558.952 274.294 558.522 274.415 558.224 274.658C557.934 274.891 557.79 275.204 557.79 275.596C557.79 275.867 557.85 276.091 557.972 276.268C558.093 276.436 558.294 276.576 558.574 276.688C558.854 276.791 559.241 276.884 559.736 276.968C560.473 277.089 561.047 277.243 561.458 277.43C561.878 277.607 562.172 277.831 562.34 278.102C562.508 278.363 562.592 278.685 562.592 279.068C562.592 279.516 562.47 279.899 562.228 280.216C561.985 280.524 561.649 280.762 561.22 280.93C560.8 281.089 560.31 281.168 559.75 281.168ZM567.083 281.168C566.373 281.168 565.771 281.005 565.277 280.678C564.782 280.342 564.399 279.885 564.129 279.306C563.867 278.718 563.737 278.046 563.737 277.29C563.737 276.534 563.867 275.867 564.129 275.288C564.39 274.7 564.763 274.243 565.249 273.916C565.743 273.58 566.336 273.412 567.027 273.412C567.689 273.412 568.263 273.571 568.749 273.888C569.234 274.205 569.603 274.653 569.855 275.232C570.116 275.811 570.247 276.487 570.247 277.262V277.556H564.703C564.74 278.433 564.969 279.11 565.389 279.586C565.809 280.053 566.373 280.286 567.083 280.286C567.624 280.286 568.067 280.155 568.413 279.894C568.758 279.633 568.996 279.287 569.127 278.858L570.121 278.928C569.934 279.581 569.575 280.118 569.043 280.538C568.511 280.958 567.857 281.168 567.083 281.168ZM564.703 276.73H569.239C569.192 275.937 568.973 275.335 568.581 274.924C568.189 274.504 567.671 274.294 567.027 274.294C566.383 274.294 565.855 274.504 565.445 274.924C565.034 275.344 564.787 275.946 564.703 276.73ZM577.074 281V273.454H574.988V272.642H575.772C576.145 272.642 576.439 272.595 576.654 272.502C576.878 272.409 577.036 272.25 577.13 272.026C577.223 271.793 577.27 271.471 577.27 271.06H578.026V281H577.074Z" fill="#2E2E2E"/>
<path d="M363.137 344.374L356 339.422L363.137 335L363.137 344.387L363.137 344.374Z" fill="#F9D94A"/>
<path d="M478.105 342.21C479.268 342.21 480.21 341.268 480.21 340.105C480.21 338.943 479.268 338 478.105 338C476.943 338 476 338.943 476 340.105C476 341.268 476.943 342.21 478.105 342.21Z" fill="white" stroke="#E0E0E0" stroke-width="0.953282" stroke-miterlimit="10"/>
<path d="M437.502 9L440.574 0.48L442.218 0.48L445.29 9H443.91L443.13 6.78L439.65 6.78L438.882 9H437.502ZM440.058 5.604H442.734L441.39 1.716L440.058 5.604ZM448.661 9.144C448.061 9.144 447.553 9.052 447.137 8.868C446.729 8.684 446.413 8.432 446.189 8.112C445.965 7.784 445.837 7.408 445.805 6.984L447.113 6.924C447.177 7.276 447.329 7.556 447.569 7.764C447.809 7.972 448.173 8.076 448.661 8.076C449.061 8.076 449.377 8.012 449.609 7.884C449.841 7.756 449.957 7.552 449.957 7.272C449.957 7.12 449.917 6.992 449.837 6.888C449.765 6.776 449.621 6.684 449.405 6.612C449.189 6.532 448.869 6.456 448.445 6.384C447.813 6.264 447.317 6.124 446.957 5.964C446.597 5.804 446.341 5.6 446.189 5.352C446.037 5.104 445.961 4.804 445.961 4.452C445.961 3.868 446.177 3.392 446.609 3.024C447.049 2.656 447.681 2.472 448.505 2.472C449.057 2.472 449.521 2.568 449.897 2.76C450.273 2.944 450.565 3.196 450.773 3.516C450.989 3.828 451.125 4.18 451.181 4.572L449.873 4.644C449.833 4.42 449.753 4.228 449.633 4.068C449.521 3.9 449.369 3.772 449.177 3.684C448.985 3.588 448.757 3.54 448.493 3.54C448.085 3.54 447.781 3.62 447.581 3.78C447.381 3.94 447.281 4.148 447.281 4.404C447.281 4.596 447.325 4.752 447.413 4.872C447.509 4.992 447.661 5.092 447.869 5.172C448.077 5.244 448.353 5.308 448.697 5.364C449.361 5.476 449.881 5.616 450.257 5.784C450.633 5.944 450.897 6.144 451.049 6.384C451.201 6.624 451.277 6.916 451.277 7.26C451.277 7.66 451.165 8 450.941 8.28C450.717 8.56 450.409 8.776 450.017 8.928C449.625 9.072 449.173 9.144 448.661 9.144ZM452.725 10.8V9.756H453.505C453.721 9.756 453.881 9.724 453.985 9.66C454.089 9.596 454.169 9.488 454.225 9.336L454.429 8.808H454.033L451.729 2.616L453.073 2.616L454.825 7.632L456.493 2.616L457.849 2.616L455.305 9.744C455.177 10.112 454.985 10.38 454.729 10.548C454.481 10.716 454.133 10.8 453.685 10.8L452.725 10.8ZM458.716 9V2.616H459.88L459.928 4.32L459.772 4.236C459.844 3.82 459.98 3.484 460.18 3.228C460.38 2.972 460.624 2.784 460.912 2.664C461.2 2.536 461.512 2.472 461.848 2.472C462.328 2.472 462.724 2.58 463.036 2.796C463.356 3.004 463.596 3.292 463.756 3.66C463.924 4.02 464.008 4.432 464.008 4.896V9H462.736V5.28C462.736 4.904 462.696 4.588 462.616 4.332C462.536 4.076 462.404 3.88 462.22 3.744C462.036 3.608 461.796 3.54 461.5 3.54C461.052 3.54 460.688 3.688 460.408 3.984C460.128 4.28 459.988 4.712 459.988 5.28V9H458.716ZM468.294 9.144C467.686 9.144 467.154 9.008 466.698 8.736C466.242 8.464 465.89 8.076 465.642 7.572C465.394 7.068 465.27 6.48 465.27 5.808C465.27 5.136 465.394 4.552 465.642 4.056C465.89 3.552 466.242 3.164 466.698 2.892C467.154 2.612 467.686 2.472 468.294 2.472C468.814 2.472 469.274 2.564 469.674 2.748C470.082 2.924 470.41 3.184 470.658 3.528C470.914 3.872 471.078 4.292 471.15 4.788L469.818 4.86C469.754 4.444 469.586 4.128 469.314 3.912C469.042 3.688 468.702 3.576 468.294 3.576C467.758 3.576 467.338 3.776 467.034 4.176C466.738 4.568 466.59 5.112 466.59 5.808C466.59 6.504 466.738 7.052 467.034 7.452C467.338 7.844 467.758 8.04 468.294 8.04C468.702 8.04 469.042 7.928 469.314 7.704C469.586 7.472 469.754 7.124 469.818 6.66L471.15 6.732C471.078 7.22 470.914 7.644 470.658 8.004C470.41 8.364 470.082 8.644 469.674 8.844C469.274 9.044 468.814 9.144 468.294 9.144ZM472.31 9V0.48L473.582 0.48V4.056L473.426 4.032C473.498 3.672 473.63 3.38 473.822 3.156C474.014 2.924 474.25 2.752 474.53 2.64C474.81 2.528 475.118 2.472 475.454 2.472C475.918 2.472 476.31 2.576 476.63 2.784C476.95 2.984 477.19 3.268 477.35 3.636C477.518 4.004 477.602 4.424 477.602 4.896V9H476.33V5.232C476.33 4.656 476.23 4.232 476.03 3.96C475.838 3.68 475.534 3.54 475.118 3.54C474.654 3.54 474.282 3.688 474.002 3.984C473.722 4.272 473.582 4.696 473.582 5.256V9H472.31ZM479.177 9V2.616L480.341 2.616L480.389 4.308L480.281 4.272C480.369 3.696 480.545 3.276 480.809 3.012C481.081 2.748 481.445 2.616 481.901 2.616H482.513V3.756H481.901C481.581 3.756 481.313 3.808 481.097 3.912C480.881 4.016 480.717 4.176 480.605 4.392C480.501 4.608 480.449 4.888 480.449 5.232V9H479.177ZM486.048 9.144C485.44 9.144 484.908 9.008 484.452 8.736C483.996 8.464 483.644 8.076 483.396 7.572C483.148 7.068 483.024 6.48 483.024 5.808C483.024 5.128 483.148 4.54 483.396 4.044C483.644 3.548 483.996 3.164 484.452 2.892C484.908 2.612 485.44 2.472 486.048 2.472C486.656 2.472 487.188 2.612 487.644 2.892C488.1 3.164 488.452 3.548 488.7 4.044C488.948 4.54 489.072 5.128 489.072 5.808C489.072 6.48 488.948 7.068 488.7 7.572C488.452 8.076 488.1 8.464 487.644 8.736C487.188 9.008 486.656 9.144 486.048 9.144ZM486.048 8.04C486.592 8.04 487.012 7.844 487.308 7.452C487.604 7.052 487.752 6.504 487.752 5.808C487.752 5.112 487.604 4.568 487.308 4.176C487.012 3.776 486.592 3.576 486.048 3.576C485.512 3.576 485.092 3.776 484.788 4.176C484.492 4.568 484.344 5.112 484.344 5.808C484.344 6.504 484.492 7.052 484.788 7.452C485.092 7.844 485.512 8.04 486.048 8.04ZM490.357 9V2.616L491.521 2.616L491.569 4.32L491.413 4.236C491.485 3.82 491.621 3.484 491.821 3.228C492.021 2.972 492.265 2.784 492.553 2.664C492.841 2.536 493.153 2.472 493.489 2.472C493.969 2.472 494.365 2.58 494.677 2.796C494.997 3.004 495.237 3.292 495.397 3.66C495.565 4.02 495.649 4.432 495.649 4.896V9H494.377V5.28C494.377 4.904 494.337 4.588 494.257 4.332C494.177 4.076 494.045 3.88 493.861 3.744C493.677 3.608 493.437 3.54 493.141 3.54C492.693 3.54 492.329 3.688 492.049 3.984C491.769 4.28 491.629 4.712 491.629 5.28V9H490.357ZM499.934 9.144C499.326 9.144 498.794 9.008 498.338 8.736C497.882 8.464 497.53 8.076 497.282 7.572C497.034 7.068 496.91 6.48 496.91 5.808C496.91 5.128 497.034 4.54 497.282 4.044C497.53 3.548 497.882 3.164 498.338 2.892C498.794 2.612 499.326 2.472 499.934 2.472C500.542 2.472 501.074 2.612 501.53 2.892C501.986 3.164 502.338 3.548 502.586 4.044C502.834 4.54 502.958 5.128 502.958 5.808C502.958 6.48 502.834 7.068 502.586 7.572C502.338 8.076 501.986 8.464 501.53 8.736C501.074 9.008 500.542 9.144 499.934 9.144ZM499.934 8.04C500.478 8.04 500.898 7.844 501.194 7.452C501.49 7.052 501.638 6.504 501.638 5.808C501.638 5.112 501.49 4.568 501.194 4.176C500.898 3.776 500.478 3.576 499.934 3.576C499.398 3.576 498.978 3.776 498.674 4.176C498.378 4.568 498.23 5.112 498.23 5.808C498.23 6.504 498.378 7.052 498.674 7.452C498.978 7.844 499.398 8.04 499.934 8.04ZM506.344 9.144C505.704 9.144 505.192 8.932 504.808 8.508C504.432 8.076 504.244 7.48 504.244 6.72V2.616L505.516 2.616V6.396C505.516 6.972 505.616 7.396 505.816 7.668C506.016 7.94 506.32 8.076 506.728 8.076C507.192 8.076 507.552 7.928 507.808 7.632C508.072 7.328 508.204 6.904 508.204 6.36V2.616H509.476V9L508.288 9L508.264 7.332L508.444 7.404C508.332 7.964 508.096 8.396 507.736 8.7C507.376 8.996 506.912 9.144 506.344 9.144ZM513.618 9.144C513.018 9.144 512.51 9.052 512.094 8.868C511.686 8.684 511.37 8.432 511.146 8.112C510.922 7.784 510.794 7.408 510.762 6.984L512.07 6.924C512.134 7.276 512.286 7.556 512.526 7.764C512.766 7.972 513.13 8.076 513.618 8.076C514.018 8.076 514.334 8.012 514.566 7.884C514.798 7.756 514.914 7.552 514.914 7.272C514.914 7.12 514.874 6.992 514.794 6.888C514.722 6.776 514.578 6.684 514.362 6.612C514.146 6.532 513.826 6.456 513.402 6.384C512.77 6.264 512.274 6.124 511.914 5.964C511.554 5.804 511.298 5.6 511.146 5.352C510.994 5.104 510.918 4.804 510.918 4.452C510.918 3.868 511.134 3.392 511.566 3.024C512.006 2.656 512.638 2.472 513.462 2.472C514.014 2.472 514.478 2.568 514.854 2.76C515.23 2.944 515.522 3.196 515.73 3.516C515.946 3.828 516.082 4.18 516.138 4.572L514.83 4.644C514.79 4.42 514.71 4.228 514.59 4.068C514.478 3.9 514.326 3.772 514.134 3.684C513.942 3.588 513.714 3.54 513.45 3.54C513.042 3.54 512.738 3.62 512.538 3.78C512.338 3.94 512.238 4.148 512.238 4.404C512.238 4.596 512.282 4.752 512.37 4.872C512.466 4.992 512.618 5.092 512.826 5.172C513.034 5.244 513.31 5.308 513.654 5.364C514.318 5.476 514.838 5.616 515.214 5.784C515.59 5.944 515.854 6.144 516.006 6.384C516.158 6.624 516.234 6.916 516.234 7.26C516.234 7.66 516.122 8 515.898 8.28C515.674 8.56 515.366 8.776 514.974 8.928C514.582 9.072 514.13 9.144 513.618 9.144Z" fill="#2E2E2E"/>
<rect y="25" width="1" height="351" fill="#E0E0E0"/>
<line x1="6" y1="74.5" x2="24" y2="74.5" stroke="#F9D94A"/>
<path d="M22 70.0132L29.1364 74.965L22 79.3872L22 70L22 70.0132Z" fill="#F9D94A"/>
<g filter="url(#filter0_d_18_11975)">
<rect x="33" y="55" width="92" height="40" rx="13" fill="#F9F9F9"/>
<rect x="33" y="55" width="92" height="40" rx="13" stroke="#E0E0E0" stroke-miterlimit="10"/>
</g>
<path d="M49.6702 80V70.06H53.3102C54.0195 70.06 54.6215 70.1813 55.1162 70.424C55.6202 70.6573 56.0075 70.9933 56.2782 71.432C56.5488 71.8707 56.6842 72.398 56.6842 73.014C56.6842 73.4713 56.5768 73.8773 56.3622 74.232C56.1568 74.5867 55.8815 74.8713 55.5362 75.086C55.1908 75.3007 54.8175 75.422 54.4162 75.45L54.3462 75.324C54.9995 75.324 55.5035 75.4733 55.8582 75.772C56.2222 76.0613 56.4322 76.5187 56.4882 77.144L56.7402 80H55.7742L55.5362 77.228C55.4988 76.7707 55.3355 76.4347 55.0462 76.22C54.7568 75.996 54.2902 75.884 53.6462 75.884H50.6222V80H49.6702ZM50.6222 74.96H53.4642C54.1455 74.96 54.6822 74.792 55.0742 74.456C55.4755 74.1107 55.6762 73.6253 55.6762 73C55.6762 72.3467 55.4755 71.8473 55.0742 71.502C54.6728 71.1567 54.0802 70.984 53.2962 70.984H50.6222V74.96ZM61.4363 80.168C60.727 80.168 60.125 80.0047 59.6303 79.678C59.1356 79.342 58.753 78.8847 58.4823 78.306C58.221 77.718 58.0903 77.046 58.0903 76.29C58.0903 75.534 58.221 74.8667 58.4823 74.288C58.7436 73.7 59.117 73.2427 59.6023 72.916C60.097 72.58 60.6896 72.412 61.3803 72.412C62.043 72.412 62.617 72.5707 63.1023 72.888C63.5876 73.2053 63.9563 73.6533 64.2083 74.232C64.4696 74.8107 64.6003 75.4873 64.6003 76.262V76.556H59.0563C59.0936 77.4333 59.3223 78.11 59.7423 78.586C60.1623 79.0527 60.727 79.286 61.4363 79.286C61.9776 79.286 62.421 79.1553 62.7663 78.894C63.1116 78.6327 63.3496 78.2873 63.4803 77.858L64.4743 77.928C64.2876 78.5813 63.9283 79.118 63.3963 79.538C62.8643 79.958 62.211 80.168 61.4363 80.168ZM59.0563 75.73H63.5923C63.5456 74.9367 63.3263 74.3347 62.9343 73.924C62.5423 73.504 62.0243 73.294 61.3803 73.294C60.7363 73.294 60.209 73.504 59.7983 73.924C59.3876 74.344 59.1403 74.946 59.0563 75.73ZM72.1725 82.1H71.2485V78.124L71.3885 78.306C71.3139 78.6607 71.1552 78.978 70.9125 79.258C70.6792 79.538 70.3852 79.762 70.0305 79.93C69.6759 80.0887 69.2932 80.168 68.8825 80.168C68.1919 80.168 67.6132 79.9953 67.1465 79.65C66.6799 79.2953 66.3299 78.8287 66.0965 78.25C65.8632 77.662 65.7465 77.0087 65.7465 76.29C65.7465 75.5713 65.8632 74.9227 66.0965 74.344C66.3299 73.756 66.6799 73.2893 67.1465 72.944C67.6132 72.5893 68.1965 72.412 68.8965 72.412C69.5125 72.412 70.0445 72.58 70.4925 72.916C70.9499 73.252 71.2672 73.742 71.4445 74.386L71.2905 74.456L71.3185 72.58H72.1725V82.1ZM68.9665 79.286C69.4239 79.286 69.8252 79.1693 70.1705 78.936C70.5159 78.6933 70.7819 78.348 70.9685 77.9C71.1552 77.452 71.2485 76.9153 71.2485 76.29C71.2485 75.6647 71.1505 75.128 70.9545 74.68C70.7679 74.232 70.5019 73.8913 70.1565 73.658C69.8205 73.4153 69.4239 73.294 68.9665 73.294C68.2759 73.294 67.7252 73.56 67.3145 74.092C66.9132 74.624 66.7125 75.3567 66.7125 76.29C66.7125 77.2233 66.9132 77.956 67.3145 78.488C67.7159 79.02 68.2665 79.286 68.9665 79.286ZM76.9033 80.168C76.166 80.168 75.5733 79.9207 75.1253 79.426C74.6867 78.922 74.4673 78.2313 74.4673 77.354V72.58H75.3913V77.074C75.3913 77.8393 75.536 78.4087 75.8253 78.782C76.124 79.1553 76.5627 79.342 77.1413 79.342C77.7853 79.342 78.2893 79.132 78.6533 78.712C79.0267 78.292 79.2133 77.7227 79.2133 77.004V72.58H80.1373V80H79.2693L79.2553 78.096L79.3953 78.166C79.274 78.8007 78.994 79.2953 78.5553 79.65C78.126 79.9953 77.5753 80.168 76.9033 80.168ZM85.1433 80.168C84.434 80.168 83.832 80.0047 83.3373 79.678C82.8427 79.342 82.46 78.8847 82.1893 78.306C81.928 77.718 81.7973 77.046 81.7973 76.29C81.7973 75.534 81.928 74.8667 82.1893 74.288C82.4507 73.7 82.824 73.2427 83.3093 72.916C83.804 72.58 84.3967 72.412 85.0873 72.412C85.75 72.412 86.324 72.5707 86.8093 72.888C87.2947 73.2053 87.6633 73.6533 87.9153 74.232C88.1767 74.8107 88.3073 75.4873 88.3073 76.262V76.556H82.7633C82.8007 77.4333 83.0293 78.11 83.4493 78.586C83.8693 79.0527 84.434 79.286 85.1433 79.286C85.6847 79.286 86.128 79.1553 86.4733 78.894C86.8187 78.6327 87.0567 78.2873 87.1873 77.858L88.1813 77.928C87.9947 78.5813 87.6353 79.118 87.1033 79.538C86.5713 79.958 85.918 80.168 85.1433 80.168ZM82.7633 75.73H87.2993C87.2527 74.9367 87.0333 74.3347 86.6413 73.924C86.2493 73.504 85.7313 73.294 85.0873 73.294C84.4433 73.294 83.916 73.504 83.5053 73.924C83.0947 74.344 82.8473 74.946 82.7633 75.73ZM92.5896 80.168C91.9456 80.168 91.3949 80.0653 90.9376 79.86C90.4896 79.6453 90.1396 79.3513 89.8876 78.978C89.6356 78.6047 89.4909 78.1847 89.4536 77.718L90.4196 77.648C90.4756 78.1427 90.6809 78.5393 91.0356 78.838C91.3996 79.1367 91.9176 79.286 92.5896 79.286C93.1776 79.286 93.6349 79.188 93.9616 78.992C94.2882 78.796 94.4516 78.4927 94.4516 78.082C94.4516 77.858 94.4002 77.6713 94.2976 77.522C94.2042 77.3633 94.0082 77.228 93.7096 77.116C93.4109 76.9947 92.9629 76.8827 92.3656 76.78C91.6656 76.6493 91.1196 76.4953 90.7276 76.318C90.3356 76.1313 90.0602 75.9027 89.9016 75.632C89.7429 75.352 89.6636 75.0207 89.6636 74.638C89.6636 73.9753 89.9016 73.4387 90.3776 73.028C90.8536 72.6173 91.5162 72.412 92.3656 72.412C92.9442 72.412 93.4342 72.5193 93.8356 72.734C94.2462 72.9487 94.5682 73.2333 94.8016 73.588C95.0349 73.9333 95.1889 74.316 95.2636 74.736L94.2976 74.82C94.2416 74.5307 94.1342 74.274 93.9756 74.05C93.8169 73.8167 93.6022 73.6347 93.3316 73.504C93.0609 73.364 92.7342 73.294 92.3516 73.294C91.7916 73.294 91.3622 73.4153 91.0636 73.658C90.7742 73.8913 90.6296 74.204 90.6296 74.596C90.6296 74.8667 90.6902 75.0907 90.8116 75.268C90.9329 75.436 91.1336 75.576 91.4136 75.688C91.6936 75.7907 92.0809 75.884 92.5756 75.968C93.3129 76.0893 93.8869 76.2433 94.2976 76.43C94.7176 76.6073 95.0116 76.8313 95.1796 77.102C95.3476 77.3633 95.4316 77.6853 95.4316 78.068C95.4316 78.516 95.3102 78.8987 95.0676 79.216C94.8249 79.524 94.4889 79.762 94.0596 79.93C93.6396 80.0887 93.1496 80.168 92.5896 80.168ZM99.3425 80C98.7358 80 98.2878 79.86 97.9985 79.58C97.7092 79.2907 97.5645 78.852 97.5645 78.264V70.844H98.4885V78.236C98.4885 78.5813 98.5632 78.824 98.7125 78.964C98.8712 79.104 99.1092 79.174 99.4265 79.174H100.406V80H99.3425ZM96.4025 73.406V72.58H100.406V73.406H96.4025ZM107.097 80V72.454H105.011V71.642H105.795C106.169 71.642 106.463 71.5953 106.677 71.502C106.901 71.4087 107.06 71.25 107.153 71.026C107.247 70.7927 107.293 70.4707 107.293 70.06H108.049V80H107.097Z" fill="#2E2E2E"/>
<g filter="url(#filter1_d_18_11975)">
<rect x="157" y="110" width="120" height="40" rx="13" fill="#F9F9F9"/>
<rect x="157" y="110" width="120" height="40" rx="13" stroke="#E0E0E0" stroke-miterlimit="10"/>
</g>
<path d="M182.694 135V125.06H186.334C187.043 125.06 187.645 125.181 188.14 125.424C188.644 125.657 189.031 125.993 189.302 126.432C189.572 126.871 189.708 127.398 189.708 128.014C189.708 128.471 189.6 128.877 189.386 129.232C189.18 129.587 188.905 129.871 188.56 130.086C188.214 130.301 187.841 130.422 187.44 130.45L187.37 130.324C188.023 130.324 188.527 130.473 188.882 130.772C189.246 131.061 189.456 131.519 189.512 132.144L189.764 135H188.798L188.56 132.228C188.522 131.771 188.359 131.435 188.07 131.22C187.78 130.996 187.314 130.884 186.67 130.884H183.646V135H182.694ZM183.646 129.96H186.488C187.169 129.96 187.706 129.792 188.098 129.456C188.499 129.111 188.7 128.625 188.7 128C188.7 127.347 188.499 126.847 188.098 126.502C187.696 126.157 187.104 125.984 186.32 125.984H183.646V129.96ZM194.46 135.168C193.75 135.168 193.148 135.005 192.654 134.678C192.159 134.342 191.776 133.885 191.506 133.306C191.244 132.718 191.114 132.046 191.114 131.29C191.114 130.534 191.244 129.867 191.506 129.288C191.767 128.7 192.14 128.243 192.626 127.916C193.12 127.58 193.713 127.412 194.404 127.412C195.066 127.412 195.64 127.571 196.126 127.888C196.611 128.205 196.98 128.653 197.232 129.232C197.493 129.811 197.624 130.487 197.624 131.262V131.556H192.08C192.117 132.433 192.346 133.11 192.766 133.586C193.186 134.053 193.75 134.286 194.46 134.286C195.001 134.286 195.444 134.155 195.79 133.894C196.135 133.633 196.373 133.287 196.504 132.858L197.498 132.928C197.311 133.581 196.952 134.118 196.42 134.538C195.888 134.958 195.234 135.168 194.46 135.168ZM192.08 130.73H196.616C196.569 129.937 196.35 129.335 195.958 128.924C195.566 128.504 195.048 128.294 194.404 128.294C193.76 128.294 193.232 128.504 192.822 128.924C192.411 129.344 192.164 129.946 192.08 130.73ZM201.906 135.168C201.262 135.168 200.711 135.065 200.254 134.86C199.806 134.645 199.456 134.351 199.204 133.978C198.952 133.605 198.807 133.185 198.77 132.718L199.736 132.648C199.792 133.143 199.997 133.539 200.352 133.838C200.716 134.137 201.234 134.286 201.906 134.286C202.494 134.286 202.951 134.188 203.278 133.992C203.605 133.796 203.768 133.493 203.768 133.082C203.768 132.858 203.717 132.671 203.614 132.522C203.521 132.363 203.325 132.228 203.026 132.116C202.727 131.995 202.279 131.883 201.682 131.78C200.982 131.649 200.436 131.495 200.044 131.318C199.652 131.131 199.377 130.903 199.218 130.632C199.059 130.352 198.98 130.021 198.98 129.638C198.98 128.975 199.218 128.439 199.694 128.028C200.17 127.617 200.833 127.412 201.682 127.412C202.261 127.412 202.751 127.519 203.152 127.734C203.563 127.949 203.885 128.233 204.118 128.588C204.351 128.933 204.505 129.316 204.58 129.736L203.614 129.82C203.558 129.531 203.451 129.274 203.292 129.05C203.133 128.817 202.919 128.635 202.648 128.504C202.377 128.364 202.051 128.294 201.668 128.294C201.108 128.294 200.679 128.415 200.38 128.658C200.091 128.891 199.946 129.204 199.946 129.596C199.946 129.867 200.007 130.091 200.128 130.268C200.249 130.436 200.45 130.576 200.73 130.688C201.01 130.791 201.397 130.884 201.892 130.968C202.629 131.089 203.203 131.243 203.614 131.43C204.034 131.607 204.328 131.831 204.496 132.102C204.664 132.363 204.748 132.685 204.748 133.068C204.748 133.516 204.627 133.899 204.384 134.216C204.141 134.524 203.805 134.762 203.376 134.93C202.956 135.089 202.466 135.168 201.906 135.168ZM206.397 137.1V127.58H207.237L207.265 129.456L207.111 129.386C207.298 128.742 207.62 128.252 208.077 127.916C208.534 127.58 209.066 127.412 209.673 127.412C210.373 127.412 210.952 127.589 211.409 127.944C211.876 128.289 212.226 128.756 212.459 129.344C212.702 129.923 212.823 130.571 212.823 131.29C212.823 132.009 212.706 132.662 212.473 133.25C212.24 133.829 211.89 134.295 211.423 134.65C210.956 134.995 210.373 135.168 209.673 135.168C209.262 135.168 208.88 135.089 208.525 134.93C208.18 134.762 207.886 134.538 207.643 134.258C207.41 133.978 207.251 133.661 207.167 133.306L207.321 133.124V137.1H206.397ZM209.603 134.286C210.294 134.286 210.84 134.02 211.241 133.488C211.642 132.956 211.843 132.223 211.843 131.29C211.843 130.357 211.642 129.624 211.241 129.092C210.84 128.56 210.289 128.294 209.589 128.294C209.132 128.294 208.73 128.415 208.385 128.658C208.049 128.891 207.788 129.232 207.601 129.68C207.414 130.128 207.321 130.665 207.321 131.29C207.321 131.915 207.414 132.452 207.601 132.9C207.788 133.348 208.054 133.693 208.399 133.936C208.744 134.169 209.146 134.286 209.603 134.286ZM217.291 135.168C216.619 135.168 216.031 135.009 215.527 134.692C215.032 134.375 214.65 133.927 214.379 133.348C214.108 132.76 213.973 132.074 213.973 131.29C213.973 130.497 214.108 129.811 214.379 129.232C214.65 128.653 215.032 128.205 215.527 127.888C216.031 127.571 216.619 127.412 217.291 127.412C217.963 127.412 218.546 127.571 219.041 127.888C219.536 128.205 219.918 128.653 220.189 129.232C220.46 129.811 220.595 130.497 220.595 131.29C220.595 132.074 220.46 132.76 220.189 133.348C219.918 133.927 219.536 134.375 219.041 134.692C218.546 135.009 217.963 135.168 217.291 135.168ZM217.291 134.286C218.019 134.286 218.588 134.02 218.999 133.488C219.419 132.947 219.629 132.214 219.629 131.29C219.629 130.366 219.419 129.638 218.999 129.106C218.588 128.565 218.019 128.294 217.291 128.294C216.563 128.294 215.989 128.565 215.569 129.106C215.149 129.638 214.939 130.366 214.939 131.29C214.939 132.214 215.149 132.947 215.569 133.488C215.989 134.02 216.563 134.286 217.291 134.286ZM222.256 135V127.58H223.096L223.138 129.526L223.026 129.442C223.101 128.985 223.255 128.607 223.488 128.308C223.731 128.009 224.025 127.785 224.37 127.636C224.716 127.487 225.089 127.412 225.49 127.412C226.06 127.412 226.526 127.538 226.89 127.79C227.264 128.042 227.539 128.383 227.716 128.812C227.894 129.232 227.982 129.703 227.982 130.226V135H227.058V130.562C227.058 130.077 226.998 129.661 226.876 129.316C226.764 128.971 226.578 128.705 226.316 128.518C226.055 128.331 225.714 128.238 225.294 128.238C224.66 128.238 224.146 128.443 223.754 128.854C223.372 129.265 223.18 129.834 223.18 130.562V135H222.256ZM232.75 135.168C232.106 135.168 231.555 135.065 231.098 134.86C230.65 134.645 230.3 134.351 230.048 133.978C229.796 133.605 229.651 133.185 229.614 132.718L230.58 132.648C230.636 133.143 230.841 133.539 231.196 133.838C231.56 134.137 232.078 134.286 232.75 134.286C233.338 134.286 233.795 134.188 234.122 133.992C234.448 133.796 234.612 133.493 234.612 133.082C234.612 132.858 234.56 132.671 234.458 132.522C234.364 132.363 234.168 132.228 233.87 132.116C233.571 131.995 233.123 131.883 232.526 131.78C231.826 131.649 231.28 131.495 230.888 131.318C230.496 131.131 230.22 130.903 230.062 130.632C229.903 130.352 229.824 130.021 229.824 129.638C229.824 128.975 230.062 128.439 230.538 128.028C231.014 127.617 231.676 127.412 232.526 127.412C233.104 127.412 233.594 127.519 233.996 127.734C234.406 127.949 234.728 128.233 234.962 128.588C235.195 128.933 235.349 129.316 235.424 129.736L234.458 129.82C234.402 129.531 234.294 129.274 234.136 129.05C233.977 128.817 233.762 128.635 233.492 128.504C233.221 128.364 232.894 128.294 232.512 128.294C231.952 128.294 231.522 128.415 231.224 128.658C230.934 128.891 230.79 129.204 230.79 129.596C230.79 129.867 230.85 130.091 230.972 130.268C231.093 130.436 231.294 130.576 231.574 130.688C231.854 130.791 232.241 130.884 232.736 130.968C233.473 131.089 234.047 131.243 234.458 131.43C234.878 131.607 235.172 131.831 235.34 132.102C235.508 132.363 235.592 132.685 235.592 133.068C235.592 133.516 235.47 133.899 235.228 134.216C234.985 134.524 234.649 134.762 234.22 134.93C233.8 135.089 233.31 135.168 232.75 135.168ZM240.083 135.168C239.373 135.168 238.771 135.005 238.277 134.678C237.782 134.342 237.399 133.885 237.129 133.306C236.867 132.718 236.737 132.046 236.737 131.29C236.737 130.534 236.867 129.867 237.129 129.288C237.39 128.7 237.763 128.243 238.249 127.916C238.743 127.58 239.336 127.412 240.027 127.412C240.689 127.412 241.263 127.571 241.749 127.888C242.234 128.205 242.603 128.653 242.855 129.232C243.116 129.811 243.247 130.487 243.247 131.262V131.556H237.703C237.74 132.433 237.969 133.11 238.389 133.586C238.809 134.053 239.373 134.286 240.083 134.286C240.624 134.286 241.067 134.155 241.413 133.894C241.758 133.633 241.996 133.287 242.127 132.858L243.121 132.928C242.934 133.581 242.575 134.118 242.043 134.538C241.511 134.958 240.857 135.168 240.083 135.168ZM237.703 130.73H242.239C242.192 129.937 241.973 129.335 241.581 128.924C241.189 128.504 240.671 128.294 240.027 128.294C239.383 128.294 238.855 128.504 238.445 128.924C238.034 129.344 237.787 129.946 237.703 130.73ZM250.074 135V127.454H247.988V126.642H248.772C249.145 126.642 249.439 126.595 249.654 126.502C249.878 126.409 250.036 126.25 250.13 126.026C250.223 125.793 250.27 125.471 250.27 125.06H251.026V135H250.074Z" fill="#2E2E2E"/>
<path d="M10 182.5L80 182.5L190 182.25L203.125 182.124C210.256 182.055 216 176.255 216 169.124L216 154" stroke="#E0E0E0"/>
<path d="M129 75L189.5 75.25L202.625 75.3762C209.756 75.4447 215.5 81.2447 215.5 88.3756L215.5 103.5" stroke="#E0E0E0"/>
<path d="M131.105 77.2103C132.268 77.2103 133.21 76.2678 133.21 75.1052C133.21 73.9425 132.268 73 131.105 73C129.943 73 129 73.9425 129 75.1052C129 76.2678 129.943 77.2103 131.105 77.2103Z" fill="white" stroke="#E0E0E0" stroke-width="0.953282" stroke-miterlimit="10"/>
<path d="M216.105 158.21C217.268 158.21 218.21 157.268 218.21 156.105C218.21 154.943 217.268 154 216.105 154C214.943 154 214 154.943 214 156.105C214 157.268 214.943 158.21 216.105 158.21Z" fill="white" stroke="#E0E0E0" stroke-width="0.953282" stroke-miterlimit="10"/>
<path d="M13.1367 187.374L6.00035 182.422L13.1367 178L13.1367 187.387L13.1367 187.374Z" fill="#F9D94A"/>
<path d="M220.374 98L215.422 105.136L211 98H220.387H220.374Z" fill="#F9D94A"/>
<line x1="6" y1="231.5" x2="24" y2="231.5" stroke="#F9D94A"/>
<path d="M22 227.013L29.1364 231.965L22 236.387L22 227L22 227.013Z" fill="#F9D94A"/>
<g filter="url(#filter2_d_18_11975)">
<rect x="33" y="212" width="92" height="40" rx="13" fill="#F9F9F9"/>
<rect x="33" y="212" width="92" height="40" rx="13" stroke="#E0E0E0" stroke-miterlimit="10"/>
</g>
<path d="M48.4543 237V227.06H52.0943C52.8037 227.06 53.4057 227.181 53.9003 227.424C54.4043 227.657 54.7917 227.993 55.0623 228.432C55.333 228.871 55.4683 229.398 55.4683 230.014C55.4683 230.471 55.361 230.877 55.1463 231.232C54.941 231.587 54.6657 231.871 54.3203 232.086C53.975 232.301 53.6017 232.422 53.2003 232.45L53.1303 232.324C53.7837 232.324 54.2877 232.473 54.6423 232.772C55.0063 233.061 55.2163 233.519 55.2723 234.144L55.5243 237H54.5583L54.3203 234.228C54.283 233.771 54.1197 233.435 53.8303 233.22C53.541 232.996 53.0743 232.884 52.4303 232.884H49.4063V237H48.4543ZM49.4063 231.96H52.2483C52.9297 231.96 53.4663 231.792 53.8583 231.456C54.2597 231.111 54.4603 230.625 54.4603 230C54.4603 229.347 54.2597 228.847 53.8583 228.502C53.457 228.157 52.8643 227.984 52.0803 227.984H49.4063V231.96ZM60.2205 237.168C59.5111 237.168 58.9091 237.005 58.4145 236.678C57.9198 236.342 57.5371 235.885 57.2665 235.306C57.0051 234.718 56.8745 234.046 56.8745 233.29C56.8745 232.534 57.0051 231.867 57.2665 231.288C57.5278 230.7 57.9011 230.243 58.3865 229.916C58.8811 229.58 59.4738 229.412 60.1645 229.412C60.8271 229.412 61.4011 229.571 61.8865 229.888C62.3718 230.205 62.7405 230.653 62.9925 231.232C63.2538 231.811 63.3845 232.487 63.3845 233.262V233.556H57.8405C57.8778 234.433 58.1065 235.11 58.5265 235.586C58.9465 236.053 59.5111 236.286 60.2205 236.286C60.7618 236.286 61.2051 236.155 61.5505 235.894C61.8958 235.633 62.1338 235.287 62.2645 234.858L63.2585 234.928C63.0718 235.581 62.7125 236.118 62.1805 236.538C61.6485 236.958 60.9951 237.168 60.2205 237.168ZM57.8405 232.73H62.3765C62.3298 231.937 62.1105 231.335 61.7185 230.924C61.3265 230.504 60.8085 230.294 60.1645 230.294C59.5205 230.294 58.9931 230.504 58.5825 230.924C58.1718 231.344 57.9245 231.946 57.8405 232.73ZM70.9567 239.1H70.0327V235.124L70.1727 235.306C70.0981 235.661 69.9394 235.978 69.6967 236.258C69.4634 236.538 69.1694 236.762 68.8147 236.93C68.4601 237.089 68.0774 237.168 67.6667 237.168C66.9761 237.168 66.3974 236.995 65.9307 236.65C65.4641 236.295 65.1141 235.829 64.8807 235.25C64.6474 234.662 64.5307 234.009 64.5307 233.29C64.5307 232.571 64.6474 231.923 64.8807 231.344C65.1141 230.756 65.4641 230.289 65.9307 229.944C66.3974 229.589 66.9807 229.412 67.6807 229.412C68.2967 229.412 68.8287 229.58 69.2767 229.916C69.7341 230.252 70.0514 230.742 70.2287 231.386L70.0747 231.456L70.1027 229.58H70.9567V239.1ZM67.7507 236.286C68.2081 236.286 68.6094 236.169 68.9547 235.936C69.3001 235.693 69.5661 235.348 69.7527 234.9C69.9394 234.452 70.0327 233.915 70.0327 233.29C70.0327 232.665 69.9347 232.128 69.7387 231.68C69.5521 231.232 69.2861 230.891 68.9407 230.658C68.6047 230.415 68.2081 230.294 67.7507 230.294C67.0601 230.294 66.5094 230.56 66.0987 231.092C65.6974 231.624 65.4967 232.357 65.4967 233.29C65.4967 234.223 65.6974 234.956 66.0987 235.488C66.5001 236.02 67.0507 236.286 67.7507 236.286ZM75.6875 237.168C74.9502 237.168 74.3575 236.921 73.9095 236.426C73.4708 235.922 73.2515 235.231 73.2515 234.354V229.58H74.1755V234.074C74.1755 234.839 74.3202 235.409 74.6095 235.782C74.9082 236.155 75.3468 236.342 75.9255 236.342C76.5695 236.342 77.0735 236.132 77.4375 235.712C77.8108 235.292 77.9975 234.723 77.9975 234.004V229.58H78.9215V237H78.0535L78.0395 235.096L78.1795 235.166C78.0582 235.801 77.7782 236.295 77.3395 236.65C76.9102 236.995 76.3595 237.168 75.6875 237.168ZM83.9275 237.168C83.2182 237.168 82.6162 237.005 82.1215 236.678C81.6268 236.342 81.2442 235.885 80.9735 235.306C80.7122 234.718 80.5815 234.046 80.5815 233.29C80.5815 232.534 80.7122 231.867 80.9735 231.288C81.2348 230.7 81.6082 230.243 82.0935 229.916C82.5882 229.58 83.1808 229.412 83.8715 229.412C84.5342 229.412 85.1082 229.571 85.5935 229.888C86.0788 230.205 86.4475 230.653 86.6995 231.232C86.9608 231.811 87.0915 232.487 87.0915 233.262V233.556H81.5475C81.5848 234.433 81.8135 235.11 82.2335 235.586C82.6535 236.053 83.2182 236.286 83.9275 236.286C84.4688 236.286 84.9122 236.155 85.2575 235.894C85.6028 235.633 85.8408 235.287 85.9715 234.858L86.9655 234.928C86.7788 235.581 86.4195 236.118 85.8875 236.538C85.3555 236.958 84.7022 237.168 83.9275 237.168ZM81.5475 232.73H86.0835C86.0368 231.937 85.8175 231.335 85.4255 230.924C85.0335 230.504 84.5155 230.294 83.8715 230.294C83.2275 230.294 82.7002 230.504 82.2895 230.924C81.8788 231.344 81.6315 231.946 81.5475 232.73ZM91.3738 237.168C90.7298 237.168 90.1791 237.065 89.7218 236.86C89.2738 236.645 88.9238 236.351 88.6718 235.978C88.4198 235.605 88.2751 235.185 88.2378 234.718L89.2038 234.648C89.2598 235.143 89.4651 235.539 89.8198 235.838C90.1838 236.137 90.7018 236.286 91.3738 236.286C91.9618 236.286 92.4191 236.188 92.7458 235.992C93.0724 235.796 93.2358 235.493 93.2358 235.082C93.2358 234.858 93.1844 234.671 93.0818 234.522C92.9884 234.363 92.7924 234.228 92.4938 234.116C92.1951 233.995 91.7471 233.883 91.1498 233.78C90.4498 233.649 89.9038 233.495 89.5118 233.318C89.1198 233.131 88.8444 232.903 88.6858 232.632C88.5271 232.352 88.4478 232.021 88.4478 231.638C88.4478 230.975 88.6858 230.439 89.1618 230.028C89.6378 229.617 90.3004 229.412 91.1498 229.412C91.7284 229.412 92.2184 229.519 92.6198 229.734C93.0304 229.949 93.3524 230.233 93.5858 230.588C93.8191 230.933 93.9731 231.316 94.0478 231.736L93.0818 231.82C93.0258 231.531 92.9184 231.274 92.7598 231.05C92.6011 230.817 92.3864 230.635 92.1158 230.504C91.8451 230.364 91.5184 230.294 91.1358 230.294C90.5758 230.294 90.1464 230.415 89.8478 230.658C89.5584 230.891 89.4138 231.204 89.4138 231.596C89.4138 231.867 89.4744 232.091 89.5958 232.268C89.7171 232.436 89.9178 232.576 90.1978 232.688C90.4778 232.791 90.8651 232.884 91.3598 232.968C92.0971 233.089 92.6711 233.243 93.0818 233.43C93.5018 233.607 93.7958 233.831 93.9638 234.102C94.1318 234.363 94.2158 234.685 94.2158 235.068C94.2158 235.516 94.0944 235.899 93.8518 236.216C93.6091 236.524 93.2731 236.762 92.8438 236.93C92.4238 237.089 91.9338 237.168 91.3738 237.168ZM98.1267 237C97.52 237 97.072 236.86 96.7827 236.58C96.4933 236.291 96.3487 235.852 96.3487 235.264V227.844H97.2727V235.236C97.2727 235.581 97.3473 235.824 97.4967 235.964C97.6553 236.104 97.8933 236.174 98.2107 236.174H99.1907V237H98.1267ZM95.1867 230.406V229.58H99.1907V230.406H95.1867ZM104.075 237C104.075 236.328 104.187 235.721 104.411 235.18C104.645 234.629 105.032 234.111 105.573 233.626C106.124 233.131 106.871 232.641 107.813 232.156C108.317 231.895 108.728 231.652 109.045 231.428C109.363 231.195 109.596 230.947 109.745 230.686C109.895 230.425 109.969 230.107 109.969 229.734C109.969 229.351 109.885 229.015 109.717 228.726C109.549 228.427 109.302 228.194 108.975 228.026C108.649 227.858 108.243 227.774 107.757 227.774C107.011 227.774 106.413 227.975 105.965 228.376C105.517 228.777 105.237 229.356 105.125 230.112L104.131 230.042C104.243 229.062 104.617 228.283 105.251 227.704C105.886 227.125 106.721 226.836 107.757 226.836C108.429 226.836 109.003 226.962 109.479 227.214C109.965 227.457 110.333 227.793 110.585 228.222C110.837 228.651 110.963 229.146 110.963 229.706C110.963 230.219 110.87 230.663 110.683 231.036C110.506 231.4 110.212 231.741 109.801 232.058C109.4 232.366 108.863 232.693 108.191 233.038C107.239 233.533 106.516 234.046 106.021 234.578C105.536 235.11 105.275 235.609 105.237 236.076H110.963V237H104.075Z" fill="#2E2E2E"/>
<g filter="url(#filter3_d_18_11975)">
<rect x="157" y="267" width="120" height="40" rx="13" fill="#F9F9F9"/>
<rect x="157" y="267" width="120" height="40" rx="13" stroke="#E0E0E0" stroke-miterlimit="10"/>
</g>
<path d="M181.478 292V282.06H185.118C185.827 282.06 186.429 282.181 186.924 282.424C187.428 282.657 187.815 282.993 188.086 283.432C188.356 283.871 188.492 284.398 188.492 285.014C188.492 285.471 188.384 285.877 188.17 286.232C187.964 286.587 187.689 286.871 187.344 287.086C186.998 287.301 186.625 287.422 186.224 287.45L186.154 287.324C186.807 287.324 187.311 287.473 187.666 287.772C188.03 288.061 188.24 288.519 188.296 289.144L188.548 292H187.582L187.344 289.228C187.306 288.771 187.143 288.435 186.854 288.22C186.564 287.996 186.098 287.884 185.454 287.884H182.43V292H181.478ZM182.43 286.96H185.272C185.953 286.96 186.49 286.792 186.882 286.456C187.283 286.111 187.484 285.625 187.484 285C187.484 284.347 187.283 283.847 186.882 283.502C186.48 283.157 185.888 282.984 185.104 282.984H182.43V286.96ZM193.244 292.168C192.535 292.168 191.933 292.005 191.438 291.678C190.943 291.342 190.561 290.885 190.29 290.306C190.029 289.718 189.898 289.046 189.898 288.29C189.898 287.534 190.029 286.867 190.29 286.288C190.551 285.7 190.925 285.243 191.41 284.916C191.905 284.58 192.497 284.412 193.188 284.412C193.851 284.412 194.425 284.571 194.91 284.888C195.395 285.205 195.764 285.653 196.016 286.232C196.277 286.811 196.408 287.487 196.408 288.262V288.556H190.864C190.901 289.433 191.13 290.11 191.55 290.586C191.97 291.053 192.535 291.286 193.244 291.286C193.785 291.286 194.229 291.155 194.574 290.894C194.919 290.633 195.157 290.287 195.288 289.858L196.282 289.928C196.095 290.581 195.736 291.118 195.204 291.538C194.672 291.958 194.019 292.168 193.244 292.168ZM190.864 287.73H195.4C195.353 286.937 195.134 286.335 194.742 285.924C194.35 285.504 193.832 285.294 193.188 285.294C192.544 285.294 192.017 285.504 191.606 285.924C191.195 286.344 190.948 286.946 190.864 287.73ZM200.69 292.168C200.046 292.168 199.495 292.065 199.038 291.86C198.59 291.645 198.24 291.351 197.988 290.978C197.736 290.605 197.591 290.185 197.554 289.718L198.52 289.648C198.576 290.143 198.781 290.539 199.136 290.838C199.5 291.137 200.018 291.286 200.69 291.286C201.278 291.286 201.735 291.188 202.062 290.992C202.389 290.796 202.552 290.493 202.552 290.082C202.552 289.858 202.501 289.671 202.398 289.522C202.305 289.363 202.109 289.228 201.81 289.116C201.511 288.995 201.063 288.883 200.466 288.78C199.766 288.649 199.22 288.495 198.828 288.318C198.436 288.131 198.161 287.903 198.002 287.632C197.843 287.352 197.764 287.021 197.764 286.638C197.764 285.975 198.002 285.439 198.478 285.028C198.954 284.617 199.617 284.412 200.466 284.412C201.045 284.412 201.535 284.519 201.936 284.734C202.347 284.949 202.669 285.233 202.902 285.588C203.135 285.933 203.289 286.316 203.364 286.736L202.398 286.82C202.342 286.531 202.235 286.274 202.076 286.05C201.917 285.817 201.703 285.635 201.432 285.504C201.161 285.364 200.835 285.294 200.452 285.294C199.892 285.294 199.463 285.415 199.164 285.658C198.875 285.891 198.73 286.204 198.73 286.596C198.73 286.867 198.791 287.091 198.912 287.268C199.033 287.436 199.234 287.576 199.514 287.688C199.794 287.791 200.181 287.884 200.676 287.968C201.413 288.089 201.987 288.243 202.398 288.43C202.818 288.607 203.112 288.831 203.28 289.102C203.448 289.363 203.532 289.685 203.532 290.068C203.532 290.516 203.411 290.899 203.168 291.216C202.925 291.524 202.589 291.762 202.16 291.93C201.74 292.089 201.25 292.168 200.69 292.168ZM205.181 294.1V284.58H206.021L206.049 286.456L205.895 286.386C206.082 285.742 206.404 285.252 206.861 284.916C207.319 284.58 207.851 284.412 208.457 284.412C209.157 284.412 209.736 284.589 210.193 284.944C210.66 285.289 211.01 285.756 211.243 286.344C211.486 286.923 211.607 287.571 211.607 288.29C211.607 289.009 211.491 289.662 211.257 290.25C211.024 290.829 210.674 291.295 210.207 291.65C209.741 291.995 209.157 292.168 208.457 292.168C208.047 292.168 207.664 292.089 207.309 291.93C206.964 291.762 206.67 291.538 206.427 291.258C206.194 290.978 206.035 290.661 205.951 290.306L206.105 290.124V294.1H205.181ZM208.387 291.286C209.078 291.286 209.624 291.02 210.025 290.488C210.427 289.956 210.627 289.223 210.627 288.29C210.627 287.357 210.427 286.624 210.025 286.092C209.624 285.56 209.073 285.294 208.373 285.294C207.916 285.294 207.515 285.415 207.169 285.658C206.833 285.891 206.572 286.232 206.385 286.68C206.199 287.128 206.105 287.665 206.105 288.29C206.105 288.915 206.199 289.452 206.385 289.9C206.572 290.348 206.838 290.693 207.183 290.936C207.529 291.169 207.93 291.286 208.387 291.286ZM216.075 292.168C215.403 292.168 214.815 292.009 214.311 291.692C213.817 291.375 213.434 290.927 213.163 290.348C212.893 289.76 212.757 289.074 212.757 288.29C212.757 287.497 212.893 286.811 213.163 286.232C213.434 285.653 213.817 285.205 214.311 284.888C214.815 284.571 215.403 284.412 216.075 284.412C216.747 284.412 217.331 284.571 217.825 284.888C218.32 285.205 218.703 285.653 218.973 286.232C219.244 286.811 219.379 287.497 219.379 288.29C219.379 289.074 219.244 289.76 218.973 290.348C218.703 290.927 218.32 291.375 217.825 291.692C217.331 292.009 216.747 292.168 216.075 292.168ZM216.075 291.286C216.803 291.286 217.373 291.02 217.783 290.488C218.203 289.947 218.413 289.214 218.413 288.29C218.413 287.366 218.203 286.638 217.783 286.106C217.373 285.565 216.803 285.294 216.075 285.294C215.347 285.294 214.773 285.565 214.353 286.106C213.933 286.638 213.723 287.366 213.723 288.29C213.723 289.214 213.933 289.947 214.353 290.488C214.773 291.02 215.347 291.286 216.075 291.286ZM221.041 292V284.58H221.881L221.923 286.526L221.811 286.442C221.885 285.985 222.039 285.607 222.273 285.308C222.515 285.009 222.809 284.785 223.155 284.636C223.5 284.487 223.873 284.412 224.275 284.412C224.844 284.412 225.311 284.538 225.675 284.79C226.048 285.042 226.323 285.383 226.501 285.812C226.678 286.232 226.767 286.703 226.767 287.226V292H225.843V287.562C225.843 287.077 225.782 286.661 225.661 286.316C225.549 285.971 225.362 285.705 225.101 285.518C224.839 285.331 224.499 285.238 224.079 285.238C223.444 285.238 222.931 285.443 222.539 285.854C222.156 286.265 221.965 286.834 221.965 287.562V292H221.041ZM231.534 292.168C230.89 292.168 230.339 292.065 229.882 291.86C229.434 291.645 229.084 291.351 228.832 290.978C228.58 290.605 228.435 290.185 228.398 289.718L229.364 289.648C229.42 290.143 229.625 290.539 229.98 290.838C230.344 291.137 230.862 291.286 231.534 291.286C232.122 291.286 232.579 291.188 232.906 290.992C233.233 290.796 233.396 290.493 233.396 290.082C233.396 289.858 233.345 289.671 233.242 289.522C233.149 289.363 232.953 289.228 232.654 289.116C232.355 288.995 231.907 288.883 231.31 288.78C230.61 288.649 230.064 288.495 229.672 288.318C229.28 288.131 229.005 287.903 228.846 287.632C228.687 287.352 228.608 287.021 228.608 286.638C228.608 285.975 228.846 285.439 229.322 285.028C229.798 284.617 230.461 284.412 231.31 284.412C231.889 284.412 232.379 284.519 232.78 284.734C233.191 284.949 233.513 285.233 233.746 285.588C233.979 285.933 234.133 286.316 234.208 286.736L233.242 286.82C233.186 286.531 233.079 286.274 232.92 286.05C232.761 285.817 232.547 285.635 232.276 285.504C232.005 285.364 231.679 285.294 231.296 285.294C230.736 285.294 230.307 285.415 230.008 285.658C229.719 285.891 229.574 286.204 229.574 286.596C229.574 286.867 229.635 287.091 229.756 287.268C229.877 287.436 230.078 287.576 230.358 287.688C230.638 287.791 231.025 287.884 231.52 287.968C232.257 288.089 232.831 288.243 233.242 288.43C233.662 288.607 233.956 288.831 234.124 289.102C234.292 289.363 234.376 289.685 234.376 290.068C234.376 290.516 234.255 290.899 234.012 291.216C233.769 291.524 233.433 291.762 233.004 291.93C232.584 292.089 232.094 292.168 231.534 292.168ZM238.867 292.168C238.158 292.168 237.556 292.005 237.061 291.678C236.566 291.342 236.184 290.885 235.913 290.306C235.652 289.718 235.521 289.046 235.521 288.29C235.521 287.534 235.652 286.867 235.913 286.288C236.174 285.7 236.548 285.243 237.033 284.916C237.528 284.58 238.12 284.412 238.811 284.412C239.474 284.412 240.048 284.571 240.533 284.888C241.018 285.205 241.387 285.653 241.639 286.232C241.9 286.811 242.031 287.487 242.031 288.262V288.556H236.487C236.524 289.433 236.753 290.11 237.173 290.586C237.593 291.053 238.158 291.286 238.867 291.286C239.408 291.286 239.852 291.155 240.197 290.894C240.542 290.633 240.78 290.287 240.911 289.858L241.905 289.928C241.718 290.581 241.359 291.118 240.827 291.538C240.295 291.958 239.642 292.168 238.867 292.168ZM236.487 287.73H241.023C240.976 286.937 240.757 286.335 240.365 285.924C239.973 285.504 239.455 285.294 238.811 285.294C238.167 285.294 237.64 285.504 237.229 285.924C236.818 286.344 236.571 286.946 236.487 287.73ZM247.052 292C247.052 291.328 247.164 290.721 247.388 290.18C247.621 289.629 248.009 289.111 248.55 288.626C249.101 288.131 249.847 287.641 250.79 287.156C251.294 286.895 251.705 286.652 252.022 286.428C252.339 286.195 252.573 285.947 252.722 285.686C252.871 285.425 252.946 285.107 252.946 284.734C252.946 284.351 252.862 284.015 252.694 283.726C252.526 283.427 252.279 283.194 251.952 283.026C251.625 282.858 251.219 282.774 250.734 282.774C249.987 282.774 249.39 282.975 248.942 283.376C248.494 283.777 248.214 284.356 248.102 285.112L247.108 285.042C247.22 284.062 247.593 283.283 248.228 282.704C248.863 282.125 249.698 281.836 250.734 281.836C251.406 281.836 251.98 281.962 252.456 282.214C252.941 282.457 253.31 282.793 253.562 283.222C253.814 283.651 253.94 284.146 253.94 284.706C253.94 285.219 253.847 285.663 253.66 286.036C253.483 286.4 253.189 286.741 252.778 287.058C252.377 287.366 251.84 287.693 251.168 288.038C250.216 288.533 249.493 289.046 248.998 289.578C248.513 290.11 248.251 290.609 248.214 291.076H253.94V292H247.052Z" fill="#2E2E2E"/>
<path d="M10 339.5L80 339.5L190 339.25L203.125 339.124C210.256 339.055 216 333.255 216 326.124L216 311" stroke="#E0E0E0"/>
<path d="M129 232L189.5 232.25L202.625 232.376C209.756 232.445 215.5 238.245 215.5 245.376L215.5 260.5" stroke="#E0E0E0"/>
<path d="M131.105 234.21C132.268 234.21 133.21 233.268 133.21 232.105C133.21 230.943 132.268 230 131.105 230C129.943 230 129 230.943 129 232.105C129 233.268 129.943 234.21 131.105 234.21Z" fill="white" stroke="#E0E0E0" stroke-width="0.953282" stroke-miterlimit="10"/>
<path d="M216.105 315.21C217.268 315.21 218.21 314.268 218.21 313.105C218.21 311.943 217.268 311 216.105 311C214.943 311 214 311.943 214 313.105C214 314.268 214.943 315.21 216.105 315.21Z" fill="white" stroke="#E0E0E0" stroke-width="0.953282" stroke-miterlimit="10"/>
<path d="M13.1367 344.374L6.00035 339.422L13.1367 335L13.1367 344.387L13.1367 344.374Z" fill="#F9D94A"/>
<path d="M220.374 255L215.422 262.136L211 255H220.387H220.374Z" fill="#F9D94A"/>
<path d="M106.141 9.192C105.461 9.192 104.869 9.068 104.365 8.82C103.869 8.572 103.477 8.228 103.189 7.788C102.901 7.348 102.733 6.836 102.685 6.252L104.017 6.168C104.073 6.568 104.189 6.908 104.365 7.188C104.541 7.46 104.777 7.668 105.073 7.812C105.377 7.948 105.741 8.016 106.165 8.016C106.533 8.016 106.845 7.972 107.101 7.884C107.365 7.788 107.565 7.648 107.701 7.464C107.837 7.28 107.905 7.056 107.905 6.792C107.905 6.552 107.845 6.34 107.725 6.156C107.613 5.964 107.393 5.792 107.065 5.64C106.745 5.48 106.273 5.324 105.649 5.172C104.969 5.004 104.425 4.82 104.017 4.62C103.609 4.42 103.313 4.172 103.129 3.876C102.953 3.572 102.865 3.2 102.865 2.76C102.865 2.272 102.981 1.844 103.213 1.476C103.453 1.1 103.793 0.808 104.233 0.599999C104.673 0.392 105.201 0.288 105.817 0.288C106.465 0.288 107.017 0.408 107.473 0.648C107.937 0.888 108.301 1.216 108.565 1.632C108.837 2.048 109.005 2.524 109.069 3.06L107.737 3.132C107.697 2.804 107.597 2.516 107.437 2.268C107.277 2.012 107.061 1.816 106.789 1.68C106.517 1.536 106.185 1.464 105.793 1.464C105.297 1.464 104.905 1.58 104.617 1.812C104.337 2.036 104.197 2.336 104.197 2.712C104.197 2.952 104.253 3.156 104.365 3.324C104.485 3.484 104.693 3.624 104.989 3.744C105.293 3.864 105.721 3.992 106.273 4.128C107.009 4.296 107.593 4.504 108.025 4.752C108.465 4.992 108.777 5.276 108.961 5.604C109.145 5.932 109.237 6.304 109.237 6.72C109.237 7.224 109.105 7.664 108.841 8.04C108.585 8.408 108.225 8.692 107.761 8.892C107.297 9.092 106.757 9.192 106.141 9.192ZM110.949 10.8V9.756H111.729C111.945 9.756 112.105 9.724 112.209 9.66C112.313 9.596 112.393 9.488 112.449 9.336L112.653 8.808H112.257L109.953 2.616H111.297L113.049 7.632L114.717 2.616H116.073L113.529 9.744C113.401 10.112 113.209 10.38 112.953 10.548C112.705 10.716 112.357 10.8 111.909 10.8H110.949ZM116.941 9V2.616L118.105 2.616L118.153 4.32L117.997 4.236C118.069 3.82 118.205 3.484 118.405 3.228C118.605 2.972 118.849 2.784 119.137 2.664C119.425 2.536 119.737 2.472 120.073 2.472C120.553 2.472 120.949 2.58 121.261 2.796C121.581 3.004 121.821 3.292 121.981 3.66C122.149 4.02 122.233 4.432 122.233 4.896V9H120.961V5.28C120.961 4.904 120.921 4.588 120.841 4.332C120.761 4.076 120.629 3.88 120.445 3.744C120.261 3.608 120.021 3.54 119.725 3.54C119.277 3.54 118.913 3.688 118.633 3.984C118.353 4.28 118.213 4.712 118.213 5.28V9H116.941ZM126.518 9.144C125.91 9.144 125.378 9.008 124.922 8.736C124.466 8.464 124.114 8.076 123.866 7.572C123.618 7.068 123.494 6.48 123.494 5.808C123.494 5.136 123.618 4.552 123.866 4.056C124.114 3.552 124.466 3.164 124.922 2.892C125.378 2.612 125.91 2.472 126.518 2.472C127.038 2.472 127.498 2.564 127.898 2.748C128.306 2.924 128.634 3.184 128.882 3.528C129.138 3.872 129.302 4.292 129.374 4.788L128.042 4.86C127.978 4.444 127.81 4.128 127.538 3.912C127.266 3.688 126.926 3.576 126.518 3.576C125.982 3.576 125.562 3.776 125.258 4.176C124.962 4.568 124.814 5.112 124.814 5.808C124.814 6.504 124.962 7.052 125.258 7.452C125.562 7.844 125.982 8.04 126.518 8.04C126.926 8.04 127.266 7.928 127.538 7.704C127.81 7.472 127.978 7.124 128.042 6.66L129.374 6.732C129.302 7.22 129.138 7.644 128.882 8.004C128.634 8.364 128.306 8.644 127.898 8.844C127.498 9.044 127.038 9.144 126.518 9.144ZM130.535 9V0.48L131.807 0.48V4.056L131.651 4.032C131.723 3.672 131.855 3.38 132.047 3.156C132.239 2.924 132.475 2.752 132.755 2.64C133.035 2.528 133.343 2.472 133.679 2.472C134.143 2.472 134.535 2.576 134.855 2.784C135.175 2.984 135.415 3.268 135.575 3.636C135.743 4.004 135.827 4.424 135.827 4.896V9H134.555V5.232C134.555 4.656 134.455 4.232 134.255 3.96C134.063 3.68 133.759 3.54 133.343 3.54C132.879 3.54 132.507 3.688 132.227 3.984C131.947 4.272 131.807 4.696 131.807 5.256V9H130.535ZM137.402 9V2.616H138.566L138.614 4.308L138.506 4.272C138.594 3.696 138.77 3.276 139.034 3.012C139.306 2.748 139.67 2.616 140.126 2.616H140.738V3.756H140.126C139.806 3.756 139.538 3.808 139.322 3.912C139.106 4.016 138.942 4.176 138.83 4.392C138.726 4.608 138.674 4.888 138.674 5.232V9H137.402ZM144.272 9.144C143.664 9.144 143.132 9.008 142.676 8.736C142.22 8.464 141.868 8.076 141.62 7.572C141.372 7.068 141.248 6.48 141.248 5.808C141.248 5.128 141.372 4.54 141.62 4.044C141.868 3.548 142.22 3.164 142.676 2.892C143.132 2.612 143.664 2.472 144.272 2.472C144.88 2.472 145.412 2.612 145.868 2.892C146.324 3.164 146.676 3.548 146.924 4.044C147.172 4.54 147.296 5.128 147.296 5.808C147.296 6.48 147.172 7.068 146.924 7.572C146.676 8.076 146.324 8.464 145.868 8.736C145.412 9.008 144.88 9.144 144.272 9.144ZM144.272 8.04C144.816 8.04 145.236 7.844 145.532 7.452C145.828 7.052 145.976 6.504 145.976 5.808C145.976 5.112 145.828 4.568 145.532 4.176C145.236 3.776 144.816 3.576 144.272 3.576C143.736 3.576 143.316 3.776 143.012 4.176C142.716 4.568 142.568 5.112 142.568 5.808C142.568 6.504 142.716 7.052 143.012 7.452C143.316 7.844 143.736 8.04 144.272 8.04ZM148.582 9V2.616H149.746L149.794 4.32L149.638 4.236C149.71 3.82 149.846 3.484 150.046 3.228C150.246 2.972 150.49 2.784 150.778 2.664C151.066 2.536 151.378 2.472 151.714 2.472C152.194 2.472 152.59 2.58 152.902 2.796C153.222 3.004 153.462 3.292 153.622 3.66C153.79 4.02 153.874 4.432 153.874 4.896V9H152.602V5.28C152.602 4.904 152.562 4.588 152.482 4.332C152.402 4.076 152.27 3.88 152.086 3.744C151.902 3.608 151.662 3.54 151.366 3.54C150.918 3.54 150.554 3.688 150.274 3.984C149.994 4.28 149.854 4.712 149.854 5.28V9H148.582ZM158.159 9.144C157.551 9.144 157.019 9.008 156.563 8.736C156.107 8.464 155.755 8.076 155.507 7.572C155.259 7.068 155.135 6.48 155.135 5.808C155.135 5.128 155.259 4.54 155.507 4.044C155.755 3.548 156.107 3.164 156.563 2.892C157.019 2.612 157.551 2.472 158.159 2.472C158.767 2.472 159.299 2.612 159.755 2.892C160.211 3.164 160.563 3.548 160.811 4.044C161.059 4.54 161.183 5.128 161.183 5.808C161.183 6.48 161.059 7.068 160.811 7.572C160.563 8.076 160.211 8.464 159.755 8.736C159.299 9.008 158.767 9.144 158.159 9.144ZM158.159 8.04C158.703 8.04 159.123 7.844 159.419 7.452C159.715 7.052 159.863 6.504 159.863 5.808C159.863 5.112 159.715 4.568 159.419 4.176C159.123 3.776 158.703 3.576 158.159 3.576C157.623 3.576 157.203 3.776 156.899 4.176C156.603 4.568 156.455 5.112 156.455 5.808C156.455 6.504 156.603 7.052 156.899 7.452C157.203 7.844 157.623 8.04 158.159 8.04ZM164.568 9.144C163.928 9.144 163.416 8.932 163.032 8.508C162.656 8.076 162.468 7.48 162.468 6.72V2.616H163.74V6.396C163.74 6.972 163.84 7.396 164.04 7.668C164.24 7.94 164.544 8.076 164.952 8.076C165.416 8.076 165.776 7.928 166.032 7.632C166.296 7.328 166.428 6.904 166.428 6.36V2.616L167.7 2.616V9H166.512L166.488 7.332L166.668 7.404C166.556 7.964 166.32 8.396 165.96 8.7C165.6 8.996 165.136 9.144 164.568 9.144ZM171.842 9.144C171.242 9.144 170.734 9.052 170.318 8.868C169.91 8.684 169.594 8.432 169.37 8.112C169.146 7.784 169.018 7.408 168.986 6.984L170.294 6.924C170.358 7.276 170.51 7.556 170.75 7.764C170.99 7.972 171.354 8.076 171.842 8.076C172.242 8.076 172.558 8.012 172.79 7.884C173.022 7.756 173.138 7.552 173.138 7.272C173.138 7.12 173.098 6.992 173.018 6.888C172.946 6.776 172.802 6.684 172.586 6.612C172.37 6.532 172.05 6.456 171.626 6.384C170.994 6.264 170.498 6.124 170.138 5.964C169.778 5.804 169.522 5.6 169.37 5.352C169.218 5.104 169.142 4.804 169.142 4.452C169.142 3.868 169.358 3.392 169.79 3.024C170.23 2.656 170.862 2.472 171.686 2.472C172.238 2.472 172.702 2.568 173.078 2.76C173.454 2.944 173.746 3.196 173.954 3.516C174.17 3.828 174.306 4.18 174.362 4.572L173.054 4.644C173.014 4.42 172.934 4.228 172.814 4.068C172.702 3.9 172.55 3.772 172.358 3.684C172.166 3.588 171.938 3.54 171.674 3.54C171.266 3.54 170.962 3.62 170.762 3.78C170.562 3.94 170.462 4.148 170.462 4.404C170.462 4.596 170.506 4.752 170.594 4.872C170.69 4.992 170.842 5.092 171.05 5.172C171.258 5.244 171.534 5.308 171.878 5.364C172.542 5.476 173.062 5.616 173.438 5.784C173.814 5.944 174.078 6.144 174.23 6.384C174.382 6.624 174.458 6.916 174.458 7.26C174.458 7.66 174.346 8 174.122 8.28C173.898 8.56 173.59 8.776 173.198 8.928C172.806 9.072 172.354 9.144 171.842 9.144Z" fill="#2E2E2E"/>
<path d="M100.274 178.819L99.8496 182.213L107.065 186.88V190.275L114.281 186.88V183.062L107.065 179.243L106.641 176.273L100.274 178.819Z" fill="white"/>
<path fill-rule="evenodd" clip-rule="evenodd" d="M106.443 176.527L101.001 179.167L106.443 182.146V176.527ZM106.443 183.58L100.257 180.195V182.5L106.443 185.693V183.58ZM106.443 187.109L99.4378 183.493C99.1689 183.354 99 183.076 99 182.774V178.739L106.54 175.082C107.076 174.822 107.7 175.213 107.7 175.81V178.749L114.561 182.273C114.83 182.412 115 182.689 115 182.993V186.615C115 186.919 114.831 187.196 114.562 187.335L107.621 190.909C107.083 191.186 106.443 190.795 106.443 190.19V187.109ZM107.7 180.164V189.453L113.743 186.341V183.268L107.7 180.164Z" fill="#E0E0E0"/>
<path d="M100.274 334.819L99.8496 338.213L107.065 342.88V346.275L114.281 342.88V339.062L107.065 335.243L106.641 332.273L100.274 334.819Z" fill="white"/>
<path fill-rule="evenodd" clip-rule="evenodd" d="M106.443 332.527L101.001 335.167L106.443 338.146V332.527ZM106.443 339.58L100.257 336.195V338.5L106.443 341.693V339.58ZM106.443 343.109L99.4378 339.493C99.1689 339.354 99 339.076 99 338.774V334.739L106.54 331.082C107.076 330.822 107.7 331.213 107.7 331.81V334.749L114.561 338.273C114.83 338.412 115 338.689 115 338.993V342.615C115 342.919 114.831 343.196 114.562 343.335L107.621 346.909C107.083 347.186 106.443 346.795 106.443 346.19V343.109ZM107.7 336.164V345.453L113.743 342.341V339.268L107.7 336.164Z" fill="#E0E0E0"/>
<defs>
<filter id="filter0_d_18_11975" x="29.5" y="52.5" width="99" height="47" filterUnits="userSpaceOnUse" color-interpolation-filters="sRGB">
<feFlood flood-opacity="0" result="BackgroundImageFix"/>
<feColorMatrix in="SourceAlpha" type="matrix" values="0 0 0 0 0 0 0 0 0 0 0 0 0 0 0 0 0 0 127 0" result="hardAlpha"/>
<feOffset dy="1"/>
<feGaussianBlur stdDeviation="1.5"/>
<feComposite in2="hardAlpha" operator="out"/>
<feColorMatrix type="matrix" values="0 0 0 0 0.180392 0 0 0 0 0.180392 0 0 0 0 0.180392 0 0 0 0.06 0"/>
<feBlend mode="normal" in2="BackgroundImageFix" result="effect1_dropShadow_18_11975"/>
<feBlend mode="normal" in="SourceGraphic" in2="effect1_dropShadow_18_11975" result="shape"/>
</filter>
<filter id="filter1_d_18_11975" x="153.5" y="107.5" width="127" height="47" filterUnits="userSpaceOnUse" color-interpolation-filters="sRGB">
<feFlood flood-opacity="0" result="BackgroundImageFix"/>
<feColorMatrix in="SourceAlpha" type="matrix" values="0 0 0 0 0 0 0 0 0 0 0 0 0 0 0 0 0 0 127 0" result="hardAlpha"/>
<feOffset dy="1"/>
<feGaussianBlur stdDeviation="1.5"/>
<feComposite in2="hardAlpha" operator="out"/>
<feColorMatrix type="matrix" values="0 0 0 0 0.180392 0 0 0 0 0.180392 0 0 0 0 0.180392 0 0 0 0.06 0"/>
<feBlend mode="normal" in2="BackgroundImageFix" result="effect1_dropShadow_18_11975"/>
<feBlend mode="normal" in="SourceGraphic" in2="effect1_dropShadow_18_11975" result="shape"/>
</filter>
<filter id="filter2_d_18_11975" x="29.5" y="209.5" width="99" height="47" filterUnits="userSpaceOnUse" color-interpolation-filters="sRGB">
<feFlood flood-opacity="0" result="BackgroundImageFix"/>
<feColorMatrix in="SourceAlpha" type="matrix" values="0 0 0 0 0 0 0 0 0 0 0 0 0 0 0 0 0 0 127 0" result="hardAlpha"/>
<feOffset dy="1"/>
<feGaussianBlur stdDeviation="1.5"/>
<feComposite in2="hardAlpha" operator="out"/>
<feColorMatrix type="matrix" values="0 0 0 0 0.180392 0 0 0 0 0.180392 0 0 0 0 0.180392 0 0 0 0.06 0"/>
<feBlend mode="normal" in2="BackgroundImageFix" result="effect1_dropShadow_18_11975"/>
<feBlend mode="normal" in="SourceGraphic" in2="effect1_dropShadow_18_11975" result="shape"/>
</filter>
<filter id="filter3_d_18_11975" x="153.5" y="264.5" width="127" height="47" filterUnits="userSpaceOnUse" color-interpolation-filters="sRGB">
<feFlood flood-opacity="0" result="BackgroundImageFix"/>
<feColorMatrix in="SourceAlpha" type="matrix" values="0 0 0 0 0 0 0 0 0 0 0 0 0 0 0 0 0 0 127 0" result="hardAlpha"/>
<feOffset dy="1"/>
<feGaussianBlur stdDeviation="1.5"/>
<feComposite in2="hardAlpha" operator="out"/>
<feColorMatrix type="matrix" values="0 0 0 0 0.180392 0 0 0 0 0.180392 0 0 0 0 0.180392 0 0 0 0.06 0"/>
<feBlend mode="normal" in2="BackgroundImageFix" result="effect1_dropShadow_18_11975"/>
<feBlend mode="normal" in="SourceGraphic" in2="effect1_dropShadow_18_11975" result="shape"/>
</filter>
</defs>
</svg>
