<svg width="40" height="40" viewBox="0 0 40 40" fill="none" xmlns="http://www.w3.org/2000/svg">
<path d="M22.9167 16.6666C23.8371 16.6666 24.5833 15.9204 24.5833 14.9999C24.5833 14.0794 23.8371 13.3333 22.9167 13.3333C21.9962 13.3333 21.25 14.0794 21.25 14.9999C21.25 15.9204 21.9962 16.6666 22.9167 16.6666Z" stroke="#171717" stroke-width="2.5" stroke-miterlimit="10"/>
<path d="M17.0827 16.6666C18.0032 16.6666 18.7493 15.9204 18.7493 14.9999C18.7493 14.0794 18.0032 13.3333 17.0827 13.3333C16.1622 13.3333 15.416 14.0794 15.416 14.9999C15.416 15.9204 16.1622 16.6666 17.0827 16.6666Z" stroke="#171717" stroke-width="2.5" stroke-miterlimit="10"/>
<path d="M25.8327 21.6666C26.7532 21.6666 27.4993 20.9204 27.4993 19.9999C27.4993 19.0794 26.7532 18.3333 25.8327 18.3333C24.9122 18.3333 24.166 19.0794 24.166 19.9999C24.166 20.9204 24.9122 21.6666 25.8327 21.6666Z" stroke="#171717" stroke-width="2.5" stroke-miterlimit="10"/>
<path d="M28.584 16.25C29.2743 16.25 29.834 15.6904 29.834 15C29.834 14.3096 29.2743 13.75 28.584 13.75C27.8936 13.75 27.334 14.3096 27.334 15C27.334 15.6904 27.8936 16.25 28.584 16.25Z" stroke="#171717" stroke-width="2.5" stroke-miterlimit="10"/>
<path d="M28.584 26.25C29.2743 26.25 29.834 25.6904 29.834 25C29.834 24.3096 29.2743 23.75 28.584 23.75C27.8936 23.75 27.334 24.3096 27.334 25C27.334 25.6904 27.8936 26.25 28.584 26.25Z" stroke="#171717" stroke-width="2.5" stroke-miterlimit="10"/>
<path d="M32.916 21.25C33.6064 21.25 34.166 20.6904 34.166 20C34.166 19.3096 33.6064 18.75 32.916 18.75C32.2257 18.75 31.666 19.3096 31.666 20C31.666 20.6904 32.2257 21.25 32.916 21.25Z" stroke="#171717" stroke-width="2.5" stroke-miterlimit="10"/>
<path d="M11.334 16.25C12.0243 16.25 12.584 15.6904 12.584 15C12.584 14.3096 12.0243 13.75 11.334 13.75C10.6436 13.75 10.084 14.3096 10.084 15C10.084 15.6904 10.6436 16.25 11.334 16.25Z" stroke="#171717" stroke-width="2.5" stroke-miterlimit="10"/>
<path d="M11.334 26.25C12.0243 26.25 12.584 25.6904 12.584 25C12.584 24.3096 12.0243 23.75 11.334 23.75C10.6436 23.75 10.084 24.3096 10.084 25C10.084 25.6904 10.6436 26.25 11.334 26.25Z" stroke="#171717" stroke-width="2.5" stroke-miterlimit="10"/>
<path d="M6.99805 21.25C7.6884 21.25 8.24805 20.6904 8.24805 20C8.24805 19.3096 7.6884 18.75 6.99805 18.75C6.30769 18.75 5.74805 19.3096 5.74805 20C5.74805 20.6904 6.30769 21.25 6.99805 21.25Z" stroke="#171717" stroke-width="2.5" stroke-miterlimit="10"/>
<path d="M26.5 9.9165C27.1904 9.9165 27.75 9.35686 27.75 8.6665C27.75 7.97615 27.1904 7.4165 26.5 7.4165C25.8096 7.4165 25.25 7.97615 25.25 8.6665C25.25 9.35686 25.8096 9.9165 26.5 9.9165Z" stroke="#171717" stroke-width="2.5" stroke-miterlimit="10"/>
<path d="M13.5 9.9165C14.1904 9.9165 14.75 9.35686 14.75 8.6665C14.75 7.97615 14.1904 7.4165 13.5 7.4165C12.8096 7.4165 12.25 7.97615 12.25 8.6665C12.25 9.35686 12.8096 9.9165 13.5 9.9165Z" stroke="#171717" stroke-width="2.5" stroke-miterlimit="10"/>
<path d="M20.084 11.25C20.7743 11.25 21.334 10.6904 21.334 10C21.334 9.30964 20.7743 8.75 20.084 8.75C19.3936 8.75 18.834 9.30964 18.834 10C18.834 10.6904 19.3936 11.25 20.084 11.25Z" stroke="#171717" stroke-width="2.5" stroke-miterlimit="10"/>
<path d="M26.5 32.9167C27.1904 32.9167 27.75 32.3571 27.75 31.6667C27.75 30.9764 27.1904 30.4167 26.5 30.4167C25.8096 30.4167 25.25 30.9764 25.25 31.6667C25.25 32.3571 25.8096 32.9167 26.5 32.9167Z" stroke="#171717" stroke-width="2.5" stroke-miterlimit="10"/>
<path d="M13.5 32.9167C14.1904 32.9167 14.75 32.3571 14.75 31.6667C14.75 30.9764 14.1904 30.4167 13.5 30.4167C12.8096 30.4167 12.25 30.9764 12.25 31.6667C12.25 32.3571 12.8096 32.9167 13.5 32.9167Z" stroke="#171717" stroke-width="2.5" stroke-miterlimit="10"/>
<path d="M20.084 31.5833C20.7743 31.5833 21.334 31.0236 21.334 30.3333C21.334 29.6429 20.7743 29.0833 20.084 29.0833C19.3936 29.0833 18.834 29.6429 18.834 30.3333C18.834 31.0236 19.3936 31.5833 20.084 31.5833Z" stroke="#171717" stroke-width="2.5" stroke-miterlimit="10"/>
<path d="M14.1667 21.6666C15.0871 21.6666 15.8333 20.9204 15.8333 19.9999C15.8333 19.0794 15.0871 18.3333 14.1667 18.3333C13.2462 18.3333 12.5 19.0794 12.5 19.9999C12.5 20.9204 13.2462 21.6666 14.1667 21.6666Z" stroke="#171717" stroke-width="2.5" stroke-miterlimit="10"/>
<path d="M17.0827 26.6666C18.0032 26.6666 18.7493 25.9204 18.7493 24.9999C18.7493 24.0794 18.0032 23.3333 17.0827 23.3333C16.1622 23.3333 15.416 24.0794 15.416 24.9999C15.416 25.9204 16.1622 26.6666 17.0827 26.6666Z" stroke="#171717" stroke-width="2.5" stroke-miterlimit="10"/>
<path d="M22.9167 26.6666C23.8371 26.6666 24.5833 25.9204 24.5833 24.9999C24.5833 24.0794 23.8371 23.3333 22.9167 23.3333C21.9962 23.3333 21.25 24.0794 21.25 24.9999C21.25 25.9204 21.9962 26.6666 22.9167 26.6666Z" stroke="#171717" stroke-width="2.5" stroke-miterlimit="10"/>
<path d="M20 4.08325V4.08325" stroke="#171717" stroke-width="2.5" stroke-linecap="round" stroke-linejoin="round"/>
<path d="M29.166 4.75024V4.75024" stroke="#171717" stroke-width="2.5" stroke-linecap="round" stroke-linejoin="round"/>
<path d="M29.166 35.3333V35.3333" stroke="#171717" stroke-width="2.5" stroke-linecap="round" stroke-linejoin="round"/>
<path d="M33.334 27.5V27.5" stroke="#171717" stroke-width="2.5" stroke-linecap="round" stroke-linejoin="round"/>
<path d="M33.334 11.6667V11.6667" stroke="#171717" stroke-width="2.5" stroke-linecap="round" stroke-linejoin="round"/>
<path d="M6.66602 27.5V27.5" stroke="#171717" stroke-width="2.5" stroke-linecap="round" stroke-linejoin="round"/>
<path d="M6.66602 11.6667V11.6667" stroke="#171717" stroke-width="2.5" stroke-linecap="round" stroke-linejoin="round"/>
<path d="M10.834 4.75024V4.75024" stroke="#171717" stroke-width="2.5" stroke-linecap="round" stroke-linejoin="round"/>
<path d="M10.834 35.3333V35.3333" stroke="#171717" stroke-width="2.5" stroke-linecap="round" stroke-linejoin="round"/>
<path d="M20 35.8333V35.8333" stroke="#171717" stroke-width="2.5" stroke-linecap="round" stroke-linejoin="round"/>
<path d="M2.58398 20V20" stroke="#171717" stroke-width="2.5" stroke-linecap="round" stroke-linejoin="round"/>
<path d="M37.5 20V20" stroke="#171717" stroke-width="2.5" stroke-linecap="round" stroke-linejoin="round"/>
</svg>
