<svg width="1296" height="611" viewBox="0 0 1296 611" fill="none" xmlns="http://www.w3.org/2000/svg">
<g opacity="0.07" clip-path="url(#clip0_18_6811)">
<path fill-rule="evenodd" clip-rule="evenodd" d="M468.968 610.745V534.46H404.262V610.745H403.581V534.46H338.875V610.745H338.193V534.46H273.488V610.745H272.806V534.46H208.1V610.745H207.418V534.46H142.713V610.745H142.031V534.46H77.3249V610.745H76.6441V534.46H0.358921V533.779H76.6441V469.073H0.358925V468.391H76.6441V403.685L0.358887 403.686V403.004H76.6441V338.298H0.358889V337.617H76.6441V272.911H0.358892V272.23H76.6441V207.523H0.358895V206.842H76.6441V142.136H0.358898V141.455H76.6441V76.7486H0.358901V76.0675H76.6441V0.463379H77.3249V76.0675H142.031V0.463379H142.713V76.0675H207.418V0.463379H208.1V76.0675H272.806V0.463379H273.488V76.0675H338.193V0.463379H338.875V76.0675H403.581V0.463379H404.262V76.0675H468.968V0.463379H469.65V76.0675H534.355V0.463379H535.037V76.0675H610.641V76.7486H535.037V141.455H610.641V142.136H535.037V206.842H610.641V207.523H535.037V272.23H610.641V272.911H535.037V337.617H610.641V338.298H535.037V403.004H610.641V403.686H535.037V468.391H610.641V469.073H535.037V533.779H610.641V534.46H535.037V610.745H534.355V534.46H469.65V610.745H468.968ZM404.262 469.073H468.968V533.779H404.262V469.073ZM404.262 468.391H468.968V403.686H404.262V468.391ZM469.65 533.779V469.073H534.355V533.779H469.65ZM77.3249 76.7486V141.455H142.031V76.7486H77.3249ZM77.3249 142.136V206.842H142.031V142.136H77.3249ZM77.3249 207.523V272.23H142.031V207.523H77.3249ZM77.3249 272.911V337.617H142.031V272.911H77.3249ZM77.3249 338.298V403.004H142.031V338.298H77.3249ZM77.3249 403.685V468.391H142.031V403.685H77.3249ZM77.3249 469.073V533.779H142.031V469.073H77.3249ZM272.806 533.779H208.1V469.073H272.806V533.779ZM272.806 468.391H208.1V403.686H272.806V468.391ZM207.418 468.391V403.686L142.713 403.685V468.391H207.418ZM272.806 403.004H208.1V338.298H272.806V403.004ZM207.418 403.004V338.298H142.713V403.004H207.418ZM272.806 337.617H208.1V272.911H272.806V337.617ZM207.418 337.617V272.911H142.713V337.617H207.418ZM272.806 272.23H208.1V207.523H272.806V272.23ZM207.418 272.23V207.523H142.713V272.23H207.418ZM272.806 206.842H208.1V142.136H272.806V206.842ZM207.418 206.842V142.136H142.713V206.842H207.418ZM272.806 141.455H208.1V76.7486H272.806V141.455ZM207.418 141.455V76.7486H142.713V141.455H207.418ZM207.418 533.779V469.073H142.713V533.779H207.418ZM338.193 533.779H273.488V469.073H338.193V533.779ZM338.193 468.391H273.488V403.686H338.193V468.391ZM338.193 403.004H273.488V338.298H338.193V403.004ZM338.193 337.617H273.488V272.911H338.193V337.617ZM338.193 272.23H273.488V207.523H338.193V272.23ZM338.193 206.842H273.488V142.136H338.193V206.842ZM338.193 141.455H273.488V76.7486H338.193V141.455ZM338.875 76.7486V141.455H403.581V76.7486H338.875ZM338.875 142.136V206.842H403.581V142.136H338.875ZM338.875 207.523V272.23H403.581V207.523H338.875ZM338.875 272.911V337.617H403.581V272.911H338.875ZM338.875 338.298V403.004H403.581V338.298H338.875ZM338.875 403.686V468.391H403.581V403.686H338.875ZM338.875 469.073V533.779H403.581V469.073H338.875ZM404.262 76.7486H468.968V141.455H404.262V76.7486ZM469.65 141.455V76.7486H534.355V141.455H469.65ZM404.262 142.136H468.968V206.842H404.262V142.136ZM469.65 142.136V206.842H534.355V142.136H469.65ZM404.262 207.523H468.968V272.23H404.262V207.523ZM469.65 207.523V272.23H534.355V207.523H469.65ZM404.262 272.911H468.968V337.617H404.262V272.911ZM469.65 272.911V337.617H534.355V272.911H469.65ZM404.262 338.298H468.968V403.004H404.262V338.298ZM469.65 338.298V403.004H534.355V338.298H469.65ZM534.355 403.686H469.65V468.391H534.355V403.686Z" fill="#0D004B"/>
</g>
<path fill-rule="evenodd" clip-rule="evenodd" d="M207.44 396.527L202 399.167L207.44 402.146V396.527ZM207.44 403.58L201.257 400.195V402.5L207.44 405.693V403.58ZM207.44 407.109L200.438 403.493C200.169 403.354 200 403.076 200 402.774V398.739L207.537 395.082C208.073 394.822 208.697 395.213 208.697 395.81V398.749L215.555 402.273C215.825 402.412 215.994 402.689 215.994 402.993V406.615C215.994 406.919 215.825 407.196 215.556 407.335L208.618 410.909C208.08 411.186 207.44 410.795 207.44 410.19V407.109ZM208.697 400.164V409.453L214.737 406.341V403.268L208.697 400.164Z" fill="#362490"/>
<path fill-rule="evenodd" clip-rule="evenodd" d="M207.44 70.5273L202 73.1674L207.44 76.146V70.5273ZM207.44 77.5803L201.257 74.1949V76.4995L207.44 79.6927V77.5803ZM207.44 81.1087L200.438 77.4927C200.169 77.3539 200 77.0764 200 76.7735V72.7394L207.537 69.082C208.073 68.8216 208.697 69.213 208.697 69.8101V72.7493L215.555 76.2731C215.825 76.4115 215.994 76.6895 215.994 76.993V80.6154C215.994 80.9185 215.825 81.1962 215.556 81.3349L208.618 84.9093C208.08 85.1863 207.44 84.7953 207.44 84.1898V81.1087ZM208.697 74.1638V83.4532L214.737 80.3411V77.2675L208.697 74.1638Z" fill="#362490"/>
<path d="M343.726 541.192L331 534.222L343.726 528V541.192Z" fill="#F9D94A"/>
<g opacity="0.07" clip-path="url(#clip1_18_6811)">
<path fill-rule="evenodd" clip-rule="evenodd" d="M1153.97 610.745V534.46H1089.26V610.745H1088.58V534.46H1023.87V610.745H1023.19V534.46H958.488V610.745H957.806V534.46H893.1V610.745H892.418V534.46H827.713V610.745H827.031V534.46H762.325V610.745H761.644V534.46H685.359V533.779H761.644V469.073H685.359V468.391H761.644V403.685L685.359 403.686V403.004H761.644V338.298H685.359V337.617H761.644V272.911H685.359V272.23H761.644V207.523H685.359V206.842H761.644V142.136H685.359V141.455H761.644V76.7486H685.359V76.0675H761.644V0.463379H762.325V76.0675H827.031V0.463379H827.713V76.0675H892.418V0.463379H893.1V76.0675H957.806V0.463379H958.488V76.0675H1023.19V0.463379H1023.87V76.0675H1088.58V0.463379H1089.26V76.0675H1153.97V0.463379H1154.65V76.0675H1219.36V0.463379H1220.04V76.0675H1295.64V76.7486H1220.04V141.455H1295.64V142.136H1220.04V206.842H1295.64V207.523H1220.04V272.23H1295.64V272.911H1220.04V337.617H1295.64V338.298H1220.04V403.004H1295.64V403.686H1220.04V468.391H1295.64V469.073H1220.04V533.779H1295.64V534.46H1220.04V610.745H1219.36V534.46H1154.65V610.745H1153.97ZM1089.26 469.073H1153.97V533.779H1089.26V469.073ZM1089.26 468.391H1153.97V403.686H1089.26V468.391ZM1154.65 533.779V469.073H1219.36V533.779H1154.65ZM762.325 76.7486V141.455H827.031V76.7486H762.325ZM762.325 142.136V206.842H827.031V142.136H762.325ZM762.325 207.523V272.23H827.031V207.523H762.325ZM762.325 272.911V337.617H827.031V272.911H762.325ZM762.325 338.298V403.004H827.031V338.298H762.325ZM762.325 403.685V468.391H827.031V403.685H762.325ZM762.325 469.073V533.779H827.031V469.073H762.325ZM957.806 533.779H893.1V469.073H957.806V533.779ZM957.806 468.391H893.1V403.686H957.806V468.391ZM892.418 468.391V403.686L827.713 403.685V468.391H892.418ZM957.806 403.004H893.1V338.298H957.806V403.004ZM892.418 403.004V338.298H827.713V403.004H892.418ZM957.806 337.617H893.1V272.911H957.806V337.617ZM892.418 337.617V272.911H827.713V337.617H892.418ZM957.806 272.23H893.1V207.523H957.806V272.23ZM892.418 272.23V207.523H827.713V272.23H892.418ZM957.806 206.842H893.1V142.136H957.806V206.842ZM892.418 206.842V142.136H827.713V206.842H892.418ZM957.806 141.455H893.1V76.7486H957.806V141.455ZM892.418 141.455V76.7486H827.713V141.455H892.418ZM892.418 533.779V469.073H827.713V533.779H892.418ZM1023.19 533.779H958.488V469.073H1023.19V533.779ZM1023.19 468.391H958.488V403.686H1023.19V468.391ZM1023.19 403.004H958.488V338.298H1023.19V403.004ZM1023.19 337.617H958.488V272.911H1023.19V337.617ZM1023.19 272.23H958.488V207.523H1023.19V272.23ZM1023.19 206.842H958.488V142.136H1023.19V206.842ZM1023.19 141.455H958.488V76.7486H1023.19V141.455ZM1023.87 76.7486V141.455H1088.58V76.7486H1023.87ZM1023.87 142.136V206.842H1088.58V142.136H1023.87ZM1023.87 207.523V272.23H1088.58V207.523H1023.87ZM1023.87 272.911V337.617H1088.58V272.911H1023.87ZM1023.87 338.298V403.004H1088.58V338.298H1023.87ZM1023.87 403.686V468.391H1088.58V403.686H1023.87ZM1023.87 469.073V533.779H1088.58V469.073H1023.87ZM1089.26 76.7486H1153.97V141.455H1089.26V76.7486ZM1154.65 141.455V76.7486H1219.36V141.455H1154.65ZM1089.26 142.136H1153.97V206.842H1089.26V142.136ZM1154.65 142.136V206.842H1219.36V142.136H1154.65ZM1089.26 207.523H1153.97V272.23H1089.26V207.523ZM1154.65 207.523V272.23H1219.36V207.523H1154.65ZM1089.26 272.911H1153.97V337.617H1089.26V272.911ZM1154.65 272.911V337.617H1219.36V272.911H1154.65ZM1089.26 338.298H1153.97V403.004H1089.26V338.298ZM1154.65 338.298V403.004H1219.36V338.298H1154.65ZM1219.36 403.686H1154.65V468.391H1219.36V403.686Z" fill="#0D004B"/>
</g>
<path fill-rule="evenodd" clip-rule="evenodd" d="M892.44 396.527L887 399.167L892.44 402.146V396.527ZM892.44 403.58L886.257 400.195V402.5L892.44 405.693V403.58ZM892.44 407.109L885.438 403.493C885.169 403.354 885 403.076 885 402.774V398.739L892.537 395.082C893.073 394.822 893.697 395.213 893.697 395.81V398.749L900.555 402.273C900.825 402.412 900.994 402.689 900.994 402.993V406.615C900.994 406.919 900.825 407.196 900.556 407.335L893.618 410.909C893.08 411.186 892.44 410.795 892.44 410.19V407.109ZM893.697 400.164V409.453L899.737 406.341V403.268L893.697 400.164Z" fill="#362490"/>
<path fill-rule="evenodd" clip-rule="evenodd" d="M1087.44 70.5273L1082 73.1674L1087.44 76.146V70.5273ZM1087.44 77.5803L1081.26 74.1949V76.4995L1087.44 79.6927V77.5803ZM1087.44 81.1087L1080.44 77.4927C1080.17 77.3539 1080 77.0764 1080 76.7735V72.7394L1087.54 69.082C1088.07 68.8216 1088.7 69.213 1088.7 69.8101V72.7493L1095.55 76.2731C1095.82 76.4115 1095.99 76.6895 1095.99 76.993V80.6154C1095.99 80.9185 1095.82 81.1962 1095.56 81.3349L1088.62 84.9093C1088.08 85.1863 1087.44 84.7953 1087.44 84.1898V81.1087ZM1088.7 74.1638V83.4532L1094.74 80.3411V77.2675L1088.7 74.1638Z" fill="#362490"/>
<path d="M1028.73 541.192L1016 534.222L1028.73 528V541.192Z" fill="#F9D94A"/>
<defs>
<clipPath id="clip0_18_6811">
<rect width="611" height="611" fill="white"/>
</clipPath>
<clipPath id="clip1_18_6811">
<rect width="611" height="611" fill="white" transform="translate(685)"/>
</clipPath>
</defs>
</svg>
