<svg width="416" height="451" viewBox="0 0 416 451" fill="none" xmlns="http://www.w3.org/2000/svg">
<g clip-path="url(#clip0_18_7252)">
<g clip-path="url(#clip1_18_7252)">
<path d="M-12.7231 206.489L293.68 671.485L543.198 174L-12.7231 206.489Z" stroke="#8D8D8D" stroke-opacity="0.2" stroke-width="0.941478" stroke-miterlimit="10"/>
<path d="M6.13499 221.549L297.285 647.629L520.71 182.783L6.13499 221.549Z" stroke="#8D8D8D" stroke-opacity="0.2" stroke-width="0.941478" stroke-miterlimit="10"/>
<path d="M24.9931 236.609L300.915 623.787L498.26 191.554L24.9931 236.609Z" stroke="#8D8D8D" stroke-opacity="0.2" stroke-width="0.941478" stroke-miterlimit="10"/>
<path d="M43.8765 251.68L304.52 599.931L475.772 200.338L43.8765 251.68Z" stroke="#8D8D8D" stroke-opacity="0.2" stroke-width="0.941478" stroke-miterlimit="10"/>
<path d="M62.7346 266.74L308.124 576.075L453.31 209.134L62.7346 266.74Z" stroke="#8D8D8D" stroke-opacity="0.2" stroke-width="0.941478" stroke-miterlimit="10"/>
<path d="M81.5926 281.799L311.729 552.22L430.822 217.917L81.5926 281.799Z" stroke="#8D8D8D" stroke-opacity="0.2" stroke-width="0.941478" stroke-miterlimit="10"/>
<path d="M100.451 296.859L315.358 528.377L408.359 226.713L100.451 296.859Z" stroke="#8D8D8D" stroke-opacity="0.2" stroke-width="0.941478" stroke-miterlimit="10"/>
<path d="M119.321 311.956L318.976 504.496L385.871 235.497L119.321 311.956Z" stroke="#8D8D8D" stroke-opacity="0.2" stroke-width="0.941478" stroke-miterlimit="10"/>
<path d="M348.153 317.146C355.598 302.303 349.591 284.23 334.736 276.779C319.881 269.328 301.804 275.322 294.359 290.165C286.914 305.009 292.921 323.082 307.775 330.532C322.63 337.983 340.708 331.99 348.153 317.146Z" stroke="#8D8D8D" stroke-opacity="0.2" stroke-width="3" stroke-miterlimit="10"/>
<path d="M247.813 332.197C255.258 317.353 249.251 299.28 234.397 291.83C219.542 284.379 201.464 290.372 194.019 305.216C186.574 320.06 192.581 338.133 207.436 345.583C222.291 353.034 240.368 347.041 247.813 332.197Z" stroke="#8D8D8D" stroke-opacity="0.2" stroke-width="3" stroke-miterlimit="10"/>
<path d="M319.013 419.103C328.936 399.319 320.93 375.232 301.132 365.302C281.334 355.373 257.241 363.36 247.318 383.143C237.396 402.926 245.402 427.014 265.2 436.944C284.998 446.873 309.091 438.886 319.013 419.103Z" stroke="#8D8D8D" stroke-opacity="0.2" stroke-width="3" stroke-miterlimit="10"/>
</g>
</g>
<defs>
<clipPath id="clip0_18_7252">
<rect width="416" height="451" rx="18" fill="white"/>
</clipPath>
<clipPath id="clip1_18_7252">
<rect width="559.013" height="484.478" fill="white" transform="translate(-139.292 455.685) rotate(-63.3636)"/>
</clipPath>
</defs>
</svg>
