<svg width="416" height="451" viewBox="0 0 416 451" fill="none" xmlns="http://www.w3.org/2000/svg">
<g clip-path="url(#clip0_18_7226)">
<g clip-path="url(#clip1_18_7226)">
<path d="M562.699 341.999L310.485 212.478V104.383C310.485 82.4493 287.583 68.0689 267.804 77.6074L-9.39453 212.115V360.422C-9.39453 371.534 -3.19691 381.751 6.72896 386.883L264.317 519.817V633.093C264.317 655.39 287.825 669.698 307.58 659.554L562.772 528.169C572.697 523.11 578.895 512.893 578.895 501.709V368.532C578.895 357.348 572.625 347.131 562.772 342.071L562.699 341.999Z" stroke="#8D8D8D" stroke-opacity="0.2" stroke-width="0.941478" stroke-miterlimit="10"/>
<path d="M548.608 343.355L309.177 220.419V117.795C309.177 96.975 287.437 83.3209 268.674 92.3752L5.54199 220.056V360.834C5.54199 371.389 11.4249 381.073 20.8424 385.963L265.358 512.167V619.681C265.358 640.84 287.655 654.422 306.441 644.811L548.705 520.108C558.123 515.29 564.005 505.606 564.005 494.978V368.557C564.005 357.929 558.05 348.245 548.705 343.427L548.632 343.355H548.608Z" stroke="#8D8D8D" stroke-opacity="0.2" stroke-width="0.941478" stroke-miterlimit="10"/>
<path d="M534.495 344.734L307.87 228.359V131.207C307.87 111.5 287.292 98.5724 269.522 107.167L20.4556 228.02V361.269C20.4556 371.243 26.0237 380.419 34.9328 385.043L266.375 504.492V606.269C266.375 626.29 287.486 639.169 305.255 630.042L534.567 511.997C543.476 507.446 549.045 498.27 549.045 488.223V368.556C549.045 358.509 543.404 349.334 534.567 344.782L534.495 344.71V344.734Z" stroke="#8D8D8D" stroke-opacity="0.2" stroke-width="0.941478" stroke-miterlimit="10"/>
<path d="M520.405 346.09L306.587 236.3V144.619C306.587 126.026 287.171 113.824 270.418 121.935L35.3926 235.961V361.705C35.3926 371.122 40.646 379.789 49.0467 384.147L267.416 496.866V592.881C267.416 611.788 287.34 623.917 304.093 615.323L520.453 503.935C528.854 499.626 534.107 490.983 534.107 481.493V368.605C534.107 359.114 528.805 350.472 520.453 346.162L520.38 346.09H520.405Z" stroke="#8D8D8D" stroke-opacity="0.2" stroke-width="0.941478" stroke-miterlimit="10"/>
<path d="M506.291 347.446L305.255 244.217V158.055C305.255 140.576 287.001 129.125 271.241 136.727L50.3057 243.902V362.117C50.3057 370.977 55.2444 379.112 63.1367 383.203L268.433 489.168V579.445C268.433 597.215 287.171 608.617 302.907 600.531L506.315 495.826C514.231 491.783 519.17 483.648 519.17 474.739V368.605C519.17 359.696 514.183 351.537 506.315 347.519L506.266 347.47L506.291 347.446Z" stroke="#8D8D8D" stroke-opacity="0.2" stroke-width="0.941478" stroke-miterlimit="10"/>
<path d="M492.177 348.801L303.948 252.133V171.443C303.948 155.077 286.856 144.353 272.113 151.47L65.2432 251.867V362.552C65.2432 370.832 69.8672 378.458 77.2753 382.307L269.522 481.518V566.057C269.522 582.689 287.05 593.39 301.818 585.812L492.274 487.764C499.682 483.987 504.306 476.361 504.306 468.009V368.629C504.306 360.277 499.633 352.651 492.274 348.874L492.225 348.826L492.177 348.801Z" stroke="#8D8D8D" stroke-opacity="0.2" stroke-width="0.941478" stroke-miterlimit="10"/>
<path d="M478.087 350.157L302.665 260.074V184.879C302.665 169.627 286.735 159.629 272.984 166.262L80.1802 259.831V362.988C80.1802 370.711 84.4895 377.828 91.3892 381.411L270.563 473.891V552.669C270.563 568.187 286.905 578.137 300.656 571.068L478.159 479.677C485.059 476.143 489.368 469.05 489.368 461.254V368.629C489.368 360.857 485.011 353.74 478.159 350.205L478.111 350.157H478.087Z" stroke="#8D8D8D" stroke-opacity="0.2" stroke-width="0.941478" stroke-miterlimit="10"/>
<path d="M463.972 351.513L301.333 267.99V198.267C301.333 184.129 286.566 174.857 273.807 181.006L95.0688 267.748V363.376C95.0688 370.542 99.0634 377.127 105.455 380.443L271.556 466.169V539.209C271.556 553.589 286.711 562.813 299.445 556.276L463.997 471.568C470.388 468.299 474.382 461.714 474.382 454.5V368.629C474.382 361.415 470.339 354.83 463.997 351.561L463.948 351.513H463.972Z" stroke="#8D8D8D" stroke-opacity="0.2" stroke-width="0.941478" stroke-miterlimit="10"/>
<path d="M449.882 352.868L300.05 275.931V211.703C300.05 198.678 286.444 190.133 274.703 195.798L110.03 275.713V363.811C110.03 370.42 113.71 376.473 119.593 379.547L272.621 458.518V525.796C272.621 539.039 286.59 547.537 298.331 541.508L449.931 463.457C455.814 460.455 459.494 454.379 459.494 447.721V368.605C459.494 361.971 455.765 355.895 449.931 352.868L449.882 352.82V352.868Z" stroke="#8D8D8D" stroke-opacity="0.2" stroke-width="0.941478" stroke-miterlimit="10"/>
<path d="M435.768 354.224L298.743 283.847V225.115C298.743 213.204 286.299 205.384 275.55 210.565L124.943 283.654V364.223C124.943 370.251 128.308 375.819 133.707 378.603L273.662 450.844V512.384C273.662 524.489 286.42 532.285 297.169 526.765L435.817 455.395C441.216 452.636 444.581 447.092 444.581 441.015V368.653C444.581 362.576 441.167 357.032 435.817 354.273L435.768 354.224Z" stroke="#8D8D8D" stroke-opacity="0.2" stroke-width="0.941478" stroke-miterlimit="10"/>
<path d="M421.654 355.58L297.412 291.788V238.527C297.412 227.73 286.13 220.636 276.398 225.333L139.856 291.594V364.658C139.856 370.13 142.907 375.165 147.797 377.707L274.679 443.194V498.997C274.679 509.988 286.251 517.033 295.983 512.046L421.679 447.334C426.569 444.84 429.619 439.805 429.619 434.285V368.677C429.619 363.157 426.545 358.146 421.679 355.628L421.63 355.58H421.654Z" stroke="#8D8D8D" stroke-opacity="0.2" stroke-width="0.941478" stroke-miterlimit="10"/>
<path d="M407.565 356.936L296.129 299.705V251.939C296.129 242.256 286.009 235.888 277.27 240.101L154.794 299.535V365.07C154.794 369.985 157.53 374.488 161.912 376.763L275.72 435.495V485.536C275.72 495.39 286.106 501.708 294.846 497.229L407.613 439.175C411.995 436.924 414.731 432.421 414.731 427.482V368.653C414.731 363.714 411.971 359.187 407.613 356.96H407.589L407.565 356.936Z" stroke="#8D8D8D" stroke-opacity="0.2" stroke-width="0.941478" stroke-miterlimit="10"/>
<path d="M393.45 358.291L294.821 307.645V265.351C294.821 256.781 285.864 251.14 278.141 254.893L169.731 307.5V365.506C169.731 369.839 172.152 373.834 176.025 375.868L276.761 427.869V472.173C276.761 480.888 285.961 486.48 293.683 482.534L393.499 431.162C397.372 429.177 399.793 425.182 399.793 420.8V368.726C399.793 364.344 397.348 360.349 393.499 358.364H393.475L393.45 358.291Z" stroke="#8D8D8D" stroke-opacity="0.2" stroke-width="0.941478" stroke-miterlimit="10"/>
<path d="M379.361 359.647L293.514 315.562V278.764C293.514 271.307 285.718 266.417 278.988 269.661L184.644 315.441V365.918C184.644 369.694 186.75 373.18 190.14 374.924L277.802 420.171V458.712C277.802 466.29 285.791 471.18 292.521 467.718L379.385 423.003C382.75 421.285 384.88 417.798 384.88 413.998V368.677C384.88 364.877 382.75 361.39 379.385 359.672H379.361V359.647Z" stroke="#8D8D8D" stroke-opacity="0.2" stroke-width="0.941478" stroke-miterlimit="10"/>
<path d="M365.246 361.003L292.206 323.502V292.2C292.206 285.857 285.573 281.693 279.86 284.453L199.581 323.406V366.353C199.581 369.573 201.373 372.527 204.253 374.028L278.843 412.521V445.324C278.843 451.788 285.646 455.928 291.383 452.999L365.295 414.941C368.176 413.465 369.967 410.511 369.967 407.267V368.701C369.967 365.457 368.151 362.504 365.295 361.027L365.246 361.003Z" stroke="#8D8D8D" stroke-opacity="0.2" stroke-width="0.941478" stroke-miterlimit="10"/>
<path d="M351.132 362.359L290.899 331.419V305.588C290.899 300.358 285.428 296.921 280.707 299.196L214.494 331.322V366.741C214.494 369.404 215.971 371.825 218.343 373.059L279.86 404.822V431.888C279.86 437.214 285.476 440.628 290.197 438.207L351.156 406.832C353.529 405.621 355.006 403.176 355.006 400.513V368.702C355.006 366.039 353.505 363.594 351.156 362.383L351.132 362.359Z" stroke="#8D8D8D" stroke-opacity="0.2" stroke-width="0.941478" stroke-miterlimit="10"/>
<path d="M337.042 363.714L289.591 339.36V319.024C289.591 314.908 285.282 312.197 281.554 313.988L229.407 339.287V367.176C229.407 369.258 230.569 371.195 232.433 372.163L280.9 397.172V418.476C280.9 422.664 285.331 425.352 289.035 423.463L337.042 398.745C338.906 397.801 340.068 395.864 340.068 393.758V368.701C340.068 366.595 338.882 364.683 337.042 363.714Z" stroke="#8D8D8D" stroke-opacity="0.2" stroke-width="0.941478" stroke-miterlimit="10"/>
<path d="M322.929 365.07L288.285 347.276V332.436C288.285 329.434 285.138 327.449 282.426 328.756L244.345 347.228V367.612C244.345 369.137 245.192 370.541 246.548 371.243L281.942 389.497V405.064C281.942 408.139 285.162 410.1 287.898 408.696L322.953 390.659C324.309 389.957 325.156 388.553 325.156 387.028V368.726C325.156 367.201 324.284 365.796 322.953 365.094L322.929 365.07Z" stroke="#8D8D8D" stroke-opacity="0.2" stroke-width="0.941478" stroke-miterlimit="10"/>
</g>
</g>
<path fill-rule="evenodd" clip-rule="evenodd" d="M283.961 354.866L273.752 359.82L283.961 365.409V354.866ZM283.961 368.1L272.358 361.748V366.072L283.961 372.064V368.1ZM283.961 374.721L270.821 367.936C270.317 367.675 270 367.155 270 366.587V359.017L284.143 352.154C285.149 351.665 286.319 352.4 286.319 353.52V359.035L299.188 365.647C299.694 365.907 300.012 366.429 300.012 366.998V373.795C300.012 374.364 299.694 374.885 299.189 375.145L286.17 381.853C285.162 382.372 283.961 381.639 283.961 380.503V374.721ZM286.319 361.69V379.12L297.654 373.281V367.513L286.319 361.69Z" fill="#8D8D8D" fill-opacity="0.2"/>
<defs>
<clipPath id="clip0_18_7226">
<rect width="416" height="451" rx="18" fill="white"/>
</clipPath>
<clipPath id="clip1_18_7226">
<rect width="589.5" height="589.5" fill="white" transform="translate(-10 74)"/>
</clipPath>
</defs>
</svg>
