<svg width="14" height="16" viewBox="0 0 14 16" fill="none" xmlns="http://www.w3.org/2000/svg">
<path d="M5.2 15H8.8C11.8 15 13 13.9 13 11.15V7.85C13 5.1 11.8 4 8.8 4H5.2C2.2 4 1 5.1 1 7.85V11.15C1 13.9 2.2 15 5.2 15Z" stroke="#2E2E2E" stroke-width="1.2" stroke-linecap="round" stroke-linejoin="round"/>
<path d="M9 9.83325C9.55228 9.83325 10 9.38554 10 8.83325C10 8.28097 9.55228 7.83325 9 7.83325C8.44772 7.83325 8 8.28097 8 8.83325C8 9.38554 8.44772 9.83325 9 9.83325Z" stroke="#2E2E2E" stroke-miterlimit="10" stroke-linecap="round" stroke-linejoin="round"/>
<path d="M5 9.83325C5.55228 9.83325 6 9.38554 6 8.83325C6 8.28097 5.55228 7.83325 5 7.83325C4.44772 7.83325 4 8.28097 4 8.83325C4 9.38554 4.44772 9.83325 5 9.83325Z" stroke="#2E2E2E" stroke-miterlimit="10" stroke-linecap="round" stroke-linejoin="round"/>
<path d="M6.66628 2.66655C7.12649 2.66655 7.49956 2.29348 7.49956 1.83328C7.49956 1.37307 7.12649 1 6.66628 1C6.20608 1 5.83301 1.37307 5.83301 1.83328C5.83301 2.29348 6.20608 2.66655 6.66628 2.66655Z" stroke="#2E2E2E" stroke-miterlimit="10" stroke-linecap="round" stroke-linejoin="round"/>
</svg>
