<svg width="530" height="278" viewBox="0 0 530 278" fill="none" xmlns="http://www.w3.org/2000/svg">
<path opacity="0.6" d="M9.13857 62V56.434H7.48857V55.477H8.15957C8.4529 55.477 8.69124 55.4403 8.87457 55.367C9.0579 55.2863 9.1899 55.1543 9.27057 54.971C9.35124 54.7803 9.39157 54.52 9.39157 54.19H10.3266V62H9.13857ZM15.1491 62V54.19H17.9541C18.8928 54.19 19.6005 54.3587 20.0771 54.696C20.5538 55.0333 20.7921 55.5687 20.7921 56.302C20.7921 56.632 20.7225 56.9217 20.5831 57.171C20.4438 57.4203 20.2385 57.6183 19.9671 57.765C19.7031 57.9043 19.3878 57.9777 19.0211 57.985L19.0101 57.941C19.6775 57.9557 20.1945 58.139 20.5611 58.491C20.9351 58.8357 21.1221 59.2903 21.1221 59.855C21.1221 60.5663 20.8838 61.1017 20.4071 61.461C19.9305 61.8203 19.2521 62 18.3721 62H15.1491ZM16.3371 60.933H18.3391C18.8305 60.933 19.2118 60.834 19.4831 60.636C19.7618 60.4307 19.9011 60.1337 19.9011 59.745C19.9011 59.3637 19.7618 59.0667 19.4831 58.854C19.2118 58.6413 18.8305 58.535 18.3391 58.535H16.3371V60.933ZM16.3371 57.523H17.9321C18.4528 57.523 18.8561 57.424 19.1421 57.226C19.4281 57.028 19.5711 56.7493 19.5711 56.39C19.5711 56.0087 19.4318 55.7263 19.1531 55.543C18.8818 55.3523 18.4748 55.257 17.9321 55.257H16.3371V57.523ZM22.5154 62V56.148H23.6814V62H22.5154ZM22.4934 55.301V54.135H23.7034V55.301H22.4934ZM26.5199 62C26.1386 62 25.8306 61.901 25.5959 61.703C25.3613 61.505 25.2439 61.1897 25.2439 60.757V54.19H26.4099V60.647C26.4099 60.779 26.4429 60.878 26.5089 60.944C26.5823 61.01 26.6849 61.043 26.8169 61.043H27.2789V62H26.5199ZM29.517 62C29.1357 62 28.8277 61.901 28.593 61.703C28.3583 61.505 28.241 61.1897 28.241 60.757V54.19H29.407V60.647C29.407 60.779 29.44 60.878 29.506 60.944C29.5793 61.01 29.682 61.043 29.814 61.043H30.276V62H29.517ZM31.2596 62V56.148H32.4256V62H31.2596ZM31.2376 55.301V54.135H32.4476V55.301H31.2376ZM36.3756 62.132C35.8183 62.132 35.3306 62.0073 34.9126 61.758C34.4946 61.5087 34.1719 61.153 33.9446 60.691C33.7173 60.229 33.6036 59.69 33.6036 59.074C33.6036 58.4507 33.7173 57.9117 33.9446 57.457C34.1719 57.0023 34.4946 56.6503 34.9126 56.401C35.3306 56.1443 35.8183 56.016 36.3756 56.016C36.9329 56.016 37.4206 56.1443 37.8386 56.401C38.2566 56.6503 38.5793 57.0023 38.8066 57.457C39.0339 57.9117 39.1476 58.4507 39.1476 59.074C39.1476 59.69 39.0339 60.229 38.8066 60.691C38.5793 61.153 38.2566 61.5087 37.8386 61.758C37.4206 62.0073 36.9329 62.132 36.3756 62.132ZM36.3756 61.12C36.8743 61.12 37.2593 60.9403 37.5306 60.581C37.8019 60.2143 37.9376 59.712 37.9376 59.074C37.9376 58.436 37.8019 57.9373 37.5306 57.578C37.2593 57.2113 36.8743 57.028 36.3756 57.028C35.8843 57.028 35.4993 57.2113 35.2206 57.578C34.9493 57.9373 34.8136 58.436 34.8136 59.074C34.8136 59.712 34.9493 60.2143 35.2206 60.581C35.4993 60.9403 35.8843 61.12 36.3756 61.12ZM40.326 62V56.148H41.393L41.437 57.71L41.294 57.633C41.36 57.2517 41.4846 56.9437 41.668 56.709C41.8513 56.4743 42.075 56.302 42.339 56.192C42.603 56.0747 42.889 56.016 43.197 56.016C43.637 56.016 44 56.115 44.286 56.313C44.5793 56.5037 44.7993 56.7677 44.946 57.105C45.1 57.435 45.177 57.8127 45.177 58.238V62H44.011V58.59C44.011 58.2453 43.9743 57.9557 43.901 57.721C43.8276 57.4863 43.7066 57.3067 43.538 57.182C43.3693 57.0573 43.1493 56.995 42.878 56.995C42.4673 56.995 42.1336 57.1307 41.877 57.402C41.6203 57.6733 41.492 58.0693 41.492 58.59V62H40.326Z" fill="#2E2E2E"/>
<rect x="54.2793" y="57.6802" width="431" height="1" fill="url(#paint0_linear_18_9567)"/>
<rect x="54.2793" y="122.68" width="431" height="1" fill="url(#paint1_linear_18_9567)"/>
<rect x="54.2793" y="188.68" width="431" height="1" fill="url(#paint2_linear_18_9567)"/>
<path opacity="0.6" d="M40.2841 258.536C39.6388 258.536 39.0778 258.371 38.6011 258.041C38.1245 257.711 37.7578 257.242 37.5011 256.633C37.2445 256.025 37.1161 255.302 37.1161 254.466C37.1161 253.63 37.2445 252.908 37.5011 252.299C37.7651 251.683 38.1318 251.21 38.6011 250.88C39.0778 250.543 39.6388 250.374 40.2841 250.374C40.9368 250.374 41.4978 250.543 41.9671 250.88C42.4438 251.21 42.8105 251.68 43.0671 252.288C43.3311 252.897 43.4631 253.623 43.4631 254.466C43.4631 255.302 43.3348 256.025 43.0781 256.633C42.8215 257.242 42.4548 257.711 41.9781 258.041C41.5015 258.371 40.9368 258.536 40.2841 258.536ZM40.2841 257.447C40.9075 257.447 41.3878 257.191 41.7251 256.677C42.0625 256.164 42.2311 255.427 42.2311 254.466C42.2311 253.821 42.1541 253.275 42.0001 252.827C41.8535 252.38 41.6335 252.043 41.3401 251.815C41.0541 251.581 40.7021 251.463 40.2841 251.463C39.8735 251.463 39.5215 251.581 39.2281 251.815C38.9421 252.043 38.7221 252.38 38.5681 252.827C38.4215 253.275 38.3481 253.821 38.3481 254.466C38.3481 255.427 38.5168 256.164 38.8541 256.677C39.1915 257.191 39.6681 257.447 40.2841 257.447Z" fill="#2E2E2E"/>
<path opacity="0.6" d="M3.43123 192.64C3.43123 192.053 3.51923 191.529 3.69523 191.067C3.87123 190.605 4.17189 190.176 4.59723 189.78C5.02256 189.384 5.60923 188.988 6.35723 188.592C6.71656 188.409 7.00256 188.24 7.21523 188.086C7.43523 187.925 7.59289 187.76 7.68823 187.591C7.78356 187.422 7.83123 187.217 7.83123 186.975C7.83123 186.726 7.77623 186.513 7.66623 186.337C7.56356 186.154 7.40956 186.011 7.20423 185.908C6.99889 185.798 6.73856 185.743 6.42323 185.743C5.92456 185.743 5.52856 185.879 5.23523 186.15C4.94923 186.414 4.76956 186.795 4.69623 187.294L3.46423 187.217C3.55223 186.432 3.84923 185.809 4.35523 185.347C4.86856 184.885 5.55789 184.654 6.42323 184.654C6.98056 184.654 7.45356 184.753 7.84223 184.951C8.23823 185.142 8.53889 185.409 8.74423 185.754C8.95689 186.099 9.06323 186.498 9.06323 186.953C9.06323 187.349 8.99723 187.69 8.86523 187.976C8.73323 188.262 8.51323 188.53 8.20523 188.779C7.89723 189.021 7.47923 189.281 6.95123 189.56C6.27656 189.919 5.76689 190.275 5.42223 190.627C5.07756 190.972 4.89423 191.28 4.87223 191.551H9.06323V192.64H3.43123ZM10.2279 194.367L10.7779 192.64H10.1729V191.254H11.5919V192.475L10.8989 194.367H10.2279ZM15.5449 192.816C14.8996 192.816 14.3386 192.651 13.8619 192.321C13.3852 191.991 13.0186 191.522 12.7619 190.913C12.5052 190.304 12.3769 189.582 12.3769 188.746C12.3769 187.91 12.5052 187.188 12.7619 186.579C13.0259 185.963 13.3926 185.49 13.8619 185.16C14.3386 184.823 14.8996 184.654 15.5449 184.654C16.1976 184.654 16.7586 184.823 17.2279 185.16C17.7046 185.49 18.0712 185.959 18.3279 186.568C18.5919 187.177 18.7239 187.903 18.7239 188.746C18.7239 189.582 18.5956 190.304 18.3389 190.913C18.0822 191.522 17.7156 191.991 17.2389 192.321C16.7622 192.651 16.1976 192.816 15.5449 192.816ZM15.5449 191.727C16.1682 191.727 16.6486 191.47 16.9859 190.957C17.3232 190.444 17.4919 189.707 17.4919 188.746C17.4919 188.101 17.4149 187.554 17.2609 187.107C17.1142 186.66 16.8942 186.322 16.6009 186.095C16.3149 185.86 15.9629 185.743 15.5449 185.743C15.1342 185.743 14.7822 185.86 14.4889 186.095C14.2029 186.322 13.9829 186.66 13.8289 187.107C13.6822 187.554 13.6089 188.101 13.6089 188.746C13.6089 189.707 13.7776 190.444 14.1149 190.957C14.4522 191.47 14.9289 191.727 15.5449 191.727ZM22.9677 192.816C22.3224 192.816 21.7614 192.651 21.2847 192.321C20.8081 191.991 20.4414 191.522 20.1847 190.913C19.9281 190.304 19.7997 189.582 19.7997 188.746C19.7997 187.91 19.9281 187.188 20.1847 186.579C20.4487 185.963 20.8154 185.49 21.2847 185.16C21.7614 184.823 22.3224 184.654 22.9677 184.654C23.6204 184.654 24.1814 184.823 24.6507 185.16C25.1274 185.49 25.4941 185.959 25.7507 186.568C26.0147 187.177 26.1467 187.903 26.1467 188.746C26.1467 189.582 26.0184 190.304 25.7617 190.913C25.5051 191.522 25.1384 191.991 24.6617 192.321C24.1851 192.651 23.6204 192.816 22.9677 192.816ZM22.9677 191.727C23.5911 191.727 24.0714 191.47 24.4087 190.957C24.7461 190.444 24.9147 189.707 24.9147 188.746C24.9147 188.101 24.8377 187.554 24.6837 187.107C24.5371 186.66 24.3171 186.322 24.0237 186.095C23.7377 185.86 23.3857 185.743 22.9677 185.743C22.5571 185.743 22.2051 185.86 21.9117 186.095C21.6257 186.322 21.4057 186.66 21.2517 187.107C21.1051 187.554 21.0317 188.101 21.0317 188.746C21.0317 189.707 21.2004 190.444 21.5377 190.957C21.8751 191.47 22.3517 191.727 22.9677 191.727ZM30.3906 192.816C29.7453 192.816 29.1843 192.651 28.7076 192.321C28.2309 191.991 27.8643 191.522 27.6076 190.913C27.3509 190.304 27.2226 189.582 27.2226 188.746C27.2226 187.91 27.3509 187.188 27.6076 186.579C27.8716 185.963 28.2383 185.49 28.7076 185.16C29.1843 184.823 29.7453 184.654 30.3906 184.654C31.0433 184.654 31.6043 184.823 32.0736 185.16C32.5503 185.49 32.9169 185.959 33.1736 186.568C33.4376 187.177 33.5696 187.903 33.5696 188.746C33.5696 189.582 33.4413 190.304 33.1846 190.913C32.9279 191.522 32.5613 191.991 32.0846 192.321C31.6079 192.651 31.0433 192.816 30.3906 192.816ZM30.3906 191.727C31.0139 191.727 31.4943 191.47 31.8316 190.957C32.1689 190.444 32.3376 189.707 32.3376 188.746C32.3376 188.101 32.2606 187.554 32.1066 187.107C31.9599 186.66 31.7399 186.322 31.4466 186.095C31.1606 185.86 30.8086 185.743 30.3906 185.743C29.9799 185.743 29.6279 185.86 29.3346 186.095C29.0486 186.322 28.8286 186.66 28.6746 187.107C28.5279 187.554 28.4546 188.101 28.4546 188.746C28.4546 189.707 28.6233 190.444 28.9606 190.957C29.2979 191.47 29.7746 191.727 30.3906 191.727ZM37.7273 192.64V184.83H38.9153V188.559L42.2043 184.83H43.6453L40.6533 188.24L43.8433 192.64H42.4463L39.8613 189.076L38.9153 190.132V192.64H37.7273Z" fill="#2E2E2E"/>
<path opacity="0.6" d="M3.60568 127.176C3.02635 127.176 2.53135 127.084 2.12068 126.901C1.71001 126.71 1.38735 126.446 1.15268 126.109C0.918013 125.772 0.782346 125.383 0.74568 124.943L1.96668 124.866C2.02535 125.277 2.19768 125.585 2.48368 125.79C2.77701 125.988 3.15101 126.087 3.60568 126.087C4.11901 126.087 4.52235 125.944 4.81568 125.658C5.11635 125.372 5.26668 124.972 5.26668 124.459C5.26668 124.122 5.19701 123.832 5.05768 123.59C4.92568 123.341 4.73501 123.15 4.48568 123.018C4.23635 122.879 3.93935 122.809 3.59468 122.809C3.25001 122.809 2.94201 122.882 2.67068 123.029C2.39935 123.176 2.20501 123.377 2.08768 123.634H0.85568L1.38368 119.19H5.95968V120.279H2.43968L2.10968 122.952L1.92268 122.787C2.04735 122.567 2.20501 122.387 2.39568 122.248C2.58635 122.101 2.80635 121.991 3.05568 121.918C3.31235 121.837 3.58368 121.797 3.86968 121.797C4.39768 121.797 4.85601 121.911 5.24468 122.138C5.64068 122.365 5.94868 122.681 6.16868 123.084C6.38868 123.487 6.49868 123.946 6.49868 124.459C6.49868 124.994 6.37768 125.467 6.13568 125.878C5.89368 126.289 5.55635 126.608 5.12368 126.835C4.69101 127.062 4.18501 127.176 3.60568 127.176ZM7.66055 128.727L8.21055 127H7.60555V125.614H9.02455V126.835L8.33155 128.727H7.66055ZM12.9775 127.176C12.3322 127.176 11.7712 127.011 11.2945 126.681C10.8178 126.351 10.4512 125.882 10.1945 125.273C9.93784 124.664 9.80951 123.942 9.80951 123.106C9.80951 122.27 9.93784 121.548 10.1945 120.939C10.4585 120.323 10.8252 119.85 11.2945 119.52C11.7712 119.183 12.3322 119.014 12.9775 119.014C13.6302 119.014 14.1912 119.183 14.6605 119.52C15.1372 119.85 15.5038 120.319 15.7605 120.928C16.0245 121.537 16.1565 122.263 16.1565 123.106C16.1565 123.942 16.0282 124.664 15.7715 125.273C15.5148 125.882 15.1482 126.351 14.6715 126.681C14.1948 127.011 13.6302 127.176 12.9775 127.176ZM12.9775 126.087C13.6008 126.087 14.0812 125.83 14.4185 125.317C14.7558 124.804 14.9245 124.067 14.9245 123.106C14.9245 122.461 14.8475 121.914 14.6935 121.467C14.5468 121.02 14.3268 120.682 14.0335 120.455C13.7475 120.22 13.3955 120.103 12.9775 120.103C12.5668 120.103 12.2148 120.22 11.9215 120.455C11.6355 120.682 11.4155 121.02 11.2615 121.467C11.1148 121.914 11.0415 122.461 11.0415 123.106C11.0415 124.067 11.2102 124.804 11.5475 125.317C11.8848 125.83 12.3615 126.087 12.9775 126.087ZM20.4004 127.176C19.755 127.176 19.194 127.011 18.7174 126.681C18.2407 126.351 17.874 125.882 17.6174 125.273C17.3607 124.664 17.2324 123.942 17.2324 123.106C17.2324 122.27 17.3607 121.548 17.6174 120.939C17.8814 120.323 18.248 119.85 18.7174 119.52C19.194 119.183 19.755 119.014 20.4004 119.014C21.053 119.014 21.614 119.183 22.0834 119.52C22.56 119.85 22.9267 120.319 23.1834 120.928C23.4474 121.537 23.5794 122.263 23.5794 123.106C23.5794 123.942 23.451 124.664 23.1944 125.273C22.9377 125.882 22.571 126.351 22.0944 126.681C21.6177 127.011 21.053 127.176 20.4004 127.176ZM20.4004 126.087C21.0237 126.087 21.504 125.83 21.8414 125.317C22.1787 124.804 22.3474 124.067 22.3474 123.106C22.3474 122.461 22.2704 121.914 22.1164 121.467C21.9697 121.02 21.7497 120.682 21.4564 120.455C21.1704 120.22 20.8184 120.103 20.4004 120.103C19.9897 120.103 19.6377 120.22 19.3444 120.455C19.0584 120.682 18.8384 121.02 18.6844 121.467C18.5377 121.914 18.4644 122.461 18.4644 123.106C18.4644 124.067 18.633 124.804 18.9704 125.317C19.3077 125.83 19.7844 126.087 20.4004 126.087ZM27.8232 127.176C27.1779 127.176 26.6169 127.011 26.1402 126.681C25.6635 126.351 25.2969 125.882 25.0402 125.273C24.7835 124.664 24.6552 123.942 24.6552 123.106C24.6552 122.27 24.7835 121.548 25.0402 120.939C25.3042 120.323 25.6709 119.85 26.1402 119.52C26.6169 119.183 27.1779 119.014 27.8232 119.014C28.4759 119.014 29.0369 119.183 29.5062 119.52C29.9829 119.85 30.3495 120.319 30.6062 120.928C30.8702 121.537 31.0022 122.263 31.0022 123.106C31.0022 123.942 30.8739 124.664 30.6172 125.273C30.3605 125.882 29.9939 126.351 29.5172 126.681C29.0405 127.011 28.4759 127.176 27.8232 127.176ZM27.8232 126.087C28.4465 126.087 28.9269 125.83 29.2642 125.317C29.6015 124.804 29.7702 124.067 29.7702 123.106C29.7702 122.461 29.6932 121.914 29.5392 121.467C29.3925 121.02 29.1725 120.682 28.8792 120.455C28.5932 120.22 28.2412 120.103 27.8232 120.103C27.4125 120.103 27.0605 120.22 26.7672 120.455C26.4812 120.682 26.2612 121.02 26.1072 121.467C25.9605 121.914 25.8872 122.461 25.8872 123.106C25.8872 124.067 26.0559 124.804 26.3932 125.317C26.7305 125.83 27.2072 126.087 27.8232 126.087ZM35.1599 127V119.19H36.7879L39.1089 125.603L41.4299 119.19H43.0579V127H41.8699V121.28L39.7689 126.989H38.4489L36.3479 121.28V127H35.1599Z" fill="#2E2E2E"/>
<rect x="54.2793" y="253.68" width="431" height="1" fill="url(#paint3_linear_18_9567)"/>
<path d="M55 253.5L81.5 232.5L118.5 210L161.5 194L201 155L247.5 144L294.5 133.5L309.5 105.5L342.5 95L362.5 60" stroke="url(#paint4_linear_18_9567)" stroke-width="4"/>
<path d="M363.183 66.7194C367.702 66.7194 371.366 63.0558 371.366 58.5365C371.366 54.0171 367.702 50.3535 363.183 50.3535C358.664 50.3535 355 54.0171 355 58.5365C355 63.0558 358.664 66.7194 363.183 66.7194Z" fill="white" stroke="black" stroke-opacity="0.08" stroke-width="1.16899"/>
<path d="M363.182 63.2123C365.764 63.2123 367.858 61.1188 367.858 58.5363C367.858 55.9539 365.764 53.8604 363.182 53.8604C360.599 53.8604 358.506 55.9539 358.506 58.5363C358.506 61.1188 360.599 63.2123 363.182 63.2123Z" fill="#F9D94A"/>
<g filter="url(#filter0_d_18_9567)">
<rect x="378" y="34" width="148" height="48" rx="6" fill="white"/>
<rect x="378" y="34" width="148" height="48" rx="6" stroke="#E0E0E0" stroke-width="1.12805" stroke-miterlimit="10"/>
</g>
<path d="M395.209 63V53.77H398.589C399.248 53.77 399.807 53.8827 400.266 54.108C400.734 54.3247 401.094 54.6367 401.345 55.044C401.596 55.4513 401.722 55.941 401.722 56.513C401.722 56.9377 401.622 57.3147 401.423 57.644C401.232 57.9733 400.977 58.2377 400.656 58.437C400.335 58.6363 399.989 58.749 399.616 58.775L399.551 58.658C400.158 58.658 400.626 58.7967 400.955 59.074C401.293 59.3427 401.488 59.7673 401.54 60.348L401.774 63H400.877L400.656 60.426C400.621 60.0013 400.47 59.6893 400.201 59.49C399.932 59.282 399.499 59.178 398.901 59.178H396.093V63H395.209ZM396.093 58.32H398.732C399.365 58.32 399.863 58.164 400.227 57.852C400.6 57.5313 400.786 57.0807 400.786 56.5C400.786 55.8933 400.6 55.4297 400.227 55.109C399.854 54.7883 399.304 54.628 398.576 54.628H396.093V58.32ZM406.135 63.156C405.476 63.156 404.917 63.0043 404.458 62.701C403.998 62.389 403.643 61.9643 403.392 61.427C403.149 60.881 403.028 60.257 403.028 59.555C403.028 58.853 403.149 58.2333 403.392 57.696C403.634 57.15 403.981 56.7253 404.432 56.422C404.891 56.11 405.441 55.954 406.083 55.954C406.698 55.954 407.231 56.1013 407.682 56.396C408.132 56.6907 408.475 57.1067 408.709 57.644C408.951 58.1813 409.073 58.8097 409.073 59.529V59.802H403.925C403.959 60.6167 404.172 61.245 404.562 61.687C404.952 62.1203 405.476 62.337 406.135 62.337C406.637 62.337 407.049 62.2157 407.37 61.973C407.69 61.7303 407.911 61.4097 408.033 61.011L408.956 61.076C408.782 61.6827 408.449 62.181 407.955 62.571C407.461 62.961 406.854 63.156 406.135 63.156ZM403.925 59.035H408.137C408.093 58.2983 407.89 57.7393 407.526 57.358C407.162 56.968 406.681 56.773 406.083 56.773C405.485 56.773 404.995 56.968 404.614 57.358C404.232 57.748 404.003 58.307 403.925 59.035ZM416.104 64.95H415.246V61.258L415.376 61.427C415.307 61.7563 415.159 62.051 414.934 62.311C414.717 62.571 414.444 62.779 414.115 62.935C413.786 63.0823 413.43 63.156 413.049 63.156C412.408 63.156 411.87 62.9957 411.437 62.675C411.004 62.3457 410.679 61.9123 410.462 61.375C410.245 60.829 410.137 60.2223 410.137 59.555C410.137 58.8877 410.245 58.2853 410.462 57.748C410.679 57.202 411.004 56.7687 411.437 56.448C411.87 56.1187 412.412 55.954 413.062 55.954C413.634 55.954 414.128 56.11 414.544 56.422C414.969 56.734 415.263 57.189 415.428 57.787L415.285 57.852L415.311 56.11H416.104V64.95ZM413.127 62.337C413.552 62.337 413.924 62.2287 414.245 62.012C414.566 61.7867 414.813 61.466 414.986 61.05C415.159 60.634 415.246 60.1357 415.246 59.555C415.246 58.9743 415.155 58.476 414.973 58.06C414.8 57.644 414.553 57.3277 414.232 57.111C413.92 56.8857 413.552 56.773 413.127 56.773C412.486 56.773 411.974 57.02 411.593 57.514C411.22 58.008 411.034 58.6883 411.034 59.555C411.034 60.4217 411.22 61.102 411.593 61.596C411.966 62.09 412.477 62.337 413.127 62.337ZM420.497 63.156C419.812 63.156 419.262 62.9263 418.846 62.467C418.439 61.999 418.235 61.3577 418.235 60.543V56.11H419.093V60.283C419.093 60.9937 419.227 61.5223 419.496 61.869C419.773 62.2157 420.181 62.389 420.718 62.389C421.316 62.389 421.784 62.194 422.122 61.804C422.469 61.414 422.642 60.8853 422.642 60.218V56.11H423.5V63H422.694L422.681 61.232L422.811 61.297C422.698 61.8863 422.438 62.3457 422.031 62.675C421.632 62.9957 421.121 63.156 420.497 63.156ZM428.148 63.156C427.49 63.156 426.931 63.0043 426.471 62.701C426.012 62.389 425.657 61.9643 425.405 61.427C425.163 60.881 425.041 60.257 425.041 59.555C425.041 58.853 425.163 58.2333 425.405 57.696C425.648 57.15 425.995 56.7253 426.445 56.422C426.905 56.11 427.455 55.954 428.096 55.954C428.712 55.954 429.245 56.1013 429.695 56.396C430.146 56.6907 430.488 57.1067 430.722 57.644C430.965 58.1813 431.086 58.8097 431.086 59.529V59.802H425.938C425.973 60.6167 426.185 61.245 426.575 61.687C426.965 62.1203 427.49 62.337 428.148 62.337C428.651 62.337 429.063 62.2157 429.383 61.973C429.704 61.7303 429.925 61.4097 430.046 61.011L430.969 61.076C430.796 61.6827 430.462 62.181 429.968 62.571C429.474 62.961 428.868 63.156 428.148 63.156ZM425.938 59.035H430.15C430.107 58.2983 429.903 57.7393 429.539 57.358C429.175 56.968 428.694 56.773 428.096 56.773C427.498 56.773 427.009 56.968 426.627 57.358C426.246 57.748 426.016 58.307 425.938 59.035ZM435.063 63.156C434.465 63.156 433.953 63.0607 433.529 62.87C433.113 62.6707 432.788 62.3977 432.554 62.051C432.32 61.7043 432.185 61.3143 432.151 60.881L433.048 60.816C433.1 61.2753 433.29 61.6437 433.62 61.921C433.958 62.1983 434.439 62.337 435.063 62.337C435.609 62.337 436.033 62.246 436.337 62.064C436.64 61.882 436.792 61.6003 436.792 61.219C436.792 61.011 436.744 60.8377 436.649 60.699C436.562 60.5517 436.38 60.426 436.103 60.322C435.825 60.2093 435.409 60.1053 434.855 60.01C434.205 59.8887 433.698 59.7457 433.334 59.581C432.97 59.4077 432.714 59.1953 432.567 58.944C432.419 58.684 432.346 58.3763 432.346 58.021C432.346 57.4057 432.567 56.9073 433.009 56.526C433.451 56.1447 434.066 55.954 434.855 55.954C435.392 55.954 435.847 56.0537 436.22 56.253C436.601 56.4523 436.9 56.7167 437.117 57.046C437.333 57.3667 437.476 57.722 437.546 58.112L436.649 58.19C436.597 57.9213 436.497 57.683 436.35 57.475C436.202 57.2583 436.003 57.0893 435.752 56.968C435.5 56.838 435.197 56.773 434.842 56.773C434.322 56.773 433.923 56.8857 433.646 57.111C433.377 57.3277 433.243 57.618 433.243 57.982C433.243 58.2333 433.299 58.4413 433.412 58.606C433.524 58.762 433.711 58.892 433.971 58.996C434.231 59.0913 434.59 59.178 435.05 59.256C435.734 59.3687 436.267 59.5117 436.649 59.685C437.039 59.8497 437.312 60.0577 437.468 60.309C437.624 60.5517 437.702 60.8507 437.702 61.206C437.702 61.622 437.589 61.9773 437.364 62.272C437.138 62.558 436.826 62.779 436.428 62.935C436.038 63.0823 435.583 63.156 435.063 63.156ZM441.333 63C440.77 63 440.354 62.87 440.085 62.61C439.817 62.3413 439.682 61.934 439.682 61.388V54.498H440.54V61.362C440.54 61.6827 440.61 61.908 440.748 62.038C440.896 62.168 441.117 62.233 441.411 62.233H442.321V63H441.333ZM438.603 56.877V56.11H442.321V56.877H438.603Z" fill="#2E2E2E"/>
<path d="M453.66 63V56.182H451.532V54.796H452.386C452.787 54.796 453.109 54.7447 453.352 54.642C453.595 54.5393 453.767 54.362 453.87 54.11C453.982 53.8487 454.038 53.4987 454.038 53.06H455.48V63H453.66ZM461.403 63V53.06H465.127C466.341 53.06 467.26 53.2747 467.885 53.704C468.52 54.1333 468.837 54.8147 468.837 55.748C468.837 56.168 468.749 56.5367 468.571 56.854C468.403 57.162 468.151 57.4047 467.815 57.582C467.489 57.7593 467.092 57.8573 466.625 57.876L466.611 57.848C467.461 57.876 468.114 58.1093 468.571 58.548C469.029 58.9773 469.257 59.5513 469.257 60.27C469.257 61.1847 468.94 61.8707 468.305 62.328C467.68 62.776 466.789 63 465.631 63H461.403ZM463.223 61.46H465.547C466.117 61.46 466.565 61.3433 466.891 61.11C467.227 60.8767 467.395 60.5313 467.395 60.074C467.395 59.6167 467.232 59.2667 466.905 59.024C466.579 58.7813 466.126 58.66 465.547 58.66H463.223V61.46ZM463.223 57.232H465.071C465.669 57.232 466.135 57.12 466.471 56.896C466.807 56.672 466.975 56.3453 466.975 55.916C466.975 55.468 466.812 55.1367 466.485 54.922C466.159 54.7073 465.687 54.6 465.071 54.6H463.223V57.232ZM470.888 63V55.524H472.68V63H470.888ZM470.86 54.53V52.934H472.722V54.53H470.86ZM476.344 63C475.803 63 475.369 62.86 475.042 62.58C474.716 62.3 474.552 61.852 474.552 61.236V53.06H476.344V61.054C476.344 61.2407 476.391 61.3807 476.484 61.474C476.587 61.5673 476.727 61.614 476.904 61.614H477.45V63H476.344ZM480.364 63C479.822 63 479.388 62.86 479.062 62.58C478.735 62.3 478.572 61.852 478.572 61.236V53.06H480.364V61.054C480.364 61.2407 480.41 61.3807 480.504 61.474C480.606 61.5673 480.746 61.614 480.924 61.614H481.47V63H480.364ZM482.619 63V55.524H484.411V63H482.619ZM482.591 54.53V52.934H484.453V54.53H482.591ZM489.49 63.168C488.752 63.168 488.104 63.0093 487.544 62.692C486.993 62.3653 486.564 61.908 486.256 61.32C485.957 60.732 485.808 60.046 485.808 59.262C485.808 58.4687 485.957 57.7827 486.256 57.204C486.564 56.616 486.993 56.1633 487.544 55.846C488.104 55.5193 488.752 55.356 489.49 55.356C490.227 55.356 490.871 55.5193 491.422 55.846C491.972 56.1633 492.397 56.616 492.696 57.204C493.004 57.7827 493.158 58.4687 493.158 59.262C493.158 60.046 493.004 60.732 492.696 61.32C492.397 61.908 491.972 62.3653 491.422 62.692C490.871 63.0093 490.227 63.168 489.49 63.168ZM489.49 61.712C490.068 61.712 490.512 61.4973 490.82 61.068C491.137 60.6387 491.296 60.0367 491.296 59.262C491.296 58.4967 491.137 57.8993 490.82 57.47C490.512 57.0313 490.068 56.812 489.49 56.812C488.911 56.812 488.463 57.0313 488.146 57.47C487.828 57.8993 487.67 58.4967 487.67 59.262C487.67 60.0367 487.828 60.6387 488.146 61.068C488.463 61.4973 488.911 61.712 489.49 61.712ZM494.541 63V55.524H496.165L496.235 57.624L496.025 57.54C496.099 57.0173 496.253 56.5973 496.487 56.28C496.72 55.9627 497.005 55.7293 497.341 55.58C497.677 55.4307 498.045 55.356 498.447 55.356C498.997 55.356 499.459 55.4773 499.833 55.72C500.215 55.9627 500.505 56.2987 500.701 56.728C500.897 57.148 500.995 57.638 500.995 58.198V63H499.203V58.772C499.203 58.352 499.161 57.9973 499.077 57.708C498.993 57.4187 498.853 57.1993 498.657 57.05C498.47 56.8913 498.218 56.812 497.901 56.812C497.425 56.812 497.042 56.98 496.753 57.316C496.473 57.652 496.333 58.1373 496.333 58.772V63H494.541Z" fill="#2E2E2E"/>
<rect x="54" width="1" height="278" fill="#E0E0E0"/>
<path d="M97.183 230.719C101.702 230.719 105.366 227.056 105.366 222.536C105.366 218.017 101.702 214.354 97.183 214.354C92.6636 214.354 89 218.017 89 222.536C89 227.056 92.6636 230.719 97.183 230.719Z" fill="white" stroke="black" stroke-opacity="0.08" stroke-width="1.16899"/>
<path d="M97.1818 227.212C99.7643 227.212 101.858 225.119 101.858 222.536C101.858 219.954 99.7643 217.86 97.1818 217.86C94.5994 217.86 92.5059 219.954 92.5059 222.536C92.5059 225.119 94.5994 227.212 97.1818 227.212Z" fill="#F9D94A"/>
<g filter="url(#filter1_d_18_9567)">
<rect x="115" y="193" width="104" height="48" rx="6" fill="white"/>
<rect x="115" y="193" width="104" height="48" rx="6" stroke="#E0E0E0" stroke-width="1.12805" stroke-miterlimit="10"/>
</g>
<path d="M132.209 222V212.77H135.589C136.248 212.77 136.807 212.883 137.266 213.108C137.734 213.325 138.094 213.637 138.345 214.044C138.596 214.451 138.722 214.941 138.722 215.513C138.722 215.938 138.622 216.315 138.423 216.644C138.232 216.973 137.977 217.238 137.656 217.437C137.335 217.636 136.989 217.749 136.616 217.775L136.551 217.658C137.158 217.658 137.626 217.797 137.955 218.074C138.293 218.343 138.488 218.767 138.54 219.348L138.774 222H137.877L137.656 219.426C137.621 219.001 137.47 218.689 137.201 218.49C136.932 218.282 136.499 218.178 135.901 218.178H133.093V222H132.209ZM133.093 217.32H135.732C136.365 217.32 136.863 217.164 137.227 216.852C137.6 216.531 137.786 216.081 137.786 215.5C137.786 214.893 137.6 214.43 137.227 214.109C136.854 213.788 136.304 213.628 135.576 213.628H133.093V217.32ZM143.135 222.156C142.476 222.156 141.917 222.004 141.458 221.701C140.998 221.389 140.643 220.964 140.392 220.427C140.149 219.881 140.028 219.257 140.028 218.555C140.028 217.853 140.149 217.233 140.392 216.696C140.634 216.15 140.981 215.725 141.432 215.422C141.891 215.11 142.441 214.954 143.083 214.954C143.698 214.954 144.231 215.101 144.682 215.396C145.132 215.691 145.475 216.107 145.709 216.644C145.951 217.181 146.073 217.81 146.073 218.529V218.802H140.925C140.959 219.617 141.172 220.245 141.562 220.687C141.952 221.12 142.476 221.337 143.135 221.337C143.637 221.337 144.049 221.216 144.37 220.973C144.69 220.73 144.911 220.41 145.033 220.011L145.956 220.076C145.782 220.683 145.449 221.181 144.955 221.571C144.461 221.961 143.854 222.156 143.135 222.156ZM140.925 218.035H145.137C145.093 217.298 144.89 216.739 144.526 216.358C144.162 215.968 143.681 215.773 143.083 215.773C142.485 215.773 141.995 215.968 141.614 216.358C141.232 216.748 141.003 217.307 140.925 218.035ZM153.104 223.95H152.246V220.258L152.376 220.427C152.307 220.756 152.159 221.051 151.934 221.311C151.717 221.571 151.444 221.779 151.115 221.935C150.786 222.082 150.43 222.156 150.049 222.156C149.408 222.156 148.87 221.996 148.437 221.675C148.004 221.346 147.679 220.912 147.462 220.375C147.245 219.829 147.137 219.222 147.137 218.555C147.137 217.888 147.245 217.285 147.462 216.748C147.679 216.202 148.004 215.769 148.437 215.448C148.87 215.119 149.412 214.954 150.062 214.954C150.634 214.954 151.128 215.11 151.544 215.422C151.969 215.734 152.263 216.189 152.428 216.787L152.285 216.852L152.311 215.11H153.104V223.95ZM150.127 221.337C150.552 221.337 150.924 221.229 151.245 221.012C151.566 220.787 151.813 220.466 151.986 220.05C152.159 219.634 152.246 219.136 152.246 218.555C152.246 217.974 152.155 217.476 151.973 217.06C151.8 216.644 151.553 216.328 151.232 216.111C150.92 215.886 150.552 215.773 150.127 215.773C149.486 215.773 148.974 216.02 148.593 216.514C148.22 217.008 148.034 217.688 148.034 218.555C148.034 219.422 148.22 220.102 148.593 220.596C148.966 221.09 149.477 221.337 150.127 221.337ZM157.497 222.156C156.812 222.156 156.262 221.926 155.846 221.467C155.439 220.999 155.235 220.358 155.235 219.543V215.11H156.093V219.283C156.093 219.994 156.227 220.522 156.496 220.869C156.773 221.216 157.181 221.389 157.718 221.389C158.316 221.389 158.784 221.194 159.122 220.804C159.469 220.414 159.642 219.885 159.642 219.218V215.11H160.5V222H159.694L159.681 220.232L159.811 220.297C159.698 220.886 159.438 221.346 159.031 221.675C158.632 221.996 158.121 222.156 157.497 222.156ZM165.148 222.156C164.49 222.156 163.931 222.004 163.471 221.701C163.012 221.389 162.657 220.964 162.405 220.427C162.163 219.881 162.041 219.257 162.041 218.555C162.041 217.853 162.163 217.233 162.405 216.696C162.648 216.15 162.995 215.725 163.445 215.422C163.905 215.11 164.455 214.954 165.096 214.954C165.712 214.954 166.245 215.101 166.695 215.396C167.146 215.691 167.488 216.107 167.722 216.644C167.965 217.181 168.086 217.81 168.086 218.529V218.802H162.938C162.973 219.617 163.185 220.245 163.575 220.687C163.965 221.12 164.49 221.337 165.148 221.337C165.651 221.337 166.063 221.216 166.383 220.973C166.704 220.73 166.925 220.41 167.046 220.011L167.969 220.076C167.796 220.683 167.462 221.181 166.968 221.571C166.474 221.961 165.868 222.156 165.148 222.156ZM162.938 218.035H167.15C167.107 217.298 166.903 216.739 166.539 216.358C166.175 215.968 165.694 215.773 165.096 215.773C164.498 215.773 164.009 215.968 163.627 216.358C163.246 216.748 163.016 217.307 162.938 218.035ZM172.063 222.156C171.465 222.156 170.953 222.061 170.529 221.87C170.113 221.671 169.788 221.398 169.554 221.051C169.32 220.704 169.185 220.314 169.151 219.881L170.048 219.816C170.1 220.275 170.29 220.644 170.62 220.921C170.958 221.198 171.439 221.337 172.063 221.337C172.609 221.337 173.033 221.246 173.337 221.064C173.64 220.882 173.792 220.6 173.792 220.219C173.792 220.011 173.744 219.838 173.649 219.699C173.562 219.552 173.38 219.426 173.103 219.322C172.825 219.209 172.409 219.105 171.855 219.01C171.205 218.889 170.698 218.746 170.334 218.581C169.97 218.408 169.714 218.195 169.567 217.944C169.419 217.684 169.346 217.376 169.346 217.021C169.346 216.406 169.567 215.907 170.009 215.526C170.451 215.145 171.066 214.954 171.855 214.954C172.392 214.954 172.847 215.054 173.22 215.253C173.601 215.452 173.9 215.717 174.117 216.046C174.333 216.367 174.476 216.722 174.546 217.112L173.649 217.19C173.597 216.921 173.497 216.683 173.35 216.475C173.202 216.258 173.003 216.089 172.752 215.968C172.5 215.838 172.197 215.773 171.842 215.773C171.322 215.773 170.923 215.886 170.646 216.111C170.377 216.328 170.243 216.618 170.243 216.982C170.243 217.233 170.299 217.441 170.412 217.606C170.524 217.762 170.711 217.892 170.971 217.996C171.231 218.091 171.59 218.178 172.05 218.256C172.734 218.369 173.267 218.512 173.649 218.685C174.039 218.85 174.312 219.058 174.468 219.309C174.624 219.552 174.702 219.851 174.702 220.206C174.702 220.622 174.589 220.977 174.364 221.272C174.138 221.558 173.826 221.779 173.428 221.935C173.038 222.082 172.583 222.156 172.063 222.156ZM178.333 222C177.77 222 177.354 221.87 177.085 221.61C176.817 221.341 176.682 220.934 176.682 220.388V213.498H177.54V220.362C177.54 220.683 177.61 220.908 177.748 221.038C177.896 221.168 178.117 221.233 178.411 221.233H179.321V222H178.333ZM175.603 215.877V215.11H179.321V215.877H175.603Z" fill="#2E2E2E"/>
<path d="M190.66 222V215.182H188.532V213.796H189.386C189.787 213.796 190.109 213.745 190.352 213.642C190.595 213.539 190.767 213.362 190.87 213.11C190.982 212.849 191.038 212.499 191.038 212.06H192.48V222H190.66ZM198.585 222.224C197.745 222.224 197.013 222.014 196.387 221.594C195.771 221.174 195.295 220.577 194.959 219.802C194.623 219.027 194.455 218.108 194.455 217.044C194.455 215.98 194.623 215.061 194.959 214.286C195.295 213.502 195.771 212.9 196.387 212.48C197.013 212.051 197.745 211.836 198.585 211.836C199.444 211.836 200.181 212.051 200.797 212.48C201.413 212.9 201.889 213.497 202.225 214.272C202.561 215.047 202.729 215.971 202.729 217.044C202.729 218.108 202.561 219.027 202.225 219.802C201.889 220.577 201.413 221.174 200.797 221.594C200.181 222.014 199.444 222.224 198.585 222.224ZM198.585 220.642C199.313 220.642 199.873 220.339 200.265 219.732C200.657 219.116 200.853 218.22 200.853 217.044C200.853 216.26 200.765 215.597 200.587 215.056C200.41 214.515 200.153 214.109 199.817 213.838C199.491 213.558 199.08 213.418 198.585 213.418C198.109 213.418 197.703 213.558 197.367 213.838C197.031 214.109 196.775 214.515 196.597 215.056C196.42 215.597 196.331 216.26 196.331 217.044C196.331 218.22 196.527 219.116 196.919 219.732C197.311 220.339 197.867 220.642 198.585 220.642Z" fill="#2E2E2E"/>
<defs>
<filter id="filter0_d_18_9567" x="374.051" y="31.1799" width="155.897" height="55.8962" filterUnits="userSpaceOnUse" color-interpolation-filters="sRGB">
<feFlood flood-opacity="0" result="BackgroundImageFix"/>
<feColorMatrix in="SourceAlpha" type="matrix" values="0 0 0 0 0 0 0 0 0 0 0 0 0 0 0 0 0 0 127 0" result="hardAlpha"/>
<feOffset dy="1.12805"/>
<feGaussianBlur stdDeviation="1.69207"/>
<feComposite in2="hardAlpha" operator="out"/>
<feColorMatrix type="matrix" values="0 0 0 0 0.180392 0 0 0 0 0.180392 0 0 0 0 0.180392 0 0 0 0.06 0"/>
<feBlend mode="normal" in2="BackgroundImageFix" result="effect1_dropShadow_18_9567"/>
<feBlend mode="normal" in="SourceGraphic" in2="effect1_dropShadow_18_9567" result="shape"/>
</filter>
<filter id="filter1_d_18_9567" x="111.051" y="190.18" width="111.897" height="55.8962" filterUnits="userSpaceOnUse" color-interpolation-filters="sRGB">
<feFlood flood-opacity="0" result="BackgroundImageFix"/>
<feColorMatrix in="SourceAlpha" type="matrix" values="0 0 0 0 0 0 0 0 0 0 0 0 0 0 0 0 0 0 127 0" result="hardAlpha"/>
<feOffset dy="1.12805"/>
<feGaussianBlur stdDeviation="1.69207"/>
<feComposite in2="hardAlpha" operator="out"/>
<feColorMatrix type="matrix" values="0 0 0 0 0.180392 0 0 0 0 0.180392 0 0 0 0 0.180392 0 0 0 0.06 0"/>
<feBlend mode="normal" in2="BackgroundImageFix" result="effect1_dropShadow_18_9567"/>
<feBlend mode="normal" in="SourceGraphic" in2="effect1_dropShadow_18_9567" result="shape"/>
</filter>
<linearGradient id="paint0_linear_18_9567" x1="54.2793" y1="58.1802" x2="485.279" y2="58.1802" gradientUnits="userSpaceOnUse">
<stop offset="0.5" stop-opacity="0.08"/>
<stop offset="1" stop-opacity="0"/>
</linearGradient>
<linearGradient id="paint1_linear_18_9567" x1="54.2793" y1="123.18" x2="485.279" y2="123.18" gradientUnits="userSpaceOnUse">
<stop offset="0.5" stop-opacity="0.08"/>
<stop offset="1" stop-opacity="0"/>
</linearGradient>
<linearGradient id="paint2_linear_18_9567" x1="54.2793" y1="189.18" x2="485.279" y2="189.18" gradientUnits="userSpaceOnUse">
<stop offset="0.5" stop-opacity="0.08"/>
<stop offset="1" stop-opacity="0"/>
</linearGradient>
<linearGradient id="paint3_linear_18_9567" x1="54.2793" y1="254.18" x2="485.279" y2="254.18" gradientUnits="userSpaceOnUse">
<stop offset="0.5" stop-opacity="0.08"/>
<stop offset="1" stop-opacity="0"/>
</linearGradient>
<linearGradient id="paint4_linear_18_9567" x1="17.0137" y1="-137.191" x2="998.965" y2="-137.191" gradientUnits="userSpaceOnUse">
<stop offset="0.05" stop-color="#F9D94A"/>
<stop offset="0.4" stop-color="#F9D94A"/>
</linearGradient>
</defs>
</svg>
