<svg width="16" height="16" viewBox="0 0 16 16" fill="none" xmlns="http://www.w3.org/2000/svg">
<path d="M7.99967 15.1667C4.04634 15.1667 0.833008 11.9534 0.833008 8.00004C0.833008 4.04671 4.04634 0.833374 7.99967 0.833374C11.953 0.833374 15.1663 4.04671 15.1663 8.00004C15.1663 11.9534 11.953 15.1667 7.99967 15.1667ZM7.99967 1.83337C4.59967 1.83337 1.83301 4.60004 1.83301 8.00004C1.83301 11.4 4.59967 14.1667 7.99967 14.1667C11.3997 14.1667 14.1663 11.4 14.1663 8.00004C14.1663 4.60004 11.3997 1.83337 7.99967 1.83337Z" fill="#2E2E2E"/>
<path d="M7.99941 10.4199C7.11941 10.4199 6.39941 9.69991 6.39941 8.81991V7.17326C6.39941 6.29326 7.11941 5.57324 7.99941 5.57324C8.87941 5.57324 9.59941 6.29326 9.59941 7.17326V8.81991C9.59941 9.70657 8.87941 10.4199 7.99941 10.4199ZM7.99941 6.57992C7.67274 6.57992 7.39941 6.8466 7.39941 7.17993V8.82658C7.39941 9.15991 7.66608 9.4266 7.99941 9.4266C8.33274 9.4266 8.59941 9.15991 8.59941 8.82658V7.17993C8.59941 6.8466 8.32608 6.57992 7.99941 6.57992Z" fill="#2E2E2E"/>
<path d="M8.00033 12.5468C5.88699 12.5468 4.16699 10.8268 4.16699 8.7135V7.28682C4.16699 5.17349 5.88699 3.45349 8.00033 3.45349C9.97366 3.45349 11.6137 4.93351 11.8137 6.89351C11.8403 7.16685 11.6403 7.41348 11.367 7.44014C11.0937 7.47348 10.847 7.26682 10.8203 6.99349C10.6737 5.54682 9.46033 4.45349 8.00033 4.45349C6.44033 4.45349 5.16699 5.72682 5.16699 7.28682V8.7135C5.16699 10.2735 6.44033 11.5468 8.00033 11.5468C9.46699 11.5468 10.707 10.4001 10.827 8.94014C10.847 8.66681 11.087 8.46014 11.367 8.48014C11.6403 8.50014 11.847 8.74018 11.827 9.02018C11.667 11.0002 9.98699 12.5468 8.00033 12.5468Z" fill="#2E2E2E"/>
</svg>
