<svg width="83" height="111" viewBox="0 0 83 111" fill="none" xmlns="http://www.w3.org/2000/svg">
<g clip-path="url(#clip0_18_18133)">
<path d="M12.9911 105.71C12.7311 105.71 12.4611 105.64 12.2311 105.49C11.6811 105.15 11.4311 104.47 11.6211 103.85C11.7011 103.6 24.3011 64.3099 27.5511 54.1899L1.91108 54.2299C1.32108 54.2299 0.79108 53.8699 0.58108 53.32C0.36108 52.77 0.51108 52.15 0.94108 51.74L55.8511 0.75995C56.3311 0.31995 57.0411 0.24995 57.5911 0.59995C58.1411 0.93995 58.3911 1.60995 58.2011 2.23995L43.3411 50.7L68.4311 51.32C69.0111 51.3299 69.5311 51.7 69.7311 52.24C69.9411 52.78 69.7911 53.3999 69.3711 53.7999L15.5811 103.99C15.5811 103.99 15.5311 104.04 15.5011 104.06C15.0211 104.44 14.1811 105.13 13.9711 105.33C13.7011 105.58 13.3511 105.72 12.9911 105.72V105.71ZM29.5111 51.32C29.9711 51.32 30.4011 51.54 30.6711 51.91C30.9411 52.2799 31.0211 52.7599 30.8811 53.1899C30.7511 53.5999 20.0811 86.8599 15.9511 99.7099L64.8411 54.09L41.3711 53.5099C40.9211 53.5 40.5011 53.2799 40.2411 52.91C39.9811 52.5499 39.9011 52.08 40.0311 51.65L53.8911 6.48995L5.57108 51.36L29.5211 51.32H29.5111Z" fill="#F9D94A"/>
<path d="M14.7313 59.6299C14.5413 59.6299 14.3513 59.5899 14.1713 59.5199L1.35125 54.1199C0.621252 53.8099 0.281252 52.9699 0.591252 52.2399C0.901252 51.5099 1.74125 51.1699 2.47125 51.4799L15.0213 56.7699L27.1813 56.7499C27.9713 56.7499 28.6113 57.3899 28.6113 58.1799C28.6113 58.9699 27.9713 59.6199 27.1813 59.6199L14.7313 59.6399V59.6299Z" fill="#F9D94A"/>
<path d="M26.7501 110.4C26.6001 110.4 26.4501 110.38 26.3101 110.33L12.8401 105.94C12.0901 105.69 11.6801 104.89 11.9201 104.13C12.1701 103.38 12.9801 102.97 13.7301 103.21L26.4001 107.34L26.4501 107.29L78.5801 58.66L68.1401 54.04C67.4201 53.72 67.0901 52.87 67.4101 52.15C67.7301 51.43 68.5701 51.1 69.3001 51.42L81.7301 56.91C82.1701 57.11 82.4801 57.51 82.5601 57.98C82.6401 58.45 82.4801 58.94 82.1201 59.27L27.7401 110.01C27.4701 110.26 27.1201 110.4 26.7601 110.4H26.7501Z" fill="#F9D94A"/>
<path d="M55.8508 53.66C55.7108 53.66 55.5708 53.64 55.4308 53.6C54.6708 53.37 54.2508 52.57 54.4808 51.81L67.9108 8.00001L56.7308 2.83001C56.0108 2.50001 55.7008 1.65001 56.0308 0.930005C56.3608 0.210005 57.2108 -0.0999946 57.9308 0.230005L70.2508 5.93001C70.9008 6.23001 71.2308 6.97001 71.0208 7.65001L57.2208 52.66C57.0308 53.28 56.4608 53.67 55.8508 53.67V53.66Z" fill="#F9D94A"/>
<path d="M55.5498 8.17012C55.2498 8.17012 54.9598 7.98012 54.8698 7.67012C54.7498 7.29012 54.9598 6.89012 55.3298 6.77012L64.0198 3.98012C64.3998 3.86012 64.7998 4.07012 64.9198 4.44012C65.0398 4.82012 64.8298 5.22012 64.4598 5.34012L55.7698 8.13012C55.6998 8.15012 55.6198 8.16012 55.5498 8.16012V8.17012Z" fill="#F9D94A"/>
<path d="M53.1015 14.5199C52.8015 14.5199 52.5215 14.3299 52.4215 14.0199C52.3015 13.6399 52.5015 13.2399 52.8815 13.1199L69.3715 7.76991C69.7515 7.64991 70.1515 7.85991 70.2715 8.22991C70.3915 8.60991 70.1915 9.00991 69.8115 9.12991L53.3215 14.4799C53.2515 14.4999 53.1715 14.5099 53.1015 14.5099V14.5199Z" fill="#F9D94A"/>
<path d="M50.203 23.4299C49.903 23.4299 49.623 23.2399 49.523 22.9399C49.393 22.5599 49.603 22.1599 49.973 22.0299L66.243 16.5699C66.613 16.4399 67.023 16.6499 67.153 17.0199C67.283 17.3999 67.073 17.7999 66.703 17.9299L50.433 23.3899C50.353 23.4199 50.283 23.4299 50.203 23.4299Z" fill="#F9D94A"/>
<path d="M48.5317 29.8901C48.2217 29.8901 47.9417 29.6901 47.8417 29.3801C47.7317 29.0001 47.9417 28.6001 48.3217 28.4901L64.3617 23.7001C64.7517 23.5801 65.1417 23.8001 65.2517 24.1801C65.3617 24.5601 65.1517 24.9601 64.7717 25.0701L48.7317 29.8601C48.6617 29.8801 48.5917 29.8901 48.5217 29.8901H48.5317Z" fill="#F9D94A"/>
<path d="M45.8606 38.3599C45.5706 38.3599 45.3006 38.1799 45.1906 37.8899C45.0506 37.5199 45.2406 37.1099 45.6106 36.9699L61.6506 30.9499C62.0206 30.8099 62.4306 30.9999 62.5706 31.3699C62.7106 31.7399 62.5206 32.1499 62.1506 32.2899L46.1106 38.3099C46.0306 38.3399 45.9406 38.3599 45.8606 38.3599Z" fill="#F9D94A"/>
<path d="M44.3 46.3801C44.02 46.3801 43.76 46.2201 43.64 45.9501C43.48 45.5901 43.64 45.1601 44.01 45.0101L58.38 38.7701C58.75 38.6101 59.17 38.7701 59.32 39.1401C59.48 39.5001 59.32 39.9301 58.95 40.0801L44.58 46.3201C44.49 46.3601 44.39 46.3801 44.29 46.3801H44.3Z" fill="#F9D94A"/>
<path d="M43.9595 52.67C43.5995 52.67 43.2595 52.45 43.1395 52.09C42.9795 51.64 43.2195 51.14 43.6695 50.98L56.5995 46.41C57.0595 46.25 57.5495 46.49 57.7095 46.94C57.8695 47.39 57.6295 47.89 57.1795 48.05L44.2495 52.62C44.1495 52.65 44.0595 52.67 43.9595 52.67Z" fill="#F9D94A"/>
<path d="M61.3399 61.09C61.0099 61.09 60.7099 60.86 60.6399 60.52C60.5599 60.13 60.8099 59.75 61.1999 59.67L76.9099 56.44C77.2999 56.36 77.6799 56.61 77.7599 57C77.8399 57.39 77.5899 57.77 77.1999 57.85L61.4899 61.08C61.4899 61.08 61.3899 61.09 61.3399 61.09Z" fill="#F9D94A"/>
<path d="M50.422 70.3401C50.092 70.3401 49.792 70.1101 49.722 69.7701C49.642 69.3801 49.892 69.0001 50.272 68.9201L74.562 63.8001C74.9419 63.7101 75.332 63.9701 75.412 64.3501C75.492 64.7401 75.242 65.1201 74.862 65.2001L50.572 70.3201C50.522 70.3301 50.472 70.3401 50.422 70.3401Z" fill="#F9D94A"/>
<path d="M41.7301 79.0299C41.3801 79.0299 41.0801 78.7799 41.0201 78.4199C40.9601 78.0299 41.2301 77.6599 41.6201 77.5999L63.6801 74.1499C64.0601 74.0899 64.4401 74.3599 64.5001 74.7499C64.5601 75.1399 64.2901 75.5099 63.9001 75.5699L41.8401 79.0199C41.8401 79.0199 41.7701 79.0199 41.7301 79.0199V79.0299Z" fill="#F9D94A"/>
<path d="M31.5894 87.72C31.2394 87.72 30.9394 87.47 30.8794 87.11C30.8194 86.72 31.0894 86.35 31.4794 86.29L54.7694 82.72C55.1594 82.66 55.5294 82.93 55.5894 83.32C55.6494 83.71 55.3794 84.08 54.9894 84.14L31.6994 87.71C31.6994 87.71 31.6294 87.71 31.5894 87.71V87.72Z" fill="#F9D94A"/>
<path d="M23.2406 96.1899C22.9006 96.1899 22.5906 95.9399 22.5306 95.5899C22.4606 95.1999 22.7306 94.8299 23.1206 94.7599L45.0706 91.0799C45.4606 91.0099 45.8306 91.2799 45.9006 91.6699C45.9706 92.0599 45.7006 92.4299 45.3106 92.4999L23.3606 96.1799C23.3606 96.1799 23.2806 96.1899 23.2406 96.1899Z" fill="#F9D94A"/>
<path d="M15.2195 104.44C14.8795 104.44 14.5795 104.2 14.5195 103.86C14.4495 103.47 14.6995 103.1 15.0895 103.02L37.2595 98.7901C37.6495 98.7101 38.0195 98.9701 38.0995 99.3601C38.1695 99.7501 37.9195 100.12 37.5295 100.2L15.3595 104.43C15.3595 104.43 15.2695 104.44 15.2195 104.44Z" fill="#F9D94A"/>
<path d="M18.7798 25.0399C18.3398 25.0399 17.8998 24.8399 17.6198 24.4499L2.8798 4.2299C2.4098 3.5899 2.5498 2.6899 3.1898 2.2299C3.8298 1.7599 4.7298 1.8999 5.1898 2.5399L19.9298 22.7599C20.3998 23.3999 20.2598 24.2999 19.6198 24.7599C19.3698 24.9499 19.0698 25.0399 18.7798 25.0399Z" fill="#F9D94A"/>
<path d="M26.58 21.6999C25.95 21.6999 25.38 21.2899 25.2 20.6499L19.9 1.81993C19.69 1.05993 20.13 0.269928 20.89 0.0499276C21.65 -0.160072 22.44 0.279928 22.66 1.03993L27.96 19.8699C28.17 20.6299 27.73 21.4199 26.97 21.6399C26.84 21.6799 26.71 21.6899 26.58 21.6899V21.6999Z" fill="#F9D94A"/>
<path d="M13.4283 31.4999C13.2383 31.4999 13.0483 31.4599 12.8583 31.3799L0.858269 26.1699C0.128269 25.8499 -0.201731 25.0099 0.118269 24.2799C0.428269 23.5499 1.26827 23.2199 2.00827 23.5399L14.0083 28.7499C14.7383 29.0699 15.0683 29.9099 14.7483 30.6399C14.5183 31.1799 13.9883 31.4999 13.4283 31.4999Z" fill="#F9D94A"/>
</g>
<defs>
<clipPath id="clip0_18_18133">
<rect width="82.57" height="110.4" fill="white"/>
</clipPath>
</defs>
</svg>
