<svg width="65" height="64" viewBox="0 0 65 64" fill="none" xmlns="http://www.w3.org/2000/svg">
<path opacity="0.23" d="M32.8603 32.9431L3.6875 16.966L32.8603 2.70508V32.9431Z" fill="white"/>
<path fill-rule="evenodd" clip-rule="evenodd" d="M29.8107 6.10936L8.01241 16.6698L29.8107 28.5841V6.10936ZM29.8107 34.3213L5.03449 20.7794V29.9981L29.8107 42.7706V34.3213ZM29.8107 48.4346L1.75344 33.9706C0.676619 33.4157 0 32.3055 0 31.0941V14.9574L30.1977 0.327842C32.347 -0.713417 34.8453 0.852174 34.8453 3.2404V14.9972L62.3227 29.0922C63.4027 29.6463 64.0821 30.7581 64.0821 31.9718V46.4616C64.0821 47.674 63.4041 48.7848 62.3259 49.3396L34.5275 63.6374C32.3737 64.745 29.8107 63.1814 29.8107 60.7592V48.4346ZM34.8453 20.6553V57.8127L59.0475 45.3645V33.0703L34.8453 20.6553Z" fill="#F9D94A"/>
</svg>
