<svg width="117" height="30" viewBox="0 0 117 30" fill="none" xmlns="http://www.w3.org/2000/svg">
<g clip-path="url(#clip0_237_7282)">
<path d="M14.6217 29.5513C22.6583 29.5513 29.1732 23.0364 29.1732 14.9999C29.1732 6.96338 22.6583 0.448486 14.6217 0.448486C6.58521 0.448486 0.0703125 6.96338 0.0703125 14.9999C0.0703125 23.0364 6.58521 29.5513 14.6217 29.5513Z" fill="#FF492C"/>
<path d="M20.9291 11.6049H18.4554C18.5039 11.2169 18.7464 10.9744 19.2315 10.7318L19.668 10.4893C20.4926 10.1013 20.9291 9.61623 20.9291 8.84015C20.9349 8.61827 20.8898 8.39802 20.7973 8.19625C20.7048 7.99447 20.5674 7.81653 20.3956 7.67604C19.9902 7.41744 19.5182 7.2826 19.0374 7.288C18.6465 7.28559 18.2618 7.38595 17.9218 7.57903C17.604 7.79151 17.3386 8.07348 17.1458 8.40361L17.8733 9.13118C17.9754 8.8921 18.1438 8.68733 18.3588 8.54116C18.5737 8.395 18.8261 8.31359 19.0859 8.3066C19.571 8.3066 19.8135 8.54912 19.8135 8.84015C19.8135 9.13118 19.668 9.3737 19.183 9.61623L18.8919 9.76174C18.3453 10.0018 17.8754 10.3878 17.5338 10.8773C17.2644 11.3493 17.1301 11.8863 17.1458 12.4295V12.6235H20.9291V11.6049Z" fill="white"/>
<path d="M20.5898 13.8359H16.4669L14.4297 17.3768H18.5526L20.5898 20.9176L22.627 17.3768L20.5898 13.8359Z" fill="white"/>
<path d="M14.767 19.7536C13.5063 19.7536 12.2972 19.2528 11.4058 18.3614C10.5143 17.4699 10.0135 16.2609 10.0135 15.0002C10.0135 13.7395 10.5143 12.5304 11.4058 11.639C12.2972 10.7475 13.5063 10.2467 14.767 10.2467L16.4161 6.85138C15.872 6.7527 15.32 6.70399 14.767 6.70586C12.5672 6.70586 10.4575 7.57973 8.902 9.13521C7.34652 10.6907 6.47266 12.8004 6.47266 15.0002C6.47266 17.2 7.34652 19.3097 8.902 20.8651C10.4575 22.4206 12.5672 23.2945 14.767 23.2945C16.5221 23.3022 18.2355 22.7593 19.6659 21.7423L17.8713 18.5895C17.012 19.3414 15.9087 19.7551 14.767 19.7536Z" fill="white"/>
</g>
<g clip-path="url(#clip1_237_7282)">
<path d="M35.6875 7.59668L39.9868 6.86911L42.2356 2.56982L44.2861 6.80298L48.9161 7.59668L45.6751 10.7716L46.3365 15.4016L42.2356 13.4173L38.1348 15.4016L38.6639 10.8377L35.6875 7.59668ZM52.1571 7.59668L56.4564 6.86911L58.7052 2.56982L60.8218 6.80298L65.3856 7.59668L62.1446 10.7716L62.8722 15.4016L58.7052 13.4173L54.6705 15.4016L55.1996 10.8377L52.1571 7.59668ZM68.9573 7.59668L73.2566 6.86911L75.5055 2.56982L77.5559 6.80298L82.1859 7.59668L78.9449 10.7716L79.6725 15.4016L75.5055 13.4173L71.4046 15.4016L71.9338 10.8377L68.9573 7.59668ZM85.2285 7.59668L89.5278 6.86911L91.7766 2.56982L93.8932 6.80298L98.4571 7.59668L95.2161 10.7716L95.9436 15.4016L91.7766 13.4173L87.7419 15.4016L88.2711 10.8377L85.2285 7.59668ZM101.764 7.59668L106.063 6.86911L108.312 2.56982L110.429 6.80298L114.993 7.59668L111.752 10.7716L112.479 15.4016L108.312 13.4173L104.278 15.4016L104.807 10.8377L101.764 7.59668Z" fill="#FF492C"/>
<path d="M50.1712 7.19973L44.6813 6.40603L42.234 1.44531L39.7867 6.40603L34.2969 7.19973L38.2654 11.036L37.3394 16.5259L42.234 13.9463L47.1286 16.5259L46.2026 11.036L50.1712 7.19973ZM42.234 12.7557L38.7946 14.6077L39.456 10.7715L36.678 8.0596L40.5804 7.46432L42.3002 3.95873L44.0199 7.46432L47.9223 8.0596L45.1443 10.7715L45.8057 14.6077L42.234 12.7557ZM66.7069 7.19973L61.217 6.40603L58.7697 1.44531L56.3224 6.40603L50.8326 7.19973L54.8012 11.036L53.8752 16.5259L58.7697 13.9463L63.6643 16.5259L62.7383 11.036L66.7069 7.19973ZM58.7697 12.7557L55.3303 14.6077L55.9917 10.7715L53.2137 8.0596L57.1162 7.46432L58.8359 3.95873L60.5556 7.46432L64.458 8.0596L61.68 10.7715L62.3414 14.6077L58.7697 12.7557ZM83.2426 7.19973L77.7527 6.40603L75.3054 1.44531L72.8582 6.40603L67.3683 7.19973L71.3369 11.036L70.4109 16.5259L75.3054 13.9463L80.2 16.5259L79.274 11.036L83.2426 7.19973ZM75.3054 12.7557L71.866 14.6077L72.5274 10.7715L69.7494 8.0596L73.6519 7.46432L75.3716 3.95873L77.0913 7.46432L80.9937 8.0596L78.2157 10.7715L78.8771 14.6077L75.3054 12.7557ZM99.7783 7.19973L94.2884 6.40603L91.8411 1.44531L89.3939 6.40603L83.904 7.19973L87.8726 11.036L86.9466 16.5259L91.8411 13.9463L96.7357 16.5259L95.8097 11.036L99.7783 7.19973ZM91.8411 12.7557L88.4017 14.6077L89.0632 10.7715L86.2852 8.0596L90.1876 7.46432L91.9073 3.95873L93.627 7.46432L97.5294 8.0596L94.7514 10.7715L95.4129 14.6077L91.8411 12.7557ZM116.314 7.19973L110.824 6.40603L108.377 1.44531L105.93 6.40603L100.44 7.19973L104.408 11.036L103.482 16.5259L108.377 13.9463L113.271 16.5259L112.345 11.036L116.314 7.19973ZM108.377 12.7557L104.937 14.6077L105.599 10.7715L102.821 8.0596L106.723 7.46432L108.443 3.95873L110.163 7.46432L114.065 8.0596L111.287 10.7715L111.949 14.6077L108.377 12.7557Z" fill="#FF492C"/>
</g>
<path d="M38.4734 24.8429V25.7187H34.408L34.3537 25.0405L36.7062 21.3084H37.5937L36.6325 22.9167L35.4621 24.8429H38.4734ZM37.834 21.3084V26.9512H36.7178V21.3084H37.834ZM39.1788 26.4125C39.1788 26.2471 39.2356 26.1089 39.3493 25.9978C39.4656 25.8867 39.6193 25.8311 39.8105 25.8311C40.0017 25.8311 40.1541 25.8867 40.2678 25.9978C40.3841 26.1089 40.4422 26.2471 40.4422 26.4125C40.4422 26.5778 40.3841 26.7161 40.2678 26.8272C40.1541 26.9383 40.0017 26.9938 39.8105 26.9938C39.6193 26.9938 39.4656 26.9383 39.3493 26.8272C39.2356 26.7161 39.1788 26.5778 39.1788 26.4125ZM45.213 21.3084V21.9091L43.0311 26.9512H41.8529L44.0349 22.1804H41.2251V21.3084H45.213ZM47.7825 24.8971V24.8157C47.7825 24.5083 47.8264 24.2254 47.9143 23.967C48.0021 23.706 48.13 23.48 48.298 23.2888C48.4659 23.0976 48.6726 22.949 48.9181 22.8431C49.1635 22.7346 49.4451 22.6803 49.7629 22.6803C50.0807 22.6803 50.3636 22.7346 50.6117 22.8431C50.8597 22.949 51.0677 23.0976 51.2356 23.2888C51.4062 23.48 51.5354 23.706 51.6232 23.967C51.711 24.2254 51.755 24.5083 51.755 24.8157V24.8971C51.755 25.202 51.711 25.4849 51.6232 25.7459C51.5354 26.0042 51.4062 26.2303 51.2356 26.4241C51.0677 26.6153 50.861 26.7639 50.6156 26.8698C50.3701 26.9757 50.0885 27.0287 49.7707 27.0287C49.4529 27.0287 49.17 26.9757 48.9219 26.8698C48.6765 26.7639 48.4685 26.6153 48.298 26.4241C48.13 26.2303 48.0021 26.0042 47.9143 25.7459C47.8264 25.4849 47.7825 25.202 47.7825 24.8971ZM48.8987 24.8157V24.8971C48.8987 25.0728 48.9142 25.2369 48.9452 25.3893C48.9762 25.5418 49.0253 25.6761 49.0925 25.7924C49.1622 25.9061 49.2527 25.9952 49.3638 26.0598C49.4749 26.1244 49.6105 26.1567 49.7707 26.1567C49.9257 26.1567 50.0588 26.1244 50.1699 26.0598C50.281 25.9952 50.3701 25.9061 50.4373 25.7924C50.5045 25.6761 50.5535 25.5418 50.5846 25.3893C50.6181 25.2369 50.6349 25.0728 50.6349 24.8971V24.8157C50.6349 24.6452 50.6181 24.485 50.5846 24.3352C50.5535 24.1827 50.5032 24.0484 50.4334 23.9321C50.3662 23.8133 50.2771 23.7202 50.166 23.6531C50.0549 23.5859 49.9205 23.5523 49.7629 23.5523C49.6053 23.5523 49.471 23.5859 49.3599 23.6531C49.2514 23.7202 49.1622 23.8133 49.0925 23.9321C49.0253 24.0484 48.9762 24.1827 48.9452 24.3352C48.9142 24.485 48.8987 24.6452 48.8987 24.8157ZM54.9213 25.9474V22.7578H56.0375V26.9512H54.9872L54.9213 25.9474ZM55.0453 25.087L55.3747 25.0793C55.3747 25.3583 55.3424 25.618 55.2779 25.8583C55.2133 26.096 55.1164 26.3027 54.9872 26.4784C54.858 26.6515 54.6952 26.7871 54.4989 26.8853C54.3025 26.9809 54.0713 27.0287 53.8051 27.0287C53.601 27.0287 53.4124 27.0003 53.2393 26.9434C53.0688 26.884 52.9215 26.7923 52.7975 26.6683C52.6761 26.5417 52.5805 26.3802 52.5107 26.1838C52.4435 25.9849 52.4099 25.7459 52.4099 25.4668V22.7578H53.5261V25.4746C53.5261 25.5986 53.5403 25.7032 53.5687 25.7885C53.5997 25.8738 53.6424 25.9435 53.6966 25.9978C53.7509 26.052 53.8142 26.0908 53.8865 26.1141C53.9615 26.1373 54.0441 26.1489 54.1346 26.1489C54.3645 26.1489 54.5454 26.1024 54.6771 26.0094C54.8115 25.9164 54.9058 25.7898 54.9601 25.6296C55.0169 25.4668 55.0453 25.286 55.0453 25.087ZM58.9441 22.7578V23.5484H56.5025V22.7578H58.9441ZM57.1071 21.723H58.2233V25.6877C58.2233 25.8092 58.2388 25.9022 58.2698 25.9668C58.3034 26.0314 58.3525 26.0766 58.4171 26.1024C58.4816 26.1257 58.563 26.1373 58.6612 26.1373C58.731 26.1373 58.793 26.1347 58.8472 26.1296C58.9041 26.1218 58.9519 26.1141 58.9906 26.1063L58.9945 26.9279C58.8989 26.9589 58.7956 26.9835 58.6845 27.0016C58.5734 27.0196 58.4506 27.0287 58.3163 27.0287C58.0708 27.0287 57.8564 26.9886 57.6729 26.9085C57.4921 26.8259 57.3526 26.6941 57.2544 26.5132C57.1562 26.3324 57.1071 26.0947 57.1071 25.8001V21.723ZM61.378 24.8971V24.8157C61.378 24.5083 61.4219 24.2254 61.5098 23.967C61.5976 23.706 61.7255 23.48 61.8934 23.2888C62.0614 23.0976 62.2681 22.949 62.5135 22.8431C62.759 22.7346 63.0406 22.6803 63.3584 22.6803C63.6762 22.6803 63.9591 22.7346 64.2071 22.8431C64.4552 22.949 64.6632 23.0976 64.8311 23.2888C65.0016 23.48 65.1308 23.706 65.2187 23.967C65.3065 24.2254 65.3504 24.5083 65.3504 24.8157V24.8971C65.3504 25.202 65.3065 25.4849 65.2187 25.7459C65.1308 26.0042 65.0016 26.2303 64.8311 26.4241C64.6632 26.6153 64.4565 26.7639 64.211 26.8698C63.9656 26.9757 63.6839 27.0287 63.3661 27.0287C63.0483 27.0287 62.7654 26.9757 62.5174 26.8698C62.2719 26.7639 62.064 26.6153 61.8934 26.4241C61.7255 26.2303 61.5976 26.0042 61.5098 25.7459C61.4219 25.4849 61.378 25.202 61.378 24.8971ZM62.4941 24.8157V24.8971C62.4941 25.0728 62.5096 25.2369 62.5406 25.3893C62.5717 25.5418 62.6207 25.6761 62.6879 25.7924C62.7577 25.9061 62.8481 25.9952 62.9592 26.0598C63.0703 26.1244 63.206 26.1567 63.3661 26.1567C63.5212 26.1567 63.6542 26.1244 63.7653 26.0598C63.8764 25.9952 63.9656 25.9061 64.0327 25.7924C64.0999 25.6761 64.149 25.5418 64.18 25.3893C64.2136 25.2369 64.2304 25.0728 64.2304 24.8971V24.8157C64.2304 24.6452 64.2136 24.485 64.18 24.3352C64.149 24.1827 64.0986 24.0484 64.0289 23.9321C63.9617 23.8133 63.8725 23.7202 63.7614 23.6531C63.6503 23.5859 63.516 23.5523 63.3584 23.5523C63.2008 23.5523 63.0664 23.5859 62.9553 23.6531C62.8468 23.7202 62.7577 23.8133 62.6879 23.9321C62.6207 24.0484 62.5717 24.1827 62.5406 24.3352C62.5096 24.485 62.4941 24.6452 62.4941 24.8157ZM67.4587 26.9512H66.3348V22.3858C66.3348 22.068 66.3968 21.8006 66.5208 21.5835C66.6474 21.3639 66.8244 21.1986 67.0518 21.0875C67.2817 20.9738 67.5543 20.9169 67.8695 20.9169C67.9729 20.9169 68.0724 20.9247 68.168 20.9402C68.2636 20.9531 68.3566 20.9699 68.447 20.9906L68.4354 21.8316C68.3863 21.8186 68.3346 21.8096 68.2803 21.8044C68.2261 21.7993 68.1628 21.7967 68.0904 21.7967C67.9561 21.7967 67.8411 21.8199 67.7455 21.8664C67.6525 21.9104 67.5815 21.9762 67.5324 22.0641C67.4833 22.1519 67.4587 22.2592 67.4587 22.3858V26.9512ZM68.2959 22.7578V23.5484H65.7109V22.7578H68.2959ZM71.8614 24.3817L70.97 24.1685L71.2917 21.3084H74.4619V22.2114H72.2102L72.0706 23.4632C72.1456 23.4192 72.2593 23.3727 72.4117 23.3237C72.5641 23.272 72.7347 23.2461 72.9233 23.2461C73.1971 23.2461 73.44 23.2888 73.6519 23.374C73.8637 23.4593 74.0433 23.5833 74.1906 23.7461C74.3404 23.9089 74.4541 24.1078 74.5316 24.3429C74.6091 24.578 74.6479 24.8442 74.6479 25.1413C74.6479 25.3919 74.6091 25.6309 74.5316 25.8583C74.4541 26.083 74.3366 26.2846 74.1789 26.4629C74.0213 26.6385 73.8237 26.7768 73.586 26.8775C73.3483 26.9783 73.0667 27.0287 72.7411 27.0287C72.4982 27.0287 72.2631 26.9925 72.0358 26.9202C71.811 26.8478 71.6082 26.7406 71.4273 26.5985C71.249 26.4564 71.1056 26.2846 70.9971 26.083C70.8912 25.8789 70.8356 25.6464 70.8305 25.3854H71.9389C71.9544 25.5456 71.9957 25.6839 72.0629 25.8001C72.1327 25.9138 72.2244 26.0017 72.3381 26.0637C72.4517 26.1257 72.5848 26.1567 72.7372 26.1567C72.8793 26.1567 73.0008 26.1296 73.1015 26.0753C73.2023 26.021 73.2837 25.9461 73.3457 25.8505C73.4077 25.7523 73.4529 25.6386 73.4813 25.5095C73.5123 25.3777 73.5279 25.2356 73.5279 25.0832C73.5279 24.9307 73.5098 24.7925 73.4736 24.6685C73.4374 24.5445 73.3819 24.4372 73.3069 24.3468C73.232 24.2564 73.1364 24.1866 73.0202 24.1375C72.9065 24.0884 72.7734 24.0639 72.621 24.0639C72.4143 24.0639 72.2541 24.0962 72.1404 24.1608C72.0293 24.2254 71.9363 24.299 71.8614 24.3817ZM79.659 25.7924C79.659 25.7123 79.6357 25.6399 79.5892 25.5753C79.5427 25.5108 79.4562 25.4513 79.3296 25.3971C79.2055 25.3402 79.026 25.2886 78.7909 25.2421C78.579 25.1955 78.3813 25.1374 78.1979 25.0677C78.017 24.9953 77.8594 24.9088 77.7251 24.808C77.5933 24.7072 77.49 24.5884 77.415 24.4514C77.3401 24.3119 77.3026 24.153 77.3026 23.9747C77.3026 23.7991 77.3401 23.6337 77.415 23.4787C77.4925 23.3237 77.6024 23.1867 77.7445 23.0679C77.8891 22.9464 78.0648 22.8521 78.2715 22.7849C78.4808 22.7152 78.7159 22.6803 78.9769 22.6803C79.3412 22.6803 79.6538 22.7384 79.9148 22.8547C80.1783 22.971 80.3798 23.1312 80.5194 23.3353C80.6615 23.5368 80.7325 23.7668 80.7325 24.0251H79.6164C79.6164 23.9166 79.5931 23.8197 79.5466 23.7345C79.5027 23.6466 79.4329 23.5781 79.3373 23.5291C79.2443 23.4774 79.1229 23.4515 78.973 23.4515C78.849 23.4515 78.7418 23.4735 78.6513 23.5174C78.5609 23.5588 78.4912 23.6156 78.4421 23.688C78.3956 23.7577 78.3723 23.8352 78.3723 23.9205C78.3723 23.9851 78.3852 24.0432 78.4111 24.0949C78.4395 24.144 78.4847 24.1892 78.5467 24.2305C78.6087 24.2719 78.6888 24.3106 78.787 24.3468C78.8877 24.3804 79.0118 24.4114 79.159 24.4398C79.4613 24.5018 79.7313 24.5832 79.969 24.684C80.2067 24.7822 80.3953 24.9165 80.5349 25.087C80.6744 25.255 80.7441 25.4759 80.7441 25.7497C80.7441 25.9358 80.7028 26.1063 80.6201 26.2613C80.5374 26.4163 80.4186 26.552 80.2636 26.6683C80.1085 26.7819 79.9225 26.8711 79.7055 26.9357C79.491 26.9977 79.2495 27.0287 78.9808 27.0287C78.5906 27.0287 78.2599 26.9589 77.9886 26.8194C77.7199 26.6799 77.5158 26.5029 77.3763 26.2885C77.2393 26.0714 77.1709 25.8492 77.1709 25.6219H78.2289C78.2341 25.7743 78.2728 25.897 78.3452 25.99C78.4201 26.083 78.5144 26.1502 78.6281 26.1916C78.7444 26.2329 78.8697 26.2536 79.004 26.2536C79.1487 26.2536 79.2688 26.2342 79.3644 26.1954C79.46 26.1541 79.5324 26.0998 79.5815 26.0327C79.6331 25.9629 79.659 25.8828 79.659 25.7924ZM83.5229 22.7578V23.5484H81.0813V22.7578H83.5229ZM81.6859 21.723H82.8021V25.6877C82.8021 25.8092 82.8176 25.9022 82.8486 25.9668C82.8822 26.0314 82.9312 26.0766 82.9958 26.1024C83.0604 26.1257 83.1418 26.1373 83.24 26.1373C83.3098 26.1373 83.3718 26.1347 83.426 26.1296C83.4829 26.1218 83.5307 26.1141 83.5694 26.1063L83.5733 26.9279C83.4777 26.9589 83.3744 26.9835 83.2633 27.0016C83.1522 27.0196 83.0294 27.0287 82.8951 27.0287C82.6496 27.0287 82.4352 26.9886 82.2517 26.9085C82.0709 26.8259 81.9314 26.6941 81.8332 26.5132C81.735 26.3324 81.6859 26.0947 81.6859 25.8001V21.723ZM86.4218 26.0055V24.1375C86.4218 24.0032 86.3999 23.8882 86.3559 23.7926C86.312 23.6944 86.2436 23.6182 86.1505 23.5639C86.0601 23.5097 85.9426 23.4825 85.7979 23.4825C85.6739 23.4825 85.5666 23.5045 85.4762 23.5484C85.3858 23.5898 85.316 23.6505 85.2669 23.7306C85.2178 23.8081 85.1933 23.8998 85.1933 24.0057H84.0771C84.0771 23.8275 84.1185 23.6582 84.2011 23.4981C84.2838 23.3379 84.404 23.197 84.5616 23.0756C84.7192 22.9516 84.9065 22.8547 85.1235 22.7849C85.3431 22.7152 85.5886 22.6803 85.8599 22.6803C86.1854 22.6803 86.4748 22.7346 86.728 22.8431C86.9812 22.9516 87.1802 23.1144 87.3248 23.3314C87.4721 23.5484 87.5457 23.8197 87.5457 24.1453V25.9397C87.5457 26.1696 87.56 26.3582 87.5884 26.5055C87.6168 26.6502 87.6581 26.7768 87.7124 26.8853V26.9512H86.5846C86.5303 26.8375 86.489 26.6954 86.4606 26.5249C86.4348 26.3518 86.4218 26.1786 86.4218 26.0055ZM86.5691 24.3972L86.5769 25.0289H85.9529C85.8056 25.0289 85.6777 25.0457 85.5692 25.0793C85.4607 25.1129 85.3716 25.1607 85.3018 25.2227C85.232 25.2821 85.1804 25.3519 85.1468 25.432C85.1158 25.512 85.1003 25.5999 85.1003 25.6955C85.1003 25.7911 85.1222 25.8776 85.1662 25.9552C85.2101 26.0301 85.2734 26.0895 85.3561 26.1334C85.4387 26.1748 85.5356 26.1954 85.6467 26.1954C85.8147 26.1954 85.9606 26.1619 86.0847 26.0947C86.2087 26.0275 86.3043 25.9448 86.3715 25.8466C86.4412 25.7485 86.4774 25.6554 86.48 25.5676L86.7745 26.0404C86.7332 26.1463 86.6763 26.2562 86.604 26.3698C86.5342 26.4835 86.4451 26.5907 86.3366 26.6915C86.2281 26.7897 86.0976 26.8711 85.9451 26.9357C85.7927 26.9977 85.6118 27.0287 85.4026 27.0287C85.1364 27.0287 84.8949 26.9757 84.6778 26.8698C84.4634 26.7613 84.2929 26.6127 84.1663 26.4241C84.0422 26.2329 83.9802 26.0159 83.9802 25.773C83.9802 25.5534 84.0216 25.3583 84.1042 25.1878C84.1869 25.0173 84.3084 24.8739 84.4686 24.7576C84.6313 24.6388 84.8341 24.5496 85.077 24.4902C85.3199 24.4282 85.6015 24.3972 85.9219 24.3972H86.5691ZM89.5223 23.6725V26.9512H88.4061V22.7578H89.4564L89.5223 23.6725ZM90.7857 22.7307L90.7663 23.7655C90.7121 23.7577 90.6462 23.7513 90.5687 23.7461C90.4937 23.7383 90.4253 23.7345 90.3633 23.7345C90.2057 23.7345 90.0687 23.7551 89.9525 23.7965C89.8388 23.8352 89.7432 23.8934 89.6657 23.9709C89.5907 24.0484 89.5339 24.1427 89.4951 24.2538C89.459 24.3649 89.4383 24.4915 89.4331 24.6336L89.2084 24.5638C89.2084 24.2925 89.2355 24.0432 89.2897 23.8158C89.344 23.5859 89.4228 23.3857 89.5262 23.2151C89.6321 23.0446 89.7613 22.9128 89.9137 22.8198C90.0661 22.7268 90.2405 22.6803 90.4369 22.6803C90.4989 22.6803 90.5622 22.6855 90.6268 22.6958C90.6914 22.7036 90.7444 22.7152 90.7857 22.7307ZM93.58 25.7924C93.58 25.7123 93.5567 25.6399 93.5102 25.5753C93.4637 25.5108 93.3772 25.4513 93.2506 25.3971C93.1265 25.3402 92.947 25.2886 92.7119 25.2421C92.5 25.1955 92.3023 25.1374 92.1189 25.0677C91.938 24.9953 91.7804 24.9088 91.6461 24.808C91.5143 24.7072 91.411 24.5884 91.336 24.4514C91.2611 24.3119 91.2236 24.153 91.2236 23.9747C91.2236 23.7991 91.2611 23.6337 91.336 23.4787C91.4136 23.3237 91.5234 23.1867 91.6655 23.0679C91.8101 22.9464 91.9858 22.8521 92.1925 22.7849C92.4018 22.7152 92.6369 22.6803 92.8979 22.6803C93.2622 22.6803 93.5748 22.7384 93.8358 22.8547C94.0993 22.971 94.3008 23.1312 94.4404 23.3353C94.5825 23.5368 94.6535 23.7668 94.6535 24.0251H93.5374C93.5374 23.9166 93.5141 23.8197 93.4676 23.7345C93.4237 23.6466 93.3539 23.5781 93.2583 23.5291C93.1653 23.4774 93.0439 23.4515 92.894 23.4515C92.77 23.4515 92.6628 23.4735 92.5723 23.5174C92.4819 23.5588 92.4122 23.6156 92.3631 23.688C92.3166 23.7577 92.2933 23.8352 92.2933 23.9205C92.2933 23.9851 92.3062 24.0432 92.3321 24.0949C92.3605 24.144 92.4057 24.1892 92.4677 24.2305C92.5297 24.2719 92.6098 24.3106 92.708 24.3468C92.8088 24.3804 92.9328 24.4114 93.08 24.4398C93.3823 24.5018 93.6523 24.5832 93.89 24.684C94.1277 24.7822 94.3163 24.9165 94.4559 25.087C94.5954 25.255 94.6651 25.4759 94.6651 25.7497C94.6651 25.9358 94.6238 26.1063 94.5411 26.2613C94.4584 26.4163 94.3396 26.552 94.1846 26.6683C94.0296 26.7819 93.8435 26.8711 93.6265 26.9357C93.412 26.9977 93.1705 27.0287 92.9018 27.0287C92.5116 27.0287 92.1809 26.9589 91.9096 26.8194C91.6409 26.6799 91.4368 26.5029 91.2973 26.2885C91.1603 26.0714 91.0919 25.8492 91.0919 25.6219H92.1499C92.1551 25.7743 92.1938 25.897 92.2662 25.99C92.3411 26.083 92.4354 26.1502 92.5491 26.1916C92.6654 26.2329 92.7907 26.2536 92.925 26.2536C93.0697 26.2536 93.1898 26.2342 93.2854 26.1954C93.381 26.1541 93.4534 26.0998 93.5025 26.0327C93.5541 25.9629 93.58 25.8828 93.58 25.7924Z" fill="#E0E0E0"/>
<defs>
<clipPath id="clip0_237_7282">
<rect width="29.1029" height="29.1029" fill="white" transform="translate(0.0703125 0.448486)"/>
</clipPath>
<clipPath id="clip1_237_7282">
<rect width="82.3478" height="15.8743" fill="white" transform="translate(34.1328 1.04858)"/>
</clipPath>
</defs>
</svg>
