<svg width="617" height="412" viewBox="0 0 617 412" fill="none" xmlns="http://www.w3.org/2000/svg">
<path d="M563.374 206V196.06H567.336C568.045 196.06 568.657 196.181 569.17 196.424C569.683 196.667 570.08 197.012 570.36 197.46C570.64 197.908 570.78 198.44 570.78 199.056C570.78 199.504 570.677 199.905 570.472 200.26C570.276 200.615 570.01 200.899 569.674 201.114C569.347 201.319 568.997 201.436 568.624 201.464L568.554 201.338C569.179 201.338 569.665 201.483 570.01 201.772C570.355 202.052 570.556 202.495 570.612 203.102L570.878 206H569.352L569.114 203.298C569.086 202.897 568.951 202.603 568.708 202.416C568.465 202.22 568.069 202.122 567.518 202.122H564.886V206H563.374ZM564.886 200.736H567.364C567.933 200.736 568.381 200.596 568.708 200.316C569.044 200.027 569.212 199.621 569.212 199.098C569.212 198.566 569.044 198.16 568.708 197.88C568.372 197.591 567.882 197.446 567.238 197.446H564.886V200.736ZM575.61 206.168C574.882 206.168 574.252 206.009 573.72 205.692C573.197 205.375 572.791 204.922 572.502 204.334C572.222 203.746 572.082 203.06 572.082 202.276C572.082 201.492 572.222 200.811 572.502 200.232C572.791 199.644 573.197 199.191 573.72 198.874C574.243 198.547 574.859 198.384 575.568 198.384C576.24 198.384 576.833 198.543 577.346 198.86C577.859 199.168 578.256 199.616 578.536 200.204C578.825 200.792 578.97 201.501 578.97 202.332V202.71H573.622C573.659 203.438 573.851 203.984 574.196 204.348C574.551 204.712 575.027 204.894 575.624 204.894C576.063 204.894 576.427 204.791 576.716 204.586C577.005 204.381 577.206 204.105 577.318 203.76L578.858 203.858C578.662 204.549 578.275 205.109 577.696 205.538C577.127 205.958 576.431 206.168 575.61 206.168ZM573.622 201.59H577.402C577.355 200.927 577.164 200.437 576.828 200.12C576.501 199.803 576.081 199.644 575.568 199.644C575.036 199.644 574.597 199.812 574.252 200.148C573.916 200.475 573.706 200.955 573.622 201.59ZM586.886 208.1H585.402V204.404L585.57 204.572C585.476 204.899 585.313 205.183 585.08 205.426C584.856 205.659 584.58 205.841 584.254 205.972C583.927 206.103 583.577 206.168 583.204 206.168C582.476 206.168 581.874 205.991 581.398 205.636C580.931 205.272 580.581 204.796 580.348 204.208C580.124 203.62 580.012 202.976 580.012 202.276C580.012 201.576 580.124 200.932 580.348 200.344C580.581 199.756 580.931 199.285 581.398 198.93C581.874 198.566 582.476 198.384 583.204 198.384C583.773 198.384 584.272 198.529 584.702 198.818C585.131 199.098 585.434 199.513 585.612 200.064L585.444 200.148L585.486 198.552H586.886V208.1ZM583.47 204.88C583.871 204.88 584.216 204.787 584.506 204.6C584.795 204.404 585.014 204.11 585.164 203.718C585.322 203.326 585.402 202.845 585.402 202.276C585.402 201.707 585.322 201.226 585.164 200.834C585.005 200.442 584.781 200.153 584.492 199.966C584.202 199.77 583.862 199.672 583.47 199.672C582.872 199.672 582.401 199.901 582.056 200.358C581.72 200.815 581.552 201.455 581.552 202.276C581.552 203.097 581.72 203.737 582.056 204.194C582.401 204.651 582.872 204.88 583.47 204.88ZM591.441 206.168C590.695 206.168 590.097 205.921 589.649 205.426C589.211 204.922 588.991 204.227 588.991 203.34V198.552H590.475V202.962C590.475 203.634 590.592 204.129 590.825 204.446C591.059 204.763 591.413 204.922 591.889 204.922C592.431 204.922 592.851 204.749 593.149 204.404C593.457 204.049 593.611 203.555 593.611 202.92V198.552H595.095V206H593.709L593.681 204.054L593.891 204.138C593.761 204.791 593.485 205.295 593.065 205.65C592.645 205.995 592.104 206.168 591.441 206.168ZM600.124 206.168C599.396 206.168 598.766 206.009 598.234 205.692C597.711 205.375 597.305 204.922 597.016 204.334C596.736 203.746 596.596 203.06 596.596 202.276C596.596 201.492 596.736 200.811 597.016 200.232C597.305 199.644 597.711 199.191 598.234 198.874C598.756 198.547 599.372 198.384 600.082 198.384C600.754 198.384 601.346 198.543 601.86 198.86C602.373 199.168 602.77 199.616 603.05 200.204C603.339 200.792 603.484 201.501 603.484 202.332V202.71H598.136C598.173 203.438 598.364 203.984 598.71 204.348C599.064 204.712 599.54 204.894 600.138 204.894C600.576 204.894 600.94 204.791 601.23 204.586C601.519 204.381 601.72 204.105 601.832 203.76L603.372 203.858C603.176 204.549 602.788 205.109 602.21 205.538C601.64 205.958 600.945 206.168 600.124 206.168ZM598.136 201.59H601.916C601.869 200.927 601.678 200.437 601.342 200.12C601.015 199.803 600.595 199.644 600.082 199.644C599.55 199.644 599.111 199.812 598.766 200.148C598.43 200.475 598.22 200.955 598.136 201.59ZM607.858 206.168C607.158 206.168 606.565 206.061 606.08 205.846C605.604 205.631 605.235 205.337 604.974 204.964C604.712 204.581 604.563 204.143 604.526 203.648L606.052 203.578C606.126 203.989 606.304 204.315 606.584 204.558C606.864 204.801 607.288 204.922 607.858 204.922C608.324 204.922 608.693 204.847 608.964 204.698C609.234 204.549 609.37 204.311 609.37 203.984C609.37 203.807 609.323 203.657 609.23 203.536C609.146 203.405 608.978 203.298 608.726 203.214C608.474 203.121 608.1 203.032 607.606 202.948C606.868 202.808 606.29 202.645 605.87 202.458C605.45 202.271 605.151 202.033 604.974 201.744C604.796 201.455 604.708 201.105 604.708 200.694C604.708 200.013 604.96 199.457 605.464 199.028C605.977 198.599 606.714 198.384 607.676 198.384C608.32 198.384 608.861 198.496 609.3 198.72C609.738 198.935 610.079 199.229 610.322 199.602C610.574 199.966 610.732 200.377 610.798 200.834L609.272 200.918C609.225 200.657 609.132 200.433 608.992 200.246C608.861 200.05 608.684 199.901 608.46 199.798C608.236 199.686 607.97 199.63 607.662 199.63C607.186 199.63 606.831 199.723 606.598 199.91C606.364 200.097 606.248 200.339 606.248 200.638C606.248 200.862 606.299 201.044 606.402 201.184C606.514 201.324 606.691 201.441 606.934 201.534C607.176 201.618 607.498 201.693 607.9 201.758C608.674 201.889 609.281 202.052 609.72 202.248C610.158 202.435 610.466 202.668 610.644 202.948C610.821 203.228 610.91 203.569 610.91 203.97C610.91 204.437 610.779 204.833 610.518 205.16C610.256 205.487 609.897 205.739 609.44 205.916C608.982 206.084 608.455 206.168 607.858 206.168ZM614.994 206C614.285 206 613.762 205.837 613.426 205.51C613.09 205.183 612.922 204.675 612.922 203.984V196.802H614.406V203.872C614.406 204.217 614.481 204.455 614.63 204.586C614.779 204.717 615.008 204.782 615.316 204.782H616.38V206H614.994ZM611.788 199.77V198.552H616.38V199.77H611.788Z" fill="#2E2E2E"/>
<path d="M1.37392 206V196.06H5.33592C6.04526 196.06 6.65659 196.181 7.16992 196.424C7.68326 196.667 8.07992 197.012 8.35992 197.46C8.63992 197.908 8.77992 198.44 8.77992 199.056C8.77992 199.504 8.67726 199.905 8.47192 200.26C8.27592 200.615 8.00992 200.899 7.67392 201.114C7.34726 201.319 6.99726 201.436 6.62392 201.464L6.55392 201.338C7.17926 201.338 7.66459 201.483 8.00992 201.772C8.35526 202.052 8.55592 202.495 8.61192 203.102L8.87792 206H7.35192L7.11392 203.298C7.08592 202.897 6.95059 202.603 6.70792 202.416C6.46526 202.22 6.06859 202.122 5.51792 202.122H2.88592V206H1.37392ZM2.88592 200.736H5.36392C5.93326 200.736 6.38126 200.596 6.70792 200.316C7.04392 200.027 7.21192 199.621 7.21192 199.098C7.21192 198.566 7.04392 198.16 6.70792 197.88C6.37192 197.591 5.88192 197.446 5.23792 197.446H2.88592V200.736ZM13.6101 206.168C12.8821 206.168 12.2521 206.009 11.7201 205.692C11.1975 205.375 10.7915 204.922 10.5021 204.334C10.2221 203.746 10.0821 203.06 10.0821 202.276C10.0821 201.492 10.2221 200.811 10.5021 200.232C10.7915 199.644 11.1975 199.191 11.7201 198.874C12.2428 198.547 12.8588 198.384 13.5681 198.384C14.2401 198.384 14.8328 198.543 15.3461 198.86C15.8595 199.168 16.2561 199.616 16.5361 200.204C16.8255 200.792 16.9701 201.501 16.9701 202.332V202.71H11.6221C11.6595 203.438 11.8508 203.984 12.1961 204.348C12.5508 204.712 13.0268 204.894 13.6241 204.894C14.0628 204.894 14.4268 204.791 14.7161 204.586C15.0055 204.381 15.2061 204.105 15.3181 203.76L16.8581 203.858C16.6621 204.549 16.2748 205.109 15.6961 205.538C15.1268 205.958 14.4315 206.168 13.6101 206.168ZM11.6221 201.59H15.4021C15.3555 200.927 15.1641 200.437 14.8281 200.12C14.5015 199.803 14.0815 199.644 13.5681 199.644C13.0361 199.644 12.5975 199.812 12.2521 200.148C11.9161 200.475 11.7061 200.955 11.6221 201.59ZM24.8858 208.1H23.4018V204.404L23.5698 204.572C23.4765 204.899 23.3132 205.183 23.0798 205.426C22.8558 205.659 22.5805 205.841 22.2538 205.972C21.9272 206.103 21.5772 206.168 21.2038 206.168C20.4758 206.168 19.8738 205.991 19.3978 205.636C18.9312 205.272 18.5812 204.796 18.3478 204.208C18.1238 203.62 18.0118 202.976 18.0118 202.276C18.0118 201.576 18.1238 200.932 18.3478 200.344C18.5812 199.756 18.9312 199.285 19.3978 198.93C19.8738 198.566 20.4758 198.384 21.2038 198.384C21.7732 198.384 22.2725 198.529 22.7018 198.818C23.1312 199.098 23.4345 199.513 23.6118 200.064L23.4438 200.148L23.4858 198.552H24.8858V208.1ZM21.4698 204.88C21.8712 204.88 22.2165 204.787 22.5058 204.6C22.7952 204.404 23.0145 204.11 23.1638 203.718C23.3225 203.326 23.4018 202.845 23.4018 202.276C23.4018 201.707 23.3225 201.226 23.1638 200.834C23.0052 200.442 22.7812 200.153 22.4918 199.966C22.2025 199.77 21.8618 199.672 21.4698 199.672C20.8725 199.672 20.4012 199.901 20.0558 200.358C19.7198 200.815 19.5518 201.455 19.5518 202.276C19.5518 203.097 19.7198 203.737 20.0558 204.194C20.4012 204.651 20.8725 204.88 21.4698 204.88ZM29.4414 206.168C28.6947 206.168 28.0974 205.921 27.6494 205.426C27.2107 204.922 26.9914 204.227 26.9914 203.34V198.552H28.4754V202.962C28.4754 203.634 28.5921 204.129 28.8254 204.446C29.0587 204.763 29.4134 204.922 29.8894 204.922C30.4307 204.922 30.8507 204.749 31.1494 204.404C31.4574 204.049 31.6114 203.555 31.6114 202.92V198.552H33.0954V206H31.7094L31.6814 204.054L31.8914 204.138C31.7607 204.791 31.4854 205.295 31.0654 205.65C30.6454 205.995 30.1041 206.168 29.4414 206.168ZM38.1238 206.168C37.3958 206.168 36.7658 206.009 36.2338 205.692C35.7111 205.375 35.3051 204.922 35.0158 204.334C34.7358 203.746 34.5958 203.06 34.5958 202.276C34.5958 201.492 34.7358 200.811 35.0158 200.232C35.3051 199.644 35.7111 199.191 36.2338 198.874C36.7565 198.547 37.3725 198.384 38.0818 198.384C38.7538 198.384 39.3465 198.543 39.8598 198.86C40.3731 199.168 40.7698 199.616 41.0498 200.204C41.3391 200.792 41.4838 201.501 41.4838 202.332V202.71H36.1358C36.1731 203.438 36.3645 203.984 36.7098 204.348C37.0645 204.712 37.5405 204.894 38.1378 204.894C38.5765 204.894 38.9405 204.791 39.2298 204.586C39.5191 204.381 39.7198 204.105 39.8318 203.76L41.3718 203.858C41.1758 204.549 40.7885 205.109 40.2098 205.538C39.6405 205.958 38.9451 206.168 38.1238 206.168ZM36.1358 201.59H39.9158C39.8691 200.927 39.6778 200.437 39.3418 200.12C39.0151 199.803 38.5951 199.644 38.0818 199.644C37.5498 199.644 37.1111 199.812 36.7658 200.148C36.4298 200.475 36.2198 200.955 36.1358 201.59ZM45.8575 206.168C45.1575 206.168 44.5648 206.061 44.0795 205.846C43.6035 205.631 43.2348 205.337 42.9735 204.964C42.7122 204.581 42.5628 204.143 42.5255 203.648L44.0515 203.578C44.1262 203.989 44.3035 204.315 44.5835 204.558C44.8635 204.801 45.2882 204.922 45.8575 204.922C46.3242 204.922 46.6928 204.847 46.9635 204.698C47.2342 204.549 47.3695 204.311 47.3695 203.984C47.3695 203.807 47.3228 203.657 47.2295 203.536C47.1455 203.405 46.9775 203.298 46.7255 203.214C46.4735 203.121 46.1002 203.032 45.6055 202.948C44.8682 202.808 44.2895 202.645 43.8695 202.458C43.4495 202.271 43.1508 202.033 42.9735 201.744C42.7962 201.455 42.7075 201.105 42.7075 200.694C42.7075 200.013 42.9595 199.457 43.4635 199.028C43.9768 198.599 44.7142 198.384 45.6755 198.384C46.3195 198.384 46.8608 198.496 47.2995 198.72C47.7382 198.935 48.0788 199.229 48.3215 199.602C48.5735 199.966 48.7322 200.377 48.7975 200.834L47.2715 200.918C47.2248 200.657 47.1315 200.433 46.9915 200.246C46.8608 200.05 46.6835 199.901 46.4595 199.798C46.2355 199.686 45.9695 199.63 45.6615 199.63C45.1855 199.63 44.8308 199.723 44.5975 199.91C44.3642 200.097 44.2475 200.339 44.2475 200.638C44.2475 200.862 44.2988 201.044 44.4015 201.184C44.5135 201.324 44.6908 201.441 44.9335 201.534C45.1762 201.618 45.4982 201.693 45.8995 201.758C46.6742 201.889 47.2808 202.052 47.7195 202.248C48.1582 202.435 48.4662 202.668 48.6435 202.948C48.8208 203.228 48.9095 203.569 48.9095 203.97C48.9095 204.437 48.7788 204.833 48.5175 205.16C48.2562 205.487 47.8968 205.739 47.4395 205.916C46.9822 206.084 46.4548 206.168 45.8575 206.168ZM52.9939 206C52.2846 206 51.7619 205.837 51.4259 205.51C51.0899 205.183 50.9219 204.675 50.9219 203.984V196.802H52.4059V203.872C52.4059 204.217 52.4806 204.455 52.6299 204.586C52.7792 204.717 53.0079 204.782 53.3159 204.782H54.3799V206H52.9939ZM49.7879 199.77V198.552H54.3799V199.77H49.7879Z" fill="#2E2E2E"/>
<path d="M285.374 10V0.0599995H289.336C290.045 0.0599995 290.657 0.181333 291.17 0.424C291.683 0.666666 292.08 1.012 292.36 1.46C292.64 1.908 292.78 2.44 292.78 3.056C292.78 3.504 292.677 3.90533 292.472 4.26C292.276 4.61467 292.01 4.89933 291.674 5.114C291.347 5.31933 290.997 5.436 290.624 5.464L290.554 5.338C291.179 5.338 291.665 5.48267 292.01 5.772C292.355 6.052 292.556 6.49533 292.612 7.102L292.878 10H291.352L291.114 7.298C291.086 6.89667 290.951 6.60267 290.708 6.416C290.465 6.22 290.069 6.122 289.518 6.122H286.886V10H285.374ZM286.886 4.736H289.364C289.933 4.736 290.381 4.596 290.708 4.316C291.044 4.02667 291.212 3.62067 291.212 3.098C291.212 2.566 291.044 2.16 290.708 1.88C290.372 1.59067 289.882 1.446 289.238 1.446H286.886V4.736ZM297.61 10.168C296.882 10.168 296.252 10.0093 295.72 9.692C295.197 9.37467 294.791 8.922 294.502 8.334C294.222 7.746 294.082 7.06 294.082 6.276C294.082 5.492 294.222 4.81067 294.502 4.232C294.791 3.644 295.197 3.19133 295.72 2.874C296.243 2.54733 296.859 2.384 297.568 2.384C298.24 2.384 298.833 2.54267 299.346 2.86C299.859 3.168 300.256 3.616 300.536 4.204C300.825 4.792 300.97 5.50133 300.97 6.332V6.71H295.622C295.659 7.438 295.851 7.984 296.196 8.348C296.551 8.712 297.027 8.894 297.624 8.894C298.063 8.894 298.427 8.79133 298.716 8.586C299.005 8.38067 299.206 8.10533 299.318 7.76L300.858 7.858C300.662 8.54867 300.275 9.10867 299.696 9.538C299.127 9.958 298.431 10.168 297.61 10.168ZM295.622 5.59H299.402C299.355 4.92733 299.164 4.43733 298.828 4.12C298.501 3.80267 298.081 3.644 297.568 3.644C297.036 3.644 296.597 3.812 296.252 4.148C295.916 4.47467 295.706 4.95533 295.622 5.59ZM308.886 12.1H307.402V8.404L307.57 8.572C307.476 8.89867 307.313 9.18333 307.08 9.426C306.856 9.65933 306.58 9.84133 306.254 9.972C305.927 10.1027 305.577 10.168 305.204 10.168C304.476 10.168 303.874 9.99067 303.398 9.636C302.931 9.272 302.581 8.796 302.348 8.208C302.124 7.62 302.012 6.976 302.012 6.276C302.012 5.576 302.124 4.932 302.348 4.344C302.581 3.756 302.931 3.28467 303.398 2.93C303.874 2.566 304.476 2.384 305.204 2.384C305.773 2.384 306.272 2.52867 306.702 2.818C307.131 3.098 307.434 3.51333 307.612 4.064L307.444 4.148L307.486 2.552H308.886V12.1ZM305.47 8.88C305.871 8.88 306.216 8.78667 306.506 8.6C306.795 8.404 307.014 8.11 307.164 7.718C307.322 7.326 307.402 6.84533 307.402 6.276C307.402 5.70667 307.322 5.226 307.164 4.834C307.005 4.442 306.781 4.15267 306.492 3.966C306.202 3.77 305.862 3.672 305.47 3.672C304.872 3.672 304.401 3.90067 304.056 4.358C303.72 4.81533 303.552 5.45467 303.552 6.276C303.552 7.09733 303.72 7.73667 304.056 8.194C304.401 8.65133 304.872 8.88 305.47 8.88ZM313.441 10.168C312.695 10.168 312.097 9.92067 311.649 9.426C311.211 8.922 310.991 8.22667 310.991 7.34V2.552H312.475V6.962C312.475 7.634 312.592 8.12867 312.825 8.446C313.059 8.76333 313.413 8.922 313.889 8.922C314.431 8.922 314.851 8.74933 315.149 8.404C315.457 8.04933 315.611 7.55467 315.611 6.92V2.552H317.095V10H315.709L315.681 8.054L315.891 8.138C315.761 8.79133 315.485 9.29533 315.065 9.65C314.645 9.99533 314.104 10.168 313.441 10.168ZM322.124 10.168C321.396 10.168 320.766 10.0093 320.234 9.692C319.711 9.37467 319.305 8.922 319.016 8.334C318.736 7.746 318.596 7.06 318.596 6.276C318.596 5.492 318.736 4.81067 319.016 4.232C319.305 3.644 319.711 3.19133 320.234 2.874C320.756 2.54733 321.372 2.384 322.082 2.384C322.754 2.384 323.346 2.54267 323.86 2.86C324.373 3.168 324.77 3.616 325.05 4.204C325.339 4.792 325.484 5.50133 325.484 6.332V6.71H320.136C320.173 7.438 320.364 7.984 320.71 8.348C321.064 8.712 321.54 8.894 322.138 8.894C322.576 8.894 322.94 8.79133 323.23 8.586C323.519 8.38067 323.72 8.10533 323.832 7.76L325.372 7.858C325.176 8.54867 324.788 9.10867 324.21 9.538C323.64 9.958 322.945 10.168 322.124 10.168ZM320.136 5.59H323.916C323.869 4.92733 323.678 4.43733 323.342 4.12C323.015 3.80267 322.595 3.644 322.082 3.644C321.55 3.644 321.111 3.812 320.766 4.148C320.43 4.47467 320.22 4.95533 320.136 5.59ZM329.858 10.168C329.158 10.168 328.565 10.0607 328.08 9.846C327.604 9.63133 327.235 9.33733 326.974 8.964C326.712 8.58133 326.563 8.14267 326.526 7.648L328.052 7.578C328.126 7.98867 328.304 8.31533 328.584 8.558C328.864 8.80067 329.288 8.922 329.858 8.922C330.324 8.922 330.693 8.84733 330.964 8.698C331.234 8.54867 331.37 8.31067 331.37 7.984C331.37 7.80667 331.323 7.65733 331.23 7.536C331.146 7.40533 330.978 7.298 330.726 7.214C330.474 7.12067 330.1 7.032 329.606 6.948C328.868 6.808 328.29 6.64467 327.87 6.458C327.45 6.27133 327.151 6.03333 326.974 5.744C326.796 5.45467 326.708 5.10467 326.708 4.694C326.708 4.01267 326.96 3.45733 327.464 3.028C327.977 2.59867 328.714 2.384 329.676 2.384C330.32 2.384 330.861 2.496 331.3 2.72C331.738 2.93467 332.079 3.22867 332.322 3.602C332.574 3.966 332.732 4.37667 332.798 4.834L331.272 4.918C331.225 4.65667 331.132 4.43267 330.992 4.246C330.861 4.05 330.684 3.90067 330.46 3.798C330.236 3.686 329.97 3.63 329.662 3.63C329.186 3.63 328.831 3.72333 328.598 3.91C328.364 4.09667 328.248 4.33933 328.248 4.638C328.248 4.862 328.299 5.044 328.402 5.184C328.514 5.324 328.691 5.44067 328.934 5.534C329.176 5.618 329.498 5.69267 329.9 5.758C330.674 5.88867 331.281 6.052 331.72 6.248C332.158 6.43467 332.466 6.668 332.644 6.948C332.821 7.228 332.91 7.56867 332.91 7.97C332.91 8.43667 332.779 8.83333 332.518 9.16C332.256 9.48667 331.897 9.73867 331.44 9.916C330.982 10.084 330.455 10.168 329.858 10.168ZM336.994 10C336.285 10 335.762 9.83667 335.426 9.51C335.09 9.18333 334.922 8.67467 334.922 7.984V0.802H336.406V7.872C336.406 8.21733 336.481 8.45533 336.63 8.586C336.779 8.71667 337.008 8.782 337.316 8.782H338.38V10H336.994ZM333.788 3.77V2.552H338.38V3.77H333.788Z" fill="#2E2E2E"/>
<path d="M285.374 409V399.06H289.336C290.045 399.06 290.657 399.181 291.17 399.424C291.683 399.667 292.08 400.012 292.36 400.46C292.64 400.908 292.78 401.44 292.78 402.056C292.78 402.504 292.677 402.905 292.472 403.26C292.276 403.615 292.01 403.899 291.674 404.114C291.347 404.319 290.997 404.436 290.624 404.464L290.554 404.338C291.179 404.338 291.665 404.483 292.01 404.772C292.355 405.052 292.556 405.495 292.612 406.102L292.878 409H291.352L291.114 406.298C291.086 405.897 290.951 405.603 290.708 405.416C290.465 405.22 290.069 405.122 289.518 405.122H286.886V409H285.374ZM286.886 403.736H289.364C289.933 403.736 290.381 403.596 290.708 403.316C291.044 403.027 291.212 402.621 291.212 402.098C291.212 401.566 291.044 401.16 290.708 400.88C290.372 400.591 289.882 400.446 289.238 400.446H286.886V403.736ZM297.61 409.168C296.882 409.168 296.252 409.009 295.72 408.692C295.197 408.375 294.791 407.922 294.502 407.334C294.222 406.746 294.082 406.06 294.082 405.276C294.082 404.492 294.222 403.811 294.502 403.232C294.791 402.644 295.197 402.191 295.72 401.874C296.243 401.547 296.859 401.384 297.568 401.384C298.24 401.384 298.833 401.543 299.346 401.86C299.859 402.168 300.256 402.616 300.536 403.204C300.825 403.792 300.97 404.501 300.97 405.332V405.71H295.622C295.659 406.438 295.851 406.984 296.196 407.348C296.551 407.712 297.027 407.894 297.624 407.894C298.063 407.894 298.427 407.791 298.716 407.586C299.005 407.381 299.206 407.105 299.318 406.76L300.858 406.858C300.662 407.549 300.275 408.109 299.696 408.538C299.127 408.958 298.431 409.168 297.61 409.168ZM295.622 404.59H299.402C299.355 403.927 299.164 403.437 298.828 403.12C298.501 402.803 298.081 402.644 297.568 402.644C297.036 402.644 296.597 402.812 296.252 403.148C295.916 403.475 295.706 403.955 295.622 404.59ZM308.886 411.1H307.402V407.404L307.57 407.572C307.476 407.899 307.313 408.183 307.08 408.426C306.856 408.659 306.58 408.841 306.254 408.972C305.927 409.103 305.577 409.168 305.204 409.168C304.476 409.168 303.874 408.991 303.398 408.636C302.931 408.272 302.581 407.796 302.348 407.208C302.124 406.62 302.012 405.976 302.012 405.276C302.012 404.576 302.124 403.932 302.348 403.344C302.581 402.756 302.931 402.285 303.398 401.93C303.874 401.566 304.476 401.384 305.204 401.384C305.773 401.384 306.272 401.529 306.702 401.818C307.131 402.098 307.434 402.513 307.612 403.064L307.444 403.148L307.486 401.552H308.886V411.1ZM305.47 407.88C305.871 407.88 306.216 407.787 306.506 407.6C306.795 407.404 307.014 407.11 307.164 406.718C307.322 406.326 307.402 405.845 307.402 405.276C307.402 404.707 307.322 404.226 307.164 403.834C307.005 403.442 306.781 403.153 306.492 402.966C306.202 402.77 305.862 402.672 305.47 402.672C304.872 402.672 304.401 402.901 304.056 403.358C303.72 403.815 303.552 404.455 303.552 405.276C303.552 406.097 303.72 406.737 304.056 407.194C304.401 407.651 304.872 407.88 305.47 407.88ZM313.441 409.168C312.695 409.168 312.097 408.921 311.649 408.426C311.211 407.922 310.991 407.227 310.991 406.34V401.552H312.475V405.962C312.475 406.634 312.592 407.129 312.825 407.446C313.059 407.763 313.413 407.922 313.889 407.922C314.431 407.922 314.851 407.749 315.149 407.404C315.457 407.049 315.611 406.555 315.611 405.92V401.552H317.095V409H315.709L315.681 407.054L315.891 407.138C315.761 407.791 315.485 408.295 315.065 408.65C314.645 408.995 314.104 409.168 313.441 409.168ZM322.124 409.168C321.396 409.168 320.766 409.009 320.234 408.692C319.711 408.375 319.305 407.922 319.016 407.334C318.736 406.746 318.596 406.06 318.596 405.276C318.596 404.492 318.736 403.811 319.016 403.232C319.305 402.644 319.711 402.191 320.234 401.874C320.756 401.547 321.372 401.384 322.082 401.384C322.754 401.384 323.346 401.543 323.86 401.86C324.373 402.168 324.77 402.616 325.05 403.204C325.339 403.792 325.484 404.501 325.484 405.332V405.71H320.136C320.173 406.438 320.364 406.984 320.71 407.348C321.064 407.712 321.54 407.894 322.138 407.894C322.576 407.894 322.94 407.791 323.23 407.586C323.519 407.381 323.72 407.105 323.832 406.76L325.372 406.858C325.176 407.549 324.788 408.109 324.21 408.538C323.64 408.958 322.945 409.168 322.124 409.168ZM320.136 404.59H323.916C323.869 403.927 323.678 403.437 323.342 403.12C323.015 402.803 322.595 402.644 322.082 402.644C321.55 402.644 321.111 402.812 320.766 403.148C320.43 403.475 320.22 403.955 320.136 404.59ZM329.858 409.168C329.158 409.168 328.565 409.061 328.08 408.846C327.604 408.631 327.235 408.337 326.974 407.964C326.712 407.581 326.563 407.143 326.526 406.648L328.052 406.578C328.126 406.989 328.304 407.315 328.584 407.558C328.864 407.801 329.288 407.922 329.858 407.922C330.324 407.922 330.693 407.847 330.964 407.698C331.234 407.549 331.37 407.311 331.37 406.984C331.37 406.807 331.323 406.657 331.23 406.536C331.146 406.405 330.978 406.298 330.726 406.214C330.474 406.121 330.1 406.032 329.606 405.948C328.868 405.808 328.29 405.645 327.87 405.458C327.45 405.271 327.151 405.033 326.974 404.744C326.796 404.455 326.708 404.105 326.708 403.694C326.708 403.013 326.96 402.457 327.464 402.028C327.977 401.599 328.714 401.384 329.676 401.384C330.32 401.384 330.861 401.496 331.3 401.72C331.738 401.935 332.079 402.229 332.322 402.602C332.574 402.966 332.732 403.377 332.798 403.834L331.272 403.918C331.225 403.657 331.132 403.433 330.992 403.246C330.861 403.05 330.684 402.901 330.46 402.798C330.236 402.686 329.97 402.63 329.662 402.63C329.186 402.63 328.831 402.723 328.598 402.91C328.364 403.097 328.248 403.339 328.248 403.638C328.248 403.862 328.299 404.044 328.402 404.184C328.514 404.324 328.691 404.441 328.934 404.534C329.176 404.618 329.498 404.693 329.9 404.758C330.674 404.889 331.281 405.052 331.72 405.248C332.158 405.435 332.466 405.668 332.644 405.948C332.821 406.228 332.91 406.569 332.91 406.97C332.91 407.437 332.779 407.833 332.518 408.16C332.256 408.487 331.897 408.739 331.44 408.916C330.982 409.084 330.455 409.168 329.858 409.168ZM336.994 409C336.285 409 335.762 408.837 335.426 408.51C335.09 408.183 334.922 407.675 334.922 406.984V399.802H336.406V406.872C336.406 407.217 336.481 407.455 336.63 407.586C336.779 407.717 337.008 407.782 337.316 407.782H338.38V409H336.994ZM333.788 402.77V401.552H338.38V402.77H333.788Z" fill="#2E2E2E"/>
<g filter="url(#filter0_d_18_10492)">
<rect x="247" y="79" width="128" height="72" rx="18" fill="#F9F9F9"/>
<rect x="247" y="79" width="128" height="72" rx="18" stroke="#E0E0E0" stroke-miterlimit="10"/>
</g>
<path d="M276.769 120.224C276.013 120.224 275.359 120.079 274.809 119.79C274.258 119.491 273.833 119.067 273.535 118.516C273.245 117.956 273.101 117.293 273.101 116.528V110.046H274.053V116.528C274.053 117.415 274.286 118.096 274.753 118.572C275.229 119.048 275.901 119.286 276.769 119.286C277.637 119.286 278.304 119.048 278.771 118.572C279.247 118.096 279.485 117.415 279.485 116.528V110.046H280.437V116.528C280.437 117.293 280.287 117.956 279.989 118.516C279.699 119.067 279.279 119.491 278.729 119.79C278.187 120.079 277.534 120.224 276.769 120.224ZM285.304 120.168C284.66 120.168 284.11 120.065 283.652 119.86C283.204 119.645 282.854 119.351 282.602 118.978C282.35 118.605 282.206 118.185 282.168 117.718L283.134 117.648C283.19 118.143 283.396 118.539 283.75 118.838C284.114 119.137 284.632 119.286 285.304 119.286C285.892 119.286 286.35 119.188 286.676 118.992C287.003 118.796 287.166 118.493 287.166 118.082C287.166 117.858 287.115 117.671 287.012 117.522C286.919 117.363 286.723 117.228 286.424 117.116C286.126 116.995 285.678 116.883 285.08 116.78C284.38 116.649 283.834 116.495 283.442 116.318C283.05 116.131 282.775 115.903 282.616 115.632C282.458 115.352 282.378 115.021 282.378 114.638C282.378 113.975 282.616 113.439 283.092 113.028C283.568 112.617 284.231 112.412 285.08 112.412C285.659 112.412 286.149 112.519 286.55 112.734C286.961 112.949 287.283 113.233 287.516 113.588C287.75 113.933 287.904 114.316 287.978 114.736L287.012 114.82C286.956 114.531 286.849 114.274 286.69 114.05C286.532 113.817 286.317 113.635 286.046 113.504C285.776 113.364 285.449 113.294 285.066 113.294C284.506 113.294 284.077 113.415 283.778 113.658C283.489 113.891 283.344 114.204 283.344 114.596C283.344 114.867 283.405 115.091 283.526 115.268C283.648 115.436 283.848 115.576 284.128 115.688C284.408 115.791 284.796 115.884 285.29 115.968C286.028 116.089 286.602 116.243 287.012 116.43C287.432 116.607 287.726 116.831 287.894 117.102C288.062 117.363 288.146 117.685 288.146 118.068C288.146 118.516 288.025 118.899 287.782 119.216C287.54 119.524 287.204 119.762 286.774 119.93C286.354 120.089 285.864 120.168 285.304 120.168ZM292.637 120.168C291.928 120.168 291.326 120.005 290.831 119.678C290.337 119.342 289.954 118.885 289.683 118.306C289.422 117.718 289.291 117.046 289.291 116.29C289.291 115.534 289.422 114.867 289.683 114.288C289.945 113.7 290.318 113.243 290.803 112.916C291.298 112.58 291.891 112.412 292.581 112.412C293.244 112.412 293.818 112.571 294.303 112.888C294.789 113.205 295.157 113.653 295.409 114.232C295.671 114.811 295.801 115.487 295.801 116.262V116.556H290.257C290.295 117.433 290.523 118.11 290.943 118.586C291.363 119.053 291.928 119.286 292.637 119.286C293.179 119.286 293.622 119.155 293.967 118.894C294.313 118.633 294.551 118.287 294.681 117.858L295.675 117.928C295.489 118.581 295.129 119.118 294.597 119.538C294.065 119.958 293.412 120.168 292.637 120.168ZM290.257 115.73H294.793C294.747 114.937 294.527 114.335 294.135 113.924C293.743 113.504 293.225 113.294 292.581 113.294C291.937 113.294 291.41 113.504 290.999 113.924C290.589 114.344 290.341 114.946 290.257 115.73ZM297.452 120V112.58H298.25L298.306 114.61L298.18 114.54C298.301 113.877 298.52 113.387 298.838 113.07C299.155 112.743 299.594 112.58 300.154 112.58H300.798V113.476H300.126C299.752 113.476 299.435 113.56 299.174 113.728C298.912 113.887 298.712 114.115 298.572 114.414C298.441 114.713 298.376 115.067 298.376 115.478V120H297.452ZM305.238 120L308.864 110.06H310.124L313.736 120H312.7L311.636 117.018H307.338L306.274 120H305.238ZM307.66 116.094H311.314L309.494 110.914L307.66 116.094ZM317.709 122.268C317.187 122.268 316.711 122.175 316.281 121.988C315.861 121.811 315.516 121.559 315.245 121.232C314.975 120.905 314.802 120.527 314.727 120.098L315.693 120.042C315.777 120.443 315.983 120.765 316.309 121.008C316.636 121.26 317.103 121.386 317.709 121.386C318.428 121.386 318.979 121.218 319.361 120.882C319.753 120.546 319.949 120.056 319.949 119.412V118.138C319.763 118.586 319.464 118.945 319.053 119.216C318.643 119.487 318.171 119.622 317.639 119.622C317.014 119.622 316.459 119.473 315.973 119.174C315.497 118.866 315.124 118.441 314.853 117.9C314.592 117.359 314.461 116.729 314.461 116.01C314.461 115.291 314.592 114.666 314.853 114.134C315.124 113.593 315.493 113.173 315.959 112.874C316.435 112.566 316.981 112.412 317.597 112.412C318.167 112.412 318.661 112.557 319.081 112.846C319.511 113.126 319.814 113.499 319.991 113.966V112.58H320.873V119.412C320.873 120 320.747 120.509 320.495 120.938C320.243 121.367 319.879 121.694 319.403 121.918C318.937 122.151 318.372 122.268 317.709 122.268ZM317.681 118.74C318.363 118.74 318.909 118.497 319.319 118.012C319.739 117.517 319.949 116.85 319.949 116.01C319.959 115.469 319.87 114.997 319.683 114.596C319.497 114.185 319.231 113.868 318.885 113.644C318.54 113.411 318.139 113.294 317.681 113.294C316.981 113.294 316.431 113.541 316.029 114.036C315.628 114.521 315.427 115.179 315.427 116.01C315.427 116.85 315.628 117.517 316.029 118.012C316.44 118.497 316.991 118.74 317.681 118.74ZM325.874 120.168C325.164 120.168 324.562 120.005 324.068 119.678C323.573 119.342 323.19 118.885 322.92 118.306C322.658 117.718 322.528 117.046 322.528 116.29C322.528 115.534 322.658 114.867 322.92 114.288C323.181 113.7 323.554 113.243 324.04 112.916C324.534 112.58 325.127 112.412 325.818 112.412C326.48 112.412 327.054 112.571 327.54 112.888C328.025 113.205 328.394 113.653 328.646 114.232C328.907 114.811 329.038 115.487 329.038 116.262V116.556H323.494C323.531 117.433 323.76 118.11 324.18 118.586C324.6 119.053 325.164 119.286 325.874 119.286C326.415 119.286 326.858 119.155 327.204 118.894C327.549 118.633 327.787 118.287 327.918 117.858L328.912 117.928C328.725 118.581 328.366 119.118 327.834 119.538C327.302 119.958 326.648 120.168 325.874 120.168ZM323.494 115.73H328.03C327.983 114.937 327.764 114.335 327.372 113.924C326.98 113.504 326.462 113.294 325.818 113.294C325.174 113.294 324.646 113.504 324.236 113.924C323.825 114.344 323.578 114.946 323.494 115.73ZM330.688 120V112.58H331.528L331.57 114.526L331.458 114.442C331.533 113.985 331.687 113.607 331.92 113.308C332.163 113.009 332.457 112.785 332.802 112.636C333.147 112.487 333.521 112.412 333.922 112.412C334.491 112.412 334.958 112.538 335.322 112.79C335.695 113.042 335.971 113.383 336.148 113.812C336.325 114.232 336.414 114.703 336.414 115.226V120H335.49V115.562C335.49 115.077 335.429 114.661 335.308 114.316C335.196 113.971 335.009 113.705 334.748 113.518C334.487 113.331 334.146 113.238 333.726 113.238C333.091 113.238 332.578 113.443 332.186 113.854C331.803 114.265 331.612 114.834 331.612 115.562V120H330.688ZM340.702 120C340.095 120 339.647 119.86 339.358 119.58C339.069 119.291 338.924 118.852 338.924 118.264V110.844H339.848V118.236C339.848 118.581 339.923 118.824 340.072 118.964C340.231 119.104 340.469 119.174 340.786 119.174H341.766V120H340.702ZM337.762 113.406V112.58H341.766V113.406H337.762ZM348.457 120V112.454H346.371V111.642H347.155C347.528 111.642 347.822 111.595 348.037 111.502C348.261 111.409 348.419 111.25 348.513 111.026C348.606 110.793 348.653 110.471 348.653 110.06H349.409V120H348.457Z" fill="#2E2E2E"/>
<g filter="url(#filter1_d_18_10492)">
<rect x="130" y="166" width="128" height="72" rx="18" fill="#F9F9F9"/>
<rect x="130" y="166" width="128" height="72" rx="18" stroke="#E0E0E0" stroke-miterlimit="10"/>
</g>
<path d="M158.108 207.224C157.352 207.224 156.698 207.079 156.148 206.79C155.597 206.491 155.172 206.067 154.874 205.516C154.584 204.956 154.44 204.293 154.44 203.528V197.046H155.392V203.528C155.392 204.415 155.625 205.096 156.092 205.572C156.568 206.048 157.24 206.286 158.108 206.286C158.976 206.286 159.643 206.048 160.11 205.572C160.586 205.096 160.824 204.415 160.824 203.528V197.046H161.776V203.528C161.776 204.293 161.626 204.956 161.328 205.516C161.038 206.067 160.618 206.491 160.068 206.79C159.526 207.079 158.873 207.224 158.108 207.224ZM166.643 207.168C165.999 207.168 165.449 207.065 164.991 206.86C164.543 206.645 164.193 206.351 163.941 205.978C163.689 205.605 163.545 205.185 163.507 204.718L164.473 204.648C164.529 205.143 164.735 205.539 165.089 205.838C165.453 206.137 165.971 206.286 166.643 206.286C167.231 206.286 167.689 206.188 168.015 205.992C168.342 205.796 168.505 205.493 168.505 205.082C168.505 204.858 168.454 204.671 168.351 204.522C168.258 204.363 168.062 204.228 167.763 204.116C167.465 203.995 167.017 203.883 166.419 203.78C165.719 203.649 165.173 203.495 164.781 203.318C164.389 203.131 164.114 202.903 163.955 202.632C163.797 202.352 163.717 202.021 163.717 201.638C163.717 200.975 163.955 200.439 164.431 200.028C164.907 199.617 165.57 199.412 166.419 199.412C166.998 199.412 167.488 199.519 167.889 199.734C168.3 199.949 168.622 200.233 168.855 200.588C169.089 200.933 169.243 201.316 169.317 201.736L168.351 201.82C168.295 201.531 168.188 201.274 168.029 201.05C167.871 200.817 167.656 200.635 167.385 200.504C167.115 200.364 166.788 200.294 166.405 200.294C165.845 200.294 165.416 200.415 165.117 200.658C164.828 200.891 164.683 201.204 164.683 201.596C164.683 201.867 164.744 202.091 164.865 202.268C164.987 202.436 165.187 202.576 165.467 202.688C165.747 202.791 166.135 202.884 166.629 202.968C167.367 203.089 167.941 203.243 168.351 203.43C168.771 203.607 169.065 203.831 169.233 204.102C169.401 204.363 169.485 204.685 169.485 205.068C169.485 205.516 169.364 205.899 169.121 206.216C168.879 206.524 168.543 206.762 168.113 206.93C167.693 207.089 167.203 207.168 166.643 207.168ZM173.976 207.168C173.267 207.168 172.665 207.005 172.17 206.678C171.676 206.342 171.293 205.885 171.022 205.306C170.761 204.718 170.63 204.046 170.63 203.29C170.63 202.534 170.761 201.867 171.022 201.288C171.284 200.7 171.657 200.243 172.142 199.916C172.637 199.58 173.23 199.412 173.92 199.412C174.583 199.412 175.157 199.571 175.642 199.888C176.128 200.205 176.496 200.653 176.748 201.232C177.01 201.811 177.14 202.487 177.14 203.262V203.556H171.596C171.634 204.433 171.862 205.11 172.282 205.586C172.702 206.053 173.267 206.286 173.976 206.286C174.518 206.286 174.961 206.155 175.306 205.894C175.652 205.633 175.89 205.287 176.02 204.858L177.014 204.928C176.828 205.581 176.468 206.118 175.936 206.538C175.404 206.958 174.751 207.168 173.976 207.168ZM171.596 202.73H176.132C176.086 201.937 175.866 201.335 175.474 200.924C175.082 200.504 174.564 200.294 173.92 200.294C173.276 200.294 172.749 200.504 172.338 200.924C171.928 201.344 171.68 201.946 171.596 202.73ZM178.791 207V199.58H179.589L179.645 201.61L179.519 201.54C179.64 200.877 179.859 200.387 180.177 200.07C180.494 199.743 180.933 199.58 181.493 199.58H182.137V200.476H181.465C181.091 200.476 180.774 200.56 180.513 200.728C180.251 200.887 180.051 201.115 179.911 201.414C179.78 201.713 179.715 202.067 179.715 202.478V207H178.791ZM186.577 207L190.203 197.06H191.463L195.075 207H194.039L192.975 204.018H188.677L187.613 207H186.577ZM188.999 203.094H192.653L190.833 197.914L188.999 203.094ZM199.048 209.268C198.526 209.268 198.05 209.175 197.62 208.988C197.2 208.811 196.855 208.559 196.584 208.232C196.314 207.905 196.141 207.527 196.066 207.098L197.032 207.042C197.116 207.443 197.322 207.765 197.648 208.008C197.975 208.26 198.442 208.386 199.048 208.386C199.767 208.386 200.318 208.218 200.7 207.882C201.092 207.546 201.288 207.056 201.288 206.412V205.138C201.102 205.586 200.803 205.945 200.392 206.216C199.982 206.487 199.51 206.622 198.978 206.622C198.353 206.622 197.798 206.473 197.312 206.174C196.836 205.866 196.463 205.441 196.192 204.9C195.931 204.359 195.8 203.729 195.8 203.01C195.8 202.291 195.931 201.666 196.192 201.134C196.463 200.593 196.832 200.173 197.298 199.874C197.774 199.566 198.32 199.412 198.936 199.412C199.506 199.412 200 199.557 200.42 199.846C200.85 200.126 201.153 200.499 201.33 200.966V199.58H202.212V206.412C202.212 207 202.086 207.509 201.834 207.938C201.582 208.367 201.218 208.694 200.742 208.918C200.276 209.151 199.711 209.268 199.048 209.268ZM199.02 205.74C199.702 205.74 200.248 205.497 200.658 205.012C201.078 204.517 201.288 203.85 201.288 203.01C201.298 202.469 201.209 201.997 201.022 201.596C200.836 201.185 200.57 200.868 200.224 200.644C199.879 200.411 199.478 200.294 199.02 200.294C198.32 200.294 197.77 200.541 197.368 201.036C196.967 201.521 196.766 202.179 196.766 203.01C196.766 203.85 196.967 204.517 197.368 205.012C197.779 205.497 198.33 205.74 199.02 205.74ZM207.213 207.168C206.503 207.168 205.901 207.005 205.407 206.678C204.912 206.342 204.529 205.885 204.259 205.306C203.997 204.718 203.867 204.046 203.867 203.29C203.867 202.534 203.997 201.867 204.259 201.288C204.52 200.7 204.893 200.243 205.379 199.916C205.873 199.58 206.466 199.412 207.157 199.412C207.819 199.412 208.393 199.571 208.879 199.888C209.364 200.205 209.733 200.653 209.985 201.232C210.246 201.811 210.377 202.487 210.377 203.262V203.556H204.833C204.87 204.433 205.099 205.11 205.519 205.586C205.939 206.053 206.503 206.286 207.213 206.286C207.754 206.286 208.197 206.155 208.543 205.894C208.888 205.633 209.126 205.287 209.257 204.858L210.251 204.928C210.064 205.581 209.705 206.118 209.173 206.538C208.641 206.958 207.987 207.168 207.213 207.168ZM204.833 202.73H209.369C209.322 201.937 209.103 201.335 208.711 200.924C208.319 200.504 207.801 200.294 207.157 200.294C206.513 200.294 205.985 200.504 205.575 200.924C205.164 201.344 204.917 201.946 204.833 202.73ZM212.027 207V199.58H212.867L212.909 201.526L212.797 201.442C212.872 200.985 213.026 200.607 213.259 200.308C213.502 200.009 213.796 199.785 214.141 199.636C214.486 199.487 214.86 199.412 215.261 199.412C215.83 199.412 216.297 199.538 216.661 199.79C217.034 200.042 217.31 200.383 217.487 200.812C217.664 201.232 217.753 201.703 217.753 202.226V207H216.829V202.562C216.829 202.077 216.768 201.661 216.647 201.316C216.535 200.971 216.348 200.705 216.087 200.518C215.826 200.331 215.485 200.238 215.065 200.238C214.43 200.238 213.917 200.443 213.525 200.854C213.142 201.265 212.951 201.834 212.951 202.562V207H212.027ZM222.041 207C221.434 207 220.986 206.86 220.697 206.58C220.407 206.291 220.263 205.852 220.263 205.264V197.844H221.187V205.236C221.187 205.581 221.261 205.824 221.411 205.964C221.569 206.104 221.807 206.174 222.125 206.174H223.105V207H222.041ZM219.101 200.406V199.58H223.105V200.406H219.101ZM232.707 207V204.746H227.569V203.892L232.651 197.06H233.659V203.822H234.905V204.746H233.659V207H232.707ZM228.745 203.822H232.707V198.544L228.745 203.822Z" fill="#2E2E2E"/>
<g filter="url(#filter2_d_18_10492)">
<rect x="363" y="166" width="128" height="72" rx="18" fill="#F9F9F9"/>
<rect x="363" y="166" width="128" height="72" rx="18" stroke="#E0E0E0" stroke-miterlimit="10"/>
</g>
<path d="M391.053 207.224C390.297 207.224 389.644 207.079 389.093 206.79C388.542 206.491 388.118 206.067 387.819 205.516C387.53 204.956 387.385 204.293 387.385 203.528V197.046H388.337V203.528C388.337 204.415 388.57 205.096 389.037 205.572C389.513 206.048 390.185 206.286 391.053 206.286C391.921 206.286 392.588 206.048 393.055 205.572C393.531 205.096 393.769 204.415 393.769 203.528V197.046H394.721V203.528C394.721 204.293 394.572 204.956 394.273 205.516C393.984 206.067 393.564 206.491 393.013 206.79C392.472 207.079 391.818 207.224 391.053 207.224ZM399.589 207.168C398.945 207.168 398.394 207.065 397.937 206.86C397.489 206.645 397.139 206.351 396.887 205.978C396.635 205.605 396.49 205.185 396.453 204.718L397.419 204.648C397.475 205.143 397.68 205.539 398.035 205.838C398.399 206.137 398.917 206.286 399.589 206.286C400.177 206.286 400.634 206.188 400.961 205.992C401.287 205.796 401.451 205.493 401.451 205.082C401.451 204.858 401.399 204.671 401.297 204.522C401.203 204.363 401.007 204.228 400.709 204.116C400.41 203.995 399.962 203.883 399.365 203.78C398.665 203.649 398.119 203.495 397.727 203.318C397.335 203.131 397.059 202.903 396.901 202.632C396.742 202.352 396.663 202.021 396.663 201.638C396.663 200.975 396.901 200.439 397.377 200.028C397.853 199.617 398.515 199.412 399.365 199.412C399.943 199.412 400.433 199.519 400.835 199.734C401.245 199.949 401.567 200.233 401.801 200.588C402.034 200.933 402.188 201.316 402.263 201.736L401.297 201.82C401.241 201.531 401.133 201.274 400.975 201.05C400.816 200.817 400.601 200.635 400.331 200.504C400.06 200.364 399.733 200.294 399.351 200.294C398.791 200.294 398.361 200.415 398.063 200.658C397.773 200.891 397.629 201.204 397.629 201.596C397.629 201.867 397.689 202.091 397.811 202.268C397.932 202.436 398.133 202.576 398.413 202.688C398.693 202.791 399.08 202.884 399.575 202.968C400.312 203.089 400.886 203.243 401.297 203.43C401.717 203.607 402.011 203.831 402.179 204.102C402.347 204.363 402.431 204.685 402.431 205.068C402.431 205.516 402.309 205.899 402.067 206.216C401.824 206.524 401.488 206.762 401.059 206.93C400.639 207.089 400.149 207.168 399.589 207.168ZM406.922 207.168C406.212 207.168 405.61 207.005 405.116 206.678C404.621 206.342 404.238 205.885 403.968 205.306C403.706 204.718 403.576 204.046 403.576 203.29C403.576 202.534 403.706 201.867 403.968 201.288C404.229 200.7 404.602 200.243 405.088 199.916C405.582 199.58 406.175 199.412 406.866 199.412C407.528 199.412 408.102 199.571 408.588 199.888C409.073 200.205 409.442 200.653 409.694 201.232C409.955 201.811 410.086 202.487 410.086 203.262V203.556H404.542C404.579 204.433 404.808 205.11 405.228 205.586C405.648 206.053 406.212 206.286 406.922 206.286C407.463 206.286 407.906 206.155 408.252 205.894C408.597 205.633 408.835 205.287 408.966 204.858L409.96 204.928C409.773 205.581 409.414 206.118 408.882 206.538C408.35 206.958 407.696 207.168 406.922 207.168ZM404.542 202.73H409.078C409.031 201.937 408.812 201.335 408.42 200.924C408.028 200.504 407.51 200.294 406.866 200.294C406.222 200.294 405.694 200.504 405.284 200.924C404.873 201.344 404.626 201.946 404.542 202.73ZM411.736 207V199.58H412.534L412.59 201.61L412.464 201.54C412.585 200.877 412.805 200.387 413.122 200.07C413.439 199.743 413.878 199.58 414.438 199.58H415.082V200.476H414.41C414.037 200.476 413.719 200.56 413.458 200.728C413.197 200.887 412.996 201.115 412.856 201.414C412.725 201.713 412.66 202.067 412.66 202.478V207H411.736ZM419.523 207L423.149 197.06H424.409L428.021 207H426.985L425.921 204.018H421.623L420.559 207H419.523ZM421.945 203.094H425.599L423.779 197.914L421.945 203.094ZM431.994 209.268C431.471 209.268 430.995 209.175 430.566 208.988C430.146 208.811 429.8 208.559 429.53 208.232C429.259 207.905 429.086 207.527 429.012 207.098L429.978 207.042C430.062 207.443 430.267 207.765 430.594 208.008C430.92 208.26 431.387 208.386 431.994 208.386C432.712 208.386 433.263 208.218 433.646 207.882C434.038 207.546 434.234 207.056 434.234 206.412V205.138C434.047 205.586 433.748 205.945 433.338 206.216C432.927 206.487 432.456 206.622 431.924 206.622C431.298 206.622 430.743 206.473 430.258 206.174C429.782 205.866 429.408 205.441 429.138 204.9C428.876 204.359 428.746 203.729 428.746 203.01C428.746 202.291 428.876 201.666 429.138 201.134C429.408 200.593 429.777 200.173 430.244 199.874C430.72 199.566 431.266 199.412 431.882 199.412C432.451 199.412 432.946 199.557 433.366 199.846C433.795 200.126 434.098 200.499 434.276 200.966V199.58H435.158V206.412C435.158 207 435.032 207.509 434.78 207.938C434.528 208.367 434.164 208.694 433.688 208.918C433.221 209.151 432.656 209.268 431.994 209.268ZM431.966 205.74C432.647 205.74 433.193 205.497 433.604 205.012C434.024 204.517 434.234 203.85 434.234 203.01C434.243 202.469 434.154 201.997 433.968 201.596C433.781 201.185 433.515 200.868 433.17 200.644C432.824 200.411 432.423 200.294 431.966 200.294C431.266 200.294 430.715 200.541 430.314 201.036C429.912 201.521 429.712 202.179 429.712 203.01C429.712 203.85 429.912 204.517 430.314 205.012C430.724 205.497 431.275 205.74 431.966 205.74ZM440.158 207.168C439.449 207.168 438.847 207.005 438.352 206.678C437.857 206.342 437.475 205.885 437.204 205.306C436.943 204.718 436.812 204.046 436.812 203.29C436.812 202.534 436.943 201.867 437.204 201.288C437.465 200.7 437.839 200.243 438.324 199.916C438.819 199.58 439.411 199.412 440.102 199.412C440.765 199.412 441.339 199.571 441.824 199.888C442.309 200.205 442.678 200.653 442.93 201.232C443.191 201.811 443.322 202.487 443.322 203.262V203.556H437.778C437.815 204.433 438.044 205.11 438.464 205.586C438.884 206.053 439.449 206.286 440.158 206.286C440.699 206.286 441.143 206.155 441.488 205.894C441.833 205.633 442.071 205.287 442.202 204.858L443.196 204.928C443.009 205.581 442.65 206.118 442.118 206.538C441.586 206.958 440.933 207.168 440.158 207.168ZM437.778 202.73H442.314C442.267 201.937 442.048 201.335 441.656 200.924C441.264 200.504 440.746 200.294 440.102 200.294C439.458 200.294 438.931 200.504 438.52 200.924C438.109 201.344 437.862 201.946 437.778 202.73ZM444.972 207V199.58H445.812L445.854 201.526L445.742 201.442C445.817 200.985 445.971 200.607 446.204 200.308C446.447 200.009 446.741 199.785 447.086 199.636C447.432 199.487 447.805 199.412 448.206 199.412C448.776 199.412 449.242 199.538 449.606 199.79C449.98 200.042 450.255 200.383 450.432 200.812C450.61 201.232 450.698 201.703 450.698 202.226V207H449.774V202.562C449.774 202.077 449.714 201.661 449.592 201.316C449.48 200.971 449.294 200.705 449.032 200.518C448.771 200.331 448.43 200.238 448.01 200.238C447.376 200.238 446.862 200.443 446.47 200.854C446.088 201.265 445.896 201.834 445.896 202.562V207H444.972ZM454.986 207C454.379 207 453.931 206.86 453.642 206.58C453.353 206.291 453.208 205.852 453.208 205.264V197.844H454.132V205.236C454.132 205.581 454.207 205.824 454.356 205.964C454.515 206.104 454.753 206.174 455.07 206.174H456.05V207H454.986ZM452.046 200.406V199.58H456.05V200.406H452.046ZM460.935 207C460.935 206.328 461.047 205.721 461.271 205.18C461.504 204.629 461.891 204.111 462.433 203.626C462.983 203.131 463.73 202.641 464.673 202.156C465.177 201.895 465.587 201.652 465.905 201.428C466.222 201.195 466.455 200.947 466.605 200.686C466.754 200.425 466.829 200.107 466.829 199.734C466.829 199.351 466.745 199.015 466.577 198.726C466.409 198.427 466.161 198.194 465.835 198.026C465.508 197.858 465.102 197.774 464.617 197.774C463.87 197.774 463.273 197.975 462.825 198.376C462.377 198.777 462.097 199.356 461.985 200.112L460.991 200.042C461.103 199.062 461.476 198.283 462.111 197.704C462.745 197.125 463.581 196.836 464.617 196.836C465.289 196.836 465.863 196.962 466.339 197.214C466.824 197.457 467.193 197.793 467.445 198.222C467.697 198.651 467.823 199.146 467.823 199.706C467.823 200.219 467.729 200.663 467.543 201.036C467.365 201.4 467.071 201.741 466.661 202.058C466.259 202.366 465.723 202.693 465.051 203.038C464.099 203.533 463.375 204.046 462.881 204.578C462.395 205.11 462.134 205.609 462.097 206.076H467.823V207H460.935Z" fill="#2E2E2E"/>
<g filter="url(#filter3_d_18_10492)">
<rect x="247" y="259" width="128" height="72" rx="18" fill="#F9F9F9"/>
<rect x="247" y="259" width="128" height="72" rx="18" stroke="#E0E0E0" stroke-miterlimit="10"/>
</g>
<path d="M275.094 300.224C274.338 300.224 273.685 300.079 273.134 299.79C272.583 299.491 272.159 299.067 271.86 298.516C271.571 297.956 271.426 297.293 271.426 296.528V290.046H272.378V296.528C272.378 297.415 272.611 298.096 273.078 298.572C273.554 299.048 274.226 299.286 275.094 299.286C275.962 299.286 276.629 299.048 277.096 298.572C277.572 298.096 277.81 297.415 277.81 296.528V290.046H278.762V296.528C278.762 297.293 278.613 297.956 278.314 298.516C278.025 299.067 277.605 299.491 277.054 299.79C276.513 300.079 275.859 300.224 275.094 300.224ZM283.63 300.168C282.986 300.168 282.435 300.065 281.978 299.86C281.53 299.645 281.18 299.351 280.928 298.978C280.676 298.605 280.531 298.185 280.494 297.718L281.46 297.648C281.516 298.143 281.721 298.539 282.076 298.838C282.44 299.137 282.958 299.286 283.63 299.286C284.218 299.286 284.675 299.188 285.002 298.992C285.328 298.796 285.492 298.493 285.492 298.082C285.492 297.858 285.44 297.671 285.338 297.522C285.244 297.363 285.048 297.228 284.75 297.116C284.451 296.995 284.003 296.883 283.406 296.78C282.706 296.649 282.16 296.495 281.768 296.318C281.376 296.131 281.1 295.903 280.942 295.632C280.783 295.352 280.704 295.021 280.704 294.638C280.704 293.975 280.942 293.439 281.418 293.028C281.894 292.617 282.556 292.412 283.406 292.412C283.984 292.412 284.474 292.519 284.876 292.734C285.286 292.949 285.608 293.233 285.842 293.588C286.075 293.933 286.229 294.316 286.304 294.736L285.338 294.82C285.282 294.531 285.174 294.274 285.016 294.05C284.857 293.817 284.642 293.635 284.372 293.504C284.101 293.364 283.774 293.294 283.392 293.294C282.832 293.294 282.402 293.415 282.104 293.658C281.814 293.891 281.67 294.204 281.67 294.596C281.67 294.867 281.73 295.091 281.852 295.268C281.973 295.436 282.174 295.576 282.454 295.688C282.734 295.791 283.121 295.884 283.616 295.968C284.353 296.089 284.927 296.243 285.338 296.43C285.758 296.607 286.052 296.831 286.22 297.102C286.388 297.363 286.472 297.685 286.472 298.068C286.472 298.516 286.35 298.899 286.108 299.216C285.865 299.524 285.529 299.762 285.1 299.93C284.68 300.089 284.19 300.168 283.63 300.168ZM290.963 300.168C290.253 300.168 289.651 300.005 289.157 299.678C288.662 299.342 288.279 298.885 288.009 298.306C287.747 297.718 287.617 297.046 287.617 296.29C287.617 295.534 287.747 294.867 288.009 294.288C288.27 293.7 288.643 293.243 289.129 292.916C289.623 292.58 290.216 292.412 290.907 292.412C291.569 292.412 292.143 292.571 292.629 292.888C293.114 293.205 293.483 293.653 293.735 294.232C293.996 294.811 294.127 295.487 294.127 296.262V296.556H288.583C288.62 297.433 288.849 298.11 289.269 298.586C289.689 299.053 290.253 299.286 290.963 299.286C291.504 299.286 291.947 299.155 292.293 298.894C292.638 298.633 292.876 298.287 293.007 297.858L294.001 297.928C293.814 298.581 293.455 299.118 292.923 299.538C292.391 299.958 291.737 300.168 290.963 300.168ZM288.583 295.73H293.119C293.072 294.937 292.853 294.335 292.461 293.924C292.069 293.504 291.551 293.294 290.907 293.294C290.263 293.294 289.735 293.504 289.325 293.924C288.914 294.344 288.667 294.946 288.583 295.73ZM295.777 300V292.58H296.575L296.631 294.61L296.505 294.54C296.626 293.877 296.846 293.387 297.163 293.07C297.48 292.743 297.919 292.58 298.479 292.58H299.123V293.476H298.451C298.078 293.476 297.76 293.56 297.499 293.728C297.238 293.887 297.037 294.115 296.897 294.414C296.766 294.713 296.701 295.067 296.701 295.478V300H295.777ZM303.564 300L307.19 290.06H308.45L312.062 300H311.026L309.962 297.018H305.664L304.6 300H303.564ZM305.986 296.094H309.64L307.82 290.914L305.986 296.094ZM316.035 302.268C315.512 302.268 315.036 302.175 314.607 301.988C314.187 301.811 313.841 301.559 313.571 301.232C313.3 300.905 313.127 300.527 313.053 300.098L314.019 300.042C314.103 300.443 314.308 300.765 314.635 301.008C314.961 301.26 315.428 301.386 316.035 301.386C316.753 301.386 317.304 301.218 317.687 300.882C318.079 300.546 318.275 300.056 318.275 299.412V298.138C318.088 298.586 317.789 298.945 317.379 299.216C316.968 299.487 316.497 299.622 315.965 299.622C315.339 299.622 314.784 299.473 314.299 299.174C313.823 298.866 313.449 298.441 313.179 297.9C312.917 297.359 312.787 296.729 312.787 296.01C312.787 295.291 312.917 294.666 313.179 294.134C313.449 293.593 313.818 293.173 314.285 292.874C314.761 292.566 315.307 292.412 315.923 292.412C316.492 292.412 316.987 292.557 317.407 292.846C317.836 293.126 318.139 293.499 318.317 293.966V292.58H319.199V299.412C319.199 300 319.073 300.509 318.821 300.938C318.569 301.367 318.205 301.694 317.729 301.918C317.262 302.151 316.697 302.268 316.035 302.268ZM316.007 298.74C316.688 298.74 317.234 298.497 317.645 298.012C318.065 297.517 318.275 296.85 318.275 296.01C318.284 295.469 318.195 294.997 318.009 294.596C317.822 294.185 317.556 293.868 317.211 293.644C316.865 293.411 316.464 293.294 316.007 293.294C315.307 293.294 314.756 293.541 314.355 294.036C313.953 294.521 313.753 295.179 313.753 296.01C313.753 296.85 313.953 297.517 314.355 298.012C314.765 298.497 315.316 298.74 316.007 298.74ZM324.199 300.168C323.49 300.168 322.888 300.005 322.393 299.678C321.898 299.342 321.516 298.885 321.245 298.306C320.984 297.718 320.853 297.046 320.853 296.29C320.853 295.534 320.984 294.867 321.245 294.288C321.506 293.7 321.88 293.243 322.365 292.916C322.86 292.58 323.452 292.412 324.143 292.412C324.806 292.412 325.38 292.571 325.865 292.888C326.35 293.205 326.719 293.653 326.971 294.232C327.232 294.811 327.363 295.487 327.363 296.262V296.556H321.819C321.856 297.433 322.085 298.11 322.505 298.586C322.925 299.053 323.49 299.286 324.199 299.286C324.74 299.286 325.184 299.155 325.529 298.894C325.874 298.633 326.112 298.287 326.243 297.858L327.237 297.928C327.05 298.581 326.691 299.118 326.159 299.538C325.627 299.958 324.974 300.168 324.199 300.168ZM321.819 295.73H326.355C326.308 294.937 326.089 294.335 325.697 293.924C325.305 293.504 324.787 293.294 324.143 293.294C323.499 293.294 322.972 293.504 322.561 293.924C322.15 294.344 321.903 294.946 321.819 295.73ZM329.013 300V292.58H329.853L329.895 294.526L329.783 294.442C329.858 293.985 330.012 293.607 330.245 293.308C330.488 293.009 330.782 292.785 331.127 292.636C331.473 292.487 331.846 292.412 332.247 292.412C332.817 292.412 333.283 292.538 333.647 292.79C334.021 293.042 334.296 293.383 334.473 293.812C334.651 294.232 334.739 294.703 334.739 295.226V300H333.815V295.562C333.815 295.077 333.755 294.661 333.633 294.316C333.521 293.971 333.335 293.705 333.073 293.518C332.812 293.331 332.471 293.238 332.051 293.238C331.417 293.238 330.903 293.443 330.511 293.854C330.129 294.265 329.937 294.834 329.937 295.562V300H329.013ZM339.027 300C338.42 300 337.972 299.86 337.683 299.58C337.394 299.291 337.249 298.852 337.249 298.264V290.844H338.173V298.236C338.173 298.581 338.248 298.824 338.397 298.964C338.556 299.104 338.794 299.174 339.111 299.174H340.091V300H339.027ZM336.087 293.406V292.58H340.091V293.406H336.087ZM348.322 300.224C347.258 300.224 346.422 299.972 345.816 299.468C345.218 298.955 344.892 298.292 344.836 297.48L345.816 297.41C345.881 298.045 346.138 298.516 346.586 298.824C347.043 299.132 347.622 299.286 348.322 299.286C348.807 299.286 349.241 299.216 349.624 299.076C350.016 298.927 350.328 298.703 350.562 298.404C350.795 298.096 350.912 297.704 350.912 297.228C350.912 296.547 350.674 296.033 350.198 295.688C349.722 295.333 349.092 295.156 348.308 295.156H347.468V294.232H348.308C348.98 294.232 349.521 294.097 349.932 293.826C350.352 293.546 350.562 293.112 350.562 292.524C350.562 291.964 350.375 291.535 350.002 291.236C349.628 290.928 349.092 290.774 348.392 290.774C347.729 290.774 347.206 290.914 346.824 291.194C346.45 291.465 346.226 291.843 346.152 292.328L345.144 292.258C345.256 291.53 345.587 290.947 346.138 290.508C346.698 290.06 347.449 289.836 348.392 289.836C349.036 289.836 349.596 289.943 350.072 290.158C350.548 290.373 350.916 290.681 351.178 291.082C351.439 291.474 351.57 291.941 351.57 292.482C351.57 293.107 351.364 293.616 350.954 294.008C350.543 294.391 349.95 294.647 349.176 294.778V294.526C350.016 294.629 350.678 294.927 351.164 295.422C351.658 295.907 351.906 296.514 351.906 297.242C351.906 297.858 351.752 298.39 351.444 298.838C351.145 299.286 350.725 299.631 350.184 299.874C349.642 300.107 349.022 300.224 348.322 300.224Z" fill="#2E2E2E"/>
<g clip-path="url(#clip0_18_10492)">
<path d="M384 110.19C407.614 110.19 426.757 129.333 426.757 152.947" stroke="#F9D94A" stroke-width="2" stroke-miterlimit="10"/>
<path d="M426.757 159L431.999 149.919L421.514 149.919L426.757 159Z" fill="#F9D94A"/>
</g>
<g clip-path="url(#clip1_18_10492)">
<path d="M431.81 246C431.81 269.614 412.667 288.757 389.053 288.757" stroke="#F9D94A" stroke-width="2" stroke-miterlimit="10"/>
<path d="M383 288.757L392.081 294V283.514L383 288.757Z" fill="#F9D94A"/>
</g>
<g clip-path="url(#clip2_18_10492)">
<path d="M237 294.81C213.386 294.81 194.243 275.667 194.243 252.053" stroke="#F9D94A" stroke-width="2" stroke-miterlimit="10"/>
<path d="M194.243 246L189.001 255.081L199.486 255.081L194.243 246Z" fill="#F9D94A"/>
</g>
<g clip-path="url(#clip3_18_10492)">
<path d="M190.19 158C190.19 134.386 209.333 115.243 232.947 115.243" stroke="#F9D94A" stroke-width="2" stroke-miterlimit="10"/>
<path d="M239 115.243L229.919 110V120.486L239 115.243Z" fill="#F9D94A"/>
</g>
<path d="M544.814 202.137L499 202.137" stroke="#E0E0E0" stroke-width="2" stroke-miterlimit="10" stroke-dasharray="6 6"/>
<path d="M551.08 202.243L541.999 197L541.999 207.486L551.08 202.243Z" fill="#F9D94A"/>
<path d="M499 206C501.209 206 503 204.209 503 202C503 199.791 501.209 198 499 198C496.791 198 495 199.791 495 202C495 204.209 496.791 206 499 206Z" fill="white" stroke="#E0E0E0" stroke-width="0.953282" stroke-miterlimit="10"/>
<path d="M72.2656 202.348L118.08 202.348" stroke="#E0E0E0" stroke-width="2" stroke-miterlimit="10" stroke-dasharray="6 6"/>
<path d="M65.998 202.242L75.079 207.485L75.079 197L65.998 202.242Z" fill="#F9D94A"/>
<path d="M118.08 198.485C115.871 198.485 114.08 200.276 114.08 202.485C114.08 204.694 115.871 206.485 118.08 206.485C120.289 206.485 122.08 204.694 122.08 202.485C122.08 200.276 120.289 198.485 118.08 198.485Z" fill="white" stroke="#E0E0E0" stroke-width="0.953282" stroke-miterlimit="10"/>
<path d="M310.863 384.814L310.863 339" stroke="#E0E0E0" stroke-width="2" stroke-miterlimit="10" stroke-dasharray="6 6"/>
<path d="M310.757 391.081L315.999 382L305.514 382L310.757 391.081Z" fill="#F9D94A"/>
<path d="M307 339C307 341.209 308.791 343 311 343C313.209 343 315 341.209 315 339C315 336.791 313.209 335 311 335C308.791 335 307 336.791 307 339Z" fill="white" stroke="#E0E0E0" stroke-width="0.953282" stroke-miterlimit="10"/>
<path d="M310.863 25.2666L310.863 71.0814" stroke="#E0E0E0" stroke-width="2" stroke-miterlimit="10" stroke-dasharray="6 6"/>
<path d="M310.758 19L316.001 28.081L305.516 28.081L310.758 19Z" fill="#F9D94A"/>
<path d="M307.002 71.0809C307.002 68.8718 308.793 67.0809 311.002 67.0809C313.211 67.0809 315.002 68.8718 315.002 71.0809C315.002 73.2901 313.211 75.0809 311.002 75.0809C308.793 75.0809 307.002 73.2901 307.002 71.0809Z" fill="white" stroke="#E0E0E0" stroke-width="0.953282" stroke-miterlimit="10"/>
<defs>
<filter id="filter0_d_18_10492" x="243.5" y="76.5" width="135" height="79" filterUnits="userSpaceOnUse" color-interpolation-filters="sRGB">
<feFlood flood-opacity="0" result="BackgroundImageFix"/>
<feColorMatrix in="SourceAlpha" type="matrix" values="0 0 0 0 0 0 0 0 0 0 0 0 0 0 0 0 0 0 127 0" result="hardAlpha"/>
<feOffset dy="1"/>
<feGaussianBlur stdDeviation="1.5"/>
<feComposite in2="hardAlpha" operator="out"/>
<feColorMatrix type="matrix" values="0 0 0 0 0.180392 0 0 0 0 0.180392 0 0 0 0 0.180392 0 0 0 0.06 0"/>
<feBlend mode="normal" in2="BackgroundImageFix" result="effect1_dropShadow_18_10492"/>
<feBlend mode="normal" in="SourceGraphic" in2="effect1_dropShadow_18_10492" result="shape"/>
</filter>
<filter id="filter1_d_18_10492" x="126.5" y="163.5" width="135" height="79" filterUnits="userSpaceOnUse" color-interpolation-filters="sRGB">
<feFlood flood-opacity="0" result="BackgroundImageFix"/>
<feColorMatrix in="SourceAlpha" type="matrix" values="0 0 0 0 0 0 0 0 0 0 0 0 0 0 0 0 0 0 127 0" result="hardAlpha"/>
<feOffset dy="1"/>
<feGaussianBlur stdDeviation="1.5"/>
<feComposite in2="hardAlpha" operator="out"/>
<feColorMatrix type="matrix" values="0 0 0 0 0.180392 0 0 0 0 0.180392 0 0 0 0 0.180392 0 0 0 0.06 0"/>
<feBlend mode="normal" in2="BackgroundImageFix" result="effect1_dropShadow_18_10492"/>
<feBlend mode="normal" in="SourceGraphic" in2="effect1_dropShadow_18_10492" result="shape"/>
</filter>
<filter id="filter2_d_18_10492" x="359.5" y="163.5" width="135" height="79" filterUnits="userSpaceOnUse" color-interpolation-filters="sRGB">
<feFlood flood-opacity="0" result="BackgroundImageFix"/>
<feColorMatrix in="SourceAlpha" type="matrix" values="0 0 0 0 0 0 0 0 0 0 0 0 0 0 0 0 0 0 127 0" result="hardAlpha"/>
<feOffset dy="1"/>
<feGaussianBlur stdDeviation="1.5"/>
<feComposite in2="hardAlpha" operator="out"/>
<feColorMatrix type="matrix" values="0 0 0 0 0.180392 0 0 0 0 0.180392 0 0 0 0 0.180392 0 0 0 0.06 0"/>
<feBlend mode="normal" in2="BackgroundImageFix" result="effect1_dropShadow_18_10492"/>
<feBlend mode="normal" in="SourceGraphic" in2="effect1_dropShadow_18_10492" result="shape"/>
</filter>
<filter id="filter3_d_18_10492" x="243.5" y="256.5" width="135" height="79" filterUnits="userSpaceOnUse" color-interpolation-filters="sRGB">
<feFlood flood-opacity="0" result="BackgroundImageFix"/>
<feColorMatrix in="SourceAlpha" type="matrix" values="0 0 0 0 0 0 0 0 0 0 0 0 0 0 0 0 0 0 127 0" result="hardAlpha"/>
<feOffset dy="1"/>
<feGaussianBlur stdDeviation="1.5"/>
<feComposite in2="hardAlpha" operator="out"/>
<feColorMatrix type="matrix" values="0 0 0 0 0.180392 0 0 0 0 0.180392 0 0 0 0 0.180392 0 0 0 0.06 0"/>
<feBlend mode="normal" in2="BackgroundImageFix" result="effect1_dropShadow_18_10492"/>
<feBlend mode="normal" in="SourceGraphic" in2="effect1_dropShadow_18_10492" result="shape"/>
</filter>
<clipPath id="clip0_18_10492">
<rect width="50" height="48" fill="white" transform="translate(384 159) rotate(-90)"/>
</clipPath>
<clipPath id="clip1_18_10492">
<rect width="50" height="48" fill="white" transform="translate(383 246)"/>
</clipPath>
<clipPath id="clip2_18_10492">
<rect width="50" height="48" fill="white" transform="translate(237 246) rotate(90)"/>
</clipPath>
<clipPath id="clip3_18_10492">
<rect width="50" height="48" fill="white" transform="matrix(-1 0 0 -1 239 158)"/>
</clipPath>
</defs>
</svg>
