<svg width="700" height="339" viewBox="0 0 700 339" fill="none" xmlns="http://www.w3.org/2000/svg">
<g clip-path="url(#clip0_18_12363)">
<path d="M243.817 280.008C245.211 257.007 247.327 234.807 250.089 213.691C253.471 187.722 257.834 163.353 263.022 141.075C269.424 113.402 277.117 88.9046 285.816 68.4597C303.757 26.2275 325.932 1.29089 349.939 1.29089C349.319 1.29089 348.726 1.29089 348.106 1.29089C303.886 1.98788 263.022 26.8212 229.877 68.4597C213.614 88.9046 199.209 113.402 187.18 141.075C177.474 163.379 169.342 187.747 162.992 213.691C157.829 234.807 153.88 256.981 151.247 279.982C148.82 301.408 147.529 323.531 147.529 346.17" stroke="#E0E0E0" stroke-width="0.915251" stroke-miterlimit="10"/>
<path d="M458.05 346.195V346.144C458.05 323.479 457.353 301.33 456.062 279.878C454.668 256.878 452.552 234.703 449.789 213.587C446.408 187.644 442.045 163.275 436.882 140.998C430.455 113.325 422.762 88.8269 414.062 68.382C396.199 26.3822 374.154 1.49722 350.275 1.26489C395.063 1.36815 436.443 26.2789 469.95 68.3562C486.213 88.8011 500.618 113.273 512.647 140.946C522.353 163.224 530.511 187.592 536.861 213.536C542.024 234.652 545.999 256.826 548.632 279.827C551.085 301.278 552.375 323.453 552.375 346.118C523.334 346.118 458.076 346.169 458.076 346.169L458.05 346.195Z" stroke="#E0E0E0" stroke-width="0.915251" stroke-miterlimit="10"/>
<path d="M241.829 346.17C241.829 323.556 242.526 301.434 243.817 280.008C245.211 257.007 247.327 234.807 250.09 213.691C253.471 187.722 257.834 163.353 263.023 141.075C269.424 113.402 277.117 88.9046 285.817 68.4596C303.757 26.2275 325.932 1.29089 349.939 1.29089V1.31671C349.32 1.31671 348.726 1.31671 348.106 1.31671C347.487 1.31671 346.893 1.31671 346.274 1.31671C284.629 2.27184 227.683 27.0535 181.449 68.4855C158.63 88.9304 138.417 113.428 121.534 141.101C107.93 163.405 96.4946 187.747 87.5887 213.691C80.3607 234.807 74.7848 256.981 71.1192 279.982C67.6859 301.408 65.8789 323.556 65.8789 346.195" stroke="#E0E0E0" stroke-width="0.915251" stroke-miterlimit="10"/>
<path d="M634 346.092V346.066C634 323.375 632.193 301.201 628.734 279.749C625.043 256.749 619.467 234.574 612.213 213.458C603.307 187.489 591.845 163.146 578.241 140.869C561.333 113.196 541.12 88.7237 518.275 68.2788C472.093 26.9501 415.224 2.22002 353.631 1.26489C352.521 1.26489 351.385 1.26489 350.275 1.26489" stroke="#E0E0E0" stroke-width="0.915251" stroke-miterlimit="10"/>
<path d="M241.828 346.17C241.828 323.556 242.525 301.434 243.816 280.008C245.21 257.007 247.327 234.807 250.089 213.691C253.471 187.722 257.833 163.353 263.022 141.075C269.424 113.402 277.117 88.9046 285.816 68.4597C303.757 26.2275 325.931 1.29089 349.939 1.29089V1.31671C349.319 1.31671 348.725 1.31671 348.106 1.31671C347.486 1.31671 346.893 1.31671 346.273 1.31671C270.302 2.06532 200.113 26.8987 143.192 68.4855C115.184 88.9304 90.3761 113.402 69.6472 141.075C52.9712 163.353 38.9282 187.696 28.0088 213.613C19.1029 234.678 12.2879 256.826 7.7704 279.775C3.51104 301.227 1.29102 323.427 1.29102 346.092" stroke="#E0E0E0" stroke-width="0.915251" stroke-miterlimit="10"/>
<path d="M698.584 346.04L698.61 345.989C698.584 323.298 696.364 301.124 692.13 279.672C687.587 256.697 680.746 234.523 671.84 213.407C660.895 187.437 646.852 163.095 630.125 140.817C609.37 113.144 584.536 88.672 556.502 68.2529C499.608 26.7952 429.522 2.03932 353.602 1.26489C352.492 1.26489 351.356 1.26489 350.246 1.26489" stroke="#E0E0E0" stroke-width="0.915251" stroke-miterlimit="10"/>
<path d="M7.74414 279.724C16.1338 280.266 692.984 279.724 692.984 279.724" stroke="#E0E0E0" stroke-width="0.915251" stroke-miterlimit="10"/>
<path d="M27.9824 213.561C41.8963 213.613 62.367 213.639 87.5876 213.639C109.53 213.639 135.034 213.665 162.991 213.665C190.948 213.665 219.524 213.665 250.088 213.665C282.614 213.665 316.457 213.665 350.325 213.665C383.91 213.665 417.468 213.665 449.762 213.613C480.3 213.613 509.677 213.587 536.833 213.561C564.739 213.561 590.243 213.536 612.211 213.51C637.328 213.51 657.799 213.484 671.842 213.484" stroke="#E0E0E0" stroke-width="0.915251" stroke-miterlimit="10"/>
<path d="M69.6465 141.023C84.8253 141.023 102.302 141.049 121.559 141.049C141.694 141.049 163.791 141.049 187.205 141.049C210.618 141.049 236.82 141.049 263.047 141.049C291.546 141.049 320.923 141.049 350.299 141.049C379.418 141.049 408.562 141.049 436.829 141.023C463.056 141.023 488.535 140.998 512.62 140.972C536.007 140.972 558.078 140.972 578.239 140.946C597.471 140.946 614.922 140.946 630.126 140.92" stroke="#E0E0E0" stroke-width="0.915251" stroke-miterlimit="10"/>
<path d="M143.191 68.4597C155.427 68.4597 168.231 68.4597 181.5 68.4597H229.953C248.152 68.4597 266.868 68.4597 285.867 68.4597C307.112 68.4597 328.719 68.4597 350.299 68.4597C371.648 68.4597 393.022 68.4597 414.061 68.4597C433.034 68.4597 451.749 68.4597 469.949 68.4597C486.547 68.4597 502.733 68.4597 518.299 68.4338C531.516 68.4338 544.319 68.4338 556.555 68.4338" stroke="#E0E0E0" stroke-width="0.915251" stroke-miterlimit="10"/>
<path d="M350.43 346.247C350.43 327.273 350.43 304.815 350.379 279.93C350.379 259.33 350.379 237.027 350.327 213.639C350.327 190.354 350.327 165.96 350.301 141.023C350.301 117.145 350.301 92.7765 350.275 68.4078C350.275 45.8978 350.275 23.3877 350.275 1.26489" stroke="#E0E0E0" stroke-width="0.915251" stroke-miterlimit="10"/>
<path d="M350.246 1.29089C351.356 1.29089 352.492 1.29089 353.602 1.29089" stroke="#E0E0E0" stroke-width="0.915251" stroke-miterlimit="10"/>
<path d="M350.252 1.29089C395.04 1.39415 436.42 26.3049 469.927 68.3822C486.19 88.8271 500.594 113.299 512.624 140.972C522.33 163.25 530.487 187.618 536.838 213.562" stroke="url(#paint0_linear_18_12363)" stroke-width="1.8305"/>
<path d="M250.117 213.665H350.354C350.354 190.354 350.354 165.96 350.328 141.023C350.328 117.145 350.328 92.7765 350.302 68.4078C350.302 45.8978 350.302 23.3877 350.302 1.26489" stroke="url(#paint1_linear_18_12363)" stroke-width="1.8305"/>
<path d="M87.6152 213.639C96.5212 187.696 107.957 163.353 121.561 141.049C138.444 113.376 158.656 88.8787 181.476 68.4338" stroke="url(#paint2_linear_18_12363)" stroke-width="1.8305"/>
<path d="M578.24 140.92C591.844 163.198 603.306 187.541 612.212 213.51C619.466 234.626 625.042 256.8 628.733 279.801C632.192 301.253 633.999 323.427 633.999 346.118" stroke="url(#paint3_linear_18_12363)" stroke-width="1.8305"/>
<g filter="url(#filter0_d_18_12363)">
<rect x="99.7637" y="191.288" width="135.457" height="43.9321" rx="5.49151" fill="white"/>
<rect x="99.7637" y="191.288" width="135.457" height="43.9321" rx="5.49151" stroke="#E0E0E0" stroke-width="1.03245" stroke-miterlimit="10"/>
</g>
<path d="M117.083 217.754V210.847H115.174V210.104H115.892C116.233 210.104 116.502 210.061 116.699 209.976C116.904 209.89 117.049 209.745 117.135 209.54C117.22 209.327 117.263 209.032 117.263 208.656H117.955V217.754H117.083ZM122.383 217.754V210.847H120.474V210.104H121.191C121.533 210.104 121.802 210.061 121.998 209.976C122.203 209.89 122.349 209.745 122.434 209.54C122.519 209.327 122.562 209.032 122.562 208.656H123.254V217.754H122.383ZM126.325 217.754V216.511H127.542V217.754H126.325ZM129.965 217.754C129.965 217.139 130.067 216.583 130.272 216.088C130.486 215.584 130.84 215.11 131.336 214.666C131.84 214.213 132.523 213.764 133.386 213.32C133.847 213.081 134.223 212.859 134.514 212.654C134.804 212.44 135.018 212.214 135.154 211.975C135.291 211.736 135.359 211.445 135.359 211.103C135.359 210.753 135.282 210.446 135.129 210.181C134.975 209.908 134.749 209.694 134.45 209.54C134.151 209.386 133.779 209.31 133.335 209.31C132.651 209.31 132.105 209.493 131.695 209.861C131.285 210.228 131.028 210.757 130.926 211.449L130.016 211.385C130.119 210.488 130.46 209.775 131.041 209.245C131.622 208.716 132.387 208.451 133.335 208.451C133.95 208.451 134.475 208.566 134.911 208.797C135.355 209.019 135.692 209.327 135.923 209.72C136.154 210.113 136.269 210.565 136.269 211.078C136.269 211.548 136.184 211.953 136.013 212.295C135.85 212.628 135.581 212.94 135.206 213.23C134.838 213.512 134.347 213.811 133.732 214.127C132.861 214.58 132.199 215.05 131.746 215.537C131.302 216.024 131.062 216.481 131.028 216.908H136.269V217.754H129.965ZM141.755 217.959C140.781 217.959 140.017 217.728 139.462 217.267C138.915 216.797 138.616 216.19 138.565 215.447L139.462 215.383C139.521 215.964 139.756 216.395 140.166 216.677C140.585 216.959 141.115 217.1 141.755 217.1C142.2 217.1 142.597 217.036 142.947 216.908C143.306 216.771 143.592 216.566 143.805 216.293C144.019 216.011 144.126 215.652 144.126 215.217C144.126 214.593 143.908 214.123 143.472 213.807C143.037 213.482 142.46 213.32 141.742 213.32H140.974V212.474H141.742C142.358 212.474 142.853 212.351 143.229 212.103C143.613 211.847 143.805 211.449 143.805 210.911C143.805 210.399 143.635 210.006 143.293 209.732C142.951 209.451 142.46 209.31 141.819 209.31C141.213 209.31 140.734 209.438 140.384 209.694C140.043 209.942 139.838 210.288 139.769 210.732L138.847 210.668C138.949 210.001 139.252 209.468 139.756 209.066C140.269 208.656 140.957 208.451 141.819 208.451C142.409 208.451 142.921 208.549 143.357 208.746C143.793 208.942 144.13 209.224 144.369 209.591C144.608 209.95 144.728 210.377 144.728 210.873C144.728 211.445 144.54 211.911 144.164 212.269C143.788 212.62 143.246 212.855 142.537 212.974V212.744C143.306 212.838 143.912 213.111 144.356 213.564C144.809 214.008 145.036 214.563 145.036 215.229C145.036 215.793 144.895 216.28 144.613 216.69C144.339 217.1 143.955 217.416 143.46 217.638C142.964 217.852 142.396 217.959 141.755 217.959ZM147.353 217.754V216.511H148.571V217.754H147.353ZM154.171 217.959C153.548 217.959 153.005 217.852 152.544 217.638C152.091 217.425 151.732 217.13 151.468 216.754C151.203 216.378 151.045 215.943 150.994 215.447L151.903 215.383C151.98 215.938 152.219 216.366 152.621 216.665C153.022 216.955 153.539 217.1 154.171 217.1C154.855 217.1 155.397 216.899 155.799 216.498C156.209 216.096 156.414 215.541 156.414 214.832C156.414 214.379 156.324 213.982 156.145 213.641C155.974 213.29 155.717 213.021 155.376 212.833C155.043 212.637 154.633 212.539 154.146 212.539C153.693 212.539 153.279 212.641 152.903 212.846C152.527 213.051 152.258 213.337 152.096 213.705H151.147L151.737 208.656H156.734V209.502H152.531L152.083 213.205L151.916 213.038C152.044 212.756 152.228 212.517 152.467 212.321C152.706 212.124 152.984 211.975 153.3 211.872C153.616 211.761 153.945 211.706 154.287 211.706C154.91 211.706 155.448 211.842 155.901 212.116C156.354 212.381 156.704 212.752 156.952 213.23C157.208 213.7 157.336 214.234 157.336 214.832C157.336 215.447 157.2 215.994 156.926 216.472C156.661 216.942 156.29 217.309 155.811 217.574C155.342 217.831 154.795 217.959 154.171 217.959ZM163.059 217.959C162.086 217.959 161.321 217.728 160.766 217.267C160.219 216.797 159.92 216.19 159.869 215.447L160.766 215.383C160.826 215.964 161.06 216.395 161.47 216.677C161.889 216.959 162.419 217.1 163.059 217.1C163.504 217.1 163.901 217.036 164.251 216.908C164.61 216.771 164.896 216.566 165.11 216.293C165.323 216.011 165.43 215.652 165.43 215.217C165.43 214.593 165.212 214.123 164.776 213.807C164.341 213.482 163.764 213.32 163.047 213.32H162.278V212.474H163.047C163.662 212.474 164.157 212.351 164.533 212.103C164.917 211.847 165.11 211.449 165.11 210.911C165.11 210.399 164.939 210.006 164.597 209.732C164.255 209.451 163.764 209.31 163.123 209.31C162.517 209.31 162.039 209.438 161.688 209.694C161.347 209.942 161.142 210.288 161.073 210.732L160.151 210.668C160.253 210.001 160.556 209.468 161.06 209.066C161.573 208.656 162.261 208.451 163.123 208.451C163.713 208.451 164.225 208.549 164.661 208.746C165.097 208.942 165.434 209.224 165.673 209.591C165.913 209.95 166.032 210.377 166.032 210.873C166.032 211.445 165.844 211.911 165.468 212.269C165.092 212.62 164.55 212.855 163.841 212.974V212.744C164.61 212.838 165.216 213.111 165.661 213.564C166.113 214.008 166.34 214.563 166.34 215.229C166.34 215.793 166.199 216.28 165.917 216.69C165.643 217.1 165.259 217.416 164.764 217.638C164.268 217.852 163.7 217.959 163.059 217.959ZM168.657 217.754V216.511H169.875V217.754H168.657ZM175.36 217.959C174.386 217.959 173.622 217.728 173.066 217.267C172.52 216.797 172.221 216.19 172.169 215.447L173.066 215.383C173.126 215.964 173.361 216.395 173.771 216.677C174.19 216.959 174.719 217.1 175.36 217.1C175.804 217.1 176.201 217.036 176.552 216.908C176.91 216.771 177.197 216.566 177.41 216.293C177.624 216.011 177.731 215.652 177.731 215.217C177.731 214.593 177.513 214.123 177.077 213.807C176.641 213.482 176.065 213.32 175.347 213.32H174.578V212.474H175.347C175.962 212.474 176.458 212.351 176.834 212.103C177.218 211.847 177.41 211.449 177.41 210.911C177.41 210.399 177.239 210.006 176.898 209.732C176.556 209.451 176.065 209.31 175.424 209.31C174.818 209.31 174.339 209.438 173.989 209.694C173.647 209.942 173.442 210.288 173.374 210.732L172.451 210.668C172.554 210.001 172.857 209.468 173.361 209.066C173.874 208.656 174.561 208.451 175.424 208.451C176.014 208.451 176.526 208.549 176.962 208.746C177.397 208.942 177.735 209.224 177.974 209.591C178.213 209.95 178.333 210.377 178.333 210.873C178.333 211.445 178.145 211.911 177.769 212.269C177.393 212.62 176.851 212.855 176.142 212.974V212.744C176.91 212.838 177.517 213.111 177.961 213.564C178.414 214.008 178.64 214.563 178.64 215.229C178.64 215.793 178.499 216.28 178.217 216.69C177.944 217.1 177.56 217.416 177.064 217.638C176.569 217.852 176.001 217.959 175.36 217.959ZM185.494 217.754V215.691H180.791V214.909L185.443 208.656H186.365V214.845H187.506V215.691H186.365V217.754H185.494ZM181.868 214.845H185.494V210.014L181.868 214.845Z" fill="#2E2E2E"/>
<g clip-path="url(#clip1_18_12363)">
<g clip-path="url(#clip2_18_12363)">
<rect x="195.729" y="205.932" width="20.1355" height="14.644" rx="1.8305" fill="white"/>
<path fill-rule="evenodd" clip-rule="evenodd" d="M195.729 205.932H204.358V212.766H195.729V205.932Z" fill="#1A47B8"/>
<path fill-rule="evenodd" clip-rule="evenodd" d="M204.358 205.932V206.908H215.864V205.932H204.358ZM204.358 207.884V208.86H215.864V207.884H204.358ZM204.358 209.837V210.813H215.864V209.837H204.358ZM204.358 211.789V212.766H215.864V211.789H204.358ZM195.729 213.742V214.718H215.864V213.742H195.729ZM195.729 215.694V216.671H215.864V215.694H195.729ZM195.729 217.647V218.623H215.864V217.647H195.729ZM195.729 219.599V220.576H215.864V219.599H195.729Z" fill="#F93939"/>
<path fill-rule="evenodd" clip-rule="evenodd" d="M196.688 206.908V207.884H197.646V206.908H196.688ZM198.605 206.908V207.884H199.564V206.908H198.605ZM200.523 206.908V207.884H201.482V206.908H200.523ZM202.441 206.908V207.884H203.399V206.908H202.441ZM201.482 207.884V208.86H202.441V207.884H201.482ZM199.564 207.884V208.86H200.523V207.884H199.564ZM197.646 207.884V208.86H198.605V207.884H197.646ZM196.688 208.86V209.837H197.646V208.86H196.688ZM198.605 208.86V209.837H199.564V208.86H198.605ZM200.523 208.86V209.837H201.482V208.86H200.523ZM202.441 208.86V209.837H203.399V208.86H202.441ZM196.688 210.813V211.789H197.646V210.813H196.688ZM198.605 210.813V211.789H199.564V210.813H198.605ZM200.523 210.813V211.789H201.482V210.813H200.523ZM202.441 210.813V211.789H203.399V210.813H202.441ZM201.482 209.837V210.813H202.441V209.837H201.482ZM199.564 209.837V210.813H200.523V209.837H199.564ZM197.646 209.837V210.813H198.605V209.837H197.646Z" fill="white"/>
</g>
</g>
<g filter="url(#filter1_d_18_12363)">
<rect x="113.492" y="8.2373" width="135.457" height="43.9321" rx="5.49151" fill="white"/>
<rect x="113.492" y="8.2373" width="135.457" height="43.9321" rx="5.49151" stroke="#E0E0E0" stroke-width="1.03245" stroke-miterlimit="10"/>
</g>
<path d="M130.637 34.7034V27.7969H128.727V27.0537H129.445C129.787 27.0537 130.056 27.011 130.252 26.9256C130.457 26.8401 130.603 26.6949 130.688 26.4899C130.773 26.2763 130.816 25.9816 130.816 25.6058H131.508V34.7034H130.637ZM137.596 34.9084C136.955 34.9084 136.383 34.8059 135.879 34.6009C135.383 34.3873 134.994 34.0798 134.713 33.6783C134.431 33.2768 134.29 32.7899 134.29 32.2175C134.29 31.5512 134.495 31.0003 134.905 30.5646C135.323 30.1204 135.87 29.83 136.545 29.6933L136.57 29.9239C136.015 29.7787 135.567 29.5438 135.225 29.2192C134.892 28.886 134.725 28.4333 134.725 27.8609C134.725 27.3826 134.841 26.9597 135.071 26.5924C135.31 26.2251 135.644 25.9346 136.071 25.7211C136.506 25.5075 137.015 25.4008 137.596 25.4008C138.185 25.4008 138.693 25.5075 139.12 25.7211C139.556 25.9346 139.889 26.2251 140.12 26.5924C140.35 26.9597 140.466 27.3826 140.466 27.8609C140.466 28.4333 140.299 28.886 139.966 29.2192C139.633 29.5438 139.189 29.7787 138.633 29.9239L138.659 29.6933C139.342 29.83 139.885 30.1204 140.286 30.5646C140.696 31.0003 140.901 31.5512 140.901 32.2175C140.901 32.7899 140.761 33.2768 140.479 33.6783C140.205 34.0798 139.821 34.3873 139.325 34.6009C138.83 34.8059 138.253 34.9084 137.596 34.9084ZM137.596 34.0499C138.339 34.0499 138.924 33.8918 139.351 33.5758C139.778 33.2597 139.992 32.7899 139.992 32.1663C139.992 31.594 139.791 31.1327 139.389 30.7824C138.997 30.4237 138.399 30.2443 137.596 30.2443C136.801 30.2443 136.203 30.4237 135.802 30.7824C135.409 31.1327 135.212 31.594 135.212 32.1663C135.212 32.7899 135.422 33.2597 135.84 33.5758C136.267 33.8918 136.852 34.0499 137.596 34.0499ZM137.596 29.437C138.202 29.437 138.68 29.3046 139.031 29.0398C139.381 28.7664 139.556 28.3692 139.556 27.8481C139.556 27.3612 139.389 26.9768 139.056 26.6949C138.723 26.4045 138.236 26.2593 137.596 26.2593C136.963 26.2593 136.481 26.4045 136.148 26.6949C135.814 26.9768 135.648 27.3612 135.648 27.8481C135.648 28.3692 135.823 28.7664 136.173 29.0398C136.524 29.3046 136.998 29.437 137.596 29.437ZM143.081 34.7034V33.4605H144.299V34.7034H143.081ZM149.63 34.9084C148.921 34.9084 148.332 34.7333 147.862 34.383C147.401 34.0243 147.085 33.5672 146.914 33.012L147.836 32.9351C147.947 33.2853 148.152 33.5587 148.451 33.7552C148.759 33.9516 149.152 34.0499 149.63 34.0499C150.442 34.0499 151.065 33.7039 151.501 33.012C151.937 32.3115 152.154 31.2309 152.154 29.7702L152.398 29.8599C152.184 30.4578 151.843 30.9234 151.373 31.2565C150.903 31.5897 150.356 31.7563 149.733 31.7563C149.143 31.7563 148.622 31.6281 148.169 31.3719C147.725 31.107 147.371 30.7397 147.106 30.2699C146.85 29.8001 146.722 29.2534 146.722 28.6298C146.722 27.972 146.854 27.4039 147.119 26.9256C147.392 26.4386 147.759 26.0628 148.221 25.798C148.682 25.5332 149.216 25.4008 149.822 25.4008C150.557 25.4008 151.164 25.5716 151.642 25.9133C152.12 26.255 152.475 26.7334 152.705 27.3484C152.945 27.9635 153.064 28.6938 153.064 29.5395C153.064 30.2998 153.004 31.0088 152.885 31.6666C152.774 32.3158 152.582 32.8838 152.308 33.3708C152.043 33.8491 151.693 34.225 151.258 34.4984C150.822 34.7717 150.279 34.9084 149.63 34.9084ZM149.784 30.8978C150.228 30.8978 150.621 30.8081 150.963 30.6287C151.313 30.4407 151.591 30.1802 151.796 29.847C152.001 29.5139 152.103 29.1209 152.103 28.6682C152.103 28.2069 152.009 27.7969 151.821 27.4381C151.633 27.0708 151.369 26.7846 151.027 26.5796C150.694 26.366 150.292 26.2593 149.822 26.2593C149.378 26.2593 148.994 26.3618 148.669 26.5668C148.345 26.7633 148.093 27.0409 147.913 27.3997C147.734 27.7584 147.644 28.1685 147.644 28.6298C147.644 29.0825 147.734 29.4797 147.913 29.8214C148.093 30.1631 148.34 30.4279 148.656 30.6159C148.981 30.8038 149.357 30.8978 149.784 30.8978ZM155.612 34.7034C155.612 34.0883 155.715 33.5331 155.92 33.0376C156.133 32.5336 156.488 32.0595 156.983 31.6153C157.487 31.1626 158.171 30.7141 159.033 30.2699C159.495 30.0307 159.871 29.8086 160.161 29.6036C160.451 29.39 160.665 29.1637 160.802 28.9245C160.938 28.6853 161.007 28.3948 161.007 28.0532C161.007 27.7029 160.93 27.3954 160.776 27.1306C160.622 26.8572 160.396 26.6437 160.097 26.4899C159.798 26.3361 159.426 26.2593 158.982 26.2593C158.299 26.2593 157.752 26.4429 157.342 26.8102C156.932 27.1776 156.676 27.7072 156.573 28.3991L155.664 28.335C155.766 27.4381 156.108 26.7248 156.689 26.1952C157.269 25.6656 158.034 25.4008 158.982 25.4008C159.597 25.4008 160.123 25.5161 160.558 25.7467C161.002 25.9688 161.34 26.2763 161.571 26.6693C161.801 27.0622 161.917 27.515 161.917 28.0275C161.917 28.4974 161.831 28.9031 161.66 29.2448C161.498 29.578 161.229 29.8898 160.853 30.1802C160.486 30.4621 159.994 30.7611 159.379 31.0771C158.508 31.5299 157.846 31.9997 157.393 32.4866C156.949 32.9735 156.71 33.4306 156.676 33.8577H161.917V34.7034H155.612ZM164.348 34.7034V33.4605H165.565V34.7034H164.348ZM172.306 34.7034V32.6404H167.604V31.8588L172.255 25.6058H173.178V31.7947H174.318V32.6404H173.178V34.7034H172.306ZM168.68 31.7947H172.306V26.964L168.68 31.7947ZM180.057 34.9084C179.391 34.9084 178.819 34.7589 178.34 34.4599C177.862 34.1609 177.49 33.7125 177.226 33.1145C176.969 32.508 176.841 31.7605 176.841 30.8721C176.841 30.1204 176.905 29.4157 177.033 28.7579C177.162 28.0916 177.362 27.5107 177.636 27.0153C177.909 26.5113 178.268 26.1183 178.712 25.8364C179.156 25.546 179.703 25.4008 180.352 25.4008C181.138 25.4008 181.749 25.5972 182.184 25.9902C182.62 26.3831 182.932 26.8957 183.12 27.5278L182.21 27.6175C182.099 27.216 181.898 26.8914 181.608 26.6437C181.326 26.3874 180.907 26.2593 180.352 26.2593C179.566 26.2593 178.938 26.6095 178.469 27.31C178.007 28.0104 177.76 29.0825 177.725 30.5262L177.533 30.4749C177.627 30.1247 177.798 29.8086 178.046 29.5267C178.293 29.2448 178.597 29.0227 178.955 28.8604C179.323 28.6896 179.733 28.6041 180.186 28.6041C180.784 28.6041 181.309 28.7323 181.762 28.9885C182.214 29.2448 182.565 29.6036 182.812 30.0649C183.06 30.5262 183.184 31.0686 183.184 31.6922C183.184 32.35 183.052 32.918 182.787 33.3964C182.522 33.8748 182.155 34.2464 181.685 34.5112C181.215 34.776 180.672 34.9084 180.057 34.9084ZM180.07 34.0499C180.719 34.0499 181.249 33.8449 181.659 33.4348C182.069 33.0163 182.274 32.4354 182.274 31.6922C182.274 31.2309 182.184 30.8337 182.005 30.5005C181.826 30.1588 181.574 29.8983 181.249 29.7189C180.933 29.531 180.561 29.437 180.134 29.437C179.699 29.437 179.306 29.5267 178.955 29.7061C178.605 29.8855 178.328 30.1418 178.123 30.4749C177.918 30.8081 177.815 31.201 177.815 31.6538C177.815 32.115 177.905 32.5293 178.084 32.8967C178.264 33.2554 178.524 33.5373 178.866 33.7424C179.207 33.9474 179.609 34.0499 180.07 34.0499ZM185.627 34.7034V33.4605H186.844V34.7034H185.627ZM193.585 34.7034V32.6404H188.883V31.8588L193.534 25.6058H194.457V31.7947H195.597V32.6404H194.457V34.7034H193.585ZM189.959 31.7947H193.585V26.964L189.959 31.7947ZM199.773 34.7034V27.7969H197.864V27.0537H198.582C198.923 27.0537 199.192 27.011 199.389 26.9256C199.594 26.8401 199.739 26.6949 199.824 26.4899C199.91 26.2763 199.953 25.9816 199.953 25.6058H200.645V34.7034H199.773Z" fill="#2E2E2E"/>
<g clip-path="url(#clip3_18_12363)">
<g clip-path="url(#clip4_18_12363)">
<rect x="209.457" y="22.8813" width="20.1355" height="14.644" rx="1.8305" fill="#1A47B8"/>
<path fill-rule="evenodd" clip-rule="evenodd" d="M211.599 22.8813H209.457V25.322L227.439 37.5254L229.593 37.5254V35.0847L211.599 22.8813Z" fill="white"/>
<path d="M210.171 22.8813L229.593 36.0956V37.5254H228.895L209.457 24.2975V22.8813H210.171Z" fill="#F93939"/>
<path fill-rule="evenodd" clip-rule="evenodd" d="M227.675 22.8813H229.593V25.322C229.593 25.322 217.137 33.4524 211.375 37.5254H209.457V35.0847L227.675 22.8813Z" fill="white"/>
<path d="M229.593 22.8813H228.942L209.457 36.1069V37.5254H210.171L229.593 24.3082V22.8813Z" fill="#F93939"/>
<path fill-rule="evenodd" clip-rule="evenodd" d="M216.78 22.8813H222.287V27.3984H229.593V33.0054H222.287V37.5254H216.78V33.0054H209.457V27.3984H216.78V22.8813Z" fill="white"/>
<path fill-rule="evenodd" clip-rule="evenodd" d="M217.935 22.8813H221.114V28.5137H229.593V31.8931H221.114V37.5254H217.935V31.8931H209.457V28.5137H217.935V22.8813Z" fill="#F93939"/>
</g>
</g>
<g filter="url(#filter2_d_18_12363)">
<rect x="469.523" y="226.982" width="135.457" height="43.9321" rx="5.49151" fill="white"/>
<rect x="469.523" y="226.982" width="135.457" height="43.9321" rx="5.49151" stroke="#E0E0E0" stroke-width="1.03245" stroke-miterlimit="10"/>
</g>
<path d="M489.429 253.448V251.386H484.726V250.604L489.378 244.351H490.3V250.54H491.441V251.386H490.3V253.448H489.429ZM485.803 250.54H489.429V245.709L485.803 250.54ZM493.964 253.448C493.964 252.833 494.066 252.278 494.272 251.783C494.485 251.279 494.84 250.805 495.335 250.36C495.839 249.908 496.522 249.459 497.385 249.015C497.846 248.776 498.222 248.554 498.513 248.349C498.803 248.135 499.017 247.909 499.153 247.67C499.29 247.43 499.358 247.14 499.358 246.798C499.358 246.448 499.282 246.141 499.128 245.876C498.974 245.602 498.748 245.389 498.449 245.235C498.15 245.081 497.778 245.004 497.334 245.004C496.651 245.004 496.104 245.188 495.694 245.555C495.284 245.923 495.028 246.452 494.925 247.144L494.015 247.08C494.118 246.183 494.459 245.47 495.04 244.94C495.621 244.411 496.386 244.146 497.334 244.146C497.949 244.146 498.474 244.261 498.91 244.492C499.354 244.714 499.692 245.021 499.922 245.414C500.153 245.807 500.268 246.26 500.268 246.773C500.268 247.242 500.183 247.648 500.012 247.99C499.85 248.323 499.581 248.635 499.205 248.925C498.837 249.207 498.346 249.506 497.731 249.822C496.86 250.275 496.198 250.745 495.745 251.232C495.301 251.719 495.062 252.176 495.028 252.603H500.268V253.448H493.964ZM502.699 253.448V252.206H503.917V253.448H502.699ZM509.518 253.654C508.894 253.654 508.351 253.547 507.89 253.333C507.437 253.12 507.079 252.825 506.814 252.449C506.549 252.073 506.391 251.638 506.34 251.142L507.25 251.078C507.326 251.633 507.566 252.06 507.967 252.359C508.369 252.65 508.885 252.795 509.518 252.795C510.201 252.795 510.743 252.594 511.145 252.193C511.555 251.791 511.76 251.236 511.76 250.527C511.76 250.074 511.67 249.677 511.491 249.335C511.32 248.985 511.064 248.716 510.722 248.528C510.389 248.332 509.979 248.233 509.492 248.233C509.039 248.233 508.625 248.336 508.249 248.541C507.873 248.746 507.604 249.032 507.442 249.399H506.494L507.083 244.351H512.08V245.197H507.877L507.429 248.9L507.262 248.733C507.39 248.451 507.574 248.212 507.813 248.016C508.052 247.819 508.33 247.67 508.646 247.567C508.962 247.456 509.291 247.401 509.633 247.401C510.256 247.401 510.795 247.537 511.247 247.811C511.7 248.075 512.05 248.447 512.298 248.925C512.554 249.395 512.682 249.929 512.682 250.527C512.682 251.142 512.546 251.689 512.272 252.167C512.008 252.637 511.636 253.004 511.158 253.269C510.688 253.525 510.141 253.654 509.518 253.654ZM518.406 253.654C517.432 253.654 516.667 253.423 516.112 252.962C515.565 252.492 515.266 251.885 515.215 251.142L516.112 251.078C516.172 251.659 516.407 252.09 516.817 252.372C517.235 252.654 517.765 252.795 518.406 252.795C518.85 252.795 519.247 252.731 519.597 252.603C519.956 252.466 520.242 252.261 520.456 251.988C520.669 251.706 520.776 251.347 520.776 250.911C520.776 250.288 520.558 249.818 520.123 249.502C519.687 249.177 519.11 249.015 518.393 249.015H517.624V248.169H518.393C519.008 248.169 519.503 248.045 519.879 247.798C520.264 247.541 520.456 247.144 520.456 246.606C520.456 246.094 520.285 245.701 519.943 245.427C519.601 245.145 519.11 245.004 518.47 245.004C517.863 245.004 517.385 245.133 517.035 245.389C516.693 245.637 516.488 245.982 516.419 246.427L515.497 246.363C515.599 245.696 515.903 245.162 516.407 244.761C516.919 244.351 517.607 244.146 518.47 244.146C519.059 244.146 519.572 244.244 520.007 244.441C520.443 244.637 520.78 244.919 521.02 245.286C521.259 245.645 521.378 246.072 521.378 246.568C521.378 247.14 521.19 247.606 520.814 247.964C520.439 248.315 519.896 248.549 519.187 248.669V248.438C519.956 248.532 520.562 248.806 521.007 249.258C521.459 249.703 521.686 250.258 521.686 250.924C521.686 251.488 521.545 251.975 521.263 252.385C520.99 252.795 520.605 253.111 520.11 253.333C519.614 253.547 519.046 253.654 518.406 253.654ZM524.004 253.448V252.206H525.221V253.448H524.004ZM530.61 253.654C529.943 253.654 529.371 253.504 528.893 253.205C528.414 252.906 528.043 252.458 527.778 251.86C527.522 251.253 527.394 250.506 527.394 249.617C527.394 248.866 527.458 248.161 527.586 247.503C527.714 246.837 527.915 246.256 528.188 245.76C528.461 245.256 528.82 244.863 529.264 244.582C529.709 244.291 530.255 244.146 530.904 244.146C531.69 244.146 532.301 244.342 532.737 244.735C533.172 245.128 533.484 245.641 533.672 246.273L532.762 246.363C532.651 245.961 532.451 245.637 532.16 245.389C531.878 245.133 531.46 245.004 530.904 245.004C530.119 245.004 529.491 245.355 529.021 246.055C528.56 246.756 528.312 247.828 528.278 249.271L528.085 249.22C528.179 248.87 528.35 248.554 528.598 248.272C528.846 247.99 529.149 247.768 529.508 247.606C529.875 247.435 530.285 247.349 530.738 247.349C531.336 247.349 531.861 247.477 532.314 247.734C532.767 247.99 533.117 248.349 533.365 248.81C533.612 249.271 533.736 249.814 533.736 250.437C533.736 251.095 533.604 251.663 533.339 252.142C533.074 252.62 532.707 252.991 532.237 253.256C531.767 253.521 531.225 253.654 530.61 253.654ZM530.623 252.795C531.272 252.795 531.801 252.59 532.211 252.18C532.621 251.761 532.826 251.18 532.826 250.437C532.826 249.976 532.737 249.579 532.557 249.246C532.378 248.904 532.126 248.643 531.801 248.464C531.485 248.276 531.114 248.182 530.687 248.182C530.251 248.182 529.858 248.272 529.508 248.451C529.158 248.631 528.88 248.887 528.675 249.22C528.47 249.553 528.367 249.946 528.367 250.399C528.367 250.86 528.457 251.274 528.636 251.642C528.816 252.001 529.076 252.282 529.418 252.487C529.76 252.692 530.161 252.795 530.623 252.795ZM537.935 253.448C537.935 252.483 538.067 251.514 538.332 250.54C538.597 249.566 538.972 248.626 539.459 247.721C539.946 246.815 540.523 245.974 541.189 245.197H535.846V244.351H542.15V245.133C541.433 245.961 540.826 246.815 540.331 247.695C539.835 248.575 539.459 249.493 539.203 250.45C538.955 251.398 538.831 252.398 538.831 253.448H537.935ZM542.53 253.448V252.206H543.747V253.448H542.53ZM546.884 253.448V246.542H544.975V245.799H545.693C546.034 245.799 546.304 245.756 546.5 245.671C546.705 245.585 546.85 245.44 546.936 245.235C547.021 245.021 547.064 244.727 547.064 244.351H547.756V253.448H546.884ZM550.919 253.448C550.919 252.833 551.021 252.278 551.226 251.783C551.44 251.279 551.794 250.805 552.29 250.36C552.794 249.908 553.477 249.459 554.34 249.015C554.801 248.776 555.177 248.554 555.468 248.349C555.758 248.135 555.972 247.909 556.108 247.67C556.245 247.43 556.313 247.14 556.313 246.798C556.313 246.448 556.236 246.141 556.083 245.876C555.929 245.602 555.703 245.389 555.404 245.235C555.105 245.081 554.733 245.004 554.289 245.004C553.605 245.004 553.059 245.188 552.649 245.555C552.239 245.923 551.982 246.452 551.88 247.144L550.97 247.08C551.073 246.183 551.414 245.47 551.995 244.94C552.576 244.411 553.341 244.146 554.289 244.146C554.904 244.146 555.429 244.261 555.865 244.492C556.309 244.714 556.646 245.021 556.877 245.414C557.108 245.807 557.223 246.26 557.223 246.773C557.223 247.242 557.138 247.648 556.967 247.99C556.804 248.323 556.535 248.635 556.16 248.925C555.792 249.207 555.301 249.506 554.686 249.822C553.815 250.275 553.153 250.745 552.7 251.232C552.256 251.719 552.017 252.176 551.982 252.603H557.223V253.448H550.919Z" fill="#2E2E2E"/>
<g clip-path="url(#clip5_18_12363)">
<g clip-path="url(#clip6_18_12363)">
<rect x="565.49" y="241.626" width="20.1355" height="14.644" rx="1.8305" fill="white"/>
<path fill-rule="evenodd" clip-rule="evenodd" d="M575.557 251.389C576.88 251.389 577.954 250.296 577.954 248.948C577.954 247.601 576.88 246.508 575.557 246.508C574.234 246.508 573.16 247.601 573.16 248.948C573.16 250.296 574.234 251.389 575.557 251.389ZM575.557 250.413C576.351 250.413 576.995 249.757 576.995 248.948C576.995 248.14 576.351 247.484 575.557 247.484C574.763 247.484 574.119 248.14 574.119 248.948C574.119 249.757 574.763 250.413 575.557 250.413Z" fill="#1A47B8"/>
<path d="M575.558 249.437C575.822 249.437 576.037 249.218 576.037 248.948C576.037 248.679 575.822 248.46 575.558 248.46C575.293 248.46 575.078 248.679 575.078 248.948C575.078 249.218 575.293 249.437 575.558 249.437Z" fill="#1A47B8"/>
<path fill-rule="evenodd" clip-rule="evenodd" d="M565.49 251.694H585.626V256.27H565.49V251.694Z" fill="#249F58"/>
<path fill-rule="evenodd" clip-rule="evenodd" d="M565.49 241.626H585.626V246.203H565.49V241.626Z" fill="#FF6C2D"/>
</g>
</g>
<g filter="url(#filter3_d_18_12363)">
<rect x="388.982" y="8.2373" width="135.457" height="43.9321" rx="5.49151" fill="white"/>
<rect x="388.982" y="8.2373" width="135.457" height="43.9321" rx="5.49151" stroke="#E0E0E0" stroke-width="1.03245" stroke-miterlimit="10"/>
</g>
<path d="M404.899 34.7034C404.899 34.0883 405.001 33.5331 405.206 33.0376C405.42 32.5336 405.774 32.0595 406.27 31.6153C406.774 31.1626 407.457 30.7141 408.32 30.2699C408.781 30.0307 409.157 29.8086 409.448 29.6036C409.738 29.39 409.952 29.1637 410.088 28.9245C410.225 28.6853 410.293 28.3948 410.293 28.0532C410.293 27.7029 410.216 27.3954 410.063 27.1306C409.909 26.8572 409.682 26.6437 409.383 26.4899C409.084 26.3361 408.713 26.2593 408.269 26.2593C407.585 26.2593 407.039 26.4429 406.629 26.8102C406.219 27.1776 405.962 27.7072 405.86 28.3991L404.95 28.335C405.052 27.4381 405.394 26.7248 405.975 26.1952C406.556 25.6656 407.32 25.4008 408.269 25.4008C408.884 25.4008 409.409 25.5161 409.845 25.7467C410.289 25.9688 410.626 26.2763 410.857 26.6693C411.088 27.0622 411.203 27.515 411.203 28.0275C411.203 28.4974 411.118 28.9031 410.947 29.2448C410.784 29.578 410.515 29.8898 410.139 30.1802C409.772 30.4621 409.281 30.7611 408.666 31.0771C407.795 31.5299 407.133 31.9997 406.68 32.4866C406.236 32.9735 405.996 33.4306 405.962 33.8577H411.203V34.7034H404.899ZM416.689 34.9084C415.715 34.9084 414.951 34.6777 414.396 34.2165C413.849 33.7466 413.55 33.1401 413.499 32.3969L414.396 32.3329C414.455 32.9137 414.69 33.3451 415.1 33.627C415.519 33.9089 416.049 34.0499 416.689 34.0499C417.133 34.0499 417.531 33.9858 417.881 33.8577C418.24 33.721 418.526 33.516 418.739 33.2426C418.953 32.9607 419.06 32.602 419.06 32.1663C419.06 31.5427 418.842 31.0729 418.406 30.7568C417.971 30.4322 417.394 30.2699 416.676 30.2699H415.908V29.4242H416.676C417.291 29.4242 417.787 29.3003 418.163 29.0526C418.547 28.7963 418.739 28.3991 418.739 27.8609C418.739 27.3484 418.569 26.9555 418.227 26.6821C417.885 26.4002 417.394 26.2593 416.753 26.2593C416.147 26.2593 415.668 26.3874 415.318 26.6437C414.976 26.8914 414.771 27.2374 414.703 27.6816L413.781 27.6175C413.883 26.9512 414.186 26.4173 414.69 26.0158C415.203 25.6058 415.891 25.4008 416.753 25.4008C417.343 25.4008 417.855 25.499 418.291 25.6955C418.727 25.8919 419.064 26.1738 419.303 26.5412C419.542 26.8999 419.662 27.3271 419.662 27.8225C419.662 28.3948 419.474 28.8604 419.098 29.2192C418.722 29.5694 418.18 29.8043 417.471 29.9239V29.6933C418.24 29.7872 418.846 30.0606 419.29 30.5133C419.743 30.9575 419.969 31.5128 419.969 32.1791C419.969 32.7429 419.829 33.2298 419.547 33.6398C419.273 34.0499 418.889 34.3659 418.393 34.588C417.898 34.8016 417.33 34.9084 416.689 34.9084ZM422.287 34.7034V33.4605H423.504V34.7034H422.287ZM428.977 34.9084C428.336 34.9084 427.764 34.8059 427.26 34.6009C426.765 34.3873 426.376 34.0798 426.094 33.6783C425.812 33.2768 425.671 32.7899 425.671 32.2175C425.671 31.5512 425.876 31.0003 426.286 30.5646C426.705 30.1204 427.252 29.83 427.926 29.6933L427.952 29.9239C427.397 29.7787 426.948 29.5438 426.607 29.2192C426.273 28.886 426.107 28.4333 426.107 27.8609C426.107 27.3826 426.222 26.9597 426.453 26.5924C426.692 26.2251 427.025 25.9346 427.452 25.7211C427.888 25.5075 428.396 25.4008 428.977 25.4008C429.567 25.4008 430.075 25.5075 430.502 25.7211C430.938 25.9346 431.271 26.2251 431.501 26.5924C431.732 26.9597 431.847 27.3826 431.847 27.8609C431.847 28.4333 431.681 28.886 431.348 29.2192C431.014 29.5438 430.57 29.7787 430.015 29.9239L430.041 29.6933C430.724 29.83 431.266 30.1204 431.668 30.5646C432.078 31.0003 432.283 31.5512 432.283 32.2175C432.283 32.7899 432.142 33.2768 431.86 33.6783C431.587 34.0798 431.202 34.3873 430.707 34.6009C430.211 34.8059 429.635 34.9084 428.977 34.9084ZM428.977 34.0499C429.72 34.0499 430.305 33.8918 430.733 33.5758C431.16 33.2597 431.373 32.7899 431.373 32.1663C431.373 31.594 431.172 31.1327 430.771 30.7824C430.378 30.4237 429.78 30.2443 428.977 30.2443C428.183 30.2443 427.585 30.4237 427.183 30.7824C426.79 31.1327 426.594 31.594 426.594 32.1663C426.594 32.7899 426.803 33.2597 427.222 33.5758C427.649 33.8918 428.234 34.0499 428.977 34.0499ZM428.977 29.437C429.584 29.437 430.062 29.3046 430.412 29.0398C430.762 28.7664 430.938 28.3692 430.938 27.8481C430.938 27.3612 430.771 26.9768 430.438 26.6949C430.105 26.4045 429.618 26.2593 428.977 26.2593C428.345 26.2593 427.862 26.4045 427.529 26.6949C427.196 26.9768 427.029 27.3612 427.029 27.8481C427.029 28.3692 427.205 28.7664 427.555 29.0398C427.905 29.3046 428.379 29.437 428.977 29.437ZM437.589 34.9084C436.88 34.9084 436.291 34.7333 435.821 34.383C435.36 34.0243 435.044 33.5672 434.873 33.012L435.795 32.9351C435.906 33.2853 436.111 33.5587 436.41 33.7552C436.718 33.9516 437.111 34.0499 437.589 34.0499C438.401 34.0499 439.024 33.7039 439.46 33.012C439.896 32.3115 440.114 31.2309 440.114 29.7702L440.357 29.8599C440.143 30.4578 439.802 30.9234 439.332 31.2565C438.862 31.5897 438.315 31.7563 437.692 31.7563C437.102 31.7563 436.581 31.6281 436.129 31.3719C435.684 31.107 435.33 30.7397 435.065 30.2699C434.809 29.8001 434.681 29.2534 434.681 28.6298C434.681 27.972 434.813 27.4039 435.078 26.9256C435.351 26.4386 435.718 26.0628 436.18 25.798C436.641 25.5332 437.175 25.4008 437.781 25.4008C438.516 25.4008 439.123 25.5716 439.601 25.9133C440.079 26.255 440.434 26.7334 440.664 27.3484C440.904 27.9635 441.023 28.6938 441.023 29.5395C441.023 30.2998 440.963 31.0088 440.844 31.6666C440.733 32.3158 440.541 32.8838 440.267 33.3708C440.002 33.8491 439.652 34.225 439.217 34.4984C438.781 34.7717 438.238 34.9084 437.589 34.9084ZM437.743 30.8978C438.187 30.8978 438.58 30.8081 438.922 30.6287C439.272 30.4407 439.55 30.1802 439.755 29.847C439.96 29.5139 440.062 29.1209 440.062 28.6682C440.062 28.2069 439.968 27.7969 439.78 27.4381C439.592 27.0708 439.328 26.7846 438.986 26.5796C438.653 26.366 438.251 26.2593 437.781 26.2593C437.337 26.2593 436.953 26.3618 436.628 26.5668C436.304 26.7633 436.052 27.0409 435.872 27.3997C435.693 27.7584 435.603 28.1685 435.603 28.6298C435.603 29.0825 435.693 29.4797 435.872 29.8214C436.052 30.1631 436.299 30.4279 436.615 30.6159C436.94 30.8038 437.316 30.8978 437.743 30.8978ZM443.216 34.7034V33.4605H444.433V34.7034H443.216ZM451.174 34.7034V32.6404H446.472V31.8588L451.123 25.6058H452.046V31.7947H453.186V32.6404H452.046V34.7034H451.174ZM447.548 31.7947H451.174V26.964L447.548 31.7947ZM458.926 34.9084C458.259 34.9084 457.687 34.7589 457.209 34.4599C456.73 34.1609 456.359 33.7125 456.094 33.1145C455.837 32.508 455.709 31.7605 455.709 30.8721C455.709 30.1204 455.773 29.4157 455.902 28.7579C456.03 28.0916 456.23 27.5107 456.504 27.0153C456.777 26.5113 457.136 26.1183 457.58 25.8364C458.024 25.546 458.571 25.4008 459.22 25.4008C460.006 25.4008 460.617 25.5972 461.053 25.9902C461.488 26.3831 461.8 26.8957 461.988 27.5278L461.078 27.6175C460.967 27.216 460.766 26.8914 460.476 26.6437C460.194 26.3874 459.776 26.2593 459.22 26.2593C458.434 26.2593 457.806 26.6095 457.337 27.31C456.875 28.0104 456.628 29.0825 456.593 30.5262L456.401 30.4749C456.495 30.1247 456.666 29.8086 456.914 29.5267C457.162 29.2448 457.465 29.0227 457.824 28.8604C458.191 28.6896 458.601 28.6041 459.054 28.6041C459.652 28.6041 460.177 28.7323 460.63 28.9885C461.082 29.2448 461.433 29.6036 461.68 30.0649C461.928 30.5262 462.052 31.0686 462.052 31.6922C462.052 32.35 461.92 32.918 461.655 33.3964C461.39 33.8748 461.023 34.2464 460.553 34.5112C460.083 34.776 459.541 34.9084 458.926 34.9084ZM458.938 34.0499C459.588 34.0499 460.117 33.8449 460.527 33.4348C460.937 33.0163 461.142 32.4354 461.142 31.6922C461.142 31.2309 461.053 30.8337 460.873 30.5005C460.694 30.1588 460.442 29.8983 460.117 29.7189C459.801 29.531 459.43 29.437 459.002 29.437C458.567 29.437 458.174 29.5267 457.824 29.7061C457.473 29.8855 457.196 30.1418 456.991 30.4749C456.786 30.8081 456.683 31.201 456.683 31.6538C456.683 32.115 456.773 32.5293 456.952 32.8967C457.132 33.2554 457.392 33.5373 457.734 33.7424C458.076 33.9474 458.477 34.0499 458.938 34.0499ZM464.495 34.7034V33.4605H465.712V34.7034H464.495ZM468.997 34.7034C468.997 33.7381 469.129 32.7685 469.394 31.7947C469.659 30.8209 470.035 29.8812 470.522 28.9757C471.009 28.0702 471.585 27.2288 472.252 26.4515H466.908V25.6058H473.213V26.3874C472.495 27.216 471.889 28.0702 471.393 28.9501C470.898 29.83 470.522 30.7483 470.266 31.705C470.018 32.6532 469.894 33.6527 469.894 34.7034H468.997ZM475.049 34.7034C475.049 34.0883 475.151 33.5331 475.356 33.0376C475.57 32.5336 475.924 32.0595 476.42 31.6153C476.924 31.1626 477.607 30.7141 478.47 30.2699C478.931 30.0307 479.307 29.8086 479.598 29.6036C479.888 29.39 480.102 29.1637 480.238 28.9245C480.375 28.6853 480.443 28.3948 480.443 28.0532C480.443 27.7029 480.366 27.3954 480.213 27.1306C480.059 26.8572 479.833 26.6437 479.534 26.4899C479.235 26.3361 478.863 26.2593 478.419 26.2593C477.735 26.2593 477.189 26.4429 476.779 26.8102C476.369 27.1776 476.112 27.7072 476.01 28.3991L475.1 28.335C475.203 27.4381 475.544 26.7248 476.125 26.1952C476.706 25.6656 477.471 25.4008 478.419 25.4008C479.034 25.4008 479.559 25.5161 479.995 25.7467C480.439 25.9688 480.776 26.2763 481.007 26.6693C481.238 27.0622 481.353 27.515 481.353 28.0275C481.353 28.4974 481.268 28.9031 481.097 29.2448C480.935 29.578 480.665 29.8898 480.29 30.1802C479.922 30.4621 479.431 30.7611 478.816 31.0771C477.945 31.5299 477.283 31.9997 476.83 32.4866C476.386 32.9735 476.147 33.4306 476.112 33.8577H481.353V34.7034H475.049Z" fill="#2E2E2E"/>
<g clip-path="url(#clip7_18_12363)">
<g clip-path="url(#clip8_18_12363)">
<rect x="489.949" y="22.8813" width="20.1355" height="14.644" rx="1.8305" fill="#F93939"/>
<path fill-rule="evenodd" clip-rule="evenodd" d="M489.949 32.9491H511V37.5254H489.949V32.9491Z" fill="#FFDA2C"/>
<path fill-rule="evenodd" clip-rule="evenodd" d="M489.949 22.8813H511V27.4576H489.949V22.8813Z" fill="#151515"/>
</g>
</g>
<g filter="url(#filter4_d_18_12363)">
<rect x="291.051" y="84.2031" width="135.457" height="43.9321" rx="5.49151" fill="white"/>
<rect x="291.051" y="84.2031" width="135.457" height="43.9321" rx="5.49151" stroke="#E0E0E0" stroke-width="1.03245" stroke-miterlimit="10"/>
</g>
<path d="M308.64 110.669V103.763H306.731V103.02H307.449C307.79 103.02 308.059 102.977 308.256 102.891C308.461 102.806 308.606 102.661 308.692 102.456C308.777 102.242 308.82 101.947 308.82 101.572H309.512V110.669H308.64ZM315.709 110.874C315 110.874 314.41 110.699 313.94 110.349C313.479 109.99 313.163 109.533 312.992 108.978L313.915 108.901C314.026 109.251 314.231 109.525 314.53 109.721C314.837 109.917 315.23 110.016 315.709 110.016C316.52 110.016 317.144 109.67 317.579 108.978C318.015 108.277 318.233 107.197 318.233 105.736L318.476 105.826C318.263 106.424 317.921 106.889 317.451 107.222C316.981 107.556 316.435 107.722 315.811 107.722C315.222 107.722 314.701 107.594 314.248 107.338C313.804 107.073 313.449 106.706 313.184 106.236C312.928 105.766 312.8 105.219 312.8 104.596C312.8 103.938 312.932 103.37 313.197 102.891C313.471 102.404 313.838 102.029 314.299 101.764C314.76 101.499 315.294 101.367 315.901 101.367C316.635 101.367 317.242 101.537 317.72 101.879C318.199 102.221 318.553 102.699 318.784 103.314C319.023 103.929 319.143 104.66 319.143 105.505C319.143 106.266 319.083 106.975 318.963 107.632C318.852 108.282 318.66 108.85 318.387 109.337C318.122 109.815 317.772 110.191 317.336 110.464C316.9 110.738 316.358 110.874 315.709 110.874ZM315.862 106.864C316.307 106.864 316.7 106.774 317.041 106.594C317.391 106.407 317.669 106.146 317.874 105.813C318.079 105.48 318.182 105.087 318.182 104.634C318.182 104.173 318.088 103.763 317.9 103.404C317.712 103.037 317.447 102.75 317.105 102.545C316.772 102.332 316.371 102.225 315.901 102.225C315.457 102.225 315.072 102.328 314.748 102.533C314.423 102.729 314.171 103.007 313.992 103.365C313.812 103.724 313.723 104.134 313.723 104.596C313.723 105.048 313.812 105.446 313.992 105.787C314.171 106.129 314.419 106.394 314.735 106.582C315.059 106.77 315.435 106.864 315.862 106.864ZM321.335 110.669V109.426H322.552V110.669H321.335ZM327.941 110.874C327.275 110.874 326.703 110.725 326.224 110.426C325.746 110.127 325.374 109.678 325.11 109.08C324.853 108.474 324.725 107.726 324.725 106.838C324.725 106.086 324.789 105.381 324.917 104.724C325.046 104.057 325.246 103.477 325.52 102.981C325.793 102.477 326.152 102.084 326.596 101.802C327.04 101.512 327.587 101.367 328.236 101.367C329.022 101.367 329.633 101.563 330.068 101.956C330.504 102.349 330.816 102.861 331.004 103.494L330.094 103.583C329.983 103.182 329.782 102.857 329.492 102.609C329.21 102.353 328.791 102.225 328.236 102.225C327.45 102.225 326.822 102.575 326.353 103.276C325.891 103.976 325.644 105.048 325.609 106.492L325.417 106.441C325.511 106.09 325.682 105.774 325.93 105.493C326.177 105.211 326.481 104.989 326.839 104.826C327.207 104.655 327.617 104.57 328.07 104.57C328.668 104.57 329.193 104.698 329.646 104.954C330.098 105.211 330.449 105.569 330.696 106.031C330.944 106.492 331.068 107.034 331.068 107.658C331.068 108.316 330.936 108.884 330.671 109.362C330.406 109.841 330.039 110.212 329.569 110.477C329.099 110.742 328.556 110.874 327.941 110.874ZM327.954 110.016C328.603 110.016 329.133 109.811 329.543 109.401C329.953 108.982 330.158 108.401 330.158 107.658C330.158 107.197 330.068 106.8 329.889 106.466C329.71 106.125 329.458 105.864 329.133 105.685C328.817 105.497 328.445 105.403 328.018 105.403C327.583 105.403 327.19 105.493 326.839 105.672C326.489 105.851 326.212 106.108 326.007 106.441C325.802 106.774 325.699 107.167 325.699 107.62C325.699 108.081 325.789 108.495 325.968 108.862C326.148 109.221 326.408 109.503 326.75 109.708C327.091 109.913 327.493 110.016 327.954 110.016ZM336.778 110.874C336.138 110.874 335.565 110.772 335.061 110.567C334.566 110.353 334.177 110.046 333.895 109.644C333.613 109.243 333.472 108.756 333.472 108.183C333.472 107.517 333.677 106.966 334.087 106.53C334.506 106.086 335.053 105.796 335.727 105.659L335.753 105.89C335.198 105.745 334.749 105.51 334.408 105.185C334.075 104.852 333.908 104.399 333.908 103.827C333.908 103.348 334.023 102.926 334.254 102.558C334.493 102.191 334.826 101.9 335.253 101.687C335.689 101.473 336.197 101.367 336.778 101.367C337.368 101.367 337.876 101.473 338.303 101.687C338.739 101.9 339.072 102.191 339.302 102.558C339.533 102.926 339.648 103.348 339.648 103.827C339.648 104.399 339.482 104.852 339.149 105.185C338.816 105.51 338.371 105.745 337.816 105.89L337.842 105.659C338.525 105.796 339.068 106.086 339.469 106.53C339.879 106.966 340.084 107.517 340.084 108.183C340.084 108.756 339.943 109.243 339.661 109.644C339.388 110.046 339.003 110.353 338.508 110.567C338.013 110.772 337.436 110.874 336.778 110.874ZM336.778 110.016C337.521 110.016 338.107 109.858 338.534 109.542C338.961 109.226 339.174 108.756 339.174 108.132C339.174 107.56 338.974 107.098 338.572 106.748C338.179 106.389 337.581 106.21 336.778 106.21C335.984 106.21 335.386 106.389 334.984 106.748C334.591 107.098 334.395 107.56 334.395 108.132C334.395 108.756 334.604 109.226 335.023 109.542C335.45 109.858 336.035 110.016 336.778 110.016ZM336.778 105.403C337.385 105.403 337.863 105.27 338.213 105.006C338.564 104.732 338.739 104.335 338.739 103.814C338.739 103.327 338.572 102.943 338.239 102.661C337.906 102.37 337.419 102.225 336.778 102.225C336.146 102.225 335.663 102.37 335.33 102.661C334.997 102.943 334.831 103.327 334.831 103.814C334.831 104.335 335.006 104.732 335.356 105.006C335.706 105.27 336.18 105.403 336.778 105.403ZM342.264 110.669V109.426H343.481V110.669H342.264ZM350.222 110.669V108.606H345.52V107.825L350.171 101.572H351.094V107.761H352.234V108.606H351.094V110.669H350.222ZM346.596 107.761H350.222V102.93L346.596 107.761ZM357.974 110.874C357.307 110.874 356.735 110.725 356.257 110.426C355.778 110.127 355.407 109.678 355.142 109.08C354.885 108.474 354.757 107.726 354.757 106.838C354.757 106.086 354.821 105.381 354.95 104.724C355.078 104.057 355.278 103.477 355.552 102.981C355.825 102.477 356.184 102.084 356.628 101.802C357.072 101.512 357.619 101.367 358.268 101.367C359.054 101.367 359.665 101.563 360.101 101.956C360.536 102.349 360.848 102.861 361.036 103.494L360.126 103.583C360.015 103.182 359.814 102.857 359.524 102.609C359.242 102.353 358.824 102.225 358.268 102.225C357.482 102.225 356.854 102.575 356.385 103.276C355.923 103.976 355.676 105.048 355.641 106.492L355.449 106.441C355.543 106.09 355.714 105.774 355.962 105.493C356.21 105.211 356.513 104.989 356.872 104.826C357.239 104.655 357.649 104.57 358.102 104.57C358.7 104.57 359.225 104.698 359.678 104.954C360.13 105.211 360.481 105.569 360.728 106.031C360.976 106.492 361.1 107.034 361.1 107.658C361.1 108.316 360.968 108.884 360.703 109.362C360.438 109.841 360.071 110.212 359.601 110.477C359.131 110.742 358.589 110.874 357.974 110.874ZM357.986 110.016C358.636 110.016 359.165 109.811 359.575 109.401C359.985 108.982 360.19 108.401 360.19 107.658C360.19 107.197 360.101 106.8 359.921 106.466C359.742 106.125 359.49 105.864 359.165 105.685C358.849 105.497 358.478 105.403 358.05 105.403C357.615 105.403 357.222 105.493 356.872 105.672C356.521 105.851 356.244 106.108 356.039 106.441C355.834 106.774 355.731 107.167 355.731 107.62C355.731 108.081 355.821 108.495 356 108.862C356.18 109.221 356.44 109.503 356.782 109.708C357.124 109.913 357.525 110.016 357.986 110.016ZM363.543 110.669V109.426H364.76V110.669H363.543ZM368.045 110.669C368.045 109.704 368.177 108.734 368.442 107.761C368.707 106.787 369.083 105.847 369.57 104.942C370.057 104.036 370.633 103.195 371.3 102.417H365.956V101.572H372.261V102.353C371.543 103.182 370.937 104.036 370.441 104.916C369.946 105.796 369.57 106.714 369.314 107.671C369.066 108.619 368.942 109.618 368.942 110.669H368.045ZM374.097 110.669C374.097 110.054 374.199 109.499 374.404 109.003C374.618 108.499 374.972 108.025 375.468 107.581C375.972 107.128 376.655 106.68 377.518 106.236C377.979 105.997 378.355 105.774 378.646 105.569C378.936 105.356 379.15 105.129 379.286 104.89C379.423 104.651 379.491 104.361 379.491 104.019C379.491 103.669 379.414 103.361 379.261 103.096C379.107 102.823 378.881 102.609 378.582 102.456C378.283 102.302 377.911 102.225 377.467 102.225C376.783 102.225 376.237 102.409 375.827 102.776C375.417 103.143 375.16 103.673 375.058 104.365L374.148 104.301C374.251 103.404 374.592 102.691 375.173 102.161C375.754 101.631 376.519 101.367 377.467 101.367C378.082 101.367 378.607 101.482 379.043 101.713C379.487 101.935 379.824 102.242 380.055 102.635C380.286 103.028 380.401 103.481 380.401 103.993C380.401 104.463 380.316 104.869 380.145 105.211C379.983 105.544 379.713 105.856 379.338 106.146C378.97 106.428 378.479 106.727 377.864 107.043C376.993 107.496 376.331 107.966 375.878 108.452C375.434 108.939 375.195 109.396 375.16 109.823H380.401V110.669H374.097Z" fill="#2E2E2E"/>
<g clip-path="url(#clip9_18_12363)">
<rect x="389.018" y="98.8472" width="20.1355" height="14.644" rx="1.8305" fill="#F93939"/>
<path fill-rule="evenodd" clip-rule="evenodd" d="M402.443 107.294L401.329 107.889L401.542 106.627L400.641 105.732L401.887 105.546L402.443 104.398L402.999 105.547L404.246 105.733L403.345 106.626L403.557 107.888" fill="white"/>
<path fill-rule="evenodd" clip-rule="evenodd" d="M398.125 109.586C399.979 109.586 401.481 108.056 401.481 106.169C401.481 104.282 399.979 102.752 398.125 102.752C396.272 102.752 394.77 104.282 394.77 106.169C394.77 108.056 396.272 109.586 398.125 109.586ZM399.084 108.61C400.407 108.61 401.481 107.517 401.481 106.169C401.481 104.822 400.407 103.729 399.084 103.729C397.761 103.729 396.687 104.822 396.687 106.169C396.687 107.517 397.761 108.61 399.084 108.61Z" fill="white"/>
</g>
<path d="M407.539 62.9863L407.15 66.0931L413.755 70.3649V73.4717L420.359 70.3649V66.8698L413.755 63.3747L413.366 60.6562L407.539 62.9863Z" fill="white"/>
<path fill-rule="evenodd" clip-rule="evenodd" d="M413.183 60.8891L408.202 63.3055L413.183 66.0316V60.8891ZM413.183 67.3444L407.522 64.2458V66.3552L413.183 69.2777V67.3444ZM413.183 70.5737L406.772 67.2642C406.526 67.1371 406.371 66.8832 406.371 66.606V62.9137L413.272 59.5662C413.763 59.328 414.334 59.6862 414.334 60.2327V62.9228L420.613 66.1479C420.86 66.2746 421.015 66.529 421.015 66.8068V70.1222C421.015 70.3997 420.86 70.6538 420.614 70.7807L414.261 74.0522C413.769 74.3057 413.183 73.9479 413.183 73.3937V70.5737ZM414.334 64.2174V72.7195L419.865 69.8712V67.0581L414.334 64.2174Z" fill="#E0E0E0"/>
<path d="M345.301 138.038L344.912 141.146L351.516 145.42V148.527L358.121 145.42V141.923L351.516 138.427L351.128 135.707L345.301 138.038Z" fill="white"/>
<path fill-rule="evenodd" clip-rule="evenodd" d="M350.947 135.94L345.966 138.358L350.947 141.085V135.94ZM350.947 142.398L345.285 139.298V141.409L350.947 144.332V142.398ZM350.947 145.629L344.535 142.318C344.289 142.191 344.135 141.937 344.135 141.659V137.966L351.036 134.617C351.527 134.379 352.098 134.737 352.098 135.284V137.975L358.377 141.201C358.624 141.328 358.779 141.582 358.779 141.86V145.177C358.779 145.454 358.624 145.709 358.377 145.836L352.025 149.108C351.533 149.362 350.947 149.004 350.947 148.45V145.629ZM352.098 139.27V147.775L357.628 144.926V142.112L352.098 139.27Z" fill="#E0E0E0"/>
</g>
<path d="M243.711 208.511L243.322 211.618L249.927 215.89V218.997L256.531 215.89V212.395L249.927 208.9L249.538 206.181L243.711 208.511Z" fill="white"/>
<path fill-rule="evenodd" clip-rule="evenodd" d="M249.355 206.414L244.374 208.831L249.355 211.557V206.414ZM249.355 212.87L243.693 209.771V211.88L249.355 214.803V212.87ZM249.355 216.099L242.944 212.789C242.698 212.662 242.543 212.408 242.543 212.131V208.439L249.444 205.091C249.935 204.853 250.506 205.211 250.506 205.758V208.448L256.785 211.673C257.032 211.8 257.187 212.054 257.187 212.332V215.647C257.187 215.925 257.032 216.179 256.786 216.306L250.433 219.577C249.941 219.831 249.355 219.473 249.355 218.919V216.099ZM250.506 209.743V218.245L256.036 215.396V212.583L250.506 209.743Z" fill="#E0E0E0"/>
<path d="M530.181 208.511L529.793 211.618L536.397 215.89V218.997L543.002 215.89V212.395L536.397 208.9L536.009 206.181L530.181 208.511Z" fill="white"/>
<path fill-rule="evenodd" clip-rule="evenodd" d="M535.828 206.414L530.847 208.831L535.828 211.557V206.414ZM535.828 212.87L530.166 209.771V211.88L535.828 214.803V212.87ZM535.828 216.099L529.416 212.789C529.17 212.662 529.016 212.408 529.016 212.131V208.439L535.916 205.091C536.408 204.853 536.978 205.211 536.978 205.758V208.448L543.258 211.673C543.504 211.8 543.66 212.054 543.66 212.332V215.647C543.66 215.925 543.505 216.179 543.258 216.306L536.906 219.577C536.414 219.831 535.828 219.473 535.828 218.919V216.099ZM536.978 209.743V218.245L542.509 215.396V212.583L536.978 209.743Z" fill="#E0E0E0"/>
<path d="M175.064 62.9863L174.676 66.0931L181.28 70.3649V73.4717L187.884 70.3649V66.8698L181.28 63.3747L180.892 60.6562L175.064 62.9863Z" fill="white"/>
<path fill-rule="evenodd" clip-rule="evenodd" d="M180.711 60.8891L175.729 63.3055L180.711 66.0316V60.8891ZM180.711 67.3444L175.049 64.2458V66.3552L180.711 69.2777V67.3444ZM180.711 70.5737L174.299 67.2642C174.053 67.1371 173.898 66.8832 173.898 66.606V62.9137L180.799 59.5662C181.29 59.328 181.861 59.6862 181.861 60.2327V62.9228L188.14 66.1479C188.387 66.2746 188.542 66.529 188.542 66.8068V70.1222C188.542 70.3997 188.388 70.6538 188.141 70.7807L181.789 74.0522C181.296 74.3057 180.711 73.9479 180.711 73.3937V70.5737ZM181.861 64.2174V72.7195L187.392 69.8712V67.0581L181.861 64.2174Z" fill="#E0E0E0"/>
<path d="M145.775 276.241L145.387 279.349L151.991 283.623V286.731L158.595 283.623V280.126L151.991 276.63L151.603 273.91L145.775 276.241Z" fill="white"/>
<path fill-rule="evenodd" clip-rule="evenodd" d="M151.422 274.144L146.44 276.561L151.422 279.288V274.144ZM151.422 280.601L145.76 277.501V279.612L151.422 282.535V280.601ZM151.422 283.832L145.01 280.521C144.764 280.394 144.609 280.14 144.609 279.863V276.169L151.51 272.82C152.001 272.582 152.572 272.94 152.572 273.487V276.178L158.851 279.404C159.098 279.531 159.253 279.786 159.253 280.063V283.38C159.253 283.658 159.098 283.912 158.852 284.039L152.5 287.312C152.007 287.565 151.422 287.207 151.422 286.653V283.832ZM152.572 277.473V285.978L158.103 283.129V280.315L152.572 277.473Z" fill="#E0E0E0"/>
<path d="M573.199 138.038L572.811 141.146L579.415 145.42V148.527L586.019 145.42V141.923L579.415 138.427L579.026 135.707L573.199 138.038Z" fill="white"/>
<path fill-rule="evenodd" clip-rule="evenodd" d="M578.846 135.94L573.864 138.358L578.846 141.085V135.94ZM578.846 142.398L573.184 139.298V141.409L578.846 144.332V142.398ZM578.846 145.629L572.434 142.318C572.188 142.191 572.033 141.937 572.033 141.659V137.966L578.934 134.617C579.425 134.379 579.996 134.737 579.996 135.284V137.975L586.275 141.201C586.522 141.328 586.677 141.582 586.677 141.86V145.177C586.677 145.454 586.522 145.709 586.276 145.836L579.923 149.108C579.431 149.362 578.846 149.004 578.846 148.45V145.629ZM579.996 139.27V147.775L585.527 144.926V142.112L579.996 139.27Z" fill="#E0E0E0"/>
<g filter="url(#filter5_d_18_12363)">
<rect x="511.625" y="83.2878" width="135.457" height="43.9321" rx="5.49151" fill="white"/>
<rect x="511.625" y="83.2878" width="135.457" height="43.9321" rx="5.49151" stroke="#E0E0E0" stroke-width="1.03245" stroke-miterlimit="10"/>
</g>
<path d="M527.541 109.754C527.541 109.139 527.644 108.584 527.849 108.088C528.062 107.584 528.417 107.11 528.912 106.666C529.416 106.213 530.1 105.765 530.963 105.32C531.424 105.081 531.8 104.859 532.09 104.654C532.381 104.441 532.594 104.214 532.731 103.975C532.867 103.736 532.936 103.445 532.936 103.104C532.936 102.753 532.859 102.446 532.705 102.181C532.551 101.908 532.325 101.694 532.026 101.54C531.727 101.387 531.355 101.31 530.911 101.31C530.228 101.31 529.681 101.493 529.271 101.861C528.861 102.228 528.605 102.758 528.502 103.45L527.593 103.386C527.695 102.489 528.037 101.775 528.618 101.246C529.199 100.716 529.963 100.451 530.911 100.451C531.526 100.451 532.052 100.567 532.487 100.797C532.932 101.019 533.269 101.327 533.5 101.72C533.73 102.113 533.846 102.566 533.846 103.078C533.846 103.548 533.76 103.954 533.589 104.295C533.427 104.628 533.158 104.94 532.782 105.231C532.415 105.513 531.924 105.812 531.308 106.128C530.437 106.58 529.775 107.05 529.322 107.537C528.878 108.024 528.639 108.481 528.605 108.908H533.846V109.754H527.541ZM539.332 109.959C538.358 109.959 537.593 109.728 537.038 109.267C536.491 108.797 536.192 108.191 536.141 107.447L537.038 107.383C537.098 107.964 537.333 108.396 537.743 108.678C538.161 108.959 538.691 109.1 539.332 109.1C539.776 109.1 540.173 109.036 540.523 108.908C540.882 108.772 541.168 108.567 541.382 108.293C541.596 108.011 541.702 107.652 541.702 107.217C541.702 106.593 541.484 106.123 541.049 105.807C540.613 105.483 540.037 105.32 539.319 105.32H538.55V104.475H539.319C539.934 104.475 540.429 104.351 540.805 104.103C541.19 103.847 541.382 103.45 541.382 102.911C541.382 102.399 541.211 102.006 540.869 101.733C540.528 101.451 540.037 101.31 539.396 101.31C538.789 101.31 538.311 101.438 537.961 101.694C537.619 101.942 537.414 102.288 537.346 102.732L536.423 102.668C536.526 102.002 536.829 101.468 537.333 101.066C537.845 100.656 538.533 100.451 539.396 100.451C539.985 100.451 540.498 100.55 540.933 100.746C541.369 100.942 541.707 101.224 541.946 101.592C542.185 101.95 542.305 102.378 542.305 102.873C542.305 103.445 542.117 103.911 541.741 104.27C541.365 104.62 540.822 104.855 540.113 104.974V104.744C540.882 104.838 541.489 105.111 541.933 105.564C542.386 106.008 542.612 106.563 542.612 107.23C542.612 107.793 542.471 108.28 542.189 108.69C541.916 109.1 541.531 109.416 541.036 109.639C540.541 109.852 539.972 109.959 539.332 109.959ZM544.93 109.754V108.511H546.147V109.754H544.93ZM551.62 109.959C550.979 109.959 550.407 109.856 549.903 109.651C549.407 109.438 549.019 109.13 548.737 108.729C548.455 108.327 548.314 107.84 548.314 107.268C548.314 106.602 548.519 106.051 548.929 105.615C549.347 105.171 549.894 104.88 550.569 104.744L550.595 104.974C550.039 104.829 549.591 104.594 549.249 104.27C548.916 103.937 548.749 103.484 548.749 102.911C548.749 102.433 548.865 102.01 549.095 101.643C549.335 101.276 549.668 100.985 550.095 100.772C550.531 100.558 551.039 100.451 551.62 100.451C552.209 100.451 552.717 100.558 553.144 100.772C553.58 100.985 553.913 101.276 554.144 101.643C554.375 102.01 554.49 102.433 554.49 102.911C554.49 103.484 554.323 103.937 553.99 104.27C553.657 104.594 553.213 104.829 552.658 104.974L552.683 104.744C553.367 104.88 553.909 105.171 554.311 105.615C554.721 106.051 554.926 106.602 554.926 107.268C554.926 107.84 554.785 108.327 554.503 108.729C554.229 109.13 553.845 109.438 553.35 109.651C552.854 109.856 552.277 109.959 551.62 109.959ZM551.62 109.1C552.363 109.1 552.948 108.942 553.375 108.626C553.802 108.31 554.016 107.84 554.016 107.217C554.016 106.644 553.815 106.183 553.414 105.833C553.021 105.474 552.423 105.295 551.62 105.295C550.825 105.295 550.227 105.474 549.826 105.833C549.433 106.183 549.236 106.644 549.236 107.217C549.236 107.84 549.446 108.31 549.864 108.626C550.291 108.942 550.876 109.1 551.62 109.1ZM551.62 104.488C552.226 104.488 552.705 104.355 553.055 104.09C553.405 103.817 553.58 103.42 553.58 102.899C553.58 102.412 553.414 102.027 553.08 101.745C552.747 101.455 552.26 101.31 551.62 101.31C550.988 101.31 550.505 101.455 550.172 101.745C549.839 102.027 549.672 102.412 549.672 102.899C549.672 103.42 549.847 103.817 550.197 104.09C550.548 104.355 551.022 104.488 551.62 104.488ZM560.232 109.959C559.523 109.959 558.933 109.784 558.464 109.434C558.002 109.075 557.686 108.618 557.515 108.063L558.438 107.986C558.549 108.336 558.754 108.609 559.053 108.806C559.361 109.002 559.753 109.1 560.232 109.1C561.043 109.1 561.667 108.754 562.103 108.063C562.538 107.362 562.756 106.281 562.756 104.821L563 104.91C562.786 105.508 562.444 105.974 561.974 106.307C561.505 106.64 560.958 106.807 560.334 106.807C559.745 106.807 559.224 106.679 558.771 106.422C558.327 106.158 557.972 105.79 557.708 105.32C557.451 104.851 557.323 104.304 557.323 103.68C557.323 103.023 557.456 102.454 557.72 101.976C557.994 101.489 558.361 101.113 558.822 100.849C559.284 100.584 559.818 100.451 560.424 100.451C561.159 100.451 561.765 100.622 562.244 100.964C562.722 101.306 563.076 101.784 563.307 102.399C563.546 103.014 563.666 103.744 563.666 104.59C563.666 105.35 563.606 106.059 563.486 106.717C563.375 107.366 563.183 107.934 562.91 108.421C562.645 108.9 562.295 109.276 561.859 109.549C561.423 109.822 560.881 109.959 560.232 109.959ZM560.386 105.948C560.83 105.948 561.223 105.859 561.564 105.679C561.915 105.491 562.192 105.231 562.397 104.898C562.602 104.564 562.705 104.171 562.705 103.719C562.705 103.257 562.611 102.847 562.423 102.489C562.235 102.121 561.97 101.835 561.629 101.63C561.295 101.417 560.894 101.31 560.424 101.31C559.98 101.31 559.595 101.412 559.271 101.617C558.946 101.814 558.694 102.091 558.515 102.45C558.335 102.809 558.246 103.219 558.246 103.68C558.246 104.133 558.335 104.53 558.515 104.872C558.694 105.214 558.942 105.478 559.258 105.666C559.583 105.854 559.958 105.948 560.386 105.948ZM565.858 109.754V108.511H567.076V109.754H565.858ZM573.817 109.754V107.691H569.114V106.909L573.766 100.656H574.688V106.845H575.829V107.691H574.688V109.754H573.817ZM570.191 106.845H573.817V102.015L570.191 106.845ZM581.568 109.959C580.902 109.959 580.329 109.809 579.851 109.51C579.373 109.211 579.001 108.763 578.736 108.165C578.48 107.559 578.352 106.811 578.352 105.923C578.352 105.171 578.416 104.466 578.544 103.808C578.672 103.142 578.873 102.561 579.146 102.066C579.42 101.562 579.778 101.169 580.223 100.887C580.667 100.597 581.214 100.451 581.863 100.451C582.649 100.451 583.26 100.648 583.695 101.041C584.131 101.434 584.443 101.946 584.631 102.578L583.721 102.668C583.61 102.267 583.409 101.942 583.119 101.694C582.837 101.438 582.418 101.31 581.863 101.31C581.077 101.31 580.449 101.66 579.979 102.361C579.518 103.061 579.27 104.133 579.236 105.577L579.044 105.525C579.138 105.175 579.309 104.859 579.556 104.577C579.804 104.295 580.107 104.073 580.466 103.911C580.833 103.74 581.244 103.655 581.696 103.655C582.294 103.655 582.82 103.783 583.272 104.039C583.725 104.295 584.075 104.654 584.323 105.115C584.571 105.577 584.695 106.119 584.695 106.743C584.695 107.4 584.562 107.969 584.297 108.447C584.033 108.925 583.665 109.297 583.195 109.562C582.726 109.827 582.183 109.959 581.568 109.959ZM581.581 109.1C582.23 109.1 582.76 108.895 583.17 108.485C583.58 108.067 583.785 107.486 583.785 106.743C583.785 106.281 583.695 105.884 583.516 105.551C583.336 105.209 583.084 104.949 582.76 104.769C582.444 104.582 582.072 104.488 581.645 104.488C581.209 104.488 580.816 104.577 580.466 104.757C580.116 104.936 579.838 105.192 579.633 105.525C579.428 105.859 579.326 106.252 579.326 106.704C579.326 107.166 579.415 107.58 579.595 107.947C579.774 108.306 580.035 108.588 580.376 108.793C580.718 108.998 581.12 109.1 581.581 109.1ZM587.137 109.754V108.511H588.355V109.754H587.137ZM591.64 109.754C591.64 108.789 591.772 107.819 592.037 106.845C592.302 105.871 592.678 104.932 593.164 104.026C593.651 103.121 594.228 102.279 594.894 101.502H589.551V100.656H595.855V101.438C595.138 102.267 594.531 103.121 594.036 104.001C593.54 104.88 593.164 105.799 592.908 106.756C592.66 107.704 592.537 108.703 592.537 109.754H591.64ZM597.691 109.754C597.691 109.139 597.794 108.584 597.999 108.088C598.212 107.584 598.567 107.11 599.062 106.666C599.566 106.213 600.25 105.765 601.113 105.32C601.574 105.081 601.95 104.859 602.24 104.654C602.531 104.441 602.744 104.214 602.881 103.975C603.018 103.736 603.086 103.445 603.086 103.104C603.086 102.753 603.009 102.446 602.855 102.181C602.701 101.908 602.475 101.694 602.176 101.54C601.877 101.387 601.506 101.31 601.061 101.31C600.378 101.31 599.831 101.493 599.421 101.861C599.011 102.228 598.755 102.758 598.652 103.45L597.743 103.386C597.845 102.489 598.187 101.775 598.768 101.246C599.349 100.716 600.113 100.451 601.061 100.451C601.676 100.451 602.202 100.567 602.637 100.797C603.082 101.019 603.419 101.327 603.65 101.72C603.88 102.113 603.996 102.566 603.996 103.078C603.996 103.548 603.91 103.954 603.739 104.295C603.577 104.628 603.308 104.94 602.932 105.231C602.565 105.513 602.074 105.812 601.459 106.128C600.587 106.58 599.925 107.05 599.472 107.537C599.028 108.024 598.789 108.481 598.755 108.908H603.996V109.754H597.691Z" fill="#2E2E2E"/>
<g clip-path="url(#clip10_18_12363)">
<rect x="612.592" y="97.9319" width="20.1355" height="14.644" rx="1.8305" fill="#249F58"/>
<path fill-rule="evenodd" clip-rule="evenodd" d="M622.66 99.8844L629.851 105.254L622.66 110.623L615.469 105.254" fill="#FFDA2C"/>
<path d="M622.661 108.671C624.514 108.671 626.017 107.141 626.017 105.254C626.017 103.367 624.514 101.837 622.661 101.837C620.807 101.837 619.305 103.367 619.305 105.254C619.305 107.141 620.807 108.671 622.661 108.671Z" fill="#1A47B8"/>
<path fill-rule="evenodd" clip-rule="evenodd" d="M621.221 106.718V107.695H622.18V106.718H621.221ZM623.138 106.718V107.695H624.097V106.718H623.138Z" fill="white"/>
<path fill-rule="evenodd" clip-rule="evenodd" d="M620.262 103.79C620.262 103.79 622.433 104.18 623.997 104.861L626.015 105.742" fill="white"/>
<path d="M620.262 103.79C620.262 103.79 622.433 104.18 623.997 104.861L626.015 105.742" stroke="white" stroke-width="0.915251"/>
</g>
<defs>
<filter id="filter0_d_18_12363" x="96.1507" y="188.706" width="142.683" height="51.1592" filterUnits="userSpaceOnUse" color-interpolation-filters="sRGB">
<feFlood flood-opacity="0" result="BackgroundImageFix"/>
<feColorMatrix in="SourceAlpha" type="matrix" values="0 0 0 0 0 0 0 0 0 0 0 0 0 0 0 0 0 0 127 0" result="hardAlpha"/>
<feOffset dy="1.03245"/>
<feGaussianBlur stdDeviation="1.54867"/>
<feComposite in2="hardAlpha" operator="out"/>
<feColorMatrix type="matrix" values="0 0 0 0 0.180392 0 0 0 0 0.180392 0 0 0 0 0.180392 0 0 0 0.06 0"/>
<feBlend mode="normal" in2="BackgroundImageFix" result="effect1_dropShadow_18_12363"/>
<feBlend mode="normal" in="SourceGraphic" in2="effect1_dropShadow_18_12363" result="shape"/>
</filter>
<filter id="filter1_d_18_12363" x="109.879" y="5.65617" width="142.683" height="51.1592" filterUnits="userSpaceOnUse" color-interpolation-filters="sRGB">
<feFlood flood-opacity="0" result="BackgroundImageFix"/>
<feColorMatrix in="SourceAlpha" type="matrix" values="0 0 0 0 0 0 0 0 0 0 0 0 0 0 0 0 0 0 127 0" result="hardAlpha"/>
<feOffset dy="1.03245"/>
<feGaussianBlur stdDeviation="1.54867"/>
<feComposite in2="hardAlpha" operator="out"/>
<feColorMatrix type="matrix" values="0 0 0 0 0.180392 0 0 0 0 0.180392 0 0 0 0 0.180392 0 0 0 0.06 0"/>
<feBlend mode="normal" in2="BackgroundImageFix" result="effect1_dropShadow_18_12363"/>
<feBlend mode="normal" in="SourceGraphic" in2="effect1_dropShadow_18_12363" result="shape"/>
</filter>
<filter id="filter2_d_18_12363" x="465.91" y="224.401" width="142.683" height="51.1592" filterUnits="userSpaceOnUse" color-interpolation-filters="sRGB">
<feFlood flood-opacity="0" result="BackgroundImageFix"/>
<feColorMatrix in="SourceAlpha" type="matrix" values="0 0 0 0 0 0 0 0 0 0 0 0 0 0 0 0 0 0 127 0" result="hardAlpha"/>
<feOffset dy="1.03245"/>
<feGaussianBlur stdDeviation="1.54867"/>
<feComposite in2="hardAlpha" operator="out"/>
<feColorMatrix type="matrix" values="0 0 0 0 0.180392 0 0 0 0 0.180392 0 0 0 0 0.180392 0 0 0 0.06 0"/>
<feBlend mode="normal" in2="BackgroundImageFix" result="effect1_dropShadow_18_12363"/>
<feBlend mode="normal" in="SourceGraphic" in2="effect1_dropShadow_18_12363" result="shape"/>
</filter>
<filter id="filter3_d_18_12363" x="385.369" y="5.65617" width="142.683" height="51.1592" filterUnits="userSpaceOnUse" color-interpolation-filters="sRGB">
<feFlood flood-opacity="0" result="BackgroundImageFix"/>
<feColorMatrix in="SourceAlpha" type="matrix" values="0 0 0 0 0 0 0 0 0 0 0 0 0 0 0 0 0 0 127 0" result="hardAlpha"/>
<feOffset dy="1.03245"/>
<feGaussianBlur stdDeviation="1.54867"/>
<feComposite in2="hardAlpha" operator="out"/>
<feColorMatrix type="matrix" values="0 0 0 0 0.180392 0 0 0 0 0.180392 0 0 0 0 0.180392 0 0 0 0.06 0"/>
<feBlend mode="normal" in2="BackgroundImageFix" result="effect1_dropShadow_18_12363"/>
<feBlend mode="normal" in="SourceGraphic" in2="effect1_dropShadow_18_12363" result="shape"/>
</filter>
<filter id="filter4_d_18_12363" x="287.438" y="81.622" width="142.683" height="51.1592" filterUnits="userSpaceOnUse" color-interpolation-filters="sRGB">
<feFlood flood-opacity="0" result="BackgroundImageFix"/>
<feColorMatrix in="SourceAlpha" type="matrix" values="0 0 0 0 0 0 0 0 0 0 0 0 0 0 0 0 0 0 127 0" result="hardAlpha"/>
<feOffset dy="1.03245"/>
<feGaussianBlur stdDeviation="1.54867"/>
<feComposite in2="hardAlpha" operator="out"/>
<feColorMatrix type="matrix" values="0 0 0 0 0.180392 0 0 0 0 0.180392 0 0 0 0 0.180392 0 0 0 0.06 0"/>
<feBlend mode="normal" in2="BackgroundImageFix" result="effect1_dropShadow_18_12363"/>
<feBlend mode="normal" in="SourceGraphic" in2="effect1_dropShadow_18_12363" result="shape"/>
</filter>
<filter id="filter5_d_18_12363" x="508.012" y="80.7067" width="142.683" height="51.1592" filterUnits="userSpaceOnUse" color-interpolation-filters="sRGB">
<feFlood flood-opacity="0" result="BackgroundImageFix"/>
<feColorMatrix in="SourceAlpha" type="matrix" values="0 0 0 0 0 0 0 0 0 0 0 0 0 0 0 0 0 0 127 0" result="hardAlpha"/>
<feOffset dy="1.03245"/>
<feGaussianBlur stdDeviation="1.54867"/>
<feComposite in2="hardAlpha" operator="out"/>
<feColorMatrix type="matrix" values="0 0 0 0 0.180392 0 0 0 0 0.180392 0 0 0 0 0.180392 0 0 0 0.06 0"/>
<feBlend mode="normal" in2="BackgroundImageFix" result="effect1_dropShadow_18_12363"/>
<feBlend mode="normal" in="SourceGraphic" in2="effect1_dropShadow_18_12363" result="shape"/>
</filter>
<linearGradient id="paint0_linear_18_12363" x1="405.149" y1="218.639" x2="446.426" y2="-0.596475" gradientUnits="userSpaceOnUse">
<stop stop-color="#F9D94A" stop-opacity="0.1"/>
<stop offset="0.5" stop-color="#F9D94A"/>
<stop offset="1" stop-color="#F9D94A" stop-opacity="0"/>
</linearGradient>
<linearGradient id="paint1_linear_18_12363" x1="279.609" y1="218.745" x2="350.541" y2="16.4746" gradientUnits="userSpaceOnUse">
<stop stop-color="#F9D94A" stop-opacity="0.1"/>
<stop offset="0.5" stop-color="#F9D94A"/>
<stop offset="1" stop-color="#F9D94A" stop-opacity="0"/>
</linearGradient>
<linearGradient id="paint2_linear_18_12363" x1="115.231" y1="217.112" x2="152.542" y2="71.3793" gradientUnits="userSpaceOnUse">
<stop stop-color="#F9D94A" stop-opacity="0.1"/>
<stop offset="0.5" stop-color="#F9D94A"/>
<stop offset="1" stop-color="#F9D94A" stop-opacity="0"/>
</linearGradient>
<linearGradient id="paint3_linear_18_12363" x1="594.646" y1="351.026" x2="692.133" y2="190.956" gradientUnits="userSpaceOnUse">
<stop stop-color="#F9D94A" stop-opacity="0.1"/>
<stop offset="0.5" stop-color="#F9D94A"/>
<stop offset="1" stop-color="#F9D94A" stop-opacity="0"/>
</linearGradient>
<clipPath id="clip0_18_12363">
<rect width="700" height="338.643" fill="white"/>
</clipPath>
<clipPath id="clip1_18_12363">
<rect width="20.1355" height="14.644" fill="white" transform="translate(195.729 205.932)"/>
</clipPath>
<clipPath id="clip2_18_12363">
<rect x="195.729" y="205.932" width="20.1355" height="14.644" rx="1.8305" fill="white"/>
</clipPath>
<clipPath id="clip3_18_12363">
<rect width="20.1355" height="14.644" fill="white" transform="translate(209.457 22.8813)"/>
</clipPath>
<clipPath id="clip4_18_12363">
<rect x="209.457" y="22.8813" width="20.1355" height="14.644" rx="1.8305" fill="white"/>
</clipPath>
<clipPath id="clip5_18_12363">
<rect width="20.1355" height="14.644" fill="white" transform="translate(565.49 241.626)"/>
</clipPath>
<clipPath id="clip6_18_12363">
<rect x="565.49" y="241.626" width="20.1355" height="14.644" rx="1.8305" fill="white"/>
</clipPath>
<clipPath id="clip7_18_12363">
<rect width="20.1355" height="14.644" fill="white" transform="translate(489.949 22.8813)"/>
</clipPath>
<clipPath id="clip8_18_12363">
<rect x="489.949" y="22.8813" width="20.1355" height="14.644" rx="1.8305" fill="white"/>
</clipPath>
<clipPath id="clip9_18_12363">
<rect width="20.1355" height="14.644" fill="white" transform="translate(389.018 98.8472)"/>
</clipPath>
<clipPath id="clip10_18_12363">
<rect width="20.1355" height="14.644" fill="white" transform="translate(612.592 97.9319)"/>
</clipPath>
</defs>
</svg>
