<svg width="12" height="12" viewBox="0 0 12 12" fill="none" xmlns="http://www.w3.org/2000/svg">
<mask id="mask0_18_19989" style="mask-type:luminance" maskUnits="userSpaceOnUse" x="0" y="0" width="12" height="12">
<path d="M12 0H0V12H12V0Z" fill="white"/>
</mask>
<g mask="url(#mask0_18_19989)">
<path fill-rule="evenodd" clip-rule="evenodd" d="M6 0C2.6862 0 0 2.6904 0 6.0102C0 8.6652 1.719 10.9182 4.1034 11.7126C4.4034 11.7678 4.5126 11.5824 4.5126 11.4228C4.5126 11.2806 4.5078 10.902 4.5048 10.401C2.8356 10.764 2.4834 9.5952 2.4834 9.5952C2.211 8.9004 1.8174 8.7156 1.8174 8.7156C1.2726 8.3436 1.8588 8.3508 1.8588 8.3508C2.4606 8.3928 2.7774 8.97 2.7774 8.97C3.3126 9.888 4.182 9.6228 4.5234 9.4692C4.5786 9.081 4.7334 8.8164 4.905 8.6664C3.573 8.5146 2.172 7.9986 2.172 5.6958C2.172 5.04 2.406 4.503 2.7894 4.083C2.7276 3.9312 2.5218 3.3198 2.8482 2.493C2.8482 2.493 3.3522 2.331 4.4982 3.1086C4.98766 2.97511 5.49265 2.90712 6 2.9064C6.51 2.9088 7.023 2.9754 7.5024 3.1086C8.6478 2.331 9.1506 2.4924 9.1506 2.4924C9.4782 3.3198 9.2718 3.9312 9.2106 4.083C9.5946 4.503 9.8274 5.04 9.8274 5.6958C9.8274 8.0046 8.424 8.5128 7.0878 8.6616C7.3032 8.847 7.4946 9.2136 7.4946 9.7746C7.4946 10.5774 7.4874 11.226 7.4874 11.4228C7.4874 11.5836 7.5954 11.7708 7.9002 11.712C9.095 11.3113 10.1336 10.5452 10.8693 9.52205C11.6049 8.49885 12.0005 7.2704 12 6.0102C12 2.6904 9.3132 0 6 0Z" fill="#2E2E2E"/>
</g>
</svg>
