<svg width="24" height="24" viewBox="0 0 24 24" fill="none" xmlns="http://www.w3.org/2000/svg">
<path d="M22 12C22 6.5 17.5 2 12 2C6.5 2 2 6.5 2 12C2 17.5 6.5 22 12 22" stroke="#2E2E2E" stroke-width="1.5" stroke-linecap="round" stroke-linejoin="round"/>
<path d="M8 3H9C7 8.8 7 15.2 9 21H8" stroke="#2E2E2E" stroke-width="1.5" stroke-linecap="round" stroke-linejoin="round"/>
<path d="M15 3C16 5.9 16.5 9 16.5 12" stroke="#2E2E2E" stroke-width="1.5" stroke-linecap="round" stroke-linejoin="round"/>
<path d="M3 16V15C5.9 16 9 16.5 12 16.5" stroke="#2E2E2E" stroke-width="1.5" stroke-linecap="round" stroke-linejoin="round"/>
<path d="M3 9.0002C8.8 7.1002 15.2 7.1002 21 9.0002" stroke="#2E2E2E" stroke-width="1.5" stroke-linecap="round" stroke-linejoin="round"/>
<path d="M15.3516 19.8498V16.7007" stroke="#2E2E2E" stroke-width="1.1247" stroke-linecap="round" stroke-linejoin="round"/>
<path d="M15.4621 22.9989C16.2696 22.9989 16.9242 22.3443 16.9242 21.5368C16.9242 20.7293 16.2696 20.0747 15.4621 20.0747C14.6546 20.0747 14 20.7293 14 21.5368C14 22.3443 14.6546 22.9989 15.4621 22.9989Z" stroke="#2E2E2E" stroke-width="1.1247" stroke-linecap="round" stroke-linejoin="round"/>
<path d="M15.3496 16.7003C16.095 16.7003 16.6993 16.096 16.6993 15.3506C16.6993 14.6052 16.095 14.001 15.3496 14.001C14.6042 14.001 14 14.6052 14 15.3506C14 16.096 14.6042 16.7003 15.3496 16.7003Z" stroke="#2E2E2E" stroke-width="1.1247" stroke-linecap="round" stroke-linejoin="round"/>
<path d="M21.6504 16.7005C22.3958 16.7005 23 16.0962 23 15.3509C23 14.6055 22.3958 14.0012 21.6504 14.0012C20.905 14.0012 20.3008 14.6055 20.3008 15.3509C20.3008 16.0962 20.905 16.7005 21.6504 16.7005Z" stroke="#2E2E2E" stroke-width="1.1247" stroke-linecap="round" stroke-linejoin="round"/>
<path d="M15.4102 19.8495C15.6126 19.0622 16.3324 18.4773 17.1797 18.4848L18.7243 18.4923C19.9014 18.4998 20.9062 17.7425 21.2736 16.6853" stroke="#2E2E2E" stroke-width="1.1247" stroke-linecap="round" stroke-linejoin="round"/>
</svg>
