<svg width="178" height="18" viewBox="0 0 178 18" fill="none" xmlns="http://www.w3.org/2000/svg">
<g clip-path="url(#clip0_18_7492)">
<path d="M89.6972 11.3364C91.6843 11.7504 93.2647 11.0988 94.892 11.1024C96.9475 11.106 99.014 11.0952 101.062 10.9332C103.773 10.7208 106.473 10.3428 109.198 10.3572C113.601 10.3788 117.979 9.79196 122.392 9.96476C124.844 10.0584 127.317 9.86396 129.769 9.82796C132.624 9.78476 135.493 9.79556 138.355 9.75956C141.652 9.71636 144.946 9.90356 148.24 9.89996C151.981 9.89636 155.739 9.86396 159.501 10.17C163.166 10.4652 166.856 10.6776 170.524 10.9872C172.735 11.1744 174.92 11.6244 177.12 11.952C177.39 11.9916 177.688 11.9772 177.562 12.402C177.487 12.6648 177.462 12.8844 177.055 12.8736C173.329 12.7728 169.668 13.5576 165.945 13.6944C163.155 13.7988 160.318 14.076 157.536 14.094C154.954 14.1084 152.362 14.3316 149.763 14.184C146.718 14.0076 143.647 14.2056 140.59 14.3352C137.523 14.4648 134.463 14.4396 131.4 14.418C129.2 14.4036 126.932 14.5404 124.7 14.6664C120.675 14.8932 116.629 14.7888 112.611 15.0948C109.922 15.3 107.218 15.2784 104.533 15.4152C102.535 15.5196 100.443 16.038 98.3659 15.3864C97.6747 15.1704 96.7495 15.8436 95.9287 15.8544C91.868 15.912 87.8431 16.5024 83.7787 16.6068C80.438 16.6932 77.1188 17.3988 73.7815 17.7372C71.4956 17.9676 69.1952 18.1476 66.8912 17.8452C65.4727 17.658 64.6664 16.6572 64.4396 15.444C64.2128 14.2272 65.2532 13.5792 66.2864 13.1292C70.0592 11.4768 74.0947 10.71 78.0476 9.68756C82.5368 8.52836 87.0548 7.42316 91.616 6.60956C93.416 6.28916 95.0431 5.57996 96.7783 5.03996C94.8307 5.16596 92.8795 5.27036 90.9319 5.41796C87.1555 5.70596 83.3864 6.14876 79.6064 6.28556C73.0904 6.51596 66.6356 7.31516 60.152 7.89476C57.7687 8.10716 55.2092 7.97036 52.9556 8.43116C50.2844 8.97836 47.606 8.99636 44.9564 9.43556C41.6624 9.98276 11.0588 13.3308 7.73956 13.7268C5.75596 13.9644 3.76876 14.166 1.79956 14.49C0.906757 14.6376 0.316357 14.4324 0.0679568 13.59C-0.198443 12.6792 0.301957 12.0744 1.13716 11.88C4.07836 11.1852 34.2716 7.30796 37.2524 6.84716C40.892 6.28556 44.546 5.76716 48.2 5.34956C52.1816 4.89596 56.1668 4.38836 60.152 3.95996C66.2647 3.30116 72.4063 2.94836 78.5119 2.20316C80.6143 1.94756 82.7851 1.94396 84.92 1.78556C88.8368 1.49396 92.75 1.12316 96.674 0.867559C100.224 0.637159 103.78 0.489559 107.334 0.349159C110.35 0.226759 113.371 0.143959 116.388 0.079159C118.85 0.028759 121.316 -0.046841 123.771 0.061159C124.581 0.097159 125.456 0.565159 125.478 1.69916C125.496 2.76476 125.287 3.70076 124.142 4.07876C122.446 4.63676 120.65 4.69796 118.908 4.99316C115.2 5.61956 111.51 6.29996 107.841 7.10996C102.027 8.39516 96.2132 9.69116 90.3991 10.9872C90.2624 11.016 90.14 11.1168 89.6972 11.3436V11.3364Z" fill="#F9D94A"/>
</g>
<defs>
<clipPath id="clip0_18_7492">
<rect width="177.592" height="18" fill="white"/>
</clipPath>
</defs>
</svg>
