<svg width="390" height="615" viewBox="0 0 390 615" fill="none" xmlns="http://www.w3.org/2000/svg">
<g clip-path="url(#clip0_18_16805)">
<g opacity="0.07" clip-path="url(#clip1_18_16805)">
<path fill-rule="evenodd" clip-rule="evenodd" d="M25.3648 614.366V534.88H92.7858V614.366H93.4948V534.88H160.916V614.366H161.626V534.88H229.046V614.366H229.756V534.88H297.177V614.366H297.887V534.88H365.307V614.366H366.017V534.88H433.438V614.366H434.147V534.88H513.632V534.17H434.147V466.75H513.632V466.04H434.147V398.619L513.632 398.62V397.91H434.147V330.489H513.632V329.779H434.147V262.359H513.632V261.649H434.147V194.228H513.632V193.519H434.147V126.098H513.632V125.388H434.147V57.9678H513.632V57.2581H434.147V-21.5176H433.438V57.2581H366.017V-21.5176H365.307V57.2581H297.887V-21.5176H297.177V57.2581H229.756V-21.5176H229.046V57.2581H161.626V-21.5176H160.916V57.2581H93.4948V-21.5176H92.7858V57.2581H25.3648V-21.5176H24.6549V57.2581H-42.7653V-21.5176H-43.4752V57.2581H-122.251V57.9678H-43.4752V125.388H-122.251V126.098H-43.4752V193.519H-122.251V194.228H-43.4752V261.649H-122.251V262.359H-43.4752V329.779H-122.251V330.489H-43.4752V397.91H-122.251V398.62H-43.4752V466.04H-122.251V466.75H-43.4752V534.17H-122.251V534.88H-43.4752V614.366H-42.7653V534.88H24.6549V614.366H25.3648ZM92.7858 466.75H25.3648V534.17H92.7858V466.75ZM92.7858 466.04H25.3648V398.62H92.7858V466.04ZM24.6549 534.17V466.75H-42.7653V534.17H24.6549ZM433.438 57.9678V125.388H366.017V57.9678H433.438ZM433.438 126.098V193.519H366.017V126.098H433.438ZM433.438 194.228V261.649H366.017V194.228H433.438ZM433.438 262.359V329.779H366.017V262.359H433.438ZM433.438 330.489V397.91H366.017V330.489H433.438ZM433.438 398.619V466.04H366.017V398.619H433.438ZM433.438 466.75V534.17H366.017V466.75H433.438ZM229.756 534.17H297.177V466.75H229.756V534.17ZM229.756 466.04H297.177V398.62H229.756V466.04ZM297.887 466.04V398.62L365.307 398.619V466.04H297.887ZM229.756 397.91H297.177V330.489H229.756V397.91ZM297.887 397.91V330.489H365.307V397.91H297.887ZM229.756 329.779H297.177V262.359H229.756V329.779ZM297.887 329.779V262.359H365.307V329.779H297.887ZM229.756 261.649H297.177V194.228H229.756V261.649ZM297.887 261.649V194.228H365.307V261.649H297.887ZM229.756 193.519H297.177V126.098H229.756V193.519ZM297.887 193.519V126.098H365.307V193.519H297.887ZM229.756 125.388H297.177V57.9678H229.756V125.388ZM297.887 125.388V57.9678H365.307V125.388H297.887ZM297.887 534.17V466.75H365.307V534.17H297.887ZM161.626 534.17H229.046V466.75H161.626V534.17ZM161.626 466.04H229.046V398.62H161.626V466.04ZM161.626 397.91H229.046V330.489H161.626V397.91ZM161.626 329.779H229.046V262.359H161.626V329.779ZM161.626 261.649H229.046V194.228H161.626V261.649ZM161.626 193.519H229.046V126.098H161.626V193.519ZM161.626 125.388H229.046V57.9678H161.626V125.388ZM160.916 57.9678V125.388H93.4948V57.9678H160.916ZM160.916 126.098V193.519H93.4948V126.098H160.916ZM160.916 194.228V261.649H93.4948V194.228H160.916ZM160.916 262.359V329.779H93.4948V262.359H160.916ZM160.916 330.489V397.91H93.4948V330.489H160.916ZM160.916 398.62V466.04H93.4948V398.62H160.916ZM160.916 466.75V534.17H93.4948V466.75H160.916ZM92.7858 57.9678H25.3648V125.388H92.7858V57.9678ZM24.6549 125.388V57.9678H-42.7653V125.388H24.6549ZM92.7858 126.098H25.3648V193.519H92.7858V126.098ZM24.6549 126.098V193.519H-42.7653V126.098H24.6549ZM92.7858 194.228H25.3648V261.649H92.7858V194.228ZM24.6549 194.228V261.649H-42.7653V194.228H24.6549ZM92.7858 262.359H25.3648V329.779H92.7858V262.359ZM24.6549 262.359V329.779H-42.7653V262.359H24.6549ZM92.7858 330.489H25.3648V397.91H92.7858V330.489ZM24.6549 330.489V397.91H-42.7653V330.489H24.6549ZM-42.7653 398.62H24.6549V466.04H-42.7653V398.62Z" fill="#878787"/>
</g>
<line opacity="0.05" x1="143.147" y1="330.358" x2="165.253" y2="330.358" stroke="url(#paint0_linear_18_16805)" stroke-width="0.884211"/>
<line opacity="0.05" x1="297" y1="194.19" x2="319.106" y2="194.19" stroke="url(#paint1_linear_18_16805)" stroke-width="0.884211"/>
<line opacity="0.05" x1="251.021" y1="465.642" x2="228.916" y2="465.642" stroke="url(#paint2_linear_18_16805)" stroke-width="0.884211"/>
<line opacity="0.05" x1="229.358" y1="375.895" x2="229.358" y2="398" stroke="url(#paint3_linear_18_16805)" stroke-width="0.884211"/>
</g>
<defs>
<linearGradient id="paint0_linear_18_16805" x1="165.253" y1="331.3" x2="143.147" y2="331.3" gradientUnits="userSpaceOnUse">
<stop stop-color="#525252"/>
<stop offset="1" stop-color="white" stop-opacity="0"/>
</linearGradient>
<linearGradient id="paint1_linear_18_16805" x1="319.106" y1="195.132" x2="297" y2="195.132" gradientUnits="userSpaceOnUse">
<stop stop-color="#525252"/>
<stop offset="1" stop-color="white" stop-opacity="0"/>
</linearGradient>
<linearGradient id="paint2_linear_18_16805" x1="228.916" y1="464.7" x2="251.021" y2="464.7" gradientUnits="userSpaceOnUse">
<stop stop-color="#525252"/>
<stop offset="1" stop-color="white" stop-opacity="0"/>
</linearGradient>
<linearGradient id="paint3_linear_18_16805" x1="228.416" y1="398" x2="228.416" y2="375.895" gradientUnits="userSpaceOnUse">
<stop stop-color="#525252"/>
<stop offset="1" stop-color="white" stop-opacity="0"/>
</linearGradient>
<clipPath id="clip0_18_16805">
<rect width="390" height="637" fill="white" transform="translate(0 -22)"/>
</clipPath>
<clipPath id="clip1_18_16805">
<rect width="636.632" height="636.632" fill="white" transform="matrix(-1 0 0 1 513.632 -22)"/>
</clipPath>
</defs>
</svg>
