<svg width="87" height="28" viewBox="0 0 87 28" fill="none" xmlns="http://www.w3.org/2000/svg">
<g clip-path="url(#clip0_18_7444)">
<path d="M81.8375 0.215332H11.6837C9.34521 0.215332 7.37598 2.03072 7.19136 4.33841L1.89905 6.33841C1.12982 6.61533 0.729823 7.50764 1.00675 8.27687C1.16059 8.70764 1.49905 9.0461 1.92982 9.16918L7.16059 10.923V23.2615C7.16059 25.7538 9.19136 27.7846 11.6837 27.7846H81.8375C84.3298 27.7846 86.3606 25.7538 86.3606 23.2615V4.73841C86.3606 2.2461 84.3298 0.215332 81.8375 0.215332Z" fill="#002E47"/>
<path d="M18.2066 7.5075C18.5451 6.95365 19.1912 6.61519 19.8374 6.64596C20.0528 6.64596 20.2374 6.67673 20.4528 6.7075C20.6066 6.73827 20.7912 6.79981 20.9451 6.89211C21.0989 6.95365 21.222 7.04596 21.3451 7.13827C21.4374 7.23058 21.5604 7.32288 21.6528 7.41519C21.8066 7.29211 21.9297 7.13827 22.022 6.98442C22.1451 6.86134 22.2066 6.67673 22.2066 6.52288C22.2066 6.43058 22.1758 6.33827 22.1451 6.24596C22.0835 6.15365 22.022 6.09211 21.9604 6.03058C21.8681 5.96904 21.7758 5.87673 21.6835 5.81519C21.5297 5.72288 21.3758 5.63058 21.222 5.56904C21.0066 5.47673 20.7912 5.41519 20.5758 5.38442C20.2989 5.32288 20.022 5.29211 19.7451 5.29211C19.1912 5.29211 18.6374 5.38442 18.1451 5.59981C17.7143 5.78442 17.3143 6.09211 17.0066 6.46134C16.6989 6.83058 16.4528 7.29211 16.3297 7.75365C16.1758 8.27673 16.0835 8.83058 16.1143 9.38442C16.1143 9.93827 16.1758 10.4921 16.3297 11.0152C16.4528 11.4767 16.6681 11.9075 16.9758 12.3075C17.2835 12.6767 17.6835 12.9537 18.1143 13.1383C18.6374 13.3537 19.1912 13.446 19.7451 13.446C20.022 13.446 20.3297 13.4152 20.6066 13.3844C20.822 13.3229 21.0374 13.2613 21.2528 13.169C21.4066 13.1075 21.5604 13.046 21.6835 12.9537C21.7758 12.8921 21.8374 12.8306 21.9297 12.769C21.9912 12.7075 22.0528 12.6152 22.1143 12.5229C22.1451 12.4306 22.1758 12.369 22.1758 12.2767C22.1758 12.1844 22.1451 12.1229 22.1143 12.0306C22.0835 11.9383 22.022 11.8767 21.9912 11.7844C21.9297 11.6921 21.8681 11.6306 21.8066 11.5383L21.6528 11.3229C21.5912 11.3844 21.4989 11.446 21.3758 11.5383C21.2528 11.6306 21.1297 11.7229 21.0066 11.7844C20.8528 11.8767 20.6989 11.9383 20.5451 11.9998C20.3604 12.0613 20.1451 12.0921 19.9297 12.0921C19.5604 12.0921 19.222 12.0306 18.8835 11.846C18.6066 11.6921 18.3912 11.4767 18.2066 11.2306C18.022 10.9537 17.8989 10.646 17.8374 10.3383C17.7758 9.99981 17.7451 9.63058 17.7451 9.29211C17.7451 8.95365 17.7758 8.61519 17.8374 8.27673C17.8989 8.06134 18.022 7.78442 18.2066 7.5075Z" fill="#002E47"/>
<path d="M19.6221 14C19.0375 14 18.4529 13.877 17.899 13.6616C17.376 13.4462 16.9144 13.1077 16.576 12.677C16.2067 12.2462 15.9606 11.7539 15.8067 11.2C15.6529 10.6154 15.5606 10.0308 15.5913 9.41543C15.5913 8.83082 15.6529 8.21543 15.8375 7.63082C15.9913 7.07697 16.2683 6.58466 16.6067 6.1539C16.976 5.72313 17.4375 5.38466 17.9298 5.16928C18.5144 4.92313 19.1298 4.80005 19.7452 4.83082C20.0529 4.83082 20.3606 4.86159 20.6683 4.92313C20.9144 4.98466 21.1606 5.0462 21.4067 5.13851C21.5913 5.20005 21.776 5.29236 21.9606 5.41543C22.0837 5.47697 22.176 5.56928 22.299 5.66159C22.4221 5.78466 22.5144 5.87697 22.576 6.00005C22.6683 6.1539 22.7298 6.33851 22.7298 6.52313C22.7298 6.80005 22.6067 7.07697 22.4529 7.29236C22.3298 7.4462 22.176 7.63082 22.0221 7.78466C21.8375 7.96928 21.499 7.96928 21.3144 7.7539C21.2221 7.66159 21.1298 7.56928 21.0375 7.50774C20.9452 7.41543 20.8529 7.3539 20.7298 7.32313C20.6067 7.26159 20.4837 7.20005 20.3298 7.16928C20.176 7.13851 20.0221 7.10774 19.8375 7.10774C19.3144 7.07697 18.8837 7.32313 18.6067 7.72313C18.4837 7.93851 18.3913 8.18466 18.3298 8.43082C18.2683 8.73851 18.2375 9.0462 18.2375 9.3539C18.2375 9.66159 18.2683 10 18.3298 10.3077C18.3913 10.5539 18.4837 10.8 18.6067 11.0154C18.7298 11.2 18.9144 11.3539 19.099 11.477C19.3144 11.6 19.5913 11.6616 19.8683 11.6616C20.0529 11.6616 20.2067 11.6308 20.3298 11.6C20.4529 11.5693 20.576 11.5077 20.699 11.4462C20.7913 11.3847 20.9144 11.3231 20.976 11.2616C21.0683 11.1693 21.1606 11.1077 21.2221 11.0462C21.3144 10.9539 21.4683 10.9231 21.5913 10.9231C21.7144 10.9231 21.8375 11.0154 21.9298 11.1077L22.0837 11.2924C22.1452 11.3847 22.2375 11.477 22.299 11.5693C22.3606 11.6924 22.4221 11.7847 22.4529 11.877C22.5144 12 22.5452 12.1539 22.576 12.3077C22.576 12.4924 22.5452 12.6462 22.4529 12.8C22.4529 12.8 22.4529 12.8308 22.4221 12.8308C22.3606 12.9539 22.2683 13.077 22.1452 13.1693C22.0529 13.2616 21.9298 13.3539 21.8375 13.4154C21.6837 13.5077 21.499 13.6 21.3144 13.6616C21.099 13.7539 20.8529 13.8462 20.6067 13.877C20.2683 13.9385 19.9606 13.9693 19.6221 13.9693C19.7144 14.0001 19.6529 14 19.6221 14ZM19.6529 5.8462C19.1913 5.8462 18.7606 5.93851 18.3298 6.12313C17.9606 6.27697 17.6221 6.52313 17.376 6.83082C17.099 7.16928 16.9144 7.53851 16.7913 7.93851C16.6375 8.43082 16.576 8.92313 16.576 9.4462C16.576 9.96928 16.6375 10.4616 16.7606 10.9539C16.8837 11.3539 17.0683 11.7231 17.3144 12.0616C17.5606 12.3693 17.899 12.6154 18.2683 12.7693C18.7298 12.9539 19.1913 13.0462 19.6837 13.0462C19.9606 13.0462 20.2067 13.0154 20.4837 12.9847C20.6683 12.9539 20.8529 12.8924 21.0067 12.8C21.1606 12.7385 21.2529 12.677 21.376 12.6154C21.4375 12.5847 21.4683 12.5539 21.5298 12.4924C21.5606 12.4616 21.5913 12.4308 21.6221 12.4V12.3693C21.5913 12.3077 21.5606 12.2462 21.499 12.1539C21.4067 12.2154 21.2837 12.277 21.1913 12.3385C21.0067 12.4308 20.8221 12.5231 20.6375 12.5847C20.3913 12.6462 20.1452 12.7077 19.899 12.677C19.4683 12.677 19.0375 12.5847 18.6375 12.4C18.299 12.2154 17.9913 11.9385 17.776 11.6308C17.5606 11.2924 17.4067 10.9539 17.3452 10.5539C17.2529 10.1847 17.2221 9.78467 17.2221 9.41543C17.2221 9.0462 17.2529 8.67697 17.3452 8.30774C17.4067 7.93851 17.5606 7.60005 17.7452 7.26159C18.2067 6.5539 19.0067 6.12313 19.8375 6.1539C20.0529 6.1539 20.3298 6.18466 20.576 6.2462C20.7606 6.30774 20.976 6.36928 21.1606 6.46159C21.3144 6.5539 21.4683 6.6462 21.5913 6.73851C21.5913 6.73851 21.5913 6.73851 21.5913 6.70774C21.6529 6.6462 21.6529 6.58466 21.6837 6.52313C21.6529 6.46159 21.6221 6.43082 21.5913 6.40005C21.5298 6.33851 21.4683 6.30774 21.376 6.2462C21.2529 6.1539 21.1298 6.09236 21.0067 6.06159C20.8221 6.00005 20.6375 5.93851 20.4529 5.87697C20.2375 5.8462 19.9913 5.8462 19.7452 5.8462C19.7144 5.8462 19.6837 5.8462 19.6529 5.8462Z" fill="#002E47"/>
<path d="M27.9303 9.7537C27.9303 9.44601 27.8995 9.10755 27.8072 8.79985C27.7457 8.5537 27.5919 8.30755 27.4072 8.12293C27.1919 7.93831 26.9457 7.78447 26.6995 7.72293C26.3611 7.63062 25.9919 7.59985 25.6226 7.59985C25.3457 7.59985 25.038 7.63062 24.7611 7.66139C24.5149 7.69216 24.2688 7.78447 24.0226 7.84601C23.838 7.90755 23.6842 7.99985 23.5303 8.12293C23.438 8.18447 23.3765 8.30755 23.3457 8.43062C23.3457 8.5537 23.4072 8.67678 23.438 8.79985C23.4995 8.9537 23.5919 9.10755 23.6842 9.23062C23.9303 9.07678 24.1765 8.9537 24.4534 8.86139C24.7303 8.73831 25.038 8.70755 25.3457 8.70755C25.6226 8.67678 25.8995 8.73831 26.1149 8.89216C26.2995 9.04601 26.3919 9.29216 26.3611 9.53831V9.7537H26.1149C26.0226 9.7537 25.9303 9.7537 25.838 9.7537C25.5303 9.78447 25.2226 9.81524 24.9149 9.84601C24.6072 9.90755 24.2688 9.99985 23.9919 10.1537C23.7149 10.2768 23.438 10.4922 23.2534 10.7383C23.038 11.0152 22.9457 11.3537 22.9765 11.7229C22.9765 11.9999 23.038 12.2768 23.1303 12.5229C23.2226 12.7383 23.3765 12.9229 23.5611 13.0768C23.7457 13.1999 23.9303 13.2922 24.1457 13.3537C24.3611 13.4152 24.5765 13.446 24.7919 13.446C25.1303 13.446 25.4996 13.3845 25.838 13.2614C26.0842 13.1383 26.3303 12.9845 26.5149 12.7999C26.5457 12.9845 26.638 13.1383 26.7919 13.2614C26.9765 13.3845 27.1919 13.446 27.438 13.4152C27.5611 13.4152 27.6842 13.4152 27.8072 13.3845C27.9303 13.3537 28.0842 13.3229 28.2072 13.2614C27.9919 12.8306 27.8995 12.3691 27.9303 11.9075V9.7537ZM26.4226 11.7845C26.4226 11.846 26.3919 11.9383 26.3303 11.9999C26.2688 12.0922 26.1765 12.1537 26.0842 12.2152C25.9611 12.2768 25.8688 12.3383 25.7457 12.3691C25.6226 12.3999 25.4688 12.4306 25.3149 12.4306C25.0688 12.4614 24.8534 12.3691 24.6688 12.1845C24.5457 12.0306 24.4842 11.8152 24.4842 11.6306C24.4842 11.446 24.5149 11.2922 24.638 11.1383C24.7303 11.0152 24.8534 10.8922 25.0072 10.8306C25.1611 10.7383 25.3457 10.6768 25.5303 10.6768C25.7149 10.646 25.8995 10.6152 26.1149 10.6152H26.2688H26.4226V11.7845Z" fill="#002E47"/>
<path d="M24.8526 13.9692C24.8219 13.9692 24.7911 13.9692 24.7603 13.9692C24.5142 13.9692 24.268 13.9384 23.9911 13.8769C23.7142 13.8154 23.468 13.6923 23.2526 13.5077C23.0065 13.3231 22.7911 13.0461 22.668 12.7692C22.5142 12.4615 22.4526 12.0923 22.4526 11.7538C22.4219 11.2923 22.5757 10.8615 22.8219 10.4923C23.068 10.1846 23.3449 9.93844 23.6834 9.78459C23.5296 9.78459 23.3757 9.72305 23.2834 9.59997C23.1603 9.44613 23.0372 9.26151 22.9449 9.04613C22.8834 8.89228 22.8219 8.70767 22.7911 8.52305C22.7911 8.49228 22.7911 8.46151 22.7911 8.43074C22.8219 8.15382 22.9757 7.90767 23.1911 7.75382C23.3757 7.63074 23.5603 7.50767 23.8065 7.41536C24.0834 7.32305 24.3603 7.23074 24.6372 7.19997C24.9449 7.13844 25.2834 7.10767 25.5911 7.10767C25.9911 7.10767 26.3911 7.13844 26.7911 7.26151C27.1296 7.35382 27.468 7.53843 27.7142 7.78459C27.9603 8.03074 28.1449 8.33844 28.2372 8.6769C28.3296 9.04613 28.3911 9.38459 28.3603 9.75382V11.9692V12C28.3296 12.3692 28.4219 12.7384 28.5757 13.0769C28.6372 13.2 28.6372 13.3538 28.6065 13.4769C28.5449 13.6 28.4526 13.7231 28.3296 13.7538C28.1757 13.8154 28.0219 13.8769 27.8372 13.9077C27.6834 13.9384 27.5296 13.9384 27.3757 13.9384C27.0372 13.9692 26.7296 13.8769 26.4526 13.6923C26.4526 13.6923 26.4219 13.6923 26.4219 13.6615C26.3911 13.6307 26.3296 13.6 26.2988 13.5384C26.2065 13.6 26.0834 13.6615 25.9603 13.6923C25.6526 13.9077 25.2526 13.9692 24.8526 13.9692ZM24.668 10.4615C24.5142 10.4923 24.3911 10.5538 24.268 10.6461C24.0526 10.7692 23.8372 10.9231 23.7142 11.1077C23.5911 11.2923 23.5296 11.5077 23.5296 11.7538V11.7846C23.5296 12 23.5603 12.1846 23.6526 12.3692C23.7142 12.4923 23.8065 12.6154 23.9296 12.7384C24.0526 12.8307 24.1757 12.8923 24.3296 12.9231C24.4834 12.9846 24.668 12.9846 24.8219 12.9846C25.0065 12.9846 25.1911 12.9846 25.3449 12.9231C24.9757 12.9538 24.6065 12.8 24.3296 12.5231L24.2988 12.4923C24.1142 12.2461 23.9911 11.9384 23.9911 11.6307C23.9911 11.3538 24.0526 11.0769 24.2372 10.8615C24.3296 10.7077 24.4834 10.5538 24.668 10.4615ZM27.068 12.8923C27.1603 12.9538 27.2834 12.9846 27.3757 12.9538H27.4065H27.4988C27.4065 12.6154 27.3757 12.2769 27.4065 11.9384V9.75382C27.4065 9.4769 27.3757 9.19997 27.3142 8.95382C27.2526 8.79997 27.1911 8.64613 27.0372 8.49228C26.9142 8.3692 26.7296 8.2769 26.5449 8.21536C26.2372 8.12305 25.9296 8.09228 25.6219 8.09228C25.3449 8.09228 25.0988 8.12305 24.8219 8.15382C24.6065 8.18459 24.3911 8.24613 24.1757 8.33844C24.0526 8.3692 23.9603 8.43074 23.8372 8.52305C23.8372 8.55382 23.868 8.58459 23.868 8.58459C23.9911 8.52305 24.1142 8.46151 24.268 8.39997C24.6065 8.24613 24.9757 8.18459 25.3449 8.18459C25.7142 8.15382 26.0834 8.24613 26.3911 8.46151C26.4219 8.49228 26.4526 8.49228 26.4834 8.52305C26.7603 8.79997 26.9142 9.1692 26.8834 9.5692V9.75382C26.8834 9.93844 26.7911 10.0615 26.668 10.1538C26.8219 10.2461 26.9142 10.4 26.9142 10.5846V11.7846V11.8154C26.8834 12 26.8219 12.1846 26.6988 12.3077V12.3384C26.8834 12.4 27.0065 12.5538 27.0372 12.7384C27.0065 12.8 27.0372 12.8615 27.068 12.8923ZM25.068 11.8461C25.1296 11.9077 25.1911 11.9077 25.2834 11.9077H25.3449C25.4372 11.9077 25.5296 11.9077 25.6219 11.8769C25.7142 11.8461 25.7757 11.8154 25.868 11.7846C25.8988 11.7538 25.9296 11.7538 25.9603 11.7231V11.1384C25.8372 11.1384 25.7449 11.1692 25.6219 11.1692C25.4988 11.2 25.3757 11.2307 25.2526 11.2923C25.1603 11.3231 25.0988 11.3846 25.068 11.4461C25.0372 11.4769 25.0065 11.5384 25.0372 11.6V11.6307C25.0065 11.7231 25.0065 11.7846 25.068 11.8461ZM25.3449 9.23074C25.0988 9.23074 24.8834 9.26151 24.668 9.35382C24.5449 9.41536 24.4219 9.44613 24.2988 9.50767C24.4834 9.44613 24.668 9.38459 24.8526 9.35382C25.1603 9.29228 25.4372 9.26151 25.7449 9.26151C25.6526 9.23074 25.5296 9.19997 25.4065 9.19997C25.3757 9.19997 25.3757 9.19997 25.3449 9.19997V9.23074Z" fill="#002E47"/>
<path d="M33.9606 8.21524C33.776 7.99985 33.5298 7.84601 33.2529 7.7537C32.976 7.66139 32.6991 7.59985 32.4222 7.59985C32.0837 7.59985 31.7145 7.66139 31.4068 7.81524C31.1914 7.93831 30.976 8.09216 30.8222 8.27678C30.7914 8.09216 30.6683 7.93831 30.4837 7.84601C30.2683 7.7537 30.0529 7.72293 29.8068 7.72293H29.5914C29.5298 7.72293 29.4683 7.72293 29.4375 7.7537L29.2837 7.78447V15.846H30.8837V12.9229C30.9145 12.9845 30.9452 13.0152 31.0068 13.046C31.0991 13.1075 31.1606 13.1999 31.2837 13.2306C31.4068 13.2922 31.5606 13.3537 31.7145 13.3845C31.8991 13.446 32.1145 13.4768 32.2991 13.446C32.576 13.446 32.8529 13.3845 33.1298 13.2922C33.4068 13.1999 33.6529 13.0152 33.8683 12.7999C34.1145 12.5229 34.2991 12.2152 34.4222 11.8768C34.576 11.3845 34.6375 10.8922 34.6375 10.3691C34.6375 9.90755 34.576 9.47678 34.4529 9.04601C34.3298 8.76908 34.176 8.49216 33.9606 8.21524ZM32.6683 11.7537C32.4837 12.0614 32.1452 12.246 31.8068 12.2152C31.6222 12.2152 31.4375 12.1845 31.2529 12.0922C31.1298 12.0306 31.0068 11.9691 30.9145 11.8768V9.38447C30.9145 9.23062 30.976 9.07678 31.0991 8.98447C31.2837 8.83062 31.5298 8.76908 31.776 8.79985C31.9606 8.79985 32.1452 8.83062 32.3298 8.92293C32.4837 9.01524 32.6068 9.10755 32.6991 9.26139C32.7914 9.41524 32.8529 9.59985 32.8837 9.78447C32.9145 9.99985 32.9452 10.2152 32.9452 10.4306C32.976 10.9229 32.8837 11.3537 32.6683 11.7537Z" fill="#002E47"/>
<path d="M30.8838 16.3077H29.2838C29.0069 16.3077 28.7915 16.0923 28.7915 15.8154V7.75385C28.7915 7.5077 28.9761 7.29231 29.2223 7.26154L29.3761 7.23077C29.4377 7.23077 29.4992 7.20001 29.5915 7.20001H29.8377C30.1146 7.20001 30.4223 7.26154 30.6992 7.38462C30.7915 7.41539 30.853 7.47693 30.9453 7.53847C31.0377 7.47693 31.0992 7.44616 31.1915 7.38462C31.5915 7.16924 32.0223 7.07693 32.453 7.1077C32.7607 7.1077 33.0992 7.16924 33.4069 7.29231C33.7453 7.41539 34.053 7.63077 34.2992 7.9077C34.5761 8.21539 34.7607 8.55385 34.8838 8.95385C35.0377 9.44616 35.0992 9.93847 35.0992 10.4308C35.0992 10.9846 35.0377 11.5385 34.853 12.0615C34.73 12.4923 34.4838 12.8615 34.2069 13.2C33.93 13.4769 33.6223 13.6923 33.253 13.8154C32.9453 13.9385 32.6069 13.9692 32.2684 14C32.0223 14 31.7761 13.9692 31.53 13.9077C31.4684 13.8769 31.4069 13.8769 31.3453 13.8462V15.8154C31.4069 16.0923 31.1607 16.3077 30.8838 16.3077ZM29.8069 15.3231H30.3915V12.9231C30.3915 12.7077 30.5146 12.5231 30.73 12.4615C30.7607 12.4615 30.7607 12.4615 30.7915 12.4308C30.73 12.3692 30.6377 12.3385 30.5761 12.2769C30.453 12.1846 30.3915 12.0308 30.3915 11.9077V9.41539C30.3915 9.16924 30.4838 8.95385 30.6377 8.76924C30.4838 8.7077 30.3915 8.58462 30.33 8.40001C30.33 8.36924 30.2992 8.33847 30.2684 8.3077C30.1453 8.24616 29.9915 8.21539 29.8377 8.21539H29.8069V15.3231ZM31.3453 12.6769C31.4069 12.7077 31.4377 12.7692 31.4992 12.7692C31.6223 12.8308 31.7146 12.8615 31.8377 12.8923C31.9915 12.9231 32.1453 12.9539 32.2684 12.9539C32.5146 12.9539 32.73 12.9231 32.9453 12.8308C33.1607 12.7692 33.3453 12.6462 33.4992 12.4615C33.6838 12.2462 33.8377 12 33.93 11.7231C34.053 11.2923 34.1146 10.8308 34.1146 10.4C34.1146 9.96924 34.0838 9.60001 33.9607 9.20001C33.8684 8.95385 33.7453 8.73847 33.5915 8.52308C33.4684 8.36924 33.2838 8.24616 33.0992 8.18462C32.8838 8.12308 32.6684 8.06154 32.453 8.06154C32.1761 8.06154 31.8992 8.12308 31.6838 8.24616C31.6838 8.24616 31.653 8.24616 31.653 8.27693H31.8377C32.1146 8.27693 32.3607 8.33847 32.6069 8.46154C32.853 8.58462 33.0377 8.76924 33.1607 8.98462C33.2838 9.20001 33.3761 9.44616 33.4069 9.69231C33.4377 9.93847 33.4684 10.1846 33.4684 10.4308C33.4992 10.9539 33.3761 11.5077 33.13 12V12.0308C32.853 12.4923 32.3607 12.7692 31.8069 12.7385C31.653 12.7385 31.4992 12.7077 31.3453 12.6769ZM31.8069 11.7231C31.9915 11.7231 32.1453 11.6615 32.2377 11.5077C32.3915 11.2 32.4838 10.8308 32.453 10.4615V10.4308C32.453 10.2462 32.453 10.0615 32.3915 9.87693C32.3607 9.75385 32.33 9.63077 32.2684 9.5077C32.2377 9.44616 32.1761 9.38462 32.1146 9.35385C32.0223 9.32308 31.93 9.29231 31.8069 9.29231C31.7761 9.29231 31.7453 9.29231 31.7453 9.29231C31.653 9.29231 31.53 9.29231 31.4377 9.35385V9.38462V11.6C31.4684 11.6 31.4684 11.6308 31.4992 11.6308C31.5607 11.7231 31.6838 11.7231 31.8069 11.7231C31.7761 11.7231 31.7761 11.7231 31.8069 11.7231Z" fill="#002E47"/>
<path d="M38.8831 11.8462C38.8523 11.8769 38.8216 11.9077 38.76 11.9385C38.6985 12 38.637 12.0308 38.5446 12.0615C38.4523 12.1231 38.36 12.1538 38.2677 12.1846C38.1754 12.2154 38.0523 12.2462 37.96 12.2462C37.5293 12.2462 37.2831 11.9692 37.2831 11.4154V8.92308H38.9139V7.75385H37.2831V6.92308C37.2831 6.76923 37.2523 6.58462 37.1908 6.46154C37.1293 6.33846 37.037 6.24615 36.9446 6.18462C36.8523 6.12308 36.7293 6.06154 36.6062 6.03077C36.4831 6 36.36 6 36.237 6H36.0523C35.9908 6 35.9293 6 35.8677 6.03077L35.6831 6.06154V11.5077C35.6831 11.6923 35.6831 11.8462 35.7139 12.0308C35.7139 12.1846 35.7754 12.3692 35.8062 12.5231C35.8985 12.8308 36.1139 13.0769 36.36 13.2615C36.6985 13.4769 37.0985 13.5692 37.4985 13.5385C37.7446 13.5385 37.96 13.5077 38.1754 13.4769C38.36 13.4462 38.5446 13.3538 38.7293 13.2615C38.8523 13.2 38.9754 13.1077 39.0677 12.9846C39.16 12.8923 39.1908 12.8 39.1908 12.6769C39.1908 12.5538 39.16 12.4308 39.0985 12.3077C39.0677 12.1231 38.9754 11.9692 38.8831 11.8462Z" fill="#002E47"/>
<path d="M37.4371 14.0001C36.9755 14.0001 36.5447 13.8771 36.1755 13.6309C35.8063 13.3847 35.5294 13.0463 35.4063 12.6155C35.3447 12.4309 35.2832 12.2155 35.2832 12.0001C35.2524 11.8155 35.2524 11.6001 35.2524 11.4155V6.00013C35.2524 5.75398 35.4371 5.5386 35.6832 5.50783L35.8678 5.47706C35.9294 5.47706 35.9909 5.44629 36.0832 5.44629H36.2986C36.4524 5.44629 36.6063 5.44629 36.7601 5.47706C36.9447 5.50783 37.1294 5.60013 37.2832 5.69244C37.4678 5.81552 37.5909 5.96937 37.6832 6.18475C37.7755 6.40014 37.8371 6.64629 37.8371 6.89244V7.20013H38.9755C39.2524 7.20013 39.4678 7.41552 39.4678 7.69244V8.92321C39.4678 9.20013 39.2524 9.41552 38.9755 9.41552H37.8371V11.4155C37.8371 11.7232 37.8986 11.7232 37.9909 11.7232C38.0524 11.7232 38.0832 11.7232 38.1447 11.6924C38.2063 11.6617 38.2678 11.6309 38.3294 11.6001C38.3601 11.5694 38.4217 11.5386 38.4524 11.5078C38.4832 11.4771 38.514 11.4463 38.5447 11.4463C38.6371 11.354 38.7909 11.2924 38.9447 11.2924C39.0986 11.2924 39.2217 11.3848 39.314 11.5078C39.4371 11.6617 39.5294 11.8463 39.6217 12.0001C39.714 12.1848 39.7755 12.3694 39.7755 12.5848C39.7755 12.8309 39.6832 13.0771 39.5294 13.2309C39.4063 13.3847 39.2524 13.5078 39.0371 13.6001C38.8217 13.7232 38.6063 13.7847 38.3601 13.8463C38.114 13.9078 37.8371 13.9386 37.5601 13.9386C37.5294 14.0001 37.4678 14.0001 37.4371 14.0001ZM36.2063 6.46167V11.4463C36.2063 11.6001 36.2063 11.754 36.2371 11.8771V11.9078C36.2371 12.0309 36.2678 12.154 36.3294 12.2771C36.3909 12.4617 36.5447 12.6463 36.6986 12.7694C36.9447 12.9232 37.2217 12.9847 37.5294 12.954H37.5601C37.7447 12.954 37.9601 12.9232 38.1447 12.8924C38.2986 12.8617 38.4217 12.8001 38.5755 12.7386C38.6371 12.7078 38.7294 12.6463 38.7601 12.5848C38.7601 12.554 38.7601 12.554 38.7601 12.5232C38.6678 12.554 38.5755 12.6155 38.4832 12.6463C38.3294 12.7078 38.1755 12.7386 38.0217 12.7386C37.2832 12.7386 36.8524 12.2463 36.8524 11.4155V8.92321C36.8524 8.64629 37.0678 8.4309 37.3447 8.4309H38.4832V8.24629H37.3447C37.0678 8.24629 36.8524 8.0309 36.8524 7.75398V6.92321C36.8524 6.8309 36.8524 6.7386 36.7909 6.64629C36.7909 6.61552 36.7601 6.58475 36.6986 6.55398C36.6678 6.52321 36.6063 6.49244 36.5447 6.49244C36.4524 6.49244 36.3601 6.46167 36.2678 6.46167H36.2063Z" fill="#002E47"/>
<path d="M44.422 8.36908C44.2066 8.12293 43.9604 7.93831 43.6835 7.81524C43.3451 7.66139 42.9451 7.59985 42.5758 7.59985C42.2374 7.59985 41.8989 7.66139 41.5912 7.7537C41.2835 7.87678 40.9758 8.03062 40.7297 8.27678C40.4527 8.52293 40.2374 8.83062 40.1143 9.16908C39.9604 9.56908 39.8681 9.99985 39.8681 10.4306C39.8374 10.9537 39.9297 11.446 40.1143 11.9383C40.2681 12.3075 40.5143 12.6152 40.7912 12.8922C41.0681 13.1383 41.4066 13.2922 41.7451 13.3845C42.1143 13.4768 42.4528 13.5383 42.822 13.5383C43.1912 13.5383 43.5297 13.5075 43.8681 13.4152C44.1143 13.3537 44.3604 13.2306 44.5758 13.1075C44.7604 13.0152 44.8527 12.8306 44.8835 12.646C44.8835 12.4922 44.822 12.3383 44.7297 12.1845C44.6374 12.0306 44.5451 11.8768 44.422 11.7229L44.1758 11.9383C44.0835 12.0306 43.9912 12.0922 43.8681 12.1537C43.7451 12.2152 43.5912 12.2768 43.4681 12.3075C43.3143 12.3383 43.1297 12.3691 42.9451 12.3691C42.5143 12.3999 42.1143 12.246 41.8374 11.9383C41.5912 11.6306 41.4681 11.2614 41.4374 10.8614H44.8835C44.8835 10.7999 44.8835 10.7691 44.9143 10.7075C44.9143 10.646 44.9143 10.5845 44.9143 10.4922C44.9143 10.3999 44.9143 10.3691 44.9143 10.2768V10.1229C44.9143 9.81524 44.8835 9.50755 44.7912 9.19985C44.7604 8.86139 44.6066 8.58447 44.422 8.36908ZM41.4681 9.93831C41.4374 9.59985 41.5604 9.29216 41.7451 9.01524C41.9297 8.79985 42.2374 8.67678 42.5143 8.67678C42.822 8.64601 43.1297 8.76908 43.3143 9.01524C43.4681 9.29216 43.5604 9.63062 43.5297 9.93831H41.4681Z" fill="#002E47"/>
<path d="M42.9144 14.0307C42.8837 14.0307 42.8529 14.0307 42.8529 14.0307C42.4529 14.0307 42.0529 13.9692 41.6529 13.8769C41.2221 13.7538 40.8529 13.5692 40.5144 13.2923C40.1452 12.9846 39.8683 12.5846 39.6837 12.1538C39.4683 11.6 39.376 11.0154 39.376 10.4615C39.376 9.9692 39.4375 9.47689 39.6529 9.01535C39.8067 8.61535 40.0837 8.24612 40.3914 7.93843C40.6991 7.6615 41.0375 7.44612 41.4375 7.32304C41.8067 7.19997 42.2067 7.13843 42.576 7.13843C43.0067 7.13843 43.4683 7.19997 43.8683 7.38458C44.2375 7.53843 44.5452 7.78458 44.7914 8.0615C45.0375 8.33843 45.1914 8.70766 45.3144 9.04612C45.4067 9.38458 45.4683 9.75381 45.4683 10.0923V10.6769C45.4683 10.7692 45.4683 10.8615 45.4375 10.923C45.4067 11.1692 45.1914 11.3538 44.9452 11.3538H44.7914C44.8221 11.3538 44.8221 11.3846 44.8221 11.4153C44.9452 11.5692 45.0683 11.7538 45.1914 11.9384C45.3144 12.123 45.376 12.3384 45.4067 12.5846V12.6769C45.376 13.0461 45.1606 13.3538 44.8529 13.5384C44.6067 13.723 44.3298 13.8461 44.0221 13.9077C43.6837 13.9692 43.3144 14.0307 42.9144 14.0307ZM42.8529 13.0153C43.1606 13.0153 43.4683 12.9846 43.776 12.8923C43.9606 12.8307 44.1452 12.7692 44.3298 12.6461C44.3606 12.6461 44.3606 12.6154 44.3914 12.6154C44.4221 12.6154 44.4221 12.5846 44.4221 12.5846C44.4221 12.523 44.3914 12.4615 44.3606 12.4307C44.2991 12.4615 44.2375 12.523 44.1452 12.5538C43.9914 12.6461 43.8067 12.7077 43.6529 12.7384C43.4375 12.8 43.2221 12.8307 43.0067 12.8307C42.4529 12.8615 41.8991 12.6461 41.4991 12.2461L41.4683 12.2154C41.1606 11.8154 40.976 11.3538 40.9452 10.8615C40.9452 10.7384 40.976 10.5846 41.0991 10.4923C41.1298 10.4615 41.1606 10.4307 41.2221 10.4C41.0683 10.3077 40.9452 10.1538 40.9452 9.9692C40.9144 9.50766 41.0683 9.07689 41.3452 8.70766C41.6529 8.3692 42.0529 8.18458 42.4837 8.18458C42.9452 8.15381 43.4067 8.3692 43.6837 8.73843L43.7144 8.7692C43.9298 9.13843 44.0221 9.53843 43.9914 9.9692C43.9914 10.0923 43.9298 10.2154 43.8375 10.3077H44.4221V10.0923C44.4221 9.81535 44.3914 9.5692 44.2991 9.29227C44.2375 9.04612 44.1144 8.8615 43.9914 8.67689C43.8375 8.49227 43.6529 8.3692 43.4375 8.27689C43.1606 8.15381 42.8529 8.09227 42.5452 8.12304C42.2375 8.12304 41.9606 8.18458 41.7144 8.24612C41.4683 8.33843 41.2221 8.4615 41.0375 8.64612C40.8221 8.83074 40.6683 9.07689 40.5452 9.35381C40.4221 9.69227 40.3298 10.0615 40.3606 10.4307C40.3606 10.8923 40.4221 11.3538 40.576 11.7538C40.6991 12.0307 40.8837 12.3077 41.1298 12.4923C41.3452 12.6769 41.5914 12.8 41.8683 12.8923C42.2067 12.9846 42.5144 13.0153 42.8529 13.0153ZM42.2683 11.5692C42.4529 11.7538 42.6991 11.8461 42.9452 11.8154H43.0067C43.1298 11.8154 43.2529 11.8154 43.376 11.7538C43.4683 11.723 43.5914 11.6923 43.6837 11.6307C43.7452 11.6 43.8375 11.5384 43.8991 11.4769L44.1144 11.2923H42.1144C42.1452 11.4154 42.2067 11.4769 42.2683 11.5692ZM42.0529 9.44612H42.9452C42.9144 9.38458 42.9144 9.35381 42.8837 9.29227C42.8221 9.19997 42.6991 9.1692 42.576 9.1692C42.5452 9.1692 42.5144 9.1692 42.4837 9.1692C42.3298 9.1692 42.2067 9.23073 42.1144 9.32304C42.1144 9.38458 42.0837 9.41535 42.0529 9.44612Z" fill="#002E47"/>
<path d="M49.6214 7.72293C49.5291 7.69216 49.406 7.66139 49.3137 7.63062C49.2214 7.63062 49.0984 7.59985 49.006 7.59985C48.8522 7.59985 48.6984 7.63062 48.5753 7.66139C48.4522 7.69216 48.3291 7.7537 48.206 7.84601C48.1137 7.90755 47.9907 7.99985 47.9291 8.09216C47.8676 8.1537 47.806 8.24601 47.7445 8.33831C47.7137 8.1537 47.5599 7.96908 47.406 7.87678C47.1907 7.78447 46.9753 7.72293 46.7599 7.72293H46.5445C46.483 7.72293 46.4214 7.72293 46.3907 7.7537L46.2368 7.78447V13.5075H47.8368V9.69216C47.8368 9.50755 47.9291 9.32293 48.083 9.19985C48.2676 9.04601 48.483 8.98447 48.6984 8.98447C48.8522 8.98447 49.006 9.01524 49.1599 9.07678C49.3137 9.13831 49.4368 9.23062 49.5599 9.32293C49.6522 9.13831 49.7445 8.9537 49.806 8.76908C49.8984 8.58447 49.9291 8.36908 49.9291 8.18447C49.9291 8.09216 49.8984 7.99985 49.8368 7.90755C49.7753 7.81524 49.7137 7.7537 49.6214 7.72293Z" fill="#002E47"/>
<path d="M47.7754 14H46.1754C45.8985 14 45.6831 13.7846 45.6831 13.5077V7.75383C45.6831 7.50767 45.8677 7.29229 46.1139 7.26152L46.2677 7.23075C46.3293 7.23075 46.4216 7.19998 46.4831 7.19998H46.7293C47.0369 7.19998 47.3139 7.26152 47.5908 7.3846C47.6523 7.41537 47.7139 7.44613 47.7754 7.50767C47.837 7.4769 47.8677 7.44614 47.9293 7.3846C48.0831 7.29229 48.237 7.23075 48.3908 7.16921C48.6062 7.10767 48.7908 7.0769 49.0062 7.0769C49.1293 7.0769 49.2523 7.0769 49.3754 7.10767C49.5293 7.13844 49.6831 7.16921 49.837 7.23075C49.9908 7.32306 50.1139 7.41537 50.2062 7.56921C50.3293 7.72306 50.3908 7.93844 50.3908 8.15383C50.3908 8.43075 50.3293 8.6769 50.237 8.92306C50.1754 9.10767 50.0523 9.32306 49.96 9.53844C49.8985 9.66152 49.7754 9.75383 49.6216 9.7846C49.4677 9.81537 49.3139 9.7846 49.1908 9.69229C49.0985 9.63075 49.0062 9.56921 48.9139 9.50767C48.8523 9.4769 48.76 9.4769 48.6677 9.4769H48.6369C48.5446 9.4769 48.4523 9.50767 48.36 9.56921C48.2985 9.59998 48.2985 9.66152 48.2985 9.69229V13.4769C48.2985 13.7538 48.0523 14 47.7754 14ZM46.6985 12.9846H47.2831V9.69229C47.2831 9.35383 47.437 9.01537 47.6831 8.79998C47.6523 8.79998 47.6216 8.79998 47.6216 8.79998C47.437 8.76921 47.2831 8.61537 47.2216 8.39998C47.2216 8.33844 47.1908 8.30767 47.1293 8.2769C47.0062 8.21537 46.8523 8.1846 46.7293 8.1846H46.6985V12.9846ZM48.6677 8.46152C48.8831 8.46152 49.0985 8.49229 49.2831 8.5846V8.55383C49.3446 8.39998 49.3754 8.2769 49.3754 8.15383C49.3139 8.12306 49.2831 8.12306 49.2216 8.12306C49.1293 8.12306 49.0677 8.09229 48.9754 8.09229C48.8831 8.09229 48.7908 8.09229 48.6985 8.12306C48.6062 8.15383 48.5139 8.1846 48.4216 8.24613C48.36 8.2769 48.2985 8.33844 48.237 8.39998C48.2062 8.43075 48.1754 8.49229 48.1446 8.52306C48.3293 8.49229 48.4831 8.46152 48.6677 8.46152Z" fill="#002E47"/>
<path d="M54.1766 7.72293C54.0843 7.69216 53.992 7.66139 53.8997 7.63062C53.8074 7.63062 53.6843 7.59985 53.592 7.59985C53.4381 7.59985 53.2843 7.63062 53.1612 7.66139C53.0381 7.69216 52.9151 7.7537 52.792 7.84601C52.6997 7.90755 52.5766 7.99985 52.5151 8.09216C52.4535 8.1537 52.392 8.24601 52.3304 8.33831C52.2997 8.1537 52.1766 7.96908 51.992 7.87678C51.8074 7.78447 51.5612 7.72293 51.3458 7.72293H51.1304C51.0689 7.72293 51.0074 7.72293 50.9766 7.7537L50.8228 7.78447V13.5075H52.4228V9.69216C52.4228 9.50755 52.5151 9.32293 52.6689 9.19985C52.8535 9.04601 53.0689 8.98447 53.2843 8.98447C53.4381 8.98447 53.592 9.01524 53.7458 9.07678C53.8997 9.13831 54.0228 9.23062 54.1458 9.32293C54.2381 9.13831 54.3304 8.9537 54.392 8.76908C54.4843 8.58447 54.5151 8.36908 54.5151 8.18447C54.5151 8.09216 54.4843 7.99985 54.4228 7.90755C54.3304 7.81524 54.2381 7.7537 54.1766 7.72293Z" fill="#002E47"/>
<path d="M52.3599 14H50.7599C50.483 14 50.2676 13.7846 50.2676 13.5077V7.75383C50.2676 7.50767 50.4522 7.29229 50.6984 7.26152L50.8522 7.23075C50.9137 7.23075 51.006 7.19998 51.0676 7.19998H51.3137C51.6214 7.19998 51.8983 7.26152 52.1753 7.3846C52.2368 7.41537 52.2983 7.44613 52.3599 7.50767C52.4214 7.4769 52.4522 7.44614 52.5137 7.3846C52.6676 7.29229 52.8214 7.23075 52.9753 7.16921C53.1907 7.10767 53.3753 7.0769 53.5907 7.0769C53.7137 7.0769 53.8368 7.0769 53.9599 7.10767C54.1137 7.13844 54.2676 7.16921 54.3907 7.23075C54.5445 7.29229 54.6983 7.41537 54.7907 7.53844L54.8214 7.56921C54.9445 7.72306 55.006 7.93844 54.9753 8.15383C54.9753 8.43075 54.9137 8.6769 54.8214 8.92306C54.7599 9.10767 54.6368 9.32306 54.5445 9.53844C54.483 9.66152 54.3599 9.75383 54.206 9.7846C54.0522 9.81537 53.8984 9.7846 53.7753 9.66152C53.683 9.59998 53.5907 9.53844 53.4983 9.4769C53.4368 9.44613 53.3445 9.44614 53.2522 9.44614C53.1291 9.44614 53.0368 9.4769 52.9445 9.53844C52.9137 9.56921 52.883 9.59998 52.883 9.66152V13.4461C52.8522 13.7538 52.6368 14 52.3599 14ZM51.2522 12.9846H51.8368V9.69229C51.8368 9.35383 51.9907 9.04614 52.2368 8.79998C52.206 8.79998 52.1753 8.79998 52.1445 8.79998C51.9599 8.76921 51.806 8.61537 51.7445 8.39998C51.7445 8.36921 51.7137 8.30767 51.6522 8.30767C51.5291 8.24613 51.3753 8.21537 51.2522 8.21537H51.2214V12.9846H51.2522ZM53.2522 8.46152C53.4368 8.46152 53.6522 8.49229 53.8368 8.5846C53.8368 8.5846 53.8368 8.5846 53.8368 8.55383C53.8983 8.43075 53.9291 8.2769 53.9291 8.15383C53.9291 8.15383 53.9291 8.15383 53.8983 8.15383C53.8676 8.12306 53.806 8.12306 53.7445 8.12306C53.6522 8.12306 53.5907 8.09229 53.4983 8.09229C53.406 8.09229 53.3137 8.09229 53.2214 8.12306C53.1291 8.15383 53.0368 8.1846 52.9445 8.24613C52.883 8.2769 52.8214 8.33844 52.7599 8.39998C52.7291 8.43075 52.6983 8.49229 52.6676 8.52306C52.8214 8.46152 53.006 8.43075 53.1907 8.43075C53.2522 8.46152 53.2522 8.46152 53.2522 8.46152Z" fill="#002E47"/>
<path d="M59.8986 11.9691V9.7537C59.8986 9.44601 59.8678 9.10755 59.7755 8.79985C59.714 8.5537 59.5601 8.30755 59.3755 8.12293C59.1601 7.93831 58.914 7.78447 58.6678 7.72293C58.3293 7.63062 57.9601 7.59985 57.5909 7.59985C57.314 7.59985 57.0063 7.63062 56.7293 7.66139C56.4832 7.69216 56.237 7.78447 55.9909 7.84601C55.8063 7.90755 55.6524 7.99985 55.4986 8.12293C55.4063 8.18447 55.314 8.30755 55.314 8.43062C55.314 8.5537 55.3447 8.67678 55.4063 8.79985C55.4678 8.9537 55.5601 9.10755 55.6832 9.23062C55.9293 9.07678 56.1755 8.9537 56.4524 8.86139C56.7293 8.73831 57.037 8.70755 57.3447 8.70755C57.6216 8.67678 57.8986 8.73831 58.114 8.89216C58.2986 9.04601 58.3909 9.29216 58.3601 9.53831V9.7537H58.114C58.0216 9.7537 57.9293 9.7537 57.837 9.7537C57.5293 9.78447 57.2217 9.81524 56.914 9.84601C56.6063 9.90755 56.2678 9.99985 55.9909 10.1537C55.714 10.2768 55.437 10.4922 55.2524 10.7383C55.037 11.0152 54.9447 11.3537 54.9755 11.7229C54.9755 11.9999 55.037 12.2768 55.1293 12.5229C55.2216 12.7383 55.3755 12.9229 55.5601 13.046C55.7447 13.1691 55.9293 13.2614 56.1447 13.3229C56.3601 13.3845 56.5755 13.4152 56.7909 13.4152C57.1293 13.4152 57.4986 13.3537 57.837 13.2306C58.0832 13.1075 58.3293 12.9537 58.514 12.7691C58.5447 12.9537 58.637 13.1075 58.7909 13.2306C58.9755 13.3537 59.1909 13.4152 59.437 13.3845C59.5601 13.3845 59.6832 13.3845 59.8063 13.3537C59.9293 13.3229 60.0832 13.2922 60.2063 13.2306C59.9601 12.8922 59.8678 12.4306 59.8986 11.9691ZM58.3909 11.7845C58.3909 11.846 58.3601 11.9383 58.2986 11.9999C58.237 12.0922 58.1447 12.1537 58.0524 12.2152C57.9293 12.2768 57.837 12.3383 57.714 12.3691C57.5909 12.3999 57.437 12.4306 57.2832 12.4306C57.037 12.4614 56.8216 12.3691 56.637 12.1845C56.514 12.0306 56.4524 11.8152 56.4524 11.6306C56.4524 11.446 56.4832 11.2922 56.6063 11.1383C56.6986 11.0152 56.8216 10.8922 56.9755 10.8306C57.1293 10.7383 57.314 10.6768 57.4986 10.6768C57.6832 10.646 57.8678 10.6152 58.0832 10.6152H58.237H58.3909V11.7845Z" fill="#002E47"/>
<path d="M56.8224 13.9692C56.7916 13.9692 56.7608 13.9692 56.7301 13.9692C56.4839 13.9692 56.207 13.9384 55.9608 13.8461C55.6839 13.7846 55.4377 13.6615 55.2224 13.4769C54.9762 13.2923 54.7916 13.0461 54.6377 12.7692C54.4839 12.4615 54.4224 12.0923 54.4224 11.7538C54.3916 11.2923 54.5454 10.8615 54.7916 10.4923C55.0377 10.1846 55.3147 9.93844 55.6531 9.78459C55.4993 9.78459 55.3454 9.72305 55.2531 9.59997C55.0993 9.44613 55.007 9.23074 54.9147 9.04613C54.8531 8.89228 54.7916 8.70767 54.7608 8.52305C54.7608 8.49228 54.7608 8.46151 54.7608 8.43074C54.7916 8.15382 54.9147 7.90767 55.1301 7.75382C55.3147 7.59997 55.5301 7.4769 55.7454 7.41536C55.9916 7.32305 56.2685 7.23074 56.5454 7.19997C56.8531 7.13844 57.1916 7.10767 57.4993 7.10767C57.8993 7.10767 58.2993 7.13844 58.6993 7.26151C59.0377 7.35382 59.3762 7.53843 59.6224 7.78459C59.8685 8.03074 60.0531 8.33844 60.1454 8.6769C60.2377 9.04613 60.2993 9.38459 60.2685 9.75382V11.9384V11.9692C60.2377 12.3384 60.2993 12.7077 60.4839 13.0461C60.5454 13.1692 60.5454 13.3231 60.5147 13.4461C60.4531 13.5692 60.3608 13.6923 60.2377 13.7231C60.0839 13.7846 59.9301 13.8461 59.7454 13.8769C59.5916 13.9077 59.4377 13.9077 59.2839 13.9384C58.9454 13.9692 58.6377 13.8769 58.3608 13.6923C58.3608 13.6923 58.33 13.6923 58.33 13.6615C58.2993 13.6307 58.2377 13.6 58.207 13.5384C58.1147 13.6 57.9916 13.6615 57.8685 13.6923C57.6224 13.8769 57.2224 13.9692 56.8224 13.9692ZM56.6377 10.4615C56.4839 10.4923 56.3608 10.5538 56.207 10.6461C55.9608 10.7692 55.7762 10.9231 55.6224 11.1077C55.4993 11.2923 55.4377 11.5077 55.4377 11.7538V11.7846C55.4377 12 55.4685 12.1846 55.5608 12.3692C55.6224 12.4923 55.7147 12.6154 55.8377 12.7077C55.9608 12.8 56.0839 12.8615 56.2377 12.8923C56.3916 12.9538 56.5762 12.9538 56.7301 12.9538C56.8839 12.9538 57.0377 12.9538 57.1916 12.9231C56.8531 12.9231 56.5147 12.8 56.2685 12.5231L56.2377 12.4923C56.0224 12.2461 55.9301 11.9384 55.9301 11.6307C55.9301 11.3538 55.9916 11.0769 56.1762 10.8615C56.33 10.6769 56.4839 10.5538 56.6377 10.4615ZM59.0377 12.8615C59.1301 12.9231 59.2531 12.9538 59.3454 12.9231H59.3762H59.4685C59.3762 12.5846 59.3454 12.2461 59.3762 11.9077V9.72305C59.3762 9.44613 59.3454 9.1692 59.2839 8.92305C59.2224 8.7692 59.1608 8.61536 59.007 8.46151C58.8839 8.33844 58.6993 8.24613 58.5147 8.18459C58.207 8.09228 57.8993 8.06151 57.5916 8.06151C57.3147 8.06151 57.0685 8.09228 56.7916 8.12305C56.5762 8.15382 56.3608 8.21536 56.1454 8.30767C56.0224 8.33844 55.8993 8.39997 55.807 8.49228C55.807 8.52305 55.8377 8.55382 55.8377 8.55382C55.9608 8.49228 56.0839 8.43074 56.2377 8.3692C56.5762 8.21536 56.9454 8.15382 57.3147 8.15382C57.6839 8.12305 58.0531 8.21536 58.3608 8.43074C58.3916 8.46151 58.4224 8.46151 58.4224 8.49228C58.6993 8.7692 58.8531 9.13844 58.8224 9.53844V9.72305C58.8224 9.90767 58.7301 10.0307 58.607 10.1231C58.7608 10.2154 58.8531 10.3692 58.8531 10.5538V11.7538V11.7846C58.8531 11.9692 58.7608 12.1538 58.6377 12.2769V12.3077C58.7916 12.3692 58.9147 12.5231 58.9454 12.7077C58.9762 12.8 59.007 12.8307 59.0377 12.8615ZM57.0377 11.8461C57.0993 11.9077 57.1608 11.9077 57.2531 11.9077H57.3147C57.407 11.9077 57.4993 11.9077 57.5916 11.8769C57.6839 11.8461 57.7454 11.8154 57.8377 11.7846C57.8685 11.7538 57.8993 11.7538 57.9301 11.7231V11.1384C57.807 11.1384 57.7147 11.1692 57.5916 11.1692C57.4685 11.2 57.3454 11.2307 57.2224 11.2923C57.1608 11.3231 57.0685 11.3846 57.0377 11.4461C57.007 11.4769 56.9762 11.5384 57.007 11.6V11.6307C56.9762 11.7231 57.007 11.7846 57.0377 11.8461ZM57.3147 9.23074C57.0685 9.23074 56.8531 9.26151 56.6377 9.35382C56.5147 9.41536 56.3916 9.44613 56.2685 9.50767C56.4531 9.44613 56.6377 9.38459 56.8224 9.35382C57.1301 9.29228 57.407 9.26151 57.7147 9.26151C57.6224 9.23074 57.4993 9.19997 57.3762 9.19997C57.3762 9.23074 57.3454 9.23074 57.3147 9.23074Z" fill="#002E47"/>
<path d="M8.51418 9.8155L2.42188 7.75396L10.9142 4.55396L14.945 3.04626L10.9142 15.8155L8.51418 9.8155Z" fill="#002E47"/>
<path d="M2.42188 7.78459H7.71418H10.9142V4.61536L2.42188 7.78459Z" fill="#FF9D28"/>
<path d="M10.9146 4.61548V15.877L14.9453 3.10779L10.9146 4.61548Z" fill="#69C3EA"/>
<path d="M10.9139 7.78467H7.71387L10.9139 15.877V7.78467Z" fill="#004F80"/>
<path d="M2.42188 7.78467L8.51418 9.87698L7.71418 7.78467H2.42188Z" fill="#E14748"/>
<path d="M21.8989 12.8925C21.8373 12.954 21.745 13.0155 21.6527 13.0771C21.5296 13.1694 21.3758 13.2309 21.222 13.2925C21.0066 13.3848 20.7912 13.4155 20.5758 13.4771C20.2989 13.5386 19.9912 13.5694 19.7143 13.5386C19.1604 13.5386 18.6066 13.4463 18.0835 13.2309C17.6527 13.0463 17.2527 12.7694 16.945 12.4001C16.6373 12.0309 16.422 11.6001 16.2989 11.1078C16.145 10.5848 16.0835 10.0309 16.0835 9.47707C16.0835 8.92323 16.145 8.36938 16.2989 7.8463C16.422 7.38477 16.6681 6.92323 16.9758 6.554C17.2835 6.18477 17.6835 5.87707 18.1143 5.69246C18.6066 5.47707 19.1604 5.38477 19.7143 5.38477C19.9912 5.38477 20.2681 5.41553 20.545 5.47707C20.7604 5.53861 20.9758 5.60015 21.1912 5.66169C21.345 5.72323 21.4989 5.81554 21.6527 5.90784C21.745 5.96938 21.8373 6.03092 21.9296 6.12323C21.9912 6.18477 22.0527 6.27707 22.1143 6.33861C22.1758 6.43092 22.2066 6.52323 22.1758 6.61553C22.1758 6.80015 22.1143 6.954 21.9912 7.10784C21.8681 7.26169 21.745 7.41553 21.622 7.53861C21.5296 7.4463 21.4066 7.354 21.3143 7.26169C21.1912 7.16938 21.0681 7.07707 20.9143 7.01553C20.7604 6.92323 20.5758 6.86169 20.422 6.83092C20.2066 6.76938 20.022 6.73861 19.8066 6.76938C19.1297 6.73861 18.5143 7.07707 18.1758 7.63092C18.022 7.90784 17.8989 8.18477 17.8373 8.52323C17.7758 8.86169 17.745 9.20015 17.745 9.53861C17.745 9.87707 17.7758 10.2463 17.8373 10.5848C17.8989 10.8925 18.022 11.2001 18.2066 11.4771C18.3912 11.7232 18.6066 11.9386 18.8835 12.0925C19.4066 12.3386 19.9604 12.4001 20.5143 12.2463C20.6681 12.1848 20.8527 12.1232 21.0066 12.0617C21.1296 12.0002 21.2527 11.9078 21.3758 11.8155C21.4681 11.7232 21.5604 11.6617 21.6527 11.6002L21.8066 11.8155C21.8681 11.8771 21.9297 11.9694 21.9912 12.0617C22.0527 12.154 22.0835 12.2463 22.1143 12.3078C22.145 12.3694 22.1758 12.4617 22.1758 12.554C22.1758 12.6463 22.145 12.7386 22.1143 12.8001C22.0527 12.7694 21.9912 12.8309 21.8989 12.8925Z" fill="white"/>
<path d="M27.9299 11.9999C27.8992 12.4615 27.9915 12.923 28.2069 13.3538C28.0838 13.4153 27.9607 13.4461 27.8069 13.4769C27.6838 13.5076 27.5607 13.5076 27.4376 13.5076C27.2222 13.5076 26.9761 13.4769 26.7915 13.3538C26.6376 13.2307 26.5453 13.0769 26.5146 12.8922C26.3299 13.0769 26.0838 13.2307 25.8376 13.3538C25.4992 13.4769 25.1607 13.5384 24.7915 13.5384C24.5761 13.5384 24.3607 13.5076 24.1453 13.4461C23.9299 13.3845 23.7453 13.2922 23.5915 13.1692C23.4069 13.0153 23.253 12.8307 23.1607 12.6461C23.0376 12.3999 22.9761 12.123 23.0069 11.8461C23.0069 11.5076 23.0992 11.1692 23.2838 10.8615C23.4684 10.6153 23.7146 10.3999 23.9915 10.2769C24.2684 10.123 24.6069 10.0307 24.9146 9.96916C25.2223 9.90762 25.5299 9.87685 25.8376 9.87685H26.1146H26.3607V9.66147C26.3915 9.41532 26.2992 9.19993 26.1146 9.01532C25.8684 8.86147 25.6222 8.79993 25.3453 8.8307C25.0376 8.8307 24.7299 8.89224 24.453 8.98455C24.1761 9.10762 23.9299 9.2307 23.6838 9.35378C23.5607 9.2307 23.4684 9.07685 23.4069 8.92301C23.3453 8.79993 23.3146 8.67685 23.3146 8.55378C23.3146 8.4307 23.4069 8.30762 23.4992 8.24609C23.653 8.12301 23.8069 8.0307 23.9915 7.96916C24.2376 7.87685 24.4838 7.81532 24.7299 7.78455C25.0069 7.72301 25.3146 7.69224 25.5915 7.72301C25.9607 7.72301 26.3299 7.75378 26.6684 7.84609C26.9453 7.90762 27.1915 8.06147 27.3761 8.24609C27.5607 8.4307 27.7146 8.67685 27.7761 8.92301C27.8684 9.2307 27.8992 9.53839 27.8992 9.87685L27.9299 11.9999ZM26.4222 10.6461H26.2684C26.2069 10.6461 26.1453 10.6461 26.1146 10.6461C25.9299 10.6461 25.7146 10.6769 25.5299 10.7076C25.3453 10.7384 25.1915 10.7999 25.0069 10.8615C24.853 10.923 24.7299 11.0461 24.6376 11.1692C24.5453 11.323 24.4838 11.5076 24.4838 11.6922C24.4838 11.9076 24.5453 12.0922 24.6684 12.2461C24.8222 12.4307 25.0684 12.4922 25.3146 12.4922C25.4684 12.4922 25.5915 12.4615 25.7453 12.4307C25.8684 12.3999 25.9915 12.3384 26.0838 12.2769C26.1761 12.2153 26.2684 12.1538 26.3299 12.0615C26.3915 11.9999 26.4222 11.9384 26.4222 11.8461V10.6461Z" fill="white"/>
<path d="M30.8529 8.33846C31.0068 8.15384 31.2221 8 31.4375 7.87692C31.7452 7.72307 32.0837 7.63077 32.4529 7.66154C32.7298 7.66154 33.0068 7.72307 33.2837 7.81538C33.5606 7.90769 33.776 8.0923 33.9914 8.27692C34.2068 8.52307 34.3914 8.83077 34.4837 9.13846C34.6068 9.56923 34.6683 10.0308 34.6683 10.4615C34.6683 10.9846 34.6068 11.4769 34.4529 11.9692C34.3298 12.3077 34.1452 12.6154 33.8991 12.8923C33.6837 13.1077 33.4375 13.2923 33.1606 13.3846C32.8837 13.4769 32.6068 13.5077 32.3298 13.5385C32.1452 13.5385 31.9298 13.5077 31.7452 13.4769C31.5914 13.4461 31.4375 13.3846 31.3145 13.2923C31.2221 13.2308 31.1298 13.1692 31.0375 13.1077C31.0068 13.0769 30.9452 13.0154 30.9145 12.9846V15.8769H29.3145V7.81538L29.4683 7.78461C29.5298 7.78461 29.5914 7.75384 29.6221 7.75384H29.8375C30.0529 7.75384 30.2991 7.78461 30.5145 7.87692C30.6683 8 30.7914 8.15384 30.8529 8.33846ZM32.9452 10.4923C32.9452 10.2769 32.9145 10.0615 32.8837 9.84615C32.8529 9.66154 32.7914 9.47692 32.6991 9.32307C32.6068 9.16923 32.4837 9.04615 32.3298 8.98461C32.1452 8.8923 31.9606 8.86153 31.776 8.86153C31.5298 8.83077 31.2837 8.8923 31.0991 9.04615C30.976 9.13846 30.9145 9.2923 30.9145 9.44615V11.9385C31.0068 12.0308 31.1298 12.0923 31.2529 12.1538C31.4375 12.2462 31.6221 12.2769 31.8068 12.2769C32.176 12.3077 32.5145 12.1231 32.6683 11.8154C32.8837 11.4154 32.976 10.9538 32.9452 10.4923Z" fill="white"/>
<path d="M35.8369 12.5231C35.7754 12.3692 35.7446 12.1846 35.7446 12.0308C35.7446 11.8462 35.7139 11.6923 35.7139 11.5077V6.06154L35.8985 6.03077C35.96 6.03077 36.0216 6 36.0831 6H36.2677C36.3908 6 36.5139 6 36.6369 6.03077C36.76 6.06154 36.8831 6.09231 36.9754 6.18462C37.0677 6.24615 37.16 6.36923 37.2216 6.46154C37.2831 6.61538 37.3139 6.76923 37.3139 6.92308V7.75385H38.9446V8.92308H37.3139V11.4154C37.3139 11.9692 37.5293 12.2462 37.9908 12.2462C38.0831 12.2462 38.2062 12.2154 38.2985 12.1846C38.3908 12.1538 38.4831 12.1231 38.5754 12.0615C38.6369 12.0308 38.7293 11.9692 38.7908 11.9385C38.8216 11.9077 38.8831 11.8769 38.9139 11.8462C39.0062 12 39.0985 12.1231 39.1908 12.3077C39.2523 12.4308 39.2831 12.5231 39.2831 12.6769C39.2831 12.8 39.2523 12.8923 39.16 12.9846C39.0677 13.1077 38.9446 13.2 38.8216 13.2615C38.6369 13.3538 38.4831 13.4154 38.2677 13.4769C38.0523 13.5385 37.8062 13.5692 37.5908 13.5385C37.1908 13.5692 36.7908 13.4769 36.4523 13.2615C36.1446 13.0769 35.96 12.8308 35.8369 12.5231Z" fill="white"/>
<path d="M43.0066 12.3693C43.1912 12.3693 43.345 12.3386 43.5297 12.3078C43.6527 12.277 43.8066 12.2155 43.9297 12.1539C44.0527 12.0924 44.145 12.0309 44.2374 11.9386L44.4835 11.7232C44.6066 11.877 44.6989 12.0309 44.7912 12.1847C44.8835 12.3078 44.945 12.4616 44.945 12.6462C44.9143 12.8309 44.822 13.0155 44.6373 13.1078C44.422 13.2616 44.1758 13.3539 43.9297 13.4155C43.5912 13.5078 43.222 13.5693 42.8835 13.5386C42.5143 13.5386 42.145 13.477 41.8066 13.3847C41.4681 13.2924 41.1297 13.1386 40.8527 12.8924C40.545 12.6462 40.3297 12.3386 40.1758 11.9693C39.9912 11.5078 39.8989 10.9847 39.9297 10.4616C39.9297 10.0309 39.9912 9.60009 40.1758 9.20009C40.2989 8.86163 40.5143 8.55394 40.7912 8.30778C41.0373 8.0924 41.345 7.90778 41.6527 7.78471C41.9604 7.6924 42.2989 7.63086 42.6373 7.63086C43.0066 7.63086 43.4066 7.6924 43.745 7.84624C44.022 7.96932 44.2989 8.15394 44.4835 8.40009C44.6681 8.64624 44.822 8.8924 44.9143 9.20009C45.0066 9.50778 45.0374 9.81548 45.0374 10.1232V10.277V10.4924C45.0374 10.4924 45.0374 10.6462 45.0374 10.7078C45.0374 10.7693 45.0374 10.8001 45.0066 10.8616H41.5297C41.5604 11.2616 41.6835 11.6309 41.9297 11.9386C42.145 12.2462 42.5758 12.4001 43.0066 12.3693ZM43.5297 10.0001C43.5297 9.6924 43.4681 9.35394 43.3143 9.07701C43.1297 8.83086 42.822 8.67701 42.5143 8.73855C42.2066 8.73855 41.9297 8.86163 41.745 9.07701C41.5297 9.35394 41.4374 9.66163 41.4681 10.0001H43.5297Z" fill="white"/>
<path d="M47.7445 8.36932C47.806 8.27701 47.8676 8.21547 47.9291 8.12317C48.0214 8.03086 48.1137 7.93855 48.206 7.87701C48.3291 7.81548 48.4522 7.75394 48.5753 7.6924C48.7291 7.63086 48.8522 7.63086 49.006 7.63086C49.0984 7.63086 49.2214 7.63086 49.3137 7.66163C49.406 7.66163 49.5291 7.6924 49.6214 7.75394C49.7137 7.78471 49.7753 7.84624 49.8368 7.93855C49.8984 8.03086 49.9291 8.12317 49.9291 8.21548C49.9291 8.43086 49.8676 8.61548 49.806 8.80009C49.7445 8.98471 49.6522 9.16932 49.5599 9.35394C49.4368 9.26163 49.3137 9.16932 49.1599 9.10778C49.006 9.04624 48.8522 9.01547 48.6984 9.01547C48.483 9.01547 48.2676 9.07701 48.083 9.23086C47.9291 9.35394 47.8368 9.53855 47.8368 9.72317V13.5386H46.2368V7.81547L46.3907 7.78471C46.4522 7.78471 46.5137 7.75394 46.5445 7.75394H46.7599C46.9753 7.75394 47.2214 7.78471 47.406 7.90778C47.5907 8.03086 47.7137 8.18471 47.7445 8.36932Z" fill="white"/>
<path d="M52.2689 8.36932C52.3305 8.27701 52.392 8.21547 52.4535 8.12317C52.5459 8.03086 52.6382 7.96932 52.7305 7.87701C52.8535 7.81548 52.9766 7.75394 53.0997 7.6924C53.2535 7.63086 53.3766 7.63086 53.5305 7.63086C53.6228 7.63086 53.7459 7.63086 53.8382 7.66163C53.9305 7.66163 54.0228 7.6924 54.1151 7.75394C54.2074 7.78471 54.2689 7.84624 54.3305 7.93855C54.392 8.03086 54.4228 8.12317 54.4228 8.21548C54.4228 8.43086 54.3612 8.61548 54.2997 8.80009C54.2382 8.98471 54.1459 9.16932 54.0535 9.35394C53.9305 9.26163 53.8074 9.16932 53.6535 9.10778C53.4997 9.04624 53.3459 9.01547 53.192 9.01547C52.9766 9.01547 52.7612 9.07701 52.5766 9.23086C52.4228 9.35394 52.3305 9.53855 52.3305 9.72317V13.5386H50.7305V7.81547L50.8843 7.78471C50.9459 7.78471 51.0074 7.75394 51.0382 7.75394H51.2535C51.4689 7.75394 51.7151 7.78471 51.8997 7.90778C52.1151 8.00009 52.2382 8.18471 52.2689 8.36932Z" fill="white"/>
<path d="M59.8997 11.9999C59.8689 12.4615 59.9612 12.923 60.1766 13.3538C60.0535 13.4153 59.9304 13.4461 59.7766 13.4769C59.6535 13.5076 59.5304 13.5076 59.4074 13.5076C59.192 13.5076 58.9458 13.4769 58.7612 13.3538C58.6074 13.2307 58.5151 13.0769 58.4843 12.8922C58.2997 13.0769 58.0535 13.2307 57.8074 13.3538C57.4689 13.4769 57.1304 13.5384 56.7612 13.5384C56.5458 13.5384 56.3304 13.5076 56.1151 13.4461C55.8997 13.3845 55.7151 13.2922 55.5304 13.1692C55.3458 13.0461 55.192 12.8615 55.0997 12.6461C54.9766 12.3999 54.9151 12.123 54.9458 11.8461C54.9151 11.5076 55.0381 11.1692 55.2228 10.8615C55.4074 10.6153 55.6535 10.3999 55.9304 10.2769C56.2074 10.123 56.5458 10.0307 56.8535 9.96916C57.1612 9.90762 57.4689 9.87685 57.7766 9.87685H58.0535H58.3304V9.66147C58.3612 9.41532 58.2689 9.19993 58.0843 9.01532C57.8381 8.86147 57.592 8.79993 57.3151 8.8307C57.0074 8.8307 56.6997 8.89224 56.4228 8.98455C56.1458 9.10762 55.8997 9.2307 55.6535 9.35378C55.5304 9.2307 55.4381 9.07685 55.3766 8.92301C55.3151 8.79993 55.2843 8.67685 55.2843 8.55378C55.2843 8.4307 55.3766 8.30762 55.4689 8.24609C55.6228 8.12301 55.7766 8.0307 55.9612 7.96916C56.2074 7.87685 56.4535 7.81532 56.6997 7.78455C56.9766 7.72301 57.2843 7.69224 57.5612 7.72301C57.9304 7.72301 58.2997 7.75378 58.6381 7.84609C58.9151 7.90762 59.1612 8.06147 59.3458 8.24609C59.5304 8.4307 59.6843 8.67685 59.7458 8.92301C59.8381 9.2307 59.8689 9.53839 59.8689 9.87685L59.8997 11.9999ZM58.392 10.6461H58.2381C58.1766 10.6461 58.1151 10.6461 58.0843 10.6461C57.8997 10.6461 57.6843 10.6769 57.4997 10.7076C57.3151 10.7384 57.1612 10.7999 56.9766 10.8615C56.8228 10.923 56.6997 11.0461 56.6074 11.1692C56.5151 11.323 56.4535 11.4769 56.4535 11.6615C56.4535 11.8769 56.5151 12.0615 56.6381 12.2153C56.792 12.3999 57.0381 12.4615 57.2843 12.4615C57.4381 12.4615 57.5612 12.4307 57.7151 12.3999C57.8381 12.3692 57.9612 12.3076 58.0535 12.2461C58.1458 12.1845 58.2381 12.123 58.2997 12.0307C58.3612 11.9692 58.392 11.9076 58.392 11.8153V10.6461Z" fill="white"/>
<path d="M27.96 22.677C27.8677 22.677 27.7446 22.6462 27.6523 22.6155L26.6369 22.0924C26.5754 22.0616 26.5446 22.0616 26.4831 22.0616C26.4215 22.0616 26.36 22.0616 26.3292 22.0924L25.3139 22.6155C25.2215 22.677 25.0985 22.7078 25.0062 22.677C24.8215 22.677 24.6369 22.5847 24.5139 22.4616C24.3908 22.3078 24.3292 22.1232 24.36 21.9386L24.5446 20.8001C24.5754 20.677 24.5139 20.5847 24.4523 20.4924L23.6215 19.6924C23.4369 19.5078 23.3754 19.2616 23.4677 19.0155C23.5292 18.7693 23.7446 18.6155 23.9908 18.5539L25.1292 18.3693C25.2523 18.3386 25.3446 18.277 25.4062 18.1847L25.8985 17.1693C26.0523 16.8309 26.4523 16.7078 26.7908 16.8616C26.9139 16.9232 27.0369 17.0462 27.0985 17.1693L27.6215 18.1847C27.6831 18.277 27.7754 18.3693 27.8985 18.3693L29.0369 18.5232C29.2831 18.5539 29.4985 18.7386 29.56 18.9847C29.6215 19.2309 29.56 19.477 29.3754 19.6616L28.5139 20.4924C28.4215 20.5847 28.3908 20.677 28.4215 20.8001L28.6062 21.9386C28.6369 22.1232 28.6062 22.3386 28.4831 22.4924C28.3292 22.6155 28.1446 22.7078 27.96 22.677Z" fill="#FF9D28"/>
<path d="M26.4839 16.9538C26.6685 16.9538 26.8531 17.0769 26.9454 17.2307L27.4377 18.2461C27.4993 18.4 27.6531 18.4923 27.807 18.523L28.9454 18.6769C29.2224 18.7077 29.407 18.9846 29.3762 19.2615C29.3454 19.3846 29.3147 19.4769 29.2224 19.5384L28.3916 20.3384C28.2685 20.4615 28.207 20.6153 28.2377 20.8L28.4224 21.9077C28.4531 22.1846 28.2685 22.4307 27.9916 22.4923C27.8993 22.4923 27.7762 22.4923 27.6839 22.4307L26.6685 21.9077C26.5147 21.8153 26.3301 21.8153 26.207 21.9077L25.2531 22.4615C25.007 22.5846 24.6993 22.4923 24.5762 22.2153C24.5147 22.123 24.5147 22.0307 24.5147 21.9384L24.6993 20.8307C24.7301 20.6769 24.6685 20.4923 24.5454 20.3692L23.7147 19.5692C23.4993 19.3846 23.4993 19.0461 23.7147 18.8615C23.807 18.7692 23.8993 18.7384 23.9916 18.7077L25.1301 18.5538C25.2839 18.523 25.4377 18.4307 25.4993 18.2769L25.9916 17.2615C26.1147 17.0769 26.2993 16.9538 26.4839 16.9538ZM26.4839 16.6461C26.1762 16.6461 25.8685 16.8307 25.7454 17.1077L25.2531 18.123C25.2224 18.1846 25.1608 18.2153 25.0993 18.2153L23.9608 18.3692C23.6531 18.4 23.407 18.6153 23.3147 18.923C23.2224 19.2307 23.2839 19.5384 23.5301 19.7538L24.3608 20.5538C24.4224 20.5846 24.4224 20.6769 24.4224 20.7384L24.207 21.8769C24.1762 22.123 24.2377 22.3692 24.3916 22.5538C24.5454 22.7384 24.7608 22.8615 25.007 22.8615C25.1301 22.8615 25.2839 22.8307 25.3762 22.7692L26.3916 22.2153C26.4531 22.1846 26.5147 22.1846 26.5762 22.2153L27.5916 22.7384C27.7147 22.8 27.8377 22.8307 27.9608 22.8307C28.207 22.8307 28.4224 22.7077 28.5762 22.523C28.7301 22.3384 28.7916 22.0923 28.7608 21.8461L28.5762 20.7384C28.5762 20.6769 28.5762 20.6154 28.6377 20.5538L29.4377 19.7846C29.6531 19.5692 29.7454 19.2307 29.6531 18.9538C29.5608 18.6461 29.3147 18.4307 29.007 18.4L27.8685 18.2461C27.807 18.2461 27.7454 18.1846 27.7147 18.1538L27.2224 17.1384C27.0685 16.8307 26.7916 16.6461 26.4839 16.6461Z" fill="#FF9D28"/>
<path d="M63.4063 22.7386C63.3755 22.7386 63.3447 22.7079 63.3447 22.6771V5.32326C63.3447 5.29249 63.3755 5.26172 63.4063 5.26172C63.437 5.26172 63.4678 5.29249 63.4678 5.32326V22.6771C63.4678 22.7079 63.437 22.7386 63.4063 22.7386Z" fill="#68C5ED"/>
<path d="M72.9146 16.4H72.0223V17.9693H69.8685V16.4H66.6377V14.8L70.0223 9.84619H72.0531V14.7693H72.9454V16.4H72.9146ZM69.8377 14.7693V13.8154C69.8377 13.6308 69.8377 13.3847 69.8685 13.1077C69.8685 12.8 69.8992 12.6462 69.8992 12.6462H69.8377C69.7146 12.9231 69.5608 13.2 69.4069 13.4462L68.5146 14.7693H69.8377Z" fill="#68C5ED"/>
<path d="M73.561 17.0464C73.561 16.7079 73.6533 16.431 73.8687 16.2464C74.0841 16.0618 74.361 15.9695 74.761 15.9695C75.1303 15.9695 75.4072 16.0618 75.5918 16.2464C75.7764 16.431 75.8995 16.7079 75.8995 17.0464C75.8995 17.3849 75.8072 17.631 75.5918 17.8156C75.3764 18.0003 75.0995 18.0926 74.761 18.0926C74.3918 18.0926 74.1149 18.0003 73.8995 17.8156C73.6533 17.6618 73.561 17.3849 73.561 17.0464Z" fill="#68C5ED"/>
<path d="M79.7141 9.72314C80.5756 9.72314 81.2218 9.90776 81.7141 10.2462C82.1756 10.5847 82.4218 11.077 82.4218 11.7231C82.4218 12.1539 82.2987 12.5231 82.0833 12.8616C81.868 13.2001 81.4987 13.477 81.0064 13.7231C81.6218 14.0616 82.0218 14.4001 82.268 14.7385C82.5141 15.077 82.6372 15.4462 82.6372 15.8462C82.6372 16.5539 82.391 17.1385 81.868 17.5385C81.3449 17.9385 80.6064 18.1231 79.6833 18.1231C78.7295 18.1231 77.991 17.9385 77.4987 17.5385C77.0064 17.1385 76.7295 16.5847 76.7295 15.877C76.7295 15.4155 76.8526 15.0155 77.068 14.677C77.2833 14.3385 77.6833 14.0308 78.2064 13.7847C77.7756 13.5078 77.468 13.2001 77.2526 12.8616C77.068 12.5231 76.9449 12.1539 76.9449 11.7847C76.9449 11.1693 77.191 10.677 77.6833 10.3385C78.2064 9.90776 78.8833 9.72314 79.7141 9.72314ZM78.7603 15.7539C78.7603 15.9693 78.8526 16.1539 79.0064 16.3078C79.1603 16.4616 79.4064 16.5231 79.6833 16.5231C80.3295 16.5231 80.668 16.277 80.668 15.8155C80.668 15.6308 80.6064 15.4462 80.4526 15.2924C80.2987 15.1078 80.0526 14.9231 79.6833 14.7078C79.3449 14.8924 79.1295 15.0462 78.9756 15.2308C78.8218 15.3539 78.7603 15.5385 78.7603 15.7539ZM79.7141 11.3231C79.5295 11.3231 79.3756 11.3847 79.2218 11.477C79.0987 11.6001 79.0372 11.7231 79.0372 11.9078C79.0372 12.2155 79.2526 12.5231 79.6833 12.7385C79.9603 12.5847 80.1141 12.4616 80.2372 12.3078C80.3295 12.1847 80.391 12.0308 80.391 11.877C80.391 11.6924 80.3295 11.5693 80.2064 11.4462C80.0526 11.3847 79.8987 11.3231 79.7141 11.3231Z" fill="#68C5ED"/>
<path d="M34.3309 16.9539C34.5155 16.9539 34.7001 17.077 34.7924 17.2309L35.2847 18.2462C35.3463 18.4001 35.5001 18.4924 35.654 18.5232L36.7924 18.677C37.0694 18.7078 37.254 18.9847 37.2232 19.2616C37.1924 19.3847 37.1617 19.477 37.0694 19.5385L36.2386 20.3385C36.1155 20.4616 36.054 20.6155 36.0847 20.8001L36.2693 21.9078C36.3309 22.1847 36.1463 22.4616 35.8693 22.4924C35.8386 22.4924 35.8078 22.4924 35.777 22.4924C35.6847 22.4924 35.6232 22.4616 35.5309 22.4309L34.5155 21.9078C34.3617 21.8155 34.177 21.8155 34.054 21.9078L33.0386 22.4309C32.7924 22.5539 32.4847 22.4616 32.3617 22.2155C32.3001 22.1232 32.3001 22.0001 32.3001 21.877L32.4847 20.7693C32.5155 20.6155 32.454 20.4309 32.3309 20.3078L31.5309 19.5385C31.3155 19.3539 31.3155 19.0155 31.5309 18.8309C31.6232 18.7385 31.7155 18.7078 31.8078 18.677L32.9463 18.5232C33.1001 18.4924 33.254 18.4001 33.3155 18.2462L33.8078 17.2309C33.9617 17.077 34.1463 16.9539 34.3309 16.9539ZM34.3309 16.6462C34.0232 16.6462 33.7463 16.8309 33.5924 17.1078L33.1001 18.1232C33.0694 18.1847 33.0078 18.2155 32.9463 18.2155L31.8078 18.3693C31.377 18.4309 31.0693 18.8309 31.1309 19.2924C31.1617 19.477 31.254 19.6309 31.377 19.7539L32.2078 20.5539C32.2693 20.5847 32.2693 20.677 32.2693 20.7385L32.0847 21.8462C32.054 22.0924 32.1155 22.3385 32.2693 22.5232C32.4232 22.7078 32.6386 22.8309 32.8847 22.8309C33.0078 22.8309 33.1617 22.8001 33.254 22.7385L34.2693 22.2155C34.3001 22.2155 34.3309 22.1847 34.3617 22.1847C34.3924 22.1847 34.4232 22.1847 34.454 22.2155L35.4693 22.7385C35.5924 22.8001 35.7155 22.8309 35.8386 22.8309C36.0847 22.8309 36.3001 22.7078 36.454 22.5232C36.6078 22.3385 36.6694 22.0924 36.6386 21.8462L36.454 20.7385C36.454 20.677 36.454 20.6155 36.5155 20.5539L37.3463 19.7539C37.654 19.4462 37.6847 18.9232 37.377 18.6155C37.254 18.4924 37.0694 18.4001 36.9155 18.3693L35.777 18.2155C35.7155 18.2155 35.654 18.1539 35.6232 18.1232L35.1309 17.1078C34.9155 16.8309 34.6386 16.6462 34.3309 16.6462Z" fill="#FF9D28"/>
<path d="M36.9461 18.6463L35.7461 18.4924C35.5923 18.4617 35.4077 18.3694 35.3461 18.1848L34.823 17.1078C34.7 16.8309 34.3615 16.7078 34.1154 16.8309C33.9923 16.8924 33.9307 16.9848 33.8384 17.1078L33.3154 18.1848C33.2538 18.3386 33.1 18.4617 32.9154 18.4924L31.7154 18.6463C31.4077 18.6771 31.2231 18.9848 31.2538 19.2617C31.2846 19.3848 31.3154 19.4771 31.4077 19.5694L32.3 20.4309C32.4231 20.554 32.4846 20.7386 32.4538 20.9232L32.2692 22.0925C32.2077 22.4001 32.3923 22.6463 32.7 22.7078C32.823 22.7386 32.9769 22.7078 33.0692 22.6463L34.1461 22.0925C34.3 22.0001 34.5154 22.0001 34.6384 22.0925L35.7154 22.6463C35.9923 22.7694 36.3 22.6771 36.423 22.4309C36.4846 22.3386 36.4846 22.2155 36.4846 22.0925L36.3 20.9232C36.2692 20.7694 36.3307 20.554 36.4538 20.4309L37.3461 19.5694C37.5307 19.354 37.5307 19.0155 37.3461 18.8001C37.1615 18.7078 37.0384 18.6771 36.9461 18.6463Z" fill="#FF9D28"/>
<path d="M44.3313 18.6464L43.1621 18.4925C43.0082 18.4617 42.8544 18.3694 42.7929 18.2156L42.3006 17.1694C42.1775 16.9233 41.8698 16.8002 41.6236 16.9233C41.5006 16.9848 41.439 17.0771 41.3775 17.1694L40.8852 18.2156C40.8236 18.3694 40.6698 18.4617 40.5159 18.4925L39.3467 18.6464C39.0698 18.6771 38.8852 18.9541 38.9159 19.231C38.9467 19.3541 38.9775 19.4464 39.0698 19.5079L39.9006 20.3079C40.0236 20.431 40.0852 20.5848 40.0544 20.7694L39.8698 21.9079C39.8082 22.1848 39.9929 22.431 40.2698 22.4925C40.3929 22.5233 40.5159 22.4925 40.6082 22.431L41.6544 21.9079C41.8082 21.8156 41.9929 21.8156 42.1159 21.9079L43.1621 22.431C43.4082 22.5541 43.7159 22.4617 43.839 22.2156C43.9006 22.1233 43.9006 22.0002 43.9006 21.9079L43.7159 20.7694C43.6852 20.6156 43.7467 20.431 43.8698 20.3079L44.6698 19.5079C44.8544 19.2925 44.8544 18.9848 44.6698 18.8002C44.5775 18.7079 44.4544 18.6771 44.3313 18.6464Z" fill="#FF9D28"/>
<path d="M52.2084 18.6156L51.0392 18.4618C50.8853 18.431 50.7315 18.3387 50.6699 18.1848L50.1468 17.1387C50.0238 16.8925 49.6853 16.7694 49.4392 16.8925C49.3161 16.9541 49.2545 17.0464 49.193 17.1387L48.6699 18.1848C48.6084 18.3387 48.4545 18.431 48.3007 18.4618L47.1315 18.6156C46.8545 18.6464 46.6392 18.9233 46.6699 19.231C46.7007 19.3541 46.7315 19.4464 46.8238 19.5079L47.6545 20.3387C47.7776 20.4618 47.8392 20.6156 47.8084 20.831L47.6238 21.9694C47.5622 22.2464 47.7468 22.5233 48.0238 22.5848C48.1468 22.6156 48.2699 22.5848 48.3622 22.5233L49.4084 21.9694C49.5622 21.8771 49.7468 21.8771 49.9007 21.9694L50.9468 22.5233C51.193 22.6464 51.5315 22.5541 51.6545 22.3079C51.7161 22.2156 51.7161 22.0925 51.7161 21.9694L51.5315 20.831C51.5007 20.6771 51.5622 20.4925 51.6853 20.3387L52.5161 19.5079C52.7007 19.2925 52.7007 18.9541 52.5161 18.7694C52.393 18.6771 52.3007 18.6464 52.2084 18.6156Z" fill="#FF9D28"/>
<path d="M41.8699 16.9539C42.0546 16.9539 42.2392 17.077 42.3315 17.2309L42.8238 18.2462C42.8853 18.4001 43.0392 18.4924 43.193 18.5232L44.3315 18.677C44.6084 18.7078 44.793 18.9847 44.7623 19.2616C44.7315 19.3847 44.7007 19.477 44.6084 19.5385L43.8084 20.3385C43.6853 20.4616 43.6238 20.6155 43.6546 20.8001L43.8392 21.9078C43.87 22.1847 43.6853 22.4309 43.4084 22.4924C43.3161 22.5232 43.193 22.4924 43.1007 22.4309L42.0853 21.9078C41.9315 21.8155 41.7469 21.8155 41.6238 21.9078L40.6084 22.4309C40.3623 22.5539 40.0546 22.4309 39.9315 22.1847C39.9007 22.0924 39.87 22.0001 39.9007 21.9078L40.0853 20.8001C40.1161 20.6462 40.0546 20.4616 39.9315 20.3385L39.1007 19.5385C38.8853 19.3539 38.8853 19.0155 39.1007 18.8309C39.193 18.7385 39.2853 18.7078 39.3776 18.677L40.5161 18.5232C40.67 18.4924 40.8238 18.4001 40.8853 18.2462L41.3776 17.2309C41.5007 17.077 41.6853 16.9539 41.8699 16.9539ZM41.8699 16.6462C41.5623 16.6462 41.2546 16.8309 41.1315 17.1078L40.6392 18.1232C40.6084 18.1847 40.5469 18.2155 40.4853 18.2155L39.3469 18.3693C38.9161 18.4309 38.6084 18.8309 38.67 19.2924C38.7007 19.477 38.793 19.6309 38.9161 19.7539L39.7469 20.5539C39.8084 20.5847 39.8084 20.677 39.8084 20.7385L39.6238 21.8462C39.593 22.0924 39.6546 22.3385 39.8084 22.5232C39.9623 22.7078 40.1776 22.8309 40.4238 22.8309C40.5469 22.8309 40.7007 22.8001 40.793 22.7385L41.8084 22.2155C41.8392 22.2155 41.87 22.1847 41.9007 22.1847C41.9315 22.1847 41.9623 22.1847 41.993 22.2155L43.0084 22.7385C43.1315 22.8001 43.2546 22.8309 43.3776 22.8309C43.6238 22.8309 43.8392 22.7078 43.993 22.5232C44.1469 22.3385 44.2084 22.0924 44.1776 21.8462L43.993 20.7385C43.993 20.677 43.993 20.6155 44.0546 20.5539L44.8546 19.7847C45.1623 19.477 45.193 18.9539 44.8853 18.6462C44.7623 18.5232 44.6084 18.4309 44.4238 18.4001L43.2853 18.2462C43.2238 18.2462 43.1623 18.1847 43.1315 18.1539L42.6392 17.1385C42.4546 16.8309 42.1776 16.6462 41.8699 16.6462Z" fill="#FF9D28"/>
<path d="M41.8699 16.9539C42.0546 16.9539 42.2392 17.077 42.3315 17.2309L42.8238 18.2462C42.8853 18.4001 43.0392 18.4924 43.193 18.5232L44.3315 18.677C44.6084 18.7078 44.793 18.9847 44.7623 19.2616C44.7315 19.3847 44.7007 19.477 44.6084 19.5385L43.8084 20.3385C43.6853 20.4616 43.6238 20.6155 43.6546 20.8001L43.8392 21.9078C43.9007 22.1847 43.7161 22.4309 43.4392 22.4924C43.4084 22.4924 43.3776 22.4924 43.3469 22.4924C43.2546 22.4924 43.193 22.4616 43.1007 22.4309L42.0853 21.9078C41.9315 21.8155 41.7469 21.8155 41.6238 21.9078L40.6084 22.4309C40.3623 22.5539 40.0546 22.4616 39.9315 22.2155C39.8699 22.1232 39.87 22.0001 39.87 21.877L40.0546 20.7693C40.0853 20.6155 40.0238 20.4309 39.9007 20.3078L39.07 19.5078C38.8546 19.3232 38.8546 18.9847 39.07 18.8001C39.1623 18.7078 39.2546 18.677 39.3469 18.6462L40.4853 18.4924C40.6392 18.4616 40.793 18.3693 40.8546 18.2155L41.3469 17.2001C41.5007 17.077 41.6546 16.9539 41.8699 16.9539ZM41.8699 16.6462C41.5623 16.6462 41.2853 16.8309 41.1315 17.1078L40.6392 18.1232C40.6084 18.1847 40.5469 18.2155 40.4853 18.2155L39.3469 18.3693C38.9161 18.4309 38.6084 18.8309 38.67 19.2924C38.7007 19.477 38.793 19.6309 38.9161 19.7539L39.7469 20.5539C39.8084 20.5847 39.8084 20.677 39.8084 20.7385L39.6238 21.8462C39.593 22.0924 39.6546 22.3385 39.8084 22.5232C39.9623 22.7078 40.1776 22.8309 40.4238 22.8309C40.5469 22.8309 40.7007 22.8001 40.793 22.7385L41.8084 22.2155C41.8392 22.2155 41.87 22.1847 41.9007 22.1847C41.9315 22.1847 41.9623 22.1847 41.993 22.2155L42.9776 22.7693C43.1007 22.8309 43.2238 22.8616 43.3469 22.8616C43.593 22.8616 43.8084 22.7385 43.9623 22.5539C44.1161 22.3693 44.1776 22.1232 44.1469 21.877L43.9623 20.7693C43.9623 20.7078 43.9623 20.6462 44.0238 20.5847L44.8546 19.7847C45.1623 19.477 45.193 18.9539 44.8853 18.6462C44.7623 18.5232 44.6084 18.4309 44.4238 18.4001L43.2853 18.2462C43.2238 18.2462 43.1623 18.1847 43.1315 18.1539L42.6392 17.1385C42.4546 16.8309 42.1776 16.6462 41.8699 16.6462Z" fill="#FF9D28"/>
<path d="M49.6226 16.9539C49.8072 16.9539 49.9918 17.077 50.0841 17.2309L50.5764 18.2462C50.6379 18.4001 50.7918 18.4924 50.9456 18.5232L52.0841 18.677C52.361 18.7078 52.5456 18.9847 52.5149 19.2616C52.4841 19.3847 52.4533 19.477 52.361 19.5385L51.561 20.3385C51.4379 20.4616 51.3764 20.6155 51.4072 20.8001L51.5918 21.9078C51.6226 22.1847 51.438 22.4309 51.161 22.4924C51.0687 22.5232 50.9456 22.4924 50.8533 22.4309L49.838 21.9078C49.6841 21.8155 49.4995 21.8155 49.3764 21.9078L48.361 22.4309C48.1149 22.5539 47.8072 22.4616 47.6841 22.2155C47.6226 22.1232 47.6226 22.0001 47.6226 21.877L47.8072 20.7693C47.8379 20.6155 47.7764 20.4309 47.6533 20.3078L46.8533 19.5078C46.638 19.3232 46.638 18.9847 46.8533 18.8001C46.9456 18.7078 47.0379 18.677 47.1303 18.6462L48.2687 18.4924C48.4226 18.4616 48.5764 18.3693 48.6379 18.2155L49.1303 17.2001C49.2533 17.077 49.438 16.9539 49.6226 16.9539ZM49.6533 16.6462C49.3456 16.6462 49.0687 16.8309 48.9149 17.1078L48.4226 18.1232C48.3918 18.1847 48.3303 18.2155 48.2687 18.2155L47.1303 18.3693C46.8226 18.4001 46.5764 18.6155 46.4841 18.9232C46.3918 19.2309 46.4533 19.5385 46.6995 19.7539L47.4995 20.5539C47.561 20.5847 47.561 20.677 47.561 20.7385L47.3764 21.8462C47.3456 22.0924 47.4072 22.3385 47.561 22.5232C47.7149 22.7078 47.9303 22.8309 48.1764 22.8309C48.2995 22.8309 48.4533 22.8001 48.5456 22.7385L49.561 22.2155C49.5918 22.2155 49.6226 22.1847 49.6533 22.1847C49.6841 22.1847 49.7149 22.1847 49.7456 22.2155L50.761 22.7385C50.8841 22.8001 51.0072 22.8309 51.1303 22.8309C51.3764 22.8309 51.5918 22.7078 51.7456 22.5232C51.8995 22.3385 51.961 22.0924 51.9303 21.8462L51.7456 20.7385C51.7456 20.677 51.7456 20.6155 51.8072 20.5539L52.6072 19.7539C52.8226 19.5385 52.9149 19.2001 52.8226 18.9232C52.7303 18.6155 52.4841 18.4001 52.1764 18.3693L51.0379 18.2155C50.9764 18.2155 50.9149 18.1539 50.8841 18.1232L50.3918 17.1078C50.238 16.8309 49.9303 16.6462 49.6533 16.6462Z" fill="#FF9D28"/>
<path d="M60.1773 19.7539C60.485 19.4462 60.5158 18.9232 60.2081 18.6155C60.085 18.4924 59.9004 18.4001 59.7466 18.3693L58.6081 18.2155C58.5466 18.2155 58.485 18.1539 58.4543 18.1232L57.9619 17.1078C57.7466 16.8309 57.4696 16.6462 57.1619 16.6462C56.8543 16.6462 56.5773 16.8309 56.4235 17.1078L55.9312 18.1232C55.9004 18.1847 55.8389 18.2155 55.7773 18.2155L54.6389 18.3693C54.2081 18.4309 53.9004 18.8309 53.9619 19.2924C53.9927 19.477 54.085 19.6309 54.2081 19.7539L55.0389 20.5539C55.1004 20.5847 55.1004 20.677 55.1004 20.7385L54.9158 21.8462C54.885 22.0924 54.9466 22.3385 55.1004 22.5232C55.2542 22.7078 55.4696 22.8309 55.7158 22.8309C55.8389 22.8309 55.9927 22.8001 56.085 22.7385L57.1004 22.2155C57.1312 22.2155 57.1619 22.1847 57.1927 22.1847C57.2235 22.1847 57.2543 22.1847 57.285 22.2155L58.3004 22.7385C58.4235 22.8001 58.5466 22.8309 58.6696 22.8309C58.9158 22.8309 59.1312 22.7078 59.285 22.5232C59.4389 22.3385 59.5004 22.0924 59.4696 21.8462L59.285 20.7385C59.285 20.677 59.285 20.6155 59.3466 20.5539L60.1773 19.7539ZM59.0696 20.3385C58.9466 20.4616 58.885 20.6155 58.9158 20.8001L59.1004 21.9078C59.1619 22.1232 59.0389 22.3385 58.885 22.4309V18.5847L59.6235 18.677C59.9004 18.7078 60.085 18.9847 60.0543 19.2616C60.0235 19.3847 59.9927 19.477 59.9004 19.5385L59.0696 20.3385Z" fill="#FF9D28"/>
</g>
<defs>
<clipPath id="clip0_18_7444">
<rect width="85.5385" height="28" fill="white" transform="translate(0.822266)"/>
</clipPath>
</defs>
</svg>
