<svg width="1512" height="637" viewBox="0 0 1512 637" fill="none" xmlns="http://www.w3.org/2000/svg">
<g opacity="0.07" clip-path="url(#clip0_18_6913)">
<path fill-rule="evenodd" clip-rule="evenodd" d="M148.366 636.366V556.88H215.787V636.366H216.496V556.88H283.917V636.366H284.627V556.88H352.047V636.366H352.757V556.88H420.178V636.366H420.888V556.88H488.308V636.366H489.018V556.88H556.439V636.366H557.148V556.88H636.633V556.171H557.148V488.75H636.633V488.041H557.148V420.62L636.633 420.62V419.91H557.148V352.49H636.633V351.78H557.148V284.359H636.633V283.65H557.148V216.229H636.633V215.52H557.148V148.099H636.633V147.389H557.148V79.9682H636.633V79.2585H557.148V0.482788H556.439V79.2585H489.018V0.482788H488.308V79.2585H420.888V0.482788H420.178V79.2585H352.757V0.482788H352.047V79.2585H284.627V0.482788H283.917V79.2585H216.496V0.482788H215.787V79.2585H148.366V0.482788H147.656V79.2585H80.2357V0.482788H79.5258V79.2585H0.750122V79.9682H79.5258V147.389H0.750122V148.099H79.5258V215.52H0.750122V216.229H79.5258V283.65H0.750122V284.359H79.5258V351.78H0.750122V352.49H79.5258V419.91H0.750122V420.62H79.5258V488.041H0.750122V488.75H79.5258V556.171H0.750122V556.88H79.5258V636.366H80.2357V556.88H147.656V636.366H148.366ZM215.787 488.75H148.366V556.171H215.787V488.75ZM215.787 488.041H148.366V420.62H215.787V488.041ZM147.656 556.171V488.75H80.2357V556.171H147.656ZM556.439 79.9682V147.389H489.018V79.9682H556.439ZM556.439 148.099V215.52H489.018V148.099H556.439ZM556.439 216.229V283.65H489.018V216.229H556.439ZM556.439 284.359V351.78H489.018V284.359H556.439ZM556.439 352.49V419.91H489.018V352.49H556.439ZM556.439 420.62V488.041H489.018V420.62H556.439ZM556.439 488.75V556.171H489.018V488.75H556.439ZM352.757 556.171H420.178V488.75H352.757V556.171ZM352.757 488.041H420.178V420.62H352.757V488.041ZM420.888 488.041V420.62L488.308 420.62V488.041H420.888ZM352.757 419.91H420.178V352.49H352.757V419.91ZM420.888 419.91V352.49H488.308V419.91H420.888ZM352.757 351.78H420.178V284.359H352.757V351.78ZM420.888 351.78V284.359H488.308V351.78H420.888ZM352.757 283.65H420.178V216.229H352.757V283.65ZM420.888 283.65V216.229H488.308V283.65H420.888ZM352.757 215.52H420.178V148.099H352.757V215.52ZM420.888 215.52V148.099H488.308V215.52H420.888ZM352.757 147.389H420.178V79.9682H352.757V147.389ZM420.888 147.389V79.9682H488.308V147.389H420.888ZM420.888 556.171V488.75H488.308V556.171H420.888ZM284.627 556.171H352.047V488.75H284.627V556.171ZM284.627 488.041H352.047V420.62H284.627V488.041ZM284.627 419.91H352.047V352.49H284.627V419.91ZM284.627 351.78H352.047V284.359H284.627V351.78ZM284.627 283.65H352.047V216.229H284.627V283.65ZM284.627 215.52H352.047V148.099H284.627V215.52ZM284.627 147.389H352.047V79.9682H284.627V147.389ZM283.917 79.9682V147.389H216.496V79.9682H283.917ZM283.917 148.099V215.52H216.496V148.099H283.917ZM283.917 216.229V283.65H216.496V216.229H283.917ZM283.917 284.359V351.78H216.496V284.359H283.917ZM283.917 352.49V419.91H216.496V352.49H283.917ZM283.917 420.62V488.041H216.496V420.62H283.917ZM283.917 488.75V556.171H216.496V488.75H283.917ZM215.787 79.9682H148.366V147.389H215.787V79.9682ZM147.656 147.389V79.9682H80.2357V147.389H147.656ZM215.787 148.099H148.366V215.52H215.787V148.099ZM147.656 148.099V215.52H80.2357V148.099H147.656ZM215.787 216.229H148.366V283.65H215.787V216.229ZM147.656 216.229V283.65H80.2357V216.229H147.656ZM215.787 284.359H148.366V351.78H215.787V284.359ZM147.656 284.359V351.78H80.2357V284.359H147.656ZM215.787 352.49H148.366V419.91H215.787V352.49ZM147.656 352.49V419.91H80.2357V352.49H147.656ZM80.2357 420.62H147.656V488.041H80.2357V420.62Z" fill="#878787"/>
</g>
<line opacity="0.05" x1="266.148" y1="352.358" x2="288.254" y2="352.358" stroke="url(#paint0_linear_18_6913)" stroke-width="0.884211"/>
<line opacity="0.05" x1="420.001" y1="216.189" x2="442.107" y2="216.189" stroke="url(#paint1_linear_18_6913)" stroke-width="0.884211"/>
<line opacity="0.05" x1="374.022" y1="487.642" x2="351.917" y2="487.642" stroke="url(#paint2_linear_18_6913)" stroke-width="0.884211"/>
<line opacity="0.05" x1="352.359" y1="397.895" x2="352.359" y2="420" stroke="url(#paint3_linear_18_6913)" stroke-width="0.884211"/>
<path fill-rule="evenodd" clip-rule="evenodd" d="M148.619 413.162L154.288 415.913L148.619 419.016V413.162ZM148.619 420.511L155.062 416.983V419.385L148.619 422.712V420.511ZM148.619 424.187L155.916 420.42C156.196 420.275 156.372 419.986 156.372 419.67V415.467L148.518 411.656C147.96 411.385 147.31 411.793 147.31 412.415V415.477L140.164 419.149C139.883 419.293 139.707 419.583 139.707 419.899V423.673C139.707 423.989 139.883 424.279 140.163 424.423L147.392 428.147C147.953 428.436 148.619 428.029 148.619 427.398V424.187ZM147.31 416.951V426.63L141.016 423.388V420.185L147.31 416.951Z" fill="#878787"/>
<path d="M349.054 563.895L362.314 556.632L349.054 550.15V563.895Z" fill="#878787"/>
<g opacity="0.07" clip-path="url(#clip1_18_6913)">
<path fill-rule="evenodd" clip-rule="evenodd" d="M1363.64 636.366V556.88H1296.22V636.366H1295.51V556.88H1228.09V636.366H1227.38V556.88H1159.96V636.366H1159.25V556.88H1091.83V636.366H1091.12V556.88H1023.7V636.366H1022.99V556.88H955.564V636.366H954.855V556.88H875.37V556.171H954.855V488.75H875.37V488.041H954.855V420.62L875.37 420.62V419.91H954.855V352.49H875.37V351.78H954.855V284.359H875.37V283.65H954.855V216.229H875.37V215.52H954.855V148.099H875.37V147.389H954.855V79.9682H875.37V79.2585H954.855V0.482788H955.564V79.2585H1022.99V0.482788H1023.7V79.2585H1091.12V0.482788H1091.83V79.2585H1159.25V0.482788H1159.96V79.2585H1227.38V0.482788H1228.09V79.2585H1295.51V0.482788H1296.22V79.2585H1363.64V0.482788H1364.35V79.2585H1431.77V0.482788H1432.48V79.2585H1511.25V79.9682H1432.48V147.389H1511.25V148.099H1432.48V215.52H1511.25V216.229H1432.48V283.65H1511.25V284.359H1432.48V351.78H1511.25V352.49H1432.48V419.91H1511.25V420.62H1432.48V488.041H1511.25V488.75H1432.48V556.171H1511.25V556.88H1432.48V636.366H1431.77V556.88H1364.35V636.366H1363.64ZM1296.22 488.75H1363.64V556.171H1296.22V488.75ZM1296.22 488.041H1363.64V420.62H1296.22V488.041ZM1364.35 556.171V488.75H1431.77V556.171H1364.35ZM955.564 79.9682V147.389H1022.99V79.9682H955.564ZM955.564 148.099V215.52H1022.99V148.099H955.564ZM955.564 216.229V283.65H1022.99V216.229H955.564ZM955.564 284.359V351.78H1022.99V284.359H955.564ZM955.564 352.49V419.91H1022.99V352.49H955.564ZM955.564 420.62V488.041H1022.99V420.62H955.564ZM955.564 488.75V556.171H1022.99V488.75H955.564ZM1159.25 556.171H1091.83V488.75H1159.25V556.171ZM1159.25 488.041H1091.83V420.62H1159.25V488.041ZM1091.12 488.041V420.62L1023.7 420.62V488.041H1091.12ZM1159.25 419.91H1091.83V352.49H1159.25V419.91ZM1091.12 419.91V352.49H1023.7V419.91H1091.12ZM1159.25 351.78H1091.83V284.359H1159.25V351.78ZM1091.12 351.78V284.359H1023.7V351.78H1091.12ZM1159.25 283.65H1091.83V216.229H1159.25V283.65ZM1091.12 283.65V216.229H1023.7V283.65H1091.12ZM1159.25 215.52H1091.83V148.099H1159.25V215.52ZM1091.12 215.52V148.099H1023.7V215.52H1091.12ZM1159.25 147.389H1091.83V79.9682H1159.25V147.389ZM1091.12 147.389V79.9682H1023.7V147.389H1091.12ZM1091.12 556.171V488.75H1023.7V556.171H1091.12ZM1227.38 556.171H1159.96V488.75H1227.38V556.171ZM1227.38 488.041H1159.96V420.62H1227.38V488.041ZM1227.38 419.91H1159.96V352.49H1227.38V419.91ZM1227.38 351.78H1159.96V284.359H1227.38V351.78ZM1227.38 283.65H1159.96V216.229H1227.38V283.65ZM1227.38 215.52H1159.96V148.099H1227.38V215.52ZM1227.38 147.389H1159.96V79.9682H1227.38V147.389ZM1228.09 79.9682V147.389H1295.51V79.9682H1228.09ZM1228.09 148.099V215.52H1295.51V148.099H1228.09ZM1228.09 216.229V283.65H1295.51V216.229H1228.09ZM1228.09 284.359V351.78H1295.51V284.359H1228.09ZM1228.09 352.49V419.91H1295.51V352.49H1228.09ZM1228.09 420.62V488.041H1295.51V420.62H1228.09ZM1228.09 488.75V556.171H1295.51V488.75H1228.09ZM1296.22 79.9682H1363.64V147.389H1296.22V79.9682ZM1364.35 147.389V79.9682H1431.77V147.389H1364.35ZM1296.22 148.099H1363.64V215.52H1296.22V148.099ZM1364.35 148.099V215.52H1431.77V148.099H1364.35ZM1296.22 216.229H1363.64V283.65H1296.22V216.229ZM1364.35 216.229V283.65H1431.77V216.229H1364.35ZM1296.22 284.359H1363.64V351.78H1296.22V284.359ZM1364.35 284.359V351.78H1431.77V284.359H1364.35ZM1296.22 352.49H1363.64V419.91H1296.22V352.49ZM1364.35 352.49V419.91H1431.77V352.49H1364.35ZM1431.77 420.62H1364.35V488.041H1431.77V420.62Z" fill="#878787"/>
</g>
<line opacity="0.05" y1="-0.442105" x2="22.1053" y2="-0.442105" transform="matrix(-1 0 0 1 1245.85 352.8)" stroke="url(#paint4_linear_18_6913)" stroke-width="0.884211"/>
<line opacity="0.05" y1="-0.442105" x2="22.1053" y2="-0.442105" transform="matrix(-1 0 0 1 1092 216.632)" stroke="url(#paint5_linear_18_6913)" stroke-width="0.884211"/>
<line opacity="0.05" y1="-0.442105" x2="22.1053" y2="-0.442105" transform="matrix(1 -8.74228e-08 -8.74228e-08 -1 1137.98 487.2)" stroke="url(#paint6_linear_18_6913)" stroke-width="0.884211"/>
<line opacity="0.05" y1="-0.442105" x2="22.1053" y2="-0.442105" transform="matrix(-1.19249e-08 1 1 1.19249e-08 1160.09 397.895)" stroke="url(#paint7_linear_18_6913)" stroke-width="0.884211"/>
<path fill-rule="evenodd" clip-rule="evenodd" d="M1363.38 413.162L1357.72 415.913L1363.38 419.016V413.162ZM1363.38 420.511L1356.94 416.983V419.385L1363.38 422.712V420.511ZM1363.38 424.187L1356.09 420.42C1355.81 420.275 1355.63 419.986 1355.63 419.67V415.467L1363.48 411.656C1364.04 411.385 1364.69 411.793 1364.69 412.415V415.477L1371.84 419.149C1372.12 419.293 1372.3 419.583 1372.3 419.899V423.673C1372.3 423.989 1372.12 424.279 1371.84 424.423L1364.61 428.147C1364.05 428.436 1363.38 428.029 1363.38 427.398V424.187ZM1364.69 416.951V426.63L1370.99 423.388V420.185L1364.69 416.951Z" fill="#878787"/>
<path d="M1162.95 563.895L1149.69 556.632L1162.95 550.15V563.895Z" fill="#878787"/>
<defs>
<linearGradient id="paint0_linear_18_6913" x1="288.254" y1="353.3" x2="266.148" y2="353.3" gradientUnits="userSpaceOnUse">
<stop stop-color="#525252"/>
<stop offset="1" stop-color="white" stop-opacity="0"/>
</linearGradient>
<linearGradient id="paint1_linear_18_6913" x1="442.107" y1="217.132" x2="420.001" y2="217.132" gradientUnits="userSpaceOnUse">
<stop stop-color="#525252"/>
<stop offset="1" stop-color="white" stop-opacity="0"/>
</linearGradient>
<linearGradient id="paint2_linear_18_6913" x1="351.917" y1="486.7" x2="374.022" y2="486.7" gradientUnits="userSpaceOnUse">
<stop stop-color="#525252"/>
<stop offset="1" stop-color="white" stop-opacity="0"/>
</linearGradient>
<linearGradient id="paint3_linear_18_6913" x1="351.417" y1="420" x2="351.417" y2="397.895" gradientUnits="userSpaceOnUse">
<stop stop-color="#525252"/>
<stop offset="1" stop-color="white" stop-opacity="0"/>
</linearGradient>
<linearGradient id="paint4_linear_18_6913" x1="22.1053" y1="0.5" x2="0" y2="0.5" gradientUnits="userSpaceOnUse">
<stop stop-color="#525252"/>
<stop offset="1" stop-color="white" stop-opacity="0"/>
</linearGradient>
<linearGradient id="paint5_linear_18_6913" x1="22.1053" y1="0.5" x2="0" y2="0.5" gradientUnits="userSpaceOnUse">
<stop stop-color="#525252"/>
<stop offset="1" stop-color="white" stop-opacity="0"/>
</linearGradient>
<linearGradient id="paint6_linear_18_6913" x1="22.1053" y1="0.5" x2="0" y2="0.5" gradientUnits="userSpaceOnUse">
<stop stop-color="#525252"/>
<stop offset="1" stop-color="white" stop-opacity="0"/>
</linearGradient>
<linearGradient id="paint7_linear_18_6913" x1="22.1053" y1="0.5" x2="0" y2="0.5" gradientUnits="userSpaceOnUse">
<stop stop-color="#525252"/>
<stop offset="1" stop-color="white" stop-opacity="0"/>
</linearGradient>
<clipPath id="clip0_18_6913">
<rect width="636.632" height="636.632" fill="white" transform="matrix(-1 0 0 1 636.633 0)"/>
</clipPath>
<clipPath id="clip1_18_6913">
<rect width="636.632" height="636.632" fill="white" transform="translate(875.37)"/>
</clipPath>
</defs>
</svg>
