<svg width="117" height="30" viewBox="0 0 117 30" fill="none" xmlns="http://www.w3.org/2000/svg">
<g clip-path="url(#clip0_18_7431)">
<path d="M14.6203 29.5515C22.6568 29.5515 29.1717 23.0366 29.1717 15C29.1717 6.9635 22.6568 0.448608 14.6203 0.448608C6.58374 0.448608 0.0688477 6.9635 0.0688477 15C0.0688477 23.0366 6.58374 29.5515 14.6203 29.5515Z" fill="#FF492C"/>
<path d="M20.9277 11.6049H18.4539C18.5024 11.2169 18.7449 10.9744 19.23 10.7318L19.6665 10.4893C20.4911 10.1013 20.9277 9.61623 20.9277 8.84015C20.9334 8.61827 20.8883 8.39802 20.7958 8.19625C20.7033 7.99447 20.5659 7.81653 20.3941 7.67604C19.9887 7.41744 19.5168 7.2826 19.036 7.288C18.645 7.28559 18.2603 7.38595 17.9204 7.57903C17.6025 7.79151 17.3371 8.07348 17.1443 8.40361L17.8719 9.13118C17.9739 8.8921 18.1424 8.68733 18.3573 8.54116C18.5723 8.395 18.8246 8.31359 19.0845 8.3066C19.5695 8.3066 19.8121 8.54912 19.8121 8.84015C19.8121 9.13118 19.6665 9.3737 19.1815 9.61623L18.8905 9.76174C18.3439 10.0018 17.874 10.3878 17.5323 10.8773C17.2629 11.3493 17.1286 11.8863 17.1443 12.4295V12.6235H20.9277V11.6049Z" fill="white"/>
<path d="M20.5864 13.8361H16.4635L14.4263 17.3769H18.5492L20.5864 20.9178L22.6236 17.3769L20.5864 13.8361Z" fill="white"/>
<path d="M14.7655 19.7538C13.5048 19.7538 12.2957 19.253 11.4043 18.3615C10.5128 17.4701 10.012 16.261 10.012 15.0003C10.012 13.7396 10.5128 12.5305 11.4043 11.6391C12.2957 10.7476 13.5048 10.2468 14.7655 10.2468L16.4147 6.8515C15.8705 6.75282 15.3185 6.70411 14.7655 6.70598C12.5657 6.70598 10.456 7.57985 8.90054 9.13533C7.34505 10.6908 6.47119 12.8005 6.47119 15.0003C6.47119 17.2001 7.34505 19.3098 8.90054 20.8653C10.456 22.4207 12.5657 23.2946 14.7655 23.2946C16.5206 23.3023 18.234 22.7595 19.6645 21.7425L17.8698 18.5896C17.0106 19.3415 15.9072 19.7552 14.7655 19.7538Z" fill="white"/>
</g>
<g clip-path="url(#clip1_18_7431)">
<path d="M35.6851 7.59705L39.9843 6.86948L42.2332 2.57019L44.2836 6.80335L48.9136 7.59705L45.6726 10.7719L46.3341 15.4019L42.2332 13.4176L38.1323 15.4019L38.6615 10.838L35.6851 7.59705ZM52.1546 7.59705L56.4539 6.86948L58.7028 2.57019L60.8193 6.80335L65.3832 7.59705L62.1422 10.7719L62.8698 15.4019L58.7028 13.4176L54.6681 15.4019L55.1972 10.838L52.1546 7.59705ZM68.9549 7.59705L73.2542 6.86948L75.5031 2.57019L77.5535 6.80335L82.1835 7.59705L78.9425 10.7719L79.6701 15.4019L75.5031 13.4176L71.4022 15.4019L71.9313 10.838L68.9549 7.59705ZM85.226 7.59705L89.5253 6.86948L91.7742 2.57019L93.8908 6.80335L98.4546 7.59705L95.2136 10.7719L95.9412 15.4019L91.7742 13.4176L87.7395 15.4019L88.2686 10.838L85.226 7.59705ZM101.762 7.59705L106.061 6.86948L108.31 2.57019L110.426 6.80335L114.99 7.59705L111.749 10.7719L112.477 15.4019L108.31 13.4176L104.275 15.4019L104.804 10.838L101.762 7.59705Z" fill="#FF492C"/>
<path d="M50.1707 7.19997L44.6808 6.40627L42.2335 1.44556L39.7862 6.40627L34.2964 7.19997L38.265 11.0363L37.339 16.5261L42.2335 13.9466L47.1281 16.5261L46.2021 11.0363L50.1707 7.19997ZM42.2335 12.756L38.7941 14.608L39.4555 10.7717L36.6775 8.05984L40.58 7.46456L42.2997 3.95898L44.0194 7.46456L47.9218 8.05984L45.1438 10.7717L45.8052 14.608L42.2335 12.756ZM66.7064 7.19997L61.2165 6.40627L58.7692 1.44556L56.322 6.40627L50.8321 7.19997L54.8007 11.0363L53.8747 16.5261L58.7692 13.9466L63.6638 16.5261L62.7378 11.0363L66.7064 7.19997ZM58.7692 12.756L55.3298 14.608L55.9912 10.7717L53.2132 8.05984L57.1157 7.46456L58.8354 3.95898L60.5551 7.46456L64.4575 8.05984L61.6795 10.7717L62.341 14.608L58.7692 12.756ZM83.2421 7.19997L77.7522 6.40627L75.305 1.44556L72.8577 6.40627L67.3678 7.19997L71.3364 11.0363L70.4104 16.5261L75.305 13.9466L80.1995 16.5261L79.2735 11.0363L83.2421 7.19997ZM75.305 12.756L71.8655 14.608L72.527 10.7717L69.749 8.05984L73.6514 7.46456L75.3711 3.95898L77.0908 7.46456L80.9932 8.05984L78.2152 10.7717L78.8767 14.608L75.305 12.756ZM99.7778 7.19997L94.2879 6.40627L91.8407 1.44556L89.3934 6.40627L83.9035 7.19997L87.8721 11.0363L86.9461 16.5261L91.8407 13.9466L96.7352 16.5261L95.8092 11.0363L99.7778 7.19997ZM91.8407 12.756L88.4012 14.608L89.0627 10.7717L86.2847 8.05984L90.1871 7.46456L91.9068 3.95898L93.6265 7.46456L97.5289 8.05984L94.7509 10.7717L95.4124 14.608L91.8407 12.756ZM116.314 7.19997L110.824 6.40627L108.376 1.44556L105.929 6.40627L100.439 7.19997L104.408 11.0363L103.482 16.5261L108.376 13.9466L113.271 16.5261L112.345 11.0363L116.314 7.19997ZM108.376 12.756L104.937 14.608L105.598 10.7717L102.82 8.05984L106.723 7.46456L108.443 3.95898L110.162 7.46456L114.065 8.05984L111.287 10.7717L111.948 14.608L108.376 12.756Z" fill="#FF492C"/>
</g>
<path d="M38.4725 24.8431V25.719H34.407L34.3527 25.0408L36.7052 21.3086H37.5927L36.6316 22.917L35.4612 24.8431H38.4725ZM37.833 21.3086V26.9514H36.7168V21.3086H37.833ZM39.1778 26.4127C39.1778 26.2474 39.2347 26.1091 39.3483 25.998C39.4646 25.8869 39.6183 25.8314 39.8095 25.8314C40.0007 25.8314 40.1532 25.8869 40.2668 25.998C40.3831 26.1091 40.4412 26.2474 40.4412 26.4127C40.4412 26.5781 40.3831 26.7163 40.2668 26.8274C40.1532 26.9385 40.0007 26.994 39.8095 26.994C39.6183 26.994 39.4646 26.9385 39.3483 26.8274C39.2347 26.7163 39.1778 26.5781 39.1778 26.4127ZM45.2121 21.3086V21.9093L43.0301 26.9514H41.8519L44.0339 22.1806H41.2241V21.3086H45.2121ZM47.7815 24.8974V24.816C47.7815 24.5085 47.8255 24.2256 47.9133 23.9672C48.0012 23.7063 48.1291 23.4802 48.297 23.289C48.4649 23.0978 48.6716 22.9493 48.9171 22.8433C49.1625 22.7348 49.4442 22.6806 49.762 22.6806C50.0798 22.6806 50.3627 22.7348 50.6107 22.8433C50.8587 22.9493 51.0667 23.0978 51.2347 23.289C51.4052 23.4802 51.5344 23.7063 51.6222 23.9672C51.7101 24.2256 51.754 24.5085 51.754 24.816V24.8974C51.754 25.2022 51.7101 25.4852 51.6222 25.7461C51.5344 26.0045 51.4052 26.2306 51.2347 26.4243C51.0667 26.6155 50.86 26.7641 50.6146 26.87C50.3691 26.976 50.0875 27.0289 49.7697 27.0289C49.4519 27.0289 49.169 26.976 48.921 26.87C48.6755 26.7641 48.4675 26.6155 48.297 26.4243C48.1291 26.2306 48.0012 26.0045 47.9133 25.7461C47.8255 25.4852 47.7815 25.2022 47.7815 24.8974ZM48.8977 24.816V24.8974C48.8977 25.0731 48.9132 25.2371 48.9442 25.3896C48.9752 25.542 49.0243 25.6764 49.0915 25.7926C49.1612 25.9063 49.2517 25.9954 49.3628 26.06C49.4739 26.1246 49.6095 26.1569 49.7697 26.1569C49.9247 26.1569 50.0578 26.1246 50.1689 26.06C50.28 25.9954 50.3691 25.9063 50.4363 25.7926C50.5035 25.6764 50.5526 25.542 50.5836 25.3896C50.6172 25.2371 50.634 25.0731 50.634 24.8974V24.816C50.634 24.6455 50.6172 24.4853 50.5836 24.3354C50.5526 24.183 50.5022 24.0486 50.4324 23.9324C50.3653 23.8135 50.2761 23.7205 50.165 23.6533C50.0539 23.5861 49.9196 23.5526 49.762 23.5526C49.6044 23.5526 49.47 23.5861 49.3589 23.6533C49.2504 23.7205 49.1612 23.8135 49.0915 23.9324C49.0243 24.0486 48.9752 24.183 48.9442 24.3354C48.9132 24.4853 48.8977 24.6455 48.8977 24.816ZM54.9203 25.9476V22.7581H56.0365V26.9514H54.9862L54.9203 25.9476ZM55.0443 25.0873L55.3738 25.0795C55.3738 25.3586 55.3415 25.6182 55.2769 25.8585C55.2123 26.0962 55.1154 26.3029 54.9862 26.4786C54.857 26.6517 54.6943 26.7874 54.4979 26.8855C54.3015 26.9811 54.0703 27.0289 53.8042 27.0289C53.6001 27.0289 53.4114 27.0005 53.2383 26.9437C53.0678 26.8842 52.9205 26.7925 52.7965 26.6685C52.6751 26.5419 52.5795 26.3804 52.5097 26.1841C52.4426 25.9851 52.409 25.7461 52.409 25.4671V22.7581H53.5251V25.4748C53.5251 25.5988 53.5393 25.7035 53.5678 25.7887C53.5988 25.874 53.6414 25.9438 53.6957 25.998C53.7499 26.0523 53.8132 26.091 53.8856 26.1143C53.9605 26.1375 54.0432 26.1492 54.1336 26.1492C54.3635 26.1492 54.5444 26.1027 54.6762 26.0097C54.8105 25.9166 54.9048 25.79 54.9591 25.6299C55.0159 25.4671 55.0443 25.2862 55.0443 25.0873ZM58.9432 22.7581V23.5487H56.5016V22.7581H58.9432ZM57.1061 21.7233H58.2223V25.688C58.2223 25.8094 58.2378 25.9024 58.2688 25.967C58.3024 26.0316 58.3515 26.0768 58.4161 26.1027C58.4807 26.1259 58.5621 26.1375 58.6602 26.1375C58.73 26.1375 58.792 26.135 58.8463 26.1298C58.9031 26.122 58.9509 26.1143 58.9897 26.1065L58.9935 26.9282C58.8979 26.9592 58.7946 26.9837 58.6835 27.0018C58.5724 27.0199 58.4497 27.0289 58.3153 27.0289C58.0699 27.0289 57.8554 26.9889 57.672 26.9088C57.4911 26.8261 57.3516 26.6943 57.2534 26.5135C57.1552 26.3326 57.1061 26.0949 57.1061 25.8004V21.7233ZM61.377 24.8974V24.816C61.377 24.5085 61.4209 24.2256 61.5088 23.9672C61.5966 23.7063 61.7245 23.4802 61.8925 23.289C62.0604 23.0978 62.2671 22.9493 62.5125 22.8433C62.758 22.7348 63.0396 22.6806 63.3574 22.6806C63.6752 22.6806 63.9581 22.7348 64.2062 22.8433C64.4542 22.9493 64.6622 23.0978 64.8301 23.289C65.0007 23.4802 65.1298 23.7063 65.2177 23.9672C65.3055 24.2256 65.3495 24.5085 65.3495 24.816V24.8974C65.3495 25.2022 65.3055 25.4852 65.2177 25.7461C65.1298 26.0045 65.0007 26.2306 64.8301 26.4243C64.6622 26.6155 64.4555 26.7641 64.21 26.87C63.9646 26.976 63.683 27.0289 63.3652 27.0289C63.0474 27.0289 62.7645 26.976 62.5164 26.87C62.271 26.7641 62.063 26.6155 61.8925 26.4243C61.7245 26.2306 61.5966 26.0045 61.5088 25.7461C61.4209 25.4852 61.377 25.2022 61.377 24.8974ZM62.4932 24.816V24.8974C62.4932 25.0731 62.5087 25.2371 62.5397 25.3896C62.5707 25.542 62.6198 25.6764 62.6869 25.7926C62.7567 25.9063 62.8471 25.9954 62.9582 26.06C63.0693 26.1246 63.205 26.1569 63.3652 26.1569C63.5202 26.1569 63.6532 26.1246 63.7643 26.06C63.8754 25.9954 63.9646 25.9063 64.0318 25.7926C64.0989 25.6764 64.148 25.542 64.179 25.3896C64.2126 25.2371 64.2294 25.0731 64.2294 24.8974V24.816C64.2294 24.6455 64.2126 24.4853 64.179 24.3354C64.148 24.183 64.0976 24.0486 64.0279 23.9324C63.9607 23.8135 63.8716 23.7205 63.7605 23.6533C63.6494 23.5861 63.515 23.5526 63.3574 23.5526C63.1998 23.5526 63.0655 23.5861 62.9544 23.6533C62.8458 23.7205 62.7567 23.8135 62.6869 23.9324C62.6198 24.0486 62.5707 24.183 62.5397 24.3354C62.5087 24.4853 62.4932 24.6455 62.4932 24.816ZM67.4578 26.9514H66.3338V22.386C66.3338 22.0682 66.3959 21.8008 66.5199 21.5838C66.6465 21.3642 66.8235 21.1988 67.0508 21.0877C67.2808 20.974 67.5534 20.9172 67.8686 20.9172C67.9719 20.9172 68.0714 20.9249 68.167 20.9404C68.2626 20.9533 68.3556 20.9701 68.446 20.9908L68.4344 21.8318C68.3853 21.8189 68.3336 21.8098 68.2794 21.8047C68.2251 21.7995 68.1618 21.7969 68.0895 21.7969C67.9551 21.7969 67.8401 21.8202 67.7445 21.8667C67.6515 21.9106 67.5805 21.9765 67.5314 22.0643C67.4823 22.1522 67.4578 22.2594 67.4578 22.386V26.9514ZM68.2949 22.7581V23.5487H65.7099V22.7581H68.2949ZM71.8604 24.3819L70.969 24.1688L71.2907 21.3086H74.4609V22.2116H72.2092L72.0697 23.4634C72.1446 23.4195 72.2583 23.373 72.4107 23.3239C72.5632 23.2722 72.7337 23.2464 72.9223 23.2464C73.1962 23.2464 73.439 23.289 73.6509 23.3743C73.8628 23.4595 74.0423 23.5836 74.1896 23.7463C74.3395 23.9091 74.4531 24.108 74.5306 24.3432C74.6082 24.5783 74.6469 24.8444 74.6469 25.1415C74.6469 25.3922 74.6082 25.6311 74.5306 25.8585C74.4531 26.0833 74.3356 26.2848 74.178 26.4631C74.0204 26.6388 73.8227 26.777 73.585 26.8778C73.3473 26.9785 73.0657 27.0289 72.7401 27.0289C72.4973 27.0289 72.2622 26.9928 72.0348 26.9204C71.81 26.8481 71.6072 26.7408 71.4263 26.5987C71.248 26.4566 71.1047 26.2848 70.9961 26.0833C70.8902 25.8792 70.8347 25.6466 70.8295 25.3857H71.9379C71.9534 25.5459 71.9947 25.6841 72.0619 25.8004C72.1317 25.9141 72.2234 26.0019 72.3371 26.0639C72.4508 26.1259 72.5838 26.1569 72.7363 26.1569C72.8784 26.1569 72.9998 26.1298 73.1006 26.0755C73.2013 26.0213 73.2827 25.9464 73.3447 25.8508C73.4067 25.7526 73.4519 25.6389 73.4804 25.5097C73.5114 25.3779 73.5269 25.2358 73.5269 25.0834C73.5269 24.931 73.5088 24.7927 73.4726 24.6687C73.4364 24.5447 73.3809 24.4375 73.306 24.347C73.231 24.2566 73.1354 24.1869 73.0192 24.1378C72.9055 24.0887 72.7724 24.0641 72.62 24.0641C72.4133 24.0641 72.2531 24.0964 72.1394 24.161C72.0283 24.2256 71.9353 24.2992 71.8604 24.3819ZM79.658 25.7926C79.658 25.7125 79.6348 25.6402 79.5882 25.5756C79.5417 25.511 79.4552 25.4516 79.3286 25.3973C79.2046 25.3405 79.025 25.2888 78.7899 25.2423C78.578 25.1958 78.3804 25.1377 78.1969 25.0679C78.0161 24.9956 77.8585 24.909 77.7241 24.8082C77.5923 24.7075 77.489 24.5886 77.4141 24.4517C77.3391 24.3122 77.3017 24.1533 77.3017 23.975C77.3017 23.7993 77.3391 23.6339 77.4141 23.4789C77.4916 23.3239 77.6014 23.187 77.7435 23.0681C77.8882 22.9467 78.0639 22.8524 78.2706 22.7852C78.4798 22.7154 78.715 22.6806 78.9759 22.6806C79.3402 22.6806 79.6528 22.7387 79.9138 22.855C80.1773 22.9712 80.3789 23.1314 80.5184 23.3355C80.6605 23.5371 80.7315 23.767 80.7315 24.0254H79.6154C79.6154 23.9169 79.5921 23.82 79.5456 23.7347C79.5017 23.6469 79.4319 23.5784 79.3363 23.5293C79.2433 23.4776 79.1219 23.4518 78.972 23.4518C78.848 23.4518 78.7408 23.4737 78.6504 23.5177C78.5599 23.559 78.4902 23.6159 78.4411 23.6882C78.3946 23.758 78.3713 23.8355 78.3713 23.9207C78.3713 23.9853 78.3842 24.0435 78.4101 24.0951C78.4385 24.1442 78.4837 24.1894 78.5457 24.2308C78.6077 24.2721 78.6878 24.3109 78.786 24.347C78.8868 24.3806 79.0108 24.4116 79.1581 24.4401C79.4604 24.5021 79.7304 24.5835 79.9681 24.6842C80.2058 24.7824 80.3944 24.9167 80.5339 25.0873C80.6734 25.2552 80.7432 25.4761 80.7432 25.75C80.7432 25.936 80.7018 26.1065 80.6191 26.2616C80.5365 26.4166 80.4176 26.5522 80.2626 26.6685C80.1076 26.7822 79.9215 26.8713 79.7045 26.9359C79.4901 26.9979 79.2485 27.0289 78.9798 27.0289C78.5896 27.0289 78.2589 26.9592 77.9876 26.8196C77.7189 26.6801 77.5148 26.5031 77.3753 26.2887C77.2384 26.0717 77.1699 25.8495 77.1699 25.6221H78.2279C78.2331 25.7745 78.2719 25.8973 78.3442 25.9903C78.4191 26.0833 78.5134 26.1505 78.6271 26.1918C78.7434 26.2331 78.8687 26.2538 79.003 26.2538C79.1477 26.2538 79.2679 26.2344 79.3635 26.1957C79.4591 26.1543 79.5314 26.1001 79.5805 26.0329C79.6322 25.9631 79.658 25.8831 79.658 25.7926ZM83.5219 22.7581V23.5487H81.0803V22.7581H83.5219ZM81.6849 21.7233H82.8011V25.688C82.8011 25.8094 82.8166 25.9024 82.8476 25.967C82.8812 26.0316 82.9303 26.0768 82.9949 26.1027C83.0595 26.1259 83.1408 26.1375 83.239 26.1375C83.3088 26.1375 83.3708 26.135 83.4251 26.1298C83.4819 26.122 83.5297 26.1143 83.5684 26.1065L83.5723 26.9282C83.4767 26.9592 83.3734 26.9837 83.2623 27.0018C83.1512 27.0199 83.0285 27.0289 82.8941 27.0289C82.6486 27.0289 82.4342 26.9889 82.2508 26.9088C82.0699 26.8261 81.9304 26.6943 81.8322 26.5135C81.734 26.3326 81.6849 26.0949 81.6849 25.8004V21.7233ZM86.4209 26.0058V24.1378C86.4209 24.0034 86.3989 23.8884 86.355 23.7928C86.311 23.6947 86.2426 23.6184 86.1496 23.5642C86.0591 23.5099 85.9416 23.4828 85.7969 23.4828C85.6729 23.4828 85.5657 23.5048 85.4752 23.5487C85.3848 23.59 85.315 23.6507 85.2659 23.7308C85.2169 23.8083 85.1923 23.9001 85.1923 24.006H84.0761C84.0761 23.8277 84.1175 23.6585 84.2002 23.4983C84.2828 23.3381 84.403 23.1973 84.5606 23.0759C84.7182 22.9518 84.9055 22.855 85.1225 22.7852C85.3422 22.7154 85.5876 22.6806 85.8589 22.6806C86.1844 22.6806 86.4738 22.7348 86.727 22.8433C86.9802 22.9518 87.1792 23.1146 87.3239 23.3316C87.4711 23.5487 87.5448 23.82 87.5448 24.1455V25.9399C87.5448 26.1698 87.559 26.3585 87.5874 26.5057C87.6158 26.6504 87.6572 26.777 87.7114 26.8855V26.9514H86.5836C86.5294 26.8377 86.488 26.6956 86.4596 26.5251C86.4338 26.352 86.4209 26.1789 86.4209 26.0058ZM86.5681 24.3974L86.5759 25.0291H85.9519C85.8046 25.0291 85.6767 25.0459 85.5682 25.0795C85.4597 25.1131 85.3706 25.1609 85.3008 25.2229C85.2311 25.2823 85.1794 25.3521 85.1458 25.4322C85.1148 25.5123 85.0993 25.6001 85.0993 25.6957C85.0993 25.7913 85.1213 25.8779 85.1652 25.9554C85.2091 26.0303 85.2724 26.0898 85.3551 26.1337C85.4378 26.175 85.5346 26.1957 85.6457 26.1957C85.8137 26.1957 85.9597 26.1621 86.0837 26.0949C86.2077 26.0277 86.3033 25.9451 86.3705 25.8469C86.4402 25.7487 86.4764 25.6557 86.479 25.5678L86.7735 26.0407C86.7322 26.1466 86.6754 26.2564 86.603 26.3701C86.5332 26.4838 86.4441 26.591 86.3356 26.6918C86.2271 26.7899 86.0966 26.8713 85.9442 26.9359C85.7917 26.9979 85.6109 27.0289 85.4016 27.0289C85.1355 27.0289 84.8939 26.976 84.6769 26.87C84.4624 26.7615 84.2919 26.613 84.1653 26.4243C84.0413 26.2331 83.9793 26.0161 83.9793 25.7732C83.9793 25.5536 84.0206 25.3586 84.1033 25.188C84.186 25.0175 84.3074 24.8741 84.4676 24.7579C84.6303 24.639 84.8332 24.5499 85.076 24.4904C85.3189 24.4284 85.6005 24.3974 85.9209 24.3974H86.5681ZM89.5213 23.6727V26.9514H88.4051V22.7581H89.4554L89.5213 23.6727ZM90.7847 22.7309L90.7654 23.7657C90.7111 23.758 90.6452 23.7515 90.5677 23.7463C90.4928 23.7386 90.4243 23.7347 90.3623 23.7347C90.2047 23.7347 90.0678 23.7554 89.9515 23.7967C89.8378 23.8355 89.7422 23.8936 89.6647 23.9711C89.5898 24.0486 89.5329 24.1429 89.4942 24.254C89.458 24.3651 89.4373 24.4917 89.4322 24.6338L89.2074 24.5641C89.2074 24.2928 89.2345 24.0435 89.2888 23.8161C89.343 23.5861 89.4218 23.3859 89.5252 23.2154C89.6311 23.0449 89.7603 22.9131 89.9127 22.8201C90.0652 22.7271 90.2396 22.6806 90.4359 22.6806C90.4979 22.6806 90.5612 22.6857 90.6258 22.6961C90.6904 22.7038 90.7434 22.7154 90.7847 22.7309ZM93.579 25.7926C93.579 25.7125 93.5558 25.6402 93.5093 25.5756C93.4627 25.511 93.3762 25.4516 93.2496 25.3973C93.1256 25.3405 92.946 25.2888 92.7109 25.2423C92.499 25.1958 92.3014 25.1377 92.1179 25.0679C91.9371 24.9956 91.7795 24.909 91.6451 24.8082C91.5133 24.7075 91.41 24.5886 91.3351 24.4517C91.2601 24.3122 91.2227 24.1533 91.2227 23.975C91.2227 23.7993 91.2601 23.6339 91.3351 23.4789C91.4126 23.3239 91.5224 23.187 91.6645 23.0681C91.8092 22.9467 91.9849 22.8524 92.1916 22.7852C92.4008 22.7154 92.636 22.6806 92.8969 22.6806C93.2612 22.6806 93.5738 22.7387 93.8348 22.855C94.0983 22.9712 94.2999 23.1314 94.4394 23.3355C94.5815 23.5371 94.6525 23.767 94.6525 24.0254H93.5364C93.5364 23.9169 93.5131 23.82 93.4666 23.7347C93.4227 23.6469 93.3529 23.5784 93.2573 23.5293C93.1643 23.4776 93.0429 23.4518 92.893 23.4518C92.769 23.4518 92.6618 23.4737 92.5714 23.5177C92.4809 23.559 92.4112 23.6159 92.3621 23.6882C92.3156 23.758 92.2923 23.8355 92.2923 23.9207C92.2923 23.9853 92.3052 24.0435 92.3311 24.0951C92.3595 24.1442 92.4047 24.1894 92.4667 24.2308C92.5287 24.2721 92.6088 24.3109 92.707 24.347C92.8078 24.3806 92.9318 24.4116 93.0791 24.4401C93.3814 24.5021 93.6514 24.5835 93.8891 24.6842C94.1268 24.7824 94.3154 24.9167 94.4549 25.0873C94.5944 25.2552 94.6642 25.4761 94.6642 25.75C94.6642 25.936 94.6228 26.1065 94.5401 26.2616C94.4575 26.4166 94.3386 26.5522 94.1836 26.6685C94.0286 26.7822 93.8425 26.8713 93.6255 26.9359C93.4111 26.9979 93.1695 27.0289 92.9008 27.0289C92.5106 27.0289 92.1799 26.9592 91.9086 26.8196C91.6399 26.6801 91.4358 26.5031 91.2963 26.2887C91.1594 26.0717 91.0909 25.8495 91.0909 25.6221H92.1489C92.1541 25.7745 92.1929 25.8973 92.2652 25.9903C92.3401 26.0833 92.4344 26.1505 92.5481 26.1918C92.6644 26.2331 92.7897 26.2538 92.924 26.2538C93.0687 26.2538 93.1889 26.2344 93.2845 26.1957C93.3801 26.1543 93.4524 26.1001 93.5015 26.0329C93.5532 25.9631 93.579 25.8831 93.579 25.7926Z" fill="#2E2E2E"/>
<defs>
<clipPath id="clip0_18_7431">
<rect width="29.1029" height="29.1029" fill="white" transform="translate(0.0683594 0.448608)"/>
</clipPath>
<clipPath id="clip1_18_7431">
<rect width="82.3478" height="15.8743" fill="white" transform="translate(34.1318 1.04883)"/>
</clipPath>
</defs>
</svg>
