<svg width="77" height="44" viewBox="0 0 77 44" fill="none" xmlns="http://www.w3.org/2000/svg">
<path d="M5.29143 8.47611L7.59068 7.90442L8.55133 10.8092L5.29143 8.47611ZM10.5829 4.72148H6.53554L5.29143 0.9823L4.04731 4.72148H0L3.27565 7.03915L2.03153 10.7783L5.30718 8.46066L7.32296 7.03915L10.5829 4.72148Z" fill="#219653"/>
<path d="M14.4281 3.69341V8.39575H13.4624V3.69341H14.4281ZM15.875 3.69341V4.45237H12.0382V3.69341H15.875ZM17.0732 5.66348V8.39575H16.143V4.90129H17.0183L17.0732 5.66348ZM18.126 4.87868L18.1099 5.74099C18.0647 5.73454 18.0098 5.72915 17.9452 5.72485C17.8827 5.71839 17.8257 5.71516 17.774 5.71516C17.6427 5.71516 17.5285 5.73238 17.4317 5.76683C17.3369 5.79913 17.2573 5.84757 17.1927 5.91217C17.1302 5.97676 17.0829 6.05535 17.0506 6.14793C17.0204 6.24051 17.0032 6.34601 16.9989 6.46443L16.8116 6.4063C16.8116 6.18022 16.8342 5.97245 16.8794 5.78298C16.9246 5.59136 16.9903 5.42449 17.0764 5.28239C17.1647 5.14028 17.2723 5.03048 17.3994 4.95296C17.5264 4.87545 17.6717 4.8367 17.8354 4.8367C17.887 4.8367 17.9398 4.841 17.9936 4.84962C18.0474 4.85608 18.0916 4.86576 18.126 4.87868ZM20.6322 7.55928V4.90129H21.5624V8.39575H20.6871L20.6322 7.55928ZM20.7356 6.8423L21.0101 6.83584C21.0101 7.06837 20.9832 7.28476 20.9294 7.485C20.8755 7.68308 20.7948 7.85533 20.6871 8.00174C20.5795 8.14599 20.4438 8.25903 20.2802 8.34085C20.1166 8.42051 19.9239 8.46034 19.7021 8.46034C19.532 8.46034 19.3748 8.43666 19.2306 8.38929C19.0885 8.33977 18.9657 8.26334 18.8624 8.15999C18.7612 8.05449 18.6815 7.91992 18.6234 7.75628C18.5674 7.5905 18.5394 7.39134 18.5394 7.1588V4.90129H19.4696V7.16526C19.4696 7.26861 19.4814 7.35581 19.5051 7.42686C19.5309 7.49791 19.5664 7.55605 19.6117 7.60126C19.6569 7.64648 19.7096 7.67877 19.7699 7.69815C19.8324 7.71753 19.9013 7.72722 19.9766 7.72722C20.1682 7.72722 20.319 7.68846 20.4288 7.61095C20.5407 7.53344 20.6193 7.42794 20.6645 7.29445C20.7119 7.1588 20.7356 7.00809 20.7356 6.8423ZM24.1622 7.43009C24.1622 7.36335 24.1428 7.30306 24.1041 7.24923C24.0653 7.19541 23.9932 7.14588 23.8877 7.10067C23.7843 7.0533 23.6347 7.01024 23.4388 6.97148C23.2622 6.93273 23.0975 6.88428 22.9446 6.82615C22.7939 6.76586 22.6626 6.69374 22.5506 6.60977C22.4408 6.5258 22.3547 6.42675 22.2923 6.31264C22.2298 6.19637 22.1986 6.06396 22.1986 5.9154C22.1986 5.76899 22.2298 5.63119 22.2923 5.502C22.3568 5.37282 22.4484 5.2587 22.5668 5.15966C22.6873 5.05847 22.8338 4.97988 23.006 4.9239C23.1804 4.86576 23.3763 4.8367 23.5938 4.8367C23.8974 4.8367 24.1579 4.88514 24.3754 4.98203C24.595 5.07892 24.7629 5.21241 24.8792 5.38251C24.9976 5.55045 25.0568 5.74207 25.0568 5.95738H24.1267C24.1267 5.86695 24.1073 5.78621 24.0686 5.71516C24.032 5.64195 23.9738 5.5849 23.8942 5.54399C23.8166 5.50093 23.7154 5.47939 23.5906 5.47939C23.4872 5.47939 23.3979 5.4977 23.3225 5.5343C23.2472 5.56875 23.189 5.61612 23.1481 5.6764C23.1094 5.73454 23.09 5.79913 23.09 5.87018C23.09 5.92401 23.1007 5.97245 23.1223 6.01551C23.146 6.05642 23.1836 6.0941 23.2353 6.12855C23.287 6.163 23.3537 6.1953 23.4355 6.22544C23.5195 6.25343 23.6229 6.27927 23.7456 6.30295C23.9975 6.35462 24.2225 6.42245 24.4206 6.50642C24.6187 6.58823 24.7758 6.7002 24.8921 6.8423C25.0084 6.98225 25.0665 7.16634 25.0665 7.39457C25.0665 7.54959 25.0321 7.69169 24.9632 7.82088C24.8943 7.95006 24.7952 8.0631 24.666 8.15999C24.5368 8.25472 24.3818 8.32901 24.201 8.38283C24.0223 8.43451 23.8209 8.46034 23.597 8.46034C23.2719 8.46034 22.9963 8.40221 22.7702 8.28594C22.5463 8.16968 22.3762 8.02219 22.26 7.84348C22.1458 7.66263 22.0888 7.47746 22.0888 7.28799H22.9705C22.9748 7.41502 23.0071 7.51729 23.0674 7.5948C23.1298 7.67231 23.2084 7.72829 23.3031 7.76274C23.4 7.79719 23.5044 7.81442 23.6164 7.81442C23.737 7.81442 23.8371 7.79827 23.9168 7.76597C23.9964 7.73152 24.0567 7.68631 24.0976 7.63033C24.1407 7.5722 24.1622 7.50545 24.1622 7.43009ZM27.3822 4.90129V5.56014H25.3475V4.90129H27.3822ZM25.8513 4.03898H26.7814V7.34289C26.7814 7.44409 26.7944 7.5216 26.8202 7.57543C26.8482 7.62925 26.8891 7.66693 26.9429 7.68846C26.9968 7.70784 27.0646 7.71753 27.1464 7.71753C27.2045 7.71753 27.2562 7.71538 27.3014 7.71107C27.3488 7.70461 27.3886 7.69815 27.4209 7.69169L27.4241 8.37637C27.3445 8.40221 27.2584 8.42267 27.1658 8.43774C27.0732 8.45281 26.9709 8.46034 26.859 8.46034C26.6544 8.46034 26.4757 8.42697 26.3228 8.36023C26.1721 8.29133 26.0559 8.18152 25.974 8.0308C25.8922 7.88009 25.8513 7.682 25.8513 7.43655V4.03898ZM28.8419 5.57305V9.73928H27.9118V4.90129H28.7741L28.8419 5.57305ZM31.0542 6.60977V6.67759C31.0542 6.93165 31.0241 7.16742 30.9638 7.38488C30.9057 7.60234 30.8196 7.79181 30.7054 7.95329C30.5913 8.11262 30.4492 8.2375 30.2791 8.32793C30.1112 8.41621 29.9174 8.46034 29.6978 8.46034C29.4846 8.46034 29.2995 8.41728 29.1423 8.33116C28.9851 8.24504 28.8527 8.12446 28.7451 7.96944C28.6396 7.81227 28.5545 7.63033 28.4899 7.42363C28.4253 7.21694 28.3758 6.99517 28.3414 6.75833V6.5807C28.3758 6.32663 28.4253 6.0941 28.4899 5.8831C28.5545 5.66994 28.6396 5.48585 28.7451 5.33083C28.8527 5.17366 28.9841 5.05201 29.1391 4.96588C29.2963 4.87976 29.4803 4.8367 29.6913 4.8367C29.9131 4.8367 30.108 4.87868 30.2759 4.96265C30.446 5.04662 30.5881 5.1672 30.7022 5.32437C30.8185 5.48155 30.9057 5.66887 30.9638 5.88633C31.0241 6.10379 31.0542 6.34494 31.0542 6.60977ZM30.1209 6.67759V6.60977C30.1209 6.4612 30.108 6.32448 30.0821 6.1996C30.0584 6.07257 30.0197 5.96169 29.9659 5.86695C29.9142 5.77221 29.8453 5.69901 29.7592 5.64734C29.6752 5.59351 29.5729 5.56659 29.4523 5.56659C29.3253 5.56659 29.2166 5.58705 29.1262 5.62796C29.0379 5.66887 28.9658 5.72808 28.9098 5.80559C28.8538 5.8831 28.8118 5.97568 28.7838 6.08334C28.7558 6.19099 28.7386 6.31264 28.7321 6.44828V6.8972C28.7429 7.05653 28.7731 7.19971 28.8226 7.32674C28.8721 7.45162 28.9485 7.55067 29.0519 7.62387C29.1552 7.69708 29.2909 7.73368 29.4588 7.73368C29.5815 7.73368 29.6849 7.70676 29.7689 7.65294C29.8528 7.59696 29.9206 7.52052 29.9723 7.42363C30.0261 7.32674 30.0638 7.21478 30.0854 7.08775C30.109 6.96072 30.1209 6.824 30.1209 6.67759ZM32.6142 4.90129V8.39575H31.6808V4.90129H32.6142ZM31.6227 3.99053C31.6227 3.85489 31.67 3.74293 31.7648 3.65465C31.8595 3.56638 31.9865 3.52224 32.1459 3.52224C32.303 3.52224 32.429 3.56638 32.5237 3.65465C32.6206 3.74293 32.6691 3.85489 32.6691 3.99053C32.6691 4.12618 32.6206 4.23814 32.5237 4.32642C32.429 4.41469 32.303 4.45883 32.1459 4.45883C31.9865 4.45883 31.8595 4.41469 31.7648 4.32642C31.67 4.23814 31.6227 4.12618 31.6227 3.99053ZM34.3646 3.43504V8.39575H33.4313V3.43504H34.3646ZM34.9847 6.68405V6.61623C34.9847 6.36001 35.0213 6.12424 35.0945 5.90894C35.1677 5.69147 35.2743 5.50308 35.4142 5.34375C35.5542 5.18442 35.7264 5.06062 35.931 4.97234C36.1355 4.88191 36.3702 4.8367 36.635 4.8367C36.8999 4.8367 37.1356 4.88191 37.3423 4.97234C37.549 5.06062 37.7224 5.18442 37.8623 5.34375C38.0044 5.50308 38.1121 5.69147 38.1853 5.90894C38.2585 6.12424 38.2951 6.36001 38.2951 6.61623V6.68405C38.2951 6.93811 38.2585 7.17387 38.1853 7.39134C38.1121 7.60665 38.0044 7.79504 37.8623 7.95652C37.7224 8.11585 37.5501 8.23965 37.3456 8.32793C37.141 8.41621 36.9063 8.46034 36.6415 8.46034C36.3767 8.46034 36.1409 8.41621 35.9342 8.32793C35.7297 8.23965 35.5564 8.11585 35.4142 7.95652C35.2743 7.79504 35.1677 7.60665 35.0945 7.39134C35.0213 7.17387 34.9847 6.93811 34.9847 6.68405ZM35.9148 6.61623V6.68405C35.9148 6.83046 35.9278 6.96718 35.9536 7.09421C35.9794 7.22124 36.0203 7.3332 36.0763 7.43009C36.1345 7.52483 36.2098 7.59911 36.3024 7.65294C36.395 7.70676 36.508 7.73368 36.6415 7.73368C36.7707 7.73368 36.8816 7.70676 36.9742 7.65294C37.0667 7.59911 37.141 7.52483 37.197 7.43009C37.253 7.3332 37.2939 7.22124 37.3197 7.09421C37.3477 6.96718 37.3617 6.83046 37.3617 6.68405V6.61623C37.3617 6.47412 37.3477 6.34063 37.3197 6.21575C37.2939 6.08872 37.2519 5.97676 37.1938 5.87987C37.1378 5.78083 37.0635 5.70332 36.9709 5.64734C36.8783 5.59136 36.7664 5.56337 36.635 5.56337C36.5037 5.56337 36.3917 5.59136 36.2992 5.64734C36.2087 5.70332 36.1345 5.78083 36.0763 5.87987C36.0203 5.97676 35.9794 6.08872 35.9536 6.21575C35.9278 6.34063 35.9148 6.47412 35.9148 6.61623ZM40.5784 4.90129V5.56014H38.5438V4.90129H40.5784ZM39.0476 4.03898H39.9777V7.34289C39.9777 7.44409 39.9906 7.5216 40.0165 7.57543C40.0445 7.62925 40.0854 7.66693 40.1392 7.68846C40.193 7.70784 40.2608 7.71753 40.3427 7.71753C40.4008 7.71753 40.4525 7.71538 40.4977 7.71107C40.5451 7.70461 40.5849 7.69815 40.6172 7.69169L40.6204 8.37637C40.5407 8.40221 40.4546 8.42267 40.362 8.43774C40.2695 8.45281 40.1672 8.46034 40.0552 8.46034C39.8507 8.46034 39.672 8.42697 39.5191 8.36023C39.3684 8.29133 39.2521 8.18152 39.1703 8.0308C39.0885 7.88009 39.0476 7.682 39.0476 7.43655V4.03898Z" fill="#2E2E2E"/>
<rect width="14.2085" height="14.2085" transform="translate(0 13.8092)" fill="#219653"/>
<path d="M7.10431 23.525L9.26518 22.9464L10.168 25.8864L7.10431 23.525ZM12.0773 19.7249H8.27355L7.10431 15.9404L5.93507 19.7249H2.13135L5.20985 22.0706L4.04061 25.8551L7.11911 23.5093L9.01357 22.0706L12.0773 19.7249Z" fill="white"/>
<rect width="14.2085" height="14.2085" transform="translate(15.6294 13.8092)" fill="#219653"/>
<path d="M22.7337 23.525L24.8946 22.9464L25.7974 25.8864L22.7337 23.525ZM27.7067 19.7249H23.9029L22.7337 15.9404L21.5645 19.7249H17.7607L20.8392 22.0706L19.67 25.8551L22.7485 23.5093L24.643 22.0706L27.7067 19.7249Z" fill="white"/>
<rect width="14.2085" height="14.2085" transform="translate(31.2588 13.8092)" fill="#219653"/>
<path d="M38.3626 23.525L40.5235 22.9464L41.4263 25.8864L38.3626 23.525ZM43.3356 19.7249H39.5318L38.3626 15.9404L37.1934 19.7249H33.3896L36.4682 22.0706L35.2989 25.8551L38.3774 23.5093L40.2719 22.0706L43.3356 19.7249Z" fill="white"/>
<rect width="14.2085" height="14.2085" transform="translate(46.8877 13.8092)" fill="#219653"/>
<path d="M53.992 23.525L56.1529 22.9464L57.0557 25.8864L53.992 23.525ZM58.965 19.7249H55.1612L53.992 15.9404L52.8228 19.7249H49.019L52.0975 22.0706L50.9283 25.8551L54.0068 23.5093L55.9013 22.0706L58.965 19.7249Z" fill="white"/>
<rect width="14.2085" height="14.2085" transform="translate(62.5171 13.8092)" fill="url(#paint0_linear_18_7425)"/>
<path d="M69.6214 23.525L71.7823 22.9464L72.6851 25.8864L69.6214 23.525ZM74.5944 19.7249H70.7906L69.6214 15.9404L68.4522 19.7249H64.6484L67.7269 22.0706L66.5577 25.8551L69.6362 23.5093L71.5307 22.0706L74.5944 19.7249Z" fill="white"/>
<path d="M1.82668 35.2558V39.0177H1.33578V35.2558H1.82668ZM3.03585 35.2558V35.6641H0.129185V35.2558H3.03585ZM3.80321 36.6614V39.0177H3.32523V36.2221H3.7903L3.80321 36.6614ZM4.67651 36.2066L4.67392 36.651C4.63431 36.6424 4.59641 36.6372 4.56024 36.6355C4.52579 36.6321 4.48617 36.6304 4.44139 36.6304C4.33115 36.6304 4.23383 36.6476 4.14943 36.682C4.06503 36.7165 3.99355 36.7647 3.93498 36.8267C3.87642 36.8887 3.82991 36.9628 3.79546 37.0489C3.76274 37.1333 3.74121 37.2263 3.73087 37.328L3.59652 37.4055C3.59652 37.2367 3.61288 37.0782 3.64561 36.9301C3.68006 36.7819 3.73259 36.651 3.80321 36.5373C3.87384 36.4219 3.9634 36.3324 4.07192 36.2686C4.18216 36.2032 4.31307 36.1705 4.46464 36.1705C4.49909 36.1705 4.53871 36.1748 4.58349 36.1834C4.62828 36.1903 4.65928 36.198 4.67651 36.2066ZM6.82873 38.3718V36.2221H7.3093V39.0177H6.85199L6.82873 38.3718ZM6.91916 37.7827L7.11811 37.7775C7.11811 37.9635 7.0983 38.1358 7.05868 38.2943C7.02079 38.451 6.95878 38.5871 6.87266 38.7025C6.78653 38.8179 6.67371 38.9083 6.53419 38.9738C6.39467 39.0375 6.22501 39.0694 6.0252 39.0694C5.88913 39.0694 5.76425 39.0496 5.65056 39.0099C5.5386 38.9703 5.44214 38.9092 5.36119 38.8265C5.28023 38.7438 5.21736 38.6362 5.17258 38.5035C5.12952 38.3709 5.10798 38.2116 5.10798 38.0256V36.2221H5.58597V38.0307C5.58597 38.1565 5.59975 38.2607 5.62731 38.3434C5.65659 38.4243 5.69535 38.4889 5.74358 38.5371C5.79353 38.5836 5.84865 38.6164 5.90893 38.6353C5.97094 38.6543 6.03467 38.6637 6.10013 38.6637C6.30338 38.6637 6.46443 38.625 6.58328 38.5475C6.70213 38.4682 6.78739 38.3623 6.83907 38.2297C6.89246 38.0953 6.91916 37.9463 6.91916 37.7827ZM9.66564 38.2762C9.66564 38.2073 9.65014 38.1435 9.61913 38.085C9.58985 38.0247 9.5287 37.9704 9.43569 37.9222C9.3444 37.8723 9.2066 37.8292 9.0223 37.793C8.86728 37.7603 8.72689 37.7215 8.60115 37.6768C8.47714 37.632 8.3712 37.5777 8.28336 37.514C8.19723 37.4503 8.13092 37.3753 8.08441 37.2892C8.03791 37.2031 8.01465 37.1023 8.01465 36.9869C8.01465 36.8767 8.03877 36.7725 8.087 36.6743C8.13695 36.5761 8.20671 36.4891 8.29628 36.4133C8.38757 36.3375 8.49694 36.2781 8.62441 36.235C8.75187 36.192 8.89397 36.1705 9.05072 36.1705C9.27464 36.1705 9.46583 36.2101 9.6243 36.2893C9.78277 36.3685 9.9042 36.4745 9.9886 36.6071C10.073 36.738 10.1152 36.8836 10.1152 37.0437H9.63722C9.63722 36.9662 9.61397 36.8913 9.56746 36.819C9.52268 36.7449 9.45636 36.6838 9.36851 36.6355C9.28239 36.5873 9.17646 36.5632 9.05072 36.5632C8.91809 36.5632 8.81043 36.5838 8.72776 36.6252C8.6468 36.6648 8.58737 36.7156 8.54948 36.7776C8.51331 36.8396 8.49522 36.9051 8.49522 36.974C8.49522 37.0257 8.50383 37.0722 8.52106 37.1135C8.54001 37.1531 8.57273 37.1902 8.61924 37.2246C8.66575 37.2573 8.7312 37.2883 8.8156 37.3176C8.9 37.3469 9.00766 37.3762 9.13856 37.4055C9.36765 37.4571 9.55626 37.5192 9.7044 37.5915C9.85253 37.6638 9.96277 37.7525 10.0351 37.8576C10.1075 37.9627 10.1436 38.0902 10.1436 38.24C10.1436 38.3623 10.1178 38.4743 10.0661 38.5759C10.0162 38.6775 9.94296 38.7654 9.8465 38.8394C9.75176 38.9118 9.63808 38.9686 9.50545 39.0099C9.37454 39.0496 9.22727 39.0694 9.06364 39.0694C8.81732 39.0694 8.60891 39.0255 8.43838 38.9376C8.26786 38.8498 8.13867 38.7361 8.05082 38.5966C7.96298 38.457 7.91906 38.3098 7.91906 38.1547H8.39963C8.40652 38.2857 8.44441 38.3899 8.51331 38.4674C8.58221 38.5432 8.66661 38.5974 8.76651 38.6301C8.86641 38.6611 8.96546 38.6767 9.06364 38.6767C9.19455 38.6767 9.30392 38.6594 9.39177 38.625C9.48134 38.5905 9.54937 38.5432 9.59588 38.4829C9.64239 38.4226 9.66564 38.3537 9.66564 38.2762ZM11.9419 36.2221V36.589H10.4304V36.2221H11.9419ZM10.942 35.5426H11.42V38.3253C11.42 38.42 11.4346 38.4915 11.4639 38.5397C11.4932 38.5879 11.5311 38.6198 11.5776 38.6353C11.6241 38.6508 11.674 38.6586 11.7274 38.6586C11.7671 38.6586 11.8084 38.6551 11.8515 38.6482C11.8962 38.6396 11.9298 38.6327 11.9522 38.6276L11.9548 39.0177C11.9169 39.0298 11.867 39.041 11.8049 39.0513C11.7447 39.0633 11.6715 39.0694 11.5853 39.0694C11.4682 39.0694 11.3606 39.0461 11.2624 38.9996C11.1642 38.9531 11.0858 38.8756 11.0273 38.7671C10.9704 38.6568 10.942 38.5087 10.942 38.3227V35.5426ZM14.5798 38.0669C14.5798 37.9791 14.5661 37.9015 14.5385 37.8344C14.5127 37.7655 14.4662 37.7035 14.399 37.6483C14.3335 37.5932 14.2422 37.5407 14.1251 37.4907C14.0097 37.4408 13.8633 37.39 13.6859 37.3383C13.4999 37.2832 13.3319 37.222 13.1821 37.1548C13.0322 37.0859 12.9039 37.0076 12.7971 36.9197C12.6903 36.8319 12.6085 36.7311 12.5516 36.6174C12.4948 36.5038 12.4664 36.3737 12.4664 36.2273C12.4664 36.0809 12.4965 35.9457 12.5568 35.8217C12.6171 35.6976 12.7032 35.59 12.8152 35.4987C12.9289 35.4057 13.0641 35.3333 13.2208 35.2817C13.3776 35.23 13.5524 35.2042 13.7453 35.2042C14.0278 35.2042 14.2672 35.2584 14.4636 35.3669C14.6617 35.4737 14.8124 35.6141 14.9157 35.7881C15.0191 35.9603 15.0708 36.1446 15.0708 36.341H14.5747C14.5747 36.1997 14.5445 36.0749 14.4843 35.9663C14.424 35.8561 14.3327 35.77 14.2104 35.708C14.0881 35.6442 13.9331 35.6124 13.7453 35.6124C13.5679 35.6124 13.4215 35.6391 13.3061 35.6925C13.1907 35.7459 13.1046 35.8182 13.0477 35.9095C12.9926 36.0008 12.965 36.105 12.965 36.2221C12.965 36.3014 12.9814 36.3737 13.0141 36.4392C13.0486 36.5029 13.1011 36.5623 13.1717 36.6174C13.2441 36.6726 13.3354 36.7234 13.4456 36.7699C13.5576 36.8164 13.6911 36.8612 13.8461 36.9042C14.0597 36.9645 14.244 37.0317 14.399 37.1058C14.554 37.1798 14.6815 37.2634 14.7814 37.3564C14.883 37.4477 14.9579 37.5519 15.0062 37.669C15.0561 37.7844 15.0811 37.9153 15.0811 38.0617C15.0811 38.215 15.0501 38.3537 14.9881 38.4777C14.9261 38.6017 14.8374 38.7077 14.722 38.7955C14.6065 38.8833 14.4679 38.9514 14.306 38.9996C14.1458 39.0461 13.9666 39.0694 13.7686 39.0694C13.5946 39.0694 13.4232 39.0453 13.2544 38.997C13.0873 38.9488 12.9349 38.8765 12.7971 38.78C12.661 38.6835 12.5516 38.5647 12.469 38.4234C12.388 38.2805 12.3475 38.1151 12.3475 37.9274H12.8436C12.8436 38.0566 12.8686 38.1677 12.9185 38.2607C12.9685 38.352 13.0365 38.4278 13.1226 38.488C13.2105 38.5483 13.3095 38.5931 13.4198 38.6224C13.5317 38.65 13.648 38.6637 13.7686 38.6637C13.9425 38.6637 14.0898 38.6396 14.2104 38.5914C14.331 38.5432 14.4222 38.4743 14.4843 38.3847C14.548 38.2951 14.5798 38.1892 14.5798 38.0669ZM16.7631 38.6767C16.8768 38.6767 16.9818 38.6534 17.0783 38.6069C17.1747 38.5604 17.254 38.4967 17.316 38.4157C17.378 38.333 17.4133 38.2391 17.4219 38.1341H17.8767C17.868 38.2994 17.8121 38.4536 17.7087 38.5966C17.6071 38.7378 17.4736 38.8523 17.3082 38.9402C17.1429 39.0263 16.9612 39.0694 16.7631 39.0694C16.5529 39.0694 16.3695 39.0323 16.2127 38.9583C16.0577 38.8842 15.9285 38.7826 15.8252 38.6534C15.7236 38.5242 15.6469 38.3761 15.5952 38.209C15.5453 38.0402 15.5203 37.8619 15.5203 37.6742V37.5657C15.5203 37.3779 15.5453 37.2005 15.5952 37.0334C15.6469 36.8646 15.7236 36.7156 15.8252 36.5864C15.9285 36.4572 16.0577 36.3556 16.2127 36.2816C16.3695 36.2075 16.5529 36.1705 16.7631 36.1705C16.9818 36.1705 17.173 36.2152 17.3367 36.3048C17.5003 36.3927 17.6286 36.5132 17.7216 36.6665C17.8164 36.8181 17.868 36.9904 17.8767 37.1833H17.4219C17.4133 37.0679 17.3806 36.9637 17.3237 36.8706C17.2686 36.7776 17.1928 36.7036 17.0964 36.6484C17.0016 36.5916 16.8905 36.5632 16.7631 36.5632C16.6167 36.5632 16.4935 36.5925 16.3936 36.651C16.2954 36.7079 16.2171 36.7854 16.1585 36.8836C16.1017 36.98 16.0603 37.0877 16.0345 37.2065C16.0104 37.3237 15.9983 37.4434 15.9983 37.5657V37.6742C15.9983 37.7965 16.0104 37.917 16.0345 38.0359C16.0586 38.1547 16.0991 38.2624 16.1559 38.3589C16.2145 38.4553 16.2928 38.5328 16.391 38.5914C16.4909 38.6482 16.6149 38.6767 16.7631 38.6767ZM18.2875 37.6509V37.5915C18.2875 37.39 18.3167 37.2031 18.3753 37.0308C18.4339 36.8569 18.5183 36.7061 18.6285 36.5787C18.7388 36.4495 18.8722 36.3496 19.029 36.279C19.1857 36.2066 19.3614 36.1705 19.5561 36.1705C19.7524 36.1705 19.929 36.2066 20.0857 36.279C20.2442 36.3496 20.3785 36.4495 20.4888 36.5787C20.6007 36.7061 20.686 36.8569 20.7446 37.0308C20.8031 37.2031 20.8324 37.39 20.8324 37.5915V37.6509C20.8324 37.8524 20.8031 38.0393 20.7446 38.2116C20.686 38.3838 20.6007 38.5345 20.4888 38.6637C20.3785 38.7912 20.2451 38.8911 20.0883 38.9634C19.9333 39.0341 19.7576 39.0694 19.5612 39.0694C19.3649 39.0694 19.1883 39.0341 19.0316 38.9634C18.8748 38.8911 18.7405 38.7912 18.6285 38.6637C18.5183 38.5345 18.4339 38.3838 18.3753 38.2116C18.3167 38.0393 18.2875 37.8524 18.2875 37.6509ZM18.7655 37.5915V37.6509C18.7655 37.7904 18.7818 37.9222 18.8145 38.0462C18.8473 38.1685 18.8964 38.277 18.9618 38.3718C19.029 38.4665 19.1125 38.5414 19.2124 38.5966C19.3123 38.65 19.4286 38.6767 19.5612 38.6767C19.6921 38.6767 19.8067 38.65 19.9049 38.5966C20.0048 38.5414 20.0874 38.4665 20.1529 38.3718C20.2184 38.277 20.2674 38.1685 20.3002 38.0462C20.3346 37.9222 20.3518 37.7904 20.3518 37.6509V37.5915C20.3518 37.4537 20.3346 37.3237 20.3002 37.2014C20.2674 37.0773 20.2175 36.968 20.1503 36.8732C20.0849 36.7768 20.0022 36.701 19.9023 36.6459C19.8041 36.5907 19.6887 36.5632 19.5561 36.5632C19.4252 36.5632 19.3098 36.5907 19.2098 36.6459C19.1117 36.701 19.029 36.7768 18.9618 36.8732C18.8964 36.968 18.8473 37.0773 18.8145 37.2014C18.7818 37.3237 18.7655 37.4537 18.7655 37.5915ZM21.9098 36.6614V39.0177H21.4318V36.2221H21.8969L21.9098 36.6614ZM22.7831 36.2066L22.7805 36.651C22.7409 36.6424 22.703 36.6372 22.6668 36.6355C22.6324 36.6321 22.5928 36.6304 22.548 36.6304C22.4378 36.6304 22.3404 36.6476 22.256 36.682C22.1716 36.7165 22.1002 36.7647 22.0416 36.8267C21.983 36.8887 21.9365 36.9628 21.9021 37.0489C21.8693 37.1333 21.8478 37.2263 21.8375 37.328L21.7031 37.4055C21.7031 37.2367 21.7195 37.0782 21.7522 36.9301C21.7867 36.7819 21.8392 36.651 21.9098 36.5373C21.9804 36.4219 22.07 36.3324 22.1785 36.2686C22.2888 36.2032 22.4197 36.1705 22.5712 36.1705C22.6057 36.1705 22.6453 36.1748 22.6901 36.1834C22.7349 36.1903 22.7659 36.198 22.7831 36.2066ZM24.3333 39.0694C24.1387 39.0694 23.9621 39.0366 23.8037 38.9712C23.6469 38.904 23.5117 38.8101 23.398 38.6896C23.2861 38.569 23.1999 38.426 23.1397 38.2607C23.0794 38.0953 23.0492 37.9145 23.0492 37.7181V37.6096C23.0492 37.3822 23.0828 37.1798 23.15 37.0024C23.2172 36.8233 23.3085 36.6717 23.4239 36.5477C23.5393 36.4237 23.6702 36.3298 23.8166 36.2661C23.963 36.2023 24.1146 36.1705 24.2713 36.1705C24.4711 36.1705 24.6434 36.2049 24.7881 36.2738C24.9345 36.3427 25.0542 36.4392 25.1472 36.5632C25.2402 36.6855 25.3091 36.8302 25.3539 36.9972C25.3987 37.1626 25.4211 37.3435 25.4211 37.5398V37.7543H23.3334V37.3641H24.9431V37.328C24.9362 37.2039 24.9104 37.0834 24.8656 36.9662C24.8225 36.8491 24.7536 36.7527 24.6589 36.6769C24.5641 36.6011 24.435 36.5632 24.2713 36.5632C24.1628 36.5632 24.0629 36.5864 23.9716 36.6329C23.8803 36.6777 23.802 36.7449 23.7365 36.8345C23.671 36.924 23.6202 37.0334 23.5841 37.1626C23.5479 37.2918 23.5298 37.4408 23.5298 37.6096V37.7181C23.5298 37.8507 23.5479 37.9756 23.5841 38.0927C23.622 38.2081 23.6762 38.3098 23.7468 38.3976C23.8192 38.4855 23.9062 38.5544 24.0078 38.6043C24.1111 38.6543 24.2283 38.6792 24.3592 38.6792C24.528 38.6792 24.6709 38.6448 24.7881 38.5759C24.9052 38.507 25.0077 38.4148 25.0955 38.2994L25.3849 38.5294C25.3246 38.6207 25.248 38.7077 25.155 38.7903C25.0619 38.873 24.9474 38.9402 24.8113 38.9919C24.677 39.0435 24.5176 39.0694 24.3333 39.0694ZM29.8211 37.6122V38.1961H27.1108L27.0746 37.7439L28.643 35.2558H29.2346L28.5939 36.3281L27.8136 37.6122H29.8211ZM29.3948 35.2558V39.0177H28.6507V35.2558H29.3948ZM30.2914 38.6586C30.2914 38.5483 30.3293 38.4562 30.405 38.3821C30.4826 38.308 30.585 38.271 30.7125 38.271C30.84 38.271 30.9416 38.308 31.0174 38.3821C31.0949 38.4562 31.1336 38.5483 31.1336 38.6586C31.1336 38.7688 31.0949 38.861 31.0174 38.935C30.9416 39.0091 30.84 39.0461 30.7125 39.0461C30.585 39.0461 30.4826 39.0091 30.405 38.935C30.3293 38.861 30.2914 38.7688 30.2914 38.6586ZM34.3142 35.2558V35.6563L32.8596 39.0177H32.0741L33.5287 35.8372H31.6556V35.2558H34.3142Z" fill="#2E2E2E"/>
<path d="M43.5642 38.4364V39.0177H40.9908V38.5216L42.2077 37.2169C42.33 37.0808 42.4265 36.9611 42.4971 36.8577C42.5677 36.7527 42.6185 36.6588 42.6495 36.5761C42.6823 36.4917 42.6986 36.4116 42.6986 36.3358C42.6986 36.2221 42.6797 36.1248 42.6418 36.0439C42.6039 35.9612 42.5479 35.8974 42.4738 35.8527C42.4015 35.8079 42.3119 35.7855 42.2051 35.7855C42.0915 35.7855 41.9933 35.813 41.9106 35.8682C41.8296 35.9233 41.7676 35.9999 41.7246 36.0981C41.6832 36.1963 41.6626 36.3074 41.6626 36.4314H40.9159C40.9159 36.2075 40.9693 36.0025 41.0761 35.8165C41.1828 35.6287 41.3336 35.4797 41.5282 35.3695C41.7228 35.2575 41.9537 35.2016 42.2206 35.2016C42.4842 35.2016 42.7064 35.2446 42.8872 35.3308C43.0698 35.4152 43.2076 35.5374 43.3006 35.6976C43.3954 35.8561 43.4427 36.0456 43.4427 36.2661C43.4427 36.3901 43.4229 36.5115 43.3833 36.6304C43.3437 36.7475 43.2868 36.8646 43.2128 36.9817C43.1404 37.0971 43.0526 37.2143 42.9492 37.3331C42.8459 37.452 42.7313 37.5751 42.6056 37.7026L41.9519 38.4364H43.5642ZM46.5638 37.9868C46.5638 38.2228 46.5087 38.4217 46.3985 38.5836C46.2882 38.7438 46.1367 38.8653 45.9438 38.9479C45.7526 39.0289 45.5355 39.0694 45.2927 39.0694C45.0498 39.0694 44.8319 39.0289 44.639 38.9479C44.4461 38.8653 44.2936 38.7438 44.1817 38.5836C44.0697 38.4217 44.0137 38.2228 44.0137 37.9868C44.0137 37.8283 44.0456 37.6854 44.1093 37.5579C44.1731 37.4287 44.2618 37.3185 44.3754 37.2272C44.4909 37.1342 44.6261 37.0636 44.7811 37.0153C44.9361 36.9654 45.1049 36.9404 45.2875 36.9404C45.5321 36.9404 45.7508 36.9835 45.9438 37.0696C46.1367 37.1557 46.2882 37.2771 46.3985 37.4339C46.5087 37.5906 46.5638 37.7749 46.5638 37.9868ZM45.8146 37.9377C45.8146 37.8223 45.7922 37.7233 45.7474 37.6406C45.7043 37.5562 45.6432 37.4916 45.564 37.4468C45.4847 37.402 45.3926 37.3796 45.2875 37.3796C45.1824 37.3796 45.0903 37.402 45.011 37.4468C44.9318 37.4916 44.8698 37.5562 44.825 37.6406C44.7819 37.7233 44.7604 37.8223 44.7604 37.9377C44.7604 38.0514 44.7819 38.1496 44.825 38.2323C44.8698 38.3149 44.9318 38.3787 45.011 38.4234C45.092 38.4665 45.1859 38.488 45.2927 38.488C45.3995 38.488 45.4916 38.4665 45.5691 38.4234C45.6484 38.3787 45.7086 38.3149 45.75 38.2323C45.793 38.1496 45.8146 38.0514 45.8146 37.9377ZM46.4837 36.2531C46.4837 36.4443 46.4329 36.614 46.3313 36.7621C46.2297 36.9085 46.0884 37.0231 45.9076 37.1058C45.7284 37.1884 45.5235 37.2298 45.2927 37.2298C45.0601 37.2298 44.8534 37.1884 44.6726 37.1058C44.4917 37.0231 44.3505 36.9085 44.2488 36.7621C44.1472 36.614 44.0964 36.4443 44.0964 36.2531C44.0964 36.0258 44.1472 35.8346 44.2488 35.6796C44.3522 35.5228 44.4934 35.404 44.6726 35.323C44.8534 35.242 45.0584 35.2016 45.2875 35.2016C45.52 35.2016 45.7259 35.242 45.905 35.323C46.0859 35.404 46.2271 35.5228 46.3287 35.6796C46.4321 35.8346 46.4837 36.0258 46.4837 36.2531ZM45.7396 36.2867C45.7396 36.1851 45.7216 36.0973 45.6854 36.0232C45.6492 35.9474 45.5975 35.8888 45.5304 35.8475C45.4649 35.8062 45.384 35.7855 45.2875 35.7855C45.1945 35.7855 45.1144 35.8053 45.0472 35.8449C44.9818 35.8845 44.9309 35.9422 44.8948 36.018C44.8603 36.0921 44.8431 36.1817 44.8431 36.2867C44.8431 36.3883 44.8603 36.4779 44.8948 36.5554C44.9309 36.6312 44.9826 36.6906 45.0498 36.7337C45.117 36.7768 45.1979 36.7983 45.2927 36.7983C45.3874 36.7983 45.4675 36.7768 45.5329 36.7337C45.6001 36.6906 45.6509 36.6312 45.6854 36.5554C45.7216 36.4779 45.7396 36.3883 45.7396 36.2867ZM48.5636 35.2558H49.809C50.0915 35.2558 50.33 35.2989 50.5247 35.385C50.721 35.4711 50.87 35.5986 50.9716 35.7674C51.075 35.9345 51.1267 36.1403 51.1267 36.3849C51.1267 36.5572 51.0914 36.7148 51.0207 36.8577C50.9518 36.999 50.8519 37.1195 50.721 37.2194C50.5918 37.3176 50.4368 37.3908 50.256 37.4391L50.1164 37.4933H48.946L48.9409 37.0877H49.8245C50.0036 37.0877 50.1526 37.0567 50.2715 36.9947C50.3903 36.9309 50.4799 36.8457 50.5402 36.7389C50.6005 36.6321 50.6306 36.5141 50.6306 36.3849C50.6306 36.2402 50.6022 36.1136 50.5453 36.0051C50.4885 35.8966 50.3989 35.813 50.2766 35.7545C50.1561 35.6942 50.0002 35.6641 49.809 35.6641H49.0623V39.0177H48.5636V35.2558ZM50.7624 39.0177L49.8477 37.3125L50.3671 37.3099L51.2946 38.9867V39.0177H50.7624ZM52.912 39.0694C52.7174 39.0694 52.5408 39.0366 52.3823 38.9712C52.2256 38.904 52.0904 38.8101 51.9767 38.6896C51.8647 38.569 51.7786 38.426 51.7183 38.2607C51.658 38.0953 51.6279 37.9145 51.6279 37.7181V37.6096C51.6279 37.3822 51.6615 37.1798 51.7287 37.0024C51.7958 36.8233 51.8871 36.6717 52.0025 36.5477C52.1179 36.4237 52.2489 36.3298 52.3953 36.2661C52.5417 36.2023 52.6933 36.1705 52.85 36.1705C53.0498 36.1705 53.2221 36.2049 53.3667 36.2738C53.5131 36.3427 53.6329 36.4392 53.7259 36.5632C53.8189 36.6855 53.8878 36.8302 53.9326 36.9972C53.9774 37.1626 53.9997 37.3435 53.9997 37.5398V37.7543H51.9121V37.3641H53.5218V37.328C53.5149 37.2039 53.489 37.0834 53.4443 36.9662C53.4012 36.8491 53.3323 36.7527 53.2376 36.6769C53.1428 36.6011 53.0136 36.5632 52.85 36.5632C52.7415 36.5632 52.6416 36.5864 52.5503 36.6329C52.459 36.6777 52.3806 36.7449 52.3152 36.8345C52.2497 36.924 52.1989 37.0334 52.1627 37.1626C52.1266 37.2918 52.1085 37.4408 52.1085 37.6096V37.7181C52.1085 37.8507 52.1266 37.9756 52.1627 38.0927C52.2006 38.2081 52.2549 38.3098 52.3255 38.3976C52.3979 38.4855 52.4848 38.5544 52.5865 38.6043C52.6898 38.6543 52.8069 38.6792 52.9378 38.6792C53.1066 38.6792 53.2496 38.6448 53.3667 38.5759C53.4839 38.507 53.5864 38.4148 53.6742 38.2994L53.9636 38.5294C53.9033 38.6207 53.8266 38.7077 53.7336 38.7903C53.6406 38.873 53.5261 38.9402 53.39 38.9919C53.2556 39.0435 53.0963 39.0694 52.912 39.0694ZM55.3717 38.5862L56.1365 36.2221H56.6248L55.6197 39.0177H55.2994L55.3717 38.5862ZM54.7335 36.2221L55.5215 38.5991L55.5758 39.0177H55.2554L54.2426 36.2221H54.7335ZM57.604 36.2221V39.0177H57.1234V36.2221H57.604ZM57.0873 35.4806C57.0873 35.4031 57.1105 35.3376 57.157 35.2842C57.2053 35.2308 57.2759 35.2042 57.3689 35.2042C57.4602 35.2042 57.53 35.2308 57.5782 35.2842C57.6281 35.3376 57.6531 35.4031 57.6531 35.4806C57.6531 35.5547 57.6281 35.6184 57.5782 35.6718C57.53 35.7235 57.4602 35.7493 57.3689 35.7493C57.2759 35.7493 57.2053 35.7235 57.157 35.6718C57.1105 35.6184 57.0873 35.5547 57.0873 35.4806ZM59.5315 39.0694C59.3368 39.0694 59.1603 39.0366 59.0018 38.9712C58.8451 38.904 58.7098 38.8101 58.5962 38.6896C58.4842 38.569 58.3981 38.426 58.3378 38.2607C58.2775 38.0953 58.2474 37.9145 58.2474 37.7181V37.6096C58.2474 37.3822 58.2809 37.1798 58.3481 37.0024C58.4153 36.8233 58.5066 36.6717 58.622 36.5477C58.7374 36.4237 58.8683 36.3298 59.0147 36.2661C59.1611 36.2023 59.3127 36.1705 59.4695 36.1705C59.6693 36.1705 59.8415 36.2049 59.9862 36.2738C60.1326 36.3427 60.2523 36.4392 60.3453 36.5632C60.4383 36.6855 60.5072 36.8302 60.552 36.9972C60.5968 37.1626 60.6192 37.3435 60.6192 37.5398V37.7543H58.5316V37.3641H60.1412V37.328C60.1343 37.2039 60.1085 37.0834 60.0637 36.9662C60.0206 36.8491 59.9517 36.7527 59.857 36.6769C59.7623 36.6011 59.6331 36.5632 59.4695 36.5632C59.3609 36.5632 59.261 36.5864 59.1697 36.6329C59.0785 36.6777 59.0001 36.7449 58.9346 36.8345C58.8692 36.924 58.8184 37.0334 58.7822 37.1626C58.746 37.2918 58.7279 37.4408 58.7279 37.6096V37.7181C58.7279 37.8507 58.746 37.9756 58.7822 38.0927C58.8201 38.2081 58.8743 38.3098 58.945 38.3976C59.0173 38.4855 59.1043 38.5544 59.2059 38.6043C59.3093 38.6543 59.4264 38.6792 59.5573 38.6792C59.7261 38.6792 59.8691 38.6448 59.9862 38.5759C60.1033 38.507 60.2058 38.4148 60.2937 38.2994L60.583 38.5294C60.5227 38.6207 60.4461 38.7077 60.3531 38.7903C60.2601 38.873 60.1455 38.9402 60.0094 38.9919C59.8751 39.0435 59.7158 39.0694 59.5315 39.0694ZM61.8852 38.5216L62.6035 36.2221H62.9187L62.8567 36.6794L62.1255 39.0177H61.818L61.8852 38.5216ZM61.4021 36.2221L62.0144 38.5475L62.0583 39.0177H61.7354L60.9241 36.2221H61.4021ZM63.606 38.5294L64.1899 36.2221H64.6653L63.854 39.0177H63.5336L63.606 38.5294ZM62.9885 36.2221L63.6912 38.4829L63.7713 39.0177H63.4664L62.7146 36.6743L62.6526 36.2221H62.9885ZM66.7839 38.2762C66.7839 38.2073 66.7684 38.1435 66.7374 38.085C66.7081 38.0247 66.647 37.9704 66.554 37.9222C66.4627 37.8723 66.3249 37.8292 66.1406 37.793C65.9856 37.7603 65.8452 37.7215 65.7194 37.6768C65.5954 37.632 65.4895 37.5777 65.4016 37.514C65.3155 37.4503 65.2492 37.3753 65.2027 37.2892C65.1562 37.2031 65.1329 37.1023 65.1329 36.9869C65.1329 36.8767 65.157 36.7725 65.2053 36.6743C65.2552 36.5761 65.325 36.4891 65.4146 36.4133C65.5058 36.3375 65.6152 36.2781 65.7427 36.235C65.8701 36.192 66.0123 36.1705 66.169 36.1705C66.3929 36.1705 66.5841 36.2101 66.7426 36.2893C66.901 36.3685 67.0225 36.4745 67.1069 36.6071C67.1913 36.738 67.2335 36.8836 67.2335 37.0437H66.7555C66.7555 36.9662 66.7322 36.8913 66.6857 36.819C66.641 36.7449 66.5746 36.6838 66.4868 36.6355C66.4007 36.5873 66.2947 36.5632 66.169 36.5632C66.0364 36.5632 65.9287 36.5838 65.846 36.6252C65.7651 36.6648 65.7057 36.7156 65.6678 36.7776C65.6316 36.8396 65.6135 36.9051 65.6135 36.974C65.6135 37.0257 65.6221 37.0722 65.6393 37.1135C65.6583 37.1531 65.691 37.1902 65.7375 37.2246C65.784 37.2573 65.8495 37.2883 65.9339 37.3176C66.0183 37.3469 66.1259 37.3762 66.2568 37.4055C66.4859 37.4571 66.6745 37.5192 66.8227 37.5915C66.9708 37.6638 67.081 37.7525 67.1534 37.8576C67.2257 37.9627 67.2619 38.0902 67.2619 38.24C67.2619 38.3623 67.2361 38.4743 67.1844 38.5759C67.1344 38.6775 67.0612 38.7654 66.9648 38.8394C66.87 38.9118 66.7564 38.9686 66.6237 39.0099C66.4928 39.0496 66.3456 39.0694 66.1819 39.0694C65.9356 39.0694 65.7272 39.0255 65.5567 38.9376C65.3861 38.8498 65.257 38.7361 65.1691 38.5966C65.0813 38.457 65.0373 38.3098 65.0373 38.1547H65.5179C65.5248 38.2857 65.5627 38.3899 65.6316 38.4674C65.7005 38.5432 65.7849 38.5974 65.8848 38.6301C65.9847 38.6611 66.0837 38.6767 66.1819 38.6767C66.3128 38.6767 66.4222 38.6594 66.51 38.625C66.5996 38.5905 66.6677 38.5432 66.7142 38.4829C66.7607 38.4226 66.7839 38.3537 66.7839 38.2762Z" fill="#2E2E2E"/>
<defs>
<linearGradient id="paint0_linear_18_7425" x1="0" y1="7.10423" x2="14.2085" y2="7.10423" gradientUnits="userSpaceOnUse">
<stop stop-color="#219653"/>
<stop offset="0.5" stop-color="#219653"/>
<stop offset="0.5001" stop-color="#219653" stop-opacity="0"/>
<stop offset="0.5002" stop-color="#D9D9D9"/>
<stop offset="0.9998" stop-color="#D9D9D9"/>
<stop offset="0.9999" stop-color="#219653" stop-opacity="0"/>
<stop offset="1" stop-color="#D9D9D9"/>
</linearGradient>
</defs>
</svg>
