<svg width="16" height="16" viewBox="0 0 16 16" fill="none" xmlns="http://www.w3.org/2000/svg">
<path d="M3.33301 5.33337C4.43758 5.33337 5.33301 4.43794 5.33301 3.33337C5.33301 2.2288 4.43758 1.33337 3.33301 1.33337C2.22844 1.33337 1.33301 2.2288 1.33301 3.33337C1.33301 4.43794 2.22844 5.33337 3.33301 5.33337Z" stroke="#2E2E2E" stroke-linecap="round" stroke-linejoin="round"/>
<path d="M12.667 10C13.7716 10 14.667 9.10457 14.667 8C14.667 6.89543 13.7716 6 12.667 6C11.5624 6 10.667 6.89543 10.667 8C10.667 9.10457 11.5624 10 12.667 10Z" stroke="#2E2E2E" stroke-linecap="round" stroke-linejoin="round"/>
<path d="M3.33301 14.6666C4.43758 14.6666 5.33301 13.7712 5.33301 12.6666C5.33301 11.5621 4.43758 10.6666 3.33301 10.6666C2.22844 10.6666 1.33301 11.5621 1.33301 12.6666C1.33301 13.7712 2.22844 14.6666 3.33301 14.6666Z" stroke="#2E2E2E" stroke-linecap="round" stroke-linejoin="round"/>
<path d="M10.6663 8.00004H5.99967C4.53301 8.00004 3.33301 7.33337 3.33301 5.33337V10.6667" stroke="#2E2E2E" stroke-linecap="round" stroke-linejoin="round"/>
</svg>
