<svg width="100" height="110" viewBox="0 0 100 110" fill="none" xmlns="http://www.w3.org/2000/svg">
<g clip-path="url(#clip0_18_18412)">
<path d="M33.2299 84.7401C33.2299 84.7401 33.1699 84.7401 33.1399 84.7401C32.4199 84.6901 31.8799 84.0701 31.9299 83.3501C32.2099 79.2501 30.5599 74.8201 26.8599 69.8101C25.8299 68.4101 24.6999 67.0301 23.6099 65.6901C21.4199 63.0001 19.1599 60.2201 17.4399 57.0801C12.0799 47.2601 13.0499 34.1601 19.7899 25.2201C24.1399 19.4501 30.8799 15.0901 38.7599 12.9301C50.0799 9.83012 62.0099 11.7901 70.6699 18.1401C80.0199 25.0001 84.8799 37.1901 82.4899 47.8001C81.0499 54.2101 77.3099 59.6901 73.6999 65.0001C70.1399 70.2201 66.7899 75.1601 65.3799 80.9301C65.2099 81.6301 64.5099 82.0601 63.8099 81.8801C63.1099 81.7101 62.6899 81.0101 62.8599 80.3101C64.3799 74.0801 68.0299 68.7201 71.5599 63.5301C75.1899 58.1901 78.6299 53.1501 79.9599 47.2201C82.1299 37.5901 77.6799 26.4901 69.1399 20.2301C61.1099 14.3401 50.0099 12.5401 39.4499 15.4301C32.1199 17.4301 25.8799 21.4601 21.8699 26.7701C15.7199 34.9201 14.8499 46.8601 19.7299 55.8201C21.3299 58.7501 23.4199 61.3201 25.6299 64.0401C26.7399 65.4001 27.8899 66.8101 28.9599 68.2601C33.0399 73.7901 34.8599 78.7801 34.5299 83.5201C34.4799 84.2101 33.9099 84.7301 33.2399 84.7301L33.2299 84.7401Z" fill="#F9D94A"/>
<path d="M32.3197 92.3402C31.0397 92.3402 29.5397 92.2702 28.1597 91.5302C26.3897 90.5802 25.3697 88.6602 25.5497 86.6502C25.7197 84.7802 26.9097 83.2602 28.6497 82.6802C31.3897 81.7802 47.4497 81.5302 62.2897 81.3702L65.3997 81.3302C66.3297 81.3202 68.4897 81.2902 69.6097 83.0802C70.1697 83.9702 70.3197 85.0302 70.0397 86.1502C69.6497 87.7202 68.3797 89.3502 66.8797 90.2002C65.4097 91.0402 60.2797 92.1702 32.7497 92.3302C32.6097 92.3302 32.4597 92.3302 32.3197 92.3302V92.3402ZM65.4297 83.9402L62.3197 83.9802C53.2597 84.0802 32.0497 84.3102 29.4597 85.1602C28.3697 85.5202 28.1697 86.4902 28.1397 86.8902C28.0697 87.6302 28.3597 88.6902 29.3997 89.2502C30.3497 89.7602 31.5597 89.7602 32.7397 89.7502C58.8697 89.6002 64.5397 88.5702 65.5897 87.9602C66.4797 87.4502 67.2897 86.4302 67.5197 85.5302C67.6797 84.8902 67.4797 84.5702 67.4197 84.4702C67.1697 84.0702 66.6197 83.9302 65.4397 83.9402H65.4297Z" fill="#F9D94A"/>
<path d="M47.2107 100.93C44.3007 100.93 40.8007 100.88 36.5807 100.75C35.5607 100.72 34.1707 100.68 32.9807 99.6901C31.7207 98.6301 31.1307 96.7501 31.4407 94.7701C31.7207 92.9901 32.7007 91.6001 34.0507 91.0501C35.9907 90.2701 44.8907 90.3101 58.6307 90.6201L60.8407 90.6701C61.4807 90.6801 63.4307 90.7201 64.1707 92.7401C65.1007 95.2601 63.2607 98.3201 61.6307 99.4701C60.6307 100.18 57.9307 100.93 47.2007 100.93H47.2107ZM44.3107 93.0101C39.7807 93.0101 35.8707 93.1101 35.0207 93.4601C34.5407 93.6501 34.1407 94.3301 34.0007 95.1701C33.8407 96.2001 34.1007 97.2401 34.6407 97.6901C35.1007 98.0701 35.7307 98.1201 36.6507 98.1501C55.9807 98.7301 59.5107 97.7801 60.1307 97.3501C61.0607 96.6901 62.1407 94.7701 61.7307 93.6301C61.6507 93.4201 61.6007 93.2801 60.7907 93.2701L58.5707 93.2201C55.4107 93.1501 49.4607 93.0101 44.3107 93.0101Z" fill="#F9D94A"/>
<path d="M47.6004 110C47.3904 110 47.1904 110 46.9804 109.97C44.6404 109.76 42.3104 108.36 40.5904 106.13C39.0904 104.18 38.1804 101.83 37.4404 99.9402C37.1804 99.2702 37.5104 98.5202 38.1804 98.2602C38.8504 98.0002 39.6004 98.3302 39.8604 99.0002C40.7204 101.2 41.4604 103.01 42.6404 104.54C43.9104 106.2 45.5804 107.23 47.2004 107.37C48.8304 107.51 50.6004 106.73 51.7404 105.37C52.8404 104.05 53.4004 102.2 53.2704 100.31C53.2204 99.5902 53.7604 98.9702 54.4804 98.9302C55.1804 98.8702 55.8204 99.4202 55.8604 100.14C56.0404 102.7 55.2604 105.21 53.7404 107.04C52.1904 108.9 49.8904 110 47.6004 110Z" fill="#F9D94A"/>
<path d="M52.5695 83.8602C51.9995 83.8602 51.4695 83.4802 51.3195 82.9002C49.4995 76.1502 51.2595 68.3502 56.0095 62.0502C57.1495 60.5302 58.4395 59.1302 59.6795 57.7702C60.4095 56.9702 61.1695 56.1402 61.8795 55.3002C64.1495 52.6402 65.4395 50.4502 66.0695 48.2102C66.8395 45.4802 66.4495 42.7502 65.0295 40.8902C64.4495 40.1302 63.7195 39.5702 62.9495 39.2702C63.1795 41.3602 62.6595 43.4902 61.3195 45.0802C60.1595 46.4502 58.5895 47.0602 57.2095 46.6802C55.7895 46.2802 54.7695 44.8802 54.7295 43.2602C54.6995 42.1502 55.1095 41.0002 55.9295 39.8302C56.8795 38.4702 58.0995 37.4702 59.4295 36.9202C59.1695 36.5202 58.8495 36.1502 58.4895 35.8302C56.3795 33.9802 52.8895 33.7102 50.1895 35.1902C49.2795 35.6902 48.4495 36.3702 47.7395 37.1802C50.3195 38.9802 51.9395 41.9902 51.9395 45.1102C51.9395 47.2402 51.0695 49.0102 49.6195 49.8602C47.4495 51.1202 44.6995 49.9502 43.4795 48.0602C42.4995 46.5402 42.2095 44.5702 42.6295 42.2102C42.8795 40.8102 43.3195 39.4702 43.9295 38.2502C42.0295 37.7702 39.8995 38.0102 38.1495 38.9802C35.8995 40.2202 34.2795 42.6202 33.9095 45.2402C33.5395 47.8802 34.3495 50.9302 36.3195 54.3102C37.0595 55.5802 37.9095 56.8302 38.7295 58.0402C39.8395 59.6702 40.9795 61.3602 41.9195 63.1702C45.1695 69.4102 45.8095 75.9502 43.8095 82.6002C43.5995 83.2902 42.8795 83.6802 42.1895 83.4702C41.4995 83.2602 41.1095 82.5402 41.3195 81.8502C43.1195 75.8702 42.5495 69.9902 39.6195 64.3702C38.7395 62.6902 37.6895 61.1402 36.5795 59.4902C35.7295 58.2402 34.8595 56.9502 34.0795 55.6102C31.8095 51.7202 30.8895 48.1002 31.3395 44.8702C31.8195 41.4602 33.9395 38.3302 36.8895 36.7002C39.4595 35.2802 42.6395 35.0302 45.3695 35.9602C46.3595 34.7002 47.5695 33.6502 48.9395 32.9002C52.6195 30.8802 57.2595 31.2702 60.1995 33.8602C61.0295 34.5902 61.6795 35.4702 62.1395 36.4302C63.9795 36.5602 65.8095 37.6202 67.0895 39.2902C68.9995 41.7902 69.5495 45.3802 68.5595 48.8902C67.6095 52.2902 65.4095 55.1302 63.8395 56.9702C63.0995 57.8402 62.3195 58.6802 61.5695 59.5002C60.3695 60.8102 59.1295 62.1702 58.0595 63.5902C53.7895 69.2602 52.1995 76.2202 53.7995 82.2102C53.9895 82.9002 53.5795 83.6202 52.8795 83.8002C52.7695 83.8302 52.6495 83.8402 52.5395 83.8402L52.5695 83.8602ZM46.2995 39.3402C45.7795 40.3502 45.4095 41.4702 45.1995 42.6602C44.9995 43.8302 44.9095 45.4702 45.6795 46.6502C46.2195 47.4902 47.4895 48.0902 48.3295 47.6102C49.0895 47.1702 49.3595 46.0302 49.3595 45.1102C49.3595 42.8902 48.1595 40.6602 46.3095 39.3402H46.2995ZM60.3495 39.3502C59.3995 39.7702 58.5895 40.5602 58.0595 41.3102C57.5695 42.0202 57.3195 42.6502 57.3295 43.1902C57.3395 43.6402 57.5995 44.0902 57.9095 44.1702C58.2795 44.2702 58.8695 43.9502 59.3295 43.4002C60.2395 42.3202 60.5595 40.8102 60.3495 39.3502Z" fill="#F9D94A"/>
<path d="M13.5812 65.2C13.2012 65.2 12.8212 65.03 12.5612 64.71C6.47118 57.03 3.98118 46.7 5.90118 37.09C6.04118 36.39 6.73118 35.93 7.43118 36.07C8.13118 36.21 8.59118 36.9 8.45118 37.6C6.67118 46.47 8.97118 56 14.5912 63.09C15.0412 63.65 14.9412 64.47 14.3812 64.91C14.1412 65.1 13.8612 65.19 13.5712 65.19L13.5812 65.2Z" fill="#F9D94A"/>
<path d="M6.76052 66.9401C6.32052 66.9401 5.90052 66.7201 5.65052 66.3201C2.15052 60.6001 0.190519 54.0401 0.000519414 47.3301C-0.0194806 46.6101 0.540519 46.0101 1.26052 45.9901C1.98052 45.9601 2.58052 46.5301 2.60052 47.2501C2.78052 53.5001 4.60052 59.6201 7.87052 64.9501C8.25052 65.5601 8.05052 66.3601 7.44052 66.7401C7.23052 66.8701 6.99052 66.9301 6.76052 66.9301V66.9401Z" fill="#F9D94A"/>
<path d="M72.0588 14.1699C71.7588 14.1699 71.4588 14.0699 71.2088 13.8499C70.6688 13.3799 70.6088 12.5599 71.0788 12.0199L78.3588 3.59993C78.8288 3.05993 79.6488 2.99993 80.1888 3.46993C80.7288 3.93993 80.7888 4.75993 80.3188 5.29993L73.0388 13.7199C72.7788 14.0199 72.4188 14.1699 72.0588 14.1699Z" fill="#F9D94A"/>
<path d="M63.3596 11.22C63.2996 11.22 63.2396 11.22 63.1696 11.21C62.4596 11.11 61.9696 10.45 62.0696 9.74004C62.4896 6.84004 62.7096 4.60004 62.9396 1.21004C62.9896 0.490036 63.6396 -0.049964 64.3196 3.60403e-05C65.0396 0.050036 65.5796 0.670036 65.5296 1.38004C65.2996 4.84004 65.0696 7.13004 64.6396 10.1C64.5496 10.75 63.9896 11.22 63.3596 11.22Z" fill="#F9D94A"/>
<path d="M80.2497 21.7301C79.8097 21.7301 79.3697 21.5001 79.1297 21.0901C78.7697 20.4701 78.9697 19.6801 79.5897 19.3101L97.1097 9.01007C97.7297 8.65007 98.5297 8.85007 98.8897 9.47007C99.2497 10.0901 99.0497 10.8801 98.4297 11.2501L80.9097 21.5501C80.6997 21.6701 80.4797 21.7301 80.2497 21.7301Z" fill="#F9D94A"/>
<path d="M96.4587 30.83C96.4587 30.83 96.3887 30.83 96.3587 30.83C92.3887 30.52 88.3687 30.52 84.3987 30.83C83.6887 30.88 83.0587 30.35 82.9987 29.64C82.9387 28.92 83.4787 28.3 84.1887 28.24C88.2887 27.92 92.4487 27.92 96.5587 28.24C97.2787 28.3 97.8087 28.92 97.7487 29.64C97.6987 30.32 97.1287 30.84 96.4587 30.84V30.83Z" fill="#F9D94A"/>
<path d="M93.7197 45.51C93.6297 45.51 93.5497 45.51 93.4597 45.48L86.1497 43.99C85.4497 43.85 84.9897 43.16 85.1397 42.46C85.2797 41.76 85.9697 41.3 86.6697 41.45L93.9797 42.94C94.6797 43.08 95.1397 43.77 94.9897 44.47C94.8597 45.09 94.3197 45.51 93.7197 45.51Z" fill="#F9D94A"/>
</g>
<defs>
<clipPath id="clip0_18_18412">
<rect width="99.07" height="110" fill="white"/>
</clipPath>
</defs>
</svg>
