<svg width="32" height="32" viewBox="0 0 32 32" fill="none" xmlns="http://www.w3.org/2000/svg">
<g clip-path="url(#clip0_2004_432)">
<path d="M9.97412 24.4668L14.1075 27.6668C14.6408 28.2001 15.8408 28.4668 16.6408 28.4668H21.7075C23.3075 28.4668 25.0408 27.2668 25.4408 25.6668L28.6408 15.9335C29.3075 14.0668 28.1075 12.4668 26.1075 12.4668H20.7741C19.9741 12.4668 19.3075 11.8001 19.4408 10.8668L20.1075 6.60012C20.3741 5.40012 19.5741 4.06679 18.3741 3.66679C17.3075 3.26679 15.9741 3.80012 15.4408 4.60012L9.97412 12.7335" stroke="#2E2E2E" stroke-width="2" stroke-miterlimit="10"/>
<path d="M3.17432 24.4667V11.4C3.17432 9.53337 3.97432 8.8667 5.84098 8.8667H7.17432C9.04098 8.8667 9.84098 9.53337 9.84098 11.4V24.4667C9.84098 26.3334 9.04098 27 7.17432 27H5.84098C3.97432 27 3.17432 26.3334 3.17432 24.4667Z" stroke="#2E2E2E" stroke-width="2" stroke-linecap="round" stroke-linejoin="round"/>
</g>
<defs>
<clipPath id="clip0_2004_432">
<rect width="32" height="32" fill="white"/>
</clipPath>
</defs>
</svg>
