<svg width="150" height="28" viewBox="0 0 150 28" fill="none" xmlns="http://www.w3.org/2000/svg">
<g clip-path="url(#clip0_18_17725)">
<g clip-path="url(#clip1_18_17725)">
<g clip-path="url(#clip2_18_17725)">
<path d="M36.8479 11.0949C36.8479 11.5283 37.0816 11.875 37.549 12.1351C38.0336 12.3778 38.6135 12.5945 39.2885 12.7852C39.9809 12.9586 40.6733 13.1667 41.3656 13.4094C42.058 13.6521 42.6379 14.0682 43.1052 14.6577C43.5899 15.2298 43.8322 15.958 43.8322 16.8422C43.8322 18.0905 43.3475 19.07 42.3782 19.7809C41.4262 20.4917 40.2232 20.8471 38.7693 20.8471C37.4884 20.8471 36.3892 20.5784 35.4719 20.0409C34.5545 19.5035 33.8881 18.7579 33.4727 17.8044L35.8873 16.4001C36.3373 17.6484 37.298 18.2725 38.7693 18.2725C40.2405 18.2725 40.9762 17.7871 40.9762 16.8162C40.9762 16.4001 40.7338 16.062 40.2492 15.8019C39.7818 15.5419 39.202 15.3252 38.5096 15.1518C37.8346 14.9611 37.1509 14.7444 36.4585 14.5016C35.7661 14.2589 35.1776 13.8602 34.693 13.3054C34.2256 12.7332 33.9919 12.0137 33.9919 11.1469C33.9919 9.95061 34.442 8.98839 35.342 8.26022C36.2594 7.53206 37.3932 7.16797 38.7433 7.16797C39.8165 7.16797 40.7685 7.4107 41.5993 7.89614C42.4475 8.36425 43.0965 9.02307 43.5466 9.87259L41.1839 11.1989C40.7338 10.2107 39.9203 9.71656 38.7433 9.71656C38.2067 9.71656 37.7567 9.83792 37.3932 10.0806C37.0297 10.306 36.8479 10.6441 36.8479 11.0949Z" fill="white"/>
<path d="M52.0951 20.8471C50.1392 20.8471 48.5035 20.1883 47.188 18.8706C45.8898 17.553 45.2407 15.932 45.2407 14.0075C45.2407 12.0657 45.8898 10.4447 47.188 9.14443C48.5035 7.82679 50.1392 7.16797 52.0951 7.16797C53.3587 7.16797 54.5098 7.47138 55.5483 8.07818C56.5869 8.68499 57.3658 9.49984 57.8851 10.5227L55.4704 11.927C55.1762 11.3029 54.7261 10.8175 54.1203 10.4707C53.5318 10.1066 52.8481 9.92461 52.0692 9.92461C50.9268 9.92461 49.9661 10.3147 49.1872 11.0949C48.4256 11.875 48.0448 12.8459 48.0448 14.0075C48.0448 15.1691 48.4256 16.14 49.1872 16.9202C49.9661 17.7004 50.9268 18.0905 52.0692 18.0905C52.8308 18.0905 53.5145 17.9084 54.1203 17.5443C54.7434 17.1803 55.2108 16.6948 55.5224 16.088L57.937 17.4663C57.3831 18.5066 56.5869 19.3301 55.5483 19.9369C54.5098 20.5437 53.3587 20.8471 52.0951 20.8471Z" fill="white"/>
<path d="M62.8437 9.69003C63.5534 8.07766 64.8862 7.27148 66.8421 7.27148V10.3142C65.769 10.2448 64.8343 10.5049 64.0381 11.0944C63.2418 11.6665 62.8437 12.62 62.8437 13.955V20.5085H60.0396V7.50553H62.8437V9.69003Z" fill="white"/>
<path d="M78.5872 7.50605H81.3913V20.509H78.5872V18.6366C77.5313 20.1103 76.0168 20.8471 74.0435 20.8471C72.2607 20.8471 70.7375 20.1883 69.4739 18.8706C68.2103 17.5357 67.5786 15.9146 67.5786 14.0075C67.5786 12.0831 68.2103 10.462 69.4739 9.14443C70.7375 7.82679 72.2607 7.16797 74.0435 7.16797C76.0168 7.16797 77.5313 7.89614 78.5872 9.35247V7.50605ZM71.551 16.9982C72.3299 17.7784 73.3079 18.1685 74.4849 18.1685C75.6619 18.1685 76.6399 17.7784 77.4188 16.9982C78.1977 16.2007 78.5872 15.2038 78.5872 14.0075C78.5872 12.8113 78.1977 11.823 77.4188 11.0428C76.6399 10.2453 75.6619 9.84659 74.4849 9.84659C73.3079 9.84659 72.3299 10.2453 71.551 11.0428C70.7721 11.823 70.3826 12.8113 70.3826 14.0075C70.3826 15.2038 70.7721 16.2007 71.551 16.9982Z" fill="white"/>
<path d="M92.0074 7.16797C93.7902 7.16797 95.3135 7.83546 96.577 9.17043C97.8406 10.488 98.4724 12.1004 98.4724 14.0075C98.4724 15.932 97.8406 17.553 96.577 18.8706C95.3135 20.1883 93.7902 20.8471 92.0074 20.8471C90.0342 20.8471 88.5196 20.1189 87.4637 18.6626V25.7102H84.6597V7.50605H87.4637V9.37848C88.5196 7.90481 90.0342 7.16797 92.0074 7.16797ZM88.6321 16.9982C89.411 17.7784 90.389 18.1685 91.566 18.1685C92.743 18.1685 93.721 17.7784 94.4999 16.9982C95.2788 16.2007 95.6683 15.2038 95.6683 14.0075C95.6683 12.8113 95.2788 11.823 94.4999 11.0428C93.721 10.2453 92.743 9.84659 91.566 9.84659C90.389 9.84659 89.411 10.2453 88.6321 11.0428C87.8532 11.823 87.4637 12.8113 87.4637 14.0075C87.4637 15.2038 87.8532 16.2007 88.6321 16.9982Z" fill="white"/>
<path d="M103.221 15.2038C103.428 16.192 103.904 16.9549 104.649 17.4923C105.393 18.0124 106.302 18.2725 107.375 18.2725C108.863 18.2725 109.98 17.735 110.724 16.6601L113.035 18.0124C111.754 19.9022 109.859 20.8471 107.349 20.8471C105.237 20.8471 103.532 20.2056 102.234 18.9227C100.936 17.6224 100.287 15.984 100.287 14.0075C100.287 12.0657 100.927 10.4447 102.208 9.14443C103.489 7.82679 105.133 7.16797 107.141 7.16797C109.045 7.16797 110.603 7.83546 111.815 9.17043C113.044 10.5054 113.658 12.1264 113.658 14.0335C113.658 14.3283 113.623 14.7184 113.554 15.2038H103.221ZM103.195 12.9153H110.828C110.638 11.8577 110.196 11.0602 109.504 10.5227C108.829 9.98529 108.033 9.71656 107.115 9.71656C106.077 9.71656 105.211 10.0026 104.519 10.5747C103.826 11.1469 103.385 11.927 103.195 12.9153Z" fill="white"/>
<path d="M118.15 20.2487C117.769 20.6301 117.31 20.8208 116.773 20.8208C116.237 20.8208 115.778 20.6301 115.397 20.2487C115.017 19.8672 114.826 19.4078 114.826 18.8703C114.826 18.3329 115.008 17.8734 115.371 17.492C115.752 17.1106 116.22 16.9199 116.773 16.9199C117.31 16.9199 117.769 17.1106 118.15 17.492C118.53 17.8734 118.721 18.3329 118.721 18.8703C118.721 19.4078 118.53 19.8672 118.15 20.2487Z" fill="#F9D94A"/>
<path d="M130.946 2.30469H133.75V20.5089H130.946V18.6365C129.89 20.1102 128.375 20.847 126.402 20.847C124.619 20.847 123.096 20.1882 121.832 18.8705C120.569 17.5356 119.937 15.9145 119.937 14.0074C119.937 12.083 120.569 10.4619 121.832 9.14427C123.096 7.82663 124.619 7.16781 126.402 7.16781C128.375 7.16781 129.89 7.89598 130.946 9.35231V2.30469ZM123.909 16.9981C124.688 17.7783 125.666 18.1684 126.843 18.1684C128.02 18.1684 128.998 17.7783 129.777 16.9981C130.556 16.2006 130.946 15.2037 130.946 14.0074C130.946 12.8112 130.556 11.8229 129.777 11.0427C128.998 10.2452 128.02 9.84643 126.843 9.84643C125.666 9.84643 124.688 10.2452 123.909 11.0427C123.131 11.8229 122.741 12.8112 122.741 14.0074C122.741 15.2037 123.131 16.2006 123.909 16.9981Z" fill="white"/>
<path d="M143.146 20.8471C141.242 20.8471 139.623 20.1883 138.29 18.8706C136.957 17.553 136.291 15.932 136.291 14.0075C136.291 12.0831 136.957 10.462 138.29 9.14443C139.623 7.82679 141.242 7.16797 143.146 7.16797C145.067 7.16797 146.685 7.82679 148.001 9.14443C149.334 10.462 150 12.0831 150 14.0075C150 15.932 149.334 17.553 148.001 18.8706C146.685 20.1883 145.067 20.8471 143.146 20.8471ZM140.264 16.9462C141.042 17.7264 142.003 18.1165 143.146 18.1165C144.288 18.1165 145.249 17.7264 146.027 16.9462C146.806 16.166 147.196 15.1865 147.196 14.0075C147.196 12.8286 146.806 11.849 146.027 11.0689C145.249 10.2887 144.288 9.8986 143.146 9.8986C142.003 9.8986 141.042 10.2887 140.264 11.0689C139.485 11.849 139.095 12.8286 139.095 14.0075C139.095 15.1865 139.485 16.166 140.264 16.9462Z" fill="white"/>
<path d="M14.348 14.4013L1.62207 7.43076L14.348 1.20898V14.4013Z" fill="#F9D94A"/>
<path fill-rule="evenodd" clip-rule="evenodd" d="M13.0207 2.67284L3.49965 7.29303L13.0207 12.5055V2.67284ZM13.0207 15.0156L2.19895 9.091V13.1242L13.0207 18.7122V15.0156ZM13.0207 21.1902L0.765866 14.8622C0.295533 14.6193 0 14.1337 0 13.6037V6.54387L13.1897 0.143431C14.1284 -0.31212 15.2196 0.372826 15.2196 1.41768V6.56125L27.2212 12.7279C27.6929 12.9702 27.9896 13.4566 27.9896 13.9877V20.3269C27.9896 20.8574 27.6935 21.3434 27.2226 21.586L15.0809 27.8413C14.1401 28.326 13.0207 27.6418 13.0207 26.5822V21.1902ZM15.2196 9.03668V25.293L25.7906 19.8469V14.4682L15.2196 9.03668Z" fill="white"/>
</g>
</g>
</g>
<defs>
<clipPath id="clip0_18_17725">
<rect width="150" height="28" fill="white"/>
</clipPath>
<clipPath id="clip1_18_17725">
<rect width="150" height="28" fill="white"/>
</clipPath>
<clipPath id="clip2_18_17725">
<rect width="150" height="28" fill="white"/>
</clipPath>
</defs>
</svg>
