<svg width="40" height="40" viewBox="0 0 40 40" fill="none" xmlns="http://www.w3.org/2000/svg">
<g clip-path="url(#clip0_18_20497)">
<path d="M20.0001 14.8625L18.6626 17.1875C18.3626 17.7 18.6126 18.125 19.2001 18.125H20.7876C21.3876 18.125 21.6251 18.55 21.3251 19.0625L20.0001 21.3875" stroke="#2E2E2E" stroke-width="1.5" stroke-linecap="round" stroke-linejoin="round"/>
<path d="M15.3742 27.55V26.1C12.4992 24.3625 10.1367 20.975 10.1367 17.375C10.1367 11.1875 15.8242 6.33748 22.2492 7.73748C25.0742 8.36248 27.5492 10.2375 28.8367 12.825C31.4492 18.075 28.6992 23.65 24.6617 26.0875V27.5375C24.6617 27.9 24.7992 28.7375 23.4617 28.7375H16.5742C15.1992 28.75 15.3742 28.2125 15.3742 27.55Z" stroke="#2E2E2E" stroke-width="1.5" stroke-linecap="round" stroke-linejoin="round"/>
<path d="M15.625 32.5C18.4875 31.6875 21.5125 31.6875 24.375 32.5" stroke="#2E2E2E" stroke-width="1.5" stroke-linecap="round" stroke-linejoin="round"/>
<path d="M15.3742 61.3V59.85C12.4992 58.1125 10.1367 54.725 10.1367 51.125C10.1367 44.9375 15.8242 40.0875 22.2492 41.4875C25.0742 42.1125 27.5492 43.9875 28.8367 46.575C31.4492 51.825 28.6992 57.4 24.6617 59.8375V61.2875C24.6617 61.65 24.7992 62.4875 23.4617 62.4875H16.5742C15.1992 62.5 15.3742 61.9625 15.3742 61.3Z" stroke="#2E2E2E" stroke-width="1.5" stroke-linecap="round" stroke-linejoin="round"/>
</g>
<defs>
<clipPath id="clip0_18_20497">
<rect width="40" height="40" fill="white"/>
</clipPath>
</defs>
</svg>
