<svg width="40" height="40" viewBox="0 0 40 40" fill="none" xmlns="http://www.w3.org/2000/svg">
<g clip-path="url(#clip0_18_7518)">
<path d="M20.0001 14.8623L18.6626 17.1873C18.3626 17.6998 18.6126 18.1248 19.2001 18.1248H20.7876C21.3876 18.1248 21.6251 18.5498 21.3251 19.0623L20.0001 21.3873" stroke="#362490" stroke-width="1.5" stroke-linecap="round" stroke-linejoin="round"/>
<path d="M15.3752 27.5502V26.1002C12.5002 24.3627 10.1377 20.9752 10.1377 17.3752C10.1377 11.1877 15.8252 6.33772 22.2502 7.73772C25.0752 8.36272 27.5502 10.2377 28.8377 12.8252C31.4502 18.0752 28.7002 23.6502 24.6627 26.0877V27.5377C24.6627 27.9002 24.8002 28.7377 23.4627 28.7377H16.5752C15.2002 28.7502 15.3752 28.2127 15.3752 27.5502Z" stroke="#362490" stroke-width="1.5" stroke-linecap="round" stroke-linejoin="round"/>
<path d="M15.625 32.5C18.4875 31.6875 21.5125 31.6875 24.375 32.5" stroke="#362490" stroke-width="1.5" stroke-linecap="round" stroke-linejoin="round"/>
<path d="M15.3752 61.3002V59.8502C12.5002 58.1127 10.1377 54.7252 10.1377 51.1252C10.1377 44.9377 15.8252 40.0877 22.2502 41.4877C25.0752 42.1127 27.5502 43.9877 28.8377 46.5752C31.4502 51.8252 28.7002 57.4002 24.6627 59.8377V61.2877C24.6627 61.6502 24.8002 62.4877 23.4627 62.4877H16.5752C15.2002 62.5002 15.3752 61.9627 15.3752 61.3002Z" stroke="#362490" stroke-width="1.5" stroke-linecap="round" stroke-linejoin="round"/>
</g>
<defs>
<clipPath id="clip0_18_7518">
<rect width="40" height="40" fill="white"/>
</clipPath>
</defs>
</svg>
