<svg width="35" height="28" viewBox="0 0 35 28" fill="none" xmlns="http://www.w3.org/2000/svg">
<g clip-path="url(#clip0_18_6898)">
<g clip-path="url(#clip1_18_6898)">
<g clip-path="url(#clip2_18_6898)">
<path d="M34.2222 26.7915V26.8607H34.2868C34.2991 26.8607 34.3114 26.8577 34.3222 26.8515C34.3314 26.8454 34.336 26.8346 34.336 26.8254C34.336 26.8146 34.3314 26.8054 34.3222 26.7992C34.3114 26.7931 34.2991 26.79 34.2868 26.79H34.2222V26.7915ZM34.2883 26.7423C34.316 26.7408 34.3437 26.7485 34.3668 26.7654C34.3852 26.7808 34.396 26.8038 34.3944 26.8269C34.3944 26.8469 34.3867 26.8669 34.3729 26.8807C34.356 26.8961 34.3329 26.9053 34.3099 26.9069L34.3975 27.0068H34.3298L34.2499 26.9084H34.2237V27.0068H34.1668V26.7423H34.2883ZM34.2714 27.0976C34.3006 27.0976 34.3298 27.0914 34.3575 27.0806C34.3837 27.0699 34.4067 27.053 34.4267 27.033C34.4467 27.013 34.4636 26.9899 34.4744 26.9638C34.4975 26.9084 34.4975 26.8469 34.4744 26.7915C34.4636 26.7654 34.4467 26.7423 34.4267 26.7223C34.4067 26.7024 34.3837 26.687 34.3575 26.6747C34.3298 26.6639 34.3006 26.6578 34.2714 26.6578C34.2422 26.6578 34.2114 26.6624 34.1838 26.6747C34.1576 26.6854 34.133 26.7024 34.113 26.7223C34.05 26.7869 34.0315 26.8838 34.0669 26.9668C34.0777 26.993 34.093 27.0161 34.113 27.036C34.133 27.056 34.1576 27.073 34.1838 27.0837C34.2114 27.096 34.2407 27.1022 34.2714 27.1006V27.0976ZM34.2714 26.5947C34.3483 26.5947 34.4221 26.6255 34.4759 26.6778C34.5021 26.7039 34.5236 26.7346 34.5374 26.7685C34.5682 26.8392 34.5682 26.9192 34.5374 26.9899C34.5221 27.0237 34.5021 27.0545 34.4759 27.0806C34.4498 27.1068 34.4175 27.1268 34.3837 27.1422C34.3483 27.1575 34.3099 27.1652 34.2699 27.1652C34.2299 27.1652 34.1915 27.1575 34.1561 27.1422C34.1223 27.1283 34.09 27.1068 34.0638 27.0806C34.0377 27.053 34.0177 27.0222 34.0023 26.9868C33.9716 26.9161 33.9716 26.8361 34.0023 26.7654C34.0161 26.7316 34.0377 26.7008 34.0638 26.6747C34.09 26.6485 34.1223 26.627 34.1561 26.6132C34.193 26.5978 34.2314 26.5901 34.2699 26.5901L34.2714 26.5947ZM7.54219 25.5736C7.54219 25.0708 7.8728 24.6571 8.41102 24.6571C8.94923 24.6571 9.27369 25.0523 9.27369 25.5736C9.27369 26.0949 8.92616 26.4901 8.41102 26.4901C7.89587 26.4901 7.54219 26.0765 7.54219 25.5736ZM9.86111 25.5736V24.1405H9.23833V24.4895C9.04149 24.2312 8.74163 24.0697 8.33413 24.0697C7.53142 24.0697 6.90094 24.7002 6.90094 25.5736C6.90094 26.4471 7.53142 27.0776 8.33413 27.0776C8.74163 27.0776 9.04149 26.9161 9.23833 26.6578V27.0053H9.86111V25.5721V25.5736ZM30.9099 25.5736C30.9099 25.0708 31.2405 24.6571 31.7787 24.6571C32.3169 24.6571 32.6414 25.0523 32.6414 25.5736C32.6414 26.0949 32.2939 26.4901 31.7787 26.4901C31.2636 26.4901 30.9099 26.0765 30.9099 25.5736ZM33.2304 25.5736V22.9902H32.6076V24.4895C32.4107 24.2312 32.1109 24.0697 31.7034 24.0697C30.9007 24.0697 30.2702 24.7002 30.2702 25.5736C30.2702 26.4471 30.9007 27.0776 31.7034 27.0776C32.1109 27.0776 32.4107 26.9161 32.6076 26.6578V27.0053H33.2304V25.5721V25.5736ZM17.593 24.6264C17.9943 24.6264 18.2527 24.8786 18.3188 25.3215H16.8318C16.8979 24.9078 17.1501 24.6264 17.593 24.6264ZM17.6053 24.0682C16.7657 24.0682 16.1782 24.6787 16.1782 25.5721C16.1782 26.4655 16.7887 27.076 17.6468 27.076C18.0789 27.076 18.4741 26.9684 18.8216 26.6747L18.5156 26.2134C18.2757 26.4056 17.9697 26.5132 17.6822 26.5132C17.2808 26.5132 16.9148 26.3271 16.8256 25.812H18.9523C18.9585 25.7351 18.9646 25.6567 18.9646 25.5721C18.9585 24.6787 18.4064 24.0682 17.6037 24.0682H17.6053ZM25.1249 25.5721C25.1249 25.0693 25.4555 24.6556 25.9937 24.6556C26.5319 24.6556 26.8564 25.0508 26.8564 25.5721C26.8564 26.0934 26.5088 26.4886 25.9937 26.4886C25.4786 26.4886 25.1249 26.075 25.1249 25.5721ZM27.4438 25.5721V24.1405H26.821V24.4895C26.6226 24.2312 26.3243 24.0697 25.9168 24.0697C25.1141 24.0697 24.4836 24.7002 24.4836 25.5736C24.4836 26.4471 25.1141 27.0776 25.9168 27.0776C26.3243 27.0776 26.6226 26.9161 26.821 26.6578V27.0053H27.4438V25.5721ZM21.6065 25.5721C21.6065 26.4409 22.2108 27.076 23.135 27.076C23.5671 27.076 23.8547 26.9807 24.1653 26.7346L23.8655 26.2318C23.6317 26.3994 23.3857 26.4901 23.115 26.4901C22.6183 26.484 22.2524 26.1242 22.2524 25.5736C22.2524 25.0231 22.6183 24.6633 23.115 24.6571C23.3857 24.6571 23.6317 24.7463 23.8655 24.9155L24.1653 24.4126C23.8531 24.1666 23.5671 24.0713 23.135 24.0713C22.2124 24.0713 21.6065 24.7064 21.6065 25.5752V25.5721ZM29.6382 24.0713C29.2783 24.0713 29.0446 24.2389 28.8831 24.4911V24.1435H28.2665V27.0084H28.8908V25.403C28.8908 24.9293 29.0938 24.6648 29.5013 24.6648C29.6351 24.6633 29.7673 24.6879 29.8904 24.7371L30.0826 24.1497C29.9442 24.0959 29.7643 24.0713 29.6382 24.0713ZM12.9397 24.3711C12.6399 24.1743 12.2278 24.0713 11.771 24.0713C11.0452 24.0713 10.5777 24.4188 10.5777 24.9878C10.5777 25.4552 10.9253 25.7428 11.5665 25.8335L11.8602 25.875C12.2016 25.9227 12.3631 26.0134 12.3631 26.1749C12.3631 26.3963 12.1355 26.5224 11.7095 26.5224C11.2836 26.5224 10.9668 26.384 10.7561 26.2226L10.464 26.7085C10.8053 26.9607 11.2374 27.0806 11.7049 27.0806C12.5322 27.0806 13.012 26.6916 13.012 26.1457C13.012 25.6428 12.6353 25.3784 12.0109 25.2892L11.7172 25.2461C11.4481 25.2107 11.2313 25.1569 11.2313 24.9647C11.2313 24.7556 11.4343 24.6295 11.7772 24.6295C12.1432 24.6295 12.4969 24.7679 12.6706 24.8755L12.9397 24.3727V24.3711ZM20.9776 24.0713C20.6177 24.0713 20.384 24.2389 20.2225 24.4911V24.142H19.6059V27.0068H20.2287V25.4014C20.2287 24.9278 20.4317 24.6633 20.8392 24.6633C20.9729 24.6618 21.1052 24.6864 21.2282 24.7356L21.4204 24.1481C21.282 24.0943 21.1021 24.0697 20.976 24.0697L20.9776 24.0713ZM15.66 24.142H14.642V23.2732H14.0115V24.142H13.4303V24.711H14.0115V26.0181C14.0115 26.6824 14.2699 27.0791 15.0065 27.0791C15.2771 27.0791 15.5877 26.9961 15.7861 26.8577L15.6062 26.3241C15.4201 26.4317 15.2171 26.4855 15.0541 26.4855C14.742 26.4855 14.6405 26.2933 14.6405 26.0058V24.711H15.6585V24.1405L15.66 24.142ZM6.34582 27.0068V25.2092C6.34582 24.5326 5.91371 24.0759 5.21864 24.0697C4.85266 24.0636 4.47591 24.1774 4.21142 24.5787C4.01459 24.2604 3.70242 24.0697 3.26416 24.0697C2.95815 24.0697 2.65983 24.1589 2.42455 24.4957V24.142H1.80176V27.0068H2.4307V25.4183C2.4307 24.9216 2.70596 24.6571 3.13192 24.6571C3.55787 24.6571 3.75471 24.9263 3.75471 25.4122V27.0068H4.38518V25.4183C4.38518 24.9216 4.67274 24.6571 5.0864 24.6571C5.50005 24.6571 5.71534 24.9263 5.71534 25.4122V27.0068H6.34582Z" fill="white"/>
<path d="M34.5778 17.4759V17.0576H34.4686L34.3425 17.3452L34.2164 17.0576H34.1072V17.4759H34.1841V17.1606L34.3025 17.4328H34.3825L34.5009 17.1591V17.4759H34.5778ZM33.8858 17.4759V17.1283H34.0257V17.0576H33.6689V17.1283H33.8089V17.4759H33.8858Z" fill="#F6951E"/>
<path d="M22.1775 19.2726H12.7373V2.30664H22.1775V19.2726Z" fill="#F26122"/>
<path d="M13.3354 10.7904C13.3354 7.34892 14.9469 4.28265 17.4565 2.30664C15.5574 0.808866 13.2077 -0.0030668 10.7889 8.70513e-06C4.83008 8.70513e-06 0 4.83162 0 10.7904C0 16.7492 4.83008 21.5808 10.7889 21.5808C13.2077 21.5839 15.5574 20.7719 17.4565 19.2742C14.9469 17.2982 13.3354 14.2334 13.3354 10.7904Z" fill="#EA1D25"/>
<path d="M34.9146 10.7904C34.9146 16.7492 30.0846 21.5808 24.1258 21.5808C21.7069 21.5839 19.3572 20.7719 17.4565 19.2742C19.9662 17.2982 21.5777 14.2334 21.5777 10.7904C21.5777 7.34738 19.9662 4.28265 17.4565 2.30664C19.3572 0.808866 21.7069 -0.0030668 24.1258 8.70513e-06C30.0846 8.70513e-06 34.9146 4.83162 34.9146 10.7904Z" fill="#F69E1E"/>
</g>
</g>
</g>
<defs>
<clipPath id="clip0_18_6898">
<rect width="35" height="28" fill="white"/>
</clipPath>
<clipPath id="clip1_18_6898">
<rect width="35" height="28" fill="white"/>
</clipPath>
<clipPath id="clip2_18_6898">
<rect width="35" height="28" fill="white"/>
</clipPath>
</defs>
</svg>
