<svg width="441" height="336" viewBox="0 0 441 336" fill="none" xmlns="http://www.w3.org/2000/svg">
<path d="M188.855 247.699V332C188.855 333.104 187.96 334 186.855 334H140.93C123.257 334 108.93 319.673 108.93 302V146C108.93 144.895 108.034 144 106.93 144H60.4691C58.7409 144 57.8262 141.956 58.9779 140.667L131.649 59.3541C140.395 49.5677 155.71 49.5677 164.456 59.3541L237.127 140.667C238.279 141.956 237.364 144 235.636 144H191.778" stroke="url(#paint0_linear_18_9742)" stroke-width="3" stroke-miterlimit="10"/>
<path d="M250.858 91.7049V3.99982C250.858 2.89525 251.753 1.99982 252.858 1.99982H288.783C311.979 1.99982 330.783 20.8039 330.783 43.9998V191C330.783 192.104 331.678 193 332.783 193H379.229C380.96 193 381.874 195.049 380.717 196.336L308.009 277.296C299.274 287.022 284.036 287.031 275.29 277.316L202.391 196.338C201.232 195.051 202.146 193 203.877 193H247.714" stroke="url(#paint1_linear_18_9742)" stroke-width="3" stroke-miterlimit="10"/>
<path d="M148.03 59.061C144.147 59.061 141 55.9133 141 52.0305C141 48.1477 144.147 45 148.03 45C151.913 45 155.061 48.1477 155.061 52.0305C155.061 55.9133 151.913 59.061 148.03 59.061Z" fill="white" stroke="black" stroke-opacity="0.08" stroke-width="1.16899"/>
<path d="M148.031 56.0478C145.813 56.0478 144.014 54.2491 144.014 52.0304C144.014 49.8116 145.813 48.0129 148.031 48.0129C150.25 48.0129 152.049 49.8116 152.049 52.0304C152.049 54.2491 150.25 56.0478 148.031 56.0478Z" fill="#F9D94A"/>
<path d="M292.03 291.061C288.147 291.061 285 287.913 285 284.03C285 280.148 288.147 277 292.03 277C295.913 277 299.061 280.148 299.061 284.03C299.061 287.913 295.913 291.061 292.03 291.061Z" fill="white" stroke="black" stroke-opacity="0.08" stroke-width="1.16899"/>
<path d="M292.031 288.048C289.813 288.048 288.014 286.249 288.014 284.03C288.014 281.812 289.813 280.013 292.031 280.013C294.25 280.013 296.049 281.812 296.049 284.03C296.049 286.249 294.25 288.048 292.031 288.048Z" fill="#2E2E2E"/>
<g filter="url(#filter0_d_18_9742)">
<rect x="6" y="28" width="128" height="48" rx="8.8739" fill="white"/>
<rect x="6" y="28" width="128" height="48" rx="8.8739" stroke="#E0E0E0" stroke-width="1.66836" stroke-miterlimit="10"/>
</g>
<path d="M32.6945 58V45.22H34.4585L38.8325 56.668L43.2065 45.22H44.9705V58H43.7465V47.326L39.6245 58H38.0405L33.9185 47.326V58H32.6945ZM50.4853 58.216C49.5253 58.216 48.7573 57.988 48.1813 57.532C47.6053 57.064 47.3173 56.434 47.3173 55.642C47.3173 54.85 47.5693 54.226 48.0733 53.77C48.5773 53.314 49.3153 52.996 50.2873 52.816L53.8153 52.15C53.8153 51.202 53.6113 50.506 53.2033 50.062C52.7953 49.606 52.1773 49.378 51.3493 49.378C50.6173 49.378 50.0353 49.552 49.6033 49.9C49.1713 50.248 48.8833 50.74 48.7393 51.376L47.4793 51.268C47.6593 50.344 48.0793 49.612 48.7393 49.072C49.4113 48.52 50.2813 48.244 51.3493 48.244C52.5373 48.244 53.4433 48.58 54.0673 49.252C54.6913 49.924 55.0033 50.884 55.0033 52.132V56.11C55.0033 56.434 55.0513 56.656 55.1473 56.776C55.2553 56.884 55.4233 56.938 55.6513 56.938H55.9393V58C55.8913 58.012 55.8193 58.018 55.7233 58.018C55.6393 58.03 55.5493 58.036 55.4533 58.036C55.0813 58.036 54.7693 57.97 54.5173 57.838C54.2773 57.706 54.0973 57.49 53.9773 57.19C53.8693 56.89 53.8153 56.476 53.8153 55.948L53.9593 55.966C53.8513 56.386 53.6293 56.77 53.2933 57.118C52.9693 57.454 52.5613 57.724 52.0693 57.928C51.5773 58.12 51.0493 58.216 50.4853 58.216ZM50.5933 57.154C51.2533 57.154 51.8233 57.022 52.3033 56.758C52.7833 56.494 53.1553 56.14 53.4193 55.696C53.6833 55.24 53.8153 54.73 53.8153 54.166V53.212L50.5393 53.824C49.8553 53.956 49.3513 54.16 49.0273 54.436C48.7153 54.712 48.5593 55.078 48.5593 55.534C48.5593 56.05 48.7393 56.452 49.0993 56.74C49.4593 57.016 49.9573 57.154 50.5933 57.154ZM56.7576 58L60.2856 53.14L56.9196 48.46H58.3056L61.0236 52.33L63.7056 48.46H65.1276L61.7796 53.158L65.2716 58H63.8856L61.0416 53.932L58.1616 58H56.7576ZM72.3156 58V45.22H76.1676C78.1116 45.22 79.6056 45.778 80.6496 46.894C81.7056 47.998 82.2336 49.576 82.2336 51.628C82.2336 53.668 81.7176 55.24 80.6856 56.344C79.6536 57.448 78.1836 58 76.2756 58H72.3156ZM73.5396 56.812H76.1676C77.7396 56.812 78.9276 56.374 79.7316 55.498C80.5476 54.622 80.9556 53.332 80.9556 51.628C80.9556 49.9 80.5476 48.598 79.7316 47.722C78.9276 46.846 77.7396 46.408 76.1676 46.408H73.5396V56.812ZM87.2587 58.216C86.2987 58.216 85.5307 57.988 84.9547 57.532C84.3787 57.064 84.0907 56.434 84.0907 55.642C84.0907 54.85 84.3427 54.226 84.8467 53.77C85.3507 53.314 86.0887 52.996 87.0607 52.816L90.5887 52.15C90.5887 51.202 90.3847 50.506 89.9767 50.062C89.5687 49.606 88.9507 49.378 88.1227 49.378C87.3907 49.378 86.8087 49.552 86.3767 49.9C85.9447 50.248 85.6567 50.74 85.5127 51.376L84.2527 51.268C84.4327 50.344 84.8527 49.612 85.5127 49.072C86.1847 48.52 87.0547 48.244 88.1227 48.244C89.3107 48.244 90.2167 48.58 90.8407 49.252C91.4647 49.924 91.7767 50.884 91.7767 52.132V56.11C91.7767 56.434 91.8247 56.656 91.9207 56.776C92.0287 56.884 92.1967 56.938 92.4247 56.938H92.7127V58C92.6647 58.012 92.5927 58.018 92.4967 58.018C92.4127 58.03 92.3227 58.036 92.2267 58.036C91.8547 58.036 91.5427 57.97 91.2907 57.838C91.0507 57.706 90.8707 57.49 90.7507 57.19C90.6427 56.89 90.5887 56.476 90.5887 55.948L90.7327 55.966C90.6247 56.386 90.4027 56.77 90.0667 57.118C89.7427 57.454 89.3347 57.724 88.8427 57.928C88.3507 58.12 87.8227 58.216 87.2587 58.216ZM87.3667 57.154C88.0267 57.154 88.5967 57.022 89.0767 56.758C89.5567 56.494 89.9287 56.14 90.1927 55.696C90.4567 55.24 90.5887 54.73 90.5887 54.166V53.212L87.3127 53.824C86.6287 53.956 86.1247 54.16 85.8007 54.436C85.4887 54.712 85.3327 55.078 85.3327 55.534C85.3327 56.05 85.5127 56.452 85.8727 56.74C86.2327 57.016 86.7307 57.154 87.3667 57.154ZM97.2972 58C96.5172 58 95.9412 57.82 95.5692 57.46C95.1972 57.088 95.0112 56.524 95.0112 55.768V46.228H96.1992V55.732C96.1992 56.176 96.2952 56.488 96.4872 56.668C96.6912 56.848 96.9972 56.938 97.4052 56.938H98.6652V58H97.2972ZM93.5172 49.522V48.46H98.6652V49.522H93.5172ZM103.132 58.216C102.172 58.216 101.404 57.988 100.828 57.532C100.252 57.064 99.9637 56.434 99.9637 55.642C99.9637 54.85 100.216 54.226 100.72 53.77C101.224 53.314 101.962 52.996 102.934 52.816L106.462 52.15C106.462 51.202 106.258 50.506 105.85 50.062C105.442 49.606 104.824 49.378 103.996 49.378C103.264 49.378 102.682 49.552 102.25 49.9C101.818 50.248 101.53 50.74 101.386 51.376L100.126 51.268C100.306 50.344 100.726 49.612 101.386 49.072C102.058 48.52 102.928 48.244 103.996 48.244C105.184 48.244 106.09 48.58 106.714 49.252C107.338 49.924 107.65 50.884 107.65 52.132V56.11C107.65 56.434 107.698 56.656 107.794 56.776C107.902 56.884 108.07 56.938 108.298 56.938H108.586V58C108.538 58.012 108.466 58.018 108.37 58.018C108.286 58.03 108.196 58.036 108.1 58.036C107.728 58.036 107.416 57.97 107.164 57.838C106.924 57.706 106.744 57.49 106.624 57.19C106.516 56.89 106.462 56.476 106.462 55.948L106.606 55.966C106.498 56.386 106.276 56.77 105.94 57.118C105.616 57.454 105.208 57.724 104.716 57.928C104.224 58.12 103.696 58.216 103.132 58.216ZM103.24 57.154C103.9 57.154 104.47 57.022 104.95 56.758C105.43 56.494 105.802 56.14 106.066 55.696C106.33 55.24 106.462 54.73 106.462 54.166V53.212L103.186 53.824C102.502 53.956 101.998 54.16 101.674 54.436C101.362 54.712 101.206 55.078 101.206 55.534C101.206 56.05 101.386 56.452 101.746 56.74C102.106 57.016 102.604 57.154 103.24 57.154Z" fill="#2E2E2E"/>
<g filter="url(#filter1_d_18_9742)">
<rect x="307" y="260" width="128" height="48" rx="8.8739" fill="white"/>
<rect x="307" y="260" width="128" height="48" rx="8.8739" stroke="#E0E0E0" stroke-width="1.66836" stroke-miterlimit="10"/>
</g>
<path d="M336.989 290V277.22H338.753L343.127 288.668L347.501 277.22H349.265V290H348.041V279.326L343.919 290H342.335L338.213 279.326V290H336.989ZM352.12 290V280.46H353.308V290H352.12ZM352.084 278.876V277.274H353.344V278.876H352.084ZM356.409 290V280.46H357.489L357.543 282.962L357.399 282.854C357.495 282.266 357.693 281.78 357.993 281.396C358.305 281.012 358.683 280.724 359.127 280.532C359.571 280.34 360.051 280.244 360.567 280.244C361.299 280.244 361.899 280.406 362.367 280.73C362.847 281.054 363.201 281.492 363.429 282.044C363.657 282.584 363.771 283.19 363.771 283.862V290H362.583V284.294C362.583 283.67 362.505 283.136 362.349 282.692C362.205 282.248 361.965 281.906 361.629 281.666C361.293 281.426 360.855 281.306 360.315 281.306C359.499 281.306 358.839 281.57 358.335 282.098C357.843 282.626 357.597 283.358 357.597 284.294V290H356.409ZM376.213 290.288C375.085 290.288 374.095 290.024 373.243 289.496C372.403 288.956 371.749 288.188 371.281 287.192C370.825 286.196 370.597 285.008 370.597 283.628C370.597 282.248 370.825 281.06 371.281 280.064C371.749 279.056 372.403 278.282 373.243 277.742C374.095 277.202 375.085 276.932 376.213 276.932C377.701 276.932 378.871 277.328 379.723 278.12C380.575 278.912 381.127 279.974 381.379 281.306L380.083 281.396C379.903 280.4 379.489 279.608 378.841 279.02C378.205 278.432 377.329 278.138 376.213 278.138C375.337 278.138 374.575 278.36 373.927 278.804C373.279 279.236 372.775 279.866 372.415 280.694C372.055 281.51 371.875 282.488 371.875 283.628C371.875 284.768 372.055 285.746 372.415 286.562C372.775 287.378 373.279 288.002 373.927 288.434C374.575 288.866 375.337 289.082 376.213 289.082C377.377 289.082 378.289 288.764 378.949 288.128C379.621 287.492 380.035 286.628 380.191 285.536L381.487 285.626C381.343 286.562 381.043 287.378 380.587 288.074C380.131 288.77 379.537 289.316 378.805 289.712C378.073 290.096 377.209 290.288 376.213 290.288ZM387.22 290.216C386.356 290.216 385.6 290.012 384.952 289.604C384.316 289.196 383.824 288.62 383.476 287.876C383.128 287.12 382.954 286.238 382.954 285.23C382.954 284.21 383.128 283.328 383.476 282.584C383.824 281.84 384.316 281.264 384.952 280.856C385.6 280.448 386.356 280.244 387.22 280.244C388.084 280.244 388.834 280.448 389.47 280.856C390.106 281.264 390.598 281.84 390.946 282.584C391.294 283.328 391.468 284.21 391.468 285.23C391.468 286.238 391.294 287.12 390.946 287.876C390.598 288.62 390.106 289.196 389.47 289.604C388.834 290.012 388.084 290.216 387.22 290.216ZM387.22 289.082C388.156 289.082 388.888 288.74 389.416 288.056C389.956 287.36 390.226 286.418 390.226 285.23C390.226 284.042 389.956 283.106 389.416 282.422C388.888 281.726 388.156 281.378 387.22 281.378C386.284 281.378 385.546 281.726 385.006 282.422C384.466 283.106 384.196 284.042 384.196 285.23C384.196 286.418 384.466 287.36 385.006 288.056C385.546 288.74 386.284 289.082 387.22 289.082ZM396.988 290.216C396.16 290.216 395.452 290.084 394.864 289.82C394.288 289.544 393.838 289.166 393.514 288.686C393.19 288.206 393.004 287.666 392.956 287.066L394.198 286.976C394.27 287.612 394.534 288.122 394.99 288.506C395.458 288.89 396.124 289.082 396.988 289.082C397.744 289.082 398.332 288.956 398.752 288.704C399.172 288.452 399.382 288.062 399.382 287.534C399.382 287.246 399.316 287.006 399.184 286.814C399.064 286.61 398.812 286.436 398.428 286.292C398.044 286.136 397.468 285.992 396.7 285.86C395.8 285.692 395.098 285.494 394.594 285.266C394.09 285.026 393.736 284.732 393.532 284.384C393.328 284.024 393.226 283.598 393.226 283.106C393.226 282.254 393.532 281.564 394.144 281.036C394.756 280.508 395.608 280.244 396.7 280.244C397.444 280.244 398.074 280.382 398.59 280.658C399.118 280.934 399.532 281.3 399.832 281.756C400.132 282.2 400.33 282.692 400.426 283.232L399.184 283.34C399.112 282.968 398.974 282.638 398.77 282.35C398.566 282.05 398.29 281.816 397.942 281.648C397.594 281.468 397.174 281.378 396.682 281.378C395.962 281.378 395.41 281.534 395.026 281.846C394.654 282.146 394.468 282.548 394.468 283.052C394.468 283.4 394.546 283.688 394.702 283.916C394.858 284.132 395.116 284.312 395.476 284.456C395.836 284.588 396.334 284.708 396.97 284.816C397.918 284.972 398.656 285.17 399.184 285.41C399.724 285.638 400.102 285.926 400.318 286.274C400.534 286.61 400.642 287.024 400.642 287.516C400.642 288.092 400.486 288.584 400.174 288.992C399.862 289.388 399.43 289.694 398.878 289.91C398.338 290.114 397.708 290.216 396.988 290.216ZM405.67 290C404.89 290 404.314 289.82 403.942 289.46C403.57 289.088 403.384 288.524 403.384 287.768V278.228H404.572V287.732C404.572 288.176 404.668 288.488 404.86 288.668C405.064 288.848 405.37 288.938 405.778 288.938H407.038V290H405.67ZM401.89 281.522V280.46H407.038V281.522H401.89Z" fill="#2E2E2E"/>
<path d="M189.5 253C191.985 253 194 250.985 194 248.5C194 246.015 191.985 244 189.5 244C187.015 244 185 246.015 185 248.5C185 250.985 187.015 253 189.5 253Z" fill="white" stroke="#F9D94A" stroke-width="2" stroke-miterlimit="10"/>
<path d="M250.5 197C252.985 197 255 194.985 255 192.5C255 190.015 252.985 188 250.5 188C248.015 188 246 190.015 246 192.5C246 194.985 248.015 197 250.5 197Z" fill="white" stroke="#E1E1E1" stroke-width="2" stroke-miterlimit="10"/>
<path d="M189.5 148C191.985 148 194 145.985 194 143.5C194 141.015 191.985 139 189.5 139C187.015 139 185 141.015 185 143.5C185 145.985 187.015 148 189.5 148Z" fill="white" stroke="#F9D94A" stroke-width="2" stroke-miterlimit="10"/>
<path d="M250.5 92C252.985 92 255 89.9853 255 87.5C255 85.0147 252.985 83 250.5 83C248.015 83 246 85.0147 246 87.5C246 89.9853 248.015 92 250.5 92Z" fill="white" stroke="#E1E1E1" stroke-width="2" stroke-miterlimit="10"/>
<defs>
<filter id="filter0_d_18_9742" x="0.160921" y="23.829" width="139.678" height="59.6786" filterUnits="userSpaceOnUse" color-interpolation-filters="sRGB">
<feFlood flood-opacity="0" result="BackgroundImageFix"/>
<feColorMatrix in="SourceAlpha" type="matrix" values="0 0 0 0 0 0 0 0 0 0 0 0 0 0 0 0 0 0 127 0" result="hardAlpha"/>
<feOffset dy="1.66836"/>
<feGaussianBlur stdDeviation="2.50255"/>
<feComposite in2="hardAlpha" operator="out"/>
<feColorMatrix type="matrix" values="0 0 0 0 0.180392 0 0 0 0 0.180392 0 0 0 0 0.180392 0 0 0 0.06 0"/>
<feBlend mode="normal" in2="BackgroundImageFix" result="effect1_dropShadow_18_9742"/>
<feBlend mode="normal" in="SourceGraphic" in2="effect1_dropShadow_18_9742" result="shape"/>
</filter>
<filter id="filter1_d_18_9742" x="301.161" y="255.829" width="139.678" height="59.6786" filterUnits="userSpaceOnUse" color-interpolation-filters="sRGB">
<feFlood flood-opacity="0" result="BackgroundImageFix"/>
<feColorMatrix in="SourceAlpha" type="matrix" values="0 0 0 0 0 0 0 0 0 0 0 0 0 0 0 0 0 0 127 0" result="hardAlpha"/>
<feOffset dy="1.66836"/>
<feGaussianBlur stdDeviation="2.50255"/>
<feComposite in2="hardAlpha" operator="out"/>
<feColorMatrix type="matrix" values="0 0 0 0 0.180392 0 0 0 0 0.180392 0 0 0 0 0.180392 0 0 0 0.06 0"/>
<feBlend mode="normal" in2="BackgroundImageFix" result="effect1_dropShadow_18_9742"/>
<feBlend mode="normal" in="SourceGraphic" in2="effect1_dropShadow_18_9742" result="shape"/>
</filter>
<linearGradient id="paint0_linear_18_9742" x1="148.052" y1="334" x2="148.052" y2="40.9998" gradientUnits="userSpaceOnUse">
<stop stop-color="#F9D94A" stop-opacity="0"/>
<stop offset="1" stop-color="#F9D94A"/>
</linearGradient>
<linearGradient id="paint1_linear_18_9742" x1="291.55" y1="295.5" x2="291.55" y2="1.99982" gradientUnits="userSpaceOnUse">
<stop stop-color="#E0E0E0"/>
<stop offset="1" stop-color="#E0E0E0" stop-opacity="0"/>
</linearGradient>
</defs>
</svg>
