<svg width="471" height="323" viewBox="0 0 471 323" fill="none" xmlns="http://www.w3.org/2000/svg">
<g clip-path="url(#clip0_18_9764)">
<path d="M261.643 321.422L18.5581 287.162C0.869511 284.666 -4.50627 276.805 6.535 269.606L92.3543 213.602C103.396 206.402 126.669 202.585 144.358 205.081L387.443 239.341C405.131 241.837 410.507 249.697 399.466 256.897L313.646 312.901C302.605 320.101 279.332 323.918 261.643 321.422Z" stroke="#E8E8E8" stroke-miterlimit="10"/>
<path d="M261.482 293.476L24.6902 260.102C7.46837 257.67 2.22135 250.02 12.9729 242.997L96.5711 188.443C107.323 181.42 130.001 177.715 147.223 180.131L384.014 213.505C401.236 215.937 406.483 223.588 395.732 230.611L312.133 285.165C301.382 292.187 278.704 295.892 261.482 293.476Z" stroke="#E8E8E8" stroke-miterlimit="10"/>
<path d="M261.32 265.514L30.8056 233.027C14.0345 230.659 8.93234 223.218 19.3942 216.388L100.771 163.284C111.233 156.454 133.316 152.83 150.087 155.198L380.601 187.686C397.373 190.053 402.475 197.495 392.013 204.324L310.636 257.429C300.174 264.258 278.091 267.882 261.32 265.514Z" stroke="#F9D94A" stroke-miterlimit="10"/>
<path d="M261.16 237.553L36.9221 205.951C20.6177 203.648 15.6443 196.399 25.8165 189.763L104.972 138.108C115.161 131.472 136.632 127.945 152.936 130.248L377.173 161.85C393.478 164.153 398.451 171.401 388.279 178.037L309.123 229.692C298.935 236.329 277.464 239.856 261.16 237.553Z" stroke="#F9D94A" stroke-miterlimit="10"/>
<path d="M260.982 209.591L43.0381 178.875C27.1844 176.636 22.3558 169.597 32.2543 163.139L109.205 112.933C119.104 106.474 139.979 103.06 155.833 105.282L373.777 135.998C389.631 138.237 394.459 145.276 384.561 151.735L307.61 201.94C297.712 208.399 276.836 211.814 260.982 209.591Z" stroke="#F9D94A" stroke-miterlimit="10"/>
<path d="M260.822 181.629L49.1545 151.799C33.7515 149.625 29.0678 142.779 38.6766 136.514L113.406 87.7581C123.015 81.4925 143.295 78.1584 158.682 80.3328L370.349 110.163C385.752 112.337 390.436 119.183 380.827 125.448L306.097 174.204C296.489 180.47 276.209 183.804 260.822 181.629Z" stroke="#F9D94A" stroke-miterlimit="10"/>
<path d="M260.661 153.684L55.271 124.74C40.3347 122.63 35.7798 115.994 45.0989 109.905L117.607 62.5991C126.927 56.5107 146.595 53.2893 161.547 55.3993L366.937 84.3435C381.874 86.4535 386.429 93.0895 377.109 99.178L304.601 146.484C295.282 152.572 275.614 155.794 260.661 153.684Z" stroke="#F9D94A" stroke-miterlimit="10"/>
<path d="M260.5 125.722L61.3869 97.664C46.9013 95.6184 42.4912 89.1917 51.5367 83.2805L121.824 37.4079C130.87 31.5127 149.926 28.388 164.412 30.4175L363.525 58.4758C378.011 60.5213 382.421 66.948 373.375 72.8593L303.088 118.732C294.042 124.627 274.986 127.752 260.5 125.722Z" stroke="#F9D94A" stroke-miterlimit="10"/>
</g>
<g filter="url(#filter0_d_18_9764)">
<rect x="14" y="5" width="128" height="48" rx="8.8739" fill="white"/>
<rect x="14" y="5" width="128" height="48" rx="8.8739" stroke="#E0E0E0" stroke-width="1.66836" stroke-miterlimit="10"/>
</g>
<path d="M40.6945 35V22.22H42.4585L46.8325 33.668L51.2065 22.22H52.9705V35H51.7465V24.326L47.6245 35H46.0405L41.9185 24.326V35H40.6945ZM58.4853 35.216C57.5253 35.216 56.7573 34.988 56.1813 34.532C55.6053 34.064 55.3173 33.434 55.3173 32.642C55.3173 31.85 55.5693 31.226 56.0733 30.77C56.5773 30.314 57.3153 29.996 58.2873 29.816L61.8153 29.15C61.8153 28.202 61.6113 27.506 61.2033 27.062C60.7953 26.606 60.1773 26.378 59.3493 26.378C58.6173 26.378 58.0353 26.552 57.6033 26.9C57.1713 27.248 56.8833 27.74 56.7393 28.376L55.4793 28.268C55.6593 27.344 56.0793 26.612 56.7393 26.072C57.4113 25.52 58.2813 25.244 59.3493 25.244C60.5373 25.244 61.4433 25.58 62.0673 26.252C62.6913 26.924 63.0033 27.884 63.0033 29.132V33.11C63.0033 33.434 63.0513 33.656 63.1473 33.776C63.2553 33.884 63.4233 33.938 63.6513 33.938H63.9393V35C63.8913 35.012 63.8193 35.018 63.7233 35.018C63.6393 35.03 63.5493 35.036 63.4533 35.036C63.0813 35.036 62.7693 34.97 62.5173 34.838C62.2773 34.706 62.0973 34.49 61.9773 34.19C61.8693 33.89 61.8153 33.476 61.8153 32.948L61.9593 32.966C61.8513 33.386 61.6293 33.77 61.2933 34.118C60.9693 34.454 60.5613 34.724 60.0693 34.928C59.5773 35.12 59.0493 35.216 58.4853 35.216ZM58.5933 34.154C59.2533 34.154 59.8233 34.022 60.3033 33.758C60.7833 33.494 61.1553 33.14 61.4193 32.696C61.6833 32.24 61.8153 31.73 61.8153 31.166V30.212L58.5393 30.824C57.8553 30.956 57.3513 31.16 57.0273 31.436C56.7153 31.712 56.5593 32.078 56.5593 32.534C56.5593 33.05 56.7393 33.452 57.0993 33.74C57.4593 34.016 57.9573 34.154 58.5933 34.154ZM64.7576 35L68.2856 30.14L64.9196 25.46H66.3056L69.0236 29.33L71.7056 25.46H73.1276L69.7796 30.158L73.2716 35H71.8856L69.0416 30.932L66.1616 35H64.7576ZM80.3156 35V22.22H84.1676C86.1116 22.22 87.6056 22.778 88.6496 23.894C89.7056 24.998 90.2336 26.576 90.2336 28.628C90.2336 30.668 89.7176 32.24 88.6856 33.344C87.6536 34.448 86.1836 35 84.2756 35H80.3156ZM81.5396 33.812H84.1676C85.7396 33.812 86.9276 33.374 87.7316 32.498C88.5476 31.622 88.9556 30.332 88.9556 28.628C88.9556 26.9 88.5476 25.598 87.7316 24.722C86.9276 23.846 85.7396 23.408 84.1676 23.408H81.5396V33.812ZM95.2587 35.216C94.2987 35.216 93.5307 34.988 92.9547 34.532C92.3787 34.064 92.0907 33.434 92.0907 32.642C92.0907 31.85 92.3427 31.226 92.8467 30.77C93.3507 30.314 94.0887 29.996 95.0607 29.816L98.5887 29.15C98.5887 28.202 98.3847 27.506 97.9767 27.062C97.5687 26.606 96.9507 26.378 96.1227 26.378C95.3907 26.378 94.8087 26.552 94.3767 26.9C93.9447 27.248 93.6567 27.74 93.5127 28.376L92.2527 28.268C92.4327 27.344 92.8527 26.612 93.5127 26.072C94.1847 25.52 95.0547 25.244 96.1227 25.244C97.3107 25.244 98.2167 25.58 98.8407 26.252C99.4647 26.924 99.7767 27.884 99.7767 29.132V33.11C99.7767 33.434 99.8247 33.656 99.9207 33.776C100.029 33.884 100.197 33.938 100.425 33.938H100.713V35C100.665 35.012 100.593 35.018 100.497 35.018C100.413 35.03 100.323 35.036 100.227 35.036C99.8547 35.036 99.5427 34.97 99.2907 34.838C99.0507 34.706 98.8707 34.49 98.7507 34.19C98.6427 33.89 98.5887 33.476 98.5887 32.948L98.7327 32.966C98.6247 33.386 98.4027 33.77 98.0667 34.118C97.7427 34.454 97.3347 34.724 96.8427 34.928C96.3507 35.12 95.8227 35.216 95.2587 35.216ZM95.3667 34.154C96.0267 34.154 96.5967 34.022 97.0767 33.758C97.5567 33.494 97.9287 33.14 98.1927 32.696C98.4567 32.24 98.5887 31.73 98.5887 31.166V30.212L95.3127 30.824C94.6287 30.956 94.1247 31.16 93.8007 31.436C93.4887 31.712 93.3327 32.078 93.3327 32.534C93.3327 33.05 93.5127 33.452 93.8727 33.74C94.2327 34.016 94.7307 34.154 95.3667 34.154ZM105.297 35C104.517 35 103.941 34.82 103.569 34.46C103.197 34.088 103.011 33.524 103.011 32.768V23.228H104.199V32.732C104.199 33.176 104.295 33.488 104.487 33.668C104.691 33.848 104.997 33.938 105.405 33.938H106.665V35H105.297ZM101.517 26.522V25.46H106.665V26.522H101.517ZM111.132 35.216C110.172 35.216 109.404 34.988 108.828 34.532C108.252 34.064 107.964 33.434 107.964 32.642C107.964 31.85 108.216 31.226 108.72 30.77C109.224 30.314 109.962 29.996 110.934 29.816L114.462 29.15C114.462 28.202 114.258 27.506 113.85 27.062C113.442 26.606 112.824 26.378 111.996 26.378C111.264 26.378 110.682 26.552 110.25 26.9C109.818 27.248 109.53 27.74 109.386 28.376L108.126 28.268C108.306 27.344 108.726 26.612 109.386 26.072C110.058 25.52 110.928 25.244 111.996 25.244C113.184 25.244 114.09 25.58 114.714 26.252C115.338 26.924 115.65 27.884 115.65 29.132V33.11C115.65 33.434 115.698 33.656 115.794 33.776C115.902 33.884 116.07 33.938 116.298 33.938H116.586V35C116.538 35.012 116.466 35.018 116.37 35.018C116.286 35.03 116.196 35.036 116.1 35.036C115.728 35.036 115.416 34.97 115.164 34.838C114.924 34.706 114.744 34.49 114.624 34.19C114.516 33.89 114.462 33.476 114.462 32.948L114.606 32.966C114.498 33.386 114.276 33.77 113.94 34.118C113.616 34.454 113.208 34.724 112.716 34.928C112.224 35.12 111.696 35.216 111.132 35.216ZM111.24 34.154C111.9 34.154 112.47 34.022 112.95 33.758C113.43 33.494 113.802 33.14 114.066 32.696C114.33 32.24 114.462 31.73 114.462 31.166V30.212L111.186 30.824C110.502 30.956 109.998 31.16 109.674 31.436C109.362 31.712 109.206 32.078 109.206 32.534C109.206 33.05 109.386 33.452 109.746 33.74C110.106 34.016 110.604 34.154 111.24 34.154Z" fill="#2E2E2E"/>
<g filter="url(#filter1_d_18_9764)">
<rect x="337" y="208" width="128" height="48" rx="8.8739" fill="white"/>
<rect x="337" y="208" width="128" height="48" rx="8.8739" stroke="#E0E0E0" stroke-width="1.66836" stroke-miterlimit="10"/>
</g>
<path d="M366.989 238V225.22H368.753L373.127 236.668L377.501 225.22H379.265V238H378.041V227.326L373.919 238H372.335L368.213 227.326V238H366.989ZM382.12 238V228.46H383.308V238H382.12ZM382.084 226.876V225.274H383.344V226.876H382.084ZM386.409 238V228.46H387.489L387.543 230.962L387.399 230.854C387.495 230.266 387.693 229.78 387.993 229.396C388.305 229.012 388.683 228.724 389.127 228.532C389.571 228.34 390.051 228.244 390.567 228.244C391.299 228.244 391.899 228.406 392.367 228.73C392.847 229.054 393.201 229.492 393.429 230.044C393.657 230.584 393.771 231.19 393.771 231.862V238H392.583V232.294C392.583 231.67 392.505 231.136 392.349 230.692C392.205 230.248 391.965 229.906 391.629 229.666C391.293 229.426 390.855 229.306 390.315 229.306C389.499 229.306 388.839 229.57 388.335 230.098C387.843 230.626 387.597 231.358 387.597 232.294V238H386.409ZM406.213 238.288C405.085 238.288 404.095 238.024 403.243 237.496C402.403 236.956 401.749 236.188 401.281 235.192C400.825 234.196 400.597 233.008 400.597 231.628C400.597 230.248 400.825 229.06 401.281 228.064C401.749 227.056 402.403 226.282 403.243 225.742C404.095 225.202 405.085 224.932 406.213 224.932C407.701 224.932 408.871 225.328 409.723 226.12C410.575 226.912 411.127 227.974 411.379 229.306L410.083 229.396C409.903 228.4 409.489 227.608 408.841 227.02C408.205 226.432 407.329 226.138 406.213 226.138C405.337 226.138 404.575 226.36 403.927 226.804C403.279 227.236 402.775 227.866 402.415 228.694C402.055 229.51 401.875 230.488 401.875 231.628C401.875 232.768 402.055 233.746 402.415 234.562C402.775 235.378 403.279 236.002 403.927 236.434C404.575 236.866 405.337 237.082 406.213 237.082C407.377 237.082 408.289 236.764 408.949 236.128C409.621 235.492 410.035 234.628 410.191 233.536L411.487 233.626C411.343 234.562 411.043 235.378 410.587 236.074C410.131 236.77 409.537 237.316 408.805 237.712C408.073 238.096 407.209 238.288 406.213 238.288ZM417.22 238.216C416.356 238.216 415.6 238.012 414.952 237.604C414.316 237.196 413.824 236.62 413.476 235.876C413.128 235.12 412.954 234.238 412.954 233.23C412.954 232.21 413.128 231.328 413.476 230.584C413.824 229.84 414.316 229.264 414.952 228.856C415.6 228.448 416.356 228.244 417.22 228.244C418.084 228.244 418.834 228.448 419.47 228.856C420.106 229.264 420.598 229.84 420.946 230.584C421.294 231.328 421.468 232.21 421.468 233.23C421.468 234.238 421.294 235.12 420.946 235.876C420.598 236.62 420.106 237.196 419.47 237.604C418.834 238.012 418.084 238.216 417.22 238.216ZM417.22 237.082C418.156 237.082 418.888 236.74 419.416 236.056C419.956 235.36 420.226 234.418 420.226 233.23C420.226 232.042 419.956 231.106 419.416 230.422C418.888 229.726 418.156 229.378 417.22 229.378C416.284 229.378 415.546 229.726 415.006 230.422C414.466 231.106 414.196 232.042 414.196 233.23C414.196 234.418 414.466 235.36 415.006 236.056C415.546 236.74 416.284 237.082 417.22 237.082ZM426.988 238.216C426.16 238.216 425.452 238.084 424.864 237.82C424.288 237.544 423.838 237.166 423.514 236.686C423.19 236.206 423.004 235.666 422.956 235.066L424.198 234.976C424.27 235.612 424.534 236.122 424.99 236.506C425.458 236.89 426.124 237.082 426.988 237.082C427.744 237.082 428.332 236.956 428.752 236.704C429.172 236.452 429.382 236.062 429.382 235.534C429.382 235.246 429.316 235.006 429.184 234.814C429.064 234.61 428.812 234.436 428.428 234.292C428.044 234.136 427.468 233.992 426.7 233.86C425.8 233.692 425.098 233.494 424.594 233.266C424.09 233.026 423.736 232.732 423.532 232.384C423.328 232.024 423.226 231.598 423.226 231.106C423.226 230.254 423.532 229.564 424.144 229.036C424.756 228.508 425.608 228.244 426.7 228.244C427.444 228.244 428.074 228.382 428.59 228.658C429.118 228.934 429.532 229.3 429.832 229.756C430.132 230.2 430.33 230.692 430.426 231.232L429.184 231.34C429.112 230.968 428.974 230.638 428.77 230.35C428.566 230.05 428.29 229.816 427.942 229.648C427.594 229.468 427.174 229.378 426.682 229.378C425.962 229.378 425.41 229.534 425.026 229.846C424.654 230.146 424.468 230.548 424.468 231.052C424.468 231.4 424.546 231.688 424.702 231.916C424.858 232.132 425.116 232.312 425.476 232.456C425.836 232.588 426.334 232.708 426.97 232.816C427.918 232.972 428.656 233.17 429.184 233.41C429.724 233.638 430.102 233.926 430.318 234.274C430.534 234.61 430.642 235.024 430.642 235.516C430.642 236.092 430.486 236.584 430.174 236.992C429.862 237.388 429.43 237.694 428.878 237.91C428.338 238.114 427.708 238.216 426.988 238.216ZM435.67 238C434.89 238 434.314 237.82 433.942 237.46C433.57 237.088 433.384 236.524 433.384 235.768V226.228H434.572V235.732C434.572 236.176 434.668 236.488 434.86 236.668C435.064 236.848 435.37 236.938 435.778 236.938H437.038V238H435.67ZM431.89 229.522V228.46H437.038V229.522H431.89Z" fill="#2E2E2E"/>
<path d="M157.654 220.96L157.103 225.369L166.472 231.432V235.841L175.841 231.432V226.472L166.472 221.511L165.921 217.653L157.654 220.96Z" fill="white"/>
<path fill-rule="evenodd" clip-rule="evenodd" d="M165.664 217.984L158.598 221.413L165.664 225.282V217.984ZM165.664 227.145L157.632 222.748V225.741L165.664 229.889V227.145ZM165.664 231.728L156.568 227.031C156.219 226.851 156 226.491 156 226.097V220.857L165.79 216.106C166.487 215.768 167.297 216.277 167.297 217.052V220.87L176.205 225.447C176.555 225.627 176.775 225.988 176.775 226.382V231.087C176.775 231.481 176.555 231.842 176.206 232.022L167.194 236.665C166.495 237.025 165.664 236.517 165.664 235.73V231.728ZM167.297 222.707V234.773L175.143 230.731V226.739L167.297 222.707Z" fill="#E0E0E0"/>
<path d="M46.6537 284.96L46.1025 289.369L55.4719 295.432V299.841L64.8413 295.432V290.472L55.4719 285.511L54.9208 281.653L46.6537 284.96Z" fill="white"/>
<path fill-rule="evenodd" clip-rule="evenodd" d="M54.6645 281.984L47.5976 285.413L54.6645 289.282V281.984ZM54.6645 291.145L46.6321 286.748V289.741L54.6645 293.889V291.145ZM54.6645 295.728L45.5685 291.031C45.2194 290.851 45 290.491 45 290.097V284.857L54.7899 280.106C55.4867 279.768 56.2966 280.277 56.2966 281.052V284.87L65.2047 289.447C65.5548 289.627 65.775 289.988 65.775 290.382V295.087C65.775 295.481 65.5552 295.842 65.2057 296.022L56.1936 300.665C55.4953 301.025 54.6645 300.517 54.6645 299.73V295.728ZM56.2966 286.707V298.773L64.1428 294.731V290.739L56.2966 286.707Z" fill="#E0E0E0"/>
<path d="M185.893 80.68L185.596 83.0623L190.658 86.338V88.7203L195.72 86.338V83.6579L190.658 80.9778L190.36 78.8933L185.893 80.68Z" fill="white"/>
<path fill-rule="evenodd" clip-rule="evenodd" d="M190.222 79.0719L186.404 80.9248L190.222 83.0152V79.0719ZM190.222 84.0219L185.882 81.6459V83.2634L190.222 85.5044V84.0219ZM190.222 86.4982L185.307 83.9604C185.119 83.863 185 83.6682 185 83.4557V80.6244L190.29 78.0575C190.666 77.8748 191.104 78.1495 191.104 78.5685V80.6313L195.917 83.1044C196.106 83.2016 196.225 83.3967 196.225 83.6097V86.1519C196.225 86.3647 196.106 86.5596 195.917 86.6569L191.048 89.1655C190.671 89.3599 190.222 89.0855 190.222 88.6606V86.4982ZM191.104 81.6241V88.1436L195.343 85.9594V83.8024L191.104 81.6241Z" fill="#E0E0E0"/>
<path d="M297.539 73.6177L297.359 75.0556L300.415 77.0326V78.4705L303.47 77.0326V75.415L300.415 73.7974L300.235 72.5393L297.539 73.6177Z" fill="white"/>
<path fill-rule="evenodd" clip-rule="evenodd" d="M300.152 72.647L297.847 73.7653L300.152 75.027V72.647ZM300.152 75.6346L297.532 74.2005V75.1768L300.152 76.5294V75.6346ZM300.152 77.1292L297.185 75.5975C297.072 75.5387 297 75.4211 297 75.2928V73.584L300.193 72.0347C300.42 71.9245 300.684 72.0902 300.684 72.3432V73.5882L303.589 75.0808C303.703 75.1395 303.775 75.2572 303.775 75.3858V76.9202C303.775 77.0486 303.703 77.1663 303.589 77.225L300.65 78.7391C300.423 78.8564 300.152 78.6908 300.152 78.4343V77.1292ZM300.684 74.1874V78.1223L303.243 76.804V75.5021L300.684 74.1874Z" fill="#E0E0E0"/>
<defs>
<filter id="filter0_d_18_9764" x="8.16092" y="0.829041" width="139.678" height="59.6786" filterUnits="userSpaceOnUse" color-interpolation-filters="sRGB">
<feFlood flood-opacity="0" result="BackgroundImageFix"/>
<feColorMatrix in="SourceAlpha" type="matrix" values="0 0 0 0 0 0 0 0 0 0 0 0 0 0 0 0 0 0 127 0" result="hardAlpha"/>
<feOffset dy="1.66836"/>
<feGaussianBlur stdDeviation="2.50255"/>
<feComposite in2="hardAlpha" operator="out"/>
<feColorMatrix type="matrix" values="0 0 0 0 0.180392 0 0 0 0 0.180392 0 0 0 0 0.180392 0 0 0 0.06 0"/>
<feBlend mode="normal" in2="BackgroundImageFix" result="effect1_dropShadow_18_9764"/>
<feBlend mode="normal" in="SourceGraphic" in2="effect1_dropShadow_18_9764" result="shape"/>
</filter>
<filter id="filter1_d_18_9764" x="331.161" y="203.829" width="139.678" height="59.6786" filterUnits="userSpaceOnUse" color-interpolation-filters="sRGB">
<feFlood flood-opacity="0" result="BackgroundImageFix"/>
<feColorMatrix in="SourceAlpha" type="matrix" values="0 0 0 0 0 0 0 0 0 0 0 0 0 0 0 0 0 0 127 0" result="hardAlpha"/>
<feOffset dy="1.66836"/>
<feGaussianBlur stdDeviation="2.50255"/>
<feComposite in2="hardAlpha" operator="out"/>
<feColorMatrix type="matrix" values="0 0 0 0 0.180392 0 0 0 0 0.180392 0 0 0 0 0.180392 0 0 0 0.06 0"/>
<feBlend mode="normal" in2="BackgroundImageFix" result="effect1_dropShadow_18_9764"/>
<feBlend mode="normal" in="SourceGraphic" in2="effect1_dropShadow_18_9764" result="shape"/>
</filter>
<clipPath id="clip0_18_9764">
<rect width="406" height="294" fill="white" transform="translate(0 29)"/>
</clipPath>
</defs>
</svg>
