<svg width="129" height="124" viewBox="0 0 129 124" fill="none" xmlns="http://www.w3.org/2000/svg">
<g clip-path="url(#clip0_18_18428)">
<path d="M17.6408 123.402C17.4711 123.423 17.3057 123.408 17.137 123.366C16.6296 123.23 16.2572 122.796 16.1918 122.277C16.1783 122.17 16.1815 122.052 16.1948 121.941C18.7092 103.223 24.833 96.6405 29.7584 91.3532C30.6544 90.396 31.4935 89.4913 32.241 88.58C26.251 91.8319 21.0304 97.8009 19.1229 102.472C18.88 103.065 18.2324 103.401 17.6044 103.244C16.9764 103.087 16.5568 102.496 16.6209 101.852C18.9158 78.5133 32.0184 72.9211 42.536 68.4265C45.2148 67.2807 47.7474 66.1988 49.9278 64.9161C50.5441 64.5479 51.3419 64.7559 51.7101 65.3722C52.0784 65.9885 51.8703 66.7864 51.2541 67.1546C48.9307 68.5279 46.3212 69.6467 43.5642 70.8205C34.2782 74.7876 23.889 79.2206 20.237 95.6133C24.1595 90.5796 29.9884 86.1225 35.3076 84.4622C35.8057 84.3086 36.3421 84.4588 36.6732 84.8528C37.0133 85.2457 37.0831 85.7997 36.8602 86.2636C35.5962 88.9104 33.6848 90.958 31.6617 93.1286C27.1838 97.9327 21.6592 103.867 19.0862 120.106C36.4236 113.181 41.6603 104.459 44.8329 99.1659C45.7551 97.6243 46.4911 96.4058 47.3303 95.5737C47.6941 95.2192 48.2246 95.1069 48.6918 95.284C49.1679 95.46 49.4945 95.8909 49.5308 96.3947C50.0449 102.703 47.1625 108.785 43.186 113.39C58.2798 106.094 60.5376 94.8432 62.5621 84.7654C63.1143 82.0177 63.631 79.4198 64.3992 77.017C64.613 76.3365 65.3454 75.9536 66.0271 76.1763C66.7077 76.39 67.0905 77.1225 66.8679 77.8042C66.1464 80.0739 65.6386 82.5981 65.1053 85.2799C62.803 96.7545 59.9386 111.042 37.4203 118.493C36.8106 118.697 36.14 118.418 35.8489 117.838C35.5589 117.266 35.7336 116.563 36.2672 116.187C40.7636 113.042 45.3434 107.39 46.6314 101.19C43.2815 106.733 36.9487 116.265 17.948 123.318C17.8441 123.358 17.738 123.381 17.6308 123.394L17.6408 123.402Z" fill="white"/>
<path d="M67.3604 78.8592C67.2532 78.8727 67.1448 78.8773 67.0432 78.8629C64.1572 78.5096 59.8516 77.4094 55.7156 74.1273C51.5898 70.8529 49.54 66.9082 48.5427 64.1835C48.4475 63.9322 48.4394 63.6518 48.5072 63.3981L49.9393 58.1973C58.0636 28.6766 82.7705 6.0429 112.885 0.520416C113.275 0.444025 113.634 0.553116 113.916 0.771772C114.216 0.99711 114.407 1.35439 114.419 1.74315C115.888 32.3237 99.4531 61.5217 72.5545 76.1344L67.8138 78.7112C67.6698 78.7929 67.5123 78.84 67.3604 78.8592ZM51.1295 63.6757C52.0571 66.0643 53.8694 69.349 57.3299 72.099C60.7905 74.849 64.4057 75.8729 66.9476 76.2332L71.3142 73.8578C96.9043 59.9549 112.703 32.4076 111.882 3.36132C83.4085 9.15796 60.174 30.798 52.4492 58.8794L51.1295 63.6757Z" fill="white"/>
<path d="M67.3565 78.8504C67.2493 78.8639 67.1499 78.8673 67.0393 78.854C64.1533 78.5008 59.8477 77.4006 55.7218 74.1263C51.5959 70.8519 49.5472 66.9162 48.5489 64.1825C48.4536 63.9312 48.4466 63.6597 48.5134 63.3971L49.9455 58.1963C50.0201 57.9237 50.1024 57.6409 50.1859 57.3671L50.3139 56.9425C50.4742 56.4139 50.9631 56.0436 51.4949 56.0128C52.0456 55.9888 52.5498 56.3156 52.7514 56.8348C53.9165 59.8108 56.2494 64.1283 60.7878 67.7228C65.3274 71.3263 70.0577 72.6271 73.2287 73.0805C73.774 73.157 74.2079 73.5744 74.3135 74.1239C74.418 74.6645 74.1605 75.2144 73.6771 75.4842L73.2707 75.717C73.034 75.8558 72.7884 75.9957 72.5416 76.1267L67.801 78.7035C67.657 78.7852 67.5084 78.8312 67.3476 78.8515L67.3565 78.8504ZM51.1178 63.6769C52.0454 66.0655 53.8576 69.3502 57.3272 72.0991C60.7967 74.848 64.4029 75.873 66.9448 76.2333L69.3832 74.9091C66.3269 74.0689 62.7112 72.5368 59.1914 69.7488C55.6805 66.9598 53.3645 63.784 51.8611 61.005L51.1267 63.6758L51.1178 63.6769Z" fill="white"/>
<path d="M85.2181 48.7098C82.6892 49.0287 80.0375 48.3736 77.8884 46.6656C73.6507 43.2964 72.9335 37.1047 76.3027 32.867C77.9081 30.8399 80.1968 29.5527 82.7615 29.2293L82.8687 29.2157C85.4725 28.9146 88.0427 29.6436 90.0911 31.2735C92.1395 32.9034 93.4413 35.2358 93.7424 37.8395C94.0447 40.4522 93.3146 43.0135 91.6858 45.0709C90.0246 47.1595 87.6833 48.3898 85.2259 48.6997L85.2181 48.7098ZM83.0871 31.8118C81.2016 32.0495 79.5147 32.9976 78.331 34.4814C75.8554 37.5987 76.3754 42.1539 79.5016 44.6283C82.6189 47.1039 87.173 46.575 89.6486 43.4577C90.8479 41.9538 91.381 40.0619 91.1666 38.1462C90.9433 36.2316 89.9908 34.5089 88.4869 33.3096C86.983 32.1103 85.0911 31.5772 83.1754 31.7916C83.1486 31.7949 83.1218 31.7983 83.095 31.8017L83.0871 31.8118Z" fill="white"/>
<path d="M95.4741 32.1201L95.4116 32.128C93.8097 32.3118 92.2285 31.8667 90.9672 30.8637C89.706 29.8608 88.9079 28.4272 88.7241 26.8254C88.5402 25.2236 88.9854 23.6424 89.9883 22.3811C90.9756 21.14 92.3824 20.3453 93.9641 20.1458L94.0266 20.1379C95.6284 19.9541 97.2097 20.3992 98.4709 21.4022C99.7322 22.4051 100.53 23.8387 100.714 25.4405C100.898 27.0423 100.453 28.6236 99.4499 29.8848C98.4625 31.1259 97.0558 31.9206 95.4741 32.1201ZM94.2875 22.7105C93.385 22.8243 92.58 23.2798 92.0155 23.9865C91.4443 24.7121 91.185 25.6073 91.2921 26.5288C91.3992 27.4503 91.8559 28.2643 92.5738 28.8455C93.2994 29.4167 94.1945 29.676 95.1161 29.5689C96.0275 29.454 96.8515 29.0051 97.4238 28.2884C97.9962 27.5716 98.2544 26.6676 98.1472 25.746C98.0401 24.8245 97.5834 24.0106 96.8667 23.4383C96.15 22.8659 95.2459 22.6078 94.3244 22.7149L94.2886 22.7194L94.2875 22.7105Z" fill="white"/>
<path d="M73.685 58.0351L73.6225 58.043C72.0207 58.2269 70.4394 57.7817 69.1782 56.7788C67.9169 55.7758 67.1188 54.3423 66.935 52.7405C66.7512 51.1387 67.1963 49.5574 68.1993 48.2961C69.1866 47.055 70.5933 46.2603 72.175 46.0609L72.2376 46.053C73.8394 45.8691 75.4206 46.3143 76.6819 47.3172C77.9431 48.3202 78.7412 49.7537 78.9251 51.3555C79.1089 52.9573 78.6638 54.5386 77.6608 55.7998C76.6735 57.041 75.2667 57.8357 73.685 58.0351ZM72.4984 48.6255C71.5959 48.7393 70.7909 49.1949 70.2264 49.9015C69.6541 50.6183 69.3959 51.5223 69.503 52.4438C69.6102 53.3654 70.0668 54.1793 70.7836 54.7516C71.5092 55.3228 72.4043 55.5821 73.3259 55.475L73.3616 55.4705C74.2642 55.3567 75.0691 54.9011 75.6336 54.1945C76.2048 53.4688 76.4642 52.5737 76.357 51.6521C76.2499 50.7306 75.7932 49.9167 75.0765 49.3444C74.3598 48.7721 73.4557 48.5139 72.5342 48.621L72.4984 48.6255Z" fill="white"/>
<path d="M35.7511 64.0355C35.3489 64.0862 34.95 63.9459 34.6592 63.6558C34.2834 63.2674 34.1822 62.681 34.4208 62.197L40.0372 50.368C42.9775 44.1691 48.0776 39.2592 54.3899 36.5477L61.9082 33.321C62.442 33.0903 63.051 33.2404 63.4145 33.6757C63.787 34.1099 63.8212 34.7411 63.5101 35.2251C61.2494 38.6785 59.2022 42.3137 57.4099 46.0257C55.8628 49.2348 54.4945 52.5665 53.3285 55.9181C53.2082 56.2601 52.9527 56.5374 52.6255 56.6785L36.1297 63.9424C36.0091 63.9939 35.8952 64.0264 35.7701 64.0422L35.7511 64.0355ZM59.1197 37.3402L55.408 38.934C49.6808 41.3901 45.0506 45.8504 42.3834 51.4793L38.266 60.1507L51.0547 54.5163C52.2141 51.2563 53.5579 48.0185 55.0604 44.8877C56.2976 42.3169 57.65 39.7951 59.1186 37.3313L59.1197 37.3402Z" fill="white"/>
<path d="M73.7983 73.7256C76.6005 72.0468 79.6325 70.0304 82.7702 67.6284C86.4549 64.8125 89.5933 61.9838 92.2302 59.3545C91.6869 62.0285 91.1435 64.7024 90.599 67.3674C89.2922 73.778 85.6922 79.4973 80.4716 83.451L70.0381 91.3484L73.7971 73.7167L73.7983 73.7256Z" fill="white"/>
<path d="M111.819 23.0045C111.694 23.0203 111.566 23.0182 111.427 22.9904C103.108 21.5248 96.5513 16.2512 93.445 8.5361C93.1795 7.87057 93.5015 7.11278 94.1671 6.84729C94.8315 6.57287 95.5904 6.90384 95.8559 7.56937C98.6686 14.5407 104.357 19.116 111.885 20.4361C112.592 20.5649 113.066 21.2313 112.937 21.9375C112.837 22.513 112.373 22.9346 111.819 23.0045Z" fill="white"/>
<path d="M97.2711 64.5561C96.8868 64.6046 96.4901 64.4821 96.1993 64.192C95.6916 63.6931 95.6784 62.8687 96.185 62.3509C104.133 54.2496 109.711 44.1321 112.303 33.084C112.468 32.3822 113.167 31.9491 113.86 32.1159C114.562 32.2816 114.995 32.9805 114.828 33.6733C112.122 45.1807 106.316 55.7263 98.0303 64.1699C97.8127 64.3879 97.5469 64.5122 97.2699 64.5472L97.2711 64.5561Z" fill="white"/>
<path d="M12.3328 95.2118C12.2613 95.2208 12.1809 95.2309 12.1072 95.2221C11.3944 95.1849 10.8363 94.5744 10.8735 93.8616C11.2636 85.869 17.3885 77.2078 22.9077 72.5265C23.458 72.0667 24.2736 72.1273 24.7423 72.6764C25.202 73.2266 25.1414 74.0422 24.5923 74.5109C19.4816 78.8321 13.8285 86.7711 13.4766 93.9872C13.4482 94.6263 12.9584 95.1329 12.3418 95.2106L12.3328 95.2118Z" fill="white"/>
<path d="M87.0353 47.8903C86.7315 47.9286 86.4364 47.748 86.3445 47.4509L81.2904 31.9927C81.1839 31.6521 81.3656 31.2933 81.7051 31.1779C82.0446 31.0624 82.4045 31.2531 82.5199 31.5925L87.574 47.0507C87.6805 47.3913 87.4988 47.7501 87.1593 47.8656C87.1146 47.8712 87.08 47.8847 87.0353 47.8903Z" fill="white"/>
<path d="M82.2894 47.7534C81.9946 47.7906 81.7006 47.6189 81.6008 47.3319L77.0097 34.3209C76.8942 33.9814 77.0659 33.6148 77.4054 33.4993C77.7449 33.3839 78.1115 33.5555 78.2269 33.895L82.8181 46.906C82.9335 47.2455 82.7619 47.6121 82.4224 47.7276C82.3788 47.7421 82.3353 47.7567 82.2906 47.7623L82.2894 47.7534Z" fill="white"/>
<path d="M90.3283 44.8149C90.0244 44.8532 89.7293 44.6726 89.6363 44.3666L85.4932 31.4534C85.3867 31.1128 85.5684 30.754 85.9079 30.6385C86.2485 30.532 86.6073 30.7137 86.7227 31.0532L90.8658 43.9664C90.9723 44.307 90.7906 44.6658 90.4511 44.7813C90.4154 44.7858 90.3718 44.8003 90.3361 44.8048L90.3283 44.8149Z" fill="white"/>
<path d="M56.0434 45.7435C56.0434 45.7435 56.0166 45.7469 56.0077 45.748C55.6569 45.7741 55.3416 45.5052 55.3233 45.1444L54.863 37.9672C54.837 37.6164 55.1237 37.2988 55.4667 37.2828C55.8174 37.2568 56.1328 37.5256 56.151 37.8865L56.6113 45.0637C56.6362 45.4055 56.383 45.7007 56.0523 45.7424L56.0434 45.7435Z" fill="white"/>
<path d="M52.3948 54.3287C52.3948 54.3287 52.368 54.332 52.3591 54.3332C51.9994 54.3604 51.693 54.0903 51.6669 53.7396L50.5945 39.4043C50.5673 39.0446 50.854 38.727 51.1881 38.7121C51.5478 38.6849 51.8541 38.9549 51.8802 39.3057L52.9527 53.641C52.9776 53.9828 52.7255 54.287 52.3859 54.3298L52.3948 54.3287Z" fill="white"/>
<path d="M47.748 57.2748L47.7301 57.277C47.3727 57.3221 47.0574 57.0532 47.0223 56.7036L45.6123 43.1462C45.5683 42.7977 45.8283 42.4835 46.1768 42.4395L46.1946 42.4373C46.5521 42.3922 46.8674 42.6611 46.9024 43.0107L48.3125 56.5681C48.3565 56.9166 48.0965 57.2308 47.748 57.2748Z" fill="white"/>
<path d="M42.7691 59.9724C42.4206 60.0164 42.0997 59.7754 42.0468 59.4281L40.8401 51.0105C40.795 50.653 41.036 50.3322 41.3833 50.2793L41.3923 50.2781C41.7408 50.2342 42.0617 50.4752 42.1145 50.8225L43.3213 59.2401C43.3664 59.5975 43.1254 59.9184 42.778 59.9713L42.7691 59.9724Z" fill="white"/>
</g>
<defs>
<clipPath id="clip0_18_18428">
<rect width="114.278" height="110" fill="white" transform="translate(0.867188 14.646) rotate(-7.18739)"/>
</clipPath>
</defs>
</svg>
