<svg width="93" height="30" viewBox="0 0 93 30" fill="none" xmlns="http://www.w3.org/2000/svg">
<g clip-path="url(#clip0_2004_190)">
<path d="M20.5589 9.22968C22.9056 11.5764 24.0798 14.4101 24.0798 17.7274C24.0798 21.0448 22.9056 23.8659 20.5589 26.2127C18.2121 28.5594 15.3832 29.7336 12.0736 29.7336C8.76408 29.7336 5.93514 28.561 3.58839 26.2127C1.24008 23.8659 0.065918 21.037 0.065918 17.7274C0.065918 14.4179 1.24008 11.578 3.58683 9.22968C5.93358 6.88919 8.76251 5.71973 12.0721 5.71973C15.3816 5.71973 18.2106 6.88919 20.5573 9.22968H20.5589ZM7.77466 13.4285C6.58954 14.6058 5.99776 16.0382 5.99776 17.7274C5.99776 19.4167 6.58954 20.8413 7.77466 22.0249C8.95977 23.21 10.3922 23.8018 12.0736 23.8018C13.755 23.8018 15.1875 23.21 16.3726 22.0249C17.5577 20.8397 18.1495 19.4073 18.1495 17.7274C18.1495 16.0476 17.5577 14.6058 16.3726 13.4285C15.1875 12.2433 13.755 11.6516 12.0736 11.6516C10.3922 11.6516 8.95977 12.2433 7.77466 13.4285Z" fill="#C2C2C2"/>
<path d="M32.4826 6.47555H37.8133C38.0497 6.47555 38.1687 6.59453 38.1687 6.83093V10.6289C38.1687 11.1174 37.9949 11.537 37.6474 11.8829C37.2998 12.2321 36.8771 12.4058 36.3808 12.4058H32.4826V21.3138C32.4826 22.1357 32.6893 22.7353 33.1041 23.1126C33.6004 23.5713 34.3848 23.8014 35.4587 23.8014C36.384 23.8014 36.6877 23.7732 37.3577 23.6433C37.5284 23.6183 37.7883 23.4914 37.9683 23.5697C38.1045 23.6292 38.1687 23.7404 38.1687 23.8813V29.1211C38.1687 29.3137 38.0763 29.4296 37.8916 29.4656C37.1135 29.644 36.3026 29.7317 35.4587 29.7317C32.8599 29.7317 30.7386 28.9771 29.0948 27.4664C27.3993 25.9118 26.5508 23.8609 26.5508 21.3138V0.62198C26.5508 0.385583 26.6698 0.266602 26.9062 0.266602H27.6608C28.9868 0.266602 30.1234 0.736265 31.0705 1.67716C32.0114 2.62431 32.4811 3.76246 32.4811 5.08691V6.47555H32.4826Z" fill="#C2C2C2"/>
<path d="M60.0295 9.22968C60.9187 10.1189 61.5919 11.1913 62.0506 12.45C62.5469 13.7901 62.6721 15.041 62.4295 16.2042C62.1993 17.2922 61.6749 18.1517 60.8514 18.7811C60.0451 19.3963 59.0714 19.7032 57.9317 19.7032H45.7909C46.0946 20.5846 46.5799 21.3579 47.2453 22.0249C48.4304 23.21 49.8628 23.8018 51.5442 23.8018C53.2256 23.8018 54.6581 23.21 55.8432 22.0249C55.9544 21.9137 56.0577 21.7994 56.1548 21.6804C56.2283 21.599 56.3207 21.5583 56.4319 21.5583H62.4185C62.5438 21.5583 62.6408 21.61 62.7066 21.7133C62.7801 21.8166 62.7958 21.9278 62.7504 22.0468C62.143 23.6233 61.2365 25.0135 60.0295 26.2127C57.6812 28.5594 54.8522 29.7336 51.5442 29.7336C48.2362 29.7336 45.4057 28.561 43.059 26.2127C40.7122 23.8659 39.5381 21.0354 39.5381 17.7274C39.5381 14.4195 40.7122 11.578 43.059 9.22968C45.4057 6.88919 48.2347 5.71973 51.5442 5.71973C54.8538 5.71973 57.6827 6.88919 60.0295 9.22968ZM51.5442 11.6516C49.8628 11.6516 48.4304 12.2433 47.2453 13.4285C46.6597 14.0062 46.2167 14.6762 45.913 15.4386H55.6538C56.053 15.4386 56.3207 15.2727 56.4538 14.9392C56.6244 14.5024 56.4209 13.9983 55.8432 13.4285C54.6581 12.2433 53.2241 11.6516 51.5442 11.6516Z" fill="#C2C2C2"/>
<path d="M65.2447 0.62198C65.2447 0.426287 65.4044 0.266602 65.6001 0.266602H66.4173C69.0443 0.266602 71.175 2.39731 71.175 5.02429V28.6217C71.175 28.8174 71.0153 28.9771 70.8196 28.9771H65.5985C65.4028 28.9771 65.2432 28.8174 65.2432 28.6217V0.62198H65.2447Z" fill="#C2C2C2"/>
<path d="M75.0681 6.83096C75.0681 6.63527 75.2278 6.47559 75.4235 6.47559H92.4269C92.5599 6.47559 92.6977 6.51942 92.7744 6.64936C92.8449 6.76678 92.8135 6.97656 92.7462 7.09398L83.6222 23.0469H90.2147C90.675 23.0469 91.129 23.2097 91.4625 23.5244C91.8398 23.8813 92.0292 24.315 92.0292 24.8238V28.6218C92.0292 28.8175 91.8695 28.9771 91.6738 28.9771H74.002C73.8611 28.9771 73.7577 28.9177 73.6904 28.7987C73.6247 28.6797 73.6247 28.5623 73.6904 28.4433L82.8661 12.4043H79.7804C77.1769 12.4043 75.0681 10.2939 75.0681 7.69201V6.8294V6.83096Z" fill="#C2C2C2"/>
</g>
<defs>
<clipPath id="clip0_2004_190">
<rect width="92.7475" height="29.4667" fill="white" transform="translate(0.0664062 0.266602)"/>
</clipPath>
</defs>
</svg>
