<svg width="40" height="40" viewBox="0 0 40 40" fill="none" xmlns="http://www.w3.org/2000/svg">
<g clip-path="url(#clip0_18_20496)">
<path d="M16.2883 32.1124L19.2008 29.6624C19.6383 29.2874 20.3633 29.2874 20.8008 29.6624L23.7133 32.1124C24.3883 32.4499 25.2133 32.1124 25.4633 31.3874L26.0133 29.7249C26.1508 29.3249 26.0133 28.7374 25.7133 28.4374L22.8758 25.5874C22.6633 25.3874 22.5008 24.9874 22.5008 24.6999V21.1374C22.5008 20.6124 22.8883 20.3624 23.3758 20.5624L29.5133 23.2124C30.4758 23.6249 31.2633 23.1124 31.2633 22.0624V20.4499C31.2633 19.6124 30.6383 18.6499 29.8633 18.3249L22.8758 15.3125C22.6758 15.225 22.5008 14.9625 22.5008 14.7375V10.9875C22.5008 9.81245 21.6383 8.42495 20.5883 7.88745C20.2133 7.69995 19.7758 7.69995 19.4008 7.88745C18.3508 8.42495 17.4883 9.82495 17.4883 11V14.75C17.4883 14.975 17.3133 15.2375 17.1133 15.325L10.1383 18.3374C9.36328 18.6499 8.73828 19.6124 8.73828 20.4499V22.0624C8.73828 23.1124 9.52578 23.6249 10.4883 23.2124L16.6258 20.5624C17.1008 20.3499 17.5008 20.6124 17.5008 21.1374V24.6999C17.5008 24.9874 17.3383 25.3874 17.1383 25.5874L14.3008 28.4374C14.0008 28.7374 13.8633 29.3124 14.0008 29.7249L14.5508 31.3874C14.7758 32.1124 15.6008 32.4624 16.2883 32.1124Z" stroke="#2E2E2E" stroke-width="1.5" stroke-linecap="round" stroke-linejoin="round"/>
</g>
<defs>
<clipPath id="clip0_18_20496">
<rect width="40" height="40" fill="white"/>
</clipPath>
</defs>
</svg>
