<svg width="593" height="430" viewBox="0 0 593 430" fill="none" xmlns="http://www.w3.org/2000/svg">
<path d="M308.33 199.989L195 199.69" stroke="#E0E0E0" stroke-miterlimit="10"/>
<path d="M483.33 199.989L370 199.69" stroke="#E0E0E0" stroke-miterlimit="10"/>
<path d="M306.994 321.856L293.886 321.856C286.576 321.856 280.656 315.937 280.656 308.627L280.656 213.744C280.656 207.072 276.071 201.479 269.879 199.938C276.078 198.4 280.669 192.803 280.669 186.127L280.662 89.2236C280.662 81.9133 286.582 75.9932 293.893 75.9932L307 75.9932L307 74.9932L293.893 74.9932C286.03 74.9932 279.662 81.361 279.662 89.2236L279.669 186.127C279.669 193.437 273.75 199.356 266.439 199.356L194 199.356L194 200.515L266.427 200.515C273.737 200.515 279.656 206.434 279.656 213.744L279.656 308.627C279.656 316.489 286.023 322.856 293.886 322.856L306.994 322.856L306.994 321.856Z" fill="#E0E0E0"/>
<path d="M431.014 321.856L444.122 321.856C451.432 321.856 457.351 315.937 457.352 308.627L457.352 213.744L457.356 213.377C457.521 206.868 462.05 201.451 468.128 199.938C461.929 198.4 457.339 192.803 457.339 186.127L457.346 89.2236C457.346 81.9133 451.426 75.9932 444.115 75.9932L431.008 75.9932L431.008 74.9932L444.115 74.9932C451.978 74.9932 458.346 81.361 458.346 89.2236L458.339 186.127C458.339 193.437 464.258 199.356 471.568 199.356L496.499 199.356L496.499 199.515L497 199.515L497 200.515L471.581 200.515C464.385 200.515 458.537 206.25 458.355 213.402L458.352 213.744L458.352 308.627C458.351 316.489 451.984 322.856 444.122 322.856L431.014 322.856L431.014 321.856Z" fill="#F9D94A"/>
<path d="M430.105 77.2103C431.268 77.2103 432.21 76.2678 432.21 75.1052C432.21 73.9425 431.268 73 430.105 73C428.943 73 428 73.9425 428 75.1052C428 76.2678 428.943 77.2103 430.105 77.2103Z" fill="white" stroke="#E0E0E0" stroke-width="0.953282" stroke-miterlimit="10"/>
<path d="M430.105 324.21C431.268 324.21 432.21 323.268 432.21 322.105C432.21 320.943 431.268 320 430.105 320C428.943 320 428 320.943 428 322.105C428 323.268 428.943 324.21 430.105 324.21Z" fill="white" stroke="#E0E0E0" stroke-width="0.953282" stroke-miterlimit="10"/>
<path d="M236.274 195.819L235.85 199.213L243.065 203.88V207.275L250.281 203.88V200.062L243.065 196.243L242.641 193.273L236.274 195.819Z" fill="white"/>
<path fill-rule="evenodd" clip-rule="evenodd" d="M242.443 193.527L237.001 196.167L242.443 199.146V193.527ZM242.443 200.58L236.257 197.195V199.5L242.443 202.693V200.58ZM242.443 204.109L235.438 200.493C235.169 200.354 235 200.076 235 199.774V195.739L242.54 192.082C243.076 191.822 243.7 192.213 243.7 192.81V195.749L250.561 199.273C250.83 199.412 251 199.689 251 199.993V203.615C251 203.919 250.831 204.196 250.562 204.335L243.621 207.909C243.083 208.186 242.443 207.795 242.443 207.19V204.109ZM243.7 197.164V206.453L249.743 203.341V200.268L243.7 197.164Z" fill="#E0E0E0"/>
<rect x="521" y="164" width="72" height="72" rx="18" fill="#F9D94A"/>
<path d="M139.137 132V123.48H142.317C143.293 123.48 144.053 123.716 144.597 124.188C145.141 124.652 145.413 125.3 145.413 126.132C145.413 126.684 145.289 127.164 145.041 127.572C144.793 127.972 144.437 128.28 143.973 128.496C143.517 128.704 142.965 128.808 142.317 128.808H140.433V132H139.137ZM140.433 127.632H142.281C142.865 127.632 143.309 127.508 143.613 127.26C143.917 127.004 144.069 126.628 144.069 126.132C144.069 125.644 143.917 125.28 143.613 125.04C143.309 124.792 142.865 124.668 142.281 124.668H140.433V127.632ZM146.787 132V125.616H147.951L147.999 127.308L147.891 127.272C147.979 126.696 148.155 126.276 148.419 126.012C148.691 125.748 149.055 125.616 149.511 125.616H150.123V126.756H149.511C149.191 126.756 148.923 126.808 148.707 126.912C148.491 127.016 148.327 127.176 148.215 127.392C148.111 127.608 148.059 127.888 148.059 128.232V132H146.787ZM153.657 132.144C153.049 132.144 152.517 132.008 152.061 131.736C151.605 131.464 151.253 131.076 151.005 130.572C150.757 130.068 150.633 129.48 150.633 128.808C150.633 128.128 150.757 127.54 151.005 127.044C151.253 126.548 151.605 126.164 152.061 125.892C152.517 125.612 153.049 125.472 153.657 125.472C154.265 125.472 154.797 125.612 155.253 125.892C155.709 126.164 156.061 126.548 156.309 127.044C156.557 127.54 156.681 128.128 156.681 128.808C156.681 129.48 156.557 130.068 156.309 130.572C156.061 131.076 155.709 131.464 155.253 131.736C154.797 132.008 154.265 132.144 153.657 132.144ZM153.657 131.04C154.201 131.04 154.621 130.844 154.917 130.452C155.213 130.052 155.361 129.504 155.361 128.808C155.361 128.112 155.213 127.568 154.917 127.176C154.621 126.776 154.201 126.576 153.657 126.576C153.121 126.576 152.701 126.776 152.397 127.176C152.101 127.568 151.953 128.112 151.953 128.808C151.953 129.504 152.101 130.052 152.397 130.452C152.701 130.844 153.121 131.04 153.657 131.04ZM157.091 132L159.407 128.736L157.187 125.616H158.603L160.175 127.908L161.699 125.616H163.151L160.955 128.76L163.247 132H161.831L160.187 129.564L158.531 132H157.091ZM164.479 133.8V132.756H165.259C165.475 132.756 165.635 132.724 165.739 132.66C165.843 132.596 165.923 132.488 165.979 132.336L166.183 131.808H165.787L163.483 125.616H164.827L166.579 130.632L168.247 125.616H169.603L167.059 132.744C166.931 133.112 166.739 133.38 166.483 133.548C166.235 133.716 165.887 133.8 165.439 133.8H164.479ZM176.874 132.192C176.194 132.192 175.602 132.068 175.098 131.82C174.602 131.572 174.21 131.228 173.922 130.788C173.634 130.348 173.466 129.836 173.418 129.252L174.75 129.168C174.806 129.568 174.922 129.908 175.098 130.188C175.274 130.46 175.51 130.668 175.806 130.812C176.11 130.948 176.474 131.016 176.898 131.016C177.266 131.016 177.578 130.972 177.834 130.884C178.098 130.788 178.298 130.648 178.434 130.464C178.57 130.28 178.638 130.056 178.638 129.792C178.638 129.552 178.578 129.34 178.458 129.156C178.346 128.964 178.126 128.792 177.798 128.64C177.478 128.48 177.006 128.324 176.382 128.172C175.702 128.004 175.158 127.82 174.75 127.62C174.342 127.42 174.046 127.172 173.862 126.876C173.686 126.572 173.598 126.2 173.598 125.76C173.598 125.272 173.714 124.844 173.946 124.476C174.186 124.1 174.526 123.808 174.966 123.6C175.406 123.392 175.934 123.288 176.55 123.288C177.198 123.288 177.75 123.408 178.206 123.648C178.67 123.888 179.034 124.216 179.298 124.632C179.57 125.048 179.738 125.524 179.802 126.06L178.47 126.132C178.43 125.804 178.33 125.516 178.17 125.268C178.01 125.012 177.794 124.816 177.522 124.68C177.25 124.536 176.918 124.464 176.526 124.464C176.03 124.464 175.638 124.58 175.35 124.812C175.07 125.036 174.93 125.336 174.93 125.712C174.93 125.952 174.986 126.156 175.098 126.324C175.218 126.484 175.426 126.624 175.722 126.744C176.026 126.864 176.454 126.992 177.006 127.128C177.742 127.296 178.326 127.504 178.758 127.752C179.198 127.992 179.51 128.276 179.694 128.604C179.878 128.932 179.97 129.304 179.97 129.72C179.97 130.224 179.838 130.664 179.574 131.04C179.318 131.408 178.958 131.692 178.494 131.892C178.03 132.092 177.49 132.192 176.874 132.192ZM184.29 132.144C183.666 132.144 183.126 132.008 182.67 131.736C182.222 131.464 181.874 131.076 181.626 130.572C181.386 130.068 181.266 129.48 181.266 128.808C181.266 128.136 181.386 127.552 181.626 127.056C181.874 126.552 182.222 126.164 182.67 125.892C183.118 125.612 183.646 125.472 184.254 125.472C184.83 125.472 185.338 125.608 185.778 125.88C186.218 126.144 186.558 126.528 186.798 127.032C187.046 127.536 187.17 128.144 187.17 128.856V129.18H182.586C182.618 129.804 182.782 130.272 183.078 130.584C183.382 130.896 183.79 131.052 184.302 131.052C184.678 131.052 184.99 130.964 185.238 130.788C185.486 130.612 185.658 130.376 185.754 130.08L187.074 130.164C186.906 130.756 186.574 131.236 186.078 131.604C185.59 131.964 184.994 132.144 184.29 132.144ZM182.586 128.22H185.826C185.786 127.652 185.622 127.232 185.334 126.96C185.054 126.688 184.694 126.552 184.254 126.552C183.798 126.552 183.422 126.696 183.126 126.984C182.838 127.264 182.658 127.676 182.586 128.22ZM188.459 132V125.616H189.623L189.671 127.308L189.563 127.272C189.651 126.696 189.827 126.276 190.091 126.012C190.363 125.748 190.727 125.616 191.183 125.616H191.795V126.756H191.183C190.863 126.756 190.595 126.808 190.379 126.912C190.163 127.016 189.999 127.176 189.887 127.392C189.783 127.608 189.731 127.888 189.731 128.232V132H188.459ZM194.58 132L192.252 125.616H193.608L195.348 130.704L197.088 125.616H198.456L196.116 132H194.58ZM201.903 132.144C201.279 132.144 200.739 132.008 200.283 131.736C199.835 131.464 199.487 131.076 199.239 130.572C198.999 130.068 198.879 129.48 198.879 128.808C198.879 128.136 198.999 127.552 199.239 127.056C199.487 126.552 199.835 126.164 200.283 125.892C200.731 125.612 201.259 125.472 201.867 125.472C202.443 125.472 202.951 125.608 203.391 125.88C203.831 126.144 204.171 126.528 204.411 127.032C204.659 127.536 204.783 128.144 204.783 128.856V129.18H200.199C200.231 129.804 200.395 130.272 200.691 130.584C200.995 130.896 201.403 131.052 201.915 131.052C202.291 131.052 202.603 130.964 202.851 130.788C203.099 130.612 203.271 130.376 203.367 130.08L204.687 130.164C204.519 130.756 204.187 131.236 203.691 131.604C203.203 131.964 202.607 132.144 201.903 132.144ZM200.199 128.22H203.439C203.399 127.652 203.235 127.232 202.947 126.96C202.667 126.688 202.307 126.552 201.867 126.552C201.411 126.552 201.035 126.696 200.739 126.984C200.451 127.264 200.271 127.676 200.199 128.22ZM206.072 132V125.616H207.236L207.284 127.308L207.176 127.272C207.264 126.696 207.44 126.276 207.704 126.012C207.976 125.748 208.34 125.616 208.796 125.616H209.408V126.756H208.796C208.476 126.756 208.208 126.808 207.992 126.912C207.776 127.016 207.612 127.176 207.5 127.392C207.396 127.608 207.344 127.888 207.344 128.232V132H206.072ZM145.139 148V139.48H148.127C149.063 139.48 149.791 139.708 150.311 140.164C150.839 140.612 151.103 141.232 151.103 142.024C151.103 142.544 150.983 142.996 150.743 143.38C150.511 143.764 150.171 144.06 149.723 144.268C149.283 144.468 148.751 144.568 148.127 144.568H145.955V148H145.139ZM145.955 143.776H148.127C148.823 143.776 149.347 143.628 149.699 143.332C150.059 143.036 150.239 142.6 150.239 142.024C150.239 141.448 150.059 141.012 149.699 140.716C149.347 140.42 148.823 140.272 148.127 140.272H145.955V143.776ZM152.589 148V141.64H153.273L153.321 143.38L153.213 143.32C153.317 142.752 153.505 142.332 153.777 142.06C154.049 141.78 154.425 141.64 154.905 141.64H155.457V142.408H154.881C154.561 142.408 154.289 142.48 154.065 142.624C153.841 142.76 153.669 142.956 153.549 143.212C153.437 143.468 153.381 143.772 153.381 144.124V148H152.589ZM158.927 148.144C158.351 148.144 157.847 148.008 157.415 147.736C156.991 147.464 156.663 147.08 156.431 146.584C156.199 146.08 156.083 145.492 156.083 144.82C156.083 144.14 156.199 143.552 156.431 143.056C156.663 142.56 156.991 142.176 157.415 141.904C157.847 141.632 158.351 141.496 158.927 141.496C159.503 141.496 160.003 141.632 160.427 141.904C160.851 142.176 161.179 142.56 161.411 143.056C161.643 143.552 161.759 144.14 161.759 144.82C161.759 145.492 161.643 146.08 161.411 146.584C161.179 147.08 160.851 147.464 160.427 147.736C160.003 148.008 159.503 148.144 158.927 148.144ZM158.927 147.388C159.551 147.388 160.039 147.16 160.391 146.704C160.751 146.24 160.931 145.612 160.931 144.82C160.931 144.028 160.751 143.404 160.391 142.948C160.039 142.484 159.551 142.252 158.927 142.252C158.303 142.252 157.811 142.484 157.451 142.948C157.091 143.404 156.911 144.028 156.911 144.82C156.911 145.612 157.091 146.24 157.451 146.704C157.811 147.16 158.303 147.388 158.927 147.388ZM165.595 148.144C165.003 148.144 164.495 148.004 164.071 147.724C163.647 147.436 163.319 147.044 163.087 146.548C162.863 146.044 162.751 145.468 162.751 144.82C162.751 144.172 162.863 143.6 163.087 143.104C163.319 142.6 163.647 142.208 164.071 141.928C164.495 141.64 165.003 141.496 165.595 141.496C166.083 141.496 166.511 141.584 166.879 141.76C167.247 141.936 167.547 142.188 167.779 142.516C168.011 142.844 168.167 143.232 168.247 143.68L167.419 143.728C167.323 143.256 167.115 142.892 166.795 142.636C166.483 142.38 166.083 142.252 165.595 142.252C164.971 142.252 164.479 142.484 164.119 142.948C163.759 143.404 163.579 144.028 163.579 144.82C163.579 145.612 163.759 146.24 164.119 146.704C164.479 147.16 164.971 147.388 165.595 147.388C166.083 147.388 166.487 147.252 166.807 146.98C167.135 146.7 167.343 146.3 167.431 145.78L168.259 145.84C168.179 146.304 168.019 146.708 167.779 147.052C167.547 147.396 167.247 147.664 166.879 147.856C166.511 148.048 166.083 148.144 165.595 148.144ZM171.994 148.144C171.386 148.144 170.87 148.004 170.446 147.724C170.022 147.436 169.694 147.044 169.462 146.548C169.238 146.044 169.126 145.468 169.126 144.82C169.126 144.172 169.238 143.6 169.462 143.104C169.686 142.6 170.006 142.208 170.422 141.928C170.846 141.64 171.354 141.496 171.946 141.496C172.514 141.496 173.006 141.632 173.422 141.904C173.838 142.176 174.154 142.56 174.37 143.056C174.594 143.552 174.706 144.132 174.706 144.796V145.048H169.954C169.986 145.8 170.182 146.38 170.542 146.788C170.902 147.188 171.386 147.388 171.994 147.388C172.458 147.388 172.838 147.276 173.134 147.052C173.43 146.828 173.634 146.532 173.746 146.164L174.598 146.224C174.438 146.784 174.13 147.244 173.674 147.604C173.218 147.964 172.658 148.144 171.994 148.144ZM169.954 144.34H173.842C173.802 143.66 173.614 143.144 173.278 142.792C172.942 142.432 172.498 142.252 171.946 142.252C171.394 142.252 170.942 142.432 170.59 142.792C170.238 143.152 170.026 143.668 169.954 144.34ZM178.377 148.144C177.825 148.144 177.353 148.056 176.961 147.88C176.577 147.696 176.277 147.444 176.061 147.124C175.845 146.804 175.721 146.444 175.689 146.044L176.517 145.984C176.565 146.408 176.741 146.748 177.045 147.004C177.357 147.26 177.801 147.388 178.377 147.388C178.881 147.388 179.273 147.304 179.553 147.136C179.833 146.968 179.973 146.708 179.973 146.356C179.973 146.164 179.929 146.004 179.841 145.876C179.761 145.74 179.593 145.624 179.337 145.528C179.081 145.424 178.697 145.328 178.185 145.24C177.585 145.128 177.117 144.996 176.781 144.844C176.445 144.684 176.209 144.488 176.073 144.256C175.937 144.016 175.869 143.732 175.869 143.404C175.869 142.836 176.073 142.376 176.481 142.024C176.889 141.672 177.457 141.496 178.185 141.496C178.681 141.496 179.101 141.588 179.445 141.772C179.797 141.956 180.073 142.2 180.273 142.504C180.473 142.8 180.605 143.128 180.669 143.488L179.841 143.56C179.793 143.312 179.701 143.092 179.565 142.9C179.429 142.7 179.245 142.544 179.013 142.432C178.781 142.312 178.501 142.252 178.173 142.252C177.693 142.252 177.325 142.356 177.069 142.564C176.821 142.764 176.697 143.032 176.697 143.368C176.697 143.6 176.749 143.792 176.853 143.944C176.957 144.088 177.129 144.208 177.369 144.304C177.609 144.392 177.941 144.472 178.365 144.544C178.997 144.648 179.489 144.78 179.841 144.94C180.201 145.092 180.453 145.284 180.597 145.516C180.741 145.74 180.813 146.016 180.813 146.344C180.813 146.728 180.709 147.056 180.501 147.328C180.293 147.592 180.005 147.796 179.637 147.94C179.277 148.076 178.857 148.144 178.377 148.144ZM184.482 148.144C183.93 148.144 183.458 148.056 183.066 147.88C182.682 147.696 182.382 147.444 182.166 147.124C181.95 146.804 181.826 146.444 181.794 146.044L182.622 145.984C182.67 146.408 182.846 146.748 183.15 147.004C183.462 147.26 183.906 147.388 184.482 147.388C184.986 147.388 185.378 147.304 185.658 147.136C185.938 146.968 186.078 146.708 186.078 146.356C186.078 146.164 186.034 146.004 185.946 145.876C185.866 145.74 185.698 145.624 185.442 145.528C185.186 145.424 184.802 145.328 184.29 145.24C183.69 145.128 183.222 144.996 182.886 144.844C182.55 144.684 182.314 144.488 182.178 144.256C182.042 144.016 181.974 143.732 181.974 143.404C181.974 142.836 182.178 142.376 182.586 142.024C182.994 141.672 183.562 141.496 184.29 141.496C184.786 141.496 185.206 141.588 185.55 141.772C185.902 141.956 186.178 142.2 186.378 142.504C186.578 142.8 186.71 143.128 186.774 143.488L185.946 143.56C185.898 143.312 185.806 143.092 185.67 142.9C185.534 142.7 185.35 142.544 185.118 142.432C184.886 142.312 184.606 142.252 184.278 142.252C183.798 142.252 183.43 142.356 183.174 142.564C182.926 142.764 182.802 143.032 182.802 143.368C182.802 143.6 182.854 143.792 182.958 143.944C183.062 144.088 183.234 144.208 183.474 144.304C183.714 144.392 184.046 144.472 184.47 144.544C185.102 144.648 185.594 144.78 185.946 144.94C186.306 145.092 186.558 145.284 186.702 145.516C186.846 145.74 186.918 146.016 186.918 146.344C186.918 146.728 186.814 147.056 186.606 147.328C186.398 147.592 186.11 147.796 185.742 147.94C185.382 148.076 184.962 148.144 184.482 148.144ZM188.332 148V141.64H189.124V148H188.332ZM188.308 140.584V139.516H189.148V140.584H188.308ZM191.191 148V141.64H191.911L191.947 143.308L191.851 143.236C191.915 142.844 192.047 142.52 192.247 142.264C192.455 142.008 192.707 141.816 193.003 141.688C193.299 141.56 193.619 141.496 193.963 141.496C194.451 141.496 194.851 141.604 195.163 141.82C195.483 142.036 195.719 142.328 195.871 142.696C196.023 143.056 196.099 143.46 196.099 143.908V148H195.307V144.196C195.307 143.78 195.255 143.424 195.151 143.128C195.055 142.832 194.895 142.604 194.671 142.444C194.447 142.284 194.155 142.204 193.795 142.204C193.251 142.204 192.811 142.38 192.475 142.732C192.147 143.084 191.983 143.572 191.983 144.196V148H191.191ZM200.281 149.944C199.833 149.944 199.425 149.864 199.057 149.704C198.697 149.552 198.401 149.336 198.169 149.056C197.937 148.776 197.789 148.452 197.725 148.084L198.553 148.036C198.625 148.38 198.801 148.656 199.081 148.864C199.361 149.08 199.761 149.188 200.281 149.188C200.897 149.188 201.369 149.044 201.697 148.756C202.033 148.468 202.201 148.048 202.201 147.496V146.404C202.041 146.788 201.785 147.096 201.433 147.328C201.081 147.56 200.677 147.676 200.221 147.676C199.685 147.676 199.209 147.548 198.793 147.292C198.385 147.028 198.065 146.664 197.833 146.2C197.609 145.736 197.497 145.196 197.497 144.58C197.497 143.964 197.609 143.428 197.833 142.972C198.065 142.508 198.381 142.148 198.781 141.892C199.189 141.628 199.657 141.496 200.185 141.496C200.673 141.496 201.097 141.62 201.457 141.868C201.825 142.108 202.085 142.428 202.237 142.828V141.64H202.993V147.496C202.993 148 202.885 148.436 202.669 148.804C202.453 149.172 202.141 149.452 201.733 149.644C201.333 149.844 200.849 149.944 200.281 149.944ZM200.257 146.92C200.841 146.92 201.309 146.712 201.661 146.296C202.021 145.872 202.201 145.3 202.201 144.58C202.209 144.116 202.133 143.712 201.973 143.368C201.813 143.016 201.585 142.744 201.289 142.552C200.993 142.352 200.649 142.252 200.257 142.252C199.657 142.252 199.185 142.464 198.841 142.888C198.497 143.304 198.325 143.868 198.325 144.58C198.325 145.3 198.497 145.872 198.841 146.296C199.193 146.712 199.665 146.92 200.257 146.92Z" fill="#2E2E2E"/>
<path d="M547.12 116L544.864 107.48H546.244L547.9 114.212L549.556 107.48H550.876L552.532 114.212L554.176 107.48H555.58L553.312 116H551.8L550.216 109.784L548.632 116H547.12ZM559.022 116.144C558.398 116.144 557.858 116.008 557.402 115.736C556.954 115.464 556.606 115.076 556.358 114.572C556.118 114.068 555.998 113.48 555.998 112.808C555.998 112.136 556.118 111.552 556.358 111.056C556.606 110.552 556.954 110.164 557.402 109.892C557.85 109.612 558.378 109.472 558.986 109.472C559.562 109.472 560.07 109.608 560.51 109.88C560.95 110.144 561.29 110.528 561.53 111.032C561.778 111.536 561.902 112.144 561.902 112.856V113.18H557.318C557.35 113.804 557.514 114.272 557.81 114.584C558.114 114.896 558.522 115.052 559.034 115.052C559.41 115.052 559.722 114.964 559.97 114.788C560.218 114.612 560.39 114.376 560.486 114.08L561.806 114.164C561.638 114.756 561.306 115.236 560.81 115.604C560.322 115.964 559.726 116.144 559.022 116.144ZM557.318 112.22H560.558C560.518 111.652 560.354 111.232 560.066 110.96C559.786 110.688 559.426 110.552 558.986 110.552C558.53 110.552 558.154 110.696 557.858 110.984C557.57 111.264 557.39 111.676 557.318 112.22ZM566.371 116.144C565.931 116.144 565.539 116.048 565.195 115.856C564.859 115.656 564.599 115.384 564.415 115.04L564.379 116H563.191V107.48H564.463V110.516C564.631 110.236 564.879 109.992 565.207 109.784C565.543 109.576 565.931 109.472 566.371 109.472C566.923 109.472 567.403 109.608 567.811 109.88C568.219 110.152 568.531 110.54 568.747 111.044C568.971 111.54 569.083 112.128 569.083 112.808C569.083 113.488 568.971 114.08 568.747 114.584C568.531 115.08 568.219 115.464 567.811 115.736C567.403 116.008 566.923 116.144 566.371 116.144ZM566.167 115.04C566.655 115.04 567.043 114.844 567.331 114.452C567.619 114.052 567.763 113.504 567.763 112.808C567.763 112.112 567.619 111.568 567.331 111.176C567.043 110.776 566.659 110.576 566.179 110.576C565.819 110.576 565.511 110.664 565.255 110.84C564.999 111.016 564.803 111.272 564.667 111.608C564.531 111.936 564.463 112.336 564.463 112.808C564.463 113.264 564.531 113.66 564.667 113.996C564.803 114.332 564.999 114.592 565.255 114.776C565.511 114.952 565.815 115.04 566.167 115.04ZM525.611 132L528.719 123.48H529.799L532.895 132H532.007L531.095 129.444H527.411L526.499 132H525.611ZM527.687 128.652H530.819L529.259 124.212L527.687 128.652ZM533.902 132V125.64H534.622L534.658 127.308L534.562 127.236C534.626 126.844 534.758 126.52 534.958 126.264C535.166 126.008 535.418 125.816 535.714 125.688C536.01 125.56 536.33 125.496 536.674 125.496C537.162 125.496 537.562 125.604 537.874 125.82C538.194 126.036 538.43 126.328 538.582 126.696C538.734 127.056 538.81 127.46 538.81 127.908V132H538.018V128.196C538.018 127.78 537.966 127.424 537.862 127.128C537.766 126.832 537.606 126.604 537.382 126.444C537.158 126.284 536.866 126.204 536.506 126.204C535.962 126.204 535.522 126.38 535.186 126.732C534.858 127.084 534.694 127.572 534.694 128.196V132H533.902ZM543.052 132.144C542.476 132.144 541.972 132.008 541.54 131.736C541.116 131.464 540.788 131.08 540.556 130.584C540.324 130.08 540.208 129.492 540.208 128.82C540.208 128.14 540.324 127.552 540.556 127.056C540.788 126.56 541.116 126.176 541.54 125.904C541.972 125.632 542.476 125.496 543.052 125.496C543.628 125.496 544.128 125.632 544.552 125.904C544.976 126.176 545.304 126.56 545.536 127.056C545.768 127.552 545.884 128.14 545.884 128.82C545.884 129.492 545.768 130.08 545.536 130.584C545.304 131.08 544.976 131.464 544.552 131.736C544.128 132.008 543.628 132.144 543.052 132.144ZM543.052 131.388C543.676 131.388 544.164 131.16 544.516 130.704C544.876 130.24 545.056 129.612 545.056 128.82C545.056 128.028 544.876 127.404 544.516 126.948C544.164 126.484 543.676 126.252 543.052 126.252C542.428 126.252 541.936 126.484 541.576 126.948C541.216 127.404 541.036 128.028 541.036 128.82C541.036 129.612 541.216 130.24 541.576 130.704C541.936 131.16 542.428 131.388 543.052 131.388ZM547.308 132V125.64H548.028L548.064 127.308L547.968 127.236C548.032 126.844 548.164 126.52 548.364 126.264C548.572 126.008 548.824 125.816 549.12 125.688C549.416 125.56 549.736 125.496 550.08 125.496C550.568 125.496 550.968 125.604 551.28 125.82C551.6 126.036 551.836 126.328 551.988 126.696C552.14 127.056 552.216 127.46 552.216 127.908V132H551.424V128.196C551.424 127.78 551.372 127.424 551.268 127.128C551.172 126.832 551.012 126.604 550.788 126.444C550.564 126.284 550.272 126.204 549.912 126.204C549.368 126.204 548.928 126.38 548.592 126.732C548.264 127.084 548.1 127.572 548.1 128.196V132H547.308ZM553.957 133.8V133.092H554.605C554.869 133.092 555.061 133.048 555.181 132.96C555.309 132.88 555.413 132.736 555.493 132.528L555.733 131.88H555.445L553.057 125.64H553.921L555.973 131.172L557.929 125.64H558.793L556.177 132.792C556.049 133.144 555.869 133.4 555.637 133.56C555.413 133.72 555.089 133.8 554.665 133.8H553.957ZM559.754 132V125.64H560.474L560.51 127.356L560.402 127.26C560.45 126.908 560.566 126.6 560.75 126.336C560.934 126.072 561.166 125.868 561.446 125.724C561.726 125.572 562.038 125.496 562.382 125.496C562.902 125.496 563.334 125.664 563.678 126C564.022 126.328 564.23 126.784 564.302 127.368L564.134 127.344C564.19 126.96 564.306 126.632 564.482 126.36C564.666 126.08 564.902 125.868 565.19 125.724C565.478 125.572 565.802 125.496 566.162 125.496C566.586 125.496 566.95 125.596 567.254 125.796C567.558 125.988 567.79 126.264 567.95 126.624C568.11 126.984 568.19 127.416 568.19 127.92V132H567.398V128.16C567.398 127.528 567.274 127.044 567.026 126.708C566.786 126.372 566.438 126.204 565.982 126.204C565.662 126.204 565.378 126.288 565.13 126.456C564.89 126.624 564.698 126.86 564.554 127.164C564.418 127.468 564.35 127.824 564.35 128.232V132H563.558V128.196C563.558 127.58 563.446 127.096 563.222 126.744C563.006 126.384 562.662 126.204 562.19 126.204C561.87 126.204 561.586 126.288 561.338 126.456C561.09 126.624 560.894 126.856 560.75 127.152C560.614 127.448 560.546 127.796 560.546 128.196V132H559.754ZM572.431 132.144C571.855 132.144 571.351 132.008 570.919 131.736C570.495 131.464 570.167 131.08 569.935 130.584C569.703 130.08 569.587 129.492 569.587 128.82C569.587 128.14 569.703 127.552 569.935 127.056C570.167 126.56 570.495 126.176 570.919 125.904C571.351 125.632 571.855 125.496 572.431 125.496C573.007 125.496 573.507 125.632 573.931 125.904C574.355 126.176 574.683 126.56 574.915 127.056C575.147 127.552 575.263 128.14 575.263 128.82C575.263 129.492 575.147 130.08 574.915 130.584C574.683 131.08 574.355 131.464 573.931 131.736C573.507 132.008 573.007 132.144 572.431 132.144ZM572.431 131.388C573.055 131.388 573.543 131.16 573.895 130.704C574.255 130.24 574.435 129.612 574.435 128.82C574.435 128.028 574.255 127.404 573.895 126.948C573.543 126.484 573.055 126.252 572.431 126.252C571.807 126.252 571.315 126.484 570.955 126.948C570.595 127.404 570.415 128.028 570.415 128.82C570.415 129.612 570.595 130.24 570.955 130.704C571.315 131.16 571.807 131.388 572.431 131.388ZM578.775 132.144C578.143 132.144 577.635 131.932 577.251 131.508C576.875 131.076 576.687 130.484 576.687 129.732V125.64H577.479V129.492C577.479 130.148 577.603 130.636 577.851 130.956C578.107 131.276 578.483 131.436 578.979 131.436C579.531 131.436 579.963 131.256 580.275 130.896C580.595 130.536 580.755 130.048 580.755 129.432V125.64H581.547V132H580.803L580.791 130.368L580.911 130.428C580.807 130.972 580.567 131.396 580.191 131.7C579.823 131.996 579.351 132.144 578.775 132.144ZM585.658 132.144C585.106 132.144 584.634 132.056 584.242 131.88C583.858 131.696 583.558 131.444 583.342 131.124C583.126 130.804 583.002 130.444 582.97 130.044L583.798 129.984C583.846 130.408 584.022 130.748 584.326 131.004C584.638 131.26 585.082 131.388 585.658 131.388C586.162 131.388 586.554 131.304 586.834 131.136C587.114 130.968 587.254 130.708 587.254 130.356C587.254 130.164 587.21 130.004 587.122 129.876C587.042 129.74 586.874 129.624 586.618 129.528C586.362 129.424 585.978 129.328 585.466 129.24C584.866 129.128 584.398 128.996 584.062 128.844C583.726 128.684 583.49 128.488 583.354 128.256C583.218 128.016 583.15 127.732 583.15 127.404C583.15 126.836 583.354 126.376 583.762 126.024C584.17 125.672 584.738 125.496 585.466 125.496C585.962 125.496 586.382 125.588 586.726 125.772C587.078 125.956 587.354 126.2 587.554 126.504C587.754 126.8 587.886 127.128 587.95 127.488L587.122 127.56C587.074 127.312 586.982 127.092 586.846 126.9C586.71 126.7 586.526 126.544 586.294 126.432C586.062 126.312 585.782 126.252 585.454 126.252C584.974 126.252 584.606 126.356 584.35 126.564C584.102 126.764 583.978 127.032 583.978 127.368C583.978 127.6 584.03 127.792 584.134 127.944C584.238 128.088 584.41 128.208 584.65 128.304C584.89 128.392 585.222 128.472 585.646 128.544C586.278 128.648 586.77 128.78 587.122 128.94C587.482 129.092 587.734 129.284 587.878 129.516C588.022 129.74 588.094 130.016 588.094 130.344C588.094 130.728 587.99 131.056 587.782 131.328C587.574 131.592 587.286 131.796 586.918 131.94C586.558 132.076 586.138 132.144 585.658 132.144ZM530.505 148.192C529.753 148.192 529.093 148.016 528.525 147.664C527.965 147.304 527.529 146.792 527.217 146.128C526.913 145.464 526.761 144.672 526.761 143.752C526.761 142.832 526.913 142.04 527.217 141.376C527.529 140.704 527.965 140.188 528.525 139.828C529.093 139.468 529.753 139.288 530.505 139.288C531.497 139.288 532.277 139.552 532.845 140.08C533.413 140.608 533.781 141.316 533.949 142.204L533.085 142.264C532.965 141.6 532.689 141.072 532.257 140.68C531.833 140.288 531.249 140.092 530.505 140.092C529.921 140.092 529.413 140.24 528.981 140.536C528.549 140.824 528.213 141.244 527.973 141.796C527.733 142.34 527.613 142.992 527.613 143.752C527.613 144.512 527.733 145.164 527.973 145.708C528.213 146.252 528.549 146.668 528.981 146.956C529.413 147.244 529.921 147.388 530.505 147.388C531.281 147.388 531.889 147.176 532.329 146.752C532.777 146.328 533.053 145.752 533.157 145.024L534.021 145.084C533.925 145.708 533.725 146.252 533.421 146.716C533.117 147.18 532.721 147.544 532.233 147.808C531.745 148.064 531.169 148.192 530.505 148.192ZM537.843 148.144C537.267 148.144 536.763 148.008 536.331 147.736C535.907 147.464 535.579 147.08 535.347 146.584C535.115 146.08 534.999 145.492 534.999 144.82C534.999 144.14 535.115 143.552 535.347 143.056C535.579 142.56 535.907 142.176 536.331 141.904C536.763 141.632 537.267 141.496 537.843 141.496C538.419 141.496 538.919 141.632 539.343 141.904C539.767 142.176 540.095 142.56 540.327 143.056C540.559 143.552 540.675 144.14 540.675 144.82C540.675 145.492 540.559 146.08 540.327 146.584C540.095 147.08 539.767 147.464 539.343 147.736C538.919 148.008 538.419 148.144 537.843 148.144ZM537.843 147.388C538.467 147.388 538.955 147.16 539.307 146.704C539.667 146.24 539.847 145.612 539.847 144.82C539.847 144.028 539.667 143.404 539.307 142.948C538.955 142.484 538.467 142.252 537.843 142.252C537.219 142.252 536.727 142.484 536.367 142.948C536.007 143.404 535.827 144.028 535.827 144.82C535.827 145.612 536.007 146.24 536.367 146.704C536.727 147.16 537.219 147.388 537.843 147.388ZM542.099 148V141.64H542.819L542.855 143.308L542.759 143.236C542.823 142.844 542.955 142.52 543.155 142.264C543.363 142.008 543.615 141.816 543.911 141.688C544.207 141.56 544.527 141.496 544.871 141.496C545.359 141.496 545.759 141.604 546.071 141.82C546.391 142.036 546.627 142.328 546.779 142.696C546.931 143.056 547.007 143.46 547.007 143.908V148H546.215V144.196C546.215 143.78 546.163 143.424 546.059 143.128C545.963 142.832 545.803 142.604 545.579 142.444C545.355 142.284 545.063 142.204 544.703 142.204C544.159 142.204 543.719 142.38 543.383 142.732C543.055 143.084 542.891 143.572 542.891 144.196V148H542.099ZM548.744 148V141.64H549.464L549.5 143.308L549.404 143.236C549.468 142.844 549.6 142.52 549.8 142.264C550.008 142.008 550.26 141.816 550.556 141.688C550.852 141.56 551.172 141.496 551.516 141.496C552.004 141.496 552.404 141.604 552.716 141.82C553.036 142.036 553.272 142.328 553.424 142.696C553.576 143.056 553.652 143.46 553.652 143.908V148H552.86V144.196C552.86 143.78 552.808 143.424 552.704 143.128C552.608 142.832 552.448 142.604 552.224 142.444C552 142.284 551.708 142.204 551.348 142.204C550.804 142.204 550.364 142.38 550.028 142.732C549.7 143.084 549.536 143.572 549.536 144.196V148H548.744ZM557.918 148.144C557.31 148.144 556.794 148.004 556.37 147.724C555.946 147.436 555.618 147.044 555.386 146.548C555.162 146.044 555.05 145.468 555.05 144.82C555.05 144.172 555.162 143.6 555.386 143.104C555.61 142.6 555.93 142.208 556.346 141.928C556.77 141.64 557.278 141.496 557.87 141.496C558.438 141.496 558.93 141.632 559.346 141.904C559.762 142.176 560.078 142.56 560.294 143.056C560.518 143.552 560.63 144.132 560.63 144.796V145.048H555.878C555.91 145.8 556.106 146.38 556.466 146.788C556.826 147.188 557.31 147.388 557.918 147.388C558.382 147.388 558.762 147.276 559.058 147.052C559.354 146.828 559.558 146.532 559.67 146.164L560.522 146.224C560.362 146.784 560.054 147.244 559.598 147.604C559.142 147.964 558.582 148.144 557.918 148.144ZM555.878 144.34H559.766C559.726 143.66 559.538 143.144 559.202 142.792C558.866 142.432 558.422 142.252 557.87 142.252C557.318 142.252 556.866 142.432 556.514 142.792C556.162 143.152 555.95 143.668 555.878 144.34ZM564.457 148.144C563.865 148.144 563.357 148.004 562.933 147.724C562.509 147.436 562.181 147.044 561.949 146.548C561.725 146.044 561.613 145.468 561.613 144.82C561.613 144.172 561.725 143.6 561.949 143.104C562.181 142.6 562.509 142.208 562.933 141.928C563.357 141.64 563.865 141.496 564.457 141.496C564.945 141.496 565.373 141.584 565.741 141.76C566.109 141.936 566.409 142.188 566.641 142.516C566.873 142.844 567.029 143.232 567.109 143.68L566.281 143.728C566.185 143.256 565.977 142.892 565.657 142.636C565.345 142.38 564.945 142.252 564.457 142.252C563.833 142.252 563.341 142.484 562.981 142.948C562.621 143.404 562.441 144.028 562.441 144.82C562.441 145.612 562.621 146.24 562.981 146.704C563.341 147.16 563.833 147.388 564.457 147.388C564.945 147.388 565.349 147.252 565.669 146.98C565.997 146.7 566.205 146.3 566.293 145.78L567.121 145.84C567.041 146.304 566.881 146.708 566.641 147.052C566.409 147.396 566.109 147.664 565.741 147.856C565.373 148.048 564.945 148.144 564.457 148.144ZM570.358 148C569.838 148 569.454 147.88 569.206 147.64C568.958 147.392 568.834 147.016 568.834 146.512V140.152H569.626V146.488C569.626 146.784 569.69 146.992 569.818 147.112C569.954 147.232 570.158 147.292 570.43 147.292H571.27V148H570.358ZM567.838 142.348V141.64H571.27V142.348H567.838ZM572.615 148V141.64H573.407V148H572.615ZM572.591 140.584V139.516H573.431V140.584H572.591ZM577.652 148.144C577.076 148.144 576.572 148.008 576.14 147.736C575.716 147.464 575.388 147.08 575.156 146.584C574.924 146.08 574.808 145.492 574.808 144.82C574.808 144.14 574.924 143.552 575.156 143.056C575.388 142.56 575.716 142.176 576.14 141.904C576.572 141.632 577.076 141.496 577.652 141.496C578.228 141.496 578.728 141.632 579.152 141.904C579.576 142.176 579.904 142.56 580.136 143.056C580.368 143.552 580.484 144.14 580.484 144.82C580.484 145.492 580.368 146.08 580.136 146.584C579.904 147.08 579.576 147.464 579.152 147.736C578.728 148.008 578.228 148.144 577.652 148.144ZM577.652 147.388C578.276 147.388 578.764 147.16 579.116 146.704C579.476 146.24 579.656 145.612 579.656 144.82C579.656 144.028 579.476 143.404 579.116 142.948C578.764 142.484 578.276 142.252 577.652 142.252C577.028 142.252 576.536 142.484 576.176 142.948C575.816 143.404 575.636 144.028 575.636 144.82C575.636 145.612 575.816 146.24 576.176 146.704C576.536 147.16 577.028 147.388 577.652 147.388ZM581.908 148V141.64H582.628L582.664 143.308L582.568 143.236C582.632 142.844 582.764 142.52 582.964 142.264C583.172 142.008 583.424 141.816 583.72 141.688C584.016 141.56 584.336 141.496 584.68 141.496C585.168 141.496 585.568 141.604 585.88 141.82C586.2 142.036 586.436 142.328 586.588 142.696C586.74 143.056 586.816 143.46 586.816 143.908V148H586.024V144.196C586.024 143.78 585.972 143.424 585.868 143.128C585.772 142.832 585.612 142.604 585.388 142.444C585.164 142.284 584.872 142.204 584.512 142.204C583.968 142.204 583.528 142.38 583.192 142.732C582.864 143.084 582.7 143.572 582.7 144.196V148H581.908Z" fill="#2E2E2E"/>
<path d="M34.4043 132.192C33.6363 132.192 32.9603 132.016 32.3763 131.664C31.7923 131.304 31.3363 130.792 31.0083 130.128C30.6803 129.464 30.5163 128.672 30.5163 127.752C30.5163 126.84 30.6763 126.052 30.9963 125.388C31.3243 124.716 31.7803 124.2 32.3643 123.84C32.9483 123.472 33.6323 123.288 34.4163 123.288C35.4723 123.288 36.2923 123.552 36.8763 124.08C37.4603 124.608 37.8403 125.34 38.0163 126.276L36.6603 126.348C36.5483 125.764 36.3083 125.308 35.9403 124.98C35.5723 124.644 35.0643 124.476 34.4163 124.476C33.8963 124.476 33.4443 124.608 33.0603 124.872C32.6843 125.136 32.3883 125.512 32.1723 126C31.9643 126.488 31.8603 127.072 31.8603 127.752C31.8603 128.432 31.9643 129.016 32.1723 129.504C32.3883 129.992 32.6883 130.364 33.0723 130.62C33.4563 130.876 33.9003 131.004 34.4043 131.004C35.0923 131.004 35.6243 130.824 36.0003 130.464C36.3843 130.096 36.6243 129.592 36.7203 128.952L38.0763 129.024C37.9723 129.672 37.7643 130.232 37.4523 130.704C37.1403 131.176 36.7283 131.544 36.2163 131.808C35.7043 132.064 35.1003 132.192 34.4043 132.192ZM40.7061 132C40.2901 132 39.9541 131.892 39.6981 131.676C39.4421 131.46 39.3141 131.116 39.3141 130.644V123.48H40.5861V130.524C40.5861 130.668 40.6221 130.776 40.6941 130.848C40.7741 130.92 40.8861 130.956 41.0301 130.956H41.5341V132H40.7061ZM42.607 132V125.616H43.879V132H42.607ZM42.583 124.692V123.42H43.903V124.692H42.583ZM48.1882 132.144C47.5642 132.144 47.0242 132.008 46.5682 131.736C46.1202 131.464 45.7722 131.076 45.5242 130.572C45.2842 130.068 45.1642 129.48 45.1642 128.808C45.1642 128.136 45.2842 127.552 45.5242 127.056C45.7722 126.552 46.1202 126.164 46.5682 125.892C47.0162 125.612 47.5442 125.472 48.1522 125.472C48.7282 125.472 49.2362 125.608 49.6762 125.88C50.1162 126.144 50.4562 126.528 50.6962 127.032C50.9442 127.536 51.0682 128.144 51.0682 128.856V129.18H46.4842C46.5162 129.804 46.6802 130.272 46.9762 130.584C47.2802 130.896 47.6882 131.052 48.2002 131.052C48.5762 131.052 48.8882 130.964 49.1362 130.788C49.3842 130.612 49.5562 130.376 49.6522 130.08L50.9722 130.164C50.8042 130.756 50.4722 131.236 49.9762 131.604C49.4882 131.964 48.8922 132.144 48.1882 132.144ZM46.4842 128.22H49.7242C49.6842 127.652 49.5202 127.232 49.2322 126.96C48.9522 126.688 48.5922 126.552 48.1522 126.552C47.6962 126.552 47.3202 126.696 47.0242 126.984C46.7362 127.264 46.5562 127.676 46.4842 128.22ZM52.357 132V125.616H53.521L53.569 127.32L53.413 127.236C53.485 126.82 53.621 126.484 53.821 126.228C54.021 125.972 54.265 125.784 54.553 125.664C54.841 125.536 55.153 125.472 55.489 125.472C55.969 125.472 56.365 125.58 56.677 125.796C56.997 126.004 57.237 126.292 57.397 126.66C57.565 127.02 57.649 127.432 57.649 127.896V132H56.377V128.28C56.377 127.904 56.337 127.588 56.257 127.332C56.177 127.076 56.045 126.88 55.861 126.744C55.677 126.608 55.437 126.54 55.141 126.54C54.693 126.54 54.329 126.688 54.049 126.984C53.769 127.28 53.629 127.712 53.629 128.28V132H52.357ZM61.4378 132C60.8298 132 60.3818 131.86 60.0938 131.58C59.8058 131.3 59.6618 130.864 59.6618 130.272V124.116H60.9338V130.176C60.9338 130.472 60.9978 130.676 61.1258 130.788C61.2538 130.9 61.4498 130.956 61.7138 130.956H62.6258V132H61.4378ZM58.6898 126.66V125.616H62.6258V126.66H58.6898ZM4.1888 148.192C3.5568 148.192 2.9968 148.068 2.5088 147.82C2.0288 147.572 1.6488 147.232 1.3688 146.8C1.0888 146.36 0.932797 145.864 0.900797 145.312L1.7528 145.252C1.7848 145.676 1.9048 146.052 2.1128 146.38C2.3208 146.7 2.6008 146.948 2.9528 147.124C3.3048 147.3 3.7248 147.388 4.2128 147.388C4.6368 147.388 5.0048 147.328 5.3168 147.208C5.6288 147.088 5.8688 146.912 6.0368 146.68C6.2048 146.448 6.2888 146.168 6.2888 145.84C6.2888 145.56 6.2248 145.312 6.0968 145.096C5.9688 144.88 5.7208 144.68 5.3528 144.496C4.9848 144.312 4.4488 144.136 3.7448 143.968C3.0968 143.808 2.5768 143.632 2.1848 143.44C1.8008 143.248 1.5208 143.012 1.3448 142.732C1.1688 142.444 1.0808 142.084 1.0808 141.652C1.0808 141.196 1.1928 140.792 1.4168 140.44C1.6408 140.08 1.9608 139.8 2.3768 139.6C2.8008 139.392 3.3048 139.288 3.8888 139.288C4.5128 139.288 5.0448 139.412 5.4848 139.66C5.9248 139.9 6.2688 140.224 6.5168 140.632C6.7648 141.032 6.9088 141.476 6.9488 141.964L6.0968 142.024C6.0648 141.664 5.9608 141.336 5.7848 141.04C5.6088 140.744 5.3608 140.512 5.0408 140.344C4.7208 140.176 4.3288 140.092 3.8648 140.092C3.2648 140.092 2.7928 140.236 2.4488 140.524C2.1048 140.804 1.9328 141.172 1.9328 141.628C1.9328 141.916 1.9968 142.156 2.1248 142.348C2.2528 142.532 2.4808 142.696 2.8088 142.84C3.1368 142.976 3.6048 143.12 4.2128 143.272C4.9648 143.448 5.5528 143.66 5.9768 143.908C6.4088 144.148 6.7128 144.424 6.8888 144.736C7.0648 145.048 7.1528 145.404 7.1528 145.804C7.1528 146.292 7.0208 146.716 6.7568 147.076C6.5008 147.436 6.1488 147.712 5.7008 147.904C5.2608 148.096 4.7568 148.192 4.1888 148.192ZM11.3946 148.144C10.7866 148.144 10.2706 148.004 9.84661 147.724C9.42261 147.436 9.09461 147.044 8.86261 146.548C8.63861 146.044 8.52661 145.468 8.52661 144.82C8.52661 144.172 8.63861 143.6 8.86261 143.104C9.08661 142.6 9.40661 142.208 9.82261 141.928C10.2466 141.64 10.7546 141.496 11.3466 141.496C11.9146 141.496 12.4066 141.632 12.8226 141.904C13.2386 142.176 13.5546 142.56 13.7706 143.056C13.9946 143.552 14.1066 144.132 14.1066 144.796V145.048H9.35461C9.38661 145.8 9.58261 146.38 9.94261 146.788C10.3026 147.188 10.7866 147.388 11.3946 147.388C11.8586 147.388 12.2386 147.276 12.5346 147.052C12.8306 146.828 13.0346 146.532 13.1466 146.164L13.9986 146.224C13.8386 146.784 13.5306 147.244 13.0746 147.604C12.6186 147.964 12.0586 148.144 11.3946 148.144ZM9.35461 144.34H13.2426C13.2026 143.66 13.0146 143.144 12.6786 142.792C12.3426 142.432 11.8986 142.252 11.3466 142.252C10.7946 142.252 10.3426 142.432 9.99061 142.792C9.63861 143.152 9.42661 143.668 9.35461 144.34ZM15.5211 148V141.64H16.2411L16.2771 143.308L16.1811 143.236C16.2451 142.844 16.3771 142.52 16.5771 142.264C16.7851 142.008 17.0371 141.816 17.3331 141.688C17.6291 141.56 17.9491 141.496 18.2931 141.496C18.7811 141.496 19.1811 141.604 19.4931 141.82C19.8131 142.036 20.0491 142.328 20.2011 142.696C20.3531 143.056 20.4291 143.46 20.4291 143.908V148H19.6371V144.196C19.6371 143.78 19.5851 143.424 19.4811 143.128C19.3851 142.832 19.2251 142.604 19.0011 142.444C18.7771 142.284 18.4851 142.204 18.1251 142.204C17.5811 142.204 17.1411 142.38 16.8051 142.732C16.4771 143.084 16.3131 143.572 16.3131 144.196V148H15.5211ZM24.5034 148.144C23.9514 148.144 23.4754 148.008 23.0754 147.736C22.6754 147.464 22.3674 147.08 22.1514 146.584C21.9354 146.088 21.8274 145.5 21.8274 144.82C21.8274 144.14 21.9354 143.552 22.1514 143.056C22.3674 142.56 22.6754 142.176 23.0754 141.904C23.4754 141.632 23.9514 141.496 24.5034 141.496C24.9674 141.496 25.3794 141.612 25.7394 141.844C26.1074 142.068 26.3754 142.372 26.5434 142.756V139.48H27.3354V148H26.6394L26.6034 146.812C26.4274 147.228 26.1474 147.556 25.7634 147.796C25.3874 148.028 24.9674 148.144 24.5034 148.144ZM24.6354 147.388C25.0354 147.388 25.3754 147.284 25.6554 147.076C25.9434 146.86 26.1634 146.56 26.3154 146.176C26.4674 145.784 26.5434 145.332 26.5434 144.82C26.5434 144.308 26.4674 143.86 26.3154 143.476C26.1634 143.092 25.9434 142.792 25.6554 142.576C25.3754 142.36 25.0354 142.252 24.6354 142.252C24.0354 142.252 23.5554 142.484 23.1954 142.948C22.8354 143.404 22.6554 144.028 22.6554 144.82C22.6554 145.604 22.8354 146.228 23.1954 146.692C23.5554 147.156 24.0354 147.388 24.6354 147.388ZM29.1031 148V141.64H29.8951V148H29.1031ZM29.0791 140.584V139.516H29.9191V140.584H29.0791ZM31.9625 148V141.64H32.6825L32.7185 143.308L32.6225 143.236C32.6865 142.844 32.8185 142.52 33.0185 142.264C33.2265 142.008 33.4785 141.816 33.7745 141.688C34.0705 141.56 34.3905 141.496 34.7345 141.496C35.2225 141.496 35.6225 141.604 35.9345 141.82C36.2545 142.036 36.4905 142.328 36.6425 142.696C36.7945 143.056 36.8705 143.46 36.8705 143.908L36.8705 148H36.0785L36.0785 144.196C36.0785 143.78 36.0265 143.424 35.9225 143.128C35.8265 142.832 35.6665 142.604 35.4425 142.444C35.2185 142.284 34.9265 142.204 34.5665 142.204C34.0225 142.204 33.5825 142.38 33.2465 142.732C32.9185 143.084 32.7545 143.572 32.7545 144.196L32.7545 148H31.9625ZM41.0528 149.944C40.6048 149.944 40.1968 149.864 39.8288 149.704C39.4688 149.552 39.1728 149.336 38.9408 149.056C38.7088 148.776 38.5608 148.452 38.4968 148.084L39.3248 148.036C39.3968 148.38 39.5728 148.656 39.8528 148.864C40.1328 149.08 40.5328 149.188 41.0528 149.188C41.6688 149.188 42.1408 149.044 42.4688 148.756C42.8048 148.468 42.9728 148.048 42.9728 147.496V146.404C42.8128 146.788 42.5568 147.096 42.2048 147.328C41.8528 147.56 41.4488 147.676 40.9928 147.676C40.4568 147.676 39.9808 147.548 39.5648 147.292C39.1568 147.028 38.8368 146.664 38.6048 146.2C38.3808 145.736 38.2688 145.196 38.2688 144.58C38.2688 143.964 38.3808 143.428 38.6048 142.972C38.8368 142.508 39.1528 142.148 39.5528 141.892C39.9608 141.628 40.4288 141.496 40.9568 141.496C41.4448 141.496 41.8688 141.62 42.2288 141.868C42.5968 142.108 42.8568 142.428 43.0088 142.828V141.64H43.7648L43.7648 147.496C43.7648 148 43.6568 148.436 43.4408 148.804C43.2248 149.172 42.9128 149.452 42.5048 149.644C42.1048 149.844 41.6208 149.944 41.0528 149.944ZM41.0288 146.92C41.6128 146.92 42.0808 146.712 42.4328 146.296C42.7928 145.872 42.9728 145.3 42.9728 144.58C42.9808 144.116 42.9048 143.712 42.7448 143.368C42.5848 143.016 42.3568 142.744 42.0608 142.552C41.7648 142.352 41.4208 142.252 41.0288 142.252C40.4288 142.252 39.9568 142.464 39.6128 142.888C39.2688 143.304 39.0968 143.868 39.0968 144.58C39.0968 145.3 39.2688 145.872 39.6128 146.296C39.9648 146.712 40.4368 146.92 41.0288 146.92ZM48.864 148L48.864 139.48H51.984C52.592 139.48 53.108 139.584 53.532 139.792C53.964 139.992 54.296 140.28 54.528 140.656C54.76 141.032 54.876 141.484 54.876 142.012C54.876 142.404 54.784 142.752 54.6 143.056C54.424 143.36 54.188 143.604 53.892 143.788C53.596 143.972 53.276 144.076 52.932 144.1L52.872 143.992C53.432 143.992 53.864 144.12 54.168 144.376C54.48 144.624 54.66 145.016 54.708 145.552L54.924 148H54.096L53.892 145.624C53.86 145.232 53.72 144.944 53.472 144.76C53.224 144.568 52.824 144.472 52.272 144.472H49.68L49.68 148H48.864ZM49.68 143.68H52.116C52.7 143.68 53.16 143.536 53.496 143.248C53.84 142.952 54.012 142.536 54.012 142C54.012 141.44 53.84 141.012 53.496 140.716C53.152 140.42 52.644 140.272 51.972 140.272H49.68V143.68ZM58.9493 148.144C58.3413 148.144 57.8253 148.004 57.4013 147.724C56.9773 147.436 56.6493 147.044 56.4173 146.548C56.1933 146.044 56.0813 145.468 56.0813 144.82C56.0813 144.172 56.1933 143.6 56.4173 143.104C56.6413 142.6 56.9613 142.208 57.3773 141.928C57.8013 141.64 58.3093 141.496 58.9013 141.496C59.4693 141.496 59.9613 141.632 60.3773 141.904C60.7933 142.176 61.1093 142.56 61.3253 143.056C61.5493 143.552 61.6613 144.132 61.6613 144.796V145.048H56.9093C56.9413 145.8 57.1373 146.38 57.4973 146.788C57.8573 147.188 58.3413 147.388 58.9493 147.388C59.4133 147.388 59.7933 147.276 60.0893 147.052C60.3853 146.828 60.5893 146.532 60.7013 146.164L61.5533 146.224C61.3933 146.784 61.0853 147.244 60.6293 147.604C60.1733 147.964 59.6133 148.144 58.9493 148.144ZM56.9093 144.34H60.7973C60.7573 143.66 60.5693 143.144 60.2333 142.792C59.8973 142.432 59.4533 142.252 58.9013 142.252C58.3493 142.252 57.8973 142.432 57.5453 142.792C57.1933 143.152 56.9813 143.668 56.9093 144.34ZM68.1518 149.8H67.3598V146.392L67.4798 146.548C67.4158 146.852 67.2798 147.124 67.0718 147.364C66.8718 147.604 66.6198 147.796 66.3158 147.94C66.0118 148.076 65.6838 148.144 65.3318 148.144C64.7398 148.144 64.2438 147.996 63.8438 147.7C63.4438 147.396 63.1438 146.996 62.9438 146.5C62.7438 145.996 62.6438 145.436 62.6438 144.82C62.6438 144.204 62.7438 143.648 62.9438 143.152C63.1438 142.648 63.4438 142.248 63.8438 141.952C64.2438 141.648 64.7438 141.496 65.3438 141.496C65.8718 141.496 66.3278 141.64 66.7118 141.928C67.1038 142.216 67.3758 142.636 67.5278 143.188L67.3958 143.248L67.4198 141.64H68.1518V149.8ZM65.4038 147.388C65.7958 147.388 66.1398 147.288 66.4358 147.088C66.7318 146.88 66.9598 146.584 67.1198 146.2C67.2798 145.816 67.3598 145.356 67.3598 144.82C67.3598 144.284 67.2758 143.824 67.1078 143.44C66.9478 143.056 66.7198 142.764 66.4238 142.564C66.1358 142.356 65.7958 142.252 65.4038 142.252C64.8118 142.252 64.3398 142.48 63.9878 142.936C63.6438 143.392 63.4718 144.02 63.4718 144.82C63.4718 145.62 63.6438 146.248 63.9878 146.704C64.3318 147.16 64.8038 147.388 65.4038 147.388ZM72.2068 148.144C71.5748 148.144 71.0668 147.932 70.6828 147.508C70.3068 147.076 70.1188 146.484 70.1188 145.732V141.64H70.9108V145.492C70.9108 146.148 71.0348 146.636 71.2828 146.956C71.5388 147.276 71.9148 147.436 72.4108 147.436C72.9628 147.436 73.3948 147.256 73.7068 146.896C74.0268 146.536 74.1868 146.048 74.1868 145.432V141.64H74.9788V148H74.2348L74.2228 146.368L74.3428 146.428C74.2388 146.972 73.9988 147.396 73.6228 147.7C73.2548 147.996 72.7828 148.144 72.2068 148.144ZM79.2696 148.144C78.6616 148.144 78.1456 148.004 77.7216 147.724C77.2976 147.436 76.9696 147.044 76.7376 146.548C76.5136 146.044 76.4016 145.468 76.4016 144.82C76.4016 144.172 76.5136 143.6 76.7376 143.104C76.9616 142.6 77.2816 142.208 77.6976 141.928C78.1216 141.64 78.6296 141.496 79.2216 141.496C79.7896 141.496 80.2816 141.632 80.6976 141.904C81.1136 142.176 81.4296 142.56 81.6456 143.056C81.8696 143.552 81.9816 144.132 81.9816 144.796V145.048H77.2296C77.2616 145.8 77.4576 146.38 77.8176 146.788C78.1776 147.188 78.6616 147.388 79.2696 147.388C79.7336 147.388 80.1136 147.276 80.4096 147.052C80.7056 146.828 80.9096 146.532 81.0216 146.164L81.8736 146.224C81.7136 146.784 81.4056 147.244 80.9496 147.604C80.4936 147.964 79.9336 148.144 79.2696 148.144ZM77.2296 144.34H81.1176C81.0776 143.66 80.8896 143.144 80.5536 142.792C80.2176 142.432 79.7736 142.252 79.2216 142.252C78.6696 142.252 78.2176 142.432 77.8656 142.792C77.5136 143.152 77.3016 143.668 77.2296 144.34ZM85.6521 148.144C85.1001 148.144 84.6281 148.056 84.2361 147.88C83.8521 147.696 83.5521 147.444 83.3361 147.124C83.1201 146.804 82.9961 146.444 82.9641 146.044L83.7921 145.984C83.8401 146.408 84.0161 146.748 84.3201 147.004C84.6321 147.26 85.0761 147.388 85.6521 147.388C86.1561 147.388 86.5481 147.304 86.8281 147.136C87.1081 146.968 87.2481 146.708 87.2481 146.356C87.2481 146.164 87.2041 146.004 87.1161 145.876C87.0361 145.74 86.8681 145.624 86.6121 145.528C86.3561 145.424 85.9721 145.328 85.4601 145.24C84.8601 145.128 84.3921 144.996 84.0561 144.844C83.7201 144.684 83.4841 144.488 83.3481 144.256C83.2121 144.016 83.1441 143.732 83.1441 143.404C83.1441 142.836 83.3481 142.376 83.7561 142.024C84.1641 141.672 84.7321 141.496 85.4601 141.496C85.9561 141.496 86.3761 141.588 86.7201 141.772C87.0721 141.956 87.3481 142.2 87.5481 142.504C87.7481 142.8 87.8801 143.128 87.9441 143.488L87.1161 143.56C87.0681 143.312 86.9761 143.092 86.8401 142.9C86.7041 142.7 86.5201 142.544 86.2881 142.432C86.0561 142.312 85.7761 142.252 85.4481 142.252C84.9681 142.252 84.6001 142.356 84.3441 142.564C84.0961 142.764 83.9721 143.032 83.9721 143.368C83.9721 143.6 84.0241 143.792 84.1281 143.944C84.2321 144.088 84.4041 144.208 84.6441 144.304C84.8841 144.392 85.2161 144.472 85.6401 144.544C86.2721 144.648 86.7641 144.78 87.1161 144.94C87.4761 145.092 87.7281 145.284 87.8721 145.516C88.0161 145.74 88.0881 146.016 88.0881 146.344C88.0881 146.728 87.9841 147.056 87.7761 147.328C87.5681 147.592 87.2801 147.796 86.9121 147.94C86.5521 148.076 86.1321 148.144 85.6521 148.144ZM91.4403 148C90.9203 148 90.5363 147.88 90.2883 147.64C90.0403 147.392 89.9163 147.016 89.9163 146.512V140.152H90.7083V146.488C90.7083 146.784 90.7723 146.992 90.9003 147.112C91.0363 147.232 91.2403 147.292 91.5123 147.292H92.3523V148H91.4403ZM88.9203 142.348V141.64H92.3523V142.348H88.9203Z" fill="#2E2E2E"/>
<path d="M341.713 9.192C340.945 9.192 340.269 9.016 339.685 8.664C339.101 8.304 338.645 7.792 338.317 7.128C337.989 6.464 337.825 5.672 337.825 4.752C337.825 3.84 337.985 3.052 338.305 2.388C338.633 1.716 339.089 1.2 339.673 0.84C340.257 0.472 340.941 0.288 341.725 0.288C342.781 0.288 343.601 0.552 344.185 1.08C344.769 1.608 345.149 2.34 345.325 3.276L343.969 3.348C343.857 2.764 343.617 2.308 343.249 1.98C342.881 1.644 342.373 1.476 341.725 1.476C341.205 1.476 340.753 1.608 340.369 1.872C339.993 2.136 339.697 2.512 339.481 3C339.273 3.488 339.169 4.072 339.169 4.752C339.169 5.432 339.273 6.016 339.481 6.504C339.697 6.992 339.997 7.364 340.381 7.62C340.765 7.876 341.209 8.004 341.713 8.004C342.401 8.004 342.933 7.824 343.309 7.464C343.693 7.096 343.933 6.592 344.029 5.952L345.385 6.024C345.281 6.672 345.073 7.232 344.761 7.704C344.449 8.176 344.037 8.544 343.525 8.808C343.013 9.064 342.409 9.192 341.713 9.192ZM346.716 9V0.48L347.988 0.48V4.056L347.832 4.032C347.904 3.672 348.036 3.38 348.228 3.156C348.42 2.924 348.656 2.752 348.936 2.64C349.216 2.528 349.524 2.472 349.86 2.472C350.324 2.472 350.716 2.576 351.036 2.784C351.356 2.984 351.596 3.268 351.756 3.636C351.924 4.004 352.008 4.424 352.008 4.896V9H350.736V5.232C350.736 4.656 350.636 4.232 350.436 3.96C350.244 3.68 349.94 3.54 349.524 3.54C349.06 3.54 348.688 3.688 348.408 3.984C348.128 4.272 347.988 4.696 347.988 5.256V9H346.716ZM355.465 9.144C354.801 9.144 354.269 8.992 353.869 8.688C353.477 8.384 353.281 7.956 353.281 7.404C353.281 6.852 353.445 6.424 353.773 6.12C354.109 5.808 354.625 5.584 355.321 5.448L357.517 5.028C357.517 4.532 357.401 4.164 357.169 3.924C356.937 3.676 356.593 3.552 356.137 3.552C355.729 3.552 355.409 3.644 355.177 3.828C354.945 4.004 354.785 4.268 354.697 4.62L353.389 4.536C353.509 3.896 353.805 3.392 354.277 3.024C354.757 2.656 355.377 2.472 356.137 2.472C357.001 2.472 357.657 2.704 358.105 3.168C358.561 3.624 358.789 4.268 358.789 5.1V7.584C358.789 7.736 358.813 7.844 358.861 7.908C358.917 7.964 359.005 7.992 359.125 7.992H359.353V9C359.313 9.008 359.249 9.016 359.161 9.024C359.073 9.032 358.981 9.036 358.885 9.036C358.613 9.036 358.377 8.992 358.177 8.904C357.985 8.816 357.841 8.672 357.745 8.472C357.649 8.264 357.601 7.988 357.601 7.644L357.733 7.704C357.669 7.984 357.529 8.232 357.313 8.448C357.105 8.664 356.837 8.836 356.509 8.964C356.189 9.084 355.841 9.144 355.465 9.144ZM355.669 8.136C356.053 8.136 356.381 8.064 356.653 7.92C356.925 7.768 357.137 7.56 357.289 7.296C357.441 7.032 357.517 6.732 357.517 6.396V5.988L355.645 6.348C355.261 6.42 354.989 6.536 354.829 6.696C354.677 6.848 354.601 7.044 354.601 7.284C354.601 7.556 354.693 7.768 354.877 7.92C355.069 8.064 355.333 8.136 355.669 8.136ZM360.427 9V2.616L361.591 2.616L361.639 4.32L361.483 4.236C361.555 3.82 361.691 3.484 361.891 3.228C362.091 2.972 362.335 2.784 362.623 2.664C362.911 2.536 363.223 2.472 363.559 2.472C364.039 2.472 364.435 2.58 364.747 2.796C365.067 3.004 365.307 3.292 365.467 3.66C365.635 4.02 365.719 4.432 365.719 4.896V9L364.447 9V5.28C364.447 4.904 364.407 4.588 364.327 4.332C364.247 4.076 364.115 3.88 363.931 3.744C363.747 3.608 363.507 3.54 363.211 3.54C362.763 3.54 362.399 3.688 362.119 3.984C361.839 4.28 361.699 4.712 361.699 5.28V9H360.427ZM369.945 10.944C369.441 10.944 368.997 10.868 368.613 10.716C368.229 10.564 367.913 10.348 367.665 10.068C367.417 9.796 367.249 9.476 367.161 9.108L368.481 9.024C368.569 9.288 368.721 9.496 368.937 9.648C369.161 9.808 369.497 9.888 369.945 9.888C370.473 9.888 370.877 9.776 371.157 9.552C371.445 9.328 371.589 8.988 371.589 8.532V7.608C371.437 7.936 371.193 8.196 370.857 8.388C370.521 8.58 370.145 8.676 369.729 8.676C369.193 8.676 368.717 8.544 368.301 8.28C367.885 8.016 367.561 7.652 367.329 7.188C367.097 6.724 366.981 6.188 366.981 5.58C366.981 4.964 367.093 4.424 367.317 3.96C367.549 3.496 367.869 3.132 368.277 2.868C368.693 2.604 369.161 2.472 369.681 2.472C370.137 2.472 370.537 2.576 370.881 2.784C371.233 2.992 371.485 3.272 371.637 3.624V2.616H372.861V8.496C372.861 9.024 372.741 9.468 372.501 9.828C372.269 10.196 371.933 10.472 371.493 10.656C371.061 10.848 370.545 10.944 369.945 10.944ZM369.933 7.596C370.429 7.596 370.825 7.416 371.121 7.056C371.425 6.696 371.581 6.2 371.589 5.568C371.597 5.152 371.533 4.796 371.397 4.5C371.261 4.196 371.065 3.964 370.809 3.804C370.561 3.636 370.269 3.552 369.933 3.552C369.413 3.552 369.009 3.736 368.721 4.104C368.441 4.464 368.301 4.952 368.301 5.568C368.301 6.192 368.445 6.688 368.733 7.056C369.029 7.416 369.429 7.596 369.933 7.596ZM377.176 9.144C376.552 9.144 376.012 9.008 375.556 8.736C375.108 8.464 374.76 8.076 374.512 7.572C374.272 7.068 374.152 6.48 374.152 5.808C374.152 5.136 374.272 4.552 374.512 4.056C374.76 3.552 375.108 3.164 375.556 2.892C376.004 2.612 376.532 2.472 377.14 2.472C377.716 2.472 378.224 2.608 378.664 2.88C379.104 3.144 379.444 3.528 379.684 4.032C379.932 4.536 380.056 5.144 380.056 5.856V6.18L375.472 6.18C375.504 6.804 375.668 7.272 375.964 7.584C376.268 7.896 376.676 8.052 377.188 8.052C377.564 8.052 377.876 7.964 378.124 7.788C378.372 7.612 378.544 7.376 378.64 7.08L379.96 7.164C379.792 7.756 379.46 8.236 378.964 8.604C378.476 8.964 377.88 9.144 377.176 9.144ZM375.472 5.22L378.712 5.22C378.672 4.652 378.508 4.232 378.22 3.96C377.94 3.688 377.58 3.552 377.14 3.552C376.684 3.552 376.308 3.696 376.012 3.984C375.724 4.264 375.544 4.676 375.472 5.22ZM383.613 9.144C383.069 9.144 382.593 9.008 382.185 8.736C381.785 8.464 381.477 8.08 381.261 7.584C381.053 7.08 380.949 6.488 380.949 5.808C380.949 5.128 381.057 4.54 381.273 4.044C381.489 3.54 381.797 3.152 382.197 2.88C382.597 2.608 383.069 2.472 383.613 2.472C384.053 2.472 384.445 2.564 384.789 2.748C385.133 2.932 385.393 3.188 385.569 3.516V0.48L386.841 0.48V9L385.653 9L385.617 8.04C385.441 8.384 385.173 8.656 384.813 8.856C384.461 9.048 384.061 9.144 383.613 9.144ZM383.949 8.04C384.293 8.04 384.585 7.952 384.825 7.776C385.065 7.6 385.249 7.344 385.377 7.008C385.505 6.672 385.569 6.272 385.569 5.808C385.569 5.328 385.505 4.924 385.377 4.596C385.249 4.26 385.065 4.008 384.825 3.84C384.585 3.664 384.293 3.576 383.949 3.576C383.437 3.576 383.029 3.776 382.725 4.176C382.421 4.568 382.269 5.112 382.269 5.808C382.269 6.496 382.421 7.04 382.725 7.44C383.029 7.84 383.437 8.04 383.949 8.04ZM391.696 9V0.48L392.992 0.48V9H391.696ZM394.848 9V0.48L398.028 0.48C399.004 0.48 399.764 0.716 400.308 1.188C400.852 1.652 401.124 2.3 401.124 3.132C401.124 3.684 401 4.164 400.752 4.572C400.504 4.972 400.148 5.28 399.684 5.496C399.228 5.704 398.676 5.808 398.028 5.808H396.144V9H394.848ZM396.144 4.632H397.992C398.576 4.632 399.02 4.508 399.324 4.26C399.628 4.004 399.78 3.628 399.78 3.132C399.78 2.644 399.628 2.28 399.324 2.04C399.02 1.792 398.576 1.668 397.992 1.668L396.144 1.668V4.632ZM340.141 25V16.48H340.957V25H340.141ZM343.001 25V16.48H345.989C346.925 16.48 347.653 16.708 348.173 17.164C348.701 17.612 348.965 18.232 348.965 19.024C348.965 19.544 348.845 19.996 348.605 20.38C348.373 20.764 348.033 21.06 347.585 21.268C347.145 21.468 346.613 21.568 345.989 21.568H343.817V25H343.001ZM343.817 20.776H345.989C346.685 20.776 347.209 20.628 347.561 20.332C347.921 20.036 348.101 19.6 348.101 19.024C348.101 18.448 347.921 18.012 347.561 17.716C347.209 17.42 346.685 17.272 345.989 17.272H343.817V20.776ZM352.449 25.144C351.897 25.144 351.425 25.056 351.033 24.88C350.649 24.696 350.349 24.444 350.133 24.124C349.917 23.804 349.793 23.444 349.761 23.044L350.589 22.984C350.637 23.408 350.813 23.748 351.117 24.004C351.429 24.26 351.873 24.388 352.449 24.388C352.953 24.388 353.345 24.304 353.625 24.136C353.905 23.968 354.045 23.708 354.045 23.356C354.045 23.164 354.001 23.004 353.913 22.876C353.833 22.74 353.665 22.624 353.409 22.528C353.153 22.424 352.769 22.328 352.257 22.24C351.657 22.128 351.189 21.996 350.853 21.844C350.517 21.684 350.281 21.488 350.145 21.256C350.009 21.016 349.941 20.732 349.941 20.404C349.941 19.836 350.145 19.376 350.553 19.024C350.961 18.672 351.529 18.496 352.257 18.496C352.753 18.496 353.173 18.588 353.517 18.772C353.869 18.956 354.145 19.2 354.345 19.504C354.545 19.8 354.677 20.128 354.741 20.488L353.913 20.56C353.865 20.312 353.773 20.092 353.637 19.9C353.501 19.7 353.317 19.544 353.085 19.432C352.853 19.312 352.573 19.252 352.245 19.252C351.765 19.252 351.397 19.356 351.141 19.564C350.893 19.764 350.769 20.032 350.769 20.368C350.769 20.6 350.821 20.792 350.925 20.944C351.029 21.088 351.201 21.208 351.441 21.304C351.681 21.392 352.013 21.472 352.437 21.544C353.069 21.648 353.561 21.78 353.913 21.94C354.273 22.092 354.525 22.284 354.669 22.516C354.813 22.74 354.885 23.016 354.885 23.344C354.885 23.728 354.781 24.056 354.573 24.328C354.365 24.592 354.077 24.796 353.709 24.94C353.349 25.076 352.929 25.144 352.449 25.144ZM359.416 25V18.64H360.1L360.148 20.38L360.04 20.32C360.144 19.752 360.332 19.332 360.604 19.06C360.876 18.78 361.252 18.64 361.732 18.64H362.284V19.408H361.708C361.388 19.408 361.116 19.48 360.892 19.624C360.668 19.76 360.496 19.956 360.376 20.212C360.264 20.468 360.208 20.772 360.208 21.124V25H359.416ZM365.753 25.144C365.177 25.144 364.673 25.008 364.241 24.736C363.817 24.464 363.489 24.08 363.257 23.584C363.025 23.08 362.909 22.492 362.909 21.82C362.909 21.14 363.025 20.552 363.257 20.056C363.489 19.56 363.817 19.176 364.241 18.904C364.673 18.632 365.177 18.496 365.753 18.496C366.329 18.496 366.829 18.632 367.253 18.904C367.677 19.176 368.005 19.56 368.237 20.056C368.469 20.552 368.585 21.14 368.585 21.82C368.585 22.492 368.469 23.08 368.237 23.584C368.005 24.08 367.677 24.464 367.253 24.736C366.829 25.008 366.329 25.144 365.753 25.144ZM365.753 24.388C366.377 24.388 366.865 24.16 367.217 23.704C367.577 23.24 367.757 22.612 367.757 21.82C367.757 21.028 367.577 20.404 367.217 19.948C366.865 19.484 366.377 19.252 365.753 19.252C365.129 19.252 364.637 19.484 364.277 19.948C363.917 20.404 363.737 21.028 363.737 21.82C363.737 22.612 363.917 23.24 364.277 23.704C364.637 24.16 365.129 24.388 365.753 24.388ZM371.948 25C371.428 25 371.044 24.88 370.796 24.64C370.548 24.392 370.424 24.016 370.424 23.512V17.152H371.216V23.488C371.216 23.784 371.28 23.992 371.408 24.112C371.544 24.232 371.748 24.292 372.02 24.292H372.86V25H371.948ZM369.428 19.348V18.64L372.86 18.64V19.348L369.428 19.348ZM375.838 25.144C375.198 25.144 374.686 24.992 374.302 24.688C373.918 24.376 373.726 23.956 373.726 23.428C373.726 22.9 373.894 22.484 374.23 22.18C374.566 21.876 375.058 21.664 375.706 21.544L378.058 21.1C378.058 20.468 377.922 20.004 377.65 19.708C377.378 19.404 376.966 19.252 376.414 19.252C375.926 19.252 375.538 19.368 375.25 19.6C374.962 19.832 374.77 20.16 374.674 20.584L373.834 20.512C373.954 19.896 374.234 19.408 374.674 19.048C375.122 18.68 375.702 18.496 376.414 18.496C377.206 18.496 377.81 18.72 378.226 19.168C378.642 19.616 378.85 20.256 378.85 21.088V23.74C378.85 23.956 378.882 24.104 378.946 24.184C379.018 24.256 379.13 24.292 379.282 24.292H379.474V25C379.442 25.008 379.394 25.012 379.33 25.012C379.274 25.02 379.214 25.024 379.15 25.024C378.902 25.024 378.694 24.98 378.526 24.892C378.366 24.804 378.246 24.66 378.166 24.46C378.094 24.26 378.058 23.984 378.058 23.632L378.154 23.644C378.082 23.924 377.934 24.18 377.71 24.412C377.494 24.636 377.222 24.816 376.894 24.952C376.566 25.08 376.214 25.144 375.838 25.144ZM375.91 24.436C376.35 24.436 376.73 24.348 377.05 24.172C377.37 23.996 377.618 23.76 377.794 23.464C377.97 23.16 378.058 22.82 378.058 22.444V21.808L375.874 22.216C375.418 22.304 375.082 22.44 374.866 22.624C374.658 22.808 374.554 23.052 374.554 23.356C374.554 23.7 374.674 23.968 374.914 24.16C375.154 24.344 375.486 24.436 375.91 24.436ZM382.53 25C382.01 25 381.626 24.88 381.378 24.64C381.13 24.392 381.006 24.016 381.006 23.512V17.152H381.798V23.488C381.798 23.784 381.862 23.992 381.99 24.112C382.126 24.232 382.33 24.292 382.602 24.292H383.442V25H382.53ZM380.01 19.348V18.64H383.442V19.348H380.01ZM384.787 25V18.64H385.579V25H384.787ZM384.763 17.584V16.516H385.603V17.584H384.763ZM389.824 25.144C389.248 25.144 388.744 25.008 388.312 24.736C387.888 24.464 387.56 24.08 387.328 23.584C387.096 23.08 386.98 22.492 386.98 21.82C386.98 21.14 387.096 20.552 387.328 20.056C387.56 19.56 387.888 19.176 388.312 18.904C388.744 18.632 389.248 18.496 389.824 18.496C390.4 18.496 390.9 18.632 391.324 18.904C391.748 19.176 392.076 19.56 392.308 20.056C392.54 20.552 392.656 21.14 392.656 21.82C392.656 22.492 392.54 23.08 392.308 23.584C392.076 24.08 391.748 24.464 391.324 24.736C390.9 25.008 390.4 25.144 389.824 25.144ZM389.824 24.388C390.448 24.388 390.936 24.16 391.288 23.704C391.648 23.24 391.828 22.612 391.828 21.82C391.828 21.028 391.648 20.404 391.288 19.948C390.936 19.484 390.448 19.252 389.824 19.252C389.2 19.252 388.708 19.484 388.348 19.948C387.988 20.404 387.808 21.028 387.808 21.82C387.808 22.612 387.988 23.24 388.348 23.704C388.708 24.16 389.2 24.388 389.824 24.388ZM394.08 25V18.64H394.8L394.836 20.308L394.74 20.236C394.804 19.844 394.936 19.52 395.136 19.264C395.344 19.008 395.596 18.816 395.892 18.688C396.188 18.56 396.508 18.496 396.852 18.496C397.34 18.496 397.74 18.604 398.052 18.82C398.372 19.036 398.608 19.328 398.76 19.696C398.912 20.056 398.988 20.46 398.988 20.908V25H398.196V21.196C398.196 20.78 398.144 20.424 398.04 20.128C397.944 19.832 397.784 19.604 397.56 19.444C397.336 19.284 397.044 19.204 396.684 19.204C396.14 19.204 395.7 19.38 395.364 19.732C395.036 20.084 394.872 20.572 394.872 21.196V25H394.08Z" fill="#2E2E2E"/>
<path d="M322.427 428V419.48H325.607C326.583 419.48 327.343 419.716 327.887 420.188C328.431 420.652 328.703 421.3 328.703 422.132C328.703 422.684 328.579 423.164 328.331 423.572C328.083 423.972 327.727 424.28 327.263 424.496C326.807 424.704 326.255 424.808 325.607 424.808H323.723V428H322.427ZM323.723 423.632H325.571C326.155 423.632 326.599 423.508 326.903 423.26C327.207 423.004 327.359 422.628 327.359 422.132C327.359 421.644 327.207 421.28 326.903 421.04C326.599 420.792 326.155 420.668 325.571 420.668H323.723V423.632ZM330.076 428V421.616H331.24L331.288 423.308L331.18 423.272C331.268 422.696 331.444 422.276 331.708 422.012C331.98 421.748 332.344 421.616 332.8 421.616H333.412V422.756H332.8C332.48 422.756 332.212 422.808 331.996 422.912C331.78 423.016 331.616 423.176 331.504 423.392C331.4 423.608 331.348 423.888 331.348 424.232V428H330.076ZM336.946 428.144C336.338 428.144 335.806 428.008 335.35 427.736C334.894 427.464 334.542 427.076 334.294 426.572C334.046 426.068 333.922 425.48 333.922 424.808C333.922 424.128 334.046 423.54 334.294 423.044C334.542 422.548 334.894 422.164 335.35 421.892C335.806 421.612 336.338 421.472 336.946 421.472C337.554 421.472 338.086 421.612 338.542 421.892C338.998 422.164 339.35 422.548 339.598 423.044C339.846 423.54 339.97 424.128 339.97 424.808C339.97 425.48 339.846 426.068 339.598 426.572C339.35 427.076 338.998 427.464 338.542 427.736C338.086 428.008 337.554 428.144 336.946 428.144ZM336.946 427.04C337.49 427.04 337.91 426.844 338.206 426.452C338.502 426.052 338.65 425.504 338.65 424.808C338.65 424.112 338.502 423.568 338.206 423.176C337.91 422.776 337.49 422.576 336.946 422.576C336.41 422.576 335.99 422.776 335.686 423.176C335.39 423.568 335.242 424.112 335.242 424.808C335.242 425.504 335.39 426.052 335.686 426.452C335.99 426.844 336.41 427.04 336.946 427.04ZM342.748 428L340.42 421.616H341.776L343.516 426.704L345.256 421.616H346.624L344.284 428H342.748ZM347.654 428V421.616H348.926V428H347.654ZM347.63 420.692V419.42H348.95V420.692H347.63ZM352.875 428.144C352.331 428.144 351.855 428.008 351.447 427.736C351.047 427.464 350.739 427.08 350.523 426.584C350.315 426.08 350.211 425.488 350.211 424.808C350.211 424.128 350.319 423.54 350.535 423.044C350.751 422.54 351.059 422.152 351.459 421.88C351.859 421.608 352.331 421.472 352.875 421.472C353.315 421.472 353.707 421.564 354.051 421.748C354.395 421.932 354.655 422.188 354.831 422.516V419.48H356.103V428H354.915L354.879 427.04C354.703 427.384 354.435 427.656 354.075 427.856C353.723 428.048 353.323 428.144 352.875 428.144ZM353.211 427.04C353.555 427.04 353.847 426.952 354.087 426.776C354.327 426.6 354.511 426.344 354.639 426.008C354.767 425.672 354.831 425.272 354.831 424.808C354.831 424.328 354.767 423.924 354.639 423.596C354.511 423.26 354.327 423.008 354.087 422.84C353.847 422.664 353.555 422.576 353.211 422.576C352.699 422.576 352.291 422.776 351.987 423.176C351.683 423.568 351.531 424.112 351.531 424.808C351.531 425.496 351.683 426.04 351.987 426.44C352.291 426.84 352.699 427.04 353.211 427.04ZM357.697 428V421.616H358.969V428H357.697ZM357.673 420.692V419.42H358.993V420.692H357.673ZM360.873 428V421.616H362.037L362.085 423.32L361.929 423.236C362.001 422.82 362.137 422.484 362.337 422.228C362.537 421.972 362.781 421.784 363.069 421.664C363.357 421.536 363.669 421.472 364.005 421.472C364.485 421.472 364.881 421.58 365.193 421.796C365.513 422.004 365.753 422.292 365.913 422.66C366.081 423.02 366.165 423.432 366.165 423.896V428H364.893V424.28C364.893 423.904 364.853 423.588 364.773 423.332C364.693 423.076 364.561 422.88 364.377 422.744C364.193 422.608 363.953 422.54 363.657 422.54C363.209 422.54 362.845 422.688 362.565 422.984C362.285 423.28 362.145 423.712 362.145 424.28V428H360.873ZM370.39 429.944C369.886 429.944 369.442 429.868 369.058 429.716C368.674 429.564 368.358 429.348 368.11 429.068C367.862 428.796 367.694 428.476 367.606 428.108L368.926 428.024C369.014 428.288 369.166 428.496 369.382 428.648C369.606 428.808 369.942 428.888 370.39 428.888C370.918 428.888 371.322 428.776 371.602 428.552C371.89 428.328 372.034 427.988 372.034 427.532V426.608C371.882 426.936 371.638 427.196 371.302 427.388C370.966 427.58 370.59 427.676 370.174 427.676C369.638 427.676 369.162 427.544 368.746 427.28C368.33 427.016 368.006 426.652 367.774 426.188C367.542 425.724 367.426 425.188 367.426 424.58C367.426 423.964 367.538 423.424 367.762 422.96C367.994 422.496 368.314 422.132 368.722 421.868C369.138 421.604 369.606 421.472 370.126 421.472C370.582 421.472 370.982 421.576 371.326 421.784C371.678 421.992 371.93 422.272 372.082 422.624V421.616H373.306V427.496C373.306 428.024 373.186 428.468 372.946 428.828C372.714 429.196 372.378 429.472 371.938 429.656C371.506 429.848 370.99 429.944 370.39 429.944ZM370.378 426.596C370.874 426.596 371.27 426.416 371.566 426.056C371.87 425.696 372.026 425.2 372.034 424.568C372.042 424.152 371.978 423.796 371.842 423.5C371.706 423.196 371.51 422.964 371.254 422.804C371.006 422.636 370.714 422.552 370.378 422.552C369.858 422.552 369.454 422.736 369.166 423.104C368.886 423.464 368.746 423.952 368.746 424.568C368.746 425.192 368.89 425.688 369.178 426.056C369.474 426.416 369.874 426.596 370.378 426.596ZM378.163 428V419.48H381.283C381.891 419.48 382.407 419.584 382.831 419.792C383.263 419.992 383.595 420.28 383.827 420.656C384.059 421.032 384.175 421.484 384.175 422.012C384.175 422.404 384.083 422.752 383.899 423.056C383.723 423.36 383.487 423.604 383.191 423.788C382.895 423.972 382.575 424.076 382.231 424.1L382.171 423.992C382.731 423.992 383.163 424.12 383.467 424.376C383.779 424.624 383.959 425.016 384.007 425.552L384.223 428H383.395L383.191 425.624C383.159 425.232 383.019 424.944 382.771 424.76C382.523 424.568 382.123 424.472 381.571 424.472H378.979V428H378.163ZM378.979 423.68H381.415C381.999 423.68 382.459 423.536 382.795 423.248C383.139 422.952 383.311 422.536 383.311 422C383.311 421.44 383.139 421.012 382.795 420.716C382.451 420.42 381.943 420.272 381.271 420.272H378.979V423.68ZM388.248 428.144C387.64 428.144 387.124 428.004 386.7 427.724C386.276 427.436 385.948 427.044 385.716 426.548C385.492 426.044 385.38 425.468 385.38 424.82C385.38 424.172 385.492 423.6 385.716 423.104C385.94 422.6 386.26 422.208 386.676 421.928C387.1 421.64 387.608 421.496 388.2 421.496C388.768 421.496 389.26 421.632 389.676 421.904C390.092 422.176 390.408 422.56 390.624 423.056C390.848 423.552 390.96 424.132 390.96 424.796V425.048H386.208C386.24 425.8 386.436 426.38 386.796 426.788C387.156 427.188 387.64 427.388 388.248 427.388C388.712 427.388 389.092 427.276 389.388 427.052C389.684 426.828 389.888 426.532 390 426.164L390.852 426.224C390.692 426.784 390.384 427.244 389.928 427.604C389.472 427.964 388.912 428.144 388.248 428.144ZM386.208 424.34H390.096C390.056 423.66 389.868 423.144 389.532 422.792C389.196 422.432 388.752 422.252 388.2 422.252C387.648 422.252 387.196 422.432 386.844 422.792C386.492 423.152 386.28 423.668 386.208 424.34ZM394.631 428.144C394.079 428.144 393.607 428.056 393.215 427.88C392.831 427.696 392.531 427.444 392.315 427.124C392.099 426.804 391.975 426.444 391.943 426.044L392.771 425.984C392.819 426.408 392.995 426.748 393.299 427.004C393.611 427.26 394.055 427.388 394.631 427.388C395.135 427.388 395.527 427.304 395.807 427.136C396.087 426.968 396.227 426.708 396.227 426.356C396.227 426.164 396.183 426.004 396.095 425.876C396.015 425.74 395.847 425.624 395.591 425.528C395.335 425.424 394.951 425.328 394.439 425.24C393.839 425.128 393.371 424.996 393.035 424.844C392.699 424.684 392.463 424.488 392.327 424.256C392.191 424.016 392.123 423.732 392.123 423.404C392.123 422.836 392.327 422.376 392.735 422.024C393.143 421.672 393.711 421.496 394.439 421.496C394.935 421.496 395.355 421.588 395.699 421.772C396.051 421.956 396.327 422.2 396.527 422.504C396.727 422.8 396.859 423.128 396.923 423.488L396.095 423.56C396.047 423.312 395.955 423.092 395.819 422.9C395.683 422.7 395.499 422.544 395.267 422.432C395.035 422.312 394.755 422.252 394.427 422.252C393.947 422.252 393.579 422.356 393.323 422.564C393.075 422.764 392.951 423.032 392.951 423.368C392.951 423.6 393.003 423.792 393.107 423.944C393.211 424.088 393.383 424.208 393.623 424.304C393.863 424.392 394.195 424.472 394.619 424.544C395.251 424.648 395.743 424.78 396.095 424.94C396.455 425.092 396.707 425.284 396.851 425.516C396.995 425.74 397.067 426.016 397.067 426.344C397.067 426.728 396.963 427.056 396.755 427.328C396.547 427.592 396.259 427.796 395.891 427.94C395.531 428.076 395.111 428.144 394.631 428.144ZM400.568 428.144C399.936 428.144 399.428 427.932 399.044 427.508C398.668 427.076 398.48 426.484 398.48 425.732V421.64H399.272V425.492C399.272 426.148 399.396 426.636 399.644 426.956C399.9 427.276 400.276 427.436 400.772 427.436C401.324 427.436 401.756 427.256 402.068 426.896C402.388 426.536 402.548 426.048 402.548 425.432V421.64H403.34V428H402.596L402.584 426.368L402.704 426.428C402.6 426.972 402.36 427.396 401.984 427.7C401.616 427.996 401.144 428.144 400.568 428.144ZM406.476 428C406.116 428 405.832 427.912 405.624 427.736C405.416 427.552 405.312 427.268 405.312 426.884V419.48H406.104V426.824C406.104 426.976 406.144 427.092 406.224 427.172C406.304 427.252 406.424 427.292 406.584 427.292H407.088V428H406.476ZM410.204 428C409.684 428 409.3 427.88 409.052 427.64C408.804 427.392 408.68 427.016 408.68 426.512V420.152H409.472V426.488C409.472 426.784 409.536 426.992 409.664 427.112C409.8 427.232 410.004 427.292 410.276 427.292H411.116V428H410.204ZM407.684 422.348V421.64H411.116V422.348H407.684ZM414.623 428.144C414.071 428.144 413.599 428.056 413.207 427.88C412.823 427.696 412.523 427.444 412.307 427.124C412.091 426.804 411.967 426.444 411.935 426.044L412.763 425.984C412.811 426.408 412.987 426.748 413.291 427.004C413.603 427.26 414.047 427.388 414.623 427.388C415.127 427.388 415.519 427.304 415.799 427.136C416.079 426.968 416.219 426.708 416.219 426.356C416.219 426.164 416.175 426.004 416.087 425.876C416.007 425.74 415.839 425.624 415.583 425.528C415.327 425.424 414.943 425.328 414.431 425.24C413.831 425.128 413.363 424.996 413.027 424.844C412.691 424.684 412.455 424.488 412.319 424.256C412.183 424.016 412.115 423.732 412.115 423.404C412.115 422.836 412.319 422.376 412.727 422.024C413.135 421.672 413.703 421.496 414.431 421.496C414.927 421.496 415.347 421.588 415.691 421.772C416.043 421.956 416.319 422.2 416.519 422.504C416.719 422.8 416.851 423.128 416.915 423.488L416.087 423.56C416.039 423.312 415.947 423.092 415.811 422.9C415.675 422.7 415.491 422.544 415.259 422.432C415.027 422.312 414.747 422.252 414.419 422.252C413.939 422.252 413.571 422.356 413.315 422.564C413.067 422.764 412.943 423.032 412.943 423.368C412.943 423.6 412.995 423.792 413.099 423.944C413.203 424.088 413.375 424.208 413.615 424.304C413.855 424.392 414.187 424.472 414.611 424.544C415.243 424.648 415.735 424.78 416.087 424.94C416.447 425.092 416.699 425.284 416.843 425.516C416.987 425.74 417.059 426.016 417.059 426.344C417.059 426.728 416.955 427.056 416.747 427.328C416.539 427.592 416.251 427.796 415.883 427.94C415.523 428.076 415.103 428.144 414.623 428.144Z" fill="#2E2E2E"/>
<path d="M62.4265 345V336.48H65.6065C66.5825 336.48 67.3425 336.716 67.8865 337.188C68.4305 337.652 68.7025 338.3 68.7025 339.132C68.7025 339.684 68.5785 340.164 68.3305 340.572C68.0825 340.972 67.7265 341.28 67.2625 341.496C66.8065 341.704 66.2545 341.808 65.6065 341.808H63.7225V345H62.4265ZM63.7225 340.632H65.5705C66.1545 340.632 66.5985 340.508 66.9025 340.26C67.2065 340.004 67.3585 339.628 67.3585 339.132C67.3585 338.644 67.2065 338.28 66.9025 338.04C66.5985 337.792 66.1545 337.668 65.5705 337.668H63.7225V340.632ZM70.0758 345V338.616H71.2398L71.2878 340.308L71.1798 340.272C71.2678 339.696 71.4438 339.276 71.7078 339.012C71.9798 338.748 72.3438 338.616 72.7998 338.616H73.4118V339.756H72.7998C72.4798 339.756 72.2118 339.808 71.9958 339.912C71.7798 340.016 71.6158 340.176 71.5038 340.392C71.3998 340.608 71.3478 340.888 71.3478 341.232V345H70.0758ZM76.946 345.144C76.338 345.144 75.806 345.008 75.35 344.736C74.894 344.464 74.542 344.076 74.294 343.572C74.046 343.068 73.922 342.48 73.922 341.808C73.922 341.128 74.046 340.54 74.294 340.044C74.542 339.548 74.894 339.164 75.35 338.892C75.806 338.612 76.338 338.472 76.946 338.472C77.554 338.472 78.086 338.612 78.542 338.892C78.998 339.164 79.35 339.548 79.598 340.044C79.846 340.54 79.97 341.128 79.97 341.808C79.97 342.48 79.846 343.068 79.598 343.572C79.35 344.076 78.998 344.464 78.542 344.736C78.086 345.008 77.554 345.144 76.946 345.144ZM76.946 344.04C77.49 344.04 77.91 343.844 78.206 343.452C78.502 343.052 78.65 342.504 78.65 341.808C78.65 341.112 78.502 340.568 78.206 340.176C77.91 339.776 77.49 339.576 76.946 339.576C76.41 339.576 75.99 339.776 75.686 340.176C75.39 340.568 75.242 341.112 75.242 341.808C75.242 342.504 75.39 343.052 75.686 343.452C75.99 343.844 76.41 344.04 76.946 344.04ZM82.7483 345L80.4203 338.616H81.7763L83.5163 343.704L85.2563 338.616H86.6243L84.2843 345H82.7483ZM87.6539 345V338.616H88.9259V345H87.6539ZM87.6299 337.692V336.42H88.9499V337.692H87.6299ZM92.875 345.144C92.331 345.144 91.855 345.008 91.447 344.736C91.047 344.464 90.739 344.08 90.523 343.584C90.315 343.08 90.211 342.488 90.211 341.808C90.211 341.128 90.319 340.54 90.535 340.044C90.751 339.54 91.059 339.152 91.459 338.88C91.859 338.608 92.331 338.472 92.875 338.472C93.315 338.472 93.707 338.564 94.051 338.748C94.395 338.932 94.655 339.188 94.831 339.516V336.48H96.103V345H94.915L94.879 344.04C94.703 344.384 94.435 344.656 94.075 344.856C93.723 345.048 93.323 345.144 92.875 345.144ZM93.211 344.04C93.555 344.04 93.847 343.952 94.087 343.776C94.327 343.6 94.511 343.344 94.639 343.008C94.767 342.672 94.831 342.272 94.831 341.808C94.831 341.328 94.767 340.924 94.639 340.596C94.511 340.26 94.327 340.008 94.087 339.84C93.847 339.664 93.555 339.576 93.211 339.576C92.699 339.576 92.291 339.776 91.987 340.176C91.683 340.568 91.531 341.112 91.531 341.808C91.531 342.496 91.683 343.04 91.987 343.44C92.291 343.84 92.699 344.04 93.211 344.04ZM97.6969 345V338.616H98.9689V345H97.6969ZM97.6729 337.692V336.42H98.9929V337.692H97.6729ZM100.873 345V338.616H102.037L102.085 340.32L101.929 340.236C102.001 339.82 102.137 339.484 102.337 339.228C102.537 338.972 102.781 338.784 103.069 338.664C103.357 338.536 103.669 338.472 104.005 338.472C104.485 338.472 104.881 338.58 105.193 338.796C105.513 339.004 105.753 339.292 105.913 339.66C106.081 340.02 106.165 340.432 106.165 340.896V345H104.893V341.28C104.893 340.904 104.853 340.588 104.773 340.332C104.693 340.076 104.561 339.88 104.377 339.744C104.193 339.608 103.953 339.54 103.657 339.54C103.209 339.54 102.845 339.688 102.565 339.984C102.285 340.28 102.145 340.712 102.145 341.28V345H100.873ZM110.39 346.944C109.886 346.944 109.442 346.868 109.058 346.716C108.674 346.564 108.358 346.348 108.11 346.068C107.862 345.796 107.694 345.476 107.606 345.108L108.926 345.024C109.014 345.288 109.166 345.496 109.382 345.648C109.606 345.808 109.942 345.888 110.39 345.888C110.918 345.888 111.322 345.776 111.602 345.552C111.89 345.328 112.034 344.988 112.034 344.532V343.608C111.882 343.936 111.638 344.196 111.302 344.388C110.966 344.58 110.59 344.676 110.174 344.676C109.638 344.676 109.162 344.544 108.746 344.28C108.33 344.016 108.006 343.652 107.774 343.188C107.542 342.724 107.426 342.188 107.426 341.58C107.426 340.964 107.538 340.424 107.762 339.96C107.994 339.496 108.314 339.132 108.722 338.868C109.138 338.604 109.606 338.472 110.126 338.472C110.582 338.472 110.982 338.576 111.326 338.784C111.678 338.992 111.93 339.272 112.082 339.624V338.616H113.306V344.496C113.306 345.024 113.186 345.468 112.946 345.828C112.714 346.196 112.378 346.472 111.938 346.656C111.506 346.848 110.99 346.944 110.39 346.944ZM110.378 343.596C110.874 343.596 111.27 343.416 111.566 343.056C111.87 342.696 112.026 342.2 112.034 341.568C112.042 341.152 111.978 340.796 111.842 340.5C111.706 340.196 111.51 339.964 111.254 339.804C111.006 339.636 110.714 339.552 110.378 339.552C109.858 339.552 109.454 339.736 109.166 340.104C108.886 340.464 108.746 340.952 108.746 341.568C108.746 342.192 108.89 342.688 109.178 343.056C109.474 343.416 109.874 343.596 110.378 343.596ZM118.163 345V336.48H121.283C121.891 336.48 122.407 336.584 122.831 336.792C123.263 336.992 123.595 337.28 123.827 337.656C124.059 338.032 124.175 338.484 124.175 339.012C124.175 339.404 124.083 339.752 123.899 340.056C123.723 340.36 123.487 340.604 123.191 340.788C122.895 340.972 122.575 341.076 122.231 341.1L122.171 340.992C122.731 340.992 123.163 341.12 123.467 341.376C123.779 341.624 123.959 342.016 124.007 342.552L124.223 345H123.395L123.191 342.624C123.159 342.232 123.019 341.944 122.771 341.76C122.523 341.568 122.123 341.472 121.571 341.472H118.979V345H118.163ZM118.979 340.68H121.415C121.999 340.68 122.459 340.536 122.795 340.248C123.139 339.952 123.311 339.536 123.311 339C123.311 338.44 123.139 338.012 122.795 337.716C122.451 337.42 121.943 337.272 121.271 337.272H118.979V340.68ZM128.248 345.144C127.64 345.144 127.124 345.004 126.7 344.724C126.276 344.436 125.948 344.044 125.716 343.548C125.492 343.044 125.38 342.468 125.38 341.82C125.38 341.172 125.492 340.6 125.716 340.104C125.94 339.6 126.26 339.208 126.676 338.928C127.1 338.64 127.608 338.496 128.2 338.496C128.768 338.496 129.26 338.632 129.676 338.904C130.092 339.176 130.408 339.56 130.624 340.056C130.848 340.552 130.96 341.132 130.96 341.796V342.048H126.208C126.24 342.8 126.436 343.38 126.796 343.788C127.156 344.188 127.64 344.388 128.248 344.388C128.712 344.388 129.092 344.276 129.388 344.052C129.684 343.828 129.888 343.532 130 343.164L130.852 343.224C130.692 343.784 130.384 344.244 129.928 344.604C129.472 344.964 128.912 345.144 128.248 345.144ZM126.208 341.34H130.096C130.056 340.66 129.868 340.144 129.532 339.792C129.196 339.432 128.752 339.252 128.2 339.252C127.648 339.252 127.196 339.432 126.844 339.792C126.492 340.152 126.28 340.668 126.208 341.34ZM134.631 345.144C134.079 345.144 133.607 345.056 133.215 344.88C132.831 344.696 132.531 344.444 132.315 344.124C132.099 343.804 131.975 343.444 131.943 343.044L132.771 342.984C132.819 343.408 132.995 343.748 133.299 344.004C133.611 344.26 134.055 344.388 134.631 344.388C135.135 344.388 135.527 344.304 135.807 344.136C136.087 343.968 136.227 343.708 136.227 343.356C136.227 343.164 136.183 343.004 136.095 342.876C136.015 342.74 135.847 342.624 135.591 342.528C135.335 342.424 134.951 342.328 134.439 342.24C133.839 342.128 133.371 341.996 133.035 341.844C132.699 341.684 132.463 341.488 132.327 341.256C132.191 341.016 132.123 340.732 132.123 340.404C132.123 339.836 132.327 339.376 132.735 339.024C133.143 338.672 133.711 338.496 134.439 338.496C134.935 338.496 135.355 338.588 135.699 338.772C136.051 338.956 136.327 339.2 136.527 339.504C136.727 339.8 136.859 340.128 136.923 340.488L136.095 340.56C136.047 340.312 135.955 340.092 135.819 339.9C135.683 339.7 135.499 339.544 135.267 339.432C135.035 339.312 134.755 339.252 134.427 339.252C133.947 339.252 133.579 339.356 133.323 339.564C133.075 339.764 132.951 340.032 132.951 340.368C132.951 340.6 133.003 340.792 133.107 340.944C133.211 341.088 133.383 341.208 133.623 341.304C133.863 341.392 134.195 341.472 134.619 341.544C135.251 341.648 135.743 341.78 136.095 341.94C136.455 342.092 136.707 342.284 136.851 342.516C136.995 342.74 137.067 343.016 137.067 343.344C137.067 343.728 136.963 344.056 136.755 344.328C136.547 344.592 136.259 344.796 135.891 344.94C135.531 345.076 135.111 345.144 134.631 345.144ZM140.568 345.144C139.936 345.144 139.428 344.932 139.044 344.508C138.668 344.076 138.48 343.484 138.48 342.732V338.64H139.272V342.492C139.272 343.148 139.396 343.636 139.644 343.956C139.9 344.276 140.276 344.436 140.772 344.436C141.324 344.436 141.756 344.256 142.068 343.896C142.388 343.536 142.548 343.048 142.548 342.432V338.64H143.34V345H142.596L142.584 343.368L142.704 343.428C142.6 343.972 142.36 344.396 141.984 344.7C141.616 344.996 141.144 345.144 140.568 345.144ZM146.476 345C146.116 345 145.832 344.912 145.624 344.736C145.416 344.552 145.312 344.268 145.312 343.884V336.48H146.104V343.824C146.104 343.976 146.144 344.092 146.224 344.172C146.304 344.252 146.424 344.292 146.584 344.292H147.088V345H146.476ZM150.204 345C149.684 345 149.3 344.88 149.052 344.64C148.804 344.392 148.68 344.016 148.68 343.512V337.152H149.472V343.488C149.472 343.784 149.536 343.992 149.664 344.112C149.8 344.232 150.004 344.292 150.276 344.292H151.116V345H150.204ZM147.684 339.348V338.64H151.116V339.348H147.684ZM154.623 345.144C154.071 345.144 153.599 345.056 153.207 344.88C152.823 344.696 152.523 344.444 152.307 344.124C152.091 343.804 151.967 343.444 151.935 343.044L152.763 342.984C152.811 343.408 152.987 343.748 153.291 344.004C153.603 344.26 154.047 344.388 154.623 344.388C155.127 344.388 155.519 344.304 155.799 344.136C156.079 343.968 156.219 343.708 156.219 343.356C156.219 343.164 156.175 343.004 156.087 342.876C156.007 342.74 155.839 342.624 155.583 342.528C155.327 342.424 154.943 342.328 154.431 342.24C153.831 342.128 153.363 341.996 153.027 341.844C152.691 341.684 152.455 341.488 152.319 341.256C152.183 341.016 152.115 340.732 152.115 340.404C152.115 339.836 152.319 339.376 152.727 339.024C153.135 338.672 153.703 338.496 154.431 338.496C154.927 338.496 155.347 338.588 155.691 338.772C156.043 338.956 156.319 339.2 156.519 339.504C156.719 339.8 156.851 340.128 156.915 340.488L156.087 340.56C156.039 340.312 155.947 340.092 155.811 339.9C155.675 339.7 155.491 339.544 155.259 339.432C155.027 339.312 154.747 339.252 154.419 339.252C153.939 339.252 153.571 339.356 153.315 339.564C153.067 339.764 152.943 340.032 152.943 340.368C152.943 340.6 152.995 340.792 153.099 340.944C153.203 341.088 153.375 341.208 153.615 341.304C153.855 341.392 154.187 341.472 154.611 341.544C155.243 341.648 155.735 341.78 156.087 341.94C156.447 342.092 156.699 342.284 156.843 342.516C156.987 342.74 157.059 343.016 157.059 343.344C157.059 343.728 156.955 344.056 156.747 344.328C156.539 344.592 156.251 344.796 155.883 344.94C155.523 345.076 155.103 345.144 154.623 345.144Z" fill="#2E2E2E"/>
<path d="M306 71.0132L313.136 75.965L306 80.3872L306 71L306 71.0132Z" fill="#F9D94A"/>
<path d="M306 317.013L313.136 321.965L306 326.387L306 317L306 317.013Z" fill="#F9D94A"/>
<path d="M306.33 195.013L313.466 199.965L306.33 204.387L306.33 195L306.33 195.013Z" fill="#F9D94A"/>
<path d="M493 195.013L500.136 199.965L493 204.387L493 195L493 195.013Z" fill="#F9D94A"/>
<path d="M552.692 199.413C549.572 199.633 549.572 204.173 552.692 204.393" stroke="#2E2E2E" stroke-miterlimit="10" stroke-linecap="round" stroke-linejoin="round"/>
<path d="M552.725 199.413C550.585 193.46 559.612 191.08 560.645 197.333C563.532 197.7 564.699 201.546 562.512 203.46" stroke="#2E2E2E" stroke-miterlimit="10" stroke-linecap="round" stroke-linejoin="round"/>
<path d="M561 202.667C561 203.16 560.893 203.627 560.693 204.04C560.64 204.16 560.58 204.273 560.513 204.38C559.94 205.347 558.88 206 557.666 206C556.453 206 555.393 205.347 554.82 204.38C554.753 204.273 554.693 204.16 554.64 204.04C554.44 203.627 554.333 203.16 554.333 202.667C554.333 200.827 555.826 199.333 557.666 199.333C559.506 199.333 561 200.827 561 202.667Z" stroke="#2E2E2E" stroke-miterlimit="10" stroke-linecap="round" stroke-linejoin="round"/>
<path d="M560.334 205.333L562.333 207.333" stroke="#2E2E2E" stroke-linecap="round" stroke-linejoin="round"/>
<path d="M182 257L182 382C182 389.18 187.82 395 195 395L505 395L544.125 394.624C551.256 394.555 557 388.755 557 381.624L557 254.5" stroke="#E0E0E0"/>
<path d="M46 257.5L46 306.5C46 313.68 51.8203 319.5 59 319.5L116 319.5L155.125 319.124C162.256 319.055 168 313.255 168 306.124L168 254.5" stroke="#E0E0E0"/>
<path d="M557.105 256.21C558.268 256.21 559.21 255.268 559.21 254.105C559.21 252.943 558.268 252 557.105 252C555.943 252 555 252.943 555 254.105C555 255.268 555.943 256.21 557.105 256.21Z" fill="white" stroke="#E0E0E0" stroke-width="0.953282" stroke-miterlimit="10"/>
<path d="M168.105 256.21C169.268 256.21 170.21 255.268 170.21 254.105C170.21 252.943 169.268 252 168.105 252C166.943 252 166 252.943 166 254.105C166 255.268 166.943 256.21 168.105 256.21Z" fill="white" stroke="#E0E0E0" stroke-width="0.953282" stroke-miterlimit="10"/>
<path d="M177.013 259.136L181.965 252L186.387 259.136L177 259.136L177.013 259.136Z" fill="#F9D94A"/>
<path d="M41.0128 259.136L45.9646 252L50.3867 259.136L40.9995 259.136L41.0128 259.136Z" fill="#F9D94A"/>
<path d="M364.354 255V246.48H365.17V255H364.354ZM367.214 255V246.48H370.202C371.138 246.48 371.866 246.708 372.386 247.164C372.914 247.612 373.178 248.232 373.178 249.024C373.178 249.544 373.058 249.996 372.818 250.38C372.586 250.764 372.246 251.06 371.798 251.268C371.358 251.468 370.826 251.568 370.202 251.568H368.03V255H367.214ZM368.03 250.776H370.202C370.898 250.776 371.422 250.628 371.774 250.332C372.134 250.036 372.314 249.6 372.314 249.024C372.314 248.448 372.134 248.012 371.774 247.716C371.422 247.42 370.898 247.272 370.202 247.272H368.03V250.776Z" fill="#2E2E2E"/>
<g filter="url(#filter0_d_18_10897)">
<rect x="333" y="164" width="72" height="72" rx="20" fill="#F9F9F9"/>
<rect x="333" y="164" width="72" height="72" rx="20" stroke="#E0E0E0" stroke-miterlimit="10"/>
</g>
<path d="M375.666 200C375.666 203.68 372.68 206.667 369 206.667C365.32 206.667 363.073 202.96 363.073 202.96M363.073 202.96H366.086M363.073 202.96V206.293M362.333 200C362.333 196.32 365.293 193.333 369 193.333C373.446 193.333 375.666 197.04 375.666 197.04M375.666 197.04V193.707M375.666 197.04H372.706" stroke="#2E2E2E" stroke-linecap="round" stroke-linejoin="round"/>
<path d="M366.572 202.333V197.6H367.439V202.333H366.572ZM368.401 202.333V197.6H370.235C370.79 197.6 371.224 197.733 371.535 198C371.846 198.267 372.001 198.636 372.001 199.107C372.001 199.422 371.93 199.696 371.788 199.927C371.646 200.153 371.444 200.327 371.181 200.447C370.919 200.567 370.604 200.627 370.235 200.627H369.268V202.333H368.401ZM369.268 199.873H370.195C370.488 199.873 370.713 199.809 370.868 199.68C371.028 199.551 371.108 199.36 371.108 199.107C371.108 198.858 371.028 198.671 370.868 198.547C370.713 198.418 370.488 198.353 370.195 198.353H369.268V199.873Z" fill="#2E2E2E"/>
<path d="M364.354 377V368.48H365.17V377H364.354ZM367.214 377V368.48H370.202C371.138 368.48 371.866 368.708 372.386 369.164C372.914 369.612 373.178 370.232 373.178 371.024C373.178 371.544 373.058 371.996 372.818 372.38C372.586 372.764 372.246 373.06 371.798 373.268C371.358 373.468 370.826 373.568 370.202 373.568H368.03V377H367.214ZM368.03 372.776H370.202C370.898 372.776 371.422 372.628 371.774 372.332C372.134 372.036 372.314 371.6 372.314 371.024C372.314 370.448 372.134 370.012 371.774 369.716C371.422 369.42 370.898 369.272 370.202 369.272H368.03V372.776Z" fill="#2E2E2E"/>
<g filter="url(#filter1_d_18_10897)">
<rect x="333" y="286" width="72" height="72" rx="20" fill="#F9F9F9"/>
<rect x="333" y="286" width="72" height="72" rx="20" stroke="#E0E0E0" stroke-miterlimit="10"/>
</g>
<path d="M375.666 322C375.666 325.68 372.68 328.667 369 328.667C365.32 328.667 363.073 324.96 363.073 324.96M363.073 324.96H366.086M363.073 324.96V328.293M362.333 322C362.333 318.32 365.293 315.333 369 315.333C373.446 315.333 375.666 319.04 375.666 319.04M375.666 319.04V315.707M375.666 319.04H372.706" stroke="#2E2E2E" stroke-linecap="round" stroke-linejoin="round"/>
<path d="M366.572 324.333V319.6H367.439V324.333H366.572ZM368.401 324.333V319.6H370.235C370.79 319.6 371.224 319.733 371.535 320C371.846 320.267 372.001 320.635 372.001 321.107C372.001 321.422 371.93 321.695 371.788 321.927C371.646 322.153 371.444 322.327 371.181 322.447C370.919 322.567 370.604 322.627 370.235 322.627H369.268V324.333H368.401ZM369.268 321.873H370.195C370.488 321.873 370.713 321.809 370.868 321.68C371.028 321.551 371.108 321.36 371.108 321.107C371.108 320.858 371.028 320.671 370.868 320.547C370.713 320.418 370.488 320.353 370.195 320.353H369.268V321.873Z" fill="#2E2E2E"/>
<path d="M364.354 132V123.48H365.17V132H364.354ZM367.214 132V123.48H370.202C371.138 123.48 371.866 123.708 372.386 124.164C372.914 124.612 373.178 125.232 373.178 126.024C373.178 126.544 373.058 126.996 372.818 127.38C372.586 127.764 372.246 128.06 371.798 128.268C371.358 128.468 370.826 128.568 370.202 128.568H368.03V132H367.214ZM368.03 127.776H370.202C370.898 127.776 371.422 127.628 371.774 127.332C372.134 127.036 372.314 126.6 372.314 126.024C372.314 125.448 372.134 125.012 371.774 124.716C371.422 124.42 370.898 124.272 370.202 124.272H368.03V127.776Z" fill="#2E2E2E"/>
<g filter="url(#filter2_d_18_10897)">
<rect x="333" y="41" width="72" height="72" rx="20" fill="#F9F9F9"/>
<rect x="333" y="41" width="72" height="72" rx="20" stroke="#E0E0E0" stroke-miterlimit="10"/>
</g>
<path d="M375.666 77C375.666 80.68 372.68 83.6667 369 83.6667C365.32 83.6667 363.073 79.96 363.073 79.96M363.073 79.96H366.086M363.073 79.96V83.2934M362.333 77C362.333 73.32 365.293 70.3334 369 70.3334C373.446 70.3334 375.666 74.04 375.666 74.04M375.666 74.04V70.7067M375.666 74.04H372.706" stroke="#2E2E2E" stroke-linecap="round" stroke-linejoin="round"/>
<path d="M366.572 79.3334V74.6H367.439V79.3334H366.572ZM368.401 79.3334V74.6H370.235C370.79 74.6 371.224 74.7334 371.535 75C371.846 75.2667 372.001 75.6356 372.001 76.1067C372.001 76.4223 371.93 76.6956 371.788 76.9267C371.646 77.1534 371.444 77.3267 371.181 77.4467C370.919 77.5667 370.604 77.6267 370.235 77.6267H369.268V79.3334H368.401ZM369.268 76.8734H370.195C370.488 76.8734 370.713 76.8089 370.868 76.68C371.028 76.5512 371.108 76.36 371.108 76.1067C371.108 75.8578 371.028 75.6712 370.868 75.5467C370.713 75.4178 370.488 75.3534 370.195 75.3534H369.268V76.8734Z" fill="#2E2E2E"/>
<path d="M362.274 390.819L361.85 394.213L369.065 398.881V402.275L376.281 398.881V395.062L369.065 391.243L368.641 388.273L362.274 390.819Z" fill="white"/>
<path fill-rule="evenodd" clip-rule="evenodd" d="M368.443 388.527L363.001 391.167L368.443 394.146V388.527ZM368.443 395.58L362.257 392.195V394.5L368.443 397.693V395.58ZM368.443 399.109L361.438 395.493C361.169 395.354 361 395.076 361 394.774V390.739L368.54 387.082C369.076 386.822 369.7 387.213 369.7 387.81V390.749L376.561 394.273C376.83 394.412 377 394.689 377 394.993V398.615C377 398.919 376.831 399.196 376.562 399.335L369.621 402.909C369.083 403.186 368.443 402.795 368.443 402.19V399.109ZM369.7 392.164V401.453L375.743 398.341V395.268L369.7 392.164Z" fill="#E0E0E0"/>
<line x1="82" y1="199.5" x2="137" y2="199.5" stroke="#E0E0E0"/>
<path d="M107 195.013L114.136 199.965L107 204.387L107 195L107 195.013Z" fill="#F9D94A"/>
<rect x="138" y="164" width="72" height="72" rx="18" fill="#F9D94A"/>
<rect x="10" y="164" width="72" height="72" rx="18" fill="#F9D94A"/>
<path d="M179.333 199.333V198C179.333 194.667 178.2 193.333 175.367 193.333H171.967C169.133 193.333 168 194.667 168 198V202C168 205.333 169.133 206.667 171.967 206.667H172.533" stroke="#2E2E2E" stroke-linecap="round" stroke-linejoin="round"/>
<path d="M168 197.667H179.333" stroke="#2E2E2E" stroke-linecap="round" stroke-linejoin="round"/>
<path d="M172 195.333H175.405" stroke="#2E2E2E" stroke-linecap="round" stroke-linejoin="round"/>
<path d="M172.667 200H173.802" stroke="#2E2E2E" stroke-linecap="round" stroke-linejoin="round"/>
<path d="M168 202.333H173.658" stroke="#2E2E2E" stroke-linecap="round" stroke-linejoin="round"/>
<path d="M176.398 203.467V202.933C176.398 202.047 176.665 201.333 177.998 201.333C179.332 201.333 179.598 202.047 179.598 202.933V203.467" stroke="#2E2E2E" stroke-linecap="round" stroke-linejoin="round"/>
<path d="M179.332 206.667H176.665C175.599 206.667 175.332 206.4 175.332 205.333V204.8C175.332 203.733 175.599 203.467 176.665 203.467H179.332C180.399 203.467 180.665 203.733 180.665 204.8V205.333C180.665 206.4 180.399 206.667 179.332 206.667Z" stroke="#2E2E2E" stroke-linecap="round" stroke-linejoin="round"/>
<path d="M40.333 204V196.667C40.333 194 40.9997 193.333 43.6663 193.333H48.333C50.9997 193.333 51.6663 194 51.6663 196.667V203.333C51.6663 203.427 51.6663 203.52 51.6597 203.613" stroke="#2E2E2E" stroke-linecap="round" stroke-linejoin="round"/>
<path d="M42.233 202H51.6663V204.333C51.6663 205.62 50.6197 206.667 49.333 206.667H42.6663C41.3797 206.667 40.333 205.62 40.333 204.333V203.9C40.333 202.853 41.1863 202 42.233 202Z" stroke="#2E2E2E" stroke-linecap="round" stroke-linejoin="round"/>
<path d="M43.333 196.667H48.6663" stroke="#2E2E2E" stroke-linecap="round" stroke-linejoin="round"/>
<path d="M43.333 199H46.6663" stroke="#2E2E2E" stroke-linecap="round" stroke-linejoin="round"/>
<defs>
<filter id="filter0_d_18_10897" x="329.5" y="161.5" width="79" height="79" filterUnits="userSpaceOnUse" color-interpolation-filters="sRGB">
<feFlood flood-opacity="0" result="BackgroundImageFix"/>
<feColorMatrix in="SourceAlpha" type="matrix" values="0 0 0 0 0 0 0 0 0 0 0 0 0 0 0 0 0 0 127 0" result="hardAlpha"/>
<feOffset dy="1"/>
<feGaussianBlur stdDeviation="1.5"/>
<feComposite in2="hardAlpha" operator="out"/>
<feColorMatrix type="matrix" values="0 0 0 0 0.180392 0 0 0 0 0.180392 0 0 0 0 0.180392 0 0 0 0.06 0"/>
<feBlend mode="normal" in2="BackgroundImageFix" result="effect1_dropShadow_18_10897"/>
<feBlend mode="normal" in="SourceGraphic" in2="effect1_dropShadow_18_10897" result="shape"/>
</filter>
<filter id="filter1_d_18_10897" x="329.5" y="283.5" width="79" height="79" filterUnits="userSpaceOnUse" color-interpolation-filters="sRGB">
<feFlood flood-opacity="0" result="BackgroundImageFix"/>
<feColorMatrix in="SourceAlpha" type="matrix" values="0 0 0 0 0 0 0 0 0 0 0 0 0 0 0 0 0 0 127 0" result="hardAlpha"/>
<feOffset dy="1"/>
<feGaussianBlur stdDeviation="1.5"/>
<feComposite in2="hardAlpha" operator="out"/>
<feColorMatrix type="matrix" values="0 0 0 0 0.180392 0 0 0 0 0.180392 0 0 0 0 0.180392 0 0 0 0.06 0"/>
<feBlend mode="normal" in2="BackgroundImageFix" result="effect1_dropShadow_18_10897"/>
<feBlend mode="normal" in="SourceGraphic" in2="effect1_dropShadow_18_10897" result="shape"/>
</filter>
<filter id="filter2_d_18_10897" x="329.5" y="38.5" width="79" height="79" filterUnits="userSpaceOnUse" color-interpolation-filters="sRGB">
<feFlood flood-opacity="0" result="BackgroundImageFix"/>
<feColorMatrix in="SourceAlpha" type="matrix" values="0 0 0 0 0 0 0 0 0 0 0 0 0 0 0 0 0 0 127 0" result="hardAlpha"/>
<feOffset dy="1"/>
<feGaussianBlur stdDeviation="1.5"/>
<feComposite in2="hardAlpha" operator="out"/>
<feColorMatrix type="matrix" values="0 0 0 0 0.180392 0 0 0 0 0.180392 0 0 0 0 0.180392 0 0 0 0.06 0"/>
<feBlend mode="normal" in2="BackgroundImageFix" result="effect1_dropShadow_18_10897"/>
<feBlend mode="normal" in="SourceGraphic" in2="effect1_dropShadow_18_10897" result="shape"/>
</filter>
</defs>
</svg>
