<svg width="122" height="36" viewBox="0 0 122 36" fill="none" xmlns="http://www.w3.org/2000/svg">
<g clip-path="url(#clip0_2004_203)">
<mask id="mask0_2004_203" style="mask-type:luminance" maskUnits="userSpaceOnUse" x="0" y="0" width="122" height="35">
<path d="M121.822 0.437744H0.237793V34.7649H121.822V0.437744Z" fill="white"/>
</mask>
<g mask="url(#mask0_2004_203)">
<path d="M11.6739 0.437744H0.237793V34.7649H11.6739V0.437744Z" fill="#C2C2C2"/>
<path d="M23.1119 23.3225C25.3738 23.3225 27.5848 22.6514 29.4655 21.3941C31.3462 20.1368 32.812 18.3498 33.6775 16.2589C34.5432 14.1682 34.7696 11.8674 34.3283 9.64781C33.887 7.42823 32.7979 5.38939 31.1985 3.78915C29.5991 2.1889 27.5614 1.09912 25.343 0.657611C23.1246 0.216105 20.8252 0.442702 18.7355 1.30875C16.6458 2.17479 14.8598 3.64139 13.6031 5.52309C12.3465 7.40477 11.6758 9.61706 11.6758 11.8801H23.1119V23.3225Z" fill="#C2C2C2"/>
<path d="M12.5424 27.7013C11.9677 26.3131 11.6719 24.8252 11.6719 23.3225H34.5442V34.7649H23.1081C21.6063 34.7649 20.1192 34.469 18.7317 33.8939C17.3441 33.3188 16.0834 32.476 15.0215 31.4135C13.9595 30.351 13.1172 29.0896 12.5424 27.7013Z" fill="#C2C2C2"/>
<path d="M23.108 11.8801H11.6719V23.3225H23.108V11.8801Z" fill="#C2C2C2"/>
<path d="M40.4653 0.484619H46.5907C47.5649 0.484619 48.4257 0.684904 49.173 1.08547C49.9203 1.47269 50.5008 2.01346 50.9145 2.70779C51.3282 3.40211 51.5351 4.1899 51.5351 5.07116C51.5351 6.23281 51.1614 7.22756 50.4141 8.05541C49.6667 8.8699 48.6792 9.36392 47.4515 9.53749L52.6761 15.2056H49.0729L43.8884 9.59763H43.1877V15.2056H40.4653V0.484619ZM46.5907 7.15412C47.2312 7.15412 47.7451 6.96718 48.1321 6.59332C48.5191 6.20611 48.7126 5.70539 48.7126 5.09118C48.7126 4.49033 48.5191 4.00296 48.1321 3.6291C47.7451 3.25523 47.2312 3.0683 46.5907 3.0683H43.1877V7.15412H46.5907Z" fill="#C2C2C2"/>
<path d="M53.3281 9.938C53.3281 8.89652 53.555 7.96185 54.0087 7.13401C54.4758 6.30616 55.1098 5.65857 55.9104 5.19124C56.7244 4.71056 57.6386 4.47021 58.6528 4.47021C59.7071 4.47021 60.6279 4.6972 61.4153 5.15118C62.2027 5.59182 62.8098 6.22605 63.2369 7.05389C63.6639 7.88174 63.8775 8.84311 63.8775 9.938C63.8775 10.2585 63.8574 10.5989 63.8174 10.9594H56.0105C56.1306 11.6271 56.4309 12.1345 56.9114 12.4816C57.3917 12.8155 58.0256 12.9823 58.8129 12.9823C59.3602 12.9823 59.8473 12.8755 60.2743 12.6619C60.7146 12.4349 61.035 12.1545 61.2351 11.8207L63.337 13.2226C62.8699 13.8903 62.2226 14.4244 61.3952 14.8249C60.5679 15.2122 59.667 15.4058 58.6929 15.4058C57.6386 15.4058 56.7045 15.1855 55.8904 14.7448C55.0764 14.2909 54.4425 13.6567 53.9887 12.8421C53.5483 12.0143 53.3281 11.0462 53.3281 9.938ZM61.175 8.69624C60.8948 7.54793 60.0208 6.97378 58.5527 6.97378C57.8721 6.97378 57.3183 7.12066 56.8913 7.41441C56.4642 7.70816 56.184 8.13544 56.0506 8.69624H61.175Z" fill="#C2C2C2"/>
<path d="M67.1257 4.69067L70.0483 12.2214L73.0109 4.69067H75.7132L71.4896 15.2056H68.5469L64.3032 4.69067H67.1257Z" fill="#C2C2C2"/>
<path d="M75.9907 9.938C75.9907 8.89652 76.2176 7.96185 76.6713 7.13401C77.1384 6.30616 77.7724 5.65857 78.573 5.19124C79.387 4.71056 80.3012 4.47021 81.3154 4.47021C82.3697 4.47021 83.2905 4.6972 84.0779 5.15118C84.8653 5.59182 85.4724 6.22605 85.8993 7.05389C86.3266 7.88174 86.5398 8.84311 86.5398 9.938C86.5398 10.2585 86.5201 10.5989 86.4799 10.9594H78.6731C78.7932 11.6271 79.0935 12.1345 79.5739 12.4816C80.0543 12.8155 80.6883 12.9823 81.4756 12.9823C82.0228 12.9823 82.5098 12.8755 82.9369 12.6619C83.3772 12.4349 83.6976 12.1545 83.8977 11.8207L85.9995 13.2226C85.5325 13.8903 84.8852 14.4244 84.0579 14.8249C83.2305 15.2122 82.3296 15.4058 81.3555 15.4058C80.3012 15.4058 79.3671 15.1855 78.553 14.7448C77.739 14.2909 77.1051 13.6567 76.6513 12.8421C76.211 12.0143 75.9907 11.0462 75.9907 9.938ZM83.8376 8.69624C83.5574 7.54793 82.6834 6.97378 81.2153 6.97378C80.5347 6.97378 79.9809 7.12066 79.5539 7.41441C79.1268 7.70816 78.8466 8.13544 78.7132 8.69624H83.8376Z" fill="#C2C2C2"/>
<path d="M95.4007 9.2971C95.4007 8.54936 95.2278 7.97521 94.8801 7.57464C94.5334 7.17407 94.0393 6.97378 93.3989 6.97378C92.6514 6.97378 92.058 7.18742 91.6179 7.61469C91.1906 8.04197 90.9766 8.64282 90.9766 9.4173V15.2055H88.3745V4.69053H90.837V6.13258C91.224 5.61184 91.6975 5.20459 92.2584 4.91085C92.832 4.6171 93.4862 4.47021 94.22 4.47021C95.3939 4.47021 96.328 4.85076 97.0224 5.61185C97.716 6.35958 98.0636 7.48117 98.0636 8.97663V15.2055H95.4007V9.2971Z" fill="#C2C2C2"/>
<path d="M104.879 15.4059C103.397 15.4059 102.223 14.9854 101.356 14.1442C100.501 13.303 100.074 12.1613 100.074 10.7193V4.69067H102.677V10.7193C102.677 11.3735 102.877 11.9076 103.277 12.3215C103.691 12.7221 104.225 12.9224 104.879 12.9224C105.533 12.9224 106.06 12.7221 106.46 12.3215C106.874 11.9076 107.081 11.3735 107.081 10.7193V4.69067H109.683V10.7193C109.683 11.6406 109.482 12.4551 109.083 13.1627C108.682 13.8705 108.115 14.4246 107.381 14.8251C106.66 15.2123 105.826 15.4059 104.879 15.4059Z" fill="#C2C2C2"/>
<path d="M111.271 9.938C111.271 8.89652 111.497 7.96185 111.951 7.13401C112.419 6.30616 113.052 5.65857 113.853 5.19124C114.667 4.71056 115.582 4.47021 116.595 4.47021C117.649 4.47021 118.571 4.6972 119.358 5.15118C120.145 5.59182 120.752 6.22605 121.18 7.05389C121.607 7.88174 121.82 8.84311 121.82 9.938C121.82 10.2585 121.8 10.5989 121.76 10.9594H113.953C114.073 11.6271 114.373 12.1345 114.854 12.4816C115.334 12.8155 115.969 12.9823 116.756 12.9823C117.303 12.9823 117.79 12.8755 118.217 12.6619C118.657 12.4349 118.977 12.1545 119.178 11.8207L121.28 13.2226C120.812 13.8903 120.165 14.4244 119.338 14.8249C118.511 15.2122 117.61 15.4058 116.636 15.4058C115.582 15.4058 114.647 15.1855 113.833 14.7448C113.019 14.2909 112.385 13.6567 111.932 12.8421C111.491 12.0143 111.271 11.0462 111.271 9.938ZM119.118 8.69624C118.838 7.54793 117.964 6.97378 116.495 6.97378C115.815 6.97378 115.261 7.12066 114.834 7.41441C114.407 7.70816 114.127 8.13544 113.993 8.69624H119.118Z" fill="#C2C2C2"/>
<path d="M39.9624 27.2874C39.9624 25.8319 40.276 24.5301 40.9032 23.3818C41.5438 22.2201 42.4179 21.3122 43.5255 20.6579C44.6465 20.0037 45.9076 19.6765 47.3088 19.6765C48.63 19.6765 49.8178 19.9502 50.872 20.4977C51.9263 21.0318 52.7537 21.7728 53.3542 22.7209L50.8921 24.2831C50.158 22.9745 48.957 22.3203 47.2889 22.3203C46.3947 22.3203 45.6073 22.5206 44.9268 22.9212C44.2462 23.3084 43.719 23.8759 43.3454 24.6236C42.9717 25.3579 42.7849 26.2392 42.7849 27.2673C42.7849 28.8563 43.1986 30.0847 44.026 30.9526C44.8533 31.8205 45.9611 32.2545 47.3489 32.2545C48.0829 32.2545 48.7368 32.1276 49.3106 31.874C49.8978 31.6068 50.3515 31.2397 50.6719 30.7723C51.0054 30.305 51.1723 29.7843 51.1723 29.2102V28.6093H47.3489V26.0256H53.8747V34.6179H51.3124V33.2358C50.7786 33.7433 50.138 34.1372 49.3907 34.4176C48.6567 34.6846 47.8561 34.8181 46.9886 34.8181C45.6407 34.8181 44.433 34.5044 43.3654 33.8767C42.2978 33.2492 41.4637 32.3679 40.8632 31.233C40.2627 30.0847 39.9624 28.7695 39.9624 27.2874Z" fill="#C2C2C2"/>
<path d="M62.5863 24.103V26.5865H58.5027V34.618H55.9004V24.103H62.5863Z" fill="#C2C2C2"/>
<path d="M66.57 24.1028V34.6178H63.9677V24.1028H66.57ZM65.1688 22.4604C64.7017 22.4604 64.3081 22.3069 63.9877 21.9998C63.6808 21.6927 63.5273 21.2988 63.5273 20.8181C63.5273 20.3507 63.6808 19.9635 63.9877 19.6564C64.3081 19.336 64.7017 19.1758 65.1688 19.1758C65.6359 19.1758 66.0229 19.336 66.3298 19.6564C66.6367 19.9635 66.7902 20.3507 66.7902 20.8181C66.7902 21.2988 66.6367 21.6927 66.3298 21.9998C66.0229 22.3069 65.6359 22.4604 65.1688 22.4604Z" fill="#C2C2C2"/>
<path d="M76.4197 34.5176V33.0956C76.006 33.6163 75.5122 34.0236 74.9383 34.3173C74.3645 34.5977 73.7507 34.7379 73.0968 34.7379C72.1759 34.7379 71.3485 34.5043 70.6146 34.0369C69.894 33.5696 69.3267 32.922 68.9131 32.0941C68.5127 31.2663 68.3125 30.325 68.3125 29.2701C68.3125 28.242 68.5194 27.314 68.9331 26.4861C69.3601 25.6449 69.9339 24.9907 70.6545 24.5234C71.3886 24.0427 72.2026 23.8024 73.0968 23.8024C73.7239 23.8024 74.3045 23.9225 74.8382 24.1629C75.3855 24.4032 75.8658 24.7504 76.2795 25.2043V20.8582H78.8819V34.5176H76.4197ZM71.0349 29.2701C71.0349 30.138 71.2818 30.8524 71.7756 31.4131C72.2827 31.9607 72.9432 32.2344 73.7573 32.2344C74.558 32.2344 75.2052 31.9607 75.699 31.4131C76.2062 30.8657 76.4597 30.1514 76.4597 29.2701C76.4597 28.3888 76.2128 27.6745 75.719 27.1271C75.2253 26.5663 74.5714 26.2859 73.7573 26.2859C72.9432 26.2859 72.2827 26.5663 71.7756 27.1271C71.2818 27.6745 71.0349 28.3888 71.0349 29.2701Z" fill="#C2C2C2"/>
</g>
</g>
<defs>
<clipPath id="clip0_2004_203">
<rect width="121.584" height="35.1245" fill="white" transform="translate(0.23291 0.437744)"/>
</clipPath>
</defs>
</svg>
