<svg width="114" height="24" viewBox="0 0 114 24" fill="none" xmlns="http://www.w3.org/2000/svg">
<g clip-path="url(#clip0_2004_185)">
<path fill-rule="evenodd" clip-rule="evenodd" d="M75.2986 0.666748H79.327V23.143H75.2986V0.666748ZM107.922 10.1361V6.64821H103.757V2.10074H99.7284V18.6795C99.7284 20.2029 100.112 21.3638 100.867 22.1301C101.622 22.8971 102.8 23.2859 104.366 23.2859H107.922V19.7981H105.32C104.754 19.7981 104.348 19.6736 104.113 19.4279C103.897 19.203 103.757 18.6349 103.757 17.9808V10.1361H107.922ZM47.9341 18.7682L52.0994 6.64774H56.3316L50.3187 23.1432H45.5497L39.5366 6.64774H43.7688L47.9341 18.7682ZM93.1621 14.9113C93.1621 15.9556 93.0035 16.8641 92.6918 17.6115C92.3822 18.3549 91.9388 18.9248 91.3736 19.305C90.8083 19.6851 90.1135 19.878 89.3081 19.878C88.1563 19.878 87.2872 19.4994 86.7255 18.7533C86.1574 17.9992 85.8691 16.8563 85.8691 15.3565V6.64818H81.8408V15.8018C81.8408 17.2271 82.0186 18.436 82.3707 19.3945C82.7227 20.3559 83.2065 21.138 83.8079 21.7186C84.4092 22.2985 85.1112 22.7173 85.8946 22.9639C86.6738 23.2092 87.5125 23.3334 88.3865 23.3334C89.646 23.3334 90.6886 23.105 91.4841 22.6544C92.2094 22.2422 92.8179 21.7603 93.2939 21.22L93.6544 23.1429H97.1904V6.64818H93.1621V14.9113ZM69.1404 7.51807C67.8709 6.81418 66.3633 6.45758 64.6603 6.45758C62.9781 6.45758 61.4761 6.81418 60.1961 7.51784C58.9146 8.22332 57.9076 9.21959 57.2031 10.4789C56.4996 11.7371 56.143 13.2285 56.143 14.9113C56.143 16.5734 56.4996 18.0543 57.2031 19.3126C57.9072 20.5715 58.9143 21.5675 60.1961 22.2729C61.4761 22.9766 62.9781 23.3332 64.6603 23.3332C66.3633 23.3332 67.8708 22.9766 69.1404 22.2727C70.4113 21.5677 71.4129 20.5717 72.1173 19.3126C72.8209 18.0536 73.1777 16.5727 73.1777 14.9113C73.1777 13.2291 72.8209 11.7378 72.1173 10.4789C71.4125 9.21938 70.4111 8.22304 69.1404 7.51807ZM67.0121 19.3041C66.3631 19.7267 65.5719 19.9411 64.6605 19.9411C63.77 19.9411 62.9839 19.7267 62.324 19.3039C61.663 18.8806 61.1446 18.2832 60.7829 17.528C60.4196 16.7721 60.2352 15.8918 60.2352 14.9113C60.2352 13.9105 60.4194 13.0252 60.7829 12.2795C61.1444 11.5345 61.6632 10.9369 62.3248 10.5029C62.9845 10.0694 63.7704 9.84972 64.6604 9.84972C65.5714 9.84972 66.3622 10.0694 67.0114 10.5025C67.6624 10.9367 68.1761 11.5345 68.5385 12.2797C68.9015 13.0272 69.0857 13.9126 69.0857 14.9113C69.0857 15.8896 68.9015 16.7701 68.5385 17.528C68.1762 18.2834 67.6627 18.8808 67.0121 19.3041ZM9.49914 6.21381H5.3125V23.1432H9.49914V6.21381ZM22.6283 7.1819C22.6283 3.5896 19.703 0.666991 16.1071 0.666991H5.3125V4.28238H15.5939C17.2212 4.28238 18.5692 5.56084 18.599 7.13212C18.6139 7.91888 18.3186 8.66142 17.7675 9.22292C17.2163 9.78456 16.4798 10.0941 15.6937 10.0941H11.6885C11.5463 10.0941 11.4306 10.2096 11.4306 10.3519V13.5651C11.4306 13.6198 11.4475 13.672 11.4792 13.7159L18.2746 23.1433H23.2488L16.4377 13.6902C19.8678 13.518 22.6283 10.636 22.6283 7.1819ZM35.5019 7.42207C34.2959 6.78197 32.8639 6.45758 31.2457 6.45758C29.6255 6.45758 28.1769 6.81441 26.94 7.51852C25.701 8.22332 24.7264 9.2198 24.0431 10.4798C23.3605 11.7369 23.0146 13.2387 23.0146 14.9435C23.0146 16.605 23.3659 18.0854 24.0591 19.3439C24.7538 20.6052 25.7559 21.5962 27.037 22.2891C28.3157 22.9822 29.8495 23.3334 31.5954 23.3334C32.9805 23.3334 34.2243 23.074 35.2924 22.5618C36.3606 22.0483 37.2327 21.3491 37.8846 20.4834C38.5038 19.6607 38.9216 18.7302 39.1259 17.718L39.148 17.6099H35.1417L35.1228 17.6748C34.9022 18.4298 34.4742 19.0264 33.8503 19.4483C33.1807 19.902 32.3582 20.1322 31.4052 20.1322C30.5976 20.1322 29.8681 19.9591 29.2374 19.6179C28.6097 19.2786 28.1188 18.7934 27.7789 18.1752C27.4376 17.5549 27.2434 16.8085 27.2019 15.9614V15.8289H39.3032L39.3167 15.755C39.359 15.5228 39.3861 15.2835 39.3979 15.0429C39.4078 14.8084 39.4136 14.5742 39.4136 14.3379C39.392 12.7397 39.0348 11.3339 38.3521 10.1592C37.6666 8.98315 36.7077 8.06217 35.5019 7.42207ZM34.0339 10.5284C34.7222 11.1077 35.1504 11.9309 35.3074 12.9767H27.341C27.432 12.2981 27.6574 11.7104 28.0113 11.2284C28.3826 10.7227 28.8583 10.3254 29.4253 10.0474C29.993 9.76862 30.6162 9.62709 31.2774 9.62709C32.3953 9.62702 33.3227 9.93033 34.0339 10.5284Z" fill="#C2C2C2"/>
</g>
<defs>
<clipPath id="clip0_2004_185">
<rect width="113.333" height="22.6667" fill="white" transform="translate(0 0.666748)"/>
</clipPath>
</defs>
</svg>
