<svg width="10" height="5" viewBox="0 0 10 5" fill="none" xmlns="http://www.w3.org/2000/svg">
<g opacity="0.4">
<path d="M9.57343 1.08433C9.82083 0.834707 9.81904 0.431788 9.56941 0.184384C9.31979 -0.0630207 8.91687 -0.0612231 8.66947 0.188399L7.1869 1.68425C6.58521 2.29134 6.17112 2.70777 5.82024 2.98956C5.47941 3.26328 5.26049 3.35718 5.06442 3.38217C4.94131 3.39786 4.81674 3.39786 4.69363 3.38217C4.49756 3.35718 4.27864 3.26328 3.9378 2.98956C3.58693 2.70777 3.17284 2.29134 2.57114 1.68425L1.08858 0.188398C0.841176 -0.0612234 0.438255 -0.0630211 0.188634 0.184383C-0.0609875 0.431787 -0.0627852 0.834707 0.184619 1.08433L1.69389 2.60713C2.26233 3.18068 2.72692 3.64945 3.14087 3.98189C3.57133 4.32759 4.00824 4.57783 4.53271 4.64468C4.76267 4.67399 4.99538 4.67399 5.22534 4.64468C5.7498 4.57783 6.18672 4.32759 6.61718 3.98189C7.03113 3.64945 7.49572 3.18068 8.06416 2.60713L9.57343 1.08433Z" fill="#2E2E2E"/>
</g>
</svg>
