<svg width="29" height="29" viewBox="0 0 29 29" fill="none" xmlns="http://www.w3.org/2000/svg">
<path d="M11.0486 8.53115C10.948 8.52759 10.8476 8.54435 10.7536 8.58042C10.6596 8.61649 10.5737 8.67113 10.5013 8.74108C10.4288 8.81103 10.3712 8.89486 10.3318 8.98757C10.2925 9.08028 10.2722 9.17996 10.2722 9.28068C10.2722 9.3814 10.2925 9.48109 10.3318 9.57379C10.3712 9.6665 10.4288 9.75033 10.5013 9.82028C10.5737 9.89024 10.6595 9.94487 10.7536 9.98094C10.8476 10.017 10.948 10.0338 11.0486 10.0302L17.1927 10.0309L8.75053 18.4731C8.60987 18.6137 8.53086 18.8045 8.53086 19.0034C8.53086 19.2023 8.60987 19.3931 8.75053 19.5337C8.89118 19.6744 9.08194 19.7534 9.28086 19.7534C9.47977 19.7534 9.67053 19.6744 9.81119 19.5337L18.254 11.0909L18.254 17.2356C18.2505 17.3363 18.2672 17.4366 18.3033 17.5307C18.3394 17.6247 18.394 17.7105 18.464 17.783C18.5339 17.8554 18.6178 17.9131 18.7105 17.9524C18.8032 17.9918 18.9029 18.0121 19.0036 18.0121C19.1043 18.0121 19.204 17.9918 19.2967 17.9524C19.3894 17.9131 19.4732 17.8554 19.5432 17.783C19.6131 17.7105 19.6678 17.6247 19.7038 17.5307C19.7399 17.4366 19.7567 17.3363 19.7531 17.2356V9.28068C19.7534 9.18216 19.7343 9.08454 19.6967 8.99345C19.6592 8.90236 19.604 8.8196 19.5343 8.74993C19.4647 8.68027 19.3819 8.62507 19.2908 8.58752C19.1997 8.54997 19.1021 8.53081 19.0036 8.53115L11.0486 8.53115Z" fill="#2E2E2E"/>
</svg>
