<svg width="335" height="142" viewBox="0 0 335 142" fill="none" xmlns="http://www.w3.org/2000/svg">
<g filter="url(#filter0_d_18_17509)">
<path d="M253.26 73.6689H180.676C177.798 73.6689 175.465 76.0018 175.465 78.8796V96.7391C175.465 99.6169 177.798 101.95 180.676 101.95H253.26C256.138 101.95 258.471 99.6169 258.471 96.7391V78.8796C258.471 76.0018 256.138 73.6689 253.26 73.6689Z" fill="#F9F9F9"/>
<path d="M253.26 73.6689H180.676C177.798 73.6689 175.465 76.0018 175.465 78.8796V96.7391C175.465 99.6169 177.798 101.95 180.676 101.95H253.26C256.138 101.95 258.471 99.6169 258.471 96.7391V78.8796C258.471 76.0018 256.138 73.6689 253.26 73.6689Z" stroke="#E0E0E0" stroke-width="0.491942" stroke-miterlimit="10"/>
</g>
<path d="M172.208 16.2666H165.76C162.164 16.2669 159.253 19.1785 159.252 22.7744V56.083C160.279 53.4933 162.804 51.6623 165.76 51.6621H172.208V52.1543H165.76C162.164 52.1546 159.253 55.0663 159.252 58.6621V63.5479L159.244 63.9082C159.086 67.031 156.883 69.6102 153.948 70.3398C156.998 71.0952 159.258 73.8487 159.258 77.1338V81.3242C159.376 84.8169 162.239 87.6101 165.76 87.6104H172.208V88.1016H165.76C162.809 88.1014 160.288 86.2767 159.258 83.6943V116.931C159.258 120.527 162.171 123.438 165.767 123.438H172.215V123.931H165.767C161.899 123.931 158.767 120.799 158.767 116.931V81.3818C158.763 81.2888 158.76 81.1954 158.76 81.1016H158.767V77.1338C158.767 73.5377 155.854 70.626 152.258 70.626H116.623V70.0566H152.252C155.736 70.0565 158.577 67.3232 158.751 63.8828L158.76 63.5479V22.7744C158.76 18.9068 161.893 15.7747 165.76 15.7744H172.208V16.2666Z" fill="#E0E0E0"/>
<path d="M264.211 16.2666H270.66C274.256 16.2669 277.167 19.1785 277.167 22.7744V56.083C276.141 53.4934 273.616 51.6623 270.66 51.6621H264.211V52.1543H270.66C274.255 52.1546 277.167 55.0663 277.167 58.6621V63.5479L277.176 63.9082C277.334 67.0309 279.537 69.6102 282.472 70.3398C279.422 71.0952 277.162 73.8487 277.162 77.1338V81.3242C277.044 84.8169 274.181 87.6101 270.66 87.6104H264.211V88.1016H270.66C273.611 88.1013 276.132 86.2767 277.162 83.6943V116.931C277.162 120.527 274.249 123.438 270.653 123.438H264.205V123.931H270.653C274.521 123.931 277.653 120.799 277.653 116.931V81.3818C277.656 81.2888 277.66 81.1954 277.66 81.1016H277.653V77.1338C277.653 73.5378 280.566 70.626 284.162 70.626H319.797V70.0566H284.167C280.684 70.0565 277.843 67.3232 277.668 63.8828L277.66 63.5479V22.7744C277.659 18.9068 274.527 15.7747 270.66 15.7744H264.211V16.2666Z" fill="#F9D94A"/>
<g filter="url(#filter1_d_18_17509)">
<path d="M253.451 2H180.866C177.989 2 175.656 4.33289 175.656 7.21066V25.0702C175.656 27.948 177.989 30.2808 180.866 30.2808H253.451C256.329 30.2808 258.662 27.948 258.662 25.0702V7.21066C258.662 4.33289 256.329 2 253.451 2Z" fill="#F9F9F9"/>
<path d="M253.451 2H180.866C177.989 2 175.656 4.33289 175.656 7.21066V25.0702C175.656 27.948 177.989 30.2808 180.866 30.2808H253.451C256.329 30.2808 258.662 27.948 258.662 25.0702V7.21066C258.662 4.33289 256.329 2 253.451 2Z" stroke="#E0E0E0" stroke-width="0.491942" stroke-miterlimit="10"/>
</g>
<g filter="url(#filter2_d_18_17509)">
<path d="M253.26 110.719H180.676C177.798 110.719 175.465 113.052 175.465 115.929V133.789C175.465 136.667 177.798 139 180.676 139H253.26C256.138 139 258.471 136.667 258.471 133.789V115.929C258.471 113.052 256.138 110.719 253.26 110.719Z" fill="#F9F9F9"/>
<path d="M253.26 110.719H180.676C177.798 110.719 175.465 113.052 175.465 115.929V133.789C175.465 136.667 177.798 139 180.676 139H253.26C256.138 139 258.471 136.667 258.471 133.789V115.929C258.471 113.052 256.138 110.719 253.26 110.719Z" stroke="#E0E0E0" stroke-width="0.491942" stroke-miterlimit="10" stroke-dasharray="1.48 1.48"/>
</g>
<g filter="url(#filter3_d_18_17509)">
<path d="M253.26 37.7217H180.676C177.798 37.7217 175.465 40.0546 175.465 42.9323V60.7919C175.465 63.6696 177.798 66.0025 180.676 66.0025H253.26C256.138 66.0025 258.471 63.6696 258.471 60.7919V42.9323C258.471 40.0546 256.138 37.7217 253.26 37.7217Z" fill="#F9F9F9"/>
<path d="M253.26 37.7217H180.676C177.798 37.7217 175.465 40.0546 175.465 42.9323V60.7919C175.465 63.6696 177.798 66.0025 180.676 66.0025H253.26C256.138 66.0025 258.471 63.6696 258.471 60.7919V42.9323C258.471 40.0546 256.138 37.7217 253.26 37.7217Z" stroke="#E0E0E0" stroke-width="0.491942" stroke-miterlimit="10"/>
</g>
<path d="M207.288 18.3145V13.4246H209.003C209.541 13.4246 209.958 13.5554 210.257 13.8171C210.56 14.0742 210.711 14.4301 210.711 14.8846C210.711 15.1831 210.643 15.4425 210.505 15.6629C210.372 15.8833 210.176 16.0532 209.919 16.1725C209.667 16.2873 209.362 16.3447 209.003 16.3447H207.757V18.3145H207.288ZM207.757 15.8902H209.003C209.403 15.8902 209.704 15.8052 209.906 15.6353C210.112 15.4655 210.216 15.2152 210.216 14.8846C210.216 14.554 210.112 14.3038 209.906 14.1339C209.704 13.964 209.403 13.8791 209.003 13.8791H207.757V15.8902ZM211.564 18.3145V14.6642H211.957L211.984 15.6629L211.922 15.6285C211.982 15.3025 212.09 15.0614 212.246 14.9053C212.402 14.7446 212.618 14.6642 212.893 14.6642H213.21V15.105H212.88C212.696 15.105 212.54 15.1463 212.411 15.229C212.283 15.307 212.184 15.4195 212.115 15.5665C212.051 15.7134 212.019 15.8879 212.019 16.0899V18.3145H211.564ZM215.202 18.3971C214.871 18.3971 214.582 18.319 214.334 18.1629C214.091 18.0068 213.902 17.7864 213.769 17.5018C213.636 17.2125 213.569 16.875 213.569 16.4893C213.569 16.0991 213.636 15.7616 213.769 15.4769C213.902 15.1923 214.091 14.9719 214.334 14.8158C214.582 14.6597 214.871 14.5816 215.202 14.5816C215.532 14.5816 215.819 14.6597 216.063 14.8158C216.306 14.9719 216.494 15.1923 216.627 15.4769C216.761 15.7616 216.827 16.0991 216.827 16.4893C216.827 16.875 216.761 17.2125 216.627 17.5018C216.494 17.7864 216.306 18.0068 216.063 18.1629C215.819 18.319 215.532 18.3971 215.202 18.3971ZM215.202 17.9632C215.56 17.9632 215.84 17.8324 216.042 17.5706C216.249 17.3043 216.352 16.9439 216.352 16.4893C216.352 16.0348 216.249 15.6767 216.042 15.4149C215.84 15.1486 215.56 15.0155 215.202 15.0155C214.844 15.0155 214.561 15.1486 214.355 15.4149C214.148 15.6767 214.045 16.0348 214.045 16.4893C214.045 16.9439 214.148 17.3043 214.355 17.5706C214.561 17.8324 214.844 17.9632 215.202 17.9632ZM217.155 18.3145L218.505 16.4549L217.217 14.6642H217.747L218.787 16.145L219.813 14.6642H220.357L219.076 16.4618L220.412 18.3145H219.882L218.794 16.7579L217.692 18.3145H217.155ZM220.987 18.3145V14.6642H221.442V18.3145H220.987ZM220.973 14.0582V13.4452H221.455V14.0582H220.973ZM223.892 18.3971C223.543 18.3971 223.247 18.3167 223.003 18.156C222.76 17.9908 222.572 17.7658 222.439 17.4811C222.31 17.1918 222.246 16.8613 222.246 16.4893C222.246 16.1174 222.31 15.7892 222.439 15.5045C222.567 15.2152 222.751 14.9902 222.99 14.8295C223.233 14.6642 223.524 14.5816 223.864 14.5816C224.19 14.5816 224.473 14.6597 224.711 14.8158C224.95 14.9719 225.131 15.1923 225.255 15.4769C225.384 15.7616 225.448 16.0945 225.448 16.4756V16.6202H222.721C222.739 17.0518 222.852 17.3847 223.058 17.6188C223.265 17.8484 223.543 17.9632 223.892 17.9632C224.158 17.9632 224.376 17.8989 224.546 17.7704C224.716 17.6418 224.833 17.4719 224.897 17.2607L225.386 17.2951C225.294 17.6166 225.118 17.8806 224.856 18.0872C224.594 18.2938 224.273 18.3971 223.892 18.3971ZM222.721 16.2139H224.952C224.929 15.8236 224.822 15.5274 224.629 15.3254C224.436 15.1188 224.181 15.0155 223.864 15.0155C223.547 15.0155 223.288 15.1188 223.086 15.3254C222.884 15.532 222.762 15.8282 222.721 16.2139ZM227.555 18.3971C227.238 18.3971 226.967 18.3466 226.742 18.2456C226.522 18.14 226.35 17.9953 226.226 17.8117C226.102 17.628 226.031 17.4214 226.012 17.1918L226.487 17.1574C226.515 17.4008 226.616 17.5959 226.79 17.7428C226.969 17.8897 227.224 17.9632 227.555 17.9632C227.844 17.9632 228.069 17.915 228.23 17.8186C228.391 17.7222 228.471 17.5729 228.471 17.3709C228.471 17.2607 228.446 17.1689 228.395 17.0954C228.349 17.0174 228.253 16.9508 228.106 16.8957C227.959 16.836 227.739 16.7809 227.445 16.7304C227.1 16.6661 226.832 16.5904 226.639 16.5031C226.446 16.4113 226.311 16.2988 226.233 16.1657C226.154 16.0279 226.115 15.8649 226.115 15.6767C226.115 15.3507 226.233 15.0867 226.467 14.8846C226.701 14.6826 227.027 14.5816 227.445 14.5816C227.729 14.5816 227.97 14.6344 228.168 14.74C228.37 14.8456 228.528 14.9856 228.643 15.1601C228.758 15.33 228.834 15.5183 228.87 15.7249L228.395 15.7662C228.368 15.6239 228.315 15.4976 228.237 15.3874C228.159 15.2726 228.053 15.1831 227.92 15.1188C227.787 15.0499 227.626 15.0155 227.438 15.0155C227.162 15.0155 226.951 15.0752 226.804 15.1946C226.662 15.3093 226.591 15.4632 226.591 15.656C226.591 15.7892 226.621 15.8993 226.68 15.9866C226.74 16.0692 226.839 16.1381 226.976 16.1932C227.114 16.2437 227.305 16.2896 227.548 16.3309C227.911 16.3906 228.193 16.4664 228.395 16.5582C228.602 16.6455 228.746 16.7557 228.829 16.8888C228.912 17.0174 228.953 17.1758 228.953 17.364C228.953 17.5844 228.893 17.7727 228.774 17.9288C228.655 18.0803 228.489 18.1974 228.278 18.28C228.071 18.3581 227.83 18.3971 227.555 18.3971Z" fill="#2E2E2E"/>
<path d="M219.621 68.0801L217.185 71.5908L215.01 68.0801H219.628H219.621Z" fill="#F9D94A"/>
<path d="M219.621 32.0078L217.185 35.5185L215.01 32.0078H219.628H219.621Z" fill="#F9D94A"/>
<path d="M219.621 104.542L217.185 108.053L215.01 104.542H219.628H219.621Z" fill="#F9D94A"/>
<path d="M207.288 54.2266V49.3367H207.757V51.699L207.536 51.5268H210.581L210.36 51.699V49.3367H210.828V54.2266H210.36V51.8023L210.581 51.9813H207.536L207.757 51.8023V54.2266H207.288ZM213.373 54.3092C213.024 54.3092 212.728 54.2289 212.484 54.0682C212.241 53.9029 212.053 53.6779 211.919 53.3932C211.791 53.104 211.727 52.7734 211.727 52.4015C211.727 52.0295 211.791 51.7013 211.919 51.4166C212.048 51.1273 212.232 50.9023 212.47 50.7416C212.714 50.5764 213.005 50.4937 213.345 50.4937C213.671 50.4937 213.953 50.5718 214.192 50.7279C214.431 50.884 214.612 51.1044 214.736 51.389C214.865 51.6737 214.929 52.0066 214.929 52.3877V52.5323H212.202C212.22 52.9639 212.333 53.2968 212.539 53.531C212.746 53.7605 213.024 53.8753 213.373 53.8753C213.639 53.8753 213.857 53.811 214.027 53.6825C214.197 53.5539 214.314 53.384 214.378 53.1728L214.867 53.2073C214.775 53.5287 214.599 53.7927 214.337 53.9993C214.075 54.2059 213.754 54.3092 213.373 54.3092ZM212.202 52.126H214.433C214.41 51.7357 214.302 51.4395 214.11 51.2375C213.917 51.0309 213.662 50.9276 213.345 50.9276C213.028 50.9276 212.769 51.0309 212.567 51.2375C212.365 51.4441 212.243 51.7403 212.202 52.126ZM216.799 54.3092C216.432 54.3092 216.138 54.222 215.918 54.0475C215.697 53.8684 215.587 53.6274 215.587 53.3243C215.587 53.0213 215.684 52.7825 215.876 52.6081C216.069 52.4336 216.352 52.3119 216.724 52.2431L218.073 51.9882C218.073 51.6255 217.995 51.3592 217.839 51.1893C217.683 51.0148 217.447 50.9276 217.13 50.9276C216.85 50.9276 216.627 50.9942 216.462 51.1273C216.297 51.2605 216.186 51.4487 216.131 51.6921L215.649 51.6508C215.718 51.2972 215.879 51.0171 216.131 50.8105C216.388 50.5993 216.721 50.4937 217.13 50.4937C217.584 50.4937 217.931 50.6223 218.17 50.8794C218.409 51.1365 218.528 51.5038 218.528 51.9813V53.5034C218.528 53.6274 218.546 53.7123 218.583 53.7582C218.624 53.7996 218.689 53.8202 218.776 53.8202H218.886V54.2266C218.868 54.2312 218.84 54.2334 218.804 54.2334C218.771 54.238 218.737 54.2403 218.7 54.2403C218.558 54.2403 218.438 54.2151 218.342 54.1646C218.25 54.1141 218.181 54.0314 218.135 53.9166C218.094 53.8019 218.073 53.6434 218.073 53.4414L218.129 53.4483C218.087 53.609 218.002 53.7559 217.874 53.8891C217.75 54.0177 217.594 54.121 217.405 54.199C217.217 54.2725 217.015 54.3092 216.799 54.3092ZM216.841 53.9029C217.093 53.9029 217.311 53.8524 217.495 53.7513C217.679 53.6503 217.821 53.5149 217.922 53.345C218.023 53.1705 218.073 52.9754 218.073 52.7596V52.3946L216.82 52.6287C216.558 52.6792 216.365 52.7573 216.241 52.8629C216.122 52.9685 216.062 53.1085 216.062 53.283C216.062 53.4805 216.131 53.6343 216.269 53.7445C216.407 53.8501 216.597 53.9029 216.841 53.9029ZM220.856 54.3092C220.539 54.3092 220.266 54.2312 220.036 54.075C219.807 53.9189 219.63 53.6985 219.506 53.4139C219.382 53.1292 219.32 52.7917 219.32 52.4015C219.32 52.0112 219.382 51.6737 219.506 51.389C219.63 51.1044 219.807 50.884 220.036 50.7279C220.266 50.5718 220.539 50.4937 220.856 50.4937C221.122 50.4937 221.359 50.5603 221.565 50.6934C221.776 50.822 221.93 50.9965 222.027 51.2169V49.3367H222.481V54.2266H222.082L222.061 53.5447C221.96 53.7835 221.799 53.9717 221.579 54.1095C221.363 54.2426 221.122 54.3092 220.856 54.3092ZM220.932 53.8753C221.161 53.8753 221.356 53.8156 221.517 53.6962C221.682 53.5723 221.809 53.4001 221.896 53.1797C221.983 52.9547 222.027 52.6953 222.027 52.4015C222.027 52.1076 221.983 51.8505 221.896 51.6301C221.809 51.4097 221.682 51.2375 221.517 51.1136C221.356 50.9896 221.161 50.9276 220.932 50.9276C220.587 50.9276 220.312 51.0608 220.105 51.3271C219.899 51.5888 219.795 51.9469 219.795 52.4015C219.795 52.8514 219.899 53.2096 220.105 53.4759C220.312 53.7422 220.587 53.8753 220.932 53.8753ZM224.941 54.3092C224.592 54.3092 224.296 54.2289 224.053 54.0682C223.809 53.9029 223.621 53.6779 223.488 53.3932C223.359 53.104 223.295 52.7734 223.295 52.4015C223.295 52.0295 223.359 51.7013 223.488 51.4166C223.616 51.1273 223.8 50.9023 224.039 50.7416C224.282 50.5764 224.574 50.4937 224.913 50.4937C225.239 50.4937 225.522 50.5718 225.761 50.7279C225.999 50.884 226.181 51.1044 226.305 51.389C226.433 51.6737 226.497 52.0066 226.497 52.3877V52.5323H223.77C223.789 52.9639 223.901 53.2968 224.108 53.531C224.314 53.7605 224.592 53.8753 224.941 53.8753C225.207 53.8753 225.425 53.811 225.595 53.6825C225.765 53.5539 225.882 53.384 225.946 53.1728L226.435 53.2073C226.344 53.5287 226.167 53.7927 225.905 53.9993C225.643 54.2059 225.322 54.3092 224.941 54.3092ZM223.77 52.126H226.002C225.979 51.7357 225.871 51.4395 225.678 51.2375C225.485 51.0309 225.23 50.9276 224.913 50.9276C224.597 50.9276 224.337 51.0309 224.135 51.2375C223.933 51.4441 223.811 51.7403 223.77 52.126ZM227.309 54.2266V50.5764H227.702L227.729 51.575L227.667 51.5406C227.727 51.2146 227.835 50.9735 227.991 50.8174C228.147 50.6567 228.363 50.5764 228.639 50.5764H228.955V51.0171H228.625C228.441 51.0171 228.285 51.0585 228.156 51.1411C228.028 51.2192 227.929 51.3316 227.86 51.4786C227.796 51.6255 227.764 51.8 227.764 52.002V54.2266H227.309ZM230.857 54.3092C230.54 54.3092 230.27 54.2587 230.045 54.1577C229.824 54.0521 229.652 53.9075 229.528 53.7238C229.404 53.5401 229.333 53.3335 229.314 53.104L229.79 53.0695C229.817 53.3129 229.918 53.508 230.093 53.6549C230.272 53.8019 230.527 53.8753 230.857 53.8753C231.146 53.8753 231.371 53.8271 231.532 53.7307C231.693 53.6343 231.773 53.485 231.773 53.283C231.773 53.1728 231.748 53.081 231.697 53.0075C231.652 52.9295 231.555 52.8629 231.408 52.8078C231.261 52.7481 231.041 52.693 230.747 52.6425C230.403 52.5782 230.134 52.5025 229.941 52.4152C229.748 52.3234 229.613 52.2109 229.535 52.0778C229.457 51.94 229.418 51.777 229.418 51.5888C229.418 51.2628 229.535 50.9988 229.769 50.7967C230.003 50.5947 230.329 50.4937 230.747 50.4937C231.032 50.4937 231.273 50.5465 231.47 50.6521C231.672 50.7577 231.831 50.8978 231.945 51.0722C232.06 51.2421 232.136 51.4304 232.173 51.637L231.697 51.6783C231.67 51.536 231.617 51.4097 231.539 51.2995C231.461 51.1847 231.355 51.0952 231.222 51.0309C231.089 50.962 230.928 50.9276 230.74 50.9276C230.465 50.9276 230.253 50.9873 230.107 51.1067C229.964 51.2215 229.893 51.3753 229.893 51.5681C229.893 51.7013 229.923 51.8115 229.983 51.8987C230.042 51.9813 230.141 52.0502 230.279 52.1053C230.416 52.1558 230.607 52.2017 230.85 52.2431C231.213 52.3027 231.495 52.3785 231.697 52.4703C231.904 52.5576 232.049 52.6678 232.131 52.8009C232.214 52.9295 232.255 53.0879 232.255 53.2761C232.255 53.4965 232.196 53.6848 232.076 53.8409C231.957 53.9924 231.792 54.1095 231.58 54.1921C231.374 54.2702 231.133 54.3092 230.857 54.3092Z" fill="#2E2E2E"/>
<path d="M209.12 90.7401C208.689 90.7401 208.31 90.6391 207.984 90.437C207.663 90.2304 207.412 89.9366 207.233 89.5555C207.059 89.1744 206.972 88.7198 206.972 88.1918C206.972 87.6638 207.059 87.2092 207.233 86.8282C207.412 86.4425 207.663 86.1463 207.984 85.9397C208.31 85.7331 208.689 85.6298 209.12 85.6298C209.69 85.6298 210.137 85.7813 210.463 86.0843C210.789 86.3874 211.001 86.7937 211.097 87.3034L210.601 87.3378C210.532 86.9567 210.374 86.6537 210.126 86.4287C209.883 86.2037 209.547 86.0912 209.12 86.0912C208.785 86.0912 208.494 86.1762 208.246 86.3461C207.998 86.5113 207.805 86.7524 207.667 87.0692C207.53 87.3814 207.461 87.7556 207.461 88.1918C207.461 88.628 207.53 89.0022 207.667 89.3144C207.805 89.6266 207.998 89.8654 208.246 90.0307C208.494 90.196 208.785 90.2786 209.12 90.2786C209.566 90.2786 209.915 90.157 210.167 89.9136C210.424 89.6703 210.583 89.3397 210.643 88.9219L211.138 88.9563C211.083 89.3144 210.969 89.6266 210.794 89.893C210.62 90.1593 210.392 90.3682 210.112 90.5197C209.832 90.6666 209.502 90.7401 209.12 90.7401ZM212.952 90.7125C212.585 90.7125 212.291 90.6253 212.071 90.4508C211.85 90.2717 211.74 90.0307 211.74 89.7277C211.74 89.4246 211.836 89.1859 212.029 89.0114C212.222 88.8369 212.505 88.7152 212.876 88.6464L214.226 88.3915C214.226 88.0288 214.148 87.7625 213.992 87.5926C213.836 87.4182 213.6 87.3309 213.283 87.3309C213.003 87.3309 212.78 87.3975 212.615 87.5306C212.449 87.6638 212.339 87.8521 212.284 88.0954L211.802 88.0541C211.871 87.7005 212.032 87.4205 212.284 87.2138C212.541 87.0026 212.874 86.897 213.283 86.897C213.737 86.897 214.084 87.0256 214.323 87.2827C214.562 87.5398 214.681 87.9071 214.681 88.3847V89.9067C214.681 90.0307 214.699 90.1156 214.736 90.1616C214.777 90.2029 214.842 90.2235 214.929 90.2235H215.039V90.6299C215.021 90.6345 214.993 90.6368 214.956 90.6368C214.924 90.6414 214.89 90.6437 214.853 90.6437C214.711 90.6437 214.591 90.6184 214.495 90.5679C214.403 90.5174 214.334 90.4347 214.288 90.32C214.247 90.2052 214.226 90.0468 214.226 89.8447L214.281 89.8516C214.24 90.0123 214.155 90.1593 214.027 90.2924C213.903 90.421 213.747 90.5243 213.558 90.6023C213.37 90.6758 213.168 90.7125 212.952 90.7125ZM212.994 90.3062C213.246 90.3062 213.464 90.2557 213.648 90.1547C213.831 90.0537 213.974 89.9182 214.075 89.7483C214.176 89.5738 214.226 89.3787 214.226 89.1629V88.7979L212.973 89.0321C212.711 89.0826 212.518 89.1606 212.394 89.2662C212.275 89.3718 212.215 89.5119 212.215 89.6863C212.215 89.8838 212.284 90.0376 212.422 90.1478C212.56 90.2534 212.75 90.3062 212.994 90.3062ZM215.728 91.663V86.9797H216.141L216.155 87.9026L216.079 87.8681C216.171 87.5513 216.329 87.3103 216.554 87.145C216.779 86.9797 217.041 86.897 217.339 86.897C217.683 86.897 217.968 86.9843 218.193 87.1587C218.423 87.3286 218.595 87.5582 218.71 87.8475C218.829 88.1321 218.889 88.4512 218.889 88.8048C218.889 89.1583 218.831 89.4797 218.717 89.769C218.602 90.0537 218.43 90.2832 218.2 90.4577C217.97 90.6276 217.683 90.7125 217.339 90.7125C217.137 90.7125 216.949 90.6735 216.774 90.5954C216.604 90.5128 216.46 90.4026 216.34 90.2649C216.226 90.1271 216.148 89.971 216.106 89.7965L216.182 89.707V91.663H215.728ZM217.305 90.2786C217.644 90.2786 217.913 90.1478 218.11 89.8861C218.308 89.6244 218.407 89.2639 218.407 88.8048C218.407 88.3456 218.308 87.9852 218.11 87.7235C217.913 87.4618 217.642 87.3309 217.298 87.3309C217.073 87.3309 216.875 87.3906 216.706 87.51C216.54 87.6248 216.412 87.7924 216.32 88.0128C216.228 88.2331 216.182 88.4972 216.182 88.8048C216.182 89.1124 216.228 89.3764 216.32 89.5968C216.412 89.8172 216.543 89.9871 216.712 90.1065C216.882 90.2212 217.08 90.2786 217.305 90.2786ZM220.815 90.6299C220.517 90.6299 220.296 90.561 220.154 90.4233C220.012 90.2809 219.94 90.0651 219.94 89.7759V86.1257H220.395V89.7621C220.395 89.932 220.432 90.0514 220.505 90.1202C220.583 90.1891 220.7 90.2235 220.856 90.2235H221.339V90.6299H220.815ZM219.369 87.386V86.9797H221.339V87.386H219.369ZM223.441 90.7125C223.101 90.7125 222.809 90.6322 222.566 90.4715C222.323 90.3062 222.135 90.0812 222.001 89.7965C221.873 89.5073 221.809 89.1767 221.809 88.8048C221.809 88.4329 221.873 88.1046 222.001 87.8199C222.135 87.5306 222.323 87.3057 222.566 87.145C222.809 86.9797 223.101 86.897 223.441 86.897C223.721 86.897 223.967 86.9475 224.178 87.0485C224.389 87.1496 224.561 87.2942 224.694 87.4824C224.827 87.6707 224.917 87.8934 224.963 88.1505L224.488 88.178C224.433 87.9071 224.313 87.6982 224.13 87.5513C223.95 87.4044 223.721 87.3309 223.441 87.3309C223.083 87.3309 222.8 87.4641 222.594 87.7304C222.387 87.9921 222.284 88.3502 222.284 88.8048C222.284 89.2593 222.387 89.6198 222.594 89.8861C222.8 90.1478 223.083 90.2786 223.441 90.2786C223.721 90.2786 223.953 90.2006 224.136 90.0445C224.325 89.8838 224.444 89.6542 224.495 89.3558L224.97 89.3902C224.924 89.6565 224.832 89.8884 224.694 90.0858C224.561 90.2832 224.389 90.437 224.178 90.5472C223.967 90.6574 223.721 90.7125 223.441 90.7125ZM225.715 90.6299V85.74H226.17V87.8475L226.115 87.8406C226.151 87.6248 226.225 87.448 226.335 87.3103C226.45 87.1725 226.592 87.0692 226.762 87.0003C226.932 86.9315 227.118 86.897 227.32 86.897C227.586 86.897 227.809 86.9567 227.988 87.0761C228.167 87.1955 228.303 87.3608 228.394 87.572C228.486 87.7786 228.532 88.015 228.532 88.2814V90.6299H228.078V88.4466C228.078 88.0793 228.009 87.797 227.871 87.5995C227.733 87.4021 227.515 87.3034 227.217 87.3034C226.895 87.3034 226.64 87.4067 226.452 87.6133C226.264 87.8153 226.17 88.0954 226.17 88.4535V90.6299H225.715ZM230.56 90.7125C230.193 90.7125 229.899 90.6253 229.679 90.4508C229.458 90.2717 229.348 90.0307 229.348 89.7277C229.348 89.4246 229.445 89.1859 229.637 89.0114C229.83 88.8369 230.113 88.7152 230.485 88.6464L231.834 88.3915C231.834 88.0288 231.756 87.7625 231.6 87.5926C231.444 87.4182 231.208 87.3309 230.891 87.3309C230.611 87.3309 230.388 87.3975 230.223 87.5306C230.057 87.6638 229.947 87.8521 229.892 88.0954L229.41 88.0541C229.479 87.7005 229.64 87.4205 229.892 87.2138C230.149 87.0026 230.482 86.897 230.891 86.897C231.345 86.897 231.692 87.0256 231.931 87.2827C232.17 87.5398 232.289 87.9071 232.289 88.3847V89.9067C232.289 90.0307 232.307 90.1156 232.344 90.1616C232.385 90.2029 232.45 90.2235 232.537 90.2235H232.647V90.6299C232.629 90.6345 232.601 90.6368 232.564 90.6368C232.532 90.6414 232.498 90.6437 232.461 90.6437C232.319 90.6437 232.199 90.6184 232.103 90.5679C232.011 90.5174 231.942 90.4347 231.896 90.32C231.855 90.2052 231.834 90.0468 231.834 89.8447L231.889 89.8516C231.848 90.0123 231.763 90.1593 231.635 90.2924C231.511 90.421 231.355 90.5243 231.166 90.6023C230.978 90.6758 230.776 90.7125 230.56 90.7125ZM230.602 90.3062C230.854 90.3062 231.072 90.2557 231.256 90.1547C231.44 90.0537 231.582 89.9182 231.683 89.7483C231.784 89.5738 231.834 89.3787 231.834 89.1629V88.7979L230.581 89.0321C230.319 89.0826 230.126 89.1606 230.002 89.2662C229.883 89.3718 229.823 89.5119 229.823 89.6863C229.823 89.8838 229.892 90.0376 230.03 90.1478C230.168 90.2534 230.358 90.3062 230.602 90.3062ZM234.624 90.7125C234.307 90.7125 234.036 90.662 233.811 90.561C233.591 90.4554 233.418 90.3108 233.294 90.1271C233.17 89.9435 233.099 89.7368 233.081 89.5073L233.556 89.4728C233.584 89.7162 233.685 89.9113 233.859 90.0582C234.038 90.2052 234.293 90.2786 234.624 90.2786C234.913 90.2786 235.138 90.2304 235.299 90.134C235.459 90.0376 235.54 89.8884 235.54 89.6863C235.54 89.5761 235.514 89.4843 235.464 89.4109C235.418 89.3328 235.322 89.2662 235.175 89.2111C235.028 89.1514 234.807 89.0963 234.513 89.0458C234.169 88.9815 233.9 88.9058 233.708 88.8186C233.515 88.7267 233.379 88.6142 233.301 88.4811C233.223 88.3433 233.184 88.1803 233.184 87.9921C233.184 87.6661 233.301 87.4021 233.535 87.2001C233.77 86.998 234.096 86.897 234.513 86.897C234.798 86.897 235.039 86.9498 235.237 87.0554C235.439 87.161 235.597 87.3011 235.712 87.4756C235.827 87.6454 235.902 87.8337 235.939 88.0403L235.464 88.0816C235.436 87.9393 235.384 87.813 235.305 87.7028C235.227 87.588 235.122 87.4985 234.989 87.4342C234.856 87.3654 234.695 87.3309 234.507 87.3309C234.231 87.3309 234.02 87.3906 233.873 87.51C233.731 87.6248 233.659 87.7786 233.659 87.9714C233.659 88.1046 233.689 88.2148 233.749 88.302C233.809 88.3847 233.907 88.4535 234.045 88.5086C234.183 88.5591 234.373 88.605 234.617 88.6464C234.979 88.7061 235.262 88.7818 235.464 88.8737C235.67 88.9609 235.815 89.0711 235.898 89.2042C235.98 89.3328 236.022 89.4912 236.022 89.6795C236.022 89.8998 235.962 90.0881 235.843 90.2442C235.723 90.3957 235.558 90.5128 235.347 90.5954C235.14 90.6735 234.899 90.7125 234.624 90.7125Z" fill="#2E2E2E"/>
<path d="M207.288 126.542V121.652H207.963L209.637 126.032L211.311 121.652H211.986V126.542H211.517V122.458L209.94 126.542H209.334L207.757 122.458V126.542H207.288ZM214.509 126.625C214.178 126.625 213.889 126.547 213.641 126.39C213.398 126.234 213.21 126.014 213.076 125.729C212.943 125.44 212.877 125.103 212.877 124.717C212.877 124.327 212.943 123.989 213.076 123.704C213.21 123.42 213.398 123.199 213.641 123.043C213.889 122.887 214.178 122.809 214.509 122.809C214.84 122.809 215.127 122.887 215.37 123.043C215.613 123.199 215.801 123.42 215.935 123.704C216.068 123.989 216.134 124.327 216.134 124.717C216.134 125.103 216.068 125.44 215.935 125.729C215.801 126.014 215.613 126.234 215.37 126.39C215.127 126.547 214.84 126.625 214.509 126.625ZM214.509 126.191C214.867 126.191 215.147 126.06 215.349 125.798C215.556 125.532 215.659 125.171 215.659 124.717C215.659 124.262 215.556 123.904 215.349 123.642C215.147 123.376 214.867 123.243 214.509 123.243C214.151 123.243 213.868 123.376 213.662 123.642C213.455 123.904 213.352 124.262 213.352 124.717C213.352 125.171 213.455 125.532 213.662 125.798C213.868 126.06 214.151 126.191 214.509 126.191ZM216.952 126.542V122.892H217.344L217.372 123.89L217.31 123.856C217.369 123.53 217.477 123.289 217.633 123.133C217.79 122.972 218.005 122.892 218.281 122.892H218.598V123.333H218.267C218.083 123.333 217.927 123.374 217.799 123.457C217.67 123.535 217.571 123.647 217.503 123.794C217.438 123.941 217.406 124.115 217.406 124.317V126.542H216.952ZM220.603 126.625C220.254 126.625 219.958 126.544 219.714 126.384C219.471 126.218 219.283 125.993 219.15 125.709C219.021 125.419 218.957 125.089 218.957 124.717C218.957 124.345 219.021 124.017 219.15 123.732C219.278 123.443 219.462 123.218 219.701 123.057C219.944 122.892 220.236 122.809 220.575 122.809C220.901 122.809 221.184 122.887 221.422 123.043C221.661 123.199 221.843 123.42 221.967 123.704C222.095 123.989 222.159 124.322 222.159 124.703V124.848H219.432C219.45 125.279 219.563 125.612 219.769 125.846C219.976 126.076 220.254 126.191 220.603 126.191C220.869 126.191 221.087 126.126 221.257 125.998C221.427 125.869 221.544 125.699 221.608 125.488L222.097 125.523C222.006 125.844 221.829 126.108 221.567 126.315C221.305 126.521 220.984 126.625 220.603 126.625ZM219.432 124.441H221.663C221.641 124.051 221.533 123.755 221.34 123.553C221.147 123.346 220.892 123.243 220.575 123.243C220.258 123.243 219.999 123.346 219.797 123.553C219.595 123.76 219.473 124.056 219.432 124.441Z" fill="#2E2E2E"/>
<path d="M170.736 13.8134L174.247 16.2494L170.736 18.4248L170.736 13.8069L170.736 13.8134Z" fill="#F9D94A"/>
<path d="M170.736 49.7245L174.247 52.1605L170.736 54.3359L170.736 49.718L170.736 49.7245Z" fill="#F9D94A"/>
<path d="M170.736 85.6366L174.247 88.0726L170.736 90.248L170.736 85.6301L170.736 85.6366Z" fill="#F9D94A"/>
<path d="M170.736 121.548L174.247 123.984L170.736 126.159L170.736 121.541L170.736 121.548Z" fill="#F9D94A"/>
<rect x="179.591" y="5.93555" width="20.1696" height="20.1696" rx="3.93553" fill="#F9D94A"/>
<g filter="url(#filter4_d_18_17509)">
<path d="M65.1653 56.1133H6.23076C3.89418 56.1133 2 58.4264 2 61.2797V78.9876C2 81.8409 3.89418 84.154 6.23076 84.154H65.1653C67.5019 84.154 69.396 81.8409 69.396 78.9876V61.2797C69.396 58.4264 67.5019 56.1133 65.1653 56.1133Z" fill="#F9F9F9"/>
<path d="M65.1653 56.1133H6.23076C3.89418 56.1133 2 58.4264 2 61.2797V78.9876C2 81.8409 3.89418 84.154 6.23076 84.154H65.1653C67.5019 84.154 69.396 81.8409 69.396 78.9876V61.2797C69.396 58.4264 67.5019 56.1133 65.1653 56.1133Z" stroke="#E0E0E0" stroke-width="0.491942" stroke-miterlimit="10"/>
</g>
<path d="M33.6327 72.4277V67.5378H35.4234C35.7723 67.5378 36.0685 67.5975 36.3118 67.7169C36.5598 67.8317 36.7503 67.997 36.8834 68.2128C37.0166 68.4286 37.0832 68.688 37.0832 68.991C37.0832 69.216 37.0304 69.4157 36.9248 69.5902C36.8238 69.7647 36.6883 69.9047 36.5184 70.0103C36.3485 70.1159 36.1649 70.1756 35.9675 70.1894L35.933 70.1274C36.2544 70.1274 36.5024 70.2009 36.6768 70.3478C36.8559 70.4901 36.9592 70.7151 36.9868 71.0227L37.1107 72.4277H36.6355L36.5184 71.0641C36.5001 70.8391 36.4197 70.6738 36.2774 70.5682C36.135 70.458 35.9055 70.4029 35.5887 70.4029H34.101V72.4277H33.6327ZM34.101 69.9483H35.4991C35.8343 69.9483 36.0983 69.8657 36.2912 69.7004C36.4886 69.5305 36.5873 69.2918 36.5873 68.9841C36.5873 68.6627 36.4886 68.4171 36.2912 68.2472C36.0937 68.0773 35.8022 67.9924 35.4165 67.9924H34.101V69.9483ZM39.4209 72.5104C39.072 72.5104 38.7758 72.43 38.5325 72.2693C38.2892 72.104 38.1009 71.8791 37.9677 71.5944C37.8392 71.3051 37.7749 70.9745 37.7749 70.6026C37.7749 70.2307 37.8392 69.9024 37.9677 69.6178C38.0963 69.3285 38.28 69.1035 38.5187 68.9428C38.7621 68.7775 39.0536 68.6949 39.3934 68.6949C39.7194 68.6949 40.0018 68.7729 40.2405 68.929C40.4793 69.0852 40.6606 69.3055 40.7846 69.5902C40.9132 69.8749 40.9775 70.2078 40.9775 70.5889V70.7335H38.2501C38.2685 71.1651 38.381 71.498 38.5876 71.7321C38.7942 71.9617 39.072 72.0765 39.4209 72.0765C39.6873 72.0765 39.9053 72.0122 40.0752 71.8836C40.2451 71.7551 40.3622 71.5852 40.4265 71.374L40.9155 71.4084C40.8236 71.7298 40.6469 71.9938 40.3852 72.2005C40.1234 72.4071 39.802 72.5104 39.4209 72.5104ZM38.2501 70.3271H40.4816C40.4586 69.9369 40.3507 69.6407 40.1579 69.4387C39.965 69.2321 39.7102 69.1288 39.3934 69.1288C39.0766 69.1288 38.8172 69.2321 38.6151 69.4387C38.4131 69.6453 38.2914 69.9415 38.2501 70.3271ZM44.7026 73.4608H44.248V71.5049L44.3169 71.5944C44.2801 71.7689 44.2021 71.925 44.0827 72.0627C43.9679 72.2005 43.8233 72.3107 43.6488 72.3933C43.4743 72.4714 43.2861 72.5104 43.0841 72.5104C42.7443 72.5104 42.4596 72.4254 42.2301 72.2556C42.0005 72.0811 41.8283 71.8515 41.7135 71.5668C41.5987 71.2776 41.5413 70.9562 41.5413 70.6026C41.5413 70.2491 41.5987 69.93 41.7135 69.6453C41.8283 69.356 42.0005 69.1265 42.2301 68.9566C42.4596 68.7821 42.7466 68.6949 43.091 68.6949C43.394 68.6949 43.6557 68.7775 43.8761 68.9428C44.1011 69.1081 44.2572 69.3492 44.3444 69.666L44.2687 69.7004L44.2824 68.7775H44.7026V73.4608ZM43.1254 72.0765C43.3504 72.0765 43.5478 72.0191 43.7177 71.9043C43.8876 71.7849 44.0184 71.615 44.1103 71.3947C44.2021 71.1743 44.248 70.9103 44.248 70.6026C44.248 70.295 44.1998 70.031 44.1034 69.8106C44.0115 69.5902 43.8807 69.4226 43.7108 69.3078C43.5455 69.1885 43.3504 69.1288 43.1254 69.1288C42.7856 69.1288 42.5147 69.2596 42.3127 69.5213C42.1153 69.7831 42.0166 70.1435 42.0166 70.6026C42.0166 71.0618 42.1153 71.4222 42.3127 71.6839C42.5101 71.9456 42.781 72.0765 43.1254 72.0765ZM47.0298 72.5104C46.6671 72.5104 46.3756 72.3887 46.1552 72.1454C45.9394 71.8974 45.8315 71.5577 45.8315 71.1261V68.7775H46.286V70.9883C46.286 71.3648 46.3572 71.6449 46.4995 71.8285C46.6464 72.0122 46.8622 72.104 47.1469 72.104C47.4637 72.104 47.7117 72.0007 47.8907 71.7941C48.0744 71.5875 48.1662 71.3074 48.1662 70.9539V68.7775H48.6208V72.4277H48.1938L48.1869 71.4911L48.2558 71.5255C48.1961 71.8377 48.0583 72.0811 47.8425 72.2556C47.6313 72.4254 47.3604 72.5104 47.0298 72.5104ZM51.0834 72.5104C50.7345 72.5104 50.4383 72.43 50.195 72.2693C49.9516 72.104 49.7634 71.8791 49.6302 71.5944C49.5017 71.3051 49.4374 70.9745 49.4374 70.6026C49.4374 70.2307 49.5017 69.9024 49.6302 69.6178C49.7588 69.3285 49.9424 69.1035 50.1812 68.9428C50.4246 68.7775 50.7161 68.6949 51.0559 68.6949C51.3819 68.6949 51.6642 68.7729 51.903 68.929C52.1418 69.0852 52.3231 69.3055 52.4471 69.5902C52.5757 69.8749 52.6399 70.2078 52.6399 70.5889V70.7335H49.9126C49.931 71.1651 50.0435 71.498 50.2501 71.7321C50.4567 71.9617 50.7345 72.0765 51.0834 72.0765C51.3497 72.0765 51.5678 72.0122 51.7377 71.8836C51.9076 71.7551 52.0247 71.5852 52.089 71.374L52.5779 71.4084C52.4861 71.7298 52.3093 71.9938 52.0476 72.2005C51.7859 72.4071 51.4645 72.5104 51.0834 72.5104ZM49.9126 70.3271H52.1441C52.1211 69.9369 52.0132 69.6407 51.8204 69.4387C51.6275 69.2321 51.3727 69.1288 51.0559 69.1288C50.7391 69.1288 50.4797 69.2321 50.2776 69.4387C50.0756 69.6453 49.9539 69.9415 49.9126 70.3271ZM54.7465 72.5104C54.4297 72.5104 54.1588 72.4599 53.9339 72.3589C53.7135 72.2533 53.5413 72.1086 53.4173 71.925C53.2934 71.7413 53.2222 71.5347 53.2038 71.3051L53.679 71.2707C53.7066 71.514 53.8076 71.7092 53.9821 71.8561C54.1611 72.003 54.416 72.0765 54.7465 72.0765C55.0358 72.0765 55.2608 72.0283 55.4215 71.9319C55.5822 71.8354 55.6625 71.6862 55.6625 71.4842C55.6625 71.374 55.6373 71.2822 55.5868 71.2087C55.5409 71.1306 55.4445 71.0641 55.2975 71.009C55.1506 70.9493 54.9302 70.8942 54.6364 70.8437C54.292 70.7794 54.0234 70.7036 53.8306 70.6164C53.6377 70.5246 53.5023 70.4121 53.4242 70.2789C53.3462 70.1412 53.3071 69.9782 53.3071 69.7899C53.3071 69.4639 53.4242 69.1999 53.6584 68.9979C53.8925 68.7959 54.2185 68.6949 54.6364 68.6949C54.921 68.6949 55.1621 68.7477 55.3595 68.8533C55.5615 68.9589 55.7199 69.0989 55.8347 69.2734C55.9495 69.4433 56.0253 69.6315 56.062 69.8382L55.5868 69.8795C55.5592 69.7371 55.5064 69.6109 55.4284 69.5007C55.3503 69.3859 55.2447 69.2964 55.1116 69.2321C54.9784 69.1632 54.8177 69.1288 54.6295 69.1288C54.354 69.1288 54.1428 69.1885 53.9958 69.3078C53.8535 69.4226 53.7823 69.5764 53.7823 69.7693C53.7823 69.9024 53.8122 70.0126 53.8719 70.0999C53.9316 70.1825 54.0303 70.2514 54.168 70.3065C54.3058 70.357 54.4963 70.4029 54.7397 70.4442C55.1024 70.5039 55.3848 70.5797 55.5868 70.6715C55.7934 70.7587 55.938 70.8689 56.0207 71.0021C56.1033 71.1306 56.1446 71.2891 56.1446 71.4773C56.1446 71.6977 56.085 71.8859 55.9656 72.0421C55.8462 72.1936 55.6809 72.3107 55.4697 72.3933C55.2631 72.4714 55.022 72.5104 54.7465 72.5104ZM58.0686 72.4277C57.7702 72.4277 57.5498 72.3589 57.4074 72.2211C57.2651 72.0788 57.1939 71.863 57.1939 71.5737V67.9235H57.6485V71.5599C57.6485 71.7298 57.6852 71.8492 57.7587 71.9181C57.8367 71.987 57.9538 72.0214 58.1099 72.0214H58.592V72.4277H58.0686ZM56.6223 69.1839V68.7775H58.592V69.1839H56.6223Z" fill="#2E2E2E"/>
<rect x="4.95166" y="60.0488" width="20.1696" height="20.1696" rx="3.93553" fill="#F9D94A"/>
<path d="M10.5869 68.6963C10.7516 68.6963 10.8857 68.8304 10.8857 68.9951V71.499C10.8857 71.6637 10.7516 71.7979 10.5869 71.7979C10.4222 71.7979 10.2881 71.6637 10.2881 71.499V70.5449H9.00684V71.499C9.00684 71.6636 8.87349 71.7976 8.70898 71.7979C8.54428 71.7979 8.41016 71.6637 8.41016 71.499V68.9951C8.41016 68.8304 8.54428 68.6963 8.70898 68.6963C8.87349 68.6965 9.00684 68.8306 9.00684 68.9951V69.9482H10.2881V68.9951C10.2881 68.8304 10.4222 68.6963 10.5869 68.6963Z" fill="#2E2E2E" stroke="#2E2E2E" stroke-width="0.0293486"/>
<path d="M11.8394 68.6963H13.0913C13.2559 68.6964 13.3892 68.8305 13.3892 68.9951C13.3889 69.1596 13.2558 69.2929 13.0913 69.293H12.7632V71.499C12.7632 71.6636 12.6299 71.7977 12.4653 71.7979C12.3006 71.7979 12.1665 71.6637 12.1665 71.499V69.293H11.8394C11.6748 69.293 11.5408 69.1596 11.5405 68.9951C11.5405 68.8304 11.6747 68.6963 11.8394 68.6963Z" fill="#2E2E2E" stroke="#2E2E2E" stroke-width="0.0293486"/>
<path d="M14.3423 68.6963H15.5942C15.7589 68.6964 15.8921 68.8305 15.8921 68.9951C15.8919 69.1596 15.7587 69.2929 15.5942 69.293H15.2661V71.499C15.2661 71.6636 15.1328 71.7977 14.9683 71.7979C14.8036 71.7979 14.6694 71.6637 14.6694 71.499V69.293H14.3423C14.1777 69.293 14.0437 69.1596 14.0435 68.9951C14.0435 68.8304 14.1776 68.6963 14.3423 68.6963Z" fill="#2E2E2E" stroke="#2E2E2E" stroke-width="0.0293486"/>
<path d="M16.8477 68.6963H17.4736C17.9832 68.6965 18.3975 69.1115 18.3975 69.6211C18.3973 70.1306 17.9831 70.5448 17.4736 70.5449H17.1455V71.499C17.1455 71.6636 17.0122 71.7976 16.8477 71.7979C16.683 71.7979 16.5488 71.6637 16.5488 71.499V68.9951C16.5488 68.8304 16.683 68.6963 16.8477 68.6963ZM17.1455 69.9482H17.4736C17.6537 69.9481 17.8006 69.8018 17.8008 69.6211C17.8008 69.4403 17.6538 69.2931 17.4736 69.293H17.1455V69.9482Z" fill="#2E2E2E" stroke="#2E2E2E" stroke-width="0.0293486"/>
<path d="M21.9302 68.7051C22.0905 68.7452 22.1868 68.9066 22.147 69.0664L21.521 71.5713C21.4876 71.707 21.3661 71.7967 21.2319 71.7969C21.2083 71.7969 21.1842 71.794 21.1597 71.7881C20.9992 71.7481 20.9021 71.5866 20.9419 71.4268L21.5679 68.9219C21.6073 68.7614 21.768 68.6633 21.9302 68.7051Z" fill="#2E2E2E" stroke="#2E2E2E" stroke-width="0.0293486"/>
<path d="M20.6768 68.7051C20.8371 68.7452 20.9334 68.9066 20.8936 69.0664L20.2676 71.5713C20.2341 71.707 20.1126 71.7967 19.9785 71.7969C19.9548 71.7969 19.9308 71.794 19.9062 71.7881C19.7458 71.7481 19.6486 71.5866 19.6885 71.4268L20.3145 68.9219C20.3539 68.7614 20.5139 68.6633 20.6768 68.7051Z" fill="#2E2E2E" stroke="#2E2E2E" stroke-width="0.0293486"/>
<path d="M19.3545 69.3223C19.5191 69.3225 19.6523 69.4564 19.6523 69.6211C19.6521 69.7856 19.519 69.9187 19.3545 69.9189C19.1898 69.9189 19.0559 69.7857 19.0557 69.6211C19.0557 69.4563 19.1897 69.3223 19.3545 69.3223Z" fill="#2E2E2E" stroke="#2E2E2E" stroke-width="0.0293486"/>
<path d="M19.3545 70.5742C19.5191 70.5744 19.6523 70.7084 19.6523 70.873C19.6521 71.0375 19.519 71.1707 19.3545 71.1709C19.1898 71.1709 19.0559 71.0377 19.0557 70.873C19.0557 70.7083 19.1897 70.5742 19.3545 70.5742Z" fill="#2E2E2E" stroke="#2E2E2E" stroke-width="0.0293486"/>
<rect x="300.117" y="60.541" width="26.5649" height="20.1696" rx="3.93553" fill="#F9D94A"/>
<path d="M304.18 72.4121L303.052 68.2208H303.489L304.434 71.8808L305.343 68.2208H305.815L306.724 71.8808L307.669 68.2208H308.106L306.978 72.4121H306.459L305.579 68.9174L304.699 72.4121H304.18ZM309.803 72.4829C309.503 72.4829 309.25 72.4141 309.041 72.2763C308.832 72.1347 308.671 71.9418 308.557 71.6978C308.447 71.4499 308.392 71.1665 308.392 70.8477C308.392 70.529 308.447 70.2476 308.557 70.0036C308.667 69.7556 308.825 69.5628 309.029 69.425C309.238 69.2834 309.488 69.2125 309.779 69.2125C310.058 69.2125 310.3 69.2794 310.505 69.4132C310.71 69.547 310.865 69.7359 310.971 69.9799C311.082 70.224 311.137 70.5093 311.137 70.8359V70.9599H308.799C308.815 71.3298 308.911 71.6152 309.088 71.8159C309.265 72.0127 309.503 72.111 309.803 72.111C310.031 72.111 310.218 72.0559 310.363 71.9457C310.509 71.8356 310.609 71.6899 310.664 71.5089L311.084 71.5384C311.005 71.8139 310.853 72.0402 310.629 72.2173C310.405 72.3944 310.129 72.4829 309.803 72.4829ZM308.799 70.6116H310.712C310.692 70.2771 310.6 70.0232 310.434 69.8501C310.269 69.673 310.051 69.5844 309.779 69.5844C309.507 69.5844 309.285 69.673 309.112 69.8501C308.939 70.0272 308.834 70.281 308.799 70.6116ZM313.208 72.4829C312.972 72.4829 312.765 72.4239 312.588 72.3058C312.411 72.1838 312.279 72.0264 312.193 71.8336L312.175 72.4121H311.833V68.2208H312.222V69.8324C312.301 69.6631 312.427 69.5175 312.6 69.3955C312.773 69.2735 312.976 69.2125 313.208 69.2125C313.48 69.2125 313.714 69.2794 313.911 69.4132C314.111 69.547 314.267 69.7359 314.377 69.9799C314.487 70.224 314.542 70.5132 314.542 70.8477C314.542 71.1823 314.487 71.4715 314.377 71.7155C314.267 71.9595 314.111 72.1484 313.911 72.2822C313.714 72.416 313.48 72.4829 313.208 72.4829ZM313.19 72.111C313.478 72.111 313.706 71.9989 313.875 71.7746C314.044 71.5463 314.129 71.2374 314.129 70.8477C314.129 70.4581 314.044 70.1511 313.875 69.9268C313.706 69.6986 313.48 69.5844 313.196 69.5844C312.996 69.5844 312.822 69.6376 312.677 69.7438C312.531 69.8461 312.419 69.9918 312.34 70.1807C312.262 70.3696 312.222 70.5919 312.222 70.8477C312.222 71.0996 312.262 71.322 312.34 71.5148C312.419 71.7037 312.529 71.8513 312.671 71.9576C312.816 72.0599 312.99 72.111 313.19 72.111ZM316.349 72.4829C316.078 72.4829 315.846 72.4397 315.653 72.3531C315.464 72.2626 315.316 72.1386 315.21 71.9812C315.104 71.8237 315.043 71.6466 315.027 71.4499L315.434 71.4204C315.458 71.6289 315.545 71.7962 315.694 71.9221C315.848 72.0481 316.066 72.111 316.349 72.111C316.597 72.111 316.79 72.0697 316.928 71.9871C317.066 71.9044 317.135 71.7765 317.135 71.6034C317.135 71.5089 317.113 71.4302 317.07 71.3672C317.03 71.3003 316.948 71.2433 316.822 71.196C316.696 71.1449 316.507 71.0976 316.255 71.0543C315.96 70.9993 315.73 70.9343 315.564 70.8595C315.399 70.7808 315.283 70.6844 315.216 70.5703C315.149 70.4522 315.116 70.3125 315.116 70.1511C315.116 69.8717 315.216 69.6454 315.417 69.4723C315.617 69.2991 315.897 69.2125 316.255 69.2125C316.499 69.2125 316.706 69.2578 316.875 69.3483C317.048 69.4388 317.184 69.5588 317.282 69.7084C317.381 69.854 317.446 70.0154 317.477 70.1925L317.07 70.2279C317.046 70.1059 317.001 69.9977 316.934 69.9032C316.867 69.8048 316.776 69.7281 316.662 69.673C316.548 69.6139 316.41 69.5844 316.249 69.5844C316.013 69.5844 315.832 69.6356 315.706 69.7379C315.584 69.8363 315.523 69.9681 315.523 70.1334C315.523 70.2476 315.549 70.342 315.6 70.4168C315.651 70.4876 315.736 70.5467 315.854 70.5939C315.972 70.6372 316.135 70.6765 316.344 70.712C316.654 70.7631 316.897 70.8281 317.07 70.9068C317.247 70.9815 317.371 71.076 317.442 71.1901C317.512 71.3003 317.548 71.4361 317.548 71.5975C317.548 71.7864 317.497 71.9477 317.394 72.0815C317.292 72.2114 317.15 72.3118 316.969 72.3826C316.792 72.4495 316.586 72.4829 316.349 72.4829ZM318.243 72.4121V69.2834H318.633V72.4121H318.243ZM318.231 68.7639V68.2385H318.645V68.7639H318.231ZM320.465 72.4121C320.209 72.4121 320.021 72.3531 319.899 72.235C319.777 72.113 319.716 71.928 319.716 71.6801V68.5513H320.105V71.6683C320.105 71.8139 320.137 71.9162 320.2 71.9753C320.266 72.0343 320.367 72.0638 320.501 72.0638H320.914V72.4121H320.465ZM319.226 69.6317V69.2834H320.914V69.6317H319.226ZM322.728 72.4829C322.428 72.4829 322.175 72.4141 321.966 72.2763C321.757 72.1347 321.596 71.9418 321.482 71.6978C321.372 71.4499 321.317 71.1665 321.317 70.8477C321.317 70.529 321.372 70.2476 321.482 70.0036C321.592 69.7556 321.75 69.5628 321.954 69.425C322.163 69.2834 322.413 69.2125 322.704 69.2125C322.983 69.2125 323.225 69.2794 323.43 69.4132C323.635 69.547 323.79 69.7359 323.896 69.9799C324.007 70.224 324.062 70.5093 324.062 70.8359V70.9599H321.724C321.74 71.3298 321.836 71.6152 322.013 71.8159C322.19 72.0127 322.428 72.111 322.728 72.111C322.956 72.111 323.143 72.0559 323.288 71.9457C323.434 71.8356 323.534 71.6899 323.589 71.5089L324.009 71.5384C323.93 71.8139 323.778 72.0402 323.554 72.2173C323.33 72.3944 323.054 72.4829 322.728 72.4829ZM321.724 70.6116H323.637C323.617 70.2771 323.525 70.0232 323.359 69.8501C323.194 69.673 322.976 69.5844 322.704 69.5844C322.432 69.5844 322.21 69.673 322.037 69.8501C321.864 70.0272 321.759 70.281 321.724 70.6116Z" fill="#2E2E2E"/>
<rect x="179.591" y="41.8477" width="20.1696" height="20.1696" rx="3.93553" fill="#F9D94A"/>
<rect x="179.591" y="77.7588" width="20.1696" height="20.1696" rx="3.93553" fill="#F9D94A"/>
<rect x="179.591" y="114.162" width="20.1696" height="20.1696" rx="3.93553" fill="#F9D94A"/>
<path d="M187.134 53.6546V50.047C187.134 48.7352 187.462 48.4072 188.774 48.4072H191.07C192.382 48.4072 192.71 48.7352 192.71 50.047V53.3266C192.71 53.3726 192.71 53.4185 192.706 53.4644" stroke="#2E2E2E" stroke-width="0.491942" stroke-linecap="round" stroke-linejoin="round"/>
<path d="M188.069 52.6699H192.71V53.8178C192.71 54.4508 192.195 54.9657 191.562 54.9657H188.282C187.649 54.9657 187.134 54.4508 187.134 53.8178V53.6046C187.134 53.0897 187.554 52.6699 188.069 52.6699Z" stroke="#2E2E2E" stroke-width="0.491942" stroke-linecap="round" stroke-linejoin="round"/>
<path d="M188.61 50.0469H191.234" stroke="#2E2E2E" stroke-width="0.491942" stroke-linecap="round" stroke-linejoin="round"/>
<path d="M188.61 51.1943H190.25" stroke="#2E2E2E" stroke-width="0.491942" stroke-linecap="round" stroke-linejoin="round"/>
<path d="M187.626 14.4629C188.169 14.4629 188.61 14.0224 188.61 13.479C188.61 12.9356 188.169 12.4951 187.626 12.4951C187.083 12.4951 186.642 12.9356 186.642 13.479C186.642 14.0224 187.083 14.4629 187.626 14.4629Z" stroke="#2E2E2E" stroke-width="0.491942" stroke-linecap="round" stroke-linejoin="round"/>
<path d="M192.218 16.7578C192.761 16.7578 193.202 16.3173 193.202 15.7739C193.202 15.2305 192.761 14.79 192.218 14.79C191.674 14.79 191.234 15.2305 191.234 15.7739C191.234 16.3173 191.674 16.7578 192.218 16.7578Z" stroke="#2E2E2E" stroke-width="0.491942" stroke-linecap="round" stroke-linejoin="round"/>
<path d="M187.626 19.0537C188.169 19.0537 188.61 18.6132 188.61 18.0698C188.61 17.5264 188.169 17.0859 187.626 17.0859C187.083 17.0859 186.642 17.5264 186.642 18.0698C186.642 18.6132 187.083 19.0537 187.626 19.0537Z" stroke="#2E2E2E" stroke-width="0.491942" stroke-linecap="round" stroke-linejoin="round"/>
<path d="M191.234 15.7747H188.938C188.216 15.7747 187.626 15.4468 187.626 14.4629V17.0866" stroke="#2E2E2E" stroke-width="0.491942" stroke-linecap="round" stroke-linejoin="round"/>
<path d="M188.938 90.8776H190.906C192.545 90.8776 193.201 90.2217 193.201 88.5819V86.6141C193.201 84.9743 192.545 84.3184 190.906 84.3184H188.938C187.298 84.3184 186.642 84.9743 186.642 86.6141V88.5819C186.642 90.2217 187.298 90.8776 188.938 90.8776Z" stroke="#2E2E2E" stroke-width="0.491942" stroke-linecap="round" stroke-linejoin="round"/>
<path d="M191.726 87.5977C191.726 88.5947 190.919 89.4015 189.922 89.4015C188.925 89.4015 188.318 88.398 188.318 88.398M188.318 88.398H189.132M188.318 88.398V89.2999M188.118 87.5977C188.118 86.6007 188.918 85.7939 189.922 85.7939C191.126 85.7939 191.726 86.7975 191.726 86.7975M191.726 86.7975V85.8956M191.726 86.7975H190.926" stroke="#2E2E2E" stroke-width="0.491942" stroke-linecap="round" stroke-linejoin="round"/>
<path d="M187.298 122.034C186.888 122.581 186.642 123.263 186.642 124.001C186.642 125.812 188.111 127.281 189.922 127.281C191.732 127.281 193.201 125.812 193.201 124.001C193.201 122.191 191.732 120.722 189.922 120.722C189.453 120.722 189.003 120.82 188.6 121" stroke="#2E2E2E" stroke-width="0.491942" stroke-linecap="round" stroke-linejoin="round"/>
<path d="M191.232 124.001H191.235" stroke="#2E2E2E" stroke-width="0.983884" stroke-linecap="round" stroke-linejoin="round"/>
<path d="M189.92 124.001H189.923" stroke="#2E2E2E" stroke-width="0.983884" stroke-linecap="round" stroke-linejoin="round"/>
<path d="M188.608 124.001H188.611" stroke="#2E2E2E" stroke-width="0.983884" stroke-linecap="round" stroke-linejoin="round"/>
<path d="M263.765 16.8623C264.337 16.8623 264.8 16.3986 264.8 15.8266C264.8 15.2547 264.337 14.791 263.765 14.791C263.193 14.791 262.729 15.2547 262.729 15.8266C262.729 16.3986 263.193 16.8623 263.765 16.8623Z" fill="white" stroke="#E0E0E0" stroke-width="0.468959" stroke-miterlimit="10"/>
<path d="M263.765 53.2656C264.337 53.2656 264.8 52.8019 264.8 52.23C264.8 51.658 264.337 51.1943 263.765 51.1943C263.193 51.1943 262.729 51.658 262.729 52.23C262.729 52.8019 263.193 53.2656 263.765 53.2656Z" fill="white" stroke="#E0E0E0" stroke-width="0.468959" stroke-miterlimit="10"/>
<path d="M263.765 88.6855C264.337 88.6855 264.8 88.2218 264.8 87.6499C264.8 87.0779 264.337 86.6143 263.765 86.6143C263.193 86.6143 262.729 87.0779 262.729 87.6499C262.729 88.2218 263.193 88.6855 263.765 88.6855Z" fill="white" stroke="#E0E0E0" stroke-width="0.468959" stroke-miterlimit="10"/>
<path d="M263.765 124.597C264.337 124.597 264.8 124.133 264.8 123.561C264.8 122.989 264.337 122.525 263.765 122.525C263.193 122.525 262.729 122.989 262.729 123.561C262.729 124.133 263.193 124.597 263.765 124.597Z" fill="white" stroke="#E0E0E0" stroke-width="0.468959" stroke-miterlimit="10"/>
<path d="M154.01 70.3799H69.396" stroke="#E0E0E0" stroke-width="0.491942"/>
<path fill-rule="evenodd" clip-rule="evenodd" d="M131.39 68.1662L115.148 59.8247V52.8615C115.148 51.4497 113.673 50.5229 112.4 51.1375L94.5483 59.8007V69.3523C94.5483 70.0678 94.9471 70.7257 95.586 71.0571L112.174 79.6194V86.914C112.174 88.3499 113.688 89.2719 114.961 88.6188L131.395 80.1573C132.034 79.8307 132.433 79.1728 132.433 78.4525V69.8758C132.433 69.1554 132.029 68.4975 131.395 68.171L131.39 68.1662Z" stroke="#2E2E2E" stroke-opacity="0.3" stroke-width="0.491942" stroke-miterlimit="10"/>
<path fill-rule="evenodd" clip-rule="evenodd" d="M145.397 66.818L116.445 51.9494V39.5375C116.445 37.0209 113.816 35.3688 111.547 36.4645L79.7266 51.9066V68.9323C79.7266 70.2077 80.4373 71.3804 81.5762 71.971L111.145 87.2334V100.236C111.145 102.795 113.842 104.439 116.111 103.275L145.406 88.1921C146.545 87.61 147.255 86.4373 147.255 85.1533V69.8653C147.255 68.5813 146.536 67.4086 145.406 66.8265L145.397 66.818Z" stroke="#2E2E2E" stroke-opacity="0.1" stroke-width="0.491942" stroke-miterlimit="10"/>
<path d="M107.686 66.2292L107.328 69.1015L113.431 73.0486V75.921L119.534 73.0486V69.818L113.431 66.5874L113.072 64.0732L107.686 66.2292Z" fill="white"/>
<path fill-rule="evenodd" clip-rule="evenodd" d="M112.902 64.2878L108.297 66.5219L112.902 69.0425V64.2878ZM112.902 70.254L107.672 67.3881V69.3356L112.902 72.0387V70.254ZM112.902 73.2436L106.975 70.1824C106.747 70.0651 106.604 69.8306 106.604 69.5766V66.1636L112.981 63.0698C113.436 62.8484 113.964 63.1805 113.964 63.6886V66.1767L119.767 69.1598C119.995 69.277 120.139 69.5115 120.139 69.772V72.8398C120.139 73.0938 119.995 73.3283 119.767 73.4455L113.899 76.4677C113.443 76.7022 112.902 76.37 112.902 75.862V73.2567V73.2436ZM113.964 67.3686V75.2302L119.077 72.5988V70L113.964 67.3751V67.3686Z" fill="#2E2E2E"/>
<path d="M300.105 90.7882C299.562 90.7882 299.122 90.6583 298.786 90.3985C298.449 90.1388 298.216 89.7935 298.086 89.3625L299.052 89.3005C299.122 89.4953 299.243 89.6488 299.415 89.761C299.592 89.8672 299.822 89.9204 300.105 89.9204C300.601 89.9204 300.976 89.7256 301.23 89.336C301.49 88.9463 301.622 88.3147 301.628 87.441L301.805 87.4853C301.658 87.8572 301.434 88.1405 301.132 88.3353C300.837 88.5302 300.489 88.6276 300.088 88.6276C299.674 88.6276 299.311 88.539 298.998 88.3619C298.686 88.1789 298.441 87.9251 298.263 87.6004C298.086 87.2757 297.998 86.8979 297.998 86.4669C297.998 86.0006 298.092 85.6021 298.281 85.2715C298.47 84.935 298.733 84.6753 299.069 84.4923C299.406 84.3093 299.795 84.2178 300.238 84.2178C300.781 84.2178 301.224 84.3388 301.566 84.5808C301.915 84.8229 302.171 85.1653 302.337 85.608C302.508 86.0449 302.594 86.5703 302.594 87.1842C302.594 87.7155 302.549 88.2025 302.461 88.6453C302.372 89.088 302.228 89.4688 302.027 89.7876C301.832 90.1063 301.575 90.3543 301.256 90.5314C300.944 90.7026 300.56 90.7882 300.105 90.7882ZM300.22 87.804C300.486 87.804 300.719 87.7509 300.92 87.6447C301.121 87.5384 301.277 87.3879 301.389 87.1931C301.501 86.9923 301.558 86.7503 301.558 86.4669C301.558 86.1954 301.504 85.9563 301.398 85.7497C301.298 85.5372 301.15 85.3719 300.955 85.2538C300.761 85.1298 300.527 85.0679 300.256 85.0679C299.99 85.0679 299.76 85.1269 299.565 85.245C299.376 85.363 299.229 85.5283 299.122 85.7408C299.022 85.9475 298.972 86.1865 298.972 86.4581C298.972 86.7355 299.025 86.9746 299.131 87.1753C299.238 87.3761 299.382 87.5325 299.565 87.6447C299.754 87.7509 299.972 87.804 300.22 87.804ZM305.752 90.7882C305.209 90.7882 304.769 90.6583 304.433 90.3985C304.096 90.1388 303.863 89.7935 303.733 89.3625L304.698 89.3005C304.769 89.4953 304.89 89.6488 305.061 89.761C305.238 89.8672 305.469 89.9204 305.752 89.9204C306.248 89.9204 306.623 89.7256 306.877 89.336C307.136 88.9463 307.269 88.3147 307.275 87.441L307.452 87.4853C307.305 87.8572 307.08 88.1405 306.779 88.3353C306.484 88.5302 306.136 88.6276 305.734 88.6276C305.321 88.6276 304.958 88.539 304.645 88.3619C304.332 88.1789 304.087 87.9251 303.91 87.6004C303.733 87.2757 303.645 86.8979 303.645 86.4669C303.645 86.0006 303.739 85.6021 303.928 85.2715C304.117 84.935 304.38 84.6753 304.716 84.4923C305.053 84.3093 305.442 84.2178 305.885 84.2178C306.428 84.2178 306.871 84.3388 307.213 84.5808C307.561 84.8229 307.818 85.1653 307.984 85.608C308.155 86.0449 308.24 86.5703 308.24 87.1842C308.24 87.7155 308.196 88.2025 308.107 88.6453C308.019 89.088 307.874 89.4688 307.674 89.7876C307.479 90.1063 307.222 90.3543 306.903 90.5314C306.59 90.7026 306.207 90.7882 305.752 90.7882ZM305.867 87.804C306.133 87.804 306.366 87.7509 306.567 87.6447C306.767 87.5384 306.924 87.3879 307.036 87.1931C307.148 86.9923 307.204 86.7503 307.204 86.4669C307.204 86.1954 307.151 85.9563 307.045 85.7497C306.945 85.5372 306.797 85.3719 306.602 85.2538C306.407 85.1298 306.174 85.0679 305.903 85.0679C305.637 85.0679 305.407 85.1269 305.212 85.245C305.023 85.363 304.875 85.5283 304.769 85.7408C304.669 85.9475 304.619 86.1865 304.619 86.4581C304.619 86.7355 304.672 86.9746 304.778 87.1753C304.884 87.3761 305.029 87.5325 305.212 87.6447C305.401 87.7509 305.619 87.804 305.867 87.804ZM308.968 90.6465V89.5308H310.11V90.6465H308.968ZM313.111 90.7882C312.568 90.7882 312.128 90.6583 311.792 90.3985C311.455 90.1388 311.222 89.7935 311.092 89.3625L312.057 89.3005C312.128 89.4953 312.249 89.6488 312.42 89.761C312.597 89.8672 312.828 89.9204 313.111 89.9204C313.607 89.9204 313.982 89.7256 314.236 89.336C314.495 88.9463 314.628 88.3147 314.634 87.441L314.811 87.4853C314.664 87.8572 314.439 88.1405 314.138 88.3353C313.843 88.5302 313.495 88.6276 313.093 88.6276C312.68 88.6276 312.317 88.539 312.004 88.3619C311.691 88.1789 311.446 87.9251 311.269 87.6004C311.092 87.2757 311.004 86.8979 311.004 86.4669C311.004 86.0006 311.098 85.6021 311.287 85.2715C311.476 84.935 311.738 84.6753 312.075 84.4923C312.411 84.3093 312.801 84.2178 313.244 84.2178C313.787 84.2178 314.23 84.3388 314.572 84.5808C314.92 84.8229 315.177 85.1653 315.342 85.608C315.514 86.0449 315.599 86.5703 315.599 87.1842C315.599 87.7155 315.555 88.2025 315.466 88.6453C315.378 89.088 315.233 89.4688 315.033 89.7876C314.838 90.1063 314.581 90.3543 314.262 90.5314C313.949 90.7026 313.566 90.7882 313.111 90.7882ZM313.226 87.804C313.492 87.804 313.725 87.7509 313.926 87.6447C314.126 87.5384 314.283 87.3879 314.395 87.1931C314.507 86.9923 314.563 86.7503 314.563 86.4669C314.563 86.1954 314.51 85.9563 314.404 85.7497C314.303 85.5372 314.156 85.3719 313.961 85.2538C313.766 85.1298 313.533 85.0679 313.262 85.0679C312.996 85.0679 312.766 85.1269 312.571 85.245C312.382 85.363 312.234 85.5283 312.128 85.7408C312.028 85.9475 311.978 86.1865 311.978 86.4581C311.978 86.7355 312.031 86.9746 312.137 87.1753C312.243 87.3761 312.388 87.5325 312.571 87.6447C312.76 87.7509 312.978 87.804 313.226 87.804ZM318.899 90.7882C318.421 90.7882 317.999 90.7173 317.633 90.5756C317.267 90.434 316.981 90.2244 316.774 89.9469C316.574 89.6695 316.473 89.33 316.473 88.9286C316.473 88.4682 316.612 88.0874 316.889 87.7863C317.167 87.4853 317.539 87.2846 318.005 87.1842L318.023 87.3613C317.645 87.2727 317.341 87.1104 317.111 86.8743C316.886 86.6381 316.774 86.3282 316.774 85.9445C316.774 85.608 316.86 85.3099 317.031 85.0502C317.202 84.7904 317.444 84.5867 317.757 84.4392C318.076 84.2916 318.457 84.2178 318.899 84.2178C319.336 84.2178 319.714 84.2916 320.033 84.4392C320.352 84.5867 320.594 84.7904 320.759 85.0502C320.93 85.3099 321.016 85.608 321.016 85.9445C321.016 86.3282 320.904 86.6381 320.679 86.8743C320.455 87.1045 320.151 87.2668 319.767 87.3613L319.785 87.1842C320.257 87.2846 320.632 87.4853 320.91 87.7863C321.187 88.0874 321.326 88.4682 321.326 88.9286C321.326 89.33 321.222 89.6695 321.016 89.9469C320.815 90.2244 320.532 90.434 320.166 90.5756C319.8 90.7173 319.378 90.7882 318.899 90.7882ZM318.899 89.9115C319.336 89.9115 319.682 89.823 319.935 89.6459C320.195 89.4629 320.325 89.1913 320.325 88.8312C320.325 88.4888 320.207 88.2143 319.971 88.0077C319.741 87.8011 319.384 87.6978 318.899 87.6978C318.415 87.6978 318.055 87.8011 317.819 88.0077C317.583 88.2143 317.465 88.4888 317.465 88.8312C317.465 89.1913 317.595 89.4629 317.855 89.6459C318.114 89.823 318.463 89.9115 318.899 89.9115ZM318.899 86.9097C319.26 86.9097 319.537 86.8359 319.732 86.6883C319.933 86.5348 320.033 86.3017 320.033 85.9888C320.033 85.7172 319.935 85.4988 319.741 85.3335C319.552 85.1682 319.271 85.0856 318.899 85.0856C318.528 85.0856 318.244 85.1682 318.049 85.3335C317.855 85.4988 317.757 85.7172 317.757 85.9888C317.757 86.3017 317.858 86.5348 318.058 86.6883C318.259 86.8359 318.539 86.9097 318.899 86.9097ZM323.433 87.4056C323.026 87.4056 322.689 87.2727 322.424 87.0071C322.164 86.7414 322.034 86.3548 322.034 85.8471C322.034 85.3335 322.164 84.9468 322.424 84.6871C322.689 84.4215 323.026 84.2886 323.433 84.2886C323.841 84.2886 324.174 84.4215 324.434 84.6871C324.694 84.9468 324.823 85.3335 324.823 85.8471C324.823 86.3548 324.694 86.7414 324.434 87.0071C324.174 87.2727 323.841 87.4056 323.433 87.4056ZM323.433 86.8123C323.658 86.8123 323.826 86.7296 323.938 86.5644C324.05 86.3991 324.106 86.16 324.106 85.8471C324.106 85.5342 324.05 85.2951 323.938 85.1298C323.826 84.9646 323.658 84.8819 323.433 84.8819C323.215 84.8819 323.047 84.9646 322.928 85.1298C322.816 85.2951 322.76 85.5342 322.76 85.8471C322.76 86.16 322.816 86.3991 322.928 86.5644C323.047 86.7296 323.215 86.8123 323.433 86.8123ZM327.064 90.7173C326.662 90.7173 326.329 90.5845 326.063 90.3189C325.797 90.0532 325.665 89.6665 325.665 89.1589C325.665 88.6453 325.797 88.2586 326.063 87.9989C326.329 87.7332 326.662 87.6004 327.064 87.6004C327.477 87.6004 327.813 87.7332 328.073 87.9989C328.333 88.2586 328.463 88.6453 328.463 89.1589C328.463 89.6665 328.333 90.0532 328.073 90.3189C327.813 90.5845 327.477 90.7173 327.064 90.7173ZM327.064 90.124C327.288 90.124 327.456 90.0414 327.568 89.8761C327.681 89.7108 327.737 89.4717 327.737 89.1589C327.737 88.846 327.681 88.6069 327.568 88.4416C327.456 88.2763 327.288 88.1937 327.064 88.1937C326.845 88.1937 326.677 88.2763 326.559 88.4416C326.447 88.6069 326.391 88.846 326.391 89.1589C326.391 89.4717 326.447 89.7108 326.559 89.8761C326.677 90.0414 326.845 90.124 327.064 90.124ZM322.734 90.6465L327.019 84.3595H327.763L323.477 90.6465H322.734Z" fill="#2E2E2E"/>
<path d="M299.095 98.6441C298.816 98.6441 298.573 98.5933 298.367 98.4916C298.163 98.39 298.003 98.2489 297.885 98.0686C297.767 97.8882 297.698 97.6783 297.678 97.4389L298.224 97.4044C298.247 97.5684 298.295 97.7078 298.367 97.8226C298.439 97.9341 298.536 98.0194 298.657 98.0784C298.782 98.1342 298.931 98.162 299.105 98.162C299.256 98.162 299.383 98.144 299.488 98.1079C299.597 98.0686 299.679 98.0112 299.734 97.9357C299.79 97.8603 299.818 97.7685 299.818 97.6603C299.818 97.5619 299.793 97.475 299.744 97.3995C299.698 97.3208 299.608 97.2503 299.474 97.188C299.342 97.1224 299.149 97.0584 298.893 96.9961C298.614 96.9273 298.391 96.8518 298.224 96.7698C298.057 96.6879 297.936 96.5862 297.86 96.4648C297.788 96.3402 297.752 96.1877 297.752 96.0073C297.752 95.8073 297.799 95.6318 297.895 95.481C297.993 95.3268 298.132 95.2071 298.313 95.1218C298.493 95.0366 298.71 94.9939 298.962 94.9939C299.228 94.9939 299.454 95.0431 299.641 95.1415C299.831 95.2399 299.98 95.3744 300.089 95.5449C300.2 95.7154 300.269 95.9106 300.295 96.1303L299.749 96.1598C299.733 96.0254 299.692 95.9073 299.626 95.8056C299.561 95.7007 299.472 95.6203 299.361 95.5646C299.249 95.5056 299.113 95.476 298.952 95.476C298.749 95.476 298.588 95.5236 298.47 95.6187C298.355 95.7105 298.298 95.8335 298.298 95.9877C298.298 96.086 298.321 96.1697 298.367 96.2385C298.416 96.3041 298.501 96.3615 298.623 96.4107C298.747 96.4599 298.923 96.5124 299.149 96.5681C299.451 96.637 299.69 96.7223 299.867 96.824C300.048 96.9223 300.176 97.0388 300.251 97.1732C300.326 97.3077 300.364 97.4602 300.364 97.6307C300.364 97.8374 300.31 98.0177 300.202 98.1719C300.097 98.3227 299.949 98.4392 299.759 98.5212C299.569 98.6031 299.347 98.6441 299.095 98.6441ZM301.861 98.6245C301.599 98.6245 301.389 98.5376 301.231 98.3637C301.077 98.1866 301 97.9423 301 97.6307V95.9483H301.522V97.4979C301.522 97.734 301.563 97.9079 301.645 98.0194C301.727 98.1309 301.851 98.1866 302.018 98.1866C302.209 98.1866 302.356 98.126 302.461 98.0046C302.569 97.88 302.624 97.7062 302.624 97.4832V95.9483H303.145V98.5654H302.658L302.648 97.8816L302.722 97.9111C302.676 98.1407 302.579 98.3178 302.432 98.4424C302.284 98.5638 302.094 98.6245 301.861 98.6245ZM304.912 98.6245C304.663 98.6245 304.445 98.5687 304.258 98.4572C304.071 98.3457 303.926 98.1866 303.825 97.98C303.723 97.7734 303.672 97.5324 303.672 97.2569C303.672 96.9814 303.723 96.742 303.825 96.5386C303.926 96.332 304.071 96.173 304.258 96.0614C304.445 95.9467 304.663 95.8893 304.912 95.8893C305.125 95.8893 305.314 95.927 305.478 96.0024C305.645 96.0746 305.779 96.1812 305.881 96.3222C305.986 96.4632 306.053 96.6354 306.083 96.8387L305.537 96.8682C305.51 96.6977 305.442 96.5681 305.33 96.4796C305.219 96.3878 305.079 96.3419 304.912 96.3419C304.692 96.3419 304.52 96.4238 304.395 96.5878C304.274 96.7485 304.213 96.9715 304.213 97.2569C304.213 97.5422 304.274 97.7668 304.395 97.9308C304.52 98.0915 304.692 98.1719 304.912 98.1719C305.079 98.1719 305.219 98.126 305.33 98.0341C305.442 97.939 305.51 97.7964 305.537 97.6061L306.083 97.6357C306.053 97.8357 305.986 98.0095 305.881 98.1571C305.779 98.3047 305.645 98.4195 305.478 98.5015C305.314 98.5835 305.125 98.6245 304.912 98.6245ZM307.636 98.6245C307.387 98.6245 307.169 98.5687 306.982 98.4572C306.795 98.3457 306.65 98.1866 306.549 97.98C306.447 97.7734 306.396 97.5324 306.396 97.2569C306.396 96.9814 306.447 96.742 306.549 96.5386C306.65 96.332 306.795 96.173 306.982 96.0614C307.169 95.9467 307.387 95.8893 307.636 95.8893C307.849 95.8893 308.038 95.927 308.202 96.0024C308.369 96.0746 308.503 96.1812 308.605 96.3222C308.71 96.4632 308.777 96.6354 308.807 96.8387L308.261 96.8682C308.234 96.6977 308.166 96.5681 308.054 96.4796C307.943 96.3878 307.803 96.3419 307.636 96.3419C307.416 96.3419 307.244 96.4238 307.119 96.5878C306.998 96.7485 306.937 96.9715 306.937 97.2569C306.937 97.5422 306.998 97.7668 307.119 97.9308C307.244 98.0915 307.416 98.1719 307.636 98.1719C307.803 98.1719 307.943 98.126 308.054 98.0341C308.166 97.939 308.234 97.7964 308.261 97.6061L308.807 97.6357C308.777 97.8357 308.71 98.0095 308.605 98.1571C308.503 98.3047 308.369 98.4195 308.202 98.5015C308.038 98.5835 307.849 98.6245 307.636 98.6245ZM310.36 98.6245C310.104 98.6245 309.883 98.5687 309.696 98.4572C309.512 98.3457 309.369 98.1866 309.268 97.98C309.169 97.7734 309.12 97.5324 309.12 97.2569C309.12 96.9814 309.169 96.742 309.268 96.5386C309.369 96.332 309.512 96.173 309.696 96.0614C309.879 95.9467 310.096 95.8893 310.345 95.8893C310.581 95.8893 310.789 95.945 310.97 96.0565C311.15 96.1648 311.29 96.3222 311.388 96.5288C311.49 96.7354 311.54 96.9847 311.54 97.2765V97.4094H309.661C309.674 97.6652 309.742 97.857 309.863 97.9849C309.988 98.1128 310.155 98.1768 310.365 98.1768C310.519 98.1768 310.647 98.1407 310.748 98.0686C310.85 97.9964 310.921 97.8997 310.96 97.7783L311.501 97.8128C311.432 98.0554 311.296 98.2522 311.093 98.4031C310.893 98.5507 310.648 98.6245 310.36 98.6245ZM309.661 97.0158H310.989C310.973 96.783 310.906 96.6108 310.788 96.4993C310.673 96.3878 310.525 96.332 310.345 96.332C310.158 96.332 310.004 96.391 309.883 96.5091C309.765 96.6239 309.691 96.7928 309.661 97.0158ZM313.077 98.6245C312.831 98.6245 312.623 98.5867 312.453 98.5113C312.285 98.4359 312.156 98.3326 312.064 98.2014C311.972 98.0669 311.92 97.9128 311.907 97.739L312.443 97.7144C312.469 97.8587 312.531 97.9735 312.63 98.0587C312.728 98.144 312.877 98.1866 313.077 98.1866C313.241 98.1866 313.371 98.1604 313.466 98.1079C313.561 98.0554 313.609 97.9718 313.609 97.857C313.609 97.7947 313.592 97.7422 313.559 97.6996C313.53 97.6537 313.471 97.616 313.382 97.5865C313.294 97.5537 313.163 97.5225 312.989 97.493C312.73 97.4438 312.526 97.3864 312.379 97.3208C312.231 97.2552 312.126 97.1716 312.064 97.0699C312.002 96.9683 311.97 96.8453 311.97 96.701C311.97 96.4616 312.059 96.2664 312.236 96.1156C312.416 95.9647 312.676 95.8893 313.013 95.8893C313.24 95.8893 313.43 95.9286 313.584 96.0073C313.738 96.0828 313.858 96.1861 313.943 96.3173C314.032 96.4452 314.087 96.5895 314.11 96.7502L313.574 96.7797C313.558 96.6879 313.525 96.6091 313.476 96.5435C313.43 96.4747 313.368 96.4222 313.289 96.3861C313.21 96.3468 313.117 96.3271 313.008 96.3271C312.841 96.3271 312.717 96.3599 312.635 96.4255C312.553 96.4911 312.512 96.5763 312.512 96.6813C312.512 96.76 312.53 96.824 312.566 96.8731C312.605 96.9223 312.667 96.9633 312.753 96.9961C312.838 97.0257 312.951 97.0519 313.092 97.0748C313.364 97.1208 313.577 97.1782 313.732 97.247C313.886 97.3126 313.994 97.3946 314.056 97.493C314.119 97.5914 314.15 97.7111 314.15 97.8521C314.15 98.0161 314.104 98.1555 314.012 98.2703C313.92 98.3851 313.794 98.4736 313.633 98.5359C313.473 98.5949 313.287 98.6245 313.077 98.6245ZM315.686 98.6245C315.44 98.6245 315.232 98.5867 315.061 98.5113C314.894 98.4359 314.764 98.3326 314.673 98.2014C314.581 98.0669 314.528 97.9128 314.515 97.739L315.051 97.7144C315.078 97.8587 315.14 97.9735 315.238 98.0587C315.337 98.144 315.486 98.1866 315.686 98.1866C315.85 98.1866 315.979 98.1604 316.075 98.1079C316.17 98.0554 316.217 97.9718 316.217 97.857C316.217 97.7947 316.201 97.7422 316.168 97.6996C316.139 97.6537 316.08 97.616 315.991 97.5865C315.902 97.5537 315.771 97.5225 315.597 97.493C315.338 97.4438 315.135 97.3864 314.987 97.3208C314.84 97.2552 314.735 97.1716 314.673 97.0699C314.61 96.9683 314.579 96.8453 314.579 96.701C314.579 96.4616 314.668 96.2664 314.845 96.1156C315.025 95.9647 315.284 95.8893 315.622 95.8893C315.848 95.8893 316.039 95.9286 316.193 96.0073C316.347 96.0828 316.467 96.1861 316.552 96.3173C316.64 96.4452 316.696 96.5895 316.719 96.7502L316.183 96.7797C316.166 96.6879 316.134 96.6091 316.084 96.5435C316.039 96.4747 315.976 96.4222 315.897 96.3861C315.819 96.3468 315.725 96.3271 315.617 96.3271C315.45 96.3271 315.325 96.3599 315.243 96.4255C315.161 96.4911 315.12 96.5763 315.12 96.6813C315.12 96.76 315.138 96.824 315.174 96.8731C315.214 96.9223 315.276 96.9633 315.361 96.9961C315.447 97.0257 315.56 97.0519 315.701 97.0748C315.973 97.1208 316.186 97.1782 316.34 97.247C316.494 97.3126 316.603 97.3946 316.665 97.493C316.727 97.5914 316.758 97.7111 316.758 97.8521C316.758 98.0161 316.712 98.1555 316.621 98.2703C316.529 98.3851 316.403 98.4736 316.242 98.5359C316.081 98.5949 315.896 98.6245 315.686 98.6245ZM318.585 98.5654V95.0726H319.977C320.226 95.0726 320.441 95.1153 320.621 95.2005C320.802 95.2858 320.941 95.4072 321.039 95.5646C321.138 95.722 321.187 95.9089 321.187 96.1254C321.187 96.2828 321.151 96.4238 321.079 96.5485C321.01 96.6731 320.916 96.7731 320.798 96.8486C320.683 96.9207 320.56 96.9617 320.429 96.9715L320.405 96.9273C320.624 96.9273 320.795 96.9781 320.916 97.0798C321.038 97.1782 321.108 97.3339 321.128 97.5471L321.221 98.5654H320.685L320.601 97.616C320.592 97.475 320.544 97.3717 320.459 97.3061C320.374 97.2372 320.234 97.2028 320.041 97.2028H319.116V98.5654H318.585ZM319.116 96.7157H319.987C320.187 96.7157 320.344 96.6665 320.459 96.5681C320.577 96.4665 320.636 96.3238 320.636 96.1402C320.636 95.9532 320.577 95.8106 320.459 95.7122C320.341 95.6105 320.169 95.5597 319.942 95.5597H319.116V96.7157ZM322.583 98.6245C322.311 98.6245 322.093 98.5622 321.929 98.4375C321.768 98.3129 321.688 98.1374 321.688 97.9111C321.688 97.6849 321.755 97.5094 321.889 97.3848C322.027 97.2569 322.239 97.165 322.524 97.1093L323.424 96.9371C323.424 96.7338 323.377 96.5829 323.282 96.4845C323.186 96.3828 323.045 96.332 322.859 96.332C322.691 96.332 322.56 96.3697 322.465 96.4452C322.37 96.5173 322.304 96.6255 322.268 96.7698L321.732 96.7354C321.781 96.473 321.903 96.2664 322.096 96.1156C322.293 95.9647 322.547 95.8893 322.859 95.8893C323.213 95.8893 323.482 95.9844 323.665 96.1746C323.852 96.3615 323.946 96.6255 323.946 96.9666V97.9849C323.946 98.0473 323.956 98.0915 323.975 98.1178C323.998 98.1407 324.034 98.1522 324.083 98.1522H324.177V98.5654C324.161 98.5687 324.134 98.572 324.098 98.5753C324.062 98.5785 324.024 98.5802 323.985 98.5802C323.874 98.5802 323.777 98.5622 323.695 98.5261C323.616 98.49 323.557 98.431 323.518 98.349C323.478 98.2637 323.459 98.1506 323.459 98.0095L323.513 98.0341C323.487 98.1489 323.429 98.2506 323.341 98.3391C323.255 98.4277 323.145 98.4982 323.011 98.5507C322.88 98.5999 322.737 98.6245 322.583 98.6245ZM322.667 98.2112C322.824 98.2112 322.959 98.1817 323.07 98.1227C323.182 98.0604 323.268 97.9751 323.331 97.8669C323.393 97.7586 323.424 97.6357 323.424 97.4979V97.3307L322.657 97.4782C322.499 97.5078 322.388 97.5553 322.322 97.6209C322.26 97.6832 322.229 97.7636 322.229 97.862C322.229 97.9735 322.267 98.0604 322.342 98.1227C322.421 98.1817 322.529 98.2112 322.667 98.2112ZM325.486 98.5654C325.237 98.5654 325.053 98.508 324.935 98.3933C324.817 98.2785 324.758 98.0997 324.758 97.857V95.3334H325.28V97.8177C325.28 97.939 325.306 98.0227 325.358 98.0686C325.411 98.1145 325.491 98.1374 325.599 98.1374H325.973V98.5654H325.486ZM324.36 96.3763V95.9483H325.973V96.3763H324.36ZM327.506 98.6245C327.25 98.6245 327.029 98.5687 326.842 98.4572C326.658 98.3457 326.515 98.1866 326.414 97.98C326.315 97.7734 326.266 97.5324 326.266 97.2569C326.266 96.9814 326.315 96.742 326.414 96.5386C326.515 96.332 326.658 96.173 326.842 96.0614C327.025 95.9467 327.242 95.8893 327.491 95.8893C327.727 95.8893 327.935 95.945 328.116 96.0565C328.296 96.1648 328.435 96.3222 328.534 96.5288C328.636 96.7354 328.686 96.9847 328.686 97.2765V97.4094H326.807C326.82 97.6652 326.888 97.857 327.009 97.9849C327.133 98.1128 327.301 98.1768 327.511 98.1768C327.665 98.1768 327.793 98.1407 327.894 98.0686C327.996 97.9964 328.067 97.8997 328.106 97.7783L328.647 97.8128C328.578 98.0554 328.442 98.2522 328.239 98.4031C328.039 98.5507 327.794 98.6245 327.506 98.6245ZM326.807 97.0158H328.135C328.119 96.783 328.052 96.6108 327.934 96.4993C327.819 96.3878 327.671 96.332 327.491 96.332C327.304 96.332 327.15 96.391 327.029 96.5091C326.91 96.6239 326.837 96.7928 326.807 97.0158Z" fill="#2E2E2E"/>
<defs>
<filter id="filter0_d_18_17509" x="173.743" y="72.439" width="86.4497" height="31.7241" filterUnits="userSpaceOnUse" color-interpolation-filters="sRGB">
<feFlood flood-opacity="0" result="BackgroundImageFix"/>
<feColorMatrix in="SourceAlpha" type="matrix" values="0 0 0 0 0 0 0 0 0 0 0 0 0 0 0 0 0 0 127 0" result="hardAlpha"/>
<feOffset dy="0.491942"/>
<feGaussianBlur stdDeviation="0.737913"/>
<feComposite in2="hardAlpha" operator="out"/>
<feColorMatrix type="matrix" values="0 0 0 0 0.180392 0 0 0 0 0.180392 0 0 0 0 0.180392 0 0 0 0.06 0"/>
<feBlend mode="normal" in2="BackgroundImageFix" result="effect1_dropShadow_18_17509"/>
<feBlend mode="normal" in="SourceGraphic" in2="effect1_dropShadow_18_17509" result="shape"/>
</filter>
<filter id="filter1_d_18_17509" x="173.934" y="0.770022" width="86.4497" height="31.7241" filterUnits="userSpaceOnUse" color-interpolation-filters="sRGB">
<feFlood flood-opacity="0" result="BackgroundImageFix"/>
<feColorMatrix in="SourceAlpha" type="matrix" values="0 0 0 0 0 0 0 0 0 0 0 0 0 0 0 0 0 0 127 0" result="hardAlpha"/>
<feOffset dy="0.491942"/>
<feGaussianBlur stdDeviation="0.737913"/>
<feComposite in2="hardAlpha" operator="out"/>
<feColorMatrix type="matrix" values="0 0 0 0 0.180392 0 0 0 0 0.180392 0 0 0 0 0.180392 0 0 0 0.06 0"/>
<feBlend mode="normal" in2="BackgroundImageFix" result="effect1_dropShadow_18_17509"/>
<feBlend mode="normal" in="SourceGraphic" in2="effect1_dropShadow_18_17509" result="shape"/>
</filter>
<filter id="filter2_d_18_17509" x="173.743" y="109.489" width="86.4497" height="31.7241" filterUnits="userSpaceOnUse" color-interpolation-filters="sRGB">
<feFlood flood-opacity="0" result="BackgroundImageFix"/>
<feColorMatrix in="SourceAlpha" type="matrix" values="0 0 0 0 0 0 0 0 0 0 0 0 0 0 0 0 0 0 127 0" result="hardAlpha"/>
<feOffset dy="0.491942"/>
<feGaussianBlur stdDeviation="0.737913"/>
<feComposite in2="hardAlpha" operator="out"/>
<feColorMatrix type="matrix" values="0 0 0 0 0.180392 0 0 0 0 0.180392 0 0 0 0 0.180392 0 0 0 0.06 0"/>
<feBlend mode="normal" in2="BackgroundImageFix" result="effect1_dropShadow_18_17509"/>
<feBlend mode="normal" in="SourceGraphic" in2="effect1_dropShadow_18_17509" result="shape"/>
</filter>
<filter id="filter3_d_18_17509" x="173.743" y="36.4917" width="86.4497" height="31.7241" filterUnits="userSpaceOnUse" color-interpolation-filters="sRGB">
<feFlood flood-opacity="0" result="BackgroundImageFix"/>
<feColorMatrix in="SourceAlpha" type="matrix" values="0 0 0 0 0 0 0 0 0 0 0 0 0 0 0 0 0 0 127 0" result="hardAlpha"/>
<feOffset dy="0.491942"/>
<feGaussianBlur stdDeviation="0.737913"/>
<feComposite in2="hardAlpha" operator="out"/>
<feColorMatrix type="matrix" values="0 0 0 0 0.180392 0 0 0 0 0.180392 0 0 0 0 0.180392 0 0 0 0.06 0"/>
<feBlend mode="normal" in2="BackgroundImageFix" result="effect1_dropShadow_18_17509"/>
<feBlend mode="normal" in="SourceGraphic" in2="effect1_dropShadow_18_17509" result="shape"/>
</filter>
<filter id="filter4_d_18_17509" x="0.278081" y="54.8833" width="70.8398" height="31.4849" filterUnits="userSpaceOnUse" color-interpolation-filters="sRGB">
<feFlood flood-opacity="0" result="BackgroundImageFix"/>
<feColorMatrix in="SourceAlpha" type="matrix" values="0 0 0 0 0 0 0 0 0 0 0 0 0 0 0 0 0 0 127 0" result="hardAlpha"/>
<feOffset dy="0.491942"/>
<feGaussianBlur stdDeviation="0.737913"/>
<feComposite in2="hardAlpha" operator="out"/>
<feColorMatrix type="matrix" values="0 0 0 0 0.180392 0 0 0 0 0.180392 0 0 0 0 0.180392 0 0 0 0.06 0"/>
<feBlend mode="normal" in2="BackgroundImageFix" result="effect1_dropShadow_18_17509"/>
<feBlend mode="normal" in="SourceGraphic" in2="effect1_dropShadow_18_17509" result="shape"/>
</filter>
</defs>
</svg>
