<svg width="664" height="286" viewBox="0 0 664 286" fill="none" xmlns="http://www.w3.org/2000/svg">
<g filter="url(#filter0_d_18_7139)">
<path d="M514.752 148.686H367.205C361.355 148.686 356.613 153.428 356.613 159.278V195.582C356.613 201.432 361.355 206.174 367.205 206.174H514.752C520.602 206.174 525.344 201.432 525.344 195.582V159.278C525.344 153.428 520.602 148.686 514.752 148.686Z" fill="#F9F9F9"/>
<path d="M514.752 148.686H367.205C361.355 148.686 356.613 153.428 356.613 159.278V195.582C356.613 201.432 361.355 206.174 367.205 206.174H514.752C520.602 206.174 525.344 201.432 525.344 195.582V159.278C525.344 153.428 520.602 148.686 514.752 148.686Z" stroke="#E0E0E0" stroke-miterlimit="10"/>
</g>
<path d="M349.994 32H336.886C329.576 32.0002 323.656 37.9194 323.656 45.2295V112.929C325.745 107.669 330.879 103.952 336.886 103.952H349.994V104.952H336.886C329.576 104.952 323.656 110.872 323.656 118.182V128.112C323.656 134.784 319.071 140.377 312.879 141.919C319.078 143.456 323.669 149.053 323.669 155.729V164.354C323.962 171.404 329.763 177.023 336.886 177.023H349.994V178.023H336.886C330.89 178.023 325.765 174.321 323.669 169.076V236.626C323.669 243.936 329.589 249.856 336.899 249.856H350.007V250.856H336.899C329.037 250.856 322.669 244.489 322.669 236.626V164.369C322.661 164.178 322.656 163.987 322.656 163.794H322.669V155.729C322.669 148.419 316.75 142.5 309.439 142.5H237V141.342H309.427C316.737 141.342 322.656 135.423 322.656 128.112V45.2295C322.656 37.3671 329.023 31.0002 336.886 31H349.994V32Z" fill="#E0E0E0"/>
<path d="M537.012 32H550.12C557.43 32.0002 563.349 37.9194 563.35 45.2295V112.929C561.261 107.669 556.127 103.952 550.12 103.952H537.012V104.952H550.12C557.43 104.952 563.349 110.872 563.35 118.182V128.112C563.35 134.784 567.934 140.377 574.127 141.919C567.928 143.456 563.337 149.053 563.337 155.729V164.354C563.044 171.404 557.243 177.023 550.12 177.023H537.012V178.023H550.12C556.116 178.023 561.241 174.321 563.337 169.076V236.626C563.337 243.936 557.417 249.856 550.106 249.856H536.999V250.856H550.106C557.969 250.856 564.337 244.489 564.337 236.626V164.369C564.344 164.178 564.35 163.987 564.35 163.794H564.337V155.729C564.337 148.419 570.256 142.5 577.566 142.5H650.006V141.342H577.579C570.269 141.342 564.35 135.423 564.35 128.112V45.2295C564.349 37.3671 557.982 31.0002 550.12 31H537.012V32Z" fill="#F9D94A"/>
<g filter="url(#filter1_d_18_7139)">
<path d="M515.139 3H367.592C361.742 3 357 7.74221 357 13.592V49.8962C357 55.746 361.742 60.4882 367.592 60.4882H515.139C520.989 60.4882 525.731 55.746 525.731 49.8962V13.592C525.731 7.74221 520.989 3 515.139 3Z" fill="#F9F9F9"/>
<path d="M515.139 3H367.592C361.742 3 357 7.74221 357 13.592V49.8962C357 55.746 361.742 60.4882 367.592 60.4882H515.139C520.989 60.4882 525.731 55.746 525.731 49.8962V13.592C525.731 7.74221 520.989 3 515.139 3Z" stroke="#E0E0E0" stroke-miterlimit="10"/>
</g>
<g filter="url(#filter2_d_18_7139)">
<path d="M514.752 224H367.205C361.355 224 356.613 228.742 356.613 234.592V270.896C356.613 276.746 361.355 281.488 367.205 281.488H514.752C520.602 281.488 525.344 276.746 525.344 270.896V234.592C525.344 228.742 520.602 224 514.752 224Z" fill="#F9F9F9"/>
<path d="M514.752 224H367.205C361.355 224 356.613 228.742 356.613 234.592V270.896C356.613 276.746 361.355 281.488 367.205 281.488H514.752C520.602 281.488 525.344 276.746 525.344 270.896V234.592C525.344 228.742 520.602 224 514.752 224Z" stroke="#E0E0E0" stroke-miterlimit="10" stroke-dasharray="3 3"/>
</g>
<g filter="url(#filter3_d_18_7139)">
<path d="M514.752 75.6143H367.205C361.355 75.6143 356.613 80.3565 356.613 86.2063V122.51C356.613 128.36 361.355 133.102 367.205 133.102H514.752C520.602 133.102 525.344 128.36 525.344 122.51V86.2063C525.344 80.3565 520.602 75.6143 514.752 75.6143Z" fill="#F9F9F9"/>
<path d="M514.752 75.6143H367.205C361.355 75.6143 356.613 80.3565 356.613 86.2063V122.51C356.613 128.36 361.355 133.102 367.205 133.102H514.752C520.602 133.102 525.344 128.36 525.344 122.51V86.2063C525.344 80.3565 520.602 75.6143 514.752 75.6143Z" stroke="#E0E0E0" stroke-miterlimit="10"/>
</g>
<path d="M421.302 36V26.06H424.788C425.88 26.06 426.729 26.326 427.336 26.858C427.952 27.3807 428.26 28.104 428.26 29.028C428.26 29.6347 428.12 30.162 427.84 30.61C427.569 31.058 427.173 31.4033 426.65 31.646C426.137 31.8793 425.516 31.996 424.788 31.996H422.254V36H421.302ZM422.254 31.072H424.788C425.6 31.072 426.211 30.8993 426.622 30.554C427.042 30.2087 427.252 29.7 427.252 29.028C427.252 28.356 427.042 27.8473 426.622 27.502C426.211 27.1567 425.6 26.984 424.788 26.984H422.254V31.072ZM429.994 36V28.58H430.792L430.848 30.61L430.722 30.54C430.843 29.8773 431.062 29.3873 431.38 29.07C431.697 28.7433 432.136 28.58 432.696 28.58H433.34V29.476H432.668C432.294 29.476 431.977 29.56 431.716 29.728C431.454 29.8867 431.254 30.1153 431.114 30.414C430.983 30.7127 430.918 31.0673 430.918 31.478V36H429.994ZM437.388 36.168C436.716 36.168 436.128 36.0093 435.624 35.692C435.129 35.3747 434.746 34.9267 434.476 34.348C434.205 33.76 434.07 33.074 434.07 32.29C434.07 31.4967 434.205 30.8107 434.476 30.232C434.746 29.6533 435.129 29.2053 435.624 28.888C436.128 28.5707 436.716 28.412 437.388 28.412C438.06 28.412 438.643 28.5707 439.138 28.888C439.632 29.2053 440.015 29.6533 440.286 30.232C440.556 30.8107 440.692 31.4967 440.692 32.29C440.692 33.074 440.556 33.76 440.286 34.348C440.015 34.9267 439.632 35.3747 439.138 35.692C438.643 36.0093 438.06 36.168 437.388 36.168ZM437.388 35.286C438.116 35.286 438.685 35.02 439.096 34.488C439.516 33.9467 439.726 33.214 439.726 32.29C439.726 31.366 439.516 30.638 439.096 30.106C438.685 29.5647 438.116 29.294 437.388 29.294C436.66 29.294 436.086 29.5647 435.666 30.106C435.246 30.638 435.036 31.366 435.036 32.29C435.036 33.214 435.246 33.9467 435.666 34.488C436.086 35.02 436.66 35.286 437.388 35.286ZM441.358 36L444.102 32.22L441.484 28.58H442.562L444.676 31.59L446.762 28.58H447.868L445.264 32.234L447.98 36H446.902L444.69 32.836L442.45 36H441.358ZM449.148 36V28.58H450.072V36H449.148ZM449.12 27.348V26.102H450.1V27.348H449.12ZM455.053 36.168C454.343 36.168 453.741 36.0047 453.247 35.678C452.752 35.342 452.369 34.8847 452.099 34.306C451.837 33.718 451.707 33.046 451.707 32.29C451.707 31.534 451.837 30.8667 452.099 30.288C452.36 29.7 452.733 29.2427 453.219 28.916C453.713 28.58 454.306 28.412 454.997 28.412C455.659 28.412 456.233 28.5707 456.719 28.888C457.204 29.2053 457.573 29.6533 457.825 30.232C458.086 30.8107 458.217 31.4873 458.217 32.262V32.556H452.673C452.71 33.4333 452.939 34.11 453.359 34.586C453.779 35.0527 454.343 35.286 455.053 35.286C455.594 35.286 456.037 35.1553 456.383 34.894C456.728 34.6327 456.966 34.2873 457.097 33.858L458.091 33.928C457.904 34.5813 457.545 35.118 457.013 35.538C456.481 35.958 455.827 36.168 455.053 36.168ZM452.673 31.73H457.209C457.162 30.9367 456.943 30.3347 456.551 29.924C456.159 29.504 455.641 29.294 454.997 29.294C454.353 29.294 453.825 29.504 453.415 29.924C453.004 30.344 452.757 30.946 452.673 31.73ZM462.499 36.168C461.855 36.168 461.304 36.0653 460.847 35.86C460.399 35.6453 460.049 35.3513 459.797 34.978C459.545 34.6047 459.4 34.1847 459.363 33.718L460.329 33.648C460.385 34.1427 460.59 34.5393 460.945 34.838C461.309 35.1367 461.827 35.286 462.499 35.286C463.087 35.286 463.544 35.188 463.871 34.992C464.197 34.796 464.361 34.4927 464.361 34.082C464.361 33.858 464.309 33.6713 464.207 33.522C464.113 33.3633 463.917 33.228 463.619 33.116C463.32 32.9947 462.872 32.8827 462.275 32.78C461.575 32.6493 461.029 32.4953 460.637 32.318C460.245 32.1313 459.969 31.9027 459.811 31.632C459.652 31.352 459.573 31.0207 459.573 30.638C459.573 29.9753 459.811 29.4387 460.287 29.028C460.763 28.6173 461.425 28.412 462.275 28.412C462.853 28.412 463.343 28.5193 463.745 28.734C464.155 28.9487 464.477 29.2333 464.711 29.588C464.944 29.9333 465.098 30.316 465.173 30.736L464.207 30.82C464.151 30.5307 464.043 30.274 463.885 30.05C463.726 29.8167 463.511 29.6347 463.241 29.504C462.97 29.364 462.643 29.294 462.261 29.294C461.701 29.294 461.271 29.4153 460.973 29.658C460.683 29.8913 460.539 30.204 460.539 30.596C460.539 30.8667 460.599 31.0907 460.721 31.268C460.842 31.436 461.043 31.576 461.323 31.688C461.603 31.7907 461.99 31.884 462.485 31.968C463.222 32.0893 463.796 32.2433 464.207 32.43C464.627 32.6073 464.921 32.8313 465.089 33.102C465.257 33.3633 465.341 33.6853 465.341 34.068C465.341 34.516 465.219 34.8987 464.977 35.216C464.734 35.524 464.398 35.762 463.969 35.93C463.549 36.0887 463.059 36.168 462.499 36.168Z" fill="#2E2E2E"/>
<path d="M446.372 137.326L441.42 144.463L436.998 137.326H446.385H446.372Z" fill="#F9D94A"/>
<path d="M446.372 64L441.42 71.1364L436.998 64H446.385H446.372Z" fill="#F9D94A"/>
<path d="M446.372 211.444L441.42 218.58L436.998 211.444H446.385H446.372Z" fill="#F9D94A"/>
<path d="M421.302 109V99.06H422.254V103.862L421.806 103.512H427.994L427.546 103.862V99.06H428.498V109H427.546V104.072L427.994 104.436H421.806L422.254 104.072V109H421.302ZM433.67 109.168C432.96 109.168 432.358 109.005 431.864 108.678C431.369 108.342 430.986 107.885 430.716 107.306C430.454 106.718 430.324 106.046 430.324 105.29C430.324 104.534 430.454 103.867 430.716 103.288C430.977 102.7 431.35 102.243 431.836 101.916C432.33 101.58 432.923 101.412 433.614 101.412C434.276 101.412 434.85 101.571 435.336 101.888C435.821 102.205 436.19 102.653 436.442 103.232C436.703 103.811 436.834 104.487 436.834 105.262V105.556H431.29C431.327 106.433 431.556 107.11 431.976 107.586C432.396 108.053 432.96 108.286 433.67 108.286C434.211 108.286 434.654 108.155 435 107.894C435.345 107.633 435.583 107.287 435.714 106.858L436.708 106.928C436.521 107.581 436.162 108.118 435.63 108.538C435.098 108.958 434.444 109.168 433.67 109.168ZM431.29 104.73H435.826C435.779 103.937 435.56 103.335 435.168 102.924C434.776 102.504 434.258 102.294 433.614 102.294C432.97 102.294 432.442 102.504 432.032 102.924C431.621 103.344 431.374 103.946 431.29 104.73ZM440.635 109.168C439.889 109.168 439.291 108.991 438.843 108.636C438.395 108.272 438.171 107.782 438.171 107.166C438.171 106.55 438.367 106.065 438.759 105.71C439.151 105.355 439.725 105.108 440.481 104.968L443.225 104.45C443.225 103.713 443.067 103.171 442.749 102.826C442.432 102.471 441.951 102.294 441.307 102.294C440.738 102.294 440.285 102.429 439.949 102.7C439.613 102.971 439.389 103.353 439.277 103.848L438.297 103.764C438.437 103.045 438.764 102.476 439.277 102.056C439.8 101.627 440.477 101.412 441.307 101.412C442.231 101.412 442.936 101.673 443.421 102.196C443.907 102.719 444.149 103.465 444.149 104.436V107.53C444.149 107.782 444.187 107.955 444.261 108.048C444.345 108.132 444.476 108.174 444.653 108.174H444.877V109C444.84 109.009 444.784 109.014 444.709 109.014C444.644 109.023 444.574 109.028 444.499 109.028C444.21 109.028 443.967 108.977 443.771 108.874C443.585 108.771 443.445 108.603 443.351 108.37C443.267 108.137 443.225 107.815 443.225 107.404L443.337 107.418C443.253 107.745 443.081 108.043 442.819 108.314C442.567 108.575 442.25 108.785 441.867 108.944C441.485 109.093 441.074 109.168 440.635 109.168ZM440.719 108.342C441.233 108.342 441.676 108.239 442.049 108.034C442.423 107.829 442.712 107.553 442.917 107.208C443.123 106.853 443.225 106.457 443.225 106.018V105.276L440.677 105.752C440.145 105.855 439.753 106.013 439.501 106.228C439.259 106.443 439.137 106.727 439.137 107.082C439.137 107.483 439.277 107.796 439.557 108.02C439.837 108.235 440.225 108.342 440.719 108.342ZM448.881 109.168C448.237 109.168 447.682 109.009 447.215 108.692C446.749 108.375 446.389 107.927 446.137 107.348C445.885 106.769 445.759 106.083 445.759 105.29C445.759 104.497 445.885 103.811 446.137 103.232C446.389 102.653 446.749 102.205 447.215 101.888C447.682 101.571 448.237 101.412 448.881 101.412C449.423 101.412 449.903 101.547 450.323 101.818C450.753 102.079 451.065 102.434 451.261 102.882V99.06H452.185V109H451.373L451.331 107.614C451.126 108.099 450.799 108.482 450.351 108.762C449.913 109.033 449.423 109.168 448.881 109.168ZM449.035 108.286C449.502 108.286 449.899 108.165 450.225 107.922C450.561 107.67 450.818 107.32 450.995 106.872C451.173 106.415 451.261 105.887 451.261 105.29C451.261 104.693 451.173 104.17 450.995 103.722C450.818 103.274 450.561 102.924 450.225 102.672C449.899 102.42 449.502 102.294 449.035 102.294C448.335 102.294 447.775 102.565 447.355 103.106C446.935 103.638 446.725 104.366 446.725 105.29C446.725 106.205 446.935 106.933 447.355 107.474C447.775 108.015 448.335 108.286 449.035 108.286ZM457.185 109.168C456.476 109.168 455.874 109.005 455.379 108.678C454.885 108.342 454.502 107.885 454.231 107.306C453.97 106.718 453.839 106.046 453.839 105.29C453.839 104.534 453.97 103.867 454.231 103.288C454.493 102.7 454.866 102.243 455.351 101.916C455.846 101.58 456.439 101.412 457.129 101.412C457.792 101.412 458.366 101.571 458.851 101.888C459.337 102.205 459.705 102.653 459.957 103.232C460.219 103.811 460.349 104.487 460.349 105.262V105.556H454.805C454.843 106.433 455.071 107.11 455.491 107.586C455.911 108.053 456.476 108.286 457.185 108.286C457.727 108.286 458.17 108.155 458.515 107.894C458.861 107.633 459.099 107.287 459.229 106.858L460.223 106.928C460.037 107.581 459.677 108.118 459.145 108.538C458.613 108.958 457.96 109.168 457.185 109.168ZM454.805 104.73H459.341C459.295 103.937 459.075 103.335 458.683 102.924C458.291 102.504 457.773 102.294 457.129 102.294C456.485 102.294 455.958 102.504 455.547 102.924C455.137 103.344 454.889 103.946 454.805 104.73ZM462 109V101.58H462.798L462.854 103.61L462.728 103.54C462.849 102.877 463.068 102.387 463.386 102.07C463.703 101.743 464.142 101.58 464.702 101.58H465.346V102.476H464.674C464.3 102.476 463.983 102.56 463.722 102.728C463.46 102.887 463.26 103.115 463.12 103.414C462.989 103.713 462.924 104.067 462.924 104.478V109H462ZM469.212 109.168C468.568 109.168 468.017 109.065 467.56 108.86C467.112 108.645 466.762 108.351 466.51 107.978C466.258 107.605 466.113 107.185 466.076 106.718L467.042 106.648C467.098 107.143 467.303 107.539 467.658 107.838C468.022 108.137 468.54 108.286 469.212 108.286C469.8 108.286 470.257 108.188 470.584 107.992C470.91 107.796 471.074 107.493 471.074 107.082C471.074 106.858 471.022 106.671 470.92 106.522C470.826 106.363 470.63 106.228 470.332 106.116C470.033 105.995 469.585 105.883 468.988 105.78C468.288 105.649 467.742 105.495 467.35 105.318C466.958 105.131 466.682 104.903 466.524 104.632C466.365 104.352 466.286 104.021 466.286 103.638C466.286 102.975 466.524 102.439 467 102.028C467.476 101.617 468.138 101.412 468.988 101.412C469.566 101.412 470.056 101.519 470.458 101.734C470.868 101.949 471.19 102.233 471.424 102.588C471.657 102.933 471.811 103.316 471.886 103.736L470.92 103.82C470.864 103.531 470.756 103.274 470.598 103.05C470.439 102.817 470.224 102.635 469.954 102.504C469.683 102.364 469.356 102.294 468.974 102.294C468.414 102.294 467.984 102.415 467.686 102.658C467.396 102.891 467.252 103.204 467.252 103.596C467.252 103.867 467.312 104.091 467.434 104.268C467.555 104.436 467.756 104.576 468.036 104.688C468.316 104.791 468.703 104.884 469.198 104.968C469.935 105.089 470.509 105.243 470.92 105.43C471.34 105.607 471.634 105.831 471.802 106.102C471.97 106.363 472.054 106.685 472.054 107.068C472.054 107.516 471.932 107.899 471.69 108.216C471.447 108.524 471.111 108.762 470.682 108.93C470.262 109.089 469.772 109.168 469.212 109.168Z" fill="#2E2E2E"/>
<path d="M425.026 183.224C424.149 183.224 423.379 183.019 422.716 182.608C422.063 182.188 421.554 181.591 421.19 180.816C420.835 180.041 420.658 179.117 420.658 178.044C420.658 176.971 420.835 176.047 421.19 175.272C421.554 174.488 422.063 173.886 422.716 173.466C423.379 173.046 424.149 172.836 425.026 172.836C426.183 172.836 427.093 173.144 427.756 173.76C428.419 174.376 428.848 175.202 429.044 176.238L428.036 176.308C427.896 175.533 427.574 174.917 427.07 174.46C426.575 174.003 425.894 173.774 425.026 173.774C424.345 173.774 423.752 173.947 423.248 174.292C422.744 174.628 422.352 175.118 422.072 175.762C421.792 176.397 421.652 177.157 421.652 178.044C421.652 178.931 421.792 179.691 422.072 180.326C422.352 180.961 422.744 181.446 423.248 181.782C423.752 182.118 424.345 182.286 425.026 182.286C425.931 182.286 426.641 182.039 427.154 181.544C427.677 181.049 427.999 180.377 428.12 179.528L429.128 179.598C429.016 180.326 428.783 180.961 428.428 181.502C428.073 182.043 427.611 182.468 427.042 182.776C426.473 183.075 425.801 183.224 425.026 183.224ZM432.815 183.168C432.068 183.168 431.471 182.991 431.023 182.636C430.575 182.272 430.351 181.782 430.351 181.166C430.351 180.55 430.547 180.065 430.939 179.71C431.331 179.355 431.905 179.108 432.661 178.968L435.405 178.45C435.405 177.713 435.246 177.171 434.929 176.826C434.612 176.471 434.131 176.294 433.487 176.294C432.918 176.294 432.465 176.429 432.129 176.7C431.793 176.971 431.569 177.353 431.457 177.848L430.477 177.764C430.617 177.045 430.944 176.476 431.457 176.056C431.98 175.627 432.656 175.412 433.487 175.412C434.411 175.412 435.116 175.673 435.601 176.196C436.086 176.719 436.329 177.465 436.329 178.436V181.53C436.329 181.782 436.366 181.955 436.441 182.048C436.525 182.132 436.656 182.174 436.833 182.174H437.057V183C437.02 183.009 436.964 183.014 436.889 183.014C436.824 183.023 436.754 183.028 436.679 183.028C436.39 183.028 436.147 182.977 435.951 182.874C435.764 182.771 435.624 182.603 435.531 182.37C435.447 182.137 435.405 181.815 435.405 181.404L435.517 181.418C435.433 181.745 435.26 182.043 434.999 182.314C434.747 182.575 434.43 182.785 434.047 182.944C433.664 183.093 433.254 183.168 432.815 183.168ZM432.899 182.342C433.412 182.342 433.856 182.239 434.229 182.034C434.602 181.829 434.892 181.553 435.097 181.208C435.302 180.853 435.405 180.457 435.405 180.018V179.276L432.857 179.752C432.325 179.855 431.933 180.013 431.681 180.228C431.438 180.443 431.317 180.727 431.317 181.082C431.317 181.483 431.457 181.796 431.737 182.02C432.017 182.235 432.404 182.342 432.899 182.342ZM438.457 185.1V175.58H439.297L439.325 177.456L439.171 177.386C439.357 176.742 439.679 176.252 440.137 175.916C440.594 175.58 441.126 175.412 441.733 175.412C442.433 175.412 443.011 175.589 443.469 175.944C443.935 176.289 444.285 176.756 444.519 177.344C444.761 177.923 444.883 178.571 444.883 179.29C444.883 180.009 444.766 180.662 444.533 181.25C444.299 181.829 443.949 182.295 443.483 182.65C443.016 182.995 442.433 183.168 441.733 183.168C441.322 183.168 440.939 183.089 440.585 182.93C440.239 182.762 439.945 182.538 439.703 182.258C439.469 181.978 439.311 181.661 439.227 181.306L439.381 181.124V185.1H438.457ZM441.663 182.286C442.353 182.286 442.899 182.02 443.301 181.488C443.702 180.956 443.903 180.223 443.903 179.29C443.903 178.357 443.702 177.624 443.301 177.092C442.899 176.56 442.349 176.294 441.649 176.294C441.191 176.294 440.79 176.415 440.445 176.658C440.109 176.891 439.847 177.232 439.661 177.68C439.474 178.128 439.381 178.665 439.381 179.29C439.381 179.915 439.474 180.452 439.661 180.9C439.847 181.348 440.113 181.693 440.459 181.936C440.804 182.169 441.205 182.286 441.663 182.286ZM448.799 183C448.192 183 447.744 182.86 447.455 182.58C447.165 182.291 447.021 181.852 447.021 181.264V173.844H447.945V181.236C447.945 181.581 448.019 181.824 448.169 181.964C448.327 182.104 448.565 182.174 448.883 182.174H449.863V183H448.799ZM445.859 176.406V175.58H449.863V176.406H445.859ZM454.136 183.168C453.445 183.168 452.852 183.005 452.358 182.678C451.863 182.342 451.48 181.885 451.21 181.306C450.948 180.718 450.818 180.046 450.818 179.29C450.818 178.534 450.948 177.867 451.21 177.288C451.48 176.7 451.863 176.243 452.358 175.916C452.852 175.58 453.445 175.412 454.136 175.412C454.705 175.412 455.204 175.515 455.634 175.72C456.063 175.925 456.413 176.219 456.684 176.602C456.954 176.985 457.136 177.437 457.23 177.96L456.264 178.016C456.152 177.465 455.909 177.041 455.536 176.742C455.172 176.443 454.705 176.294 454.136 176.294C453.408 176.294 452.834 176.565 452.414 177.106C451.994 177.638 451.784 178.366 451.784 179.29C451.784 180.214 451.994 180.947 452.414 181.488C452.834 182.02 453.408 182.286 454.136 182.286C454.705 182.286 455.176 182.127 455.55 181.81C455.932 181.483 456.175 181.017 456.278 180.41L457.244 180.48C457.15 181.021 456.964 181.493 456.684 181.894C456.413 182.295 456.063 182.608 455.634 182.832C455.204 183.056 454.705 183.168 454.136 183.168ZM458.759 183V173.06H459.683V177.344L459.571 177.33C459.646 176.891 459.795 176.532 460.019 176.252C460.253 175.972 460.542 175.762 460.887 175.622C461.233 175.482 461.611 175.412 462.021 175.412C462.563 175.412 463.015 175.533 463.379 175.776C463.743 176.019 464.019 176.355 464.205 176.784C464.392 177.204 464.485 177.685 464.485 178.226V183H463.561V178.562C463.561 177.815 463.421 177.241 463.141 176.84C462.861 176.439 462.418 176.238 461.811 176.238C461.158 176.238 460.64 176.448 460.257 176.868C459.875 177.279 459.683 177.848 459.683 178.576V183H458.759ZM468.608 183.168C467.861 183.168 467.264 182.991 466.816 182.636C466.368 182.272 466.144 181.782 466.144 181.166C466.144 180.55 466.34 180.065 466.732 179.71C467.124 179.355 467.698 179.108 468.454 178.968L471.198 178.45C471.198 177.713 471.039 177.171 470.722 176.826C470.405 176.471 469.924 176.294 469.28 176.294C468.711 176.294 468.258 176.429 467.922 176.7C467.586 176.971 467.362 177.353 467.25 177.848L466.27 177.764C466.41 177.045 466.737 176.476 467.25 176.056C467.773 175.627 468.449 175.412 469.28 175.412C470.204 175.412 470.909 175.673 471.394 176.196C471.879 176.719 472.122 177.465 472.122 178.436V181.53C472.122 181.782 472.159 181.955 472.234 182.048C472.318 182.132 472.449 182.174 472.626 182.174H472.85V183C472.813 183.009 472.757 183.014 472.682 183.014C472.617 183.023 472.547 183.028 472.472 183.028C472.183 183.028 471.94 182.977 471.744 182.874C471.557 182.771 471.417 182.603 471.324 182.37C471.24 182.137 471.198 181.815 471.198 181.404L471.31 181.418C471.226 181.745 471.053 182.043 470.792 182.314C470.54 182.575 470.223 182.785 469.84 182.944C469.457 183.093 469.047 183.168 468.608 183.168ZM468.692 182.342C469.205 182.342 469.649 182.239 470.022 182.034C470.395 181.829 470.685 181.553 470.89 181.208C471.095 180.853 471.198 180.457 471.198 180.018V179.276L468.65 179.752C468.118 179.855 467.726 180.013 467.474 180.228C467.231 180.443 467.11 180.727 467.11 181.082C467.11 181.483 467.25 181.796 467.53 182.02C467.81 182.235 468.197 182.342 468.692 182.342ZM476.868 183.168C476.224 183.168 475.673 183.065 475.216 182.86C474.768 182.645 474.418 182.351 474.166 181.978C473.914 181.605 473.769 181.185 473.732 180.718L474.698 180.648C474.754 181.143 474.959 181.539 475.314 181.838C475.678 182.137 476.196 182.286 476.868 182.286C477.456 182.286 477.913 182.188 478.24 181.992C478.567 181.796 478.73 181.493 478.73 181.082C478.73 180.858 478.679 180.671 478.576 180.522C478.483 180.363 478.287 180.228 477.988 180.116C477.689 179.995 477.241 179.883 476.644 179.78C475.944 179.649 475.398 179.495 475.006 179.318C474.614 179.131 474.339 178.903 474.18 178.632C474.021 178.352 473.942 178.021 473.942 177.638C473.942 176.975 474.18 176.439 474.656 176.028C475.132 175.617 475.795 175.412 476.644 175.412C477.223 175.412 477.713 175.519 478.114 175.734C478.525 175.949 478.847 176.233 479.08 176.588C479.313 176.933 479.467 177.316 479.542 177.736L478.576 177.82C478.52 177.531 478.413 177.274 478.254 177.05C478.095 176.817 477.881 176.635 477.61 176.504C477.339 176.364 477.013 176.294 476.63 176.294C476.07 176.294 475.641 176.415 475.342 176.658C475.053 176.891 474.908 177.204 474.908 177.596C474.908 177.867 474.969 178.091 475.09 178.268C475.211 178.436 475.412 178.576 475.692 178.688C475.972 178.791 476.359 178.884 476.854 178.968C477.591 179.089 478.165 179.243 478.576 179.43C478.996 179.607 479.29 179.831 479.458 180.102C479.626 180.363 479.71 180.685 479.71 181.068C479.71 181.516 479.589 181.899 479.346 182.216C479.103 182.524 478.767 182.762 478.338 182.93C477.918 183.089 477.428 183.168 476.868 183.168Z" fill="#2E2E2E"/>
<path d="M421.302 256V246.06H422.674L426.076 254.964L429.478 246.06H430.85V256H429.898V247.698L426.692 256H425.46L422.254 247.698V256H421.302ZM435.98 256.168C435.308 256.168 434.72 256.009 434.216 255.692C433.721 255.375 433.338 254.927 433.068 254.348C432.797 253.76 432.662 253.074 432.662 252.29C432.662 251.497 432.797 250.811 433.068 250.232C433.338 249.653 433.721 249.205 434.216 248.888C434.72 248.571 435.308 248.412 435.98 248.412C436.652 248.412 437.235 248.571 437.73 248.888C438.224 249.205 438.607 249.653 438.878 250.232C439.148 250.811 439.284 251.497 439.284 252.29C439.284 253.074 439.148 253.76 438.878 254.348C438.607 254.927 438.224 255.375 437.73 255.692C437.235 256.009 436.652 256.168 435.98 256.168ZM435.98 255.286C436.708 255.286 437.277 255.02 437.688 254.488C438.108 253.947 438.318 253.214 438.318 252.29C438.318 251.366 438.108 250.638 437.688 250.106C437.277 249.565 436.708 249.294 435.98 249.294C435.252 249.294 434.678 249.565 434.258 250.106C433.838 250.638 433.628 251.366 433.628 252.29C433.628 253.214 433.838 253.947 434.258 254.488C434.678 255.02 435.252 255.286 435.98 255.286ZM440.945 256V248.58H441.743L441.799 250.61L441.673 250.54C441.794 249.877 442.014 249.387 442.331 249.07C442.648 248.743 443.087 248.58 443.647 248.58H444.291V249.476H443.619C443.246 249.476 442.928 249.56 442.667 249.728C442.406 249.887 442.205 250.115 442.065 250.414C441.934 250.713 441.869 251.067 441.869 251.478V256H440.945ZM448.367 256.168C447.658 256.168 447.056 256.005 446.561 255.678C446.066 255.342 445.684 254.885 445.413 254.306C445.152 253.718 445.021 253.046 445.021 252.29C445.021 251.534 445.152 250.867 445.413 250.288C445.674 249.7 446.048 249.243 446.533 248.916C447.028 248.58 447.62 248.412 448.311 248.412C448.974 248.412 449.548 248.571 450.033 248.888C450.518 249.205 450.887 249.653 451.139 250.232C451.4 250.811 451.531 251.487 451.531 252.262V252.556H445.987C446.024 253.433 446.253 254.11 446.673 254.586C447.093 255.053 447.658 255.286 448.367 255.286C448.908 255.286 449.352 255.155 449.697 254.894C450.042 254.633 450.28 254.287 450.411 253.858L451.405 253.928C451.218 254.581 450.859 255.118 450.327 255.538C449.795 255.958 449.142 256.168 448.367 256.168ZM445.987 251.73H450.523C450.476 250.937 450.257 250.335 449.865 249.924C449.473 249.504 448.955 249.294 448.311 249.294C447.667 249.294 447.14 249.504 446.729 249.924C446.318 250.344 446.071 250.946 445.987 251.73Z" fill="#2E2E2E"/>
<path d="M347 27.0132L354.136 31.965L347 36.3872L347 27L347 27.0132Z" fill="#F9D94A"/>
<path d="M347 100.013L354.136 104.965L347 109.387L347 100L347 100.013Z" fill="#F9D94A"/>
<path d="M347 173.013L354.136 177.965L347 182.387L347 173L347 173.013Z" fill="#F9D94A"/>
<path d="M347 246.013L354.136 250.965L347 255.387L347 246L347 246.013Z" fill="#F9D94A"/>
<rect x="365" y="11" width="41" height="41" rx="8" fill="#F9D94A"/>
<g filter="url(#filter4_d_18_7139)">
<path d="M132.4 113H12.6001C7.85041 113 4 117.702 4 123.502V159.498C4 165.298 7.85041 170 12.6001 170H132.4C137.15 170 141 165.298 141 159.498V123.502C141 117.702 137.15 113 132.4 113Z" fill="#F9F9F9"/>
<path d="M132.4 113H12.6001C7.85041 113 4 117.702 4 123.502V159.498C4 165.298 7.85041 170 12.6001 170H132.4C137.15 170 141 165.298 141 159.498V123.502C141 117.702 137.15 113 132.4 113Z" stroke="#E0E0E0" stroke-miterlimit="10"/>
</g>
<path d="M68.302 146V136.06H71.942C72.6513 136.06 73.2533 136.181 73.748 136.424C74.252 136.657 74.6393 136.993 74.91 137.432C75.1807 137.871 75.316 138.398 75.316 139.014C75.316 139.471 75.2087 139.877 74.994 140.232C74.7887 140.587 74.5133 140.871 74.168 141.086C73.8227 141.301 73.4493 141.422 73.048 141.45L72.978 141.324C73.6313 141.324 74.1353 141.473 74.49 141.772C74.854 142.061 75.064 142.519 75.12 143.144L75.372 146H74.406L74.168 143.228C74.1307 142.771 73.9673 142.435 73.678 142.22C73.3887 141.996 72.922 141.884 72.278 141.884H69.254V146H68.302ZM69.254 140.96H72.096C72.7773 140.96 73.314 140.792 73.706 140.456C74.1073 140.111 74.308 139.625 74.308 139C74.308 138.347 74.1073 137.847 73.706 137.502C73.3047 137.157 72.712 136.984 71.928 136.984H69.254V140.96ZM80.0681 146.168C79.3588 146.168 78.7568 146.005 78.2621 145.678C77.7675 145.342 77.3848 144.885 77.1141 144.306C76.8528 143.718 76.7221 143.046 76.7221 142.29C76.7221 141.534 76.8528 140.867 77.1141 140.288C77.3755 139.7 77.7488 139.243 78.2341 138.916C78.7288 138.58 79.3215 138.412 80.0121 138.412C80.6748 138.412 81.2488 138.571 81.7341 138.888C82.2195 139.205 82.5881 139.653 82.8401 140.232C83.1015 140.811 83.2321 141.487 83.2321 142.262V142.556H77.6881C77.7255 143.433 77.9541 144.11 78.3741 144.586C78.7941 145.053 79.3588 145.286 80.0681 145.286C80.6095 145.286 81.0528 145.155 81.3981 144.894C81.7435 144.633 81.9815 144.287 82.1121 143.858L83.1061 143.928C82.9195 144.581 82.5601 145.118 82.0281 145.538C81.4961 145.958 80.8428 146.168 80.0681 146.168ZM77.6881 141.73H82.2241C82.1775 140.937 81.9581 140.335 81.5661 139.924C81.1741 139.504 80.6561 139.294 80.0121 139.294C79.3681 139.294 78.8408 139.504 78.4301 139.924C78.0195 140.344 77.7721 140.946 77.6881 141.73ZM90.8044 148.1H89.8804V144.124L90.0204 144.306C89.9457 144.661 89.787 144.978 89.5444 145.258C89.311 145.538 89.017 145.762 88.6624 145.93C88.3077 146.089 87.925 146.168 87.5144 146.168C86.8237 146.168 86.245 145.995 85.7784 145.65C85.3117 145.295 84.9617 144.829 84.7284 144.25C84.495 143.662 84.3784 143.009 84.3784 142.29C84.3784 141.571 84.495 140.923 84.7284 140.344C84.9617 139.756 85.3117 139.289 85.7784 138.944C86.245 138.589 86.8284 138.412 87.5284 138.412C88.1444 138.412 88.6764 138.58 89.1244 138.916C89.5817 139.252 89.899 139.742 90.0764 140.386L89.9224 140.456L89.9504 138.58H90.8044V148.1ZM87.5984 145.286C88.0557 145.286 88.457 145.169 88.8024 144.936C89.1477 144.693 89.4137 144.348 89.6004 143.9C89.787 143.452 89.8804 142.915 89.8804 142.29C89.8804 141.665 89.7824 141.128 89.5864 140.68C89.3997 140.232 89.1337 139.891 88.7884 139.658C88.4524 139.415 88.0557 139.294 87.5984 139.294C86.9077 139.294 86.357 139.56 85.9464 140.092C85.545 140.624 85.3444 141.357 85.3444 142.29C85.3444 143.223 85.545 143.956 85.9464 144.488C86.3477 145.02 86.8984 145.286 87.5984 145.286ZM95.5352 146.168C94.7978 146.168 94.2052 145.921 93.7572 145.426C93.3185 144.922 93.0992 144.231 93.0992 143.354V138.58H94.0232V143.074C94.0232 143.839 94.1678 144.409 94.4572 144.782C94.7558 145.155 95.1945 145.342 95.7732 145.342C96.4172 145.342 96.9212 145.132 97.2852 144.712C97.6585 144.292 97.8452 143.723 97.8452 143.004V138.58H98.7692V146H97.9012L97.8872 144.096L98.0272 144.166C97.9058 144.801 97.6258 145.295 97.1872 145.65C96.7578 145.995 96.2072 146.168 95.5352 146.168ZM103.775 146.168C103.066 146.168 102.464 146.005 101.969 145.678C101.474 145.342 101.092 144.885 100.821 144.306C100.56 143.718 100.429 143.046 100.429 142.29C100.429 141.534 100.56 140.867 100.821 140.288C101.082 139.7 101.456 139.243 101.941 138.916C102.436 138.58 103.028 138.412 103.719 138.412C104.382 138.412 104.956 138.571 105.441 138.888C105.926 139.205 106.295 139.653 106.547 140.232C106.808 140.811 106.939 141.487 106.939 142.262V142.556H101.395C101.432 143.433 101.661 144.11 102.081 144.586C102.501 145.053 103.066 145.286 103.775 145.286C104.316 145.286 104.76 145.155 105.105 144.894C105.45 144.633 105.688 144.287 105.819 143.858L106.813 143.928C106.626 144.581 106.267 145.118 105.735 145.538C105.203 145.958 104.55 146.168 103.775 146.168ZM101.395 141.73H105.931C105.884 140.937 105.665 140.335 105.273 139.924C104.881 139.504 104.363 139.294 103.719 139.294C103.075 139.294 102.548 139.504 102.137 139.924C101.726 140.344 101.479 140.946 101.395 141.73ZM111.221 146.168C110.577 146.168 110.027 146.065 109.569 145.86C109.121 145.645 108.771 145.351 108.519 144.978C108.267 144.605 108.123 144.185 108.085 143.718L109.051 143.648C109.107 144.143 109.313 144.539 109.667 144.838C110.031 145.137 110.549 145.286 111.221 145.286C111.809 145.286 112.267 145.188 112.593 144.992C112.92 144.796 113.083 144.493 113.083 144.082C113.083 143.858 113.032 143.671 112.929 143.522C112.836 143.363 112.64 143.228 112.341 143.116C112.043 142.995 111.595 142.883 110.997 142.78C110.297 142.649 109.751 142.495 109.359 142.318C108.967 142.131 108.692 141.903 108.533 141.632C108.375 141.352 108.295 141.021 108.295 140.638C108.295 139.975 108.533 139.439 109.009 139.028C109.485 138.617 110.148 138.412 110.997 138.412C111.576 138.412 112.066 138.519 112.467 138.734C112.878 138.949 113.2 139.233 113.433 139.588C113.667 139.933 113.821 140.316 113.895 140.736L112.929 140.82C112.873 140.531 112.766 140.274 112.607 140.05C112.449 139.817 112.234 139.635 111.963 139.504C111.693 139.364 111.366 139.294 110.983 139.294C110.423 139.294 109.994 139.415 109.695 139.658C109.406 139.891 109.261 140.204 109.261 140.596C109.261 140.867 109.322 141.091 109.443 141.268C109.565 141.436 109.765 141.576 110.045 141.688C110.325 141.791 110.713 141.884 111.207 141.968C111.945 142.089 112.519 142.243 112.929 142.43C113.349 142.607 113.643 142.831 113.811 143.102C113.979 143.363 114.063 143.685 114.063 144.068C114.063 144.516 113.942 144.899 113.699 145.216C113.457 145.524 113.121 145.762 112.691 145.93C112.271 146.089 111.781 146.168 111.221 146.168ZM117.974 146C117.368 146 116.92 145.86 116.63 145.58C116.341 145.291 116.196 144.852 116.196 144.264V136.844H117.12V144.236C117.12 144.581 117.195 144.824 117.344 144.964C117.503 145.104 117.741 145.174 118.058 145.174H119.038V146H117.974ZM115.034 139.406V138.58H119.038V139.406H115.034Z" fill="#2E2E2E"/>
<rect x="10" y="121" width="41" height="41" rx="8" fill="#F9D94A"/>
<path d="M21.4541 138.577C21.7889 138.577 22.0615 138.849 22.0615 139.184V144.274C22.0614 144.609 21.7896 144.881 21.4551 144.881C21.1204 144.881 20.8478 144.609 20.8477 144.274V142.335H18.2432V144.274C18.243 144.609 17.9713 144.881 17.6367 144.881C17.302 144.881 17.0304 144.609 17.0303 144.274V139.184C17.0303 138.849 17.3019 138.577 17.6367 138.577C17.9714 138.577 18.2432 138.849 18.2432 139.184V141.122H20.8477V139.184C20.8477 138.849 21.1195 138.577 21.4541 138.577Z" fill="#2E2E2E" stroke="#2E2E2E" stroke-width="0.0596587"/>
<path d="M24.001 138.577H26.5459C26.8807 138.577 27.1523 138.849 27.1523 139.184C27.1521 139.518 26.8806 139.79 26.5459 139.79H25.8799V144.274C25.8797 144.609 25.6081 144.881 25.2734 144.881C24.9387 144.881 24.6671 144.609 24.667 144.274V139.79H24.001C23.6663 139.79 23.3947 139.518 23.3945 139.184C23.3945 138.849 23.6662 138.577 24.001 138.577Z" fill="#2E2E2E" stroke="#2E2E2E" stroke-width="0.0596587"/>
<path d="M29.0879 138.577H31.6328C31.9676 138.577 32.2393 138.849 32.2393 139.184C32.2391 139.518 31.9675 139.79 31.6328 139.79H30.9668V144.274C30.9667 144.609 30.695 144.881 30.3604 144.881C30.0256 144.881 29.754 144.609 29.7539 144.274V139.79H29.0879C28.7532 139.79 28.4816 139.518 28.4814 139.184C28.4814 138.849 28.7531 138.577 29.0879 138.577Z" fill="#2E2E2E" stroke="#2E2E2E" stroke-width="0.0596587"/>
<path d="M34.1812 138.578H35.4536C36.4897 138.578 37.3325 139.42 37.3325 140.457C37.3325 141.493 36.4896 142.335 35.4536 142.335H34.7876V144.275C34.7874 144.609 34.5157 144.881 34.1812 144.881C33.8465 144.881 33.5749 144.61 33.5747 144.275V139.184C33.5747 138.849 33.8464 138.578 34.1812 138.578ZM34.7876 141.123H35.4536C35.82 141.123 36.1196 140.824 36.1196 140.457C36.1196 140.089 35.82 139.791 35.4536 139.791H34.7876V141.123Z" fill="#2E2E2E" stroke="#2E2E2E" stroke-width="0.0596587"/>
<path d="M44.5117 138.596C44.8379 138.677 45.0342 139.005 44.9531 139.33L43.6807 144.421V144.422C43.6126 144.698 43.3656 144.881 43.0928 144.881C43.0444 144.881 42.9954 144.874 42.9453 144.862H42.9443C42.619 144.78 42.4229 144.452 42.5039 144.128L43.7773 139.037C43.8575 138.711 44.1819 138.511 44.5117 138.596Z" fill="#2E2E2E" stroke="#2E2E2E" stroke-width="0.0596587"/>
<path d="M41.9639 138.596C42.2901 138.677 42.4865 139.005 42.4053 139.331L41.1328 144.421V144.422C41.0648 144.698 40.8178 144.881 40.5449 144.881C40.4966 144.881 40.4475 144.875 40.3975 144.863H40.3965C40.0711 144.781 39.8751 144.453 39.9561 144.128L41.2295 139.038C41.3096 138.711 41.6328 138.511 41.9639 138.596Z" fill="#2E2E2E" stroke="#2E2E2E" stroke-width="0.0596587"/>
<path d="M39.2769 139.851C39.6117 139.851 39.8833 140.122 39.8833 140.457C39.8831 140.792 39.6116 141.063 39.2769 141.063C38.942 141.063 38.6706 140.792 38.6704 140.457C38.6704 140.122 38.9419 139.851 39.2769 139.851Z" fill="#2E2E2E" stroke="#2E2E2E" stroke-width="0.0596587"/>
<path d="M39.2769 142.396C39.6117 142.396 39.8833 142.668 39.8833 143.002C39.8831 143.337 39.6116 143.609 39.2769 143.609C38.942 143.609 38.6706 143.337 38.6704 143.002C38.6704 142.667 38.9419 142.396 39.2769 142.396Z" fill="#2E2E2E" stroke="#2E2E2E" stroke-width="0.0596587"/>
<rect x="610" y="122" width="54" height="41" rx="8" fill="#F9D94A"/>
<path d="M617.899 147L615.607 138.48H616.495L618.415 145.92L620.263 138.48H621.223L623.071 145.92L624.991 138.48H625.879L623.587 147H622.531L620.743 139.896L618.955 147H617.899ZM629.328 147.144C628.72 147.144 628.204 147.004 627.78 146.724C627.356 146.436 627.028 146.044 626.796 145.548C626.572 145.044 626.46 144.468 626.46 143.82C626.46 143.172 626.572 142.6 626.796 142.104C627.02 141.6 627.34 141.208 627.756 140.928C628.18 140.64 628.688 140.496 629.28 140.496C629.848 140.496 630.34 140.632 630.756 140.904C631.172 141.176 631.488 141.56 631.704 142.056C631.928 142.552 632.04 143.132 632.04 143.796V144.048H627.288C627.32 144.8 627.516 145.38 627.876 145.788C628.236 146.188 628.72 146.388 629.328 146.388C629.792 146.388 630.172 146.276 630.468 146.052C630.764 145.828 630.968 145.532 631.08 145.164L631.932 145.224C631.772 145.784 631.464 146.244 631.008 146.604C630.552 146.964 629.992 147.144 629.328 147.144ZM627.288 143.34H631.176C631.136 142.66 630.948 142.144 630.612 141.792C630.276 141.432 629.832 141.252 629.28 141.252C628.728 141.252 628.276 141.432 627.924 141.792C627.572 142.152 627.36 142.668 627.288 143.34ZM636.251 147.144C635.771 147.144 635.351 147.024 634.991 146.784C634.631 146.536 634.363 146.216 634.187 145.824L634.151 147H633.455V138.48H634.247V141.756C634.407 141.412 634.663 141.116 635.015 140.868C635.367 140.62 635.779 140.496 636.251 140.496C636.803 140.496 637.279 140.632 637.679 140.904C638.087 141.176 638.403 141.56 638.627 142.056C638.851 142.552 638.963 143.14 638.963 143.82C638.963 144.5 638.851 145.088 638.627 145.584C638.403 146.08 638.087 146.464 637.679 146.736C637.279 147.008 636.803 147.144 636.251 147.144ZM636.215 146.388C636.799 146.388 637.263 146.16 637.607 145.704C637.951 145.24 638.123 144.612 638.123 143.82C638.123 143.028 637.951 142.404 637.607 141.948C637.263 141.484 636.803 141.252 636.227 141.252C635.819 141.252 635.467 141.36 635.171 141.576C634.875 141.784 634.647 142.08 634.487 142.464C634.327 142.848 634.247 143.3 634.247 143.82C634.247 144.332 634.327 144.784 634.487 145.176C634.647 145.56 634.871 145.86 635.159 146.076C635.455 146.284 635.807 146.388 636.215 146.388ZM642.636 147.144C642.084 147.144 641.612 147.056 641.22 146.88C640.836 146.696 640.536 146.444 640.32 146.124C640.104 145.804 639.98 145.444 639.948 145.044L640.776 144.984C640.824 145.408 641 145.748 641.304 146.004C641.616 146.26 642.06 146.388 642.636 146.388C643.14 146.388 643.532 146.304 643.812 146.136C644.092 145.968 644.232 145.708 644.232 145.356C644.232 145.164 644.188 145.004 644.1 144.876C644.02 144.74 643.852 144.624 643.596 144.528C643.34 144.424 642.956 144.328 642.444 144.24C641.844 144.128 641.376 143.996 641.04 143.844C640.704 143.684 640.468 143.488 640.332 143.256C640.196 143.016 640.128 142.732 640.128 142.404C640.128 141.836 640.332 141.376 640.74 141.024C641.148 140.672 641.716 140.496 642.444 140.496C642.94 140.496 643.36 140.588 643.704 140.772C644.056 140.956 644.332 141.2 644.532 141.504C644.732 141.8 644.864 142.128 644.928 142.488L644.1 142.56C644.052 142.312 643.96 142.092 643.824 141.9C643.688 141.7 643.504 141.544 643.272 141.432C643.04 141.312 642.76 141.252 642.432 141.252C641.952 141.252 641.584 141.356 641.328 141.564C641.08 141.764 640.956 142.032 640.956 142.368C640.956 142.6 641.008 142.792 641.112 142.944C641.216 143.088 641.388 143.208 641.628 143.304C641.868 143.392 642.2 143.472 642.624 143.544C643.256 143.648 643.748 143.78 644.1 143.94C644.46 144.092 644.712 144.284 644.856 144.516C645 144.74 645.072 145.016 645.072 145.344C645.072 145.728 644.968 146.056 644.76 146.328C644.552 146.592 644.264 146.796 643.896 146.94C643.536 147.076 643.116 147.144 642.636 147.144ZM646.486 147V140.64H647.278V147H646.486ZM646.462 139.584V138.516H647.302V139.584H646.462ZM651.003 147C650.483 147 650.099 146.88 649.851 146.64C649.603 146.392 649.479 146.016 649.479 145.512V139.152H650.271V145.488C650.271 145.784 650.335 145.992 650.463 146.112C650.599 146.232 650.803 146.292 651.075 146.292H651.915V147H651.003ZM648.483 141.348V140.64H651.915V141.348H648.483ZM655.602 147.144C654.994 147.144 654.478 147.004 654.054 146.724C653.63 146.436 653.302 146.044 653.07 145.548C652.846 145.044 652.734 144.468 652.734 143.82C652.734 143.172 652.846 142.6 653.07 142.104C653.294 141.6 653.614 141.208 654.03 140.928C654.454 140.64 654.962 140.496 655.554 140.496C656.122 140.496 656.614 140.632 657.03 140.904C657.446 141.176 657.762 141.56 657.978 142.056C658.202 142.552 658.314 143.132 658.314 143.796V144.048H653.562C653.594 144.8 653.79 145.38 654.15 145.788C654.51 146.188 654.994 146.388 655.602 146.388C656.066 146.388 656.446 146.276 656.742 146.052C657.038 145.828 657.242 145.532 657.354 145.164L658.206 145.224C658.046 145.784 657.738 146.244 657.282 146.604C656.826 146.964 656.266 147.144 655.602 147.144ZM653.562 143.34H657.45C657.41 142.66 657.222 142.144 656.886 141.792C656.55 141.432 656.106 141.252 655.554 141.252C655.002 141.252 654.55 141.432 654.198 141.792C653.846 142.152 653.634 142.668 653.562 143.34Z" fill="#2E2E2E"/>
<rect x="365" y="84" width="41" height="41" rx="8" fill="#F9D94A"/>
<rect x="365" y="157" width="41" height="41" rx="8" fill="#F9D94A"/>
<rect x="365" y="231" width="41" height="41" rx="8" fill="#F9D94A"/>
<path d="M380.333 108V100.667C380.333 98.0002 381 97.3335 383.667 97.3335H388.333C391 97.3335 391.667 98.0002 391.667 100.667V107.333C391.667 107.427 391.667 107.52 391.66 107.613" stroke="#2E2E2E" stroke-linecap="round" stroke-linejoin="round"/>
<path d="M382.233 106H391.667V108.333C391.667 109.62 390.62 110.667 389.333 110.667H382.667C381.38 110.667 380.333 109.62 380.333 108.333V107.9C380.333 106.853 381.187 106 382.233 106Z" stroke="#2E2E2E" stroke-linecap="round" stroke-linejoin="round"/>
<path d="M383.333 100.667H388.667" stroke="#2E2E2E" stroke-linecap="round" stroke-linejoin="round"/>
<path d="M383.333 103H386.667" stroke="#2E2E2E" stroke-linecap="round" stroke-linejoin="round"/>
<path d="M381.333 28.3335C382.438 28.3335 383.333 27.4381 383.333 26.3335C383.333 25.2289 382.438 24.3335 381.333 24.3335C380.229 24.3335 379.333 25.2289 379.333 26.3335C379.333 27.4381 380.229 28.3335 381.333 28.3335Z" stroke="#2E2E2E" stroke-linecap="round" stroke-linejoin="round"/>
<path d="M390.667 33C391.771 33 392.667 32.1046 392.667 31C392.667 29.8954 391.771 29 390.667 29C389.562 29 388.667 29.8954 388.667 31C388.667 32.1046 389.562 33 390.667 33Z" stroke="#2E2E2E" stroke-linecap="round" stroke-linejoin="round"/>
<path d="M381.333 37.6665C382.438 37.6665 383.333 36.7711 383.333 35.6665C383.333 34.5619 382.438 33.6665 381.333 33.6665C380.229 33.6665 379.333 34.5619 379.333 35.6665C379.333 36.7711 380.229 37.6665 381.333 37.6665Z" stroke="#2E2E2E" stroke-linecap="round" stroke-linejoin="round"/>
<path d="M388.667 31.0002H384C382.533 31.0002 381.333 30.3335 381.333 28.3335V33.6668" stroke="#2E2E2E" stroke-linecap="round" stroke-linejoin="round"/>
<path d="M384 183.667H388C391.333 183.667 392.667 182.333 392.667 179V175C392.667 171.667 391.333 170.333 388 170.333H384C380.667 170.333 379.333 171.667 379.333 175V179C379.333 182.333 380.667 183.667 384 183.667Z" stroke="#2E2E2E" stroke-linecap="round" stroke-linejoin="round"/>
<path d="M389.667 177C389.667 179.027 388.027 180.667 386 180.667C383.973 180.667 382.74 178.627 382.74 178.627M382.74 178.627H384.393M382.74 178.627V180.46M382.333 177C382.333 174.973 383.96 173.333 386 173.333C388.447 173.333 389.667 175.373 389.667 175.373M389.667 175.373V173.54M389.667 175.373H388.04" stroke="#2E2E2E" stroke-linecap="round" stroke-linejoin="round"/>
<path d="M380.667 247C379.833 248.113 379.333 249.5 379.333 251C379.333 254.68 382.32 257.667 386 257.667C389.68 257.667 392.667 254.68 392.667 251C392.667 247.32 389.68 244.333 386 244.333C385.047 244.333 384.133 244.533 383.313 244.9" stroke="#2E2E2E" stroke-linecap="round" stroke-linejoin="round"/>
<path d="M388.664 251H388.67" stroke="#2E2E2E" stroke-width="2" stroke-linecap="round" stroke-linejoin="round"/>
<path d="M385.997 251H386.003" stroke="#2E2E2E" stroke-width="2" stroke-linecap="round" stroke-linejoin="round"/>
<path d="M383.33 251H383.336" stroke="#2E2E2E" stroke-width="2" stroke-linecap="round" stroke-linejoin="round"/>
<path d="M536.105 33.2103C537.268 33.2103 538.21 32.2678 538.21 31.1052C538.21 29.9425 537.268 29 536.105 29C534.943 29 534 29.9425 534 31.1052C534 32.2678 534.943 33.2103 536.105 33.2103Z" fill="white" stroke="#E0E0E0" stroke-width="0.953282" stroke-miterlimit="10"/>
<path d="M536.105 107.21C537.268 107.21 538.21 106.268 538.21 105.105C538.21 103.943 537.268 103 536.105 103C534.943 103 534 103.943 534 105.105C534 106.268 534.943 107.21 536.105 107.21Z" fill="white" stroke="#E0E0E0" stroke-width="0.953282" stroke-miterlimit="10"/>
<path d="M536.105 179.21C537.268 179.21 538.21 178.268 538.21 177.105C538.21 175.943 537.268 175 536.105 175C534.943 175 534 175.943 534 177.105C534 178.268 534.943 179.21 536.105 179.21Z" fill="white" stroke="#E0E0E0" stroke-width="0.953282" stroke-miterlimit="10"/>
<path d="M536.105 252.21C537.268 252.21 538.21 251.268 538.21 250.105C538.21 248.943 537.268 248 536.105 248C534.943 248 534 248.943 534 250.105C534 251.268 534.943 252.21 536.105 252.21Z" fill="white" stroke="#E0E0E0" stroke-width="0.953282" stroke-miterlimit="10"/>
<path d="M313 142H141" stroke="#E0E0E0"/>
<path fill-rule="evenodd" clip-rule="evenodd" d="M267.02 137.5L234.003 120.544V106.389C234.003 103.519 231.005 101.635 228.417 102.885L192.129 120.495V139.911C192.129 141.366 192.939 142.703 194.238 143.377L227.958 160.782V175.61C227.958 178.529 231.034 180.403 233.622 179.075L267.03 161.875C268.328 161.211 269.139 159.874 269.139 158.41V140.975C269.139 139.511 268.319 138.174 267.03 137.51L267.02 137.5Z" stroke="#2E2E2E" stroke-opacity="0.3" stroke-miterlimit="10"/>
<path fill-rule="evenodd" clip-rule="evenodd" d="M295.493 134.761L236.64 104.536V79.3061C236.64 74.1904 231.296 70.8322 226.684 73.0594L162 104.449V139.059C162 141.651 163.445 144.035 165.76 145.236L225.866 176.26V202.691C225.866 207.894 231.349 211.235 235.961 208.868L295.51 178.209C297.825 177.026 299.27 174.642 299.27 172.032V140.955C299.27 138.345 297.808 135.961 295.51 134.778L295.493 134.761Z" stroke="#2E2E2E" stroke-opacity="0.1" stroke-miterlimit="10"/>
<path d="M218.834 133.564L218.105 139.402L230.511 147.426V153.265L242.917 147.426V140.859L230.511 134.292L229.783 129.181L218.834 133.564Z" fill="white"/>
<path fill-rule="evenodd" clip-rule="evenodd" d="M229.438 129.618L220.077 134.159L229.438 139.283V129.618ZM229.438 141.746L218.806 135.92V139.879L229.438 145.373V141.746ZM229.438 147.823L217.389 141.6C216.926 141.362 216.635 140.885 216.635 140.369V133.431L229.597 127.142C230.524 126.692 231.596 127.367 231.596 128.4V133.457L243.393 139.521C243.856 139.76 244.148 140.236 244.148 140.766V147.002C244.148 147.518 243.856 147.995 243.393 148.233L231.464 154.377C230.537 154.853 229.438 154.178 229.438 153.145V147.849V147.823ZM231.596 135.88V151.861L241.989 146.512V141.229L231.596 135.894V135.88Z" fill="#2E2E2E"/>
<defs>
<filter id="filter0_d_18_7139" x="353.113" y="146.186" width="175.731" height="64.4883" filterUnits="userSpaceOnUse" color-interpolation-filters="sRGB">
<feFlood flood-opacity="0" result="BackgroundImageFix"/>
<feColorMatrix in="SourceAlpha" type="matrix" values="0 0 0 0 0 0 0 0 0 0 0 0 0 0 0 0 0 0 127 0" result="hardAlpha"/>
<feOffset dy="1"/>
<feGaussianBlur stdDeviation="1.5"/>
<feComposite in2="hardAlpha" operator="out"/>
<feColorMatrix type="matrix" values="0 0 0 0 0.180392 0 0 0 0 0.180392 0 0 0 0 0.180392 0 0 0 0.06 0"/>
<feBlend mode="normal" in2="BackgroundImageFix" result="effect1_dropShadow_18_7139"/>
<feBlend mode="normal" in="SourceGraphic" in2="effect1_dropShadow_18_7139" result="shape"/>
</filter>
<filter id="filter1_d_18_7139" x="353.5" y="0.5" width="175.731" height="64.4883" filterUnits="userSpaceOnUse" color-interpolation-filters="sRGB">
<feFlood flood-opacity="0" result="BackgroundImageFix"/>
<feColorMatrix in="SourceAlpha" type="matrix" values="0 0 0 0 0 0 0 0 0 0 0 0 0 0 0 0 0 0 127 0" result="hardAlpha"/>
<feOffset dy="1"/>
<feGaussianBlur stdDeviation="1.5"/>
<feComposite in2="hardAlpha" operator="out"/>
<feColorMatrix type="matrix" values="0 0 0 0 0.180392 0 0 0 0 0.180392 0 0 0 0 0.180392 0 0 0 0.06 0"/>
<feBlend mode="normal" in2="BackgroundImageFix" result="effect1_dropShadow_18_7139"/>
<feBlend mode="normal" in="SourceGraphic" in2="effect1_dropShadow_18_7139" result="shape"/>
</filter>
<filter id="filter2_d_18_7139" x="353.113" y="221.5" width="175.731" height="64.4883" filterUnits="userSpaceOnUse" color-interpolation-filters="sRGB">
<feFlood flood-opacity="0" result="BackgroundImageFix"/>
<feColorMatrix in="SourceAlpha" type="matrix" values="0 0 0 0 0 0 0 0 0 0 0 0 0 0 0 0 0 0 127 0" result="hardAlpha"/>
<feOffset dy="1"/>
<feGaussianBlur stdDeviation="1.5"/>
<feComposite in2="hardAlpha" operator="out"/>
<feColorMatrix type="matrix" values="0 0 0 0 0.180392 0 0 0 0 0.180392 0 0 0 0 0.180392 0 0 0 0.06 0"/>
<feBlend mode="normal" in2="BackgroundImageFix" result="effect1_dropShadow_18_7139"/>
<feBlend mode="normal" in="SourceGraphic" in2="effect1_dropShadow_18_7139" result="shape"/>
</filter>
<filter id="filter3_d_18_7139" x="353.113" y="73.1143" width="175.731" height="64.4883" filterUnits="userSpaceOnUse" color-interpolation-filters="sRGB">
<feFlood flood-opacity="0" result="BackgroundImageFix"/>
<feColorMatrix in="SourceAlpha" type="matrix" values="0 0 0 0 0 0 0 0 0 0 0 0 0 0 0 0 0 0 127 0" result="hardAlpha"/>
<feOffset dy="1"/>
<feGaussianBlur stdDeviation="1.5"/>
<feComposite in2="hardAlpha" operator="out"/>
<feColorMatrix type="matrix" values="0 0 0 0 0.180392 0 0 0 0 0.180392 0 0 0 0 0.180392 0 0 0 0.06 0"/>
<feBlend mode="normal" in2="BackgroundImageFix" result="effect1_dropShadow_18_7139"/>
<feBlend mode="normal" in="SourceGraphic" in2="effect1_dropShadow_18_7139" result="shape"/>
</filter>
<filter id="filter4_d_18_7139" x="0.5" y="110.5" width="144" height="64" filterUnits="userSpaceOnUse" color-interpolation-filters="sRGB">
<feFlood flood-opacity="0" result="BackgroundImageFix"/>
<feColorMatrix in="SourceAlpha" type="matrix" values="0 0 0 0 0 0 0 0 0 0 0 0 0 0 0 0 0 0 127 0" result="hardAlpha"/>
<feOffset dy="1"/>
<feGaussianBlur stdDeviation="1.5"/>
<feComposite in2="hardAlpha" operator="out"/>
<feColorMatrix type="matrix" values="0 0 0 0 0.180392 0 0 0 0 0.180392 0 0 0 0 0.180392 0 0 0 0.06 0"/>
<feBlend mode="normal" in2="BackgroundImageFix" result="effect1_dropShadow_18_7139"/>
<feBlend mode="normal" in="SourceGraphic" in2="effect1_dropShadow_18_7139" result="shape"/>
</filter>
</defs>
</svg>
