<svg width="86" height="16" viewBox="0 0 86 16" fill="none" xmlns="http://www.w3.org/2000/svg">
<g clip-path="url(#clip0_18_18181)">
<g clip-path="url(#clip1_18_18181)">
<g clip-path="url(#clip2_18_18181)">
<path d="M21.0498 6.33992C21.0498 6.58758 21.1833 6.78569 21.4504 6.93432C21.7273 7.073 22.0587 7.19683 22.4444 7.3058C22.8401 7.40489 23.2357 7.5238 23.6313 7.66249C24.027 7.80118 24.3584 8.03895 24.6254 8.3758C24.9024 8.70272 25.0408 9.11883 25.0408 9.62409C25.0408 10.3374 24.7638 10.8971 24.21 11.3033C23.666 11.7095 22.9785 11.9126 22.1477 11.9126C21.4158 11.9126 20.7877 11.7591 20.2635 11.4519C19.7393 11.1448 19.3585 10.7188 19.1211 10.1739L20.5009 9.37146C20.758 10.0848 21.307 10.4414 22.1477 10.4414C22.9884 10.4414 23.4088 10.164 23.4088 9.60923C23.4088 9.37146 23.2703 9.17826 22.9934 9.02963C22.7263 8.88106 22.395 8.75723 21.9993 8.65815C21.6136 8.54918 21.2229 8.42535 20.8273 8.2866C20.4316 8.14792 20.0953 7.92009 19.8184 7.60306C19.5513 7.27609 19.4178 6.86495 19.4178 6.36963C19.4178 5.68603 19.675 5.13619 20.1893 4.72009C20.7135 4.304 21.3614 4.09595 22.1329 4.09595C22.7461 4.09595 23.2901 4.23465 23.7649 4.51204C24.2496 4.77954 24.6204 5.156 24.8776 5.64144L23.5275 6.39935C23.2703 5.83466 22.8054 5.55228 22.1329 5.55228C21.8262 5.55228 21.5691 5.62163 21.3614 5.76032C21.1537 5.88912 21.0498 6.08232 21.0498 6.33992Z" fill="white"/>
<path d="M29.7645 11.9126C28.6468 11.9126 27.7121 11.5361 26.9604 10.7832C26.2186 10.0303 25.8477 9.10398 25.8477 8.00426C25.8477 6.89466 26.2186 5.96838 26.9604 5.22535C27.7121 4.47242 28.6468 4.09595 29.7645 4.09595C30.4865 4.09595 31.1443 4.26932 31.7377 4.61607C32.3312 4.96282 32.7763 5.42844 33.073 6.01295L31.6932 6.8154C31.5251 6.45878 31.2679 6.1814 30.9217 5.98323C30.5854 5.77518 30.1947 5.67117 29.7497 5.67117C29.0969 5.67117 28.5479 5.89409 28.1028 6.33992C27.6676 6.78569 27.45 7.34049 27.45 8.00426C27.45 8.66803 27.6676 9.22283 28.1028 9.66866C28.5479 10.1145 29.0969 10.3374 29.7497 10.3374C30.1849 10.3374 30.5755 10.2333 30.9217 10.0253C31.2778 9.81729 31.5449 9.53986 31.7229 9.19312L33.1027 9.98072C32.7862 10.5752 32.3312 11.0457 31.7377 11.3925C31.1443 11.7392 30.4865 11.9126 29.7645 11.9126Z" fill="white"/>
<path d="M35.9051 5.5373C36.3106 4.61595 37.0722 4.15527 38.1899 4.15527V5.89397C37.5767 5.85431 37.0426 6.00294 36.5876 6.3398C36.1326 6.66671 35.9051 7.21157 35.9051 7.97443V11.7193H34.3027V4.28902H35.9051V5.5373Z" fill="white"/>
<path d="M44.902 4.28914H46.5043V11.7194H44.902V10.6495C44.2986 11.4916 43.4332 11.9126 42.3056 11.9126C41.2868 11.9126 40.4164 11.5361 39.6944 10.7832C38.9723 10.0204 38.6113 9.09403 38.6113 8.00426C38.6113 6.9046 38.9723 5.97826 39.6944 5.22535C40.4164 4.47242 41.2868 4.09595 42.3056 4.09595C43.4332 4.09595 44.2986 4.51204 44.902 5.34423V4.28914ZM40.8813 9.71323C41.3264 10.1591 41.8852 10.382 42.5578 10.382C43.2304 10.382 43.7892 10.1591 44.2343 9.71323C44.6794 9.25752 44.902 8.68786 44.902 8.00426C44.902 7.32072 44.6794 6.75598 44.2343 6.31015C43.7892 5.85443 43.2304 5.62659 42.5578 5.62659C41.8852 5.62659 41.3264 5.85443 40.8813 6.31015C40.4362 6.75598 40.2136 7.32072 40.2136 8.00426C40.2136 8.68786 40.4362 9.25752 40.8813 9.71323Z" fill="white"/>
<path d="M52.5698 4.09595C53.5885 4.09595 54.459 4.47737 55.181 5.24021C55.903 5.99312 56.2641 6.91449 56.2641 8.00426C56.2641 9.10398 55.903 10.0303 55.181 10.7832C54.459 11.5361 53.5885 11.9126 52.5698 11.9126C51.4422 11.9126 50.5768 11.4965 49.9734 10.6643V14.6915H48.3711V4.28914H49.9734V5.3591C50.5768 4.517 51.4422 4.09595 52.5698 4.09595ZM50.641 9.71323C51.0861 10.1591 51.645 10.382 52.3176 10.382C52.9901 10.382 53.549 10.1591 53.9941 9.71323C54.4392 9.25752 54.6617 8.68786 54.6617 8.00426C54.6617 7.32072 54.4392 6.75598 53.9941 6.31015C53.549 5.85443 52.9901 5.62659 52.3176 5.62659C51.645 5.62659 51.0861 5.85443 50.641 6.31015C50.196 6.75598 49.9734 7.32072 49.9734 8.00426C49.9734 8.68786 50.196 9.25752 50.641 9.71323Z" fill="white"/>
<path d="M58.9774 8.68786C59.0956 9.25255 59.3676 9.68849 59.7934 9.99558C60.2185 10.2928 60.7379 10.4414 61.3511 10.4414C62.2014 10.4414 62.8396 10.1343 63.2648 9.52003L64.5854 10.2928C63.8534 11.3727 62.7705 11.9126 61.3362 11.9126C60.1294 11.9126 59.1551 11.546 58.4134 10.8129C57.6716 10.0699 57.3008 9.13369 57.3008 8.00426C57.3008 6.89466 57.6665 5.96838 58.3985 5.22535C59.1305 4.47242 60.0699 4.09595 61.2174 4.09595C62.3054 4.09595 63.1956 4.47737 63.8882 5.24021C64.5905 6.00306 64.9413 6.92935 64.9413 8.01912C64.9413 8.18758 64.9214 8.41049 64.8819 8.68786H58.9774ZM58.9625 7.38015H63.3242C63.2156 6.7758 62.9631 6.32009 62.5676 6.01295C62.1819 5.70584 61.7271 5.55228 61.2025 5.55228C60.6093 5.55228 60.1145 5.71575 59.7191 6.04266C59.3231 6.36963 59.0711 6.8154 58.9625 7.38015Z" fill="white"/>
<path d="M67.5069 11.5706C67.2891 11.7886 67.0269 11.8975 66.72 11.8975C66.4137 11.8975 66.1514 11.7886 65.9337 11.5706C65.7166 11.3526 65.6074 11.0901 65.6074 10.783C65.6074 10.4759 65.7114 10.2133 65.9189 9.99537C66.1366 9.77743 66.404 9.66846 66.72 9.66846C67.0269 9.66846 67.2891 9.77743 67.5069 9.99537C67.724 10.2133 67.8331 10.4759 67.8331 10.783C67.8331 11.0901 67.724 11.3526 67.5069 11.5706Z" fill="#F9D94A"/>
<path d="M74.8202 1.31689H76.4224V11.7193H74.8202V10.6493C74.2167 11.4914 73.351 11.9125 72.2236 11.9125C71.2047 11.9125 70.3344 11.536 69.6122 10.783C68.8904 10.0202 68.5293 9.09391 68.5293 8.00413C68.5293 6.90448 68.8904 5.97813 69.6122 5.22523C70.3344 4.47229 71.2047 4.09582 72.2236 4.09582C73.351 4.09582 74.2167 4.51192 74.8202 5.34411V1.31689ZM70.799 9.71311C71.2442 10.1589 71.803 10.3818 72.4756 10.3818C73.1482 10.3818 73.707 10.1589 74.1522 9.71311C74.5973 9.25739 74.8202 8.68773 74.8202 8.00413C74.8202 7.32059 74.5973 6.75585 74.1522 6.31002C73.707 5.85431 73.1482 5.62646 72.4756 5.62646C71.803 5.62646 71.2442 5.85431 70.799 6.31002C70.3544 6.75585 70.1316 7.32059 70.1316 8.00413C70.1316 8.68773 70.3544 9.25739 70.799 9.71311Z" fill="white"/>
<path d="M81.7902 11.9126C80.7022 11.9126 79.777 11.5361 79.0153 10.7832C78.2536 10.0303 77.873 9.10398 77.873 8.00426C77.873 6.9046 78.2536 5.97826 79.0153 5.22535C79.777 4.47242 80.7022 4.09595 81.7902 4.09595C82.8879 4.09595 83.8125 4.47242 84.5645 5.22535C85.3262 5.97826 85.7068 6.9046 85.7068 8.00426C85.7068 9.10398 85.3262 10.0303 84.5645 10.7832C83.8125 11.5361 82.8879 11.9126 81.7902 11.9126ZM80.1433 9.68352C80.5879 10.1293 81.137 10.3523 81.7902 10.3523C82.4428 10.3523 82.9919 10.1293 83.4365 9.68352C83.8816 9.23769 84.1045 8.67798 84.1045 8.00426C84.1045 7.3306 83.8816 6.77083 83.4365 6.32506C82.9919 5.87923 82.4428 5.65631 81.7902 5.65631C81.137 5.65631 80.5879 5.87923 80.1433 6.32506C79.6982 6.77083 79.4753 7.3306 79.4753 8.00426C79.4753 8.67798 79.6982 9.23769 80.1433 9.68352Z" fill="white"/>
<path d="M8.19186 8.22913L0.919922 4.24598L8.19186 0.690674V8.22913Z" fill="#F9D94A"/>
<path fill-rule="evenodd" clip-rule="evenodd" d="M7.43454 1.52734L1.99394 4.16745L7.43454 7.146V1.52734ZM7.43454 8.58034L1.25068 5.19486V7.49954L7.43454 10.6927V8.58034ZM7.43454 12.1087L0.431778 8.49269C0.163017 8.35389 -0.00585938 8.0764 -0.00585938 7.77354V3.73935L7.53111 0.0819605C8.06751 -0.178354 8.69106 0.213043 8.69106 0.810103V3.74929L15.5491 7.27309C15.8187 7.41154 15.9882 7.68949 15.9882 7.99297V11.6154C15.9882 11.9185 15.819 12.1962 15.5499 12.3349L8.6118 15.9093C8.0742 16.1863 7.43454 15.7953 7.43454 15.1898V12.1087ZM8.69106 5.16382V14.4531L14.7316 11.3411V8.26754L8.69106 5.16382Z" fill="white"/>
</g>
</g>
</g>
<defs>
<clipPath id="clip0_18_18181">
<rect width="85.7143" height="16" fill="white"/>
</clipPath>
<clipPath id="clip1_18_18181">
<rect width="85.7143" height="16" fill="white" transform="translate(-0.00195312)"/>
</clipPath>
<clipPath id="clip2_18_18181">
<rect width="85.7143" height="16" fill="white" transform="translate(-0.00390625)"/>
</clipPath>
</defs>
</svg>
