<svg width="114" height="36" viewBox="0 0 114 36" fill="none" xmlns="http://www.w3.org/2000/svg">
<path fill-rule="evenodd" clip-rule="evenodd" d="M21.4608 25.3839C21.2828 27.0445 20.2746 28.3493 18.7326 29.0016C17.9023 29.3575 16.7161 29.5354 15.8265 29.4761C14.4031 29.4168 13.0983 29.061 11.8529 28.4679C11.4377 28.2306 10.7853 27.8155 10.2515 27.4003C10.1329 27.2817 10.1329 27.2224 10.1922 27.1038C10.2515 27.0445 10.3108 26.9259 10.4888 26.6293C10.7853 26.2142 10.7853 26.2142 10.8446 26.1549C10.9039 26.0362 11.0818 26.0362 11.2005 26.0955C11.2005 26.0955 11.2005 26.0956 11.2598 26.1549C11.3191 26.2142 11.3191 26.2142 11.3784 26.2142C12.6832 27.2224 14.2252 27.8155 15.7672 27.9341C17.9023 27.9341 19.5036 26.9259 19.7408 25.4432C20.0374 23.7825 18.7326 22.3591 16.2417 21.5881C15.4706 21.3509 13.4542 20.5206 13.0983 20.3427C11.3784 19.3344 10.5481 18.0297 10.6667 16.369C10.8446 14.1153 12.9797 12.3954 15.5893 12.3954C16.7754 12.3954 17.9616 12.6326 19.0884 13.1071C19.5036 13.285 20.2153 13.6409 20.4525 13.8781C20.5711 13.9967 20.6304 14.1153 20.5711 14.2339C20.5118 14.2932 20.4525 14.4119 20.2746 14.7084C20.0374 15.0642 20.0374 15.0642 20.0374 15.1236C19.9781 15.2422 19.8594 15.2422 19.6815 15.1829C18.436 14.3526 17.1313 13.9374 15.5893 13.9374C13.7507 13.9967 12.3273 15.0642 12.268 16.6063C12.268 17.9703 13.2762 18.9786 15.4706 19.6903C20.0967 21.0544 21.8166 22.715 21.4608 25.3839ZM15.9451 1.95717C18.8512 1.95717 21.2235 4.74465 21.3421 8.18451H10.5481C10.6667 4.68534 13.039 1.95717 15.9451 1.95717ZM31.0094 8.8369C31.0094 8.48105 30.7128 8.18451 30.357 8.18451H23.3586C23.1807 3.61779 19.9188 0 15.9451 0C11.9715 0 8.70953 3.61779 8.5316 8.18451H1.53325C1.1774 8.18451 0.880859 8.48105 0.880859 8.8369V8.89621L1.8891 30.8995C1.8891 30.9588 1.8891 31.0181 1.8891 31.0774C1.8891 31.0774 1.8891 31.0774 1.8891 31.1367V31.196C2.06702 32.7381 3.13457 33.9835 4.67658 34.0428H26.8578C26.8578 34.0428 26.8578 34.0428 26.9171 34.0428C26.9171 34.0428 26.9171 34.0428 26.9764 34.0428H27.0357C28.5777 33.9835 29.8232 32.7381 29.9418 31.196V31.1367C29.9418 31.0774 29.9418 31.0774 29.9418 31.0181L31.0094 8.8369ZM104.967 23.1301C105.382 21.7068 106.686 20.8171 108.169 20.8171C109.593 20.8171 110.957 21.7661 111.431 23.1301L111.49 23.2488H104.907L104.967 23.1301ZM112.973 25.1466C113.032 25.1466 113.032 25.1466 112.973 25.1466C113.329 25.1466 113.566 24.8501 113.566 24.5535C113.566 24.5535 113.566 24.5535 113.566 24.4942C113.566 24.4942 113.566 24.4942 113.566 24.4349C113.566 21.3509 111.135 18.86 108.169 18.86C105.204 18.86 102.772 21.3509 102.772 24.4349C102.772 24.6722 102.772 24.9094 102.831 25.1466V25.2059C103.009 26.3328 103.425 27.341 104.196 28.1713C105.026 29.061 106.153 29.7133 107.398 29.9506H107.457C107.517 29.9506 107.517 29.9506 107.576 29.9506C109.237 30.1285 110.66 29.8913 111.906 29.2982C112.202 29.1203 112.499 29.0016 112.736 28.8237C112.795 28.7644 112.855 28.7051 112.914 28.6458C112.973 28.6458 112.973 28.5865 112.973 28.5865C113.27 28.2899 113.27 28.1713 113.092 27.9341C112.914 27.6376 112.736 27.4003 112.617 27.1631C112.558 27.1038 112.499 27.0445 112.499 26.9852C112.499 26.9852 112.499 26.9852 112.439 26.9259C112.261 26.7479 112.202 26.7479 112.024 26.8666L111.965 26.9259C110.779 27.9934 109.177 28.2899 107.517 27.9934C107.22 27.9341 106.924 27.8155 106.686 27.6969C105.678 27.1631 104.967 26.2735 104.729 25.2652V25.2059L112.973 25.1466ZM92.156 23.1301C92.5712 21.7068 93.8759 20.8171 95.3586 20.8171C96.782 20.8171 98.1461 21.7661 98.6206 23.1301L98.6799 23.2488H92.0967L92.156 23.1301ZM100.163 25.1466C100.518 25.1466 100.756 24.8501 100.756 24.5535C100.756 24.5535 100.756 24.5535 100.756 24.4942C100.756 24.4942 100.756 24.4942 100.756 24.4349C100.756 21.3509 98.324 18.86 95.3586 18.86C92.3932 18.86 89.9616 21.3509 89.9616 24.4349C89.9616 24.6722 89.9616 24.9094 90.0209 25.1466V25.2059C90.1988 26.3328 90.614 27.341 91.385 28.1713C92.2153 29.061 93.3421 29.7133 94.5876 29.9506H94.6469C94.7062 29.9506 94.7062 29.9506 94.7655 29.9506C96.4262 30.1285 97.8496 29.8913 99.095 29.2982C99.3916 29.1203 99.6881 29.0016 99.9253 28.8237C99.9847 28.7644 100.044 28.7051 100.103 28.6458C100.163 28.6458 100.163 28.5865 100.163 28.5865C100.459 28.2899 100.459 28.1713 100.281 27.9341C100.103 27.6376 99.9253 27.4003 99.8067 27.1631C99.7474 27.1038 99.6881 27.0445 99.6881 26.9852C99.6881 26.9852 99.6881 26.9852 99.6288 26.9259C99.4509 26.7479 99.3916 26.7479 99.2137 26.8666L99.1544 26.9259C97.9682 27.9934 96.3669 28.2899 94.7062 27.9934C94.4097 27.9341 94.1132 27.8155 93.8759 27.6969C92.8677 27.1631 92.156 26.2735 91.9188 25.2652V25.2059L100.163 25.1466ZM82.3702 28.2306C80.3537 28.2306 78.7524 26.6293 78.6931 24.6722V24.4942C78.7524 22.4778 80.413 20.9357 82.3702 20.9357C84.3866 20.9357 86.0473 22.5964 86.0473 24.6128C86.0473 26.57 84.3866 28.2306 82.3702 28.2306ZM82.3702 18.9193C81.0654 18.9193 79.8199 19.3937 78.8117 20.1647L78.6931 20.2834V19.2751C78.6931 18.9786 78.6338 18.9193 78.3372 18.9193H77.0324C76.7359 18.9193 76.6766 18.9786 76.6766 19.2751V35.6441C76.6766 35.9407 76.7359 36 77.0324 36H78.3372C78.6338 36 78.6931 35.9407 78.6931 35.6441V28.8237L78.8117 28.9423C79.8199 29.7726 81.0654 30.1878 82.3702 30.1878C85.5135 30.1878 88.0044 27.6969 88.0044 24.5535C88.0044 21.4695 85.4542 18.9193 82.3702 18.9193ZM69.0851 28.112C67.0687 28.112 65.408 26.5107 65.408 24.4942C65.408 22.4778 67.0687 20.8764 69.0851 20.8764C71.1016 20.8764 72.7623 22.4778 72.7623 24.4942C72.7623 26.4514 71.1016 28.112 69.0851 28.112ZM69.0851 18.86C65.9418 18.86 63.3916 21.3509 63.3916 24.4349C63.3916 27.5189 65.9418 30.0099 69.0851 30.0099C72.2285 30.0099 74.7787 27.5189 74.7787 24.4349C74.7194 21.4102 72.1692 18.86 69.0851 18.86ZM56.3932 18.9786C55.2664 18.9786 54.1395 19.3344 53.2499 20.0461L53.1313 20.1054V12.514C53.1313 12.2768 53.072 12.1582 52.7754 12.1582H51.4113C51.1148 12.1582 51.0555 12.2175 51.0555 12.514V29.8913C51.0555 30.1285 51.1148 30.2471 51.4113 30.2471H52.7754C53.0127 30.2471 53.1313 30.1878 53.1313 29.8913V24.1977C53.1313 22.4184 54.614 20.9951 56.3932 20.9951C58.1725 20.9951 59.6552 22.4184 59.6552 24.257V29.8913C59.6552 30.1878 59.7145 30.2471 60.011 30.2471H61.3751C61.6716 30.2471 61.7309 30.1878 61.7309 29.8913V24.1977C61.7309 21.3509 59.2993 18.9786 56.3932 18.9786ZM37.5926 27.1038C37.4146 27.4003 37.296 27.5189 37.296 27.5783C37.1181 27.8155 37.1774 27.9341 37.4146 28.112C37.9484 28.5272 38.6601 29.0016 39.1346 29.2389C40.4393 29.8913 41.8627 30.1878 43.3454 30.2471C44.2944 30.3064 45.5398 30.0692 46.4295 29.654C48.0901 28.9423 49.0983 27.5189 49.2762 25.7397C49.5728 22.8929 47.7342 21.1137 42.9896 19.6903C40.7952 18.9786 39.7276 18.0297 39.7276 16.7249C39.787 15.2422 41.151 14.1746 42.9896 14.1153C44.4723 14.1153 45.7771 14.5305 47.0819 15.3608C47.3784 15.5387 47.497 15.4794 47.6749 15.2422C47.6749 15.1829 47.7342 15.1236 47.9715 14.7677C48.2087 14.4119 48.268 14.3526 48.268 14.2932C48.4459 13.9967 48.3866 13.8781 48.1494 13.7002C47.8529 13.5222 47.0818 13.1071 46.6667 12.9292C45.4212 12.4547 44.1758 12.2175 42.9303 12.2175C40.0835 12.2768 37.8298 14.1153 37.7112 16.6063C37.5926 18.3855 38.5415 19.8089 40.38 20.8171C40.9138 21.1137 42.8117 21.8254 43.7013 22.0626C46.2515 22.8336 47.5563 24.1977 47.3191 25.799C47.0818 27.2817 45.5398 28.2306 43.4047 28.2899C41.8627 28.2306 40.2614 27.6969 38.8973 26.6293C38.8973 26.6293 38.838 26.57 38.7787 26.57C38.6601 26.5107 38.6601 26.5107 38.6601 26.5107C38.3636 26.3328 38.2449 26.3328 38.067 26.57C37.8891 26.57 37.7112 26.9259 37.5926 27.1038Z" fill="#C2C2C2"/>
</svg>
