<svg width="40" height="40" viewBox="0 0 40 40" fill="none" xmlns="http://www.w3.org/2000/svg">
<g clip-path="url(#clip0_18_7512)">
<path d="M14.3501 27.9376L18.2251 30.9376C18.7251 31.4376 19.8501 31.6876 20.6001 31.6876H25.3501C26.8501 31.6876 28.4751 30.5626 28.8501 29.0626L31.8501 19.9376C32.4751 18.1876 31.3501 16.6876 29.4751 16.6876H24.4751C23.7251 16.6876 23.1001 16.0626 23.2251 15.1876L23.8501 11.1876C24.1001 10.0626 23.3501 8.81258 22.2251 8.43758C21.2251 8.06258 19.9751 8.56258 19.4751 9.31258L14.3501 16.9376" stroke="#362490" stroke-width="1.5" stroke-miterlimit="10"/>
<path d="M7.9751 27.9375V15.6875C7.9751 13.9375 8.7251 13.3125 10.4751 13.3125H11.7251C13.4751 13.3125 14.2251 13.9375 14.2251 15.6875V27.9375C14.2251 29.6875 13.4751 30.3125 11.7251 30.3125H10.4751C8.7251 30.3125 7.9751 29.6875 7.9751 27.9375Z" stroke="#362490" stroke-width="1.5" stroke-linecap="round" stroke-linejoin="round"/>
</g>
<defs>
<clipPath id="clip0_18_7512">
<rect width="40" height="40" fill="white"/>
</clipPath>
</defs>
</svg>
