<svg width="24" height="24" viewBox="0 0 24 24" fill="none" xmlns="http://www.w3.org/2000/svg">
<path d="M13.4 21.0002H4.5C1.7 21.0002 1.5 17.3003 1.5 17.3003C1.5 17.3003 8.1 17.3003 8.6 17.3003C8.6 17.3003 8.8 18.4003 11.2 18.4003H13.4" stroke="#2E2E2E" stroke-width="1.5" stroke-linecap="round" stroke-linejoin="round"/>
<path d="M2.59766 17.1997V4.49971C2.59766 4.09971 2.99766 3.69971 3.39766 3.69971H13.4977" stroke="#2E2E2E" stroke-width="1.5" stroke-linecap="round" stroke-linejoin="round"/>
<path d="M10.6996 21.0002C10.6996 21.0002 16.6996 21.0002 19.4996 21.0002C22.2996 21.0002 22.4996 17.3003 22.4996 17.3003C22.4996 17.3003 15.8996 17.3003 15.3996 17.3003C15.3996 17.3003 15.1996 18.4003 12.7996 18.4003H10.5996" stroke="#2E2E2E" stroke-width="1.5" stroke-linecap="round" stroke-linejoin="round"/>
<path d="M21.4 17.1997V4.49971C21.4 4.09971 21 3.69971 20.6 3.69971H10.5" stroke="#2E2E2E" stroke-width="1.5" stroke-linecap="round" stroke-linejoin="round"/>
</svg>
