<svg width="40" height="40" viewBox="0 0 40 40" fill="none" xmlns="http://www.w3.org/2000/svg">
<g clip-path="url(#clip0_18_20499)">
<path d="M14.3496 27.9376L18.2246 30.9376C18.7246 31.4376 19.8496 31.6876 20.5996 31.6876H25.3496C26.8496 31.6876 28.4746 30.5626 28.8496 29.0626L31.8496 19.9376C32.4746 18.1876 31.3496 16.6876 29.4746 16.6876H24.4746C23.7246 16.6876 23.0996 16.0626 23.2246 15.1876L23.8496 11.1876C24.0996 10.0626 23.3496 8.81258 22.2246 8.43758C21.2246 8.06258 19.9746 8.56258 19.4746 9.31258L14.3496 16.9376" stroke="#2E2E2E" stroke-width="1.5" stroke-miterlimit="10"/>
<path d="M7.97461 27.9375V15.6875C7.97461 13.9375 8.72461 13.3125 10.4746 13.3125H11.7246C13.4746 13.3125 14.2246 13.9375 14.2246 15.6875V27.9375C14.2246 29.6875 13.4746 30.3125 11.7246 30.3125H10.4746C8.72461 30.3125 7.97461 29.6875 7.97461 27.9375Z" stroke="#2E2E2E" stroke-width="1.5" stroke-linecap="round" stroke-linejoin="round"/>
</g>
<defs>
<clipPath id="clip0_18_20499">
<rect width="40" height="40" fill="white"/>
</clipPath>
</defs>
</svg>
