<svg width="416" height="1267" viewBox="0 0 416 1267" fill="none" xmlns="http://www.w3.org/2000/svg">
<path d="M0 507L163.247 507C187.147 507 206.5 526.336 206.5 550.215L206.5 574.919C206.5 600.048 226.871 620.42 252 620.42V620.42L416 620.42" stroke="#E0E0E0" stroke-width="1.4" stroke-miterlimit="10"/>
<path d="M0 829L163.247 829C187.147 829 206.5 848.336 206.5 872.215L206.5 896.919C206.5 922.048 226.871 942.42 252 942.42V942.42L416 942.42" stroke="#E0E0E0" stroke-width="1.4" stroke-miterlimit="10"/>
<path d="M0 1151L163.247 1151C187.147 1151 206.5 1170.34 206.5 1194.22L206.5 1218.92C206.5 1244.05 226.871 1264.42 252 1264.42V1264.42L416 1264.42" stroke="#E0E0E0" stroke-width="1.4" stroke-miterlimit="10"/>
<path d="M0 507L167 507C190.9 507 209.253 486.879 209.253 463L207.259 343.494C206.842 318.492 226.995 298 252 298V298L416 298" stroke="#E0E0E0" stroke-width="1.4" stroke-miterlimit="10"/>
<path d="M0 829L167 829C190.9 829 209.253 808.879 209.253 785L207.259 665.494C206.842 640.492 226.995 620 252 620V620L416 620" stroke="#E0E0E0" stroke-width="1.4" stroke-miterlimit="10"/>
<path d="M0 1151L167 1151C190.9 1151 209.253 1130.88 209.253 1107L207.259 987.494C206.842 962.492 226.995 942 252 942V942L416 942" stroke="#E0E0E0" stroke-width="1.4" stroke-miterlimit="10"/>
<path d="M0 89L167 89C190.9 89 209.253 68.8787 209.253 45L209.253 9.50012" stroke="#E0E0E0" stroke-width="1.4" stroke-miterlimit="10"/>
<path d="M0 89L167 89C190.9 89 209.253 109.121 209.253 133L207.259 252.506C206.842 277.508 226.995 298 252 298V298L416 298" stroke="#E0E0E0" stroke-width="1.4" stroke-miterlimit="10"/>
<path d="M253.5 302C255.985 302 258 299.985 258 297.5C258 295.015 255.985 293 253.5 293C251.015 293 249 295.015 249 297.5C249 299.985 251.015 302 253.5 302Z" fill="white" stroke="#E0E0E0" stroke-width="2" stroke-miterlimit="10"/>
<path d="M253.5 625C255.985 625 258 622.985 258 620.5C258 618.015 255.985 616 253.5 616C251.015 616 249 618.015 249 620.5C249 622.985 251.015 625 253.5 625Z" fill="white" stroke="#E0E0E0" stroke-width="2" stroke-miterlimit="10"/>
<path d="M253.5 947C255.985 947 258 944.985 258 942.5C258 940.015 255.985 938 253.5 938C251.015 938 249 940.015 249 942.5C249 944.985 251.015 947 253.5 947Z" fill="white" stroke="#E0E0E0" stroke-width="2" stroke-miterlimit="10"/>
<path d="M168.5 511C170.985 511 173 508.985 173 506.5C173 504.015 170.985 502 168.5 502C166.015 502 164 504.015 164 506.5C164 508.985 166.015 511 168.5 511Z" fill="white" stroke="#E0E0E0" stroke-width="2" stroke-miterlimit="10"/>
<path d="M168.5 834C170.985 834 173 831.985 173 829.5C173 827.015 170.985 825 168.5 825C166.015 825 164 827.015 164 829.5C164 831.985 166.015 834 168.5 834Z" fill="white" stroke="#E0E0E0" stroke-width="2" stroke-miterlimit="10"/>
<path d="M168.5 1156C170.985 1156 173 1153.99 173 1151.5C173 1149.01 170.985 1147 168.5 1147C166.015 1147 164 1149.01 164 1151.5C164 1153.99 166.015 1156 168.5 1156Z" fill="white" stroke="#E0E0E0" stroke-width="2" stroke-miterlimit="10"/>
<path d="M168.5 94C170.985 94 173 91.9853 173 89.5C173 87.0147 170.985 85 168.5 85C166.015 85 164 87.0147 164 89.5C164 91.9853 166.015 94 168.5 94Z" fill="white" stroke="#E0E0E0" stroke-width="2" stroke-miterlimit="10"/>
<path d="M199.654 4.96015L199.103 9.36926L208.472 15.4318V19.8409L217.841 15.4318V10.4715L208.472 5.51129L207.921 1.65332L199.654 4.96015Z" fill="white"/>
<path fill-rule="evenodd" clip-rule="evenodd" d="M207.664 1.98389L200.598 5.41318L207.664 9.28208V1.98389ZM207.664 11.1452L199.632 6.7477V9.74131L207.664 13.8889V11.1452ZM207.664 15.7282L198.568 11.0313C198.219 10.851 198 10.4906 198 10.0972V4.85712L207.79 0.10646C208.487 -0.231668 209.297 0.276726 209.297 1.05226V4.87002L218.205 9.44716C218.555 9.627 218.775 9.98803 218.775 10.3822V15.0874C218.775 15.4812 218.555 15.8419 218.206 16.022L209.194 20.6649C208.495 21.0247 207.664 20.5168 207.664 19.7304V15.7282ZM209.297 6.70739V18.7735L217.143 14.7312V10.7389L209.297 6.70739Z" fill="#E0E0E0"/>
</svg>
