<svg width="40" height="40" viewBox="0 0 40 40" fill="none" xmlns="http://www.w3.org/2000/svg">
<g clip-path="url(#clip0_18_7516)">
<path d="M16.2873 32.1127L19.1998 29.6627C19.6373 29.2877 20.3623 29.2877 20.7998 29.6627L23.7123 32.1127C24.3873 32.4502 25.2123 32.1127 25.4623 31.3877L26.0123 29.7252C26.1498 29.3252 26.0123 28.7377 25.7123 28.4377L22.8748 25.5877C22.6623 25.3877 22.4998 24.9877 22.4998 24.7002V21.1377C22.4998 20.6127 22.8873 20.3627 23.3748 20.5627L29.5123 23.2127C30.4748 23.6252 31.2623 23.1127 31.2623 22.0627V20.4502C31.2623 19.6127 30.6373 18.6502 29.8623 18.3252L22.8748 15.3127C22.6748 15.2252 22.4998 14.9627 22.4998 14.7377V10.9877C22.4998 9.8127 21.6373 8.4252 20.5873 7.8877C20.2123 7.7002 19.7748 7.7002 19.3998 7.8877C18.3498 8.4252 17.4873 9.8252 17.4873 11.0002V14.7502C17.4873 14.9752 17.3123 15.2377 17.1123 15.3252L10.1373 18.3377C9.3623 18.6502 8.7373 19.6127 8.7373 20.4502V22.0627C8.7373 23.1127 9.5248 23.6252 10.4873 23.2127L16.6248 20.5627C17.0998 20.3502 17.4998 20.6127 17.4998 21.1377V24.7002C17.4998 24.9877 17.3373 25.3877 17.1373 25.5877L14.2998 28.4377C13.9998 28.7377 13.8623 29.3127 13.9998 29.7252L14.5498 31.3877C14.7748 32.1127 15.5998 32.4627 16.2873 32.1127Z" stroke="#362490" stroke-width="1.5" stroke-linecap="round" stroke-linejoin="round"/>
</g>
<defs>
<clipPath id="clip0_18_7516">
<rect width="40" height="40" fill="white"/>
</clipPath>
</defs>
</svg>
