<svg width="32" height="32" viewBox="0 0 32 32" fill="none" xmlns="http://www.w3.org/2000/svg">
<g clip-path="url(#clip0_2004_120)">
<path d="M12.0002 2.66659L20.0002 2.66659C26.6668 2.66659 29.3335 5.33325 29.3335 11.9999L29.3335 19.9999C29.3335 26.6666 26.6668 29.3333 20.0002 29.3333L12.0002 29.3333C5.3335 29.3332 2.66683 26.6666 2.66683 19.9999L2.66683 11.9999C2.66683 5.33325 5.3335 2.66658 12.0002 2.66659Z" stroke="#2E2E2E" stroke-width="2" stroke-linecap="round" stroke-linejoin="round"/>
<path d="M19.2663 8.37328L22.533 8.37328C23.4263 8.37328 24.1597 9.10662 24.1597 9.99995L24.1597 21.9866C24.1597 22.8799 23.4263 23.6133 22.533 23.6133L19.2663 23.6133C18.373 23.6133 17.6397 22.8799 17.6397 21.9866L17.6397 10.0133C17.6397 9.10662 18.373 8.37328 19.2663 8.37328Z" stroke="#2E2E2E" stroke-width="2" stroke-miterlimit="10"/>
<path d="M9.14638 13.8266L13.0664 13.8266C13.7864 13.8266 14.373 14.4133 14.373 15.1333L14.373 22.3066C14.373 23.0266 13.7864 23.6133 13.0664 23.6133L9.14638 23.6133C8.42638 23.6133 7.83971 23.0266 7.83971 22.3066L7.83971 15.1199C7.82638 14.4133 8.42638 13.8266 9.14638 13.8266Z" stroke="#2E2E2E" stroke-width="2" stroke-miterlimit="10"/>
</g>
<defs>
<clipPath id="clip0_2004_120">
<rect width="32" height="32" fill="white" transform="translate(32 32) rotate(-180)"/>
</clipPath>
</defs>
</svg>
