<svg width="77" height="44" viewBox="0 0 77 44" fill="none" xmlns="http://www.w3.org/2000/svg">
<path d="M5.29143 8.47623L7.59068 7.90454L8.55133 10.8094L5.29143 8.47623ZM10.5829 4.7216H6.53554L5.29143 0.982422L4.04731 4.7216H0L3.27565 7.03928L2.03153 10.7785L5.30718 8.46078L7.32296 7.03928L10.5829 4.7216Z" fill="#219653"/>
<path d="M14.4286 3.69365V8.396H13.4629V3.69365H14.4286ZM15.8755 3.69365V4.45262H12.0387V3.69365H15.8755ZM17.0737 5.66373V8.396H16.1435V4.90153H17.0188L17.0737 5.66373ZM18.1265 4.87893L18.1104 5.74124C18.0652 5.73478 18.0103 5.7294 17.9457 5.72509C17.8832 5.71863 17.8262 5.7154 17.7745 5.7154C17.6432 5.7154 17.529 5.73263 17.4321 5.76708C17.3374 5.79937 17.2577 5.84782 17.1932 5.91241C17.1307 5.977 17.0833 6.05559 17.0511 6.14817C17.0209 6.24076 17.0037 6.34626 16.9994 6.46468L16.8121 6.40654C16.8121 6.18047 16.8347 5.9727 16.8799 5.78322C16.9251 5.5916 16.9908 5.42474 17.0769 5.28263C17.1652 5.14053 17.2728 5.03072 17.3999 4.95321C17.5269 4.8757 17.6722 4.83694 17.8359 4.83694C17.8875 4.83694 17.9403 4.84125 17.9941 4.84986C18.0479 4.85632 18.0921 4.86601 18.1265 4.87893ZM20.6327 7.55952V4.90153H21.5628V8.396H20.6876L20.6327 7.55952ZM20.7361 6.84254L21.0106 6.83608C21.0106 7.06862 20.9837 7.285 20.9298 7.48524C20.876 7.68332 20.7953 7.85557 20.6876 8.00198C20.58 8.14624 20.4443 8.25928 20.2807 8.34109C20.117 8.42076 19.9243 8.46059 19.7026 8.46059C19.5325 8.46059 19.3753 8.4369 19.2311 8.38954C19.0889 8.34002 18.9662 8.26358 18.8629 8.16023C18.7617 8.05473 18.682 7.92016 18.6239 7.75653C18.5679 7.59074 18.5399 7.39158 18.5399 7.15905V4.90153H19.47V7.16551C19.47 7.26885 19.4819 7.35605 19.5056 7.42711C19.5314 7.49816 19.5669 7.55629 19.6122 7.60151C19.6574 7.64672 19.7101 7.67902 19.7704 7.6984C19.8328 7.71777 19.9017 7.72746 19.9771 7.72746C20.1687 7.72746 20.3194 7.68871 20.4292 7.6112C20.5412 7.53368 20.6198 7.42818 20.665 7.29469C20.7124 7.15905 20.7361 7.00833 20.7361 6.84254ZM24.1627 7.43034C24.1627 7.36359 24.1433 7.3033 24.1046 7.24948C24.0658 7.19565 23.9937 7.14613 23.8882 7.10091C23.7848 7.05355 23.6352 7.01048 23.4393 6.97173C23.2627 6.93297 23.098 6.88453 22.9451 6.8264C22.7944 6.76611 22.6631 6.69398 22.5511 6.61001C22.4413 6.52604 22.3552 6.427 22.2927 6.31288C22.2303 6.19662 22.1991 6.0642 22.1991 5.91564C22.1991 5.76923 22.2303 5.63143 22.2927 5.50225C22.3573 5.37306 22.4488 5.25895 22.5673 5.15991C22.6878 5.05871 22.8342 4.98012 23.0065 4.92414C23.1809 4.86601 23.3768 4.83694 23.5943 4.83694C23.8979 4.83694 24.1584 4.88539 24.3759 4.98228C24.5955 5.07916 24.7634 5.21266 24.8797 5.38275C24.9981 5.55069 25.0573 5.74232 25.0573 5.95762H24.1272C24.1272 5.86719 24.1078 5.78645 24.069 5.7154C24.0324 5.6422 23.9743 5.58514 23.8946 5.54423C23.8171 5.50117 23.7159 5.47964 23.5911 5.47964C23.4877 5.47964 23.3984 5.49794 23.323 5.53454C23.2476 5.56899 23.1895 5.61636 23.1486 5.67665C23.1098 5.73478 23.0905 5.79937 23.0905 5.87042C23.0905 5.92425 23.1012 5.9727 23.1228 6.01576C23.1464 6.05667 23.1841 6.09435 23.2358 6.12879C23.2875 6.16324 23.3542 6.19554 23.436 6.22568C23.52 6.25367 23.6234 6.27951 23.7461 6.30319C23.998 6.35487 24.223 6.42269 24.4211 6.50666C24.6192 6.58848 24.7763 6.70044 24.8926 6.84254C25.0089 6.98249 25.067 7.16658 25.067 7.39481C25.067 7.54983 25.0325 7.69194 24.9636 7.82112C24.8948 7.95031 24.7957 8.06334 24.6665 8.16023C24.5373 8.25497 24.3823 8.32925 24.2015 8.38308C24.0228 8.43475 23.8214 8.46059 23.5975 8.46059C23.2724 8.46059 22.9968 8.40246 22.7707 8.28619C22.5468 8.16992 22.3767 8.02244 22.2604 7.84373C22.1463 7.66287 22.0893 7.4777 22.0893 7.28823H22.971C22.9753 7.41526 23.0076 7.51754 23.0679 7.59505C23.1303 7.67256 23.2089 7.72854 23.3036 7.76299C23.4005 7.79744 23.5049 7.81466 23.6169 7.81466C23.7375 7.81466 23.8376 7.79851 23.9172 7.76622C23.9969 7.73177 24.0572 7.68655 24.0981 7.63057C24.1412 7.57244 24.1627 7.50569 24.1627 7.43034ZM27.3826 4.90153V5.56038H25.348V4.90153H27.3826ZM25.8518 4.03922H26.7819V7.34314C26.7819 7.44433 26.7949 7.52184 26.8207 7.57567C26.8487 7.6295 26.8896 7.66718 26.9434 7.68871C26.9972 7.70808 27.0651 7.71777 27.1469 7.71777C27.205 7.71777 27.2567 7.71562 27.3019 7.71131C27.3493 7.70485 27.3891 7.6984 27.4214 7.69194L27.4246 8.37662C27.345 8.40246 27.2588 8.42291 27.1663 8.43798C27.0737 8.45305 26.9714 8.46059 26.8594 8.46059C26.6549 8.46059 26.4762 8.42722 26.3233 8.36047C26.1726 8.29157 26.0563 8.18176 25.9745 8.03105C25.8927 7.88033 25.8518 7.68225 25.8518 7.4368V4.03922ZM28.8424 5.5733V9.73952H27.9123V4.90153H28.7746L28.8424 5.5733ZM31.0547 6.61001V6.67783C31.0547 6.9319 31.0246 7.16766 30.9643 7.38512C30.9062 7.60258 30.82 7.79206 30.7059 7.95354C30.5918 8.11287 30.4497 8.23774 30.2796 8.32817C30.1117 8.41645 29.9179 8.46059 29.6983 8.46059C29.4851 8.46059 29.3 8.41753 29.1428 8.3314C28.9856 8.24528 28.8532 8.12471 28.7455 7.96968C28.64 7.81251 28.555 7.63057 28.4904 7.42388C28.4258 7.21718 28.3763 6.99541 28.3418 6.75857V6.58094C28.3763 6.32688 28.4258 6.09435 28.4904 5.88334C28.555 5.67019 28.64 5.4861 28.7455 5.33108C28.8532 5.1739 28.9845 5.05225 29.1396 4.96613C29.2967 4.88 29.4808 4.83694 29.6918 4.83694C29.9136 4.83694 30.1085 4.87893 30.2764 4.9629C30.4465 5.04687 30.5886 5.16744 30.7027 5.32462C30.819 5.48179 30.9062 5.66911 30.9643 5.88657C31.0246 6.10403 31.0547 6.34518 31.0547 6.61001ZM30.1214 6.67783V6.61001C30.1214 6.46145 30.1085 6.32473 30.0826 6.19985C30.0589 6.07281 30.0202 5.96193 29.9663 5.86719C29.9147 5.77246 29.8458 5.69925 29.7597 5.64758C29.6757 5.59375 29.5734 5.56684 29.4528 5.56684C29.3258 5.56684 29.2171 5.58729 29.1266 5.6282C29.0384 5.66911 28.9662 5.72832 28.9103 5.80583C28.8543 5.88334 28.8123 5.97593 28.7843 6.08358C28.7563 6.19123 28.7391 6.31288 28.7326 6.44853V6.89745C28.7434 7.05678 28.7735 7.19996 28.8231 7.32699C28.8726 7.45187 28.949 7.55091 29.0524 7.62411C29.1557 7.69732 29.2914 7.73392 29.4593 7.73392C29.582 7.73392 29.6854 7.70701 29.7693 7.65318C29.8533 7.5972 29.9211 7.52077 29.9728 7.42388C30.0266 7.32699 30.0643 7.21503 30.0858 7.088C30.1095 6.96096 30.1214 6.82424 30.1214 6.67783ZM32.6146 4.90153V8.396H31.6813V4.90153H32.6146ZM31.6231 3.99078C31.6231 3.85513 31.6705 3.74317 31.7653 3.6549C31.86 3.56662 31.987 3.52248 32.1464 3.52248C32.3035 3.52248 32.4295 3.56662 32.5242 3.6549C32.6211 3.74317 32.6696 3.85513 32.6696 3.99078C32.6696 4.12642 32.6211 4.23838 32.5242 4.32666C32.4295 4.41494 32.3035 4.45908 32.1464 4.45908C31.987 4.45908 31.86 4.41494 31.7653 4.32666C31.6705 4.23838 31.6231 4.12642 31.6231 3.99078ZM34.3651 3.43528V8.396H33.4317V3.43528H34.3651ZM34.9852 6.68429V6.61647C34.9852 6.36025 35.0218 6.12449 35.095 5.90918C35.1682 5.69172 35.2748 5.50332 35.4147 5.34399C35.5547 5.18467 35.7269 5.06086 35.9315 4.97259C36.136 4.88216 36.3707 4.83694 36.6355 4.83694C36.9004 4.83694 37.1361 4.88216 37.3428 4.97259C37.5495 5.06086 37.7228 5.18467 37.8628 5.34399C38.0049 5.50332 38.1126 5.69172 38.1858 5.90918C38.259 6.12449 38.2956 6.36025 38.2956 6.61647V6.68429C38.2956 6.93836 38.259 7.17412 38.1858 7.39158C38.1126 7.60689 38.0049 7.79528 37.8628 7.95677C37.7228 8.11609 37.5506 8.2399 37.3461 8.32817C37.1415 8.41645 36.9068 8.46059 36.642 8.46059C36.3772 8.46059 36.1414 8.41645 35.9347 8.32817C35.7302 8.2399 35.5568 8.11609 35.4147 7.95677C35.2748 7.79528 35.1682 7.60689 35.095 7.39158C35.0218 7.17412 34.9852 6.93836 34.9852 6.68429ZM35.9153 6.61647V6.68429C35.9153 6.8307 35.9282 6.96742 35.9541 7.09445C35.9799 7.22149 36.0208 7.33345 36.0768 7.43034C36.1349 7.52507 36.2103 7.59935 36.3029 7.65318C36.3955 7.70701 36.5085 7.73392 36.642 7.73392C36.7712 7.73392 36.8821 7.70701 36.9746 7.65318C37.0672 7.59935 37.1415 7.52507 37.1975 7.43034C37.2535 7.33345 37.2944 7.22149 37.3202 7.09445C37.3482 6.96742 37.3622 6.8307 37.3622 6.68429V6.61647C37.3622 6.47437 37.3482 6.34087 37.3202 6.21599C37.2944 6.08896 37.2524 5.977 37.1943 5.88011C37.1383 5.78107 37.064 5.70356 36.9714 5.64758C36.8788 5.5916 36.7669 5.56361 36.6355 5.56361C36.5042 5.56361 36.3922 5.5916 36.2997 5.64758C36.2092 5.70356 36.1349 5.78107 36.0768 5.88011C36.0208 5.977 35.9799 6.08896 35.9541 6.21599C35.9282 6.34087 35.9153 6.47437 35.9153 6.61647ZM40.5789 4.90153V5.56038H38.5442V4.90153H40.5789ZM39.0481 4.03922H39.9782V7.34314C39.9782 7.44433 39.9911 7.52184 40.017 7.57567C40.045 7.6295 40.0859 7.66718 40.1397 7.68871C40.1935 7.70808 40.2613 7.71777 40.3432 7.71777C40.4013 7.71777 40.453 7.71562 40.4982 7.71131C40.5455 7.70485 40.5854 7.6984 40.6177 7.69194L40.6209 8.37662C40.5412 8.40246 40.4551 8.42291 40.3625 8.43798C40.2699 8.45305 40.1677 8.46059 40.0557 8.46059C39.8512 8.46059 39.6725 8.42722 39.5196 8.36047C39.3689 8.29157 39.2526 8.18176 39.1708 8.03105C39.089 7.88033 39.0481 7.68225 39.0481 7.4368V4.03922Z" fill="#E0E0E0"/>
<rect width="14.2085" height="14.2085" transform="translate(0 13.8093)" fill="#219653"/>
<path d="M7.10577 23.5252L9.26664 22.9466L10.1695 25.8866L7.10577 23.5252ZM12.0787 19.7251H8.27501L7.10577 15.9407L5.93654 19.7251H2.13281L5.21131 22.0709L4.04207 25.8553L7.12058 23.5096L9.01504 22.0709L12.0787 19.7251Z" fill="white"/>
<rect width="14.2085" height="14.2085" transform="translate(15.6289 13.8093)" fill="#219653"/>
<path d="M22.7347 23.5252L24.8956 22.9466L25.7984 25.8866L22.7347 23.5252ZM27.7076 19.7251H23.9039L22.7347 15.9407L21.5654 19.7251H17.7617L20.8402 22.0709L19.671 25.8553L22.7495 23.5096L24.6439 22.0709L27.7076 19.7251Z" fill="white"/>
<rect width="14.2085" height="14.2085" transform="translate(31.2578 13.8093)" fill="#219653"/>
<path d="M38.3636 23.5252L40.5245 22.9466L41.4273 25.8866L38.3636 23.5252ZM43.3365 19.7251H39.5328L38.3636 15.9407L37.1943 19.7251H33.3906L36.4691 22.0709L35.2999 25.8553L38.3784 23.5096L40.2728 22.0709L43.3365 19.7251Z" fill="white"/>
<rect width="14.2085" height="14.2085" transform="translate(46.8867 13.8093)" fill="#219653"/>
<path d="M53.9925 23.5252L56.1534 22.9466L57.0562 25.8866L53.9925 23.5252ZM58.9655 19.7251H55.1617L53.9925 15.9407L52.8233 19.7251H49.0195L52.098 22.0709L50.9288 25.8553L54.0073 23.5096L55.9018 22.0709L58.9655 19.7251Z" fill="white"/>
<rect width="14.2085" height="14.2085" transform="translate(62.5156 13.8093)" fill="url(#paint0_linear_237_7276)"/>
<path d="M69.6214 23.5252L71.7823 22.9466L72.6851 25.8866L69.6214 23.5252ZM74.5944 19.7251H70.7906L69.6214 15.9407L68.4522 19.7251H64.6484L67.7269 22.0709L66.5577 25.8553L69.6362 23.5096L71.5307 22.0709L74.5944 19.7251Z" fill="white"/>
<path d="M1.82668 35.2559V39.0178H1.33578V35.2559H1.82668ZM3.03585 35.2559V35.6642H0.129185V35.2559H3.03585ZM3.80321 36.6615V39.0178H3.32523V36.2223H3.7903L3.80321 36.6615ZM4.67651 36.2068L4.67392 36.6511C4.63431 36.6425 4.59641 36.6374 4.56024 36.6356C4.52579 36.6322 4.48617 36.6305 4.44139 36.6305C4.33115 36.6305 4.23383 36.6477 4.14943 36.6822C4.06503 36.7166 3.99355 36.7648 3.93498 36.8268C3.87642 36.8888 3.82991 36.9629 3.79546 37.049C3.76274 37.1334 3.74121 37.2265 3.73087 37.3281L3.59652 37.4056C3.59652 37.2368 3.61288 37.0783 3.64561 36.9302C3.68006 36.7821 3.73259 36.6511 3.80321 36.5375C3.87384 36.4221 3.9634 36.3325 4.07192 36.2688C4.18216 36.2033 4.31307 36.1706 4.46464 36.1706C4.49909 36.1706 4.53871 36.1749 4.58349 36.1835C4.62828 36.1904 4.65928 36.1981 4.67651 36.2068ZM6.82873 38.3719V36.2223H7.3093V39.0178H6.85199L6.82873 38.3719ZM6.91916 37.7828L7.11811 37.7776C7.11811 37.9637 7.0983 38.1359 7.05868 38.2944C7.02079 38.4511 6.95878 38.5872 6.87266 38.7026C6.78653 38.818 6.67371 38.9084 6.53419 38.9739C6.39467 39.0376 6.22501 39.0695 6.0252 39.0695C5.88913 39.0695 5.76425 39.0497 5.65056 39.0101C5.5386 38.9705 5.44214 38.9093 5.36119 38.8266C5.28023 38.7439 5.21736 38.6363 5.17258 38.5037C5.12952 38.371 5.10798 38.2117 5.10798 38.0257V36.2223H5.58597V38.0308C5.58597 38.1566 5.59975 38.2608 5.62731 38.3435C5.65659 38.4244 5.69535 38.489 5.74358 38.5373C5.79353 38.5838 5.84865 38.6165 5.90893 38.6354C5.97094 38.6544 6.03467 38.6639 6.10013 38.6639C6.30338 38.6639 6.46443 38.6251 6.58328 38.5476C6.70213 38.4684 6.78739 38.3624 6.83907 38.2298C6.89246 38.0954 6.91916 37.9464 6.91916 37.7828ZM9.66564 38.2763C9.66564 38.2074 9.65014 38.1437 9.61913 38.0851C9.58985 38.0248 9.5287 37.9706 9.43569 37.9223C9.3444 37.8724 9.2066 37.8293 9.0223 37.7931C8.86728 37.7604 8.72689 37.7217 8.60115 37.6769C8.47714 37.6321 8.3712 37.5778 8.28336 37.5141C8.19723 37.4504 8.13092 37.3754 8.08441 37.2893C8.03791 37.2032 8.01465 37.1024 8.01465 36.987C8.01465 36.8768 8.03877 36.7726 8.087 36.6744C8.13695 36.5762 8.20671 36.4892 8.29628 36.4134C8.38757 36.3377 8.49694 36.2782 8.62441 36.2352C8.75187 36.1921 8.89397 36.1706 9.05072 36.1706C9.27464 36.1706 9.46583 36.2102 9.6243 36.2894C9.78277 36.3687 9.9042 36.4746 9.9886 36.6072C10.073 36.7381 10.1152 36.8837 10.1152 37.0439H9.63722C9.63722 36.9664 9.61397 36.8914 9.56746 36.8191C9.52268 36.745 9.45636 36.6839 9.36851 36.6356C9.28239 36.5874 9.17646 36.5633 9.05072 36.5633C8.91809 36.5633 8.81043 36.584 8.72776 36.6253C8.6468 36.6649 8.58737 36.7157 8.54948 36.7777C8.51331 36.8398 8.49522 36.9052 8.49522 36.9741C8.49522 37.0258 8.50383 37.0723 8.52106 37.1136C8.54001 37.1532 8.57273 37.1903 8.61924 37.2247C8.66575 37.2575 8.7312 37.2885 8.8156 37.3177C8.9 37.347 9.00766 37.3763 9.13856 37.4056C9.36765 37.4573 9.55626 37.5193 9.7044 37.5916C9.85253 37.664 9.96277 37.7527 10.0351 37.8577C10.1075 37.9628 10.1436 38.0903 10.1436 38.2401C10.1436 38.3624 10.1178 38.4744 10.0661 38.576C10.0162 38.6776 9.94296 38.7655 9.8465 38.8395C9.75176 38.9119 9.63808 38.9687 9.50545 39.0101C9.37454 39.0497 9.22727 39.0695 9.06364 39.0695C8.81732 39.0695 8.60891 39.0256 8.43838 38.9377C8.26786 38.8499 8.13867 38.7362 8.05082 38.5967C7.96298 38.4572 7.91906 38.3099 7.91906 38.1549H8.39963C8.40652 38.2858 8.44441 38.39 8.51331 38.4675C8.58221 38.5433 8.66661 38.5975 8.76651 38.6303C8.86641 38.6613 8.96546 38.6768 9.06364 38.6768C9.19455 38.6768 9.30392 38.6595 9.39177 38.6251C9.48134 38.5906 9.54937 38.5433 9.59588 38.483C9.64239 38.4227 9.66564 38.3538 9.66564 38.2763ZM11.9419 36.2223V36.5891H10.4304V36.2223H11.9419ZM10.942 35.5427H11.42V38.3254C11.42 38.4201 11.4346 38.4916 11.4639 38.5398C11.4932 38.5881 11.5311 38.6199 11.5776 38.6354C11.6241 38.6509 11.674 38.6587 11.7274 38.6587C11.7671 38.6587 11.8084 38.6552 11.8515 38.6484C11.8962 38.6397 11.9298 38.6329 11.9522 38.6277L11.9548 39.0178C11.9169 39.0299 11.867 39.0411 11.8049 39.0514C11.7447 39.0635 11.6715 39.0695 11.5853 39.0695C11.4682 39.0695 11.3606 39.0462 11.2624 38.9997C11.1642 38.9532 11.0858 38.8757 11.0273 38.7672C10.9704 38.657 10.942 38.5088 10.942 38.3228V35.5427ZM14.5798 38.067C14.5798 37.9792 14.5661 37.9017 14.5385 37.8345C14.5127 37.7656 14.4662 37.7036 14.399 37.6485C14.3335 37.5933 14.2422 37.5408 14.1251 37.4909C14.0097 37.4409 13.8633 37.3901 13.6859 37.3384C13.4999 37.2833 13.3319 37.2221 13.1821 37.155C13.0322 37.0861 12.9039 37.0077 12.7971 36.9199C12.6903 36.832 12.6085 36.7312 12.5516 36.6176C12.4948 36.5039 12.4664 36.3738 12.4664 36.2274C12.4664 36.081 12.4965 35.9458 12.5568 35.8218C12.6171 35.6978 12.7032 35.5901 12.8152 35.4988C12.9289 35.4058 13.0641 35.3335 13.2208 35.2818C13.3776 35.2301 13.5524 35.2043 13.7453 35.2043C14.0278 35.2043 14.2672 35.2585 14.4636 35.367C14.6617 35.4738 14.8124 35.6142 14.9157 35.7882C15.0191 35.9604 15.0708 36.1447 15.0708 36.3411H14.5747C14.5747 36.1999 14.5445 36.075 14.4843 35.9665C14.424 35.8562 14.3327 35.7701 14.2104 35.7081C14.0881 35.6444 13.9331 35.6125 13.7453 35.6125C13.5679 35.6125 13.4215 35.6392 13.3061 35.6926C13.1907 35.746 13.1046 35.8183 13.0477 35.9096C12.9926 36.0009 12.965 36.1051 12.965 36.2223C12.965 36.3015 12.9814 36.3738 13.0141 36.4393C13.0486 36.503 13.1011 36.5624 13.1717 36.6176C13.2441 36.6727 13.3354 36.7235 13.4456 36.77C13.5576 36.8165 13.6911 36.8613 13.8461 36.9044C14.0597 36.9646 14.244 37.0318 14.399 37.1059C14.554 37.1799 14.6815 37.2635 14.7814 37.3565C14.883 37.4478 14.9579 37.552 15.0062 37.6691C15.0561 37.7845 15.0811 37.9154 15.0811 38.0619C15.0811 38.2152 15.0501 38.3538 14.9881 38.4778C14.9261 38.6018 14.8374 38.7078 14.722 38.7956C14.6065 38.8835 14.4679 38.9515 14.306 38.9997C14.1458 39.0462 13.9666 39.0695 13.7686 39.0695C13.5946 39.0695 13.4232 39.0454 13.2544 38.9972C13.0873 38.9489 12.9349 38.8766 12.7971 38.7801C12.661 38.6837 12.5516 38.5648 12.469 38.4236C12.388 38.2806 12.3475 38.1152 12.3475 37.9275H12.8436C12.8436 38.0567 12.8686 38.1678 12.9185 38.2608C12.9685 38.3521 13.0365 38.4279 13.1226 38.4882C13.2105 38.5484 13.3095 38.5932 13.4198 38.6225C13.5317 38.6501 13.648 38.6639 13.7686 38.6639C13.9425 38.6639 14.0898 38.6397 14.2104 38.5915C14.331 38.5433 14.4222 38.4744 14.4843 38.3848C14.548 38.2952 14.5798 38.1893 14.5798 38.067ZM16.7631 38.6768C16.8768 38.6768 16.9818 38.6535 17.0783 38.607C17.1747 38.5605 17.254 38.4968 17.316 38.4158C17.378 38.3331 17.4133 38.2393 17.4219 38.1342H17.8767C17.868 38.2996 17.8121 38.4537 17.7087 38.5967C17.6071 38.7379 17.4736 38.8525 17.3082 38.9403C17.1429 39.0264 16.9612 39.0695 16.7631 39.0695C16.5529 39.0695 16.3695 39.0325 16.2127 38.9584C16.0577 38.8843 15.9285 38.7827 15.8252 38.6535C15.7236 38.5243 15.6469 38.3762 15.5952 38.2091C15.5453 38.0403 15.5203 37.862 15.5203 37.6743V37.5658C15.5203 37.378 15.5453 37.2006 15.5952 37.0335C15.6469 36.8647 15.7236 36.7157 15.8252 36.5866C15.9285 36.4574 16.0577 36.3557 16.2127 36.2817C16.3695 36.2076 16.5529 36.1706 16.7631 36.1706C16.9818 36.1706 17.173 36.2154 17.3367 36.3049C17.5003 36.3928 17.6286 36.5134 17.7216 36.6667C17.8164 36.8182 17.868 36.9905 17.8767 37.1834H17.4219C17.4133 37.068 17.3806 36.9638 17.3237 36.8708C17.2686 36.7777 17.1928 36.7037 17.0964 36.6486C17.0016 36.5917 16.8905 36.5633 16.7631 36.5633C16.6167 36.5633 16.4935 36.5926 16.3936 36.6511C16.2954 36.708 16.2171 36.7855 16.1585 36.8837C16.1017 36.9801 16.0603 37.0878 16.0345 37.2066C16.0104 37.3238 15.9983 37.4435 15.9983 37.5658V37.6743C15.9983 37.7966 16.0104 37.9172 16.0345 38.036C16.0586 38.1549 16.0991 38.2625 16.1559 38.359C16.2145 38.4554 16.2928 38.5329 16.391 38.5915C16.4909 38.6484 16.6149 38.6768 16.7631 38.6768ZM18.2875 37.651V37.5916C18.2875 37.3901 18.3167 37.2032 18.3753 37.031C18.4339 36.857 18.5183 36.7063 18.6285 36.5788C18.7388 36.4496 18.8722 36.3497 19.029 36.2791C19.1857 36.2068 19.3614 36.1706 19.5561 36.1706C19.7524 36.1706 19.929 36.2068 20.0857 36.2791C20.2442 36.3497 20.3785 36.4496 20.4888 36.5788C20.6007 36.7063 20.686 36.857 20.7446 37.031C20.8031 37.2032 20.8324 37.3901 20.8324 37.5916V37.651C20.8324 37.8526 20.8031 38.0395 20.7446 38.2117C20.686 38.384 20.6007 38.5347 20.4888 38.6639C20.3785 38.7913 20.2451 38.8912 20.0883 38.9636C19.9333 39.0342 19.7576 39.0695 19.5612 39.0695C19.3649 39.0695 19.1883 39.0342 19.0316 38.9636C18.8748 38.8912 18.7405 38.7913 18.6285 38.6639C18.5183 38.5347 18.4339 38.384 18.3753 38.2117C18.3167 38.0395 18.2875 37.8526 18.2875 37.651ZM18.7655 37.5916V37.651C18.7655 37.7906 18.7818 37.9223 18.8145 38.0463C18.8473 38.1686 18.8964 38.2772 18.9618 38.3719C19.029 38.4666 19.1125 38.5416 19.2124 38.5967C19.3123 38.6501 19.4286 38.6768 19.5612 38.6768C19.6921 38.6768 19.8067 38.6501 19.9049 38.5967C20.0048 38.5416 20.0874 38.4666 20.1529 38.3719C20.2184 38.2772 20.2674 38.1686 20.3002 38.0463C20.3346 37.9223 20.3518 37.7906 20.3518 37.651V37.5916C20.3518 37.4538 20.3346 37.3238 20.3002 37.2015C20.2674 37.0775 20.2175 36.9681 20.1503 36.8733C20.0849 36.7769 20.0022 36.7011 19.9023 36.646C19.8041 36.5909 19.6887 36.5633 19.5561 36.5633C19.4252 36.5633 19.3098 36.5909 19.2098 36.646C19.1117 36.7011 19.029 36.7769 18.9618 36.8733C18.8964 36.9681 18.8473 37.0775 18.8145 37.2015C18.7818 37.3238 18.7655 37.4538 18.7655 37.5916ZM21.9098 36.6615V39.0178H21.4318V36.2223H21.8969L21.9098 36.6615ZM22.7831 36.2068L22.7805 36.6511C22.7409 36.6425 22.703 36.6374 22.6668 36.6356C22.6324 36.6322 22.5928 36.6305 22.548 36.6305C22.4378 36.6305 22.3404 36.6477 22.256 36.6822C22.1716 36.7166 22.1002 36.7648 22.0416 36.8268C21.983 36.8888 21.9365 36.9629 21.9021 37.049C21.8693 37.1334 21.8478 37.2265 21.8375 37.3281L21.7031 37.4056C21.7031 37.2368 21.7195 37.0783 21.7522 36.9302C21.7867 36.7821 21.8392 36.6511 21.9098 36.5375C21.9804 36.4221 22.07 36.3325 22.1785 36.2688C22.2888 36.2033 22.4197 36.1706 22.5712 36.1706C22.6057 36.1706 22.6453 36.1749 22.6901 36.1835C22.7349 36.1904 22.7659 36.1981 22.7831 36.2068ZM24.3333 39.0695C24.1387 39.0695 23.9621 39.0368 23.8037 38.9713C23.6469 38.9041 23.5117 38.8103 23.398 38.6897C23.2861 38.5691 23.1999 38.4262 23.1397 38.2608C23.0794 38.0954 23.0492 37.9146 23.0492 37.7182V37.6097C23.0492 37.3823 23.0828 37.1799 23.15 37.0025C23.2172 36.8234 23.3085 36.6718 23.4239 36.5478C23.5393 36.4238 23.6702 36.3299 23.8166 36.2662C23.963 36.2024 24.1146 36.1706 24.2713 36.1706C24.4711 36.1706 24.6434 36.205 24.7881 36.2739C24.9345 36.3428 25.0542 36.4393 25.1472 36.5633C25.2402 36.6856 25.3091 36.8303 25.3539 36.9974C25.3987 37.1627 25.4211 37.3436 25.4211 37.5399V37.7544H23.3334V37.3643H24.9431V37.3281C24.9362 37.2041 24.9104 37.0835 24.8656 36.9664C24.8225 36.8492 24.7536 36.7528 24.6589 36.677C24.5641 36.6012 24.435 36.5633 24.2713 36.5633C24.1628 36.5633 24.0629 36.5866 23.9716 36.6331C23.8803 36.6778 23.802 36.745 23.7365 36.8346C23.671 36.9242 23.6202 37.0335 23.5841 37.1627C23.5479 37.2919 23.5298 37.4409 23.5298 37.6097V37.7182C23.5298 37.8508 23.5479 37.9757 23.5841 38.0929C23.622 38.2083 23.6762 38.3099 23.7468 38.3977C23.8192 38.4856 23.9062 38.5545 24.0078 38.6044C24.1111 38.6544 24.2283 38.6794 24.3592 38.6794C24.528 38.6794 24.6709 38.6449 24.7881 38.576C24.9052 38.5071 25.0077 38.415 25.0955 38.2996L25.3849 38.5295C25.3246 38.6208 25.248 38.7078 25.155 38.7905C25.0619 38.8731 24.9474 38.9403 24.8113 38.992C24.677 39.0437 24.5176 39.0695 24.3333 39.0695ZM29.8211 37.6123V38.1962H27.1108L27.0746 37.7441L28.643 35.2559H29.2346L28.5939 36.3282L27.8136 37.6123H29.8211ZM29.3948 35.2559V39.0178H28.6507V35.2559H29.3948ZM30.2914 38.6587C30.2914 38.5484 30.3293 38.4563 30.405 38.3822C30.4826 38.3082 30.585 38.2711 30.7125 38.2711C30.84 38.2711 30.9416 38.3082 31.0174 38.3822C31.0949 38.4563 31.1336 38.5484 31.1336 38.6587C31.1336 38.7689 31.0949 38.8611 31.0174 38.9351C30.9416 39.0092 30.84 39.0462 30.7125 39.0462C30.585 39.0462 30.4826 39.0092 30.405 38.9351C30.3293 38.8611 30.2914 38.7689 30.2914 38.6587ZM34.3142 35.2559V35.6564L32.8596 39.0178H32.0741L33.5287 35.8373H31.6556V35.2559H34.3142Z" fill="#E0E0E0"/>
<path d="M43.5622 38.4365V39.0178H40.9888V38.5218L42.2058 37.217C42.3281 37.0809 42.4245 36.9612 42.4951 36.8578C42.5658 36.7528 42.6166 36.6589 42.6476 36.5762C42.6803 36.4918 42.6967 36.4117 42.6967 36.3359C42.6967 36.2223 42.6777 36.1249 42.6398 36.044C42.6019 35.9613 42.546 35.8976 42.4719 35.8528C42.3995 35.808 42.31 35.7856 42.2032 35.7856C42.0895 35.7856 41.9913 35.8132 41.9086 35.8683C41.8277 35.9234 41.7657 36.0001 41.7226 36.0982C41.6813 36.1964 41.6606 36.3075 41.6606 36.4315H40.9139C40.9139 36.2076 40.9673 36.0026 41.0741 35.8166C41.1809 35.6289 41.3316 35.4799 41.5262 35.3696C41.7209 35.2577 41.9517 35.2017 42.2187 35.2017C42.4822 35.2017 42.7044 35.2448 42.8853 35.3309C43.0679 35.4153 43.2057 35.5376 43.2987 35.6978C43.3934 35.8562 43.4408 36.0457 43.4408 36.2662C43.4408 36.3902 43.421 36.5116 43.3814 36.6305C43.3417 36.7476 43.2849 36.8647 43.2108 36.9819C43.1385 37.0973 43.0506 37.2144 42.9473 37.3332C42.8439 37.4521 42.7294 37.5753 42.6037 37.7027L41.95 38.4365H43.5622ZM46.5619 37.9869C46.5619 38.2229 46.5068 38.4218 46.3965 38.5838C46.2863 38.7439 46.1347 38.8654 45.9418 38.9481C45.7506 39.029 45.5336 39.0695 45.2907 39.0695C45.0478 39.0695 44.8299 39.029 44.637 38.9481C44.4441 38.8654 44.2917 38.7439 44.1797 38.5838C44.0678 38.4218 44.0118 38.2229 44.0118 37.9869C44.0118 37.8285 44.0436 37.6855 44.1074 37.558C44.1711 37.4288 44.2598 37.3186 44.3735 37.2273C44.4889 37.1343 44.6241 37.0637 44.7791 37.0155C44.9342 36.9655 45.103 36.9405 45.2855 36.9405C45.5301 36.9405 45.7489 36.9836 45.9418 37.0697C46.1347 37.1558 46.2863 37.2773 46.3965 37.434C46.5068 37.5908 46.5619 37.7751 46.5619 37.9869ZM45.8126 37.9378C45.8126 37.8224 45.7902 37.7234 45.7454 37.6407C45.7024 37.5563 45.6412 37.4917 45.562 37.4469C45.4828 37.4021 45.3906 37.3798 45.2855 37.3798C45.1805 37.3798 45.0883 37.4021 45.0091 37.4469C44.9299 37.4917 44.8678 37.5563 44.8231 37.6407C44.78 37.7234 44.7585 37.8224 44.7585 37.9378C44.7585 38.0515 44.78 38.1497 44.8231 38.2324C44.8678 38.3151 44.9299 38.3788 45.0091 38.4236C45.09 38.4666 45.1839 38.4882 45.2907 38.4882C45.3975 38.4882 45.4897 38.4666 45.5672 38.4236C45.6464 38.3788 45.7067 38.3151 45.748 38.2324C45.7911 38.1497 45.8126 38.0515 45.8126 37.9378ZM46.4818 36.2533C46.4818 36.4445 46.431 36.6141 46.3294 36.7622C46.2277 36.9087 46.0865 37.0232 45.9056 37.1059C45.7265 37.1886 45.5215 37.2299 45.2907 37.2299C45.0582 37.2299 44.8515 37.1886 44.6706 37.1059C44.4898 37.0232 44.3485 36.9087 44.2469 36.7622C44.1453 36.6141 44.0945 36.4445 44.0945 36.2533C44.0945 36.0259 44.1453 35.8347 44.2469 35.6797C44.3502 35.5229 44.4915 35.4041 44.6706 35.3231C44.8515 35.2422 45.0565 35.2017 45.2855 35.2017C45.5181 35.2017 45.7239 35.2422 45.903 35.3231C46.0839 35.4041 46.2251 35.5229 46.3268 35.6797C46.4301 35.8347 46.4818 36.0259 46.4818 36.2533ZM45.7377 36.2868C45.7377 36.1852 45.7196 36.0974 45.6834 36.0233C45.6473 35.9475 45.5956 35.889 45.5284 35.8476C45.463 35.8063 45.382 35.7856 45.2855 35.7856C45.1925 35.7856 45.1124 35.8054 45.0453 35.845C44.9798 35.8846 44.929 35.9424 44.8928 36.0181C44.8584 36.0922 44.8411 36.1818 44.8411 36.2868C44.8411 36.3885 44.8584 36.478 44.8928 36.5556C44.929 36.6313 44.9807 36.6908 45.0478 36.7338C45.115 36.7769 45.196 36.7984 45.2907 36.7984C45.3854 36.7984 45.4655 36.7769 45.531 36.7338C45.5982 36.6908 45.649 36.6313 45.6834 36.5556C45.7196 36.478 45.7377 36.3885 45.7377 36.2868ZM48.5617 35.2559H49.807C50.0895 35.2559 50.3281 35.299 50.5227 35.3851C50.7191 35.4713 50.8681 35.5987 50.9697 35.7675C51.073 35.9346 51.1247 36.1404 51.1247 36.385C51.1247 36.5573 51.0894 36.7149 51.0188 36.8578C50.9499 36.9991 50.85 37.1197 50.7191 37.2196C50.5899 37.3177 50.4349 37.3909 50.254 37.4392L50.1145 37.4934H48.9441L48.9389 37.0878H49.8225C50.0017 37.0878 50.1507 37.0568 50.2695 36.9948C50.3884 36.931 50.4779 36.8458 50.5382 36.739C50.5985 36.6322 50.6286 36.5142 50.6286 36.385C50.6286 36.2403 50.6002 36.1137 50.5434 36.0052C50.4865 35.8967 50.397 35.8132 50.2747 35.7546C50.1541 35.6943 49.9982 35.6642 49.807 35.6642H49.0603V39.0178H48.5617V35.2559ZM50.7604 39.0178L49.8458 37.3126L50.3651 37.31L51.2927 38.9868V39.0178H50.7604ZM52.9101 39.0695C52.7154 39.0695 52.5389 39.0368 52.3804 38.9713C52.2237 38.9041 52.0884 38.8103 51.9748 38.6897C51.8628 38.5691 51.7767 38.4262 51.7164 38.2608C51.6561 38.0954 51.626 37.9146 51.626 37.7182V37.6097C51.626 37.3823 51.6595 37.1799 51.7267 37.0025C51.7939 36.8234 51.8852 36.6718 52.0006 36.5478C52.116 36.4238 52.2469 36.3299 52.3933 36.2662C52.5397 36.2024 52.6913 36.1706 52.848 36.1706C53.0479 36.1706 53.2201 36.205 53.3648 36.2739C53.5112 36.3428 53.6309 36.4393 53.7239 36.5633C53.8169 36.6856 53.8858 36.8303 53.9306 36.9974C53.9754 37.1627 53.9978 37.3436 53.9978 37.5399V37.7544H51.9102V37.3643H53.5198V37.3281C53.5129 37.2041 53.4871 37.0835 53.4423 36.9664C53.3992 36.8492 53.3303 36.7528 53.2356 36.677C53.1409 36.6012 53.0117 36.5633 52.848 36.5633C52.7395 36.5633 52.6396 36.5866 52.5483 36.6331C52.457 36.6778 52.3787 36.745 52.3132 36.8346C52.2478 36.9242 52.197 37.0335 52.1608 37.1627C52.1246 37.2919 52.1065 37.4409 52.1065 37.6097V37.7182C52.1065 37.8508 52.1246 37.9757 52.1608 38.0929C52.1987 38.2083 52.2529 38.3099 52.3236 38.3977C52.3959 38.4856 52.4829 38.5545 52.5845 38.6044C52.6879 38.6544 52.805 38.6794 52.9359 38.6794C53.1047 38.6794 53.2477 38.6449 53.3648 38.576C53.4819 38.5071 53.5844 38.415 53.6722 38.2996L53.9616 38.5295C53.9013 38.6208 53.8247 38.7078 53.7317 38.7905C53.6387 38.8731 53.5241 38.9403 53.388 38.992C53.2537 39.0437 53.0944 39.0695 52.9101 39.0695ZM55.3697 38.5863L56.1345 36.2223H56.6228L55.6178 39.0178H55.2974L55.3697 38.5863ZM54.7316 36.2223L55.5196 38.5993L55.5739 39.0178H55.2535L54.2407 36.2223H54.7316ZM57.6021 36.2223V39.0178H57.1215V36.2223H57.6021ZM57.0853 35.4807C57.0853 35.4032 57.1086 35.3378 57.1551 35.2844C57.2033 35.231 57.2739 35.2043 57.3669 35.2043C57.4582 35.2043 57.528 35.231 57.5762 35.2844C57.6262 35.3378 57.6512 35.4032 57.6512 35.4807C57.6512 35.5548 57.6262 35.6185 57.5762 35.6719C57.528 35.7236 57.4582 35.7494 57.3669 35.7494C57.2739 35.7494 57.2033 35.7236 57.1551 35.6719C57.1086 35.6185 57.0853 35.5548 57.0853 35.4807ZM59.5295 39.0695C59.3349 39.0695 59.1583 39.0368 58.9998 38.9713C58.8431 38.9041 58.7079 38.8103 58.5942 38.6897C58.4822 38.5691 58.3961 38.4262 58.3358 38.2608C58.2755 38.0954 58.2454 37.9146 58.2454 37.7182V37.6097C58.2454 37.3823 58.279 37.1799 58.3462 37.0025C58.4133 36.8234 58.5046 36.6718 58.62 36.5478C58.7354 36.4238 58.8664 36.3299 59.0128 36.2662C59.1592 36.2024 59.3108 36.1706 59.4675 36.1706C59.6673 36.1706 59.8396 36.205 59.9842 36.2739C60.1306 36.3428 60.2504 36.4393 60.3434 36.5633C60.4364 36.6856 60.5053 36.8303 60.5501 36.9974C60.5949 37.1627 60.6172 37.3436 60.6172 37.5399V37.7544H58.5296V37.3643H60.1393V37.3281C60.1324 37.2041 60.1065 37.0835 60.0618 36.9664C60.0187 36.8492 59.9498 36.7528 59.8551 36.677C59.7603 36.6012 59.6311 36.5633 59.4675 36.5633C59.359 36.5633 59.2591 36.5866 59.1678 36.6331C59.0765 36.6778 58.9981 36.745 58.9327 36.8346C58.8672 36.9242 58.8164 37.0335 58.7802 37.1627C58.7441 37.2919 58.726 37.4409 58.726 37.6097V37.7182C58.726 37.8508 58.7441 37.9757 58.7802 38.0929C58.8181 38.2083 58.8724 38.3099 58.943 38.3977C59.0153 38.4856 59.1023 38.5545 59.204 38.6044C59.3073 38.6544 59.4244 38.6794 59.5553 38.6794C59.7241 38.6794 59.8671 38.6449 59.9842 38.576C60.1014 38.5071 60.2039 38.415 60.2917 38.2996L60.5811 38.5295C60.5208 38.6208 60.4441 38.7078 60.3511 38.7905C60.2581 38.8731 60.1436 38.9403 60.0075 38.992C59.8731 39.0437 59.7138 39.0695 59.5295 39.0695ZM61.8833 38.5218L62.6015 36.2223H62.9167L62.8547 36.6796L62.1235 39.0178H61.8161L61.8833 38.5218ZM61.4001 36.2223L62.0124 38.5476L62.0564 39.0178H61.7334L60.9221 36.2223H61.4001ZM63.604 38.5295L64.1879 36.2223H64.6633L63.852 39.0178H63.5317L63.604 38.5295ZM62.9865 36.2223L63.6893 38.483L63.7694 39.0178H63.4645L62.7126 36.6744L62.6506 36.2223H62.9865ZM66.782 38.2763C66.782 38.2074 66.7665 38.1437 66.7355 38.0851C66.7062 38.0248 66.645 37.9706 66.552 37.9223C66.4607 37.8724 66.3229 37.8293 66.1386 37.7931C65.9836 37.7604 65.8432 37.7217 65.7175 37.6769C65.5935 37.6321 65.4875 37.5778 65.3997 37.5141C65.3136 37.4504 65.2472 37.3754 65.2007 37.2893C65.1542 37.2032 65.131 37.1024 65.131 36.987C65.131 36.8768 65.1551 36.7726 65.2033 36.6744C65.2533 36.5762 65.323 36.4892 65.4126 36.4134C65.5039 36.3377 65.6133 36.2782 65.7407 36.2352C65.8682 36.1921 66.0103 36.1706 66.167 36.1706C66.391 36.1706 66.5822 36.2102 66.7406 36.2894C66.8991 36.3687 67.0205 36.4746 67.1049 36.6072C67.1893 36.7381 67.2315 36.8837 67.2315 37.0439H66.7535C66.7535 36.9664 66.7303 36.8914 66.6838 36.8191C66.639 36.745 66.5727 36.6839 66.4848 36.6356C66.3987 36.5874 66.2928 36.5633 66.167 36.5633C66.0344 36.5633 65.9268 36.584 65.8441 36.6253C65.7631 36.6649 65.7037 36.7157 65.6658 36.7777C65.6296 36.8398 65.6115 36.9052 65.6115 36.9741C65.6115 37.0258 65.6202 37.0723 65.6374 37.1136C65.6563 37.1532 65.6891 37.1903 65.7356 37.2247C65.7821 37.2575 65.8475 37.2885 65.9319 37.3177C66.0163 37.347 66.124 37.3763 66.2549 37.4056C66.484 37.4573 66.6726 37.5193 66.8207 37.5916C66.9689 37.664 67.0791 37.7527 67.1514 37.8577C67.2238 37.9628 67.26 38.0903 67.26 38.2401C67.26 38.3624 67.2341 38.4744 67.1824 38.576C67.1325 38.6776 67.0593 38.7655 66.9628 38.8395C66.8681 38.9119 66.7544 38.9687 66.6218 39.0101C66.4909 39.0497 66.3436 39.0695 66.18 39.0695C65.9337 39.0695 65.7252 39.0256 65.5547 38.9377C65.3842 38.8499 65.255 38.7362 65.1672 38.5967C65.0793 38.4572 65.0354 38.3099 65.0354 38.1549H65.516C65.5228 38.2858 65.5607 38.39 65.6296 38.4675C65.6985 38.5433 65.7829 38.5975 65.8828 38.6303C65.9827 38.6613 66.0818 38.6768 66.18 38.6768C66.3109 38.6768 66.4202 38.6595 66.5081 38.6251C66.5977 38.5906 66.6657 38.5433 66.7122 38.483C66.7587 38.4227 66.782 38.3538 66.782 38.2763Z" fill="#E0E0E0"/>
<defs>
<linearGradient id="paint0_linear_237_7276" x1="0" y1="7.10423" x2="14.2085" y2="7.10423" gradientUnits="userSpaceOnUse">
<stop stop-color="#219653"/>
<stop offset="0.5" stop-color="#219653"/>
<stop offset="0.5001" stop-color="#219653" stop-opacity="0"/>
<stop offset="0.5002" stop-color="#D9D9D9" stop-opacity="0.6"/>
<stop offset="0.9998" stop-color="#D9D9D9" stop-opacity="0.6"/>
<stop offset="0.9999" stop-color="#219653" stop-opacity="0"/>
<stop offset="1" stop-color="#D9D9D9" stop-opacity="0.6"/>
</linearGradient>
</defs>
</svg>
