<svg width="765" height="370" viewBox="0 0 765 370" fill="none" xmlns="http://www.w3.org/2000/svg">
<g clip-path="url(#clip0_18_7067)">
<path d="M266.392 305.935C267.915 280.805 270.228 256.549 273.246 233.477C276.941 205.104 281.707 178.478 287.376 154.138C294.371 123.903 302.776 97.1365 312.281 74.7985C331.883 28.6558 356.111 1.41016 382.341 1.41016C381.664 1.41016 381.015 1.41016 380.338 1.41016C332.024 2.17168 287.376 29.3045 251.162 74.7985C233.393 97.1365 217.655 123.903 204.511 154.138C193.906 178.507 185.022 205.132 178.083 233.477C172.443 256.549 168.127 280.776 165.25 305.907C162.599 329.317 161.189 353.488 161.189 378.223" stroke="#E0E0E0" stroke-miterlimit="10"/>
<path d="M500.463 378.251V378.195C500.463 353.431 499.701 329.232 498.291 305.794C496.768 280.663 494.455 256.436 491.437 233.364C487.742 205.019 482.976 178.394 477.335 154.053C470.312 123.818 461.907 97.0517 452.402 74.7137C432.884 28.8249 408.798 1.63568 382.708 1.38184C431.643 1.49465 476.855 28.7121 513.465 74.6855C531.234 97.0235 546.972 123.761 560.115 153.997C570.72 178.337 579.633 204.962 586.571 233.308C592.212 256.379 596.556 280.607 599.432 305.737C602.112 329.175 603.522 353.403 603.522 378.167C571.792 378.167 500.491 378.223 500.491 378.223L500.463 378.251Z" stroke="#E0E0E0" stroke-miterlimit="10"/>
<path d="M264.22 378.223C264.22 353.516 264.982 329.345 266.392 305.935C267.915 280.805 270.228 256.549 273.246 233.477C276.941 205.104 281.707 178.478 287.376 154.138C294.371 123.903 302.776 97.1365 312.281 74.7985C331.883 28.6558 356.111 1.41016 382.341 1.41016V1.43836C381.664 1.43836 381.016 1.43836 380.339 1.43836C379.662 1.43836 379.013 1.43836 378.336 1.43836C310.984 2.48193 248.764 29.5583 198.25 74.8267C173.317 97.1647 151.233 123.931 132.787 154.166C117.923 178.535 105.429 205.132 95.6981 233.477C87.8008 256.549 81.7086 280.776 77.7036 305.907C73.9523 329.317 71.978 353.516 71.978 378.251" stroke="#E0E0E0" stroke-miterlimit="10"/>
<path d="M692.705 378.138V378.11C692.705 353.318 690.731 329.091 686.951 305.653C682.918 280.522 676.826 256.295 668.9 233.223C659.17 204.85 646.647 178.253 631.783 153.912C613.309 123.677 591.225 96.9389 566.264 74.6009C515.806 29.4454 453.671 2.42541 386.375 1.38184C385.162 1.38184 383.921 1.38184 382.708 1.38184" stroke="#E0E0E0" stroke-miterlimit="10"/>
<path d="M264.219 378.223C264.219 353.516 264.98 329.345 266.391 305.935C267.914 280.805 270.226 256.549 273.244 233.477C276.939 205.104 281.706 178.478 287.375 154.138C294.37 123.903 302.775 97.1365 312.279 74.7985C331.882 28.6558 356.109 1.41016 382.34 1.41016V1.43836C381.663 1.43836 381.014 1.43836 380.337 1.43836C379.66 1.43836 379.011 1.43836 378.335 1.43836C295.329 2.25629 218.64 29.3891 156.449 74.8267C125.847 97.1647 98.7427 123.903 76.0944 154.138C57.8742 178.478 42.531 205.075 30.6004 233.393C20.8698 256.408 13.4238 280.607 8.48804 305.681C3.83428 329.119 1.40869 353.375 1.40869 378.139" stroke="#E0E0E0" stroke-miterlimit="10"/>
<path d="M763.27 378.082L763.298 378.026C763.27 353.234 760.845 329.006 756.219 305.568C751.255 280.466 743.781 256.238 734.05 233.167C722.092 204.793 706.748 178.196 688.472 153.856C665.795 123.62 638.662 96.8825 608.032 74.5727C545.869 29.2762 469.294 2.22797 386.344 1.38184C385.132 1.38184 383.891 1.38184 382.678 1.38184" stroke="#E0E0E0" stroke-miterlimit="10"/>
<path d="M8.46094 305.625C17.6274 306.217 757.151 305.625 757.151 305.625" stroke="#E0E0E0" stroke-miterlimit="10"/>
<path d="M30.5723 233.336C45.7745 233.393 68.1408 233.421 95.6966 233.421C119.671 233.421 147.537 233.449 178.082 233.449C208.628 233.449 239.85 233.449 273.244 233.449C308.782 233.449 345.758 233.449 382.763 233.449C419.457 233.449 456.123 233.449 491.407 233.392C524.773 233.392 556.87 233.364 586.541 233.336C617.03 233.336 644.896 233.308 668.898 233.28C696.341 233.28 718.707 233.251 734.051 233.251" stroke="#E0E0E0" stroke-miterlimit="10"/>
<path d="M76.0962 154.081C92.6805 154.081 111.775 154.109 132.816 154.109C154.815 154.109 178.958 154.109 204.54 154.109C230.121 154.109 258.749 154.109 287.405 154.109C318.543 154.109 350.64 154.109 382.736 154.109C414.551 154.109 446.394 154.109 477.278 154.081C505.934 154.081 533.772 154.053 560.087 154.025C585.64 154.025 609.755 154.025 631.783 153.996C652.795 153.996 671.861 153.996 688.474 153.968" stroke="#E0E0E0" stroke-miterlimit="10"/>
<path d="M156.448 74.7982C169.817 74.7982 183.807 74.7982 198.304 74.7982H251.244C271.128 74.7982 291.576 74.7982 312.335 74.7982C335.547 74.7982 359.154 74.7982 382.733 74.7982C406.059 74.7982 429.412 74.7982 452.399 74.7982C473.129 74.7982 493.577 74.7982 513.462 74.7982C531.597 74.7982 549.281 74.7982 566.289 74.77C580.73 74.77 594.719 74.77 608.088 74.77" stroke="#E0E0E0" stroke-miterlimit="10"/>
<path d="M382.878 378.308C382.878 357.577 382.878 333.039 382.821 305.85C382.821 283.343 382.821 258.974 382.765 233.421C382.765 207.98 382.765 181.327 382.737 154.081C382.737 127.992 382.737 101.367 382.708 74.7419C382.708 50.1475 382.708 25.5532 382.708 1.38184" stroke="#E0E0E0" stroke-miterlimit="10"/>
<path d="M382.678 1.41016C383.891 1.41016 385.132 1.41016 386.344 1.41016" stroke="#E0E0E0" stroke-miterlimit="10"/>
<path d="M382.682 1.41016C431.617 1.52297 476.829 28.7404 513.439 74.7138C531.207 97.0519 546.946 123.79 560.089 154.025C570.694 178.366 579.606 204.991 586.545 233.336" stroke="url(#paint0_linear_18_7067)" stroke-width="2"/>
<path d="M273.276 233.449H382.795C382.795 207.98 382.795 181.327 382.767 154.081C382.767 127.992 382.767 101.367 382.738 74.7419C382.738 50.1475 382.738 25.5532 382.738 1.38184" stroke="url(#paint1_linear_18_7067)" stroke-width="2"/>
<path d="M95.728 233.421C105.459 205.075 117.953 178.478 132.817 154.109C151.263 123.874 173.347 97.108 198.28 74.77" stroke="url(#paint2_linear_18_7067)" stroke-width="2"/>
<path d="M631.783 153.968C646.647 178.309 659.169 204.906 668.9 233.28C676.825 256.351 682.918 280.579 686.951 305.709C690.73 329.147 692.705 353.375 692.705 378.166" stroke="url(#paint3_linear_18_7067)" stroke-width="2"/>
<g filter="url(#filter0_d_18_7067)">
<rect x="109" y="209" width="148" height="48" rx="6" fill="white"/>
<rect x="109" y="209" width="148" height="48" rx="6" stroke="#E0E0E0" stroke-width="1.12805" stroke-miterlimit="10"/>
</g>
<path d="M127.999 238V230.454H125.913V229.642H126.697C127.07 229.642 127.364 229.595 127.579 229.502C127.803 229.409 127.962 229.25 128.055 229.026C128.148 228.793 128.195 228.471 128.195 228.06H128.951V238H127.999ZM133.789 238V230.454H131.703V229.642H132.487C132.86 229.642 133.154 229.595 133.369 229.502C133.593 229.409 133.752 229.25 133.845 229.026C133.938 228.793 133.985 228.471 133.985 228.06H134.741V238H133.789ZM138.096 238V236.642H139.426V238H138.096ZM142.073 238C142.073 237.328 142.185 236.721 142.409 236.18C142.643 235.629 143.03 235.111 143.571 234.626C144.122 234.131 144.869 233.641 145.811 233.156C146.315 232.895 146.726 232.652 147.043 232.428C147.361 232.195 147.594 231.947 147.743 231.686C147.893 231.425 147.967 231.107 147.967 230.734C147.967 230.351 147.883 230.015 147.715 229.726C147.547 229.427 147.3 229.194 146.973 229.026C146.647 228.858 146.241 228.774 145.755 228.774C145.009 228.774 144.411 228.975 143.963 229.376C143.515 229.777 143.235 230.356 143.123 231.112L142.129 231.042C142.241 230.062 142.615 229.283 143.249 228.704C143.884 228.125 144.719 227.836 145.755 227.836C146.427 227.836 147.001 227.962 147.477 228.214C147.963 228.457 148.331 228.793 148.583 229.222C148.835 229.651 148.961 230.146 148.961 230.706C148.961 231.219 148.868 231.663 148.681 232.036C148.504 232.4 148.21 232.741 147.799 233.058C147.398 233.366 146.861 233.693 146.189 234.038C145.237 234.533 144.514 235.046 144.019 235.578C143.534 236.11 143.273 236.609 143.235 237.076H148.961V238H142.073ZM154.955 238.224C153.891 238.224 153.056 237.972 152.449 237.468C151.852 236.955 151.525 236.292 151.469 235.48L152.449 235.41C152.515 236.045 152.771 236.516 153.219 236.824C153.677 237.132 154.255 237.286 154.955 237.286C155.441 237.286 155.875 237.216 156.257 237.076C156.649 236.927 156.962 236.703 157.195 236.404C157.429 236.096 157.545 235.704 157.545 235.228C157.545 234.547 157.307 234.033 156.831 233.688C156.355 233.333 155.725 233.156 154.941 233.156H154.101V232.232H154.941C155.613 232.232 156.155 232.097 156.565 231.826C156.985 231.546 157.195 231.112 157.195 230.524C157.195 229.964 157.009 229.535 156.635 229.236C156.262 228.928 155.725 228.774 155.025 228.774C154.363 228.774 153.84 228.914 153.457 229.194C153.084 229.465 152.86 229.843 152.785 230.328L151.777 230.258C151.889 229.53 152.221 228.947 152.771 228.508C153.331 228.06 154.083 227.836 155.025 227.836C155.669 227.836 156.229 227.943 156.705 228.158C157.181 228.373 157.55 228.681 157.811 229.082C158.073 229.474 158.203 229.941 158.203 230.482C158.203 231.107 157.998 231.616 157.587 232.008C157.177 232.391 156.584 232.647 155.809 232.778V232.526C156.649 232.629 157.312 232.927 157.797 233.422C158.292 233.907 158.539 234.514 158.539 235.242C158.539 235.858 158.385 236.39 158.077 236.838C157.779 237.286 157.359 237.631 156.817 237.874C156.276 238.107 155.655 238.224 154.955 238.224ZM161.072 238V236.642H162.402V238H161.072ZM168.521 238.224C167.84 238.224 167.247 238.107 166.743 237.874C166.248 237.641 165.856 237.319 165.567 236.908C165.278 236.497 165.105 236.021 165.049 235.48L166.043 235.41C166.127 236.017 166.388 236.483 166.827 236.81C167.266 237.127 167.83 237.286 168.521 237.286C169.268 237.286 169.86 237.067 170.299 236.628C170.747 236.189 170.971 235.583 170.971 234.808C170.971 234.313 170.873 233.879 170.677 233.506C170.49 233.123 170.21 232.829 169.837 232.624C169.473 232.409 169.025 232.302 168.493 232.302C167.998 232.302 167.546 232.414 167.135 232.638C166.724 232.862 166.43 233.175 166.253 233.576H165.217L165.861 228.06H171.321V228.984H166.729L166.239 233.03L166.057 232.848C166.197 232.54 166.398 232.279 166.659 232.064C166.92 231.849 167.224 231.686 167.569 231.574C167.914 231.453 168.274 231.392 168.647 231.392C169.328 231.392 169.916 231.541 170.411 231.84C170.906 232.129 171.288 232.535 171.559 233.058C171.839 233.571 171.979 234.155 171.979 234.808C171.979 235.48 171.83 236.077 171.531 236.6C171.242 237.113 170.836 237.515 170.313 237.804C169.8 238.084 169.202 238.224 168.521 238.224ZM178.232 238.224C177.168 238.224 176.333 237.972 175.726 237.468C175.129 236.955 174.802 236.292 174.746 235.48L175.726 235.41C175.791 236.045 176.048 236.516 176.496 236.824C176.953 237.132 177.532 237.286 178.232 237.286C178.717 237.286 179.151 237.216 179.534 237.076C179.926 236.927 180.239 236.703 180.472 236.404C180.705 236.096 180.822 235.704 180.822 235.228C180.822 234.547 180.584 234.033 180.108 233.688C179.632 233.333 179.002 233.156 178.218 233.156H177.378V232.232H178.218C178.89 232.232 179.431 232.097 179.842 231.826C180.262 231.546 180.472 231.112 180.472 230.524C180.472 229.964 180.285 229.535 179.912 229.236C179.539 228.928 179.002 228.774 178.302 228.774C177.639 228.774 177.117 228.914 176.734 229.194C176.361 229.465 176.137 229.843 176.062 230.328L175.054 230.258C175.166 229.53 175.497 228.947 176.048 228.508C176.608 228.06 177.359 227.836 178.302 227.836C178.946 227.836 179.506 227.943 179.982 228.158C180.458 228.373 180.827 228.681 181.088 229.082C181.349 229.474 181.48 229.941 181.48 230.482C181.48 231.107 181.275 231.616 180.864 232.008C180.453 232.391 179.861 232.647 179.086 232.778V232.526C179.926 232.629 180.589 232.927 181.074 233.422C181.569 233.907 181.816 234.514 181.816 235.242C181.816 235.858 181.662 236.39 181.354 236.838C181.055 237.286 180.635 237.631 180.094 237.874C179.553 238.107 178.932 238.224 178.232 238.224ZM184.348 238V236.642H185.678V238H184.348ZM191.672 238.224C190.608 238.224 189.773 237.972 189.166 237.468C188.569 236.955 188.242 236.292 188.186 235.48L189.166 235.41C189.231 236.045 189.488 236.516 189.936 236.824C190.393 237.132 190.972 237.286 191.672 237.286C192.157 237.286 192.591 237.216 192.974 237.076C193.366 236.927 193.679 236.703 193.912 236.404C194.145 236.096 194.262 235.704 194.262 235.228C194.262 234.547 194.024 234.033 193.548 233.688C193.072 233.333 192.442 233.156 191.658 233.156H190.818V232.232H191.658C192.33 232.232 192.871 232.097 193.282 231.826C193.702 231.546 193.912 231.112 193.912 230.524C193.912 229.964 193.725 229.535 193.352 229.236C192.979 228.928 192.442 228.774 191.742 228.774C191.079 228.774 190.557 228.914 190.174 229.194C189.801 229.465 189.577 229.843 189.502 230.328L188.494 230.258C188.606 229.53 188.937 228.947 189.488 228.508C190.048 228.06 190.799 227.836 191.742 227.836C192.386 227.836 192.946 227.943 193.422 228.158C193.898 228.373 194.267 228.681 194.528 229.082C194.789 229.474 194.92 229.941 194.92 230.482C194.92 231.107 194.715 231.616 194.304 232.008C193.893 232.391 193.301 232.647 192.526 232.778V232.526C193.366 232.629 194.029 232.927 194.514 233.422C195.009 233.907 195.256 234.514 195.256 235.242C195.256 235.858 195.102 236.39 194.794 236.838C194.495 237.286 194.075 237.631 193.534 237.874C192.993 238.107 192.372 238.224 191.672 238.224ZM202.744 238V235.746H197.606V234.892L202.688 228.06H203.696V234.822H204.942V235.746H203.696V238H202.744ZM198.782 234.822H202.744V229.544L198.782 234.822Z" fill="#2E2E2E"/>
<g clip-path="url(#clip1_18_7067)">
<g clip-path="url(#clip2_18_7067)">
<rect x="214" y="225" width="22" height="16" rx="2" fill="white"/>
<path fill-rule="evenodd" clip-rule="evenodd" d="M214 225H223.429V232.467H214V225Z" fill="#1A47B8"/>
<path fill-rule="evenodd" clip-rule="evenodd" d="M223.429 225V226.067H236V225H223.429ZM223.429 227.133V228.2H236V227.133H223.429ZM223.429 229.267V230.333H236V229.267H223.429ZM223.429 231.4V232.467H236V231.4H223.429ZM214 233.533V234.6H236V233.533H214ZM214 235.667V236.733H236V235.667H214ZM214 237.8V238.867H236V237.8H214ZM214 239.933V241H236V239.933H214Z" fill="#F93939"/>
<path fill-rule="evenodd" clip-rule="evenodd" d="M215.048 226.067V227.134H216.095V226.067H215.048ZM217.143 226.067V227.134H218.191V226.067H217.143ZM219.238 226.067V227.134H220.286V226.067H219.238ZM221.334 226.067V227.134H222.381V226.067H221.334ZM220.286 227.134V228.2H221.334V227.134H220.286ZM218.191 227.134V228.2H219.238V227.134H218.191ZM216.095 227.134V228.2H217.143V227.134H216.095ZM215.048 228.2V229.267H216.095V228.2H215.048ZM217.143 228.2V229.267H218.191V228.2H217.143ZM219.238 228.2V229.267H220.286V228.2H219.238ZM221.334 228.2V229.267H222.381V228.2H221.334ZM215.048 230.334V231.4H216.095V230.334H215.048ZM217.143 230.334V231.4H218.191V230.334H217.143ZM219.238 230.334V231.4H220.286V230.334H219.238ZM221.334 230.334V231.4H222.381V230.334H221.334ZM220.286 229.267V230.334H221.334V229.267H220.286ZM218.191 229.267V230.334H219.238V229.267H218.191ZM216.095 229.267V230.334H217.143V229.267H216.095Z" fill="white"/>
</g>
</g>
<g filter="url(#filter1_d_18_7067)">
<rect x="124" y="9" width="148" height="48" rx="6" fill="white"/>
<rect x="124" y="9" width="148" height="48" rx="6" stroke="#E0E0E0" stroke-width="1.12805" stroke-miterlimit="10"/>
</g>
<path d="M142.808 38V30.454H140.722V29.642H141.506C141.879 29.642 142.173 29.5953 142.388 29.502C142.612 29.4087 142.77 29.25 142.864 29.026C142.957 28.7927 143.004 28.4707 143.004 28.06H143.76V38H142.808ZM150.411 38.224C149.711 38.224 149.085 38.112 148.535 37.888C147.993 37.6547 147.569 37.3187 147.261 36.88C146.953 36.4413 146.799 35.9093 146.799 35.284C146.799 34.556 147.023 33.954 147.471 33.478C147.928 32.9927 148.525 32.6753 149.263 32.526L149.291 32.778C148.684 32.6193 148.194 32.3627 147.821 32.008C147.457 31.644 147.275 31.1493 147.275 30.524C147.275 30.0013 147.401 29.5393 147.653 29.138C147.914 28.7367 148.278 28.4193 148.745 28.186C149.221 27.9527 149.776 27.836 150.411 27.836C151.055 27.836 151.61 27.9527 152.077 28.186C152.553 28.4193 152.917 28.7367 153.169 29.138C153.421 29.5393 153.547 30.0013 153.547 30.524C153.547 31.1493 153.365 31.644 153.001 32.008C152.637 32.3627 152.151 32.6193 151.545 32.778L151.573 32.526C152.319 32.6753 152.912 32.9927 153.351 33.478C153.799 33.954 154.023 34.556 154.023 35.284C154.023 35.9093 153.869 36.4413 153.561 36.88C153.262 37.3187 152.842 37.6547 152.301 37.888C151.759 38.112 151.129 38.224 150.411 38.224ZM150.411 37.286C151.223 37.286 151.862 37.1133 152.329 36.768C152.795 36.4227 153.029 35.9093 153.029 35.228C153.029 34.6027 152.809 34.0987 152.371 33.716C151.941 33.324 151.288 33.128 150.411 33.128C149.543 33.128 148.889 33.324 148.451 33.716C148.021 34.0987 147.807 34.6027 147.807 35.228C147.807 35.9093 148.035 36.4227 148.493 36.768C148.959 37.1133 149.599 37.286 150.411 37.286ZM150.411 32.246C151.073 32.246 151.596 32.1013 151.979 31.812C152.361 31.5133 152.553 31.0793 152.553 30.51C152.553 29.978 152.371 29.558 152.007 29.25C151.643 28.9327 151.111 28.774 150.411 28.774C149.72 28.774 149.193 28.9327 148.829 29.25C148.465 29.558 148.283 29.978 148.283 30.51C148.283 31.0793 148.474 31.5133 148.857 31.812C149.239 32.1013 149.757 32.246 150.411 32.246ZM156.404 38V36.642H157.734V38H156.404ZM163.56 38.224C162.785 38.224 162.141 38.0327 161.628 37.65C161.124 37.258 160.778 36.7587 160.592 36.152L161.6 36.068C161.721 36.4507 161.945 36.7493 162.272 36.964C162.608 37.1787 163.037 37.286 163.56 37.286C164.446 37.286 165.128 36.908 165.604 36.152C166.08 35.3867 166.318 34.206 166.318 32.61L166.584 32.708C166.35 33.3613 165.977 33.87 165.464 34.234C164.95 34.598 164.353 34.78 163.672 34.78C163.028 34.78 162.458 34.64 161.964 34.36C161.478 34.0707 161.091 33.6693 160.802 33.156C160.522 32.6427 160.382 32.0453 160.382 31.364C160.382 30.6453 160.526 30.0247 160.816 29.502C161.114 28.97 161.516 28.5593 162.02 28.27C162.524 27.9807 163.107 27.836 163.77 27.836C164.572 27.836 165.235 28.0227 165.758 28.396C166.28 28.7693 166.668 29.292 166.92 29.964C167.181 30.636 167.312 31.434 167.312 32.358C167.312 33.1887 167.246 33.9633 167.116 34.682C166.994 35.3913 166.784 36.012 166.486 36.544C166.196 37.0667 165.814 37.4773 165.338 37.776C164.862 38.0747 164.269 38.224 163.56 38.224ZM163.728 33.842C164.213 33.842 164.642 33.744 165.016 33.548C165.398 33.3427 165.702 33.058 165.926 32.694C166.15 32.33 166.262 31.9007 166.262 31.406C166.262 30.902 166.159 30.454 165.954 30.062C165.748 29.6607 165.459 29.348 165.086 29.124C164.722 28.8907 164.283 28.774 163.77 28.774C163.284 28.774 162.864 28.886 162.51 29.11C162.155 29.3247 161.88 29.628 161.684 30.02C161.488 30.412 161.39 30.86 161.39 31.364C161.39 31.8587 161.488 32.2927 161.684 32.666C161.88 33.0393 162.15 33.3287 162.496 33.534C162.85 33.7393 163.261 33.842 163.728 33.842ZM170.096 38C170.096 37.328 170.208 36.7213 170.432 36.18C170.665 35.6293 171.052 35.1113 171.594 34.626C172.144 34.1313 172.891 33.6413 173.834 33.156C174.338 32.8947 174.748 32.652 175.066 32.428C175.383 32.1947 175.616 31.9473 175.766 31.686C175.915 31.4247 175.99 31.1073 175.99 30.734C175.99 30.3513 175.906 30.0153 175.738 29.726C175.57 29.4273 175.322 29.194 174.996 29.026C174.669 28.858 174.263 28.774 173.778 28.774C173.031 28.774 172.434 28.9747 171.986 29.376C171.538 29.7773 171.258 30.356 171.146 31.112L170.152 31.042C170.264 30.062 170.637 29.2827 171.272 28.704C171.906 28.1253 172.742 27.836 173.778 27.836C174.45 27.836 175.024 27.962 175.5 28.214C175.985 28.4567 176.354 28.7927 176.606 29.222C176.858 29.6513 176.984 30.146 176.984 30.706C176.984 31.2193 176.89 31.6627 176.704 32.036C176.526 32.4 176.232 32.7407 175.822 33.058C175.42 33.366 174.884 33.6927 174.212 34.038C173.26 34.5327 172.536 35.046 172.042 35.578C171.556 36.11 171.295 36.6093 171.258 37.076H176.984V38H170.096ZM179.64 38V36.642H180.97V38H179.64ZM188.335 38V35.746H183.197V34.892L188.279 28.06H189.287V34.822H190.533V35.746H189.287V38H188.335ZM184.373 34.822H188.335V29.544L184.373 34.822ZM196.804 38.224C196.076 38.224 195.451 38.0607 194.928 37.734C194.406 37.4073 194 36.9173 193.71 36.264C193.43 35.6013 193.29 34.7847 193.29 33.814C193.29 32.9927 193.36 32.2227 193.5 31.504C193.64 30.776 193.86 30.1413 194.158 29.6C194.457 29.0493 194.849 28.62 195.334 28.312C195.82 27.9947 196.417 27.836 197.126 27.836C197.985 27.836 198.652 28.0507 199.128 28.48C199.604 28.9093 199.945 29.4693 200.15 30.16L199.156 30.258C199.035 29.8193 198.816 29.4647 198.498 29.194C198.19 28.914 197.733 28.774 197.126 28.774C196.268 28.774 195.582 29.1567 195.068 29.922C194.564 30.6873 194.294 31.8587 194.256 33.436L194.046 33.38C194.149 32.9973 194.336 32.652 194.606 32.344C194.877 32.036 195.208 31.7933 195.6 31.616C196.002 31.4293 196.45 31.336 196.944 31.336C197.598 31.336 198.172 31.476 198.666 31.756C199.161 32.036 199.544 32.428 199.814 32.932C200.085 33.436 200.22 34.0287 200.22 34.71C200.22 35.4287 200.076 36.0493 199.786 36.572C199.497 37.0947 199.096 37.5007 198.582 37.79C198.069 38.0793 197.476 38.224 196.804 38.224ZM196.818 37.286C197.528 37.286 198.106 37.062 198.554 36.614C199.002 36.1567 199.226 35.522 199.226 34.71C199.226 34.206 199.128 33.772 198.932 33.408C198.736 33.0347 198.461 32.75 198.106 32.554C197.761 32.3487 197.355 32.246 196.888 32.246C196.412 32.246 195.983 32.344 195.6 32.54C195.218 32.736 194.914 33.016 194.69 33.38C194.466 33.744 194.354 34.1733 194.354 34.668C194.354 35.172 194.452 35.6247 194.648 36.026C194.844 36.418 195.129 36.726 195.502 36.95C195.876 37.174 196.314 37.286 196.818 37.286ZM202.889 38V36.642H204.219V38H202.889ZM211.585 38V35.746H206.447V34.892L211.529 28.06H212.537V34.822H213.783V35.746H212.537V38H211.585ZM207.623 34.822H211.585V29.544L207.623 34.822ZM218.346 38V30.454H216.26V29.642H217.044C217.417 29.642 217.711 29.5953 217.926 29.502C218.15 29.4087 218.308 29.25 218.402 29.026C218.495 28.7927 218.542 28.4707 218.542 28.06H219.298V38H218.346Z" fill="#2E2E2E"/>
<g clip-path="url(#clip3_18_7067)">
<g clip-path="url(#clip4_18_7067)">
<rect x="229" y="25" width="22" height="16" rx="2" fill="#1A47B8"/>
<path fill-rule="evenodd" clip-rule="evenodd" d="M231.34 25H229V27.6667L248.647 41L251 41V38.3333L231.34 25Z" fill="white"/>
<path d="M229.781 25L251 39.4378V41H250.238L229 26.5473V25H229.781Z" fill="#F93939"/>
<path fill-rule="evenodd" clip-rule="evenodd" d="M248.905 25H251V27.6667C251 27.6667 237.391 36.5499 231.095 41H229V38.3333L248.905 25Z" fill="white"/>
<path d="M251 25H250.289L229 39.4502V41H229.781L251 26.5589V25Z" fill="#F93939"/>
<path fill-rule="evenodd" clip-rule="evenodd" d="M237.001 25H243.018V29.9353H251V36.0615H243.018V41H237.001V36.0615H229V29.9353H237.001V25Z" fill="white"/>
<path fill-rule="evenodd" clip-rule="evenodd" d="M238.263 25H241.737V31.1538H251V34.8462H241.737V41H238.263V34.8462H229V31.1538H238.263V25Z" fill="#F93939"/>
</g>
</g>
<g filter="url(#filter2_d_18_7067)">
<rect x="513" y="248" width="148" height="48" rx="6" fill="white"/>
<rect x="513" y="248" width="148" height="48" rx="6" stroke="#E0E0E0" stroke-width="1.12805" stroke-miterlimit="10"/>
</g>
<path d="M534.822 277V274.746H529.684V273.892L534.766 267.06H535.774V273.822H537.02V274.746H535.774V277H534.822ZM530.86 273.822H534.822V268.544L530.86 273.822ZM539.777 277C539.777 276.328 539.889 275.721 540.113 275.18C540.346 274.629 540.734 274.111 541.275 273.626C541.826 273.131 542.572 272.641 543.515 272.156C544.019 271.895 544.43 271.652 544.747 271.428C545.064 271.195 545.298 270.947 545.447 270.686C545.596 270.425 545.671 270.107 545.671 269.734C545.671 269.351 545.587 269.015 545.419 268.726C545.251 268.427 545.004 268.194 544.677 268.026C544.35 267.858 543.944 267.774 543.459 267.774C542.712 267.774 542.115 267.975 541.667 268.376C541.219 268.777 540.939 269.356 540.827 270.112L539.833 270.042C539.945 269.062 540.318 268.283 540.953 267.704C541.588 267.125 542.423 266.836 543.459 266.836C544.131 266.836 544.705 266.962 545.181 267.214C545.666 267.457 546.035 267.793 546.287 268.222C546.539 268.651 546.665 269.146 546.665 269.706C546.665 270.219 546.572 270.663 546.385 271.036C546.208 271.4 545.914 271.741 545.503 272.058C545.102 272.366 544.565 272.693 543.893 273.038C542.941 273.533 542.218 274.046 541.723 274.578C541.238 275.11 540.976 275.609 540.939 276.076H546.665V277H539.777ZM549.321 277V275.642H550.651V277H549.321ZM556.771 277.224C556.089 277.224 555.497 277.107 554.993 276.874C554.498 276.641 554.106 276.319 553.817 275.908C553.527 275.497 553.355 275.021 553.299 274.48L554.293 274.41C554.377 275.017 554.638 275.483 555.077 275.81C555.515 276.127 556.08 276.286 556.771 276.286C557.517 276.286 558.11 276.067 558.549 275.628C558.997 275.189 559.221 274.583 559.221 273.808C559.221 273.313 559.123 272.879 558.927 272.506C558.74 272.123 558.46 271.829 558.087 271.624C557.723 271.409 557.275 271.302 556.743 271.302C556.248 271.302 555.795 271.414 555.385 271.638C554.974 271.862 554.68 272.175 554.503 272.576H553.467L554.111 267.06H559.571V267.984H554.979L554.489 272.03L554.307 271.848C554.447 271.54 554.647 271.279 554.909 271.064C555.17 270.849 555.473 270.686 555.819 270.574C556.164 270.453 556.523 270.392 556.897 270.392C557.578 270.392 558.166 270.541 558.661 270.84C559.155 271.129 559.538 271.535 559.809 272.058C560.089 272.571 560.229 273.155 560.229 273.808C560.229 274.48 560.079 275.077 559.781 275.6C559.491 276.113 559.085 276.515 558.563 276.804C558.049 277.084 557.452 277.224 556.771 277.224ZM566.482 277.224C565.418 277.224 564.582 276.972 563.976 276.468C563.378 275.955 563.052 275.292 562.996 274.48L563.976 274.41C564.041 275.045 564.298 275.516 564.746 275.824C565.203 276.132 565.782 276.286 566.482 276.286C566.967 276.286 567.401 276.216 567.784 276.076C568.176 275.927 568.488 275.703 568.722 275.404C568.955 275.096 569.072 274.704 569.072 274.228C569.072 273.547 568.834 273.033 568.358 272.688C567.882 272.333 567.252 272.156 566.468 272.156H565.628V271.232H566.468C567.14 271.232 567.681 271.097 568.092 270.826C568.512 270.546 568.722 270.112 568.722 269.524C568.722 268.964 568.535 268.535 568.162 268.236C567.788 267.928 567.252 267.774 566.552 267.774C565.889 267.774 565.366 267.914 564.984 268.194C564.61 268.465 564.386 268.843 564.312 269.328L563.304 269.258C563.416 268.53 563.747 267.947 564.298 267.508C564.858 267.06 565.609 266.836 566.552 266.836C567.196 266.836 567.756 266.943 568.232 267.158C568.708 267.373 569.076 267.681 569.338 268.082C569.599 268.474 569.73 268.941 569.73 269.482C569.73 270.107 569.524 270.616 569.114 271.008C568.703 271.391 568.11 271.647 567.336 271.778V271.526C568.176 271.629 568.838 271.927 569.324 272.422C569.818 272.907 570.066 273.514 570.066 274.242C570.066 274.858 569.912 275.39 569.604 275.838C569.305 276.286 568.885 276.631 568.344 276.874C567.802 277.107 567.182 277.224 566.482 277.224ZM572.598 277V275.642H573.928V277H572.598ZM579.816 277.224C579.088 277.224 578.463 277.061 577.94 276.734C577.417 276.407 577.011 275.917 576.722 275.264C576.442 274.601 576.302 273.785 576.302 272.814C576.302 271.993 576.372 271.223 576.512 270.504C576.652 269.776 576.871 269.141 577.17 268.6C577.469 268.049 577.861 267.62 578.346 267.312C578.831 266.995 579.429 266.836 580.138 266.836C580.997 266.836 581.664 267.051 582.14 267.48C582.616 267.909 582.957 268.469 583.162 269.16L582.168 269.258C582.047 268.819 581.827 268.465 581.51 268.194C581.202 267.914 580.745 267.774 580.138 267.774C579.279 267.774 578.593 268.157 578.08 268.922C577.576 269.687 577.305 270.859 577.268 272.436L577.058 272.38C577.161 271.997 577.347 271.652 577.618 271.344C577.889 271.036 578.22 270.793 578.612 270.616C579.013 270.429 579.461 270.336 579.956 270.336C580.609 270.336 581.183 270.476 581.678 270.756C582.173 271.036 582.555 271.428 582.826 271.932C583.097 272.436 583.232 273.029 583.232 273.71C583.232 274.429 583.087 275.049 582.798 275.572C582.509 276.095 582.107 276.501 581.594 276.79C581.081 277.079 580.488 277.224 579.816 277.224ZM579.83 276.286C580.539 276.286 581.118 276.062 581.566 275.614C582.014 275.157 582.238 274.522 582.238 273.71C582.238 273.206 582.14 272.772 581.944 272.408C581.748 272.035 581.473 271.75 581.118 271.554C580.773 271.349 580.367 271.246 579.9 271.246C579.424 271.246 578.995 271.344 578.612 271.54C578.229 271.736 577.926 272.016 577.702 272.38C577.478 272.744 577.366 273.173 577.366 273.668C577.366 274.172 577.464 274.625 577.66 275.026C577.856 275.418 578.141 275.726 578.514 275.95C578.887 276.174 579.326 276.286 579.83 276.286ZM587.819 277C587.819 275.945 587.964 274.886 588.253 273.822C588.542 272.758 588.953 271.731 589.485 270.742C590.017 269.753 590.647 268.833 591.375 267.984H585.537V267.06H592.425V267.914C591.641 268.819 590.978 269.753 590.437 270.714C589.896 271.675 589.485 272.679 589.205 273.724C588.934 274.76 588.799 275.852 588.799 277H587.819ZM592.84 277V275.642H594.17V277H592.84ZM597.598 277V269.454H595.512V268.642H596.296C596.669 268.642 596.963 268.595 597.178 268.502C597.402 268.409 597.56 268.25 597.654 268.026C597.747 267.793 597.794 267.471 597.794 267.06H598.55V277H597.598ZM602.006 277C602.006 276.328 602.118 275.721 602.342 275.18C602.575 274.629 602.962 274.111 603.504 273.626C604.054 273.131 604.801 272.641 605.744 272.156C606.248 271.895 606.658 271.652 606.976 271.428C607.293 271.195 607.526 270.947 607.676 270.686C607.825 270.425 607.9 270.107 607.9 269.734C607.9 269.351 607.816 269.015 607.648 268.726C607.48 268.427 607.232 268.194 606.906 268.026C606.579 267.858 606.173 267.774 605.688 267.774C604.941 267.774 604.344 267.975 603.896 268.376C603.448 268.777 603.168 269.356 603.056 270.112L602.062 270.042C602.174 269.062 602.547 268.283 603.182 267.704C603.816 267.125 604.652 266.836 605.688 266.836C606.36 266.836 606.934 266.962 607.41 267.214C607.895 267.457 608.264 267.793 608.516 268.222C608.768 268.651 608.894 269.146 608.894 269.706C608.894 270.219 608.8 270.663 608.614 271.036C608.436 271.4 608.142 271.741 607.732 272.058C607.33 272.366 606.794 272.693 606.122 273.038C605.17 273.533 604.446 274.046 603.952 274.578C603.466 275.11 603.205 275.609 603.168 276.076H608.894V277H602.006Z" fill="#2E2E2E"/>
<g clip-path="url(#clip5_18_7067)">
<g clip-path="url(#clip6_18_7067)">
<rect x="618" y="264" width="22" height="16" rx="2" fill="white"/>
<path fill-rule="evenodd" clip-rule="evenodd" d="M629 274.667C630.446 274.667 631.619 273.472 631.619 272C631.619 270.528 630.446 269.333 629 269.333C627.554 269.333 626.381 270.528 626.381 272C626.381 273.472 627.554 274.667 629 274.667ZM629 273.6C629.867 273.6 630.571 272.883 630.571 272C630.571 271.117 629.867 270.4 629 270.4C628.132 270.4 627.428 271.117 627.428 272C627.428 272.883 628.132 273.6 629 273.6Z" fill="#1A47B8"/>
<path d="M629 272.533C629.289 272.533 629.524 272.295 629.524 272C629.524 271.706 629.289 271.467 629 271.467C628.711 271.467 628.476 271.706 628.476 272C628.476 272.295 628.711 272.533 629 272.533Z" fill="#1A47B8"/>
<path fill-rule="evenodd" clip-rule="evenodd" d="M618 275H640V280H618V275Z" fill="#249F58"/>
<path fill-rule="evenodd" clip-rule="evenodd" d="M618 264H640V269H618V264Z" fill="#FF6C2D"/>
</g>
</g>
<g filter="url(#filter3_d_18_7067)">
<rect x="425" y="9" width="148" height="48" rx="6" fill="white"/>
<rect x="425" y="9" width="148" height="48" rx="6" stroke="#E0E0E0" stroke-width="1.12805" stroke-miterlimit="10"/>
</g>
<path d="M442.232 38C442.232 37.328 442.344 36.7213 442.568 36.18C442.801 35.6293 443.189 35.1113 443.73 34.626C444.281 34.1313 445.027 33.6413 445.97 33.156C446.474 32.8947 446.885 32.652 447.202 32.428C447.519 32.1947 447.753 31.9473 447.902 31.686C448.051 31.4247 448.126 31.1073 448.126 30.734C448.126 30.3513 448.042 30.0153 447.874 29.726C447.706 29.4273 447.459 29.194 447.132 29.026C446.805 28.858 446.399 28.774 445.914 28.774C445.167 28.774 444.57 28.9747 444.122 29.376C443.674 29.7773 443.394 30.356 443.282 31.112L442.288 31.042C442.4 30.062 442.773 29.2827 443.408 28.704C444.043 28.1253 444.878 27.836 445.914 27.836C446.586 27.836 447.16 27.962 447.636 28.214C448.121 28.4567 448.49 28.7927 448.742 29.222C448.994 29.6513 449.12 30.146 449.12 30.706C449.12 31.2193 449.027 31.6627 448.84 32.036C448.663 32.4 448.369 32.7407 447.958 33.058C447.557 33.366 447.02 33.6927 446.348 34.038C445.396 34.5327 444.673 35.046 444.178 35.578C443.693 36.11 443.431 36.6093 443.394 37.076H449.12V38H442.232ZM455.114 38.224C454.05 38.224 453.215 37.972 452.608 37.468C452.011 36.9547 451.684 36.292 451.628 35.48L452.608 35.41C452.674 36.0447 452.93 36.516 453.378 36.824C453.836 37.132 454.414 37.286 455.114 37.286C455.6 37.286 456.034 37.216 456.416 37.076C456.808 36.9267 457.121 36.7027 457.354 36.404C457.588 36.096 457.704 35.704 457.704 35.228C457.704 34.5467 457.466 34.0333 456.99 33.688C456.514 33.3333 455.884 33.156 455.1 33.156H454.26V32.232H455.1C455.772 32.232 456.314 32.0967 456.724 31.826C457.144 31.546 457.354 31.112 457.354 30.524C457.354 29.964 457.168 29.5347 456.794 29.236C456.421 28.928 455.884 28.774 455.184 28.774C454.522 28.774 453.999 28.914 453.616 29.194C453.243 29.4647 453.019 29.8427 452.944 30.328L451.936 30.258C452.048 29.53 452.38 28.9467 452.93 28.508C453.49 28.06 454.242 27.836 455.184 27.836C455.828 27.836 456.388 27.9433 456.864 28.158C457.34 28.3727 457.709 28.6807 457.97 29.082C458.232 29.474 458.362 29.9407 458.362 30.482C458.362 31.1073 458.157 31.616 457.746 32.008C457.336 32.3907 456.743 32.6473 455.968 32.778V32.526C456.808 32.6287 457.471 32.9273 457.956 33.422C458.451 33.9073 458.698 34.514 458.698 35.242C458.698 35.858 458.544 36.39 458.236 36.838C457.938 37.286 457.518 37.6313 456.976 37.874C456.435 38.1073 455.814 38.224 455.114 38.224ZM461.231 38V36.642H462.561V38H461.231ZM468.54 38.224C467.84 38.224 467.215 38.112 466.664 37.888C466.123 37.6547 465.698 37.3187 465.39 36.88C465.082 36.4413 464.928 35.9093 464.928 35.284C464.928 34.556 465.152 33.954 465.6 33.478C466.057 32.9927 466.655 32.6753 467.392 32.526L467.42 32.778C466.813 32.6193 466.323 32.3627 465.95 32.008C465.586 31.644 465.404 31.1493 465.404 30.524C465.404 30.0013 465.53 29.5393 465.782 29.138C466.043 28.7367 466.407 28.4193 466.874 28.186C467.35 27.9527 467.905 27.836 468.54 27.836C469.184 27.836 469.739 27.9527 470.206 28.186C470.682 28.4193 471.046 28.7367 471.298 29.138C471.55 29.5393 471.676 30.0013 471.676 30.524C471.676 31.1493 471.494 31.644 471.13 32.008C470.766 32.3627 470.281 32.6193 469.674 32.778L469.702 32.526C470.449 32.6753 471.041 32.9927 471.48 33.478C471.928 33.954 472.152 34.556 472.152 35.284C472.152 35.9093 471.998 36.4413 471.69 36.88C471.391 37.3187 470.971 37.6547 470.43 37.888C469.889 38.112 469.259 38.224 468.54 38.224ZM468.54 37.286C469.352 37.286 469.991 37.1133 470.458 36.768C470.925 36.4227 471.158 35.9093 471.158 35.228C471.158 34.6027 470.939 34.0987 470.5 33.716C470.071 33.324 469.417 33.128 468.54 33.128C467.672 33.128 467.019 33.324 466.58 33.716C466.151 34.0987 465.936 34.6027 465.936 35.228C465.936 35.9093 466.165 36.4227 466.622 36.768C467.089 37.1133 467.728 37.286 468.54 37.286ZM468.54 32.246C469.203 32.246 469.725 32.1013 470.108 31.812C470.491 31.5133 470.682 31.0793 470.682 30.51C470.682 29.978 470.5 29.558 470.136 29.25C469.772 28.9327 469.24 28.774 468.54 28.774C467.849 28.774 467.322 28.9327 466.958 29.25C466.594 29.558 466.412 29.978 466.412 30.51C466.412 31.0793 466.603 31.5133 466.986 31.812C467.369 32.1013 467.887 32.246 468.54 32.246ZM477.95 38.224C477.175 38.224 476.531 38.0327 476.018 37.65C475.514 37.258 475.168 36.7587 474.982 36.152L475.99 36.068C476.111 36.4507 476.335 36.7493 476.662 36.964C476.998 37.1787 477.427 37.286 477.95 37.286C478.836 37.286 479.518 36.908 479.994 36.152C480.47 35.3867 480.708 34.206 480.708 32.61L480.974 32.708C480.74 33.3613 480.367 33.87 479.854 34.234C479.34 34.598 478.743 34.78 478.062 34.78C477.418 34.78 476.848 34.64 476.354 34.36C475.868 34.0707 475.481 33.6693 475.192 33.156C474.912 32.6427 474.772 32.0453 474.772 31.364C474.772 30.6453 474.916 30.0247 475.206 29.502C475.504 28.97 475.906 28.5593 476.41 28.27C476.914 27.9807 477.497 27.836 478.16 27.836C478.962 27.836 479.625 28.0227 480.148 28.396C480.67 28.7693 481.058 29.292 481.31 29.964C481.571 30.636 481.702 31.434 481.702 32.358C481.702 33.1887 481.636 33.9633 481.506 34.682C481.384 35.3913 481.174 36.012 480.876 36.544C480.586 37.0667 480.204 37.4773 479.728 37.776C479.252 38.0747 478.659 38.224 477.95 38.224ZM478.118 33.842C478.603 33.842 479.032 33.744 479.406 33.548C479.788 33.3427 480.092 33.058 480.316 32.694C480.54 32.33 480.652 31.9007 480.652 31.406C480.652 30.902 480.549 30.454 480.344 30.062C480.138 29.6607 479.849 29.348 479.476 29.124C479.112 28.8907 478.673 28.774 478.16 28.774C477.674 28.774 477.254 28.886 476.9 29.11C476.545 29.3247 476.27 29.628 476.074 30.02C475.878 30.412 475.78 30.86 475.78 31.364C475.78 31.8587 475.878 32.2927 476.074 32.666C476.27 33.0393 476.54 33.3287 476.886 33.534C477.24 33.7393 477.651 33.842 478.118 33.842ZM484.097 38V36.642H485.427V38H484.097ZM492.793 38V35.746H487.655V34.892L492.737 28.06H493.745V34.822H494.991V35.746H493.745V38H492.793ZM488.831 34.822H492.793V29.544L488.831 34.822ZM501.261 38.224C500.533 38.224 499.908 38.0607 499.385 37.734C498.863 37.4073 498.457 36.9173 498.167 36.264C497.887 35.6013 497.747 34.7847 497.747 33.814C497.747 32.9927 497.817 32.2227 497.957 31.504C498.097 30.776 498.317 30.1413 498.615 29.6C498.914 29.0493 499.306 28.62 499.791 28.312C500.277 27.9947 500.874 27.836 501.583 27.836C502.442 27.836 503.109 28.0507 503.585 28.48C504.061 28.9093 504.402 29.4693 504.607 30.16L503.613 30.258C503.492 29.8193 503.273 29.4647 502.955 29.194C502.647 28.914 502.19 28.774 501.583 28.774C500.725 28.774 500.039 29.1567 499.525 29.922C499.021 30.6873 498.751 31.8587 498.713 33.436L498.503 33.38C498.606 32.9973 498.793 32.652 499.063 32.344C499.334 32.036 499.665 31.7933 500.057 31.616C500.459 31.4293 500.907 31.336 501.401 31.336C502.055 31.336 502.629 31.476 503.123 31.756C503.618 32.036 504.001 32.428 504.271 32.932C504.542 33.436 504.677 34.0287 504.677 34.71C504.677 35.4287 504.533 36.0493 504.243 36.572C503.954 37.0947 503.553 37.5007 503.039 37.79C502.526 38.0793 501.933 38.224 501.261 38.224ZM501.275 37.286C501.985 37.286 502.563 37.062 503.011 36.614C503.459 36.1567 503.683 35.522 503.683 34.71C503.683 34.206 503.585 33.772 503.389 33.408C503.193 33.0347 502.918 32.75 502.563 32.554C502.218 32.3487 501.812 32.246 501.345 32.246C500.869 32.246 500.44 32.344 500.057 32.54C499.675 32.736 499.371 33.016 499.147 33.38C498.923 33.744 498.811 34.1733 498.811 34.668C498.811 35.172 498.909 35.6247 499.105 36.026C499.301 36.418 499.586 36.726 499.959 36.95C500.333 37.174 500.771 37.286 501.275 37.286ZM507.347 38V36.642H508.677V38H507.347ZM512.266 38C512.266 36.9453 512.41 35.886 512.7 34.822C512.989 33.758 513.4 32.7313 513.932 31.742C514.464 30.7527 515.094 29.8333 515.822 28.984H509.984V28.06H516.872V28.914C516.088 29.8193 515.425 30.7527 514.884 31.714C514.342 32.6753 513.932 33.6787 513.652 34.724C513.381 35.76 513.246 36.852 513.246 38H512.266ZM518.878 38C518.878 37.328 518.99 36.7213 519.214 36.18C519.447 35.6293 519.834 35.1113 520.376 34.626C520.926 34.1313 521.673 33.6413 522.616 33.156C523.12 32.8947 523.53 32.652 523.848 32.428C524.165 32.1947 524.398 31.9473 524.548 31.686C524.697 31.4247 524.772 31.1073 524.772 30.734C524.772 30.3513 524.688 30.0153 524.52 29.726C524.352 29.4273 524.104 29.194 523.778 29.026C523.451 28.858 523.045 28.774 522.56 28.774C521.813 28.774 521.216 28.9747 520.768 29.376C520.32 29.7773 520.04 30.356 519.928 31.112L518.934 31.042C519.046 30.062 519.419 29.2827 520.054 28.704C520.688 28.1253 521.524 27.836 522.56 27.836C523.232 27.836 523.806 27.962 524.282 28.214C524.767 28.4567 525.136 28.7927 525.388 29.222C525.64 29.6513 525.766 30.146 525.766 30.706C525.766 31.2193 525.672 31.6627 525.486 32.036C525.308 32.4 525.014 32.7407 524.604 33.058C524.202 33.366 523.666 33.6927 522.994 34.038C522.042 34.5327 521.318 35.046 520.824 35.578C520.338 36.11 520.077 36.6093 520.04 37.076H525.766V38H518.878Z" fill="#2E2E2E"/>
<g clip-path="url(#clip7_18_7067)">
<g clip-path="url(#clip8_18_7067)">
<rect x="535" y="25" width="22" height="16" rx="2" fill="#F93939"/>
<path fill-rule="evenodd" clip-rule="evenodd" d="M535 36H558V41H535V36Z" fill="#FFDA2C"/>
<path fill-rule="evenodd" clip-rule="evenodd" d="M535 25H558V30H535V25Z" fill="#151515"/>
</g>
</g>
<g filter="url(#filter4_d_18_7067)">
<rect x="318" y="92" width="148" height="48" rx="6" fill="white"/>
<rect x="318" y="92" width="148" height="48" rx="6" stroke="#E0E0E0" stroke-width="1.12805" stroke-miterlimit="10"/>
</g>
<path d="M336.699 121V113.454H334.613V112.642H335.397C335.77 112.642 336.064 112.595 336.279 112.502C336.503 112.409 336.662 112.25 336.755 112.026C336.848 111.793 336.895 111.471 336.895 111.06H337.651V121H336.699ZM344.422 121.224C343.647 121.224 343.003 121.033 342.49 120.65C341.986 120.258 341.64 119.759 341.454 119.152L342.462 119.068C342.583 119.451 342.807 119.749 343.134 119.964C343.47 120.179 343.899 120.286 344.422 120.286C345.308 120.286 345.99 119.908 346.466 119.152C346.942 118.387 347.18 117.206 347.18 115.61L347.446 115.708C347.212 116.361 346.839 116.87 346.326 117.234C345.812 117.598 345.215 117.78 344.534 117.78C343.89 117.78 343.32 117.64 342.826 117.36C342.34 117.071 341.953 116.669 341.664 116.156C341.384 115.643 341.244 115.045 341.244 114.364C341.244 113.645 341.388 113.025 341.678 112.502C341.976 111.97 342.378 111.559 342.882 111.27C343.386 110.981 343.969 110.836 344.632 110.836C345.434 110.836 346.097 111.023 346.62 111.396C347.142 111.769 347.53 112.292 347.782 112.964C348.043 113.636 348.174 114.434 348.174 115.358C348.174 116.189 348.108 116.963 347.978 117.682C347.856 118.391 347.646 119.012 347.348 119.544C347.058 120.067 346.676 120.477 346.2 120.776C345.724 121.075 345.131 121.224 344.422 121.224ZM344.59 116.842C345.075 116.842 345.504 116.744 345.878 116.548C346.26 116.343 346.564 116.058 346.788 115.694C347.012 115.33 347.124 114.901 347.124 114.406C347.124 113.902 347.021 113.454 346.816 113.062C346.61 112.661 346.321 112.348 345.948 112.124C345.584 111.891 345.145 111.774 344.632 111.774C344.146 111.774 343.726 111.886 343.372 112.11C343.017 112.325 342.742 112.628 342.546 113.02C342.35 113.412 342.252 113.86 342.252 114.364C342.252 114.859 342.35 115.293 342.546 115.666C342.742 116.039 343.012 116.329 343.358 116.534C343.712 116.739 344.123 116.842 344.59 116.842ZM350.569 121V119.642H351.899V121H350.569ZM357.787 121.224C357.059 121.224 356.434 121.061 355.911 120.734C355.389 120.407 354.983 119.917 354.693 119.264C354.413 118.601 354.273 117.785 354.273 116.814C354.273 115.993 354.343 115.223 354.483 114.504C354.623 113.776 354.843 113.141 355.141 112.6C355.44 112.049 355.832 111.62 356.317 111.312C356.803 110.995 357.4 110.836 358.109 110.836C358.968 110.836 359.635 111.051 360.111 111.48C360.587 111.909 360.928 112.469 361.133 113.16L360.139 113.258C360.018 112.819 359.799 112.465 359.481 112.194C359.173 111.914 358.716 111.774 358.109 111.774C357.251 111.774 356.565 112.157 356.051 112.922C355.547 113.687 355.277 114.859 355.239 116.436L355.029 116.38C355.132 115.997 355.319 115.652 355.589 115.344C355.86 115.036 356.191 114.793 356.583 114.616C356.985 114.429 357.433 114.336 357.927 114.336C358.581 114.336 359.155 114.476 359.649 114.756C360.144 115.036 360.527 115.428 360.797 115.932C361.068 116.436 361.203 117.029 361.203 117.71C361.203 118.429 361.059 119.049 360.769 119.572C360.48 120.095 360.079 120.501 359.565 120.79C359.052 121.079 358.459 121.224 357.787 121.224ZM357.801 120.286C358.511 120.286 359.089 120.062 359.537 119.614C359.985 119.157 360.209 118.522 360.209 117.71C360.209 117.206 360.111 116.772 359.915 116.408C359.719 116.035 359.444 115.75 359.089 115.554C358.744 115.349 358.338 115.246 357.871 115.246C357.395 115.246 356.966 115.344 356.583 115.54C356.201 115.736 355.897 116.016 355.673 116.38C355.449 116.744 355.337 117.173 355.337 117.668C355.337 118.172 355.435 118.625 355.631 119.026C355.827 119.418 356.112 119.726 356.485 119.95C356.859 120.174 357.297 120.286 357.801 120.286ZM367.442 121.224C366.742 121.224 366.117 121.112 365.566 120.888C365.025 120.655 364.6 120.319 364.292 119.88C363.984 119.441 363.83 118.909 363.83 118.284C363.83 117.556 364.054 116.954 364.502 116.478C364.96 115.993 365.557 115.675 366.294 115.526L366.322 115.778C365.716 115.619 365.226 115.363 364.852 115.008C364.488 114.644 364.306 114.149 364.306 113.524C364.306 113.001 364.432 112.539 364.684 112.138C364.946 111.737 365.31 111.419 365.776 111.186C366.252 110.953 366.808 110.836 367.442 110.836C368.086 110.836 368.642 110.953 369.108 111.186C369.584 111.419 369.948 111.737 370.2 112.138C370.452 112.539 370.578 113.001 370.578 113.524C370.578 114.149 370.396 114.644 370.032 115.008C369.668 115.363 369.183 115.619 368.576 115.778L368.604 115.526C369.351 115.675 369.944 115.993 370.382 116.478C370.83 116.954 371.054 117.556 371.054 118.284C371.054 118.909 370.9 119.441 370.592 119.88C370.294 120.319 369.874 120.655 369.332 120.888C368.791 121.112 368.161 121.224 367.442 121.224ZM367.442 120.286C368.254 120.286 368.894 120.113 369.36 119.768C369.827 119.423 370.06 118.909 370.06 118.228C370.06 117.603 369.841 117.099 369.402 116.716C368.973 116.324 368.32 116.128 367.442 116.128C366.574 116.128 365.921 116.324 365.482 116.716C365.053 117.099 364.838 117.603 364.838 118.228C364.838 118.909 365.067 119.423 365.524 119.768C365.991 120.113 366.63 120.286 367.442 120.286ZM367.442 115.246C368.105 115.246 368.628 115.101 369.01 114.812C369.393 114.513 369.584 114.079 369.584 113.51C369.584 112.978 369.402 112.558 369.038 112.25C368.674 111.933 368.142 111.774 367.442 111.774C366.752 111.774 366.224 111.933 365.86 112.25C365.496 112.558 365.314 112.978 365.314 113.51C365.314 114.079 365.506 114.513 365.888 114.812C366.271 115.101 366.789 115.246 367.442 115.246ZM373.436 121V119.642H374.766V121H373.436ZM382.131 121V118.746H376.993V117.892L382.075 111.06H383.083V117.822H384.329V118.746H383.083V121H382.131ZM378.169 117.822H382.131V112.544L378.169 117.822ZM390.6 121.224C389.872 121.224 389.247 121.061 388.724 120.734C388.202 120.407 387.796 119.917 387.506 119.264C387.226 118.601 387.086 117.785 387.086 116.814C387.086 115.993 387.156 115.223 387.296 114.504C387.436 113.776 387.656 113.141 387.954 112.6C388.253 112.049 388.645 111.62 389.13 111.312C389.616 110.995 390.213 110.836 390.922 110.836C391.781 110.836 392.448 111.051 392.924 111.48C393.4 111.909 393.741 112.469 393.946 113.16L392.952 113.258C392.831 112.819 392.612 112.465 392.294 112.194C391.986 111.914 391.529 111.774 390.922 111.774C390.064 111.774 389.378 112.157 388.864 112.922C388.36 113.687 388.09 114.859 388.052 116.436L387.842 116.38C387.945 115.997 388.132 115.652 388.402 115.344C388.673 115.036 389.004 114.793 389.396 114.616C389.798 114.429 390.246 114.336 390.74 114.336C391.394 114.336 391.968 114.476 392.462 114.756C392.957 115.036 393.34 115.428 393.61 115.932C393.881 116.436 394.016 117.029 394.016 117.71C394.016 118.429 393.872 119.049 393.582 119.572C393.293 120.095 392.892 120.501 392.378 120.79C391.865 121.079 391.272 121.224 390.6 121.224ZM390.614 120.286C391.324 120.286 391.902 120.062 392.35 119.614C392.798 119.157 393.022 118.522 393.022 117.71C393.022 117.206 392.924 116.772 392.728 116.408C392.532 116.035 392.257 115.75 391.902 115.554C391.557 115.349 391.151 115.246 390.684 115.246C390.208 115.246 389.779 115.344 389.396 115.54C389.014 115.736 388.71 116.016 388.486 116.38C388.262 116.744 388.15 117.173 388.15 117.668C388.15 118.172 388.248 118.625 388.444 119.026C388.64 119.418 388.925 119.726 389.298 119.95C389.672 120.174 390.11 120.286 390.614 120.286ZM396.685 121V119.642H398.015V121H396.685ZM401.604 121C401.604 119.945 401.749 118.886 402.038 117.822C402.328 116.758 402.738 115.731 403.27 114.742C403.802 113.753 404.432 112.833 405.16 111.984H399.322V111.06H406.21V111.914C405.426 112.819 404.764 113.753 404.222 114.714C403.681 115.675 403.27 116.679 402.99 117.724C402.72 118.76 402.584 119.852 402.584 121H401.604ZM408.217 121C408.217 120.328 408.329 119.721 408.553 119.18C408.786 118.629 409.173 118.111 409.715 117.626C410.265 117.131 411.012 116.641 411.955 116.156C412.459 115.895 412.869 115.652 413.187 115.428C413.504 115.195 413.737 114.947 413.887 114.686C414.036 114.425 414.111 114.107 414.111 113.734C414.111 113.351 414.027 113.015 413.859 112.726C413.691 112.427 413.443 112.194 413.117 112.026C412.79 111.858 412.384 111.774 411.899 111.774C411.152 111.774 410.555 111.975 410.107 112.376C409.659 112.777 409.379 113.356 409.267 114.112L408.273 114.042C408.385 113.062 408.758 112.283 409.393 111.704C410.027 111.125 410.863 110.836 411.899 110.836C412.571 110.836 413.145 110.962 413.621 111.214C414.106 111.457 414.475 111.793 414.727 112.222C414.979 112.651 415.105 113.146 415.105 113.706C415.105 114.219 415.011 114.663 414.825 115.036C414.647 115.4 414.353 115.741 413.943 116.058C413.541 116.366 413.005 116.693 412.333 117.038C411.381 117.533 410.657 118.046 410.163 118.578C409.677 119.11 409.416 119.609 409.379 120.076H415.105V121H408.217Z" fill="#2E2E2E"/>
<g clip-path="url(#clip9_18_7067)">
<rect x="424" y="108" width="22" height="16" rx="2" fill="#F93939"/>
<path fill-rule="evenodd" clip-rule="evenodd" d="M438.669 117.229L437.451 117.879L437.684 116.5L436.699 115.522L438.061 115.319L438.669 114.065L439.276 115.32L440.638 115.523L439.654 116.499L439.886 117.878" fill="white"/>
<path fill-rule="evenodd" clip-rule="evenodd" d="M433.952 119.733C435.977 119.733 437.619 118.062 437.619 116C437.619 113.938 435.977 112.267 433.952 112.267C431.927 112.267 430.286 113.938 430.286 116C430.286 118.062 431.927 119.733 433.952 119.733ZM435 118.667C436.446 118.667 437.619 117.472 437.619 116C437.619 114.528 436.446 113.333 435 113.333C433.554 113.333 432.381 114.528 432.381 116C432.381 117.472 433.554 118.667 435 118.667Z" fill="white"/>
</g>
<path d="M445.274 68.8188L444.85 72.2132L452.065 76.8806V80.275L459.281 76.8806V73.0618L452.065 69.2431L451.641 66.2729L445.274 68.8188Z" fill="white"/>
<path fill-rule="evenodd" clip-rule="evenodd" d="M451.443 66.5273L446.001 69.1674L451.443 72.146V66.5273ZM451.443 73.5803L445.257 70.1949V72.4995L451.443 75.6927V73.5803ZM451.443 77.1087L444.438 73.4927C444.169 73.3539 444 73.0764 444 72.7735V68.7394L451.54 65.082C452.076 64.8216 452.7 65.213 452.7 65.8101V68.7493L459.561 72.2731C459.83 72.4115 460 72.6895 460 72.993V76.6154C460 76.9185 459.831 77.1962 459.562 77.3349L452.621 80.9093C452.083 81.1863 451.443 80.7953 451.443 80.1898V77.1087ZM452.7 70.1638V79.4532L458.743 76.3411V73.2675L452.7 70.1638Z" fill="#E0E0E0"/>
<path d="M377.275 150.82L376.85 154.216L384.066 158.885V162.281L391.282 158.885V155.065L384.066 151.245L383.642 148.273L377.275 150.82Z" fill="white"/>
<path fill-rule="evenodd" clip-rule="evenodd" d="M383.443 148.528L378.001 151.169L383.443 154.149V148.528ZM383.443 155.584L377.257 152.197V154.502L383.443 157.697V155.584ZM383.443 159.113L376.438 155.496C376.169 155.357 376 155.079 376 154.776V150.741L383.54 147.082C384.076 146.822 384.7 147.213 384.7 147.81V150.751L391.561 154.276C391.83 154.414 392 154.692 392 154.996V158.62C392 158.923 391.831 159.201 391.562 159.339L384.621 162.915C384.083 163.192 383.443 162.801 383.443 162.195V159.113ZM384.7 152.166V161.459L390.743 158.345V155.271L384.7 152.166Z" fill="#E0E0E0"/>
</g>
<defs>
<filter id="filter0_d_18_7067" x="105.052" y="206.18" width="155.896" height="55.8962" filterUnits="userSpaceOnUse" color-interpolation-filters="sRGB">
<feFlood flood-opacity="0" result="BackgroundImageFix"/>
<feColorMatrix in="SourceAlpha" type="matrix" values="0 0 0 0 0 0 0 0 0 0 0 0 0 0 0 0 0 0 127 0" result="hardAlpha"/>
<feOffset dy="1.12805"/>
<feGaussianBlur stdDeviation="1.69207"/>
<feComposite in2="hardAlpha" operator="out"/>
<feColorMatrix type="matrix" values="0 0 0 0 0.180392 0 0 0 0 0.180392 0 0 0 0 0.180392 0 0 0 0.06 0"/>
<feBlend mode="normal" in2="BackgroundImageFix" result="effect1_dropShadow_18_7067"/>
<feBlend mode="normal" in="SourceGraphic" in2="effect1_dropShadow_18_7067" result="shape"/>
</filter>
<filter id="filter1_d_18_7067" x="120.052" y="6.17994" width="155.896" height="55.8962" filterUnits="userSpaceOnUse" color-interpolation-filters="sRGB">
<feFlood flood-opacity="0" result="BackgroundImageFix"/>
<feColorMatrix in="SourceAlpha" type="matrix" values="0 0 0 0 0 0 0 0 0 0 0 0 0 0 0 0 0 0 127 0" result="hardAlpha"/>
<feOffset dy="1.12805"/>
<feGaussianBlur stdDeviation="1.69207"/>
<feComposite in2="hardAlpha" operator="out"/>
<feColorMatrix type="matrix" values="0 0 0 0 0.180392 0 0 0 0 0.180392 0 0 0 0 0.180392 0 0 0 0.06 0"/>
<feBlend mode="normal" in2="BackgroundImageFix" result="effect1_dropShadow_18_7067"/>
<feBlend mode="normal" in="SourceGraphic" in2="effect1_dropShadow_18_7067" result="shape"/>
</filter>
<filter id="filter2_d_18_7067" x="509.052" y="245.18" width="155.896" height="55.8962" filterUnits="userSpaceOnUse" color-interpolation-filters="sRGB">
<feFlood flood-opacity="0" result="BackgroundImageFix"/>
<feColorMatrix in="SourceAlpha" type="matrix" values="0 0 0 0 0 0 0 0 0 0 0 0 0 0 0 0 0 0 127 0" result="hardAlpha"/>
<feOffset dy="1.12805"/>
<feGaussianBlur stdDeviation="1.69207"/>
<feComposite in2="hardAlpha" operator="out"/>
<feColorMatrix type="matrix" values="0 0 0 0 0.180392 0 0 0 0 0.180392 0 0 0 0 0.180392 0 0 0 0.06 0"/>
<feBlend mode="normal" in2="BackgroundImageFix" result="effect1_dropShadow_18_7067"/>
<feBlend mode="normal" in="SourceGraphic" in2="effect1_dropShadow_18_7067" result="shape"/>
</filter>
<filter id="filter3_d_18_7067" x="421.052" y="6.17994" width="155.896" height="55.8962" filterUnits="userSpaceOnUse" color-interpolation-filters="sRGB">
<feFlood flood-opacity="0" result="BackgroundImageFix"/>
<feColorMatrix in="SourceAlpha" type="matrix" values="0 0 0 0 0 0 0 0 0 0 0 0 0 0 0 0 0 0 127 0" result="hardAlpha"/>
<feOffset dy="1.12805"/>
<feGaussianBlur stdDeviation="1.69207"/>
<feComposite in2="hardAlpha" operator="out"/>
<feColorMatrix type="matrix" values="0 0 0 0 0.180392 0 0 0 0 0.180392 0 0 0 0 0.180392 0 0 0 0.06 0"/>
<feBlend mode="normal" in2="BackgroundImageFix" result="effect1_dropShadow_18_7067"/>
<feBlend mode="normal" in="SourceGraphic" in2="effect1_dropShadow_18_7067" result="shape"/>
</filter>
<filter id="filter4_d_18_7067" x="314.052" y="89.1799" width="155.896" height="55.8962" filterUnits="userSpaceOnUse" color-interpolation-filters="sRGB">
<feFlood flood-opacity="0" result="BackgroundImageFix"/>
<feColorMatrix in="SourceAlpha" type="matrix" values="0 0 0 0 0 0 0 0 0 0 0 0 0 0 0 0 0 0 127 0" result="hardAlpha"/>
<feOffset dy="1.12805"/>
<feGaussianBlur stdDeviation="1.69207"/>
<feComposite in2="hardAlpha" operator="out"/>
<feColorMatrix type="matrix" values="0 0 0 0 0.180392 0 0 0 0 0.180392 0 0 0 0 0.180392 0 0 0 0.06 0"/>
<feBlend mode="normal" in2="BackgroundImageFix" result="effect1_dropShadow_18_7067"/>
<feBlend mode="normal" in="SourceGraphic" in2="effect1_dropShadow_18_7067" result="shape"/>
</filter>
<linearGradient id="paint0_linear_18_7067" x1="442.663" y1="238.884" x2="487.762" y2="-0.651975" gradientUnits="userSpaceOnUse">
<stop stop-color="#F9D94A" stop-opacity="0.1"/>
<stop offset="0.5" stop-color="#F9D94A"/>
<stop offset="1" stop-color="#F9D94A" stop-opacity="0"/>
</linearGradient>
<linearGradient id="paint1_linear_18_7067" x1="305.499" y1="239" x2="382.999" y2="17.9999" gradientUnits="userSpaceOnUse">
<stop stop-color="#F9D94A" stop-opacity="0.1"/>
<stop offset="0.5" stop-color="#F9D94A"/>
<stop offset="1" stop-color="#F9D94A" stop-opacity="0"/>
</linearGradient>
<linearGradient id="paint2_linear_18_7067" x1="125.901" y1="237.215" x2="166.667" y2="77.9882" gradientUnits="userSpaceOnUse">
<stop stop-color="#F9D94A" stop-opacity="0.1"/>
<stop offset="0.5" stop-color="#F9D94A"/>
<stop offset="1" stop-color="#F9D94A" stop-opacity="0"/>
</linearGradient>
<linearGradient id="paint3_linear_18_7067" x1="649.707" y1="383.529" x2="756.222" y2="208.638" gradientUnits="userSpaceOnUse">
<stop stop-color="#F9D94A" stop-opacity="0.1"/>
<stop offset="0.5" stop-color="#F9D94A"/>
<stop offset="1" stop-color="#F9D94A" stop-opacity="0"/>
</linearGradient>
<clipPath id="clip0_18_7067">
<rect width="764.817" height="370" fill="white"/>
</clipPath>
<clipPath id="clip1_18_7067">
<rect width="22" height="16" fill="white" transform="translate(214 225)"/>
</clipPath>
<clipPath id="clip2_18_7067">
<rect x="214" y="225" width="22" height="16" rx="2" fill="white"/>
</clipPath>
<clipPath id="clip3_18_7067">
<rect width="22" height="16" fill="white" transform="translate(229 25)"/>
</clipPath>
<clipPath id="clip4_18_7067">
<rect x="229" y="25" width="22" height="16" rx="2" fill="white"/>
</clipPath>
<clipPath id="clip5_18_7067">
<rect width="22" height="16" fill="white" transform="translate(618 264)"/>
</clipPath>
<clipPath id="clip6_18_7067">
<rect x="618" y="264" width="22" height="16" rx="2" fill="white"/>
</clipPath>
<clipPath id="clip7_18_7067">
<rect width="22" height="16" fill="white" transform="translate(535 25)"/>
</clipPath>
<clipPath id="clip8_18_7067">
<rect x="535" y="25" width="22" height="16" rx="2" fill="white"/>
</clipPath>
<clipPath id="clip9_18_7067">
<rect width="22" height="16" fill="white" transform="translate(424 108)"/>
</clipPath>
</defs>
</svg>
