<svg width="358" height="174" viewBox="0 0 358 174" fill="none" xmlns="http://www.w3.org/2000/svg">
<g clip-path="url(#clip0_18_17388)">
<path d="M124.694 143.204C125.407 131.441 126.49 120.087 127.902 109.288C129.632 96.0062 131.863 83.5433 134.517 72.1499C137.791 57.9971 141.725 45.4683 146.174 35.0122C155.35 13.4134 166.69 0.660156 178.968 0.660156C178.651 0.660156 178.348 0.660156 178.031 0.660156C155.416 1.01661 134.517 13.7171 117.565 35.0122C109.248 45.4683 101.881 57.9971 95.7287 72.1499C90.7647 83.5565 86.606 96.0194 83.3583 109.288C80.7179 120.087 78.6979 131.428 77.3513 143.191C76.1103 154.148 75.4502 165.463 75.4502 177.041" stroke="#E0E0E0" stroke-width="0.468086" stroke-miterlimit="10"/>
<path d="M234.26 177.054V177.027C234.26 165.436 233.903 154.108 233.243 143.137C232.53 131.374 231.448 120.034 230.035 109.234C228.305 95.9661 226.074 83.5032 223.434 72.1098C220.147 57.9571 216.212 45.4282 211.763 34.9721C202.627 13.4922 191.353 0.765304 179.141 0.646484C202.046 0.699293 223.209 13.4394 240.346 34.9589C248.663 45.415 256.03 57.9306 262.182 72.0834C267.146 83.4768 271.318 95.9397 274.566 109.208C277.206 120.007 279.239 131.348 280.586 143.111C281.84 154.082 282.5 165.423 282.5 177.014C267.648 177.014 234.273 177.041 234.273 177.041L234.26 177.054Z" stroke="#E0E0E0" stroke-width="0.468086" stroke-miterlimit="10"/>
<path d="M123.678 177.041C123.678 165.476 124.034 154.162 124.694 143.204C125.407 131.441 126.49 120.087 127.903 109.288C129.632 96.0062 131.863 83.5433 134.517 72.1499C137.791 57.9971 141.725 45.4683 146.174 35.0122C155.35 13.4134 166.69 0.660156 178.968 0.660156V0.673358C178.652 0.673358 178.348 0.673358 178.031 0.673358C177.714 0.673358 177.411 0.673358 177.094 0.673358C145.567 1.16184 116.443 13.8359 92.798 35.0254C81.1273 45.4815 70.79 58.0103 62.1558 72.1631C55.1982 83.5697 49.3497 96.0194 44.7949 109.288C41.0983 120.087 38.2466 131.428 36.3719 143.191C34.616 154.148 33.6919 165.476 33.6919 177.054" stroke="#E0E0E0" stroke-width="0.468086" stroke-miterlimit="10"/>
<path d="M324.246 177.001V176.988C324.246 165.383 323.321 154.042 321.552 143.071C319.664 131.308 316.813 119.968 313.103 109.168C308.548 95.8869 302.686 83.4372 295.729 72.0438C287.081 57.891 276.744 45.3754 265.06 34.9193C241.442 13.7826 212.357 1.13496 180.857 0.646484C180.289 0.646484 179.708 0.646484 179.141 0.646484" stroke="#E0E0E0" stroke-width="0.468086" stroke-miterlimit="10"/>
<path d="M123.677 177.041C123.677 165.476 124.033 154.162 124.693 143.204C125.406 131.441 126.489 120.087 127.902 109.288C129.631 96.0062 131.862 83.5433 134.516 72.1499C137.79 57.9971 141.724 45.4683 146.173 35.0122C155.349 13.4134 166.69 0.660156 178.968 0.660156V0.673358C178.651 0.673358 178.347 0.673358 178.03 0.673358C177.713 0.673358 177.41 0.673358 177.093 0.673358C138.239 1.05622 102.342 13.7567 73.2314 35.0254C58.9071 45.4815 46.2198 57.9971 35.6185 72.1499C27.0899 83.5433 19.9079 95.993 14.3234 109.248C9.76867 120.021 6.2833 131.348 3.97292 143.085C1.79457 154.056 0.65918 165.41 0.65918 177.001" stroke="#E0E0E0" stroke-width="0.468086" stroke-miterlimit="10"/>
<path d="M357.276 176.975L357.289 176.948C357.276 165.343 356.141 154.003 353.975 143.032C351.652 131.282 348.153 119.941 343.598 109.142C338.001 95.8605 330.819 83.4108 322.264 72.0173C311.649 57.8646 298.949 45.349 284.611 34.9061C255.514 13.7034 219.67 1.04255 180.842 0.646484C180.275 0.646484 179.694 0.646484 179.126 0.646484" stroke="#E0E0E0" stroke-width="0.468086" stroke-miterlimit="10"/>
<path d="M3.96045 143.059C8.25115 143.336 354.412 143.059 354.412 143.059" stroke="#E0E0E0" stroke-width="0.468086" stroke-miterlimit="10"/>
<path d="M14.3105 109.221C21.4265 109.248 31.8958 109.261 44.7943 109.261C56.0162 109.261 69.0599 109.274 83.3578 109.274C97.6558 109.274 112.271 109.274 127.902 109.274C144.537 109.274 161.845 109.274 179.166 109.274C196.342 109.274 213.505 109.274 230.021 109.248C245.639 109.248 260.663 109.234 274.552 109.221C288.823 109.221 301.867 109.208 313.102 109.195C325.948 109.195 336.417 109.182 343.599 109.182" stroke="#E0E0E0" stroke-width="0.468086" stroke-miterlimit="10"/>
<path d="M35.6196 72.1231C43.3825 72.1231 52.3204 72.1363 62.1692 72.1363C72.4669 72.1363 83.7679 72.1363 95.7423 72.1363C107.717 72.1363 121.117 72.1363 134.53 72.1363C149.105 72.1363 164.129 72.1363 179.154 72.1363C194.046 72.1363 208.951 72.1363 223.407 72.1231C236.821 72.1231 249.851 72.1099 262.169 72.0967C274.13 72.0967 285.418 72.0967 295.729 72.0835C305.564 72.0835 314.489 72.0835 322.265 72.0703" stroke="#E0E0E0" stroke-width="0.468086" stroke-miterlimit="10"/>
<path d="M73.2314 35.0122C79.4893 35.0122 86.0375 35.0122 92.8234 35.0122H117.604C126.911 35.0122 136.483 35.0122 146.2 35.0122C157.065 35.0122 168.115 35.0122 179.152 35.0122C190.071 35.0122 201.002 35.0122 211.762 35.0122C221.465 35.0122 231.037 35.0122 240.344 35.0122C248.833 35.0122 257.111 35.0122 265.072 34.999C271.832 34.999 278.38 34.999 284.638 34.999" stroke="#E0E0E0" stroke-width="0.468086" stroke-miterlimit="10"/>
<path d="M179.22 177.08C179.22 167.377 179.22 155.891 179.193 143.164C179.193 132.628 179.193 121.222 179.167 109.261C179.167 97.3523 179.167 84.8763 179.154 72.123C179.154 59.911 179.154 47.4481 179.141 34.9853C179.141 23.473 179.141 11.9607 179.141 0.646484" stroke="#E0E0E0" stroke-width="0.468086" stroke-miterlimit="10"/>
<path d="M179.126 0.660156C179.694 0.660156 180.275 0.660156 180.842 0.660156" stroke="#E0E0E0" stroke-width="0.468086" stroke-miterlimit="10"/>
<path d="M179.128 0.660156C202.034 0.712965 223.197 13.453 240.333 34.9726C248.651 45.4287 256.017 57.9443 262.17 72.097C267.134 83.4905 271.305 95.9533 274.553 109.222" stroke="url(#paint0_linear_18_17388)" stroke-width="0.936172"/>
<path d="M127.917 109.274H179.181C179.181 97.3523 179.181 84.8763 179.168 72.123C179.168 59.911 179.168 47.4481 179.155 34.9853C179.155 23.473 179.155 11.9607 179.155 0.646484" stroke="url(#paint1_linear_18_17388)" stroke-width="0.936172"/>
<path d="M44.8091 109.261C49.3638 95.993 55.2124 83.5434 62.1699 72.1367C70.8041 57.984 81.1414 45.4551 92.8121 34.999" stroke="url(#paint2_linear_18_17388)" stroke-width="0.936172"/>
<path d="M295.729 72.0703C302.686 83.4638 308.548 95.9134 313.103 109.195C316.812 119.994 319.664 131.335 321.552 143.098C323.321 154.069 324.245 165.41 324.245 177.014" stroke="url(#paint3_linear_18_17388)" stroke-width="0.936172"/>
<g filter="url(#filter0_d_18_17388)">
<rect x="51.0215" y="97.8301" width="69.2767" height="22.4681" rx="2.80851" fill="white"/>
<rect x="51.0215" y="97.8301" width="69.2767" height="22.4681" rx="2.80851" stroke="#E0E0E0" stroke-width="0.528024" stroke-miterlimit="10"/>
</g>
<path d="M59.957 111.564V108.032H58.9806V107.652H59.3476C59.5223 107.652 59.6599 107.63 59.7604 107.587C59.8653 107.543 59.9395 107.469 59.9832 107.364C60.0269 107.255 60.0488 107.104 60.0488 106.912H60.4026V111.564H59.957ZM62.6673 111.564V108.032H61.6909V107.652H62.0579C62.2326 107.652 62.3702 107.63 62.4707 107.587C62.5756 107.543 62.6498 107.469 62.6935 107.364C62.7372 107.255 62.7591 107.104 62.7591 106.912H63.1129V111.564H62.6673ZM64.6832 111.564V110.929H65.3058V111.564H64.6832ZM66.545 111.564C66.545 111.25 66.5974 110.966 66.7023 110.713C66.8115 110.455 66.9928 110.212 67.2462 109.985C67.5039 109.754 67.8534 109.524 68.2947 109.297C68.5306 109.175 68.7228 109.061 68.8714 108.956C69.0199 108.847 69.1291 108.731 69.199 108.609C69.2689 108.487 69.3039 108.338 69.3039 108.163C69.3039 107.984 69.2646 107.827 69.1859 107.692C69.1073 107.552 68.9915 107.442 68.8386 107.364C68.6857 107.285 68.4956 107.246 68.2685 107.246C67.919 107.246 67.6394 107.34 67.4297 107.528C67.22 107.716 67.0889 107.986 67.0365 108.34L66.5712 108.308C66.6236 107.849 66.7984 107.484 67.0954 107.213C67.3925 106.942 67.7835 106.807 68.2685 106.807C68.583 106.807 68.8517 106.866 69.0745 106.984C69.3017 107.097 69.4743 107.255 69.5922 107.456C69.7102 107.657 69.7692 107.888 69.7692 108.15C69.7692 108.391 69.7255 108.598 69.6381 108.773C69.5551 108.943 69.4175 109.103 69.2252 109.251C69.0374 109.395 68.7862 109.548 68.4716 109.71C68.026 109.941 67.6874 110.182 67.4559 110.431C67.2287 110.68 67.1064 110.914 67.0889 111.132H69.7692V111.564H66.545ZM72.575 111.669C72.0769 111.669 71.6859 111.551 71.402 111.315C71.1223 111.075 70.9694 110.765 70.9432 110.385L71.402 110.352C71.4325 110.649 71.5527 110.87 71.7624 111.014C71.9764 111.158 72.2473 111.23 72.575 111.23C72.8022 111.23 73.0053 111.197 73.1844 111.132C73.3679 111.062 73.5143 110.957 73.6235 110.817C73.7327 110.673 73.7873 110.49 73.7873 110.267C73.7873 109.948 73.6759 109.708 73.4531 109.546C73.2303 109.38 72.9354 109.297 72.5684 109.297H72.1752V108.865H72.5684C72.883 108.865 73.1364 108.801 73.3286 108.674C73.5252 108.543 73.6235 108.34 73.6235 108.065C73.6235 107.803 73.5361 107.602 73.3614 107.462C73.1866 107.318 72.9354 107.246 72.6077 107.246C72.2976 107.246 72.0529 107.311 71.8738 107.442C71.699 107.569 71.5942 107.746 71.5592 107.973L71.0874 107.941C71.1398 107.6 71.2949 107.327 71.5527 107.121C71.8148 106.912 72.1665 106.807 72.6077 106.807C72.9092 106.807 73.1713 106.857 73.3941 106.958C73.6169 107.058 73.7895 107.202 73.9118 107.39C74.0342 107.574 74.0953 107.792 74.0953 108.045C74.0953 108.338 73.9992 108.576 73.807 108.76C73.6147 108.939 73.3373 109.059 72.9747 109.12V109.002C73.3679 109.05 73.6781 109.19 73.9053 109.422C74.1368 109.649 74.2526 109.933 74.2526 110.273C74.2526 110.562 74.1805 110.811 74.0363 111.021C73.8965 111.23 73.6999 111.392 73.4465 111.505C73.1932 111.615 72.9026 111.669 72.575 111.669ZM75.4379 111.564V110.929H76.0605V111.564H75.4379ZM78.9249 111.669C78.606 111.669 78.3285 111.615 78.0926 111.505C77.8611 111.396 77.6776 111.246 77.5422 111.053C77.4067 110.861 77.3259 110.638 77.2997 110.385L77.765 110.352C77.8043 110.636 77.9266 110.855 78.1319 111.007C78.3373 111.156 78.6016 111.23 78.9249 111.23C79.2744 111.23 79.5518 111.128 79.7571 110.922C79.9668 110.717 80.0717 110.433 80.0717 110.07C80.0717 109.839 80.0258 109.636 79.9341 109.461C79.8467 109.282 79.7156 109.144 79.5409 109.048C79.3705 108.948 79.1608 108.897 78.9118 108.897C78.6802 108.897 78.4683 108.95 78.2761 109.055C78.0839 109.159 77.9463 109.306 77.8633 109.494H77.3783L77.6798 106.912H80.2355V107.344H78.0861L77.8567 109.238L77.7715 109.153C77.837 109.009 77.931 108.886 78.0533 108.786C78.1756 108.685 78.3176 108.609 78.4793 108.557C78.6409 108.5 78.8091 108.471 78.9839 108.471C79.3028 108.471 79.578 108.541 79.8096 108.681C80.0411 108.816 80.2202 109.007 80.3469 109.251C80.478 109.491 80.5435 109.765 80.5435 110.07C80.5435 110.385 80.4736 110.664 80.3338 110.909C80.1984 111.149 80.0083 111.337 79.7637 111.473C79.5234 111.604 79.2438 111.669 78.9249 111.669ZM83.4705 111.669C82.9724 111.669 82.5814 111.551 82.2975 111.315C82.0179 111.075 81.8649 110.765 81.8387 110.385L82.2975 110.352C82.328 110.649 82.4482 110.87 82.6579 111.014C82.872 111.158 83.1428 111.23 83.4705 111.23C83.6977 111.23 83.9008 111.197 84.0799 111.132C84.2634 111.062 84.4098 110.957 84.519 110.817C84.6282 110.673 84.6828 110.49 84.6828 110.267C84.6828 109.948 84.5714 109.708 84.3486 109.546C84.1258 109.38 83.8309 109.297 83.4639 109.297H83.0707V108.865H83.4639C83.7785 108.865 84.0319 108.801 84.2241 108.674C84.4207 108.543 84.519 108.34 84.519 108.065C84.519 107.803 84.4316 107.602 84.2569 107.462C84.0821 107.318 83.8309 107.246 83.5032 107.246C83.1931 107.246 82.9484 107.311 82.7693 107.442C82.5945 107.569 82.4897 107.746 82.4547 107.973L81.9829 107.941C82.0353 107.6 82.1904 107.327 82.4482 107.121C82.7103 106.912 83.062 106.807 83.5032 106.807C83.8047 106.807 84.0668 106.857 84.2896 106.958C84.5124 107.058 84.685 107.202 84.8073 107.39C84.9297 107.574 84.9908 107.792 84.9908 108.045C84.9908 108.338 84.8947 108.576 84.7025 108.76C84.5103 108.939 84.2328 109.059 83.8702 109.12V109.002C84.2634 109.05 84.5736 109.19 84.8008 109.422C85.0323 109.649 85.1481 109.933 85.1481 110.273C85.1481 110.562 85.076 110.811 84.9318 111.021C84.792 111.23 84.5954 111.392 84.3421 111.505C84.0887 111.615 83.7981 111.669 83.4705 111.669ZM86.3334 111.564V110.929H86.956V111.564H86.3334ZM89.7614 111.669C89.2634 111.669 88.8724 111.551 88.5884 111.315C88.3088 111.075 88.1559 110.765 88.1297 110.385L88.5884 110.352C88.619 110.649 88.7391 110.87 88.9488 111.014C89.1629 111.158 89.4337 111.23 89.7614 111.23C89.9886 111.23 90.1917 111.197 90.3709 111.132C90.5543 111.062 90.7007 110.957 90.8099 110.817C90.9191 110.673 90.9737 110.49 90.9737 110.267C90.9737 109.948 90.8623 109.708 90.6395 109.546C90.4167 109.38 90.1218 109.297 89.7549 109.297H89.3617V108.865H89.7549C90.0694 108.865 90.3228 108.801 90.515 108.674C90.7116 108.543 90.8099 108.34 90.8099 108.065C90.8099 107.803 90.7225 107.602 90.5478 107.462C90.373 107.318 90.1218 107.246 89.7942 107.246C89.484 107.246 89.2393 107.311 89.0602 107.442C88.8855 107.569 88.7806 107.746 88.7457 107.973L88.2738 107.941C88.3263 107.6 88.4813 107.327 88.7391 107.121C89.0012 106.912 89.3529 106.807 89.7942 106.807C90.0956 106.807 90.3577 106.857 90.5806 106.958C90.8034 107.058 90.9759 107.202 91.0983 107.39C91.2206 107.574 91.2817 107.792 91.2817 108.045C91.2817 108.338 91.1856 108.576 90.9934 108.76C90.8012 108.939 90.5238 109.059 90.1612 109.12V109.002C90.5543 109.05 90.8645 109.19 91.0917 109.422C91.3233 109.649 91.439 109.933 91.439 110.273C91.439 110.562 91.3669 110.811 91.2228 111.021C91.083 111.23 90.8864 111.392 90.633 111.505C90.3796 111.615 90.0891 111.669 89.7614 111.669ZM94.9442 111.564V110.509H92.5392V110.11L94.918 106.912H95.3898V110.077H95.9731V110.509H95.3898V111.564H94.9442ZM93.0896 110.077H94.9442V107.606L93.0896 110.077Z" fill="#2E2E2E"/>
<g clip-path="url(#clip1_18_17388)">
<g clip-path="url(#clip2_18_17388)">
<rect x="100.255" y="105.319" width="10.2979" height="7.48937" rx="0.936172" fill="white"/>
<path fill-rule="evenodd" clip-rule="evenodd" d="M100.255 105.319H104.669V108.814H100.255V105.319Z" fill="#1A47B8"/>
<path fill-rule="evenodd" clip-rule="evenodd" d="M104.669 105.319V105.819H110.553V105.319H104.669ZM104.669 106.318V106.817H110.553V106.318H104.669ZM104.669 107.317V107.816H110.553V107.317H104.669ZM104.669 108.315V108.814H110.553V108.315H104.669ZM100.255 109.314V109.813H110.553V109.314H100.255ZM100.255 110.312V110.812H110.553V110.312H100.255ZM100.255 111.311V111.81H110.553V111.311H100.255ZM100.255 112.309V112.809H110.553V112.309H100.255Z" fill="#F93939"/>
<path fill-rule="evenodd" clip-rule="evenodd" d="M100.746 105.818V106.318H101.236V105.818H100.746ZM101.727 105.818V106.318H102.217V105.818H101.727ZM102.708 105.818V106.318H103.198V105.818H102.708ZM103.688 105.818V106.318H104.179V105.818H103.688ZM103.198 106.318V106.817H103.688V106.318H103.198ZM102.217 106.318V106.817H102.708V106.318H102.217ZM101.236 106.318V106.817H101.727V106.318H101.236ZM100.746 106.817V107.316H101.236V106.817H100.746ZM101.727 106.817V107.316H102.217V106.817H101.727ZM102.708 106.817V107.316H103.198V106.817H102.708ZM103.688 106.817V107.316H104.179V106.817H103.688ZM100.746 107.816V108.315H101.236V107.816H100.746ZM101.727 107.816V108.315H102.217V107.816H101.727ZM102.708 107.816V108.315H103.198V107.816H102.708ZM103.688 107.816V108.315H104.179V107.816H103.688ZM103.198 107.316V107.816H103.688V107.316H103.198ZM102.217 107.316V107.816H102.708V107.316H102.217ZM101.236 107.316V107.816H101.727V107.316H101.236Z" fill="white"/>
</g>
</g>
<g filter="url(#filter1_d_18_17388)">
<rect x="58.0425" y="4.21289" width="69.2767" height="22.4681" rx="2.80851" fill="white"/>
<rect x="58.0425" y="4.21289" width="69.2767" height="22.4681" rx="2.80851" stroke="#E0E0E0" stroke-width="0.528024" stroke-miterlimit="10"/>
</g>
<path d="M66.8884 17.9473V14.4151H65.912V14.035H66.279C66.4537 14.035 66.5913 14.0132 66.6918 13.9695C66.7967 13.9258 66.871 13.8515 66.9146 13.7467C66.9583 13.6374 66.9802 13.4867 66.9802 13.2945H67.334V17.9473H66.8884ZM70.4474 18.0521C70.1197 18.0521 69.827 17.9997 69.5693 17.8948C69.3159 17.7856 69.1171 17.6283 68.9729 17.423C68.8288 17.2177 68.7567 16.9687 68.7567 16.6759C68.7567 16.3352 68.8615 16.0534 69.0712 15.8306C69.2853 15.6034 69.5649 15.4549 69.91 15.385L69.9232 15.5029C69.6392 15.4287 69.4098 15.3085 69.2351 15.1425C69.0647 14.9721 68.9795 14.7406 68.9795 14.4479C68.9795 14.2032 69.0385 13.9869 69.1564 13.7991C69.2788 13.6112 69.4491 13.4627 69.6676 13.3535C69.8904 13.2443 70.1503 13.1896 70.4474 13.1896C70.7489 13.1896 71.0088 13.2443 71.2272 13.3535C71.45 13.4627 71.6204 13.6112 71.7384 13.7991C71.8563 13.9869 71.9153 14.2032 71.9153 14.4479C71.9153 14.7406 71.8301 14.9721 71.6597 15.1425C71.4894 15.3085 71.2622 15.4287 70.9782 15.5029L70.9913 15.385C71.3408 15.4549 71.6182 15.6034 71.8236 15.8306C72.0333 16.0534 72.1381 16.3352 72.1381 16.6759C72.1381 16.9687 72.066 17.2177 71.9219 17.423C71.7821 17.6283 71.5855 17.7856 71.3321 17.8948C71.0787 17.9997 70.7838 18.0521 70.4474 18.0521ZM70.4474 17.6131C70.8275 17.6131 71.1268 17.5322 71.3452 17.3706C71.5636 17.2089 71.6729 16.9687 71.6729 16.6497C71.6729 16.357 71.5702 16.1211 71.3649 15.942C71.1639 15.7585 70.8581 15.6668 70.4474 15.6668C70.0411 15.6668 69.7353 15.7585 69.53 15.942C69.329 16.1211 69.2285 16.357 69.2285 16.6497C69.2285 16.9687 69.3355 17.2089 69.5496 17.3706C69.7681 17.5322 70.0673 17.6131 70.4474 17.6131ZM70.4474 15.2539C70.7576 15.2539 71.0022 15.1862 71.1814 15.0508C71.3605 14.9109 71.45 14.7078 71.45 14.4413C71.45 14.1923 71.3649 13.9957 71.1945 13.8515C71.0241 13.703 70.7751 13.6287 70.4474 13.6287C70.1241 13.6287 69.8773 13.703 69.7069 13.8515C69.5365 13.9957 69.4513 14.1923 69.4513 14.4413C69.4513 14.7078 69.5409 14.9109 69.72 15.0508C69.8991 15.1862 70.1416 15.2539 70.4474 15.2539ZM73.2529 17.9473V17.3116H73.8755V17.9473H73.2529ZM76.6023 18.0521C76.2396 18.0521 75.9382 17.9626 75.6979 17.7834C75.462 17.5999 75.3004 17.3662 75.213 17.0822L75.6848 17.0429C75.7416 17.222 75.8465 17.3618 75.9994 17.4623C76.1566 17.5628 76.3576 17.6131 76.6023 17.6131C77.0173 17.6131 77.3362 17.4361 77.559 17.0822C77.7818 16.724 77.8932 16.1713 77.8932 15.4243L78.0177 15.4702C77.9085 15.776 77.7338 16.0141 77.4935 16.1845C77.2532 16.3548 76.9736 16.44 76.6547 16.44C76.3532 16.44 76.0867 16.3745 75.8552 16.2434C75.628 16.108 75.4467 15.9201 75.3113 15.6799C75.1802 15.4396 75.1147 15.16 75.1147 14.841C75.1147 14.5047 75.1824 14.2141 75.3178 13.9695C75.4576 13.7205 75.6455 13.5282 75.8814 13.3928C76.1173 13.2574 76.3904 13.1896 76.7006 13.1896C77.0763 13.1896 77.3865 13.277 77.6311 13.4518C77.8758 13.6265 78.0571 13.8712 78.175 14.1857C78.2973 14.5003 78.3585 14.8738 78.3585 15.3063C78.3585 15.6951 78.3279 16.0578 78.2668 16.3942C78.21 16.7262 78.1117 17.0167 77.9719 17.2657C77.8364 17.5104 77.6573 17.7026 77.4345 17.8424C77.2117 17.9822 76.9343 18.0521 76.6023 18.0521ZM76.6809 16.001C76.9081 16.001 77.109 15.9551 77.2838 15.8633C77.4629 15.7672 77.6049 15.634 77.7097 15.4636C77.8146 15.2932 77.867 15.0923 77.867 14.8607C77.867 14.6248 77.819 14.4151 77.7229 14.2316C77.6267 14.0437 77.4913 13.8974 77.3166 13.7925C77.1462 13.6833 76.9408 13.6287 76.7006 13.6287C76.4734 13.6287 76.2768 13.6811 76.1108 13.786C75.9447 13.8865 75.8159 14.0285 75.7241 14.2119C75.6324 14.3954 75.5865 14.6051 75.5865 14.841C75.5865 15.0726 75.6324 15.2757 75.7241 15.4505C75.8159 15.6252 75.9426 15.7607 76.1042 15.8568C76.2702 15.9529 76.4625 16.001 76.6809 16.001ZM79.6617 17.9473C79.6617 17.6327 79.7141 17.3487 79.8189 17.0953C79.9282 16.8376 80.1095 16.5951 80.3628 16.3679C80.6206 16.1364 80.9701 15.907 81.4114 15.6799C81.6473 15.5575 81.8395 15.4439 81.988 15.3391C82.1366 15.2299 82.2458 15.1141 82.3157 14.9918C82.3856 14.8694 82.4206 14.7209 82.4206 14.5462C82.4206 14.367 82.3812 14.2098 82.3026 14.0743C82.224 13.9345 82.1082 13.8253 81.9553 13.7467C81.8024 13.668 81.6123 13.6287 81.3851 13.6287C81.0356 13.6287 80.756 13.7226 80.5463 13.9105C80.3366 14.0984 80.2056 14.3692 80.1531 14.7231L79.6879 14.6903C79.7403 14.2316 79.915 13.8668 80.2121 13.5959C80.5092 13.3251 80.9002 13.1896 81.3851 13.1896C81.6997 13.1896 81.9684 13.2486 82.1912 13.3666C82.4184 13.4802 82.5909 13.6374 82.7089 13.8384C82.8269 14.0394 82.8858 14.2709 82.8858 14.533C82.8858 14.7733 82.8421 14.9808 82.7548 15.1556C82.6718 15.326 82.5341 15.4854 82.3419 15.634C82.1541 15.7782 81.9029 15.9311 81.5883 16.0927C81.1427 16.3243 80.8041 16.5645 80.5726 16.8136C80.3454 17.0626 80.223 17.2963 80.2056 17.5148H82.8858V17.9473H79.6617ZM84.1292 17.9473V17.3116H84.7518V17.9473H84.1292ZM88.1994 17.9473V16.8922H85.7944V16.4925L88.1732 13.2945H88.645V16.4597H89.2283V16.8922H88.645V17.9473H88.1994ZM86.3449 16.4597H88.1994V13.9891L86.3449 16.4597ZM92.1636 18.0521C91.8229 18.0521 91.5301 17.9757 91.2855 17.8228C91.0408 17.6698 90.8508 17.4405 90.7154 17.1347C90.5843 16.8245 90.5188 16.4422 90.5188 15.9879C90.5188 15.6034 90.5515 15.243 90.6171 14.9066C90.6826 14.5658 90.7853 14.2687 90.9251 14.0153C91.0649 13.7576 91.2484 13.5566 91.4755 13.4125C91.7027 13.2639 91.9823 13.1896 92.3143 13.1896C92.7163 13.1896 93.0286 13.2901 93.2514 13.4911C93.4743 13.6921 93.6337 13.9542 93.7298 14.2775L93.2646 14.3233C93.2078 14.118 93.1051 13.952 92.9566 13.8253C92.8124 13.6942 92.5983 13.6287 92.3143 13.6287C91.9124 13.6287 91.5913 13.8078 91.351 14.1661C91.1151 14.5243 90.9884 15.0726 90.9709 15.8109L90.8726 15.7847C90.9207 15.6056 91.0081 15.4439 91.1348 15.2998C91.2615 15.1556 91.4166 15.042 91.6 14.959C91.7879 14.8716 91.9976 14.8279 92.2291 14.8279C92.535 14.8279 92.8036 14.8935 93.0352 15.0245C93.2667 15.1556 93.4459 15.3391 93.5726 15.575C93.6993 15.8109 93.7626 16.0883 93.7626 16.4073C93.7626 16.7437 93.6949 17.0342 93.5594 17.2788C93.424 17.5235 93.2362 17.7135 92.9959 17.849C92.7556 17.9844 92.4782 18.0521 92.1636 18.0521ZM92.1702 17.6131C92.5022 17.6131 92.7731 17.5082 92.9828 17.2985C93.1925 17.0844 93.2973 16.7873 93.2973 16.4073C93.2973 16.1713 93.2514 15.9682 93.1597 15.7978C93.068 15.6231 92.9391 15.4898 92.7731 15.3981C92.6114 15.302 92.4214 15.2539 92.2029 15.2539C91.9801 15.2539 91.7792 15.2998 91.6 15.3915C91.4209 15.4833 91.2789 15.6143 91.1741 15.7847C91.0692 15.9551 91.0168 16.1561 91.0168 16.3876C91.0168 16.6235 91.0627 16.8354 91.1544 17.0233C91.2462 17.2068 91.3794 17.3509 91.5542 17.4558C91.7289 17.5606 91.9343 17.6131 92.1702 17.6131ZM95.0119 17.9473V17.3116H95.6345V17.9473H95.0119ZM99.0821 17.9473V16.8922H96.6771V16.4925L99.0559 13.2945H99.5277V16.4597H100.111V16.8922H99.5277V17.9473H99.0821ZM97.2276 16.4597H99.0821V13.9891L97.2276 16.4597ZM102.247 17.9473V14.4151H101.27V14.035H101.637C101.812 14.035 101.95 14.0132 102.05 13.9695C102.155 13.9258 102.229 13.8515 102.273 13.7467C102.317 13.6374 102.339 13.4867 102.339 13.2945H102.692V17.9473H102.247Z" fill="#2E2E2E"/>
<g clip-path="url(#clip3_18_17388)">
<g clip-path="url(#clip4_18_17388)">
<rect x="107.276" y="11.7021" width="10.2979" height="7.48937" rx="0.936172" fill="#1A47B8"/>
<path fill-rule="evenodd" clip-rule="evenodd" d="M108.372 11.7021H107.276V12.9504L116.473 19.1915L117.574 19.1915V17.9433L108.372 11.7021Z" fill="white"/>
<path d="M107.642 11.7021L117.574 18.4603V19.1915H117.217L107.276 12.4264V11.7021H107.642Z" fill="#F93939"/>
<path fill-rule="evenodd" clip-rule="evenodd" d="M116.594 11.7021H117.574V12.9504C117.574 12.9504 111.204 17.1085 108.257 19.1915H107.276V17.9433L116.594 11.7021Z" fill="white"/>
<path d="M117.574 11.7021H117.242L107.276 18.4661V19.1915H107.642L117.574 12.4319V11.7021Z" fill="#F93939"/>
<path fill-rule="evenodd" clip-rule="evenodd" d="M111.021 11.7021H113.838V14.0123H117.574V16.8799H113.838V19.1915H111.021V16.8799H107.276V14.0123H111.021V11.7021Z" fill="white"/>
<path fill-rule="evenodd" clip-rule="evenodd" d="M111.612 11.7021H113.238V14.5827H117.574V16.311H113.238V19.1915H111.612V16.311H107.276V14.5827H111.612V11.7021Z" fill="#F93939"/>
</g>
</g>
<g filter="url(#filter2_d_18_17388)">
<rect x="240.128" y="116.085" width="69.2767" height="22.4681" rx="2.80851" fill="white"/>
<rect x="240.128" y="116.085" width="69.2767" height="22.4681" rx="2.80851" stroke="#E0E0E0" stroke-width="0.528024" stroke-miterlimit="10"/>
</g>
<path d="M250.385 129.819V128.764H247.98V128.365L250.359 125.167H250.831V128.332H251.414V128.764H250.831V129.819H250.385ZM248.53 128.332H250.385V125.861L248.53 128.332ZM252.704 129.819C252.704 129.505 252.757 129.221 252.862 128.967C252.971 128.71 253.152 128.467 253.405 128.24C253.663 128.008 254.013 127.779 254.454 127.552C254.69 127.43 254.882 127.316 255.031 127.211C255.179 127.102 255.288 126.986 255.358 126.864C255.428 126.742 255.463 126.593 255.463 126.418C255.463 126.239 255.424 126.082 255.345 125.946C255.267 125.807 255.151 125.697 254.998 125.619C254.845 125.54 254.655 125.501 254.428 125.501C254.078 125.501 253.799 125.595 253.589 125.783C253.379 125.97 253.248 126.241 253.196 126.595L252.731 126.562C252.783 126.104 252.958 125.739 253.255 125.468C253.552 125.197 253.943 125.062 254.428 125.062C254.742 125.062 255.011 125.121 255.234 125.239C255.461 125.352 255.634 125.51 255.752 125.71C255.869 125.911 255.928 126.143 255.928 126.405C255.928 126.645 255.885 126.853 255.797 127.028C255.714 127.198 255.577 127.358 255.385 127.506C255.197 127.65 254.945 127.803 254.631 127.965C254.185 128.196 253.847 128.437 253.615 128.686C253.388 128.935 253.266 129.168 253.248 129.387H255.928V129.819H252.704ZM257.172 129.819V129.184H257.794V129.819H257.172ZM260.659 129.924C260.34 129.924 260.062 129.87 259.827 129.76C259.595 129.651 259.412 129.5 259.276 129.308C259.141 129.116 259.06 128.893 259.034 128.64L259.499 128.607C259.538 128.891 259.661 129.109 259.866 129.262C260.071 129.411 260.336 129.485 260.659 129.485C261.008 129.485 261.286 129.382 261.491 129.177C261.701 128.972 261.806 128.688 261.806 128.325C261.806 128.094 261.76 127.891 261.668 127.716C261.581 127.537 261.45 127.399 261.275 127.303C261.104 127.202 260.895 127.152 260.646 127.152C260.414 127.152 260.202 127.205 260.01 127.309C259.818 127.414 259.68 127.561 259.597 127.749H259.112L259.414 125.167H261.969V125.599H259.82L259.591 127.493L259.505 127.408C259.571 127.264 259.665 127.141 259.787 127.041C259.91 126.94 260.052 126.864 260.213 126.811C260.375 126.755 260.543 126.726 260.718 126.726C261.037 126.726 261.312 126.796 261.543 126.936C261.775 127.071 261.954 127.261 262.081 127.506C262.212 127.746 262.277 128.019 262.277 128.325C262.277 128.64 262.208 128.919 262.068 129.164C261.932 129.404 261.742 129.592 261.498 129.728C261.257 129.859 260.978 129.924 260.659 129.924ZM265.204 129.924C264.706 129.924 264.315 129.806 264.031 129.57C263.752 129.33 263.599 129.02 263.573 128.64L264.031 128.607C264.062 128.904 264.182 129.125 264.392 129.269C264.606 129.413 264.877 129.485 265.204 129.485C265.432 129.485 265.635 129.452 265.814 129.387C265.997 129.317 266.144 129.212 266.253 129.072C266.362 128.928 266.417 128.745 266.417 128.522C266.417 128.203 266.305 127.963 266.083 127.801C265.86 127.635 265.565 127.552 265.198 127.552H264.805V127.119H265.198C265.512 127.119 265.766 127.056 265.958 126.929C266.155 126.798 266.253 126.595 266.253 126.32C266.253 126.058 266.166 125.857 265.991 125.717C265.816 125.573 265.565 125.501 265.237 125.501C264.927 125.501 264.682 125.566 264.503 125.697C264.328 125.824 264.224 126.001 264.189 126.228L263.717 126.195C263.769 125.855 263.924 125.582 264.182 125.376C264.444 125.167 264.796 125.062 265.237 125.062C265.539 125.062 265.801 125.112 266.024 125.212C266.246 125.313 266.419 125.457 266.541 125.645C266.664 125.828 266.725 126.047 266.725 126.3C266.725 126.593 266.629 126.831 266.436 127.015C266.244 127.194 265.967 127.314 265.604 127.375V127.257C265.997 127.305 266.308 127.445 266.535 127.676C266.766 127.904 266.882 128.188 266.882 128.528C266.882 128.817 266.81 129.066 266.666 129.275C266.526 129.485 266.329 129.647 266.076 129.76C265.823 129.87 265.532 129.924 265.204 129.924ZM268.067 129.819V129.184H268.69V129.819H268.067ZM271.446 129.924C271.105 129.924 270.813 129.848 270.568 129.695C270.323 129.542 270.133 129.313 269.998 129.007C269.867 128.697 269.801 128.314 269.801 127.86C269.801 127.475 269.834 127.115 269.899 126.779C269.965 126.438 270.068 126.141 270.207 125.887C270.347 125.63 270.531 125.429 270.758 125.285C270.985 125.136 271.265 125.062 271.597 125.062C271.999 125.062 272.311 125.162 272.534 125.363C272.757 125.564 272.916 125.826 273.012 126.15L272.547 126.195C272.49 125.99 272.387 125.824 272.239 125.697C272.095 125.566 271.881 125.501 271.597 125.501C271.195 125.501 270.874 125.68 270.633 126.038C270.397 126.396 270.271 126.945 270.253 127.683L270.155 127.657C270.203 127.478 270.29 127.316 270.417 127.172C270.544 127.028 270.699 126.914 270.882 126.831C271.07 126.744 271.28 126.7 271.512 126.7C271.817 126.7 272.086 126.766 272.318 126.897C272.549 127.028 272.728 127.211 272.855 127.447C272.982 127.683 273.045 127.96 273.045 128.279C273.045 128.616 272.977 128.906 272.842 129.151C272.706 129.396 272.519 129.586 272.278 129.721C272.038 129.856 271.761 129.924 271.446 129.924ZM271.453 129.485C271.785 129.485 272.055 129.38 272.265 129.171C272.475 128.956 272.58 128.659 272.58 128.279C272.58 128.043 272.534 127.84 272.442 127.67C272.35 127.495 272.221 127.362 272.055 127.27C271.894 127.174 271.704 127.126 271.485 127.126C271.262 127.126 271.062 127.172 270.882 127.264C270.703 127.355 270.561 127.486 270.456 127.657C270.352 127.827 270.299 128.028 270.299 128.26C270.299 128.496 270.345 128.707 270.437 128.895C270.529 129.079 270.662 129.223 270.837 129.328C271.011 129.433 271.217 129.485 271.453 129.485ZM275.192 129.819C275.192 129.326 275.26 128.83 275.395 128.332C275.531 127.834 275.723 127.353 275.972 126.89C276.221 126.427 276.516 125.997 276.857 125.599H274.124V125.167H277.348V125.566C276.981 125.99 276.671 126.427 276.418 126.877C276.164 127.327 275.972 127.797 275.841 128.286C275.714 128.771 275.651 129.282 275.651 129.819H275.192ZM277.542 129.819V129.184H278.165V129.819H277.542ZM279.769 129.819V126.287H278.793V125.907H279.16C279.335 125.907 279.472 125.885 279.573 125.842C279.678 125.798 279.752 125.724 279.796 125.619C279.839 125.51 279.861 125.359 279.861 125.167H280.215V129.819H279.769ZM281.833 129.819C281.833 129.505 281.885 129.221 281.99 128.967C282.099 128.71 282.28 128.467 282.534 128.24C282.792 128.008 283.141 127.779 283.582 127.552C283.818 127.43 284.01 127.316 284.159 127.211C284.308 127.102 284.417 126.986 284.487 126.864C284.557 126.742 284.592 126.593 284.592 126.418C284.592 126.239 284.552 126.082 284.474 125.946C284.395 125.807 284.279 125.697 284.126 125.619C283.973 125.54 283.783 125.501 283.556 125.501C283.207 125.501 282.927 125.595 282.717 125.783C282.508 125.97 282.377 126.241 282.324 126.595L281.859 126.562C281.911 126.104 282.086 125.739 282.383 125.468C282.68 125.197 283.071 125.062 283.556 125.062C283.871 125.062 284.139 125.121 284.362 125.239C284.589 125.352 284.762 125.51 284.88 125.71C284.998 125.911 285.057 126.143 285.057 126.405C285.057 126.645 285.013 126.853 284.926 127.028C284.843 127.198 284.705 127.358 284.513 127.506C284.325 127.65 284.074 127.803 283.759 127.965C283.314 128.196 282.975 128.437 282.744 128.686C282.516 128.935 282.394 129.168 282.377 129.387H285.057V129.819H281.833Z" fill="#2E2E2E"/>
<g clip-path="url(#clip5_18_17388)">
<g clip-path="url(#clip6_18_17388)">
<rect x="289.362" y="123.574" width="10.2979" height="7.48937" rx="0.936172" fill="white"/>
<path fill-rule="evenodd" clip-rule="evenodd" d="M294.511 128.567C295.187 128.567 295.737 128.008 295.737 127.319C295.737 126.63 295.187 126.07 294.511 126.07C293.834 126.07 293.285 126.63 293.285 127.319C293.285 128.008 293.834 128.567 294.511 128.567ZM294.511 128.067C294.917 128.067 295.246 127.732 295.246 127.319C295.246 126.905 294.917 126.57 294.511 126.57C294.105 126.57 293.775 126.905 293.775 127.319C293.775 127.732 294.105 128.067 294.511 128.067Z" fill="#1A47B8"/>
<path d="M294.511 127.569C294.646 127.569 294.756 127.457 294.756 127.319C294.756 127.181 294.646 127.069 294.511 127.069C294.375 127.069 294.266 127.181 294.266 127.319C294.266 127.457 294.375 127.569 294.511 127.569Z" fill="#1A47B8"/>
<path fill-rule="evenodd" clip-rule="evenodd" d="M289.362 128.724H299.66V131.064H289.362V128.724Z" fill="#249F58"/>
<path fill-rule="evenodd" clip-rule="evenodd" d="M289.362 123.574H299.66V125.915H289.362V123.574Z" fill="#FF6C2D"/>
</g>
</g>
<g filter="url(#filter3_d_18_17388)">
<rect x="198.937" y="4.21289" width="69.2767" height="22.4681" rx="2.80851" fill="white"/>
<rect x="198.937" y="4.21289" width="69.2767" height="22.4681" rx="2.80851" stroke="#E0E0E0" stroke-width="0.528024" stroke-miterlimit="10"/>
</g>
<path d="M206.875 17.9473C206.875 17.6327 206.927 17.3487 207.032 17.0953C207.141 16.8376 207.323 16.5951 207.576 16.3679C207.834 16.1364 208.183 15.907 208.624 15.6799C208.86 15.5575 209.053 15.4439 209.201 15.3391C209.35 15.2299 209.459 15.1141 209.529 14.9918C209.599 14.8694 209.634 14.7209 209.634 14.5462C209.634 14.367 209.594 14.2098 209.516 14.0743C209.437 13.9345 209.321 13.8253 209.168 13.7467C209.015 13.668 208.825 13.6287 208.598 13.6287C208.249 13.6287 207.969 13.7226 207.759 13.9105C207.55 14.0984 207.419 14.3692 207.366 14.7231L206.901 14.6903C206.953 14.2316 207.128 13.8668 207.425 13.5959C207.722 13.3251 208.113 13.1896 208.598 13.1896C208.913 13.1896 209.181 13.2486 209.404 13.3666C209.631 13.4802 209.804 13.6374 209.922 13.8384C210.04 14.0394 210.099 14.2709 210.099 14.533C210.099 14.7733 210.055 14.9808 209.968 15.1556C209.885 15.326 209.747 15.4854 209.555 15.634C209.367 15.7782 209.116 15.9311 208.801 16.0927C208.356 16.3243 208.017 16.5645 207.786 16.8136C207.558 17.0626 207.436 17.2963 207.419 17.5148H210.099V17.9473H206.875ZM212.905 18.0521C212.407 18.0521 212.016 17.9342 211.732 17.6982C211.452 17.458 211.299 17.1478 211.273 16.7677L211.732 16.7349C211.762 17.032 211.882 17.2526 212.092 17.3968C212.306 17.541 212.577 17.6131 212.905 17.6131C213.132 17.6131 213.335 17.5803 213.514 17.5148C213.698 17.4449 213.844 17.34 213.953 17.2002C214.063 17.056 214.117 16.8725 214.117 16.6497C214.117 16.3308 214.006 16.0905 213.783 15.9289C213.56 15.7629 213.265 15.6799 212.898 15.6799H212.505V15.2473H212.898C213.213 15.2473 213.466 15.184 213.658 15.0573C213.855 14.9262 213.953 14.7231 213.953 14.4479C213.953 14.1857 213.866 13.9848 213.691 13.845C213.516 13.7008 213.265 13.6287 212.938 13.6287C212.627 13.6287 212.383 13.6942 212.204 13.8253C212.029 13.952 211.924 14.1289 211.889 14.3561L211.417 14.3233C211.47 13.9826 211.625 13.7095 211.882 13.5042C212.145 13.2945 212.496 13.1896 212.938 13.1896C213.239 13.1896 213.501 13.2399 213.724 13.3404C213.947 13.4408 214.119 13.585 214.242 13.7729C214.364 13.9564 214.425 14.1748 214.425 14.4282C214.425 14.7209 214.329 14.959 214.137 15.1425C213.945 15.3216 213.667 15.4418 213.305 15.5029V15.385C213.698 15.433 214.008 15.5728 214.235 15.8044C214.467 16.0315 214.582 16.3155 214.582 16.6563C214.582 16.9446 214.51 17.1936 214.366 17.4033C214.226 17.6131 214.03 17.7747 213.776 17.8883C213.523 17.9975 213.232 18.0521 212.905 18.0521ZM215.768 17.9473V17.3116H216.39V17.9473H215.768ZM219.189 18.0521C218.861 18.0521 218.569 17.9997 218.311 17.8948C218.058 17.7856 217.859 17.6283 217.715 17.423C217.571 17.2177 217.498 16.9687 217.498 16.6759C217.498 16.3352 217.603 16.0534 217.813 15.8306C218.027 15.6034 218.307 15.4549 218.652 15.385L218.665 15.5029C218.381 15.4287 218.152 15.3085 217.977 15.1425C217.806 14.9721 217.721 14.7406 217.721 14.4479C217.721 14.2032 217.78 13.9869 217.898 13.7991C218.02 13.6112 218.191 13.4627 218.409 13.3535C218.632 13.2443 218.892 13.1896 219.189 13.1896C219.491 13.1896 219.751 13.2443 219.969 13.3535C220.192 13.4627 220.362 13.6112 220.48 13.7991C220.598 13.9869 220.657 14.2032 220.657 14.4479C220.657 14.7406 220.572 14.9721 220.401 15.1425C220.231 15.3085 220.004 15.4287 219.72 15.5029L219.733 15.385C220.083 15.4549 220.36 15.6034 220.565 15.8306C220.775 16.0534 220.88 16.3352 220.88 16.6759C220.88 16.9687 220.808 17.2177 220.664 17.423C220.524 17.6283 220.327 17.7856 220.074 17.8948C219.82 17.9997 219.526 18.0521 219.189 18.0521ZM219.189 17.6131C219.569 17.6131 219.868 17.5322 220.087 17.3706C220.305 17.2089 220.415 16.9687 220.415 16.6497C220.415 16.357 220.312 16.1211 220.107 15.942C219.906 15.7585 219.6 15.6668 219.189 15.6668C218.783 15.6668 218.477 15.7585 218.272 15.942C218.071 16.1211 217.97 16.357 217.97 16.6497C217.97 16.9687 218.077 17.2089 218.291 17.3706C218.51 17.5322 218.809 17.6131 219.189 17.6131ZM219.189 15.2539C219.499 15.2539 219.744 15.1862 219.923 15.0508C220.102 14.9109 220.192 14.7078 220.192 14.4413C220.192 14.1923 220.107 13.9957 219.936 13.8515C219.766 13.703 219.517 13.6287 219.189 13.6287C218.866 13.6287 218.619 13.703 218.449 13.8515C218.278 13.9957 218.193 14.1923 218.193 14.4413C218.193 14.7078 218.283 14.9109 218.462 15.0508C218.641 15.1862 218.883 15.2539 219.189 15.2539ZM223.594 18.0521C223.231 18.0521 222.93 17.9626 222.689 17.7834C222.453 17.5999 222.292 17.3662 222.204 17.0822L222.676 17.0429C222.733 17.222 222.838 17.3618 222.991 17.4623C223.148 17.5628 223.349 17.6131 223.594 17.6131C224.009 17.6131 224.328 17.4361 224.55 17.0822C224.773 16.724 224.885 16.1713 224.885 15.4243L225.009 15.4702C224.9 15.776 224.725 16.0141 224.485 16.1845C224.245 16.3548 223.965 16.44 223.646 16.44C223.345 16.44 223.078 16.3745 222.847 16.2434C222.619 16.108 222.438 15.9201 222.303 15.6799C222.172 15.4396 222.106 15.16 222.106 14.841C222.106 14.5047 222.174 14.2141 222.309 13.9695C222.449 13.7205 222.637 13.5282 222.873 13.3928C223.109 13.2574 223.382 13.1896 223.692 13.1896C224.068 13.1896 224.378 13.277 224.622 13.4518C224.867 13.6265 225.048 13.8712 225.166 14.1857C225.289 14.5003 225.35 14.8738 225.35 15.3063C225.35 15.6951 225.319 16.0578 225.258 16.3942C225.201 16.7262 225.103 17.0167 224.963 17.2657C224.828 17.5104 224.649 17.7026 224.426 17.8424C224.203 17.9822 223.926 18.0521 223.594 18.0521ZM223.672 16.001C223.899 16.001 224.1 15.9551 224.275 15.8633C224.454 15.7672 224.596 15.634 224.701 15.4636C224.806 15.2932 224.858 15.0923 224.858 14.8607C224.858 14.6248 224.81 14.4151 224.714 14.2316C224.618 14.0437 224.483 13.8974 224.308 13.7925C224.138 13.6833 223.932 13.6287 223.692 13.6287C223.465 13.6287 223.268 13.6811 223.102 13.786C222.936 13.8865 222.807 14.0285 222.716 14.2119C222.624 14.3954 222.578 14.6051 222.578 14.841C222.578 15.0726 222.624 15.2757 222.716 15.4505C222.807 15.6252 222.934 15.7607 223.096 15.8568C223.262 15.9529 223.454 16.001 223.672 16.001ZM226.471 17.9473V17.3116H227.094V17.9473H226.471ZM230.541 17.9473V16.8922H228.136V16.4925L230.515 13.2945H230.987V16.4597H231.57V16.8922H230.987V17.9473H230.541ZM228.687 16.4597H230.541V13.9891L228.687 16.4597ZM234.506 18.0521C234.165 18.0521 233.872 17.9757 233.628 17.8228C233.383 17.6698 233.193 17.4405 233.057 17.1347C232.926 16.8245 232.861 16.4422 232.861 15.9879C232.861 15.6034 232.894 15.243 232.959 14.9066C233.025 14.5658 233.127 14.2687 233.267 14.0153C233.407 13.7576 233.59 13.5566 233.818 13.4125C234.045 13.2639 234.324 13.1896 234.656 13.1896C235.058 13.1896 235.371 13.2901 235.593 13.4911C235.816 13.6921 235.976 13.9542 236.072 14.2775L235.607 14.3233C235.55 14.118 235.447 13.952 235.299 13.8253C235.154 13.6942 234.94 13.6287 234.656 13.6287C234.254 13.6287 233.933 13.8078 233.693 14.1661C233.457 14.5243 233.33 15.0726 233.313 15.8109L233.215 15.7847C233.263 15.6056 233.35 15.4439 233.477 15.2998C233.603 15.1556 233.759 15.042 233.942 14.959C234.13 14.8716 234.34 14.8279 234.571 14.8279C234.877 14.8279 235.146 14.8935 235.377 15.0245C235.609 15.1556 235.788 15.3391 235.915 15.575C236.041 15.8109 236.105 16.0883 236.105 16.4073C236.105 16.7437 236.037 17.0342 235.901 17.2788C235.766 17.5235 235.578 17.7135 235.338 17.849C235.098 17.9844 234.82 18.0521 234.506 18.0521ZM234.512 17.6131C234.844 17.6131 235.115 17.5082 235.325 17.2985C235.534 17.0844 235.639 16.7873 235.639 16.4073C235.639 16.1713 235.593 15.9682 235.502 15.7978C235.41 15.6231 235.281 15.4898 235.115 15.3981C234.953 15.302 234.763 15.2539 234.545 15.2539C234.322 15.2539 234.121 15.2998 233.942 15.3915C233.763 15.4833 233.621 15.6143 233.516 15.7847C233.411 15.9551 233.359 16.1561 233.359 16.3876C233.359 16.6235 233.405 16.8354 233.496 17.0233C233.588 17.2068 233.721 17.3509 233.896 17.4558C234.071 17.5606 234.276 17.6131 234.512 17.6131ZM237.354 17.9473V17.3116H237.977V17.9473H237.354ZM239.657 17.9473C239.657 17.4536 239.724 16.9577 239.86 16.4597C239.995 15.9616 240.187 15.4811 240.436 15.018C240.685 14.5549 240.98 14.1246 241.321 13.727H238.588V13.2945H241.813V13.6942C241.446 14.118 241.135 14.5549 240.882 15.0049C240.629 15.4549 240.436 15.9245 240.305 16.4138C240.179 16.8988 240.115 17.4099 240.115 17.9473H239.657ZM242.752 17.9473C242.752 17.6327 242.804 17.3487 242.909 17.0953C243.018 16.8376 243.199 16.5951 243.453 16.3679C243.71 16.1364 244.06 15.907 244.501 15.6799C244.737 15.5575 244.929 15.4439 245.078 15.3391C245.226 15.2299 245.336 15.1141 245.406 14.9918C245.475 14.8694 245.51 14.7209 245.51 14.5462C245.51 14.367 245.471 14.2098 245.392 14.0743C245.314 13.9345 245.198 13.8253 245.045 13.7467C244.892 13.668 244.702 13.6287 244.475 13.6287C244.126 13.6287 243.846 13.7226 243.636 13.9105C243.427 14.0984 243.295 14.3692 243.243 14.7231L242.778 14.6903C242.83 14.2316 243.005 13.8668 243.302 13.5959C243.599 13.3251 243.99 13.1896 244.475 13.1896C244.79 13.1896 245.058 13.2486 245.281 13.3666C245.508 13.4802 245.681 13.6374 245.799 13.8384C245.917 14.0394 245.976 14.2709 245.976 14.533C245.976 14.7733 245.932 14.9808 245.845 15.1556C245.762 15.326 245.624 15.4854 245.432 15.634C245.244 15.7782 244.993 15.9311 244.678 16.0927C244.233 16.3243 243.894 16.5645 243.662 16.8136C243.435 17.0626 243.313 17.2963 243.295 17.5148H245.976V17.9473H242.752Z" fill="#2E2E2E"/>
<g clip-path="url(#clip7_18_17388)">
<g clip-path="url(#clip8_18_17388)">
<rect x="250.17" y="11.7021" width="10.2979" height="7.48937" rx="0.936172" fill="#F93939"/>
<path fill-rule="evenodd" clip-rule="evenodd" d="M250.17 16.8516H260.936V19.192H250.17V16.8516Z" fill="#FFDA2C"/>
<path fill-rule="evenodd" clip-rule="evenodd" d="M250.17 11.7021H260.936V14.0426H250.17V11.7021Z" fill="#151515"/>
</g>
</g>
<g filter="url(#filter4_d_18_17388)">
<rect x="148.851" y="43.0635" width="69.2767" height="22.4681" rx="2.80851" fill="white"/>
<rect x="148.851" y="43.0635" width="69.2767" height="22.4681" rx="2.80851" stroke="#E0E0E0" stroke-width="0.528024" stroke-miterlimit="10"/>
</g>
<path d="M157.912 56.7979V53.2657H156.936V52.8856H157.303C157.478 52.8856 157.615 52.8637 157.716 52.8201C157.82 52.7764 157.895 52.7021 157.938 52.5972C157.982 52.488 158.004 52.3373 158.004 52.1451H158.358V56.7979H157.912ZM161.527 56.9027C161.165 56.9027 160.863 56.8131 160.623 56.634C160.387 56.4505 160.225 56.2168 160.138 55.9328L160.61 55.8935C160.666 56.0726 160.771 56.2124 160.924 56.3129C161.082 56.4134 161.282 56.4636 161.527 56.4636C161.942 56.4636 162.261 56.2867 162.484 55.9328C162.707 55.5746 162.818 55.0219 162.818 54.2749L162.943 54.3207C162.833 54.6266 162.659 54.8647 162.418 55.035C162.178 55.2054 161.898 55.2906 161.58 55.2906C161.278 55.2906 161.012 55.2251 160.78 55.094C160.553 54.9586 160.372 54.7707 160.236 54.5304C160.105 54.2902 160.04 54.0106 160.04 53.6916C160.04 53.3552 160.107 53.0647 160.243 52.8201C160.382 52.571 160.57 52.3788 160.806 52.2434C161.042 52.1079 161.315 52.0402 161.625 52.0402C162.001 52.0402 162.311 52.1276 162.556 52.3024C162.801 52.4771 162.982 52.7218 163.1 53.0363C163.222 53.3509 163.283 53.7244 163.283 54.1569C163.283 54.5457 163.253 54.9083 163.192 55.2447C163.135 55.5768 163.037 55.8673 162.897 56.1163C162.761 56.361 162.582 56.5532 162.359 56.693C162.137 56.8328 161.859 56.9027 161.527 56.9027ZM161.606 54.8516C161.833 54.8516 162.034 54.8057 162.209 54.7139C162.388 54.6178 162.53 54.4846 162.635 54.3142C162.739 54.1438 162.792 53.9428 162.792 53.7113C162.792 53.4754 162.744 53.2657 162.648 53.0822C162.552 52.8943 162.416 52.748 162.241 52.6431C162.071 52.5339 161.866 52.4793 161.625 52.4793C161.398 52.4793 161.202 52.5317 161.036 52.6366C160.87 52.7371 160.741 52.879 160.649 53.0625C160.557 53.246 160.511 53.4557 160.511 53.6916C160.511 53.9232 160.557 54.1263 160.649 54.3011C160.741 54.4758 160.867 54.6113 161.029 54.7074C161.195 54.8035 161.387 54.8516 161.606 54.8516ZM164.405 56.7979V56.1622H165.027V56.7979H164.405ZM167.783 56.9027C167.443 56.9027 167.15 56.8262 166.905 56.6733C166.661 56.5204 166.471 56.2911 166.335 55.9853C166.204 55.6751 166.138 55.2928 166.138 54.8384C166.138 54.454 166.171 54.0936 166.237 53.7572C166.302 53.4164 166.405 53.1193 166.545 52.8659C166.685 52.6082 166.868 52.4072 167.095 52.263C167.322 52.1145 167.602 52.0402 167.934 52.0402C168.336 52.0402 168.648 52.1407 168.871 52.3417C169.094 52.5426 169.253 52.8048 169.35 53.1281L168.884 53.1739C168.827 52.9686 168.725 52.8026 168.576 52.6759C168.432 52.5448 168.218 52.4793 167.934 52.4793C167.532 52.4793 167.211 52.6584 166.971 53.0167C166.735 53.3749 166.608 53.9232 166.591 54.6615L166.492 54.6353C166.54 54.4562 166.628 54.2945 166.754 54.1504C166.881 54.0062 167.036 53.8926 167.22 53.8096C167.408 53.7222 167.617 53.6785 167.849 53.6785C168.155 53.6785 168.423 53.7441 168.655 53.8751C168.886 54.0062 169.066 54.1897 169.192 54.4256C169.319 54.6615 169.382 54.9389 169.382 55.2578C169.382 55.5942 169.315 55.8848 169.179 56.1294C169.044 56.3741 168.856 56.5641 168.616 56.6996C168.375 56.835 168.098 56.9027 167.783 56.9027ZM167.79 56.4636C168.122 56.4636 168.393 56.3588 168.602 56.1491C168.812 55.935 168.917 55.6379 168.917 55.2578C168.917 55.0219 168.871 54.8188 168.779 54.6484C168.688 54.4736 168.559 54.3404 168.393 54.2487C168.231 54.1525 168.041 54.1045 167.823 54.1045C167.6 54.1045 167.399 54.1504 167.22 54.2421C167.041 54.3338 166.899 54.4649 166.794 54.6353C166.689 54.8057 166.637 55.0066 166.637 55.2382C166.637 55.4741 166.682 55.686 166.774 55.8739C166.866 56.0573 166.999 56.2015 167.174 56.3064C167.349 56.4112 167.554 56.4636 167.79 56.4636ZM172.303 56.9027C171.975 56.9027 171.682 56.8503 171.425 56.7454C171.171 56.6362 170.972 56.4789 170.828 56.2736C170.684 56.0683 170.612 55.8192 170.612 55.5265C170.612 55.1858 170.717 54.904 170.927 54.6812C171.141 54.454 171.42 54.3055 171.765 54.2355L171.778 54.3535C171.494 54.2792 171.265 54.1591 171.09 53.9931C170.92 53.8227 170.835 53.5912 170.835 53.2984C170.835 53.0538 170.894 52.8375 171.012 52.6497C171.134 52.4618 171.304 52.3133 171.523 52.2041C171.746 52.0948 172.006 52.0402 172.303 52.0402C172.604 52.0402 172.864 52.0948 173.083 52.2041C173.305 52.3133 173.476 52.4618 173.594 52.6497C173.712 52.8375 173.771 53.0538 173.771 53.2984C173.771 53.5912 173.685 53.8227 173.515 53.9931C173.345 54.1591 173.118 54.2792 172.834 54.3535L172.847 54.2355C173.196 54.3055 173.474 54.454 173.679 54.6812C173.889 54.904 173.993 55.1858 173.993 55.5265C173.993 55.8192 173.921 56.0683 173.777 56.2736C173.637 56.4789 173.441 56.6362 173.187 56.7454C172.934 56.8503 172.639 56.9027 172.303 56.9027ZM172.303 56.4636C172.683 56.4636 172.982 56.3828 173.201 56.2212C173.419 56.0595 173.528 55.8192 173.528 55.5003C173.528 55.2076 173.426 54.9717 173.22 54.7926C173.019 54.6091 172.713 54.5173 172.303 54.5173C171.896 54.5173 171.591 54.6091 171.385 54.7926C171.184 54.9717 171.084 55.2076 171.084 55.5003C171.084 55.8192 171.191 56.0595 171.405 56.2212C171.623 56.3828 171.923 56.4636 172.303 56.4636ZM172.303 54.1045C172.613 54.1045 172.858 54.0368 173.037 53.9013C173.216 53.7615 173.305 53.5584 173.305 53.2919C173.305 53.0429 173.22 52.8463 173.05 52.7021C172.879 52.5536 172.63 52.4793 172.303 52.4793C171.979 52.4793 171.733 52.5536 171.562 52.7021C171.392 52.8463 171.307 53.0429 171.307 53.2919C171.307 53.5584 171.396 53.7615 171.575 53.9013C171.754 54.0368 171.997 54.1045 172.303 54.1045ZM175.108 56.7979V56.1622H175.731V56.7979H175.108ZM179.178 56.7979V55.7428H176.773V55.343L179.152 52.1451H179.624V55.3103H180.207V55.7428H179.624V56.7979H179.178ZM177.324 55.3103H179.178V52.8397L177.324 55.3103ZM183.143 56.9027C182.802 56.9027 182.509 56.8262 182.264 56.6733C182.02 56.5204 181.83 56.2911 181.694 55.9853C181.563 55.6751 181.498 55.2928 181.498 54.8384C181.498 54.454 181.531 54.0936 181.596 53.7572C181.662 53.4164 181.764 53.1193 181.904 52.8659C182.044 52.6082 182.227 52.4072 182.455 52.263C182.682 52.1145 182.961 52.0402 183.293 52.0402C183.695 52.0402 184.008 52.1407 184.23 52.3417C184.453 52.5426 184.613 52.8048 184.709 53.1281L184.244 53.1739C184.187 52.9686 184.084 52.8026 183.936 52.6759C183.791 52.5448 183.577 52.4793 183.293 52.4793C182.891 52.4793 182.57 52.6584 182.33 53.0167C182.094 53.3749 181.967 53.9232 181.95 54.6615L181.852 54.6353C181.9 54.4562 181.987 54.2945 182.114 54.1504C182.24 54.0062 182.396 53.8926 182.579 53.8096C182.767 53.7222 182.977 53.6785 183.208 53.6785C183.514 53.6785 183.783 53.7441 184.014 53.8751C184.246 54.0062 184.425 54.1897 184.552 54.4256C184.678 54.6615 184.742 54.9389 184.742 55.2578C184.742 55.5942 184.674 55.8848 184.538 56.1294C184.403 56.3741 184.215 56.5641 183.975 56.6996C183.735 56.835 183.457 56.9027 183.143 56.9027ZM183.149 56.4636C183.481 56.4636 183.752 56.3588 183.962 56.1491C184.171 55.935 184.276 55.6379 184.276 55.2578C184.276 55.0219 184.23 54.8188 184.139 54.6484C184.047 54.4736 183.918 54.3404 183.752 54.2487C183.59 54.1525 183.4 54.1045 183.182 54.1045C182.959 54.1045 182.758 54.1504 182.579 54.2421C182.4 54.3338 182.258 54.4649 182.153 54.6353C182.048 54.8057 181.996 55.0066 181.996 55.2382C181.996 55.4741 182.042 55.686 182.133 55.8739C182.225 56.0573 182.358 56.2015 182.533 56.3064C182.708 56.4112 182.913 56.4636 183.149 56.4636ZM185.991 56.7979V56.1622H186.614V56.7979H185.991ZM188.294 56.7979C188.294 56.3042 188.361 55.8083 188.497 55.3103C188.632 54.8122 188.824 54.3317 189.073 53.8686C189.322 53.4055 189.617 52.9752 189.958 52.5776H187.225V52.1451H190.45V52.5448C190.083 52.9686 189.772 53.4055 189.519 53.8555C189.266 54.3055 189.073 54.7751 188.942 55.2644C188.816 55.7493 188.752 56.2605 188.752 56.7979H188.294ZM191.389 56.7979C191.389 56.4833 191.441 56.1993 191.546 55.9459C191.655 55.6882 191.836 55.4457 192.09 55.2185C192.347 54.987 192.697 54.7576 193.138 54.5304C193.374 54.4081 193.566 54.2945 193.715 54.1897C193.863 54.0805 193.973 53.9647 194.043 53.8424C194.112 53.72 194.147 53.5715 194.147 53.3967C194.147 53.2176 194.108 53.0603 194.029 52.9249C193.951 52.7851 193.835 52.6759 193.682 52.5972C193.529 52.5186 193.339 52.4793 193.112 52.4793C192.763 52.4793 192.483 52.5732 192.273 52.7611C192.064 52.9489 191.932 53.2198 191.88 53.5737L191.415 53.5409C191.467 53.0822 191.642 52.7174 191.939 52.4465C192.236 52.1757 192.627 52.0402 193.112 52.0402C193.427 52.0402 193.695 52.0992 193.918 52.2172C194.145 52.3308 194.318 52.488 194.436 52.689C194.554 52.89 194.613 53.1215 194.613 53.3836C194.613 53.6239 194.569 53.8314 194.482 54.0062C194.399 54.1766 194.261 54.336 194.069 54.4846C193.881 54.6287 193.63 54.7816 193.315 54.9433C192.87 55.1748 192.531 55.4151 192.299 55.6641C192.072 55.9132 191.95 56.1469 191.932 56.3653H194.613V56.7979H191.389Z" fill="#2E2E2E"/>
<g clip-path="url(#clip9_18_17388)">
<rect x="199.085" y="50.5527" width="10.2979" height="7.48937" rx="0.936172" fill="#F93939"/>
<path fill-rule="evenodd" clip-rule="evenodd" d="M205.951 54.8725L205.381 55.1771L205.49 54.5315L205.029 54.0736L205.667 53.9788L205.951 53.3916L206.236 53.9793L206.873 54.0741L206.412 54.531L206.521 55.1766" fill="white"/>
<path fill-rule="evenodd" clip-rule="evenodd" d="M203.744 56.0448C204.692 56.0448 205.46 55.2625 205.46 54.2973C205.46 53.3322 204.692 52.5498 203.744 52.5498C202.796 52.5498 202.027 53.3322 202.027 54.2973C202.027 55.2625 202.796 56.0448 203.744 56.0448ZM204.234 55.5456C204.911 55.5456 205.46 54.9863 205.46 54.2973C205.46 53.6083 204.911 53.0491 204.234 53.0491C203.557 53.0491 203.008 53.6083 203.008 54.2973C203.008 54.9863 203.557 55.5456 204.234 55.5456Z" fill="white"/>
</g>
<path d="M208.426 32.2132L208.228 33.802L211.605 35.9868V37.5757L214.983 35.9868V34.1993L211.605 32.4118L211.407 31.0215L208.426 32.2132Z" fill="white"/>
<path fill-rule="evenodd" clip-rule="evenodd" d="M211.314 31.1407L208.767 32.3765L211.314 33.7707V31.1407ZM211.314 34.4421L208.418 32.8574V33.9362L211.314 35.4309V34.4421ZM211.314 36.0937L208.035 34.4011C207.909 34.3361 207.83 34.2062 207.83 34.0645V32.1761L211.359 30.4641C211.611 30.3423 211.902 30.5255 211.902 30.805V32.1808L215.114 33.8302C215.24 33.895 215.319 34.0251 215.319 34.1672V35.8628C215.319 36.0047 215.24 36.1347 215.114 36.1996L211.865 37.8727C211.614 38.0024 211.314 37.8193 211.314 37.5359V36.0937ZM211.902 32.8429V37.1911L214.731 35.7344V34.2957L211.902 32.8429Z" fill="#E0E0E0"/>
<path d="M176.597 70.5964L176.398 72.1859L179.776 74.3714V75.9609L183.153 74.3714V72.5833L179.776 70.7951L179.577 69.4043L176.597 70.5964Z" fill="white"/>
<path fill-rule="evenodd" clip-rule="evenodd" d="M179.484 69.5238L176.936 70.76L179.484 72.1548V69.5238ZM179.484 72.8264L176.588 71.2411V72.3203L179.484 73.8155V72.8264ZM179.484 74.4786L176.205 72.7854C176.079 72.7204 176 72.5904 176 72.4486V70.5596L179.529 68.847C179.78 68.7251 180.072 68.9084 180.072 69.1879V70.5642L183.284 72.2143C183.41 72.2791 183.489 72.4093 183.489 72.5514V74.2476C183.489 74.3896 183.41 74.5196 183.284 74.5845L180.035 76.2583C179.784 76.388 179.484 76.2049 179.484 75.9214V74.4786ZM180.072 71.2266V75.5764L182.901 74.1192V72.68L180.072 71.2266Z" fill="#E0E0E0"/>
</g>
<path d="M124.639 106.638L124.44 108.227L127.818 110.412V112L131.195 110.412V108.624L127.818 106.837L127.619 105.446L124.639 106.638Z" fill="white"/>
<path fill-rule="evenodd" clip-rule="evenodd" d="M127.527 105.566L124.979 106.801L127.527 108.196V105.566ZM127.527 108.867L124.631 107.282V108.361L127.527 109.856V108.867ZM127.527 110.518L124.247 108.826C124.122 108.761 124.042 108.631 124.042 108.489V106.601L127.572 104.889C127.823 104.767 128.115 104.95 128.115 105.23V106.606L131.326 108.255C131.452 108.32 131.532 108.45 131.532 108.592V110.288C131.532 110.429 131.453 110.559 131.327 110.624L128.078 112.298C127.826 112.427 127.527 112.244 127.527 111.961V110.518ZM128.115 107.268V111.616L130.943 110.159V108.721L128.115 107.268Z" fill="#E0E0E0"/>
<path d="M271.15 106.638L270.951 108.227L274.329 110.412V112L277.706 110.412V108.624L274.329 106.837L274.13 105.446L271.15 106.638Z" fill="white"/>
<path fill-rule="evenodd" clip-rule="evenodd" d="M274.038 105.566L271.49 106.801L274.038 108.196V105.566ZM274.038 108.867L271.142 107.282V108.361L274.038 109.856V108.867ZM274.038 110.518L270.759 108.826C270.633 108.761 270.554 108.631 270.554 108.489V106.601L274.083 104.889C274.334 104.767 274.626 104.95 274.626 105.23V106.606L277.837 108.255C277.964 108.32 278.043 108.45 278.043 108.592V110.288C278.043 110.429 277.964 110.559 277.838 110.624L274.589 112.298C274.337 112.427 274.038 112.244 274.038 111.961V110.518ZM274.626 107.268V111.616L277.455 110.159V108.721L274.626 107.268Z" fill="#E0E0E0"/>
<path d="M89.5322 32.2132L89.3335 33.802L92.7111 35.9868V37.5757L96.0888 35.9868V34.1993L92.7111 32.4118L92.5125 31.0215L89.5322 32.2132Z" fill="white"/>
<path fill-rule="evenodd" clip-rule="evenodd" d="M92.4201 31.1407L89.8725 32.3765L92.4201 33.7707V31.1407ZM92.4201 34.4421L89.5244 32.8574V33.9362L92.4201 35.4309V34.4421ZM92.4201 36.0937L89.141 34.4011C89.0151 34.3361 88.936 34.2062 88.936 34.0645V32.1761L92.4653 30.4641C92.7165 30.3423 93.0085 30.5255 93.0085 30.805V32.1808L96.2198 33.8302C96.346 33.895 96.4254 34.0251 96.4254 34.1672V35.8628C96.4254 36.0047 96.3462 36.1347 96.2202 36.1996L92.9713 37.8727C92.7196 38.0024 92.4201 37.8193 92.4201 37.5359V36.0937ZM93.0085 32.8429V37.1911L95.837 35.7344V34.2957L93.0085 32.8429Z" fill="#E0E0E0"/>
<path d="M74.5542 141.278L74.3555 142.868L77.7331 145.053V146.643L81.1108 145.053V143.265L77.7331 141.477L77.5344 140.086L74.5542 141.278Z" fill="white"/>
<path fill-rule="evenodd" clip-rule="evenodd" d="M77.4416 140.204L74.8939 141.441L77.4416 142.835V140.204ZM77.4416 143.507L74.5459 141.922V143.001L77.4416 144.496V143.507ZM77.4416 145.159L74.1624 143.466C74.0366 143.401 73.9575 143.271 73.9575 143.129V141.24L77.4868 139.528C77.738 139.406 78.0299 139.589 78.0299 139.869V141.245L81.2413 142.895C81.3675 142.96 81.4469 143.09 81.4469 143.232V144.928C81.4469 145.07 81.3677 145.2 81.2417 145.265L77.9928 146.939C77.7411 147.069 77.4416 146.886 77.4416 146.602V145.159ZM78.0299 141.907V146.257L80.8585 144.8V143.361L78.0299 141.907Z" fill="#E0E0E0"/>
<path d="M293.15 70.5964L292.952 72.1859L296.329 74.3714V75.9609L299.707 74.3714V72.5833L296.329 70.7951L296.131 69.4043L293.15 70.5964Z" fill="white"/>
<path fill-rule="evenodd" clip-rule="evenodd" d="M296.038 69.5238L293.49 70.76L296.038 72.1548V69.5238ZM296.038 72.8264L293.142 71.2411V72.3203L296.038 73.8155V72.8264ZM296.038 74.4786L292.759 72.7854C292.633 72.7204 292.554 72.5904 292.554 72.4486V70.5596L296.083 68.847C296.334 68.7251 296.626 68.9084 296.626 69.1879V70.5642L299.837 72.2143C299.964 72.2791 300.043 72.4093 300.043 72.5514V74.2476C300.043 74.3896 299.964 74.5196 299.838 74.5845L296.589 76.2583C296.337 76.388 296.038 76.2049 296.038 75.9214V74.4786ZM296.626 71.2266V75.5764L299.455 74.1192V72.68L296.626 71.2266Z" fill="#E0E0E0"/>
<g filter="url(#filter5_d_18_17388)">
<rect x="261.66" y="42.5957" width="69.2767" height="22.4681" rx="2.80851" fill="white"/>
<rect x="261.66" y="42.5957" width="69.2767" height="22.4681" rx="2.80851" stroke="#E0E0E0" stroke-width="0.528024" stroke-miterlimit="10"/>
</g>
<path d="M269.598 56.3301C269.598 56.0155 269.651 55.7316 269.756 55.4782C269.865 55.2204 270.046 54.9779 270.3 54.7508C270.557 54.5192 270.907 54.2898 271.348 54.0627C271.584 53.9403 271.776 53.8268 271.925 53.7219C272.073 53.6127 272.183 53.4969 272.252 53.3746C272.322 53.2523 272.357 53.1037 272.357 52.929C272.357 52.7498 272.318 52.5926 272.239 52.4571C272.161 52.3173 272.045 52.2081 271.892 52.1295C271.739 52.0508 271.549 52.0115 271.322 52.0115C270.972 52.0115 270.693 52.1054 270.483 52.2933C270.273 52.4812 270.142 52.752 270.09 53.1059L269.625 53.0731C269.677 52.6144 269.852 52.2496 270.149 51.9788C270.446 51.7079 270.837 51.5725 271.322 51.5725C271.636 51.5725 271.905 51.6314 272.128 51.7494C272.355 51.863 272.528 52.0203 272.646 52.2212C272.764 52.4222 272.823 52.6537 272.823 52.9159C272.823 53.1561 272.779 53.3637 272.692 53.5384C272.609 53.7088 272.471 53.8683 272.279 54.0168C272.091 54.161 271.84 54.3139 271.525 54.4755C271.079 54.7071 270.741 54.9474 270.509 55.1964C270.282 55.4454 270.16 55.6791 270.142 55.8976H272.823V56.3301H269.598ZM275.628 56.4349C275.13 56.4349 274.739 56.317 274.455 56.0811C274.176 55.8408 274.023 55.5306 273.997 55.1505L274.455 55.1177C274.486 55.4148 274.606 55.6354 274.816 55.7796C275.03 55.9238 275.301 55.9959 275.628 55.9959C275.856 55.9959 276.059 55.9631 276.238 55.8976C276.421 55.8277 276.568 55.7228 276.677 55.583C276.786 55.4388 276.841 55.2554 276.841 55.0325C276.841 54.7136 276.729 54.4733 276.507 54.3117C276.284 54.1457 275.989 54.0627 275.622 54.0627H275.229V53.6302H275.622C275.936 53.6302 276.19 53.5668 276.382 53.4401C276.579 53.3091 276.677 53.1059 276.677 52.8307C276.677 52.5685 276.59 52.3676 276.415 52.2278C276.24 52.0836 275.989 52.0115 275.661 52.0115C275.351 52.0115 275.106 52.0771 274.927 52.2081C274.752 52.3348 274.648 52.5117 274.613 52.7389L274.141 52.7062C274.193 52.3654 274.348 52.0923 274.606 51.887C274.868 51.6773 275.22 51.5725 275.661 51.5725C275.963 51.5725 276.225 51.6227 276.448 51.7232C276.67 51.8237 276.843 51.9678 276.965 52.1557C277.088 52.3392 277.149 52.5576 277.149 52.811C277.149 53.1037 277.053 53.3418 276.86 53.5253C276.668 53.7044 276.391 53.8246 276.028 53.8857V53.7678C276.421 53.8158 276.732 53.9556 276.959 54.1872C277.19 54.4144 277.306 54.6983 277.306 55.0391C277.306 55.3274 277.234 55.5765 277.09 55.7862C276.95 55.9959 276.753 56.1575 276.5 56.2711C276.247 56.3803 275.956 56.4349 275.628 56.4349ZM278.491 56.3301V55.6944H279.114V56.3301H278.491ZM281.913 56.4349C281.585 56.4349 281.292 56.3825 281.035 56.2777C280.781 56.1684 280.582 56.0112 280.438 55.8058C280.294 55.6005 280.222 55.3515 280.222 55.0588C280.222 54.718 280.327 54.4362 280.537 54.2134C280.751 53.9862 281.03 53.8377 281.375 53.7678L281.389 53.8857C281.105 53.8115 280.875 53.6913 280.7 53.5253C280.53 53.3549 280.445 53.1234 280.445 52.8307C280.445 52.586 280.504 52.3698 280.622 52.1819C280.744 51.994 280.915 51.8455 281.133 51.7363C281.356 51.6271 281.616 51.5725 281.913 51.5725C282.214 51.5725 282.474 51.6271 282.693 51.7363C282.915 51.8455 283.086 51.994 283.204 52.1819C283.322 52.3698 283.381 52.586 283.381 52.8307C283.381 53.1234 283.296 53.3549 283.125 53.5253C282.955 53.6913 282.728 53.8115 282.444 53.8857L282.457 53.7678C282.806 53.8377 283.084 53.9862 283.289 54.2134C283.499 54.4362 283.604 54.718 283.604 55.0588C283.604 55.3515 283.531 55.6005 283.387 55.8058C283.247 56.0112 283.051 56.1684 282.797 56.2777C282.544 56.3825 282.249 56.4349 281.913 56.4349ZM281.913 55.9959C282.293 55.9959 282.592 55.915 282.811 55.7534C283.029 55.5918 283.138 55.3515 283.138 55.0325C283.138 54.7398 283.036 54.5039 282.83 54.3248C282.629 54.1413 282.323 54.0496 281.913 54.0496C281.506 54.0496 281.201 54.1413 280.995 54.3248C280.794 54.5039 280.694 54.7398 280.694 55.0325C280.694 55.3515 280.801 55.5918 281.015 55.7534C281.233 55.915 281.533 55.9959 281.913 55.9959ZM281.913 53.6367C282.223 53.6367 282.468 53.569 282.647 53.4336C282.826 53.2938 282.915 53.0906 282.915 52.8241C282.915 52.5751 282.83 52.3785 282.66 52.2343C282.489 52.0858 282.24 52.0115 281.913 52.0115C281.589 52.0115 281.343 52.0858 281.172 52.2343C281.002 52.3785 280.917 52.5751 280.917 52.8241C280.917 53.0906 281.006 53.2938 281.185 53.4336C281.364 53.569 281.607 53.6367 281.913 53.6367ZM286.317 56.4349C285.955 56.4349 285.653 56.3454 285.413 56.1662C285.177 55.9828 285.015 55.749 284.928 55.4651L285.4 55.4257C285.457 55.6049 285.561 55.7447 285.714 55.8451C285.872 55.9456 286.073 55.9959 286.317 55.9959C286.732 55.9959 287.051 55.8189 287.274 55.4651C287.497 55.1068 287.608 54.5542 287.608 53.8071L287.733 53.853C287.624 54.1588 287.449 54.3969 287.209 54.5673C286.968 54.7377 286.689 54.8228 286.37 54.8228C286.068 54.8228 285.802 54.7573 285.57 54.6262C285.343 54.4908 285.162 54.303 285.026 54.0627C284.895 53.8224 284.83 53.5428 284.83 53.2239C284.83 52.8875 284.897 52.5969 285.033 52.3523C285.173 52.1033 285.361 51.911 285.596 51.7756C285.832 51.6402 286.105 51.5725 286.416 51.5725C286.791 51.5725 287.101 51.6598 287.346 51.8346C287.591 52.0093 287.772 52.254 287.89 52.5685C288.012 52.8831 288.074 53.2566 288.074 53.6891C288.074 54.078 288.043 54.4406 287.982 54.777C287.925 55.109 287.827 55.3995 287.687 55.6485C287.551 55.8932 287.372 56.0854 287.15 56.2252C286.927 56.365 286.649 56.4349 286.317 56.4349ZM286.396 54.3838C286.623 54.3838 286.824 54.3379 286.999 54.2462C287.178 54.15 287.32 54.0168 287.425 53.8464C287.53 53.676 287.582 53.4751 287.582 53.2435C287.582 53.0076 287.534 52.7979 287.438 52.6144C287.342 52.4266 287.206 52.2802 287.032 52.1753C286.861 52.0661 286.656 52.0115 286.416 52.0115C286.188 52.0115 285.992 52.0639 285.826 52.1688C285.66 52.2693 285.531 52.4113 285.439 52.5948C285.347 52.7782 285.302 52.9879 285.302 53.2239C285.302 53.4554 285.347 53.6586 285.439 53.8333C285.531 54.0081 285.658 54.1435 285.819 54.2396C285.985 54.3357 286.177 54.3838 286.396 54.3838ZM289.195 56.3301V55.6944H289.817V56.3301H289.195ZM293.265 56.3301V55.275H290.86V54.8753L293.239 51.6773H293.711V54.8425H294.294V55.275H293.711V56.3301H293.265ZM291.411 54.8425H293.265V52.3719L291.411 54.8425ZM297.229 56.4349C296.888 56.4349 296.596 56.3585 296.351 56.2056C296.106 56.0527 295.916 55.8233 295.781 55.5175C295.65 55.2073 295.584 54.825 295.584 54.3707C295.584 53.9862 295.617 53.6258 295.683 53.2894C295.748 52.9486 295.851 52.6515 295.991 52.3982C296.131 52.1404 296.314 51.9394 296.541 51.7953C296.768 51.6467 297.048 51.5725 297.38 51.5725C297.782 51.5725 298.094 51.6729 298.317 51.8739C298.54 52.0749 298.699 52.337 298.795 52.6603L298.33 52.7062C298.273 52.5008 298.171 52.3348 298.022 52.2081C297.878 52.0771 297.664 52.0115 297.38 52.0115C296.978 52.0115 296.657 52.1906 296.417 52.5489C296.181 52.9071 296.054 53.4554 296.037 54.1937L295.938 54.1675C295.986 53.9884 296.074 53.8268 296.2 53.6826C296.327 53.5384 296.482 53.4248 296.666 53.3418C296.854 53.2544 297.063 53.2108 297.295 53.2108C297.601 53.2108 297.869 53.2763 298.101 53.4074C298.332 53.5384 298.512 53.7219 298.638 53.9578C298.765 54.1937 298.828 54.4712 298.828 54.7901C298.828 55.1265 298.761 55.417 298.625 55.6617C298.49 55.9063 298.302 56.0963 298.062 56.2318C297.821 56.3672 297.544 56.4349 297.229 56.4349ZM297.236 55.9959C297.568 55.9959 297.839 55.891 298.048 55.6813C298.258 55.4672 298.363 55.1702 298.363 54.7901C298.363 54.5542 298.317 54.351 298.225 54.1806C298.134 54.0059 298.005 53.8726 297.839 53.7809C297.677 53.6848 297.487 53.6367 297.269 53.6367C297.046 53.6367 296.845 53.6826 296.666 53.7743C296.487 53.8661 296.345 53.9971 296.24 54.1675C296.135 54.3379 296.082 54.5389 296.082 54.7704C296.082 55.0063 296.128 55.2182 296.22 55.4061C296.312 55.5896 296.445 55.7337 296.62 55.8386C296.795 55.9434 297 55.9959 297.236 55.9959ZM300.078 56.3301V55.6944H300.7V56.3301H300.078ZM302.38 56.3301C302.38 55.8364 302.448 55.3405 302.583 54.8425C302.719 54.3445 302.911 53.8639 303.16 53.4008C303.409 52.9377 303.704 52.5074 304.045 52.1098H301.312V51.6773H304.536V52.0771C304.169 52.5008 303.859 52.9377 303.606 53.3877C303.352 53.8377 303.16 54.3073 303.029 54.7966C302.902 55.2816 302.839 55.7927 302.839 56.3301H302.38ZM305.475 56.3301C305.475 56.0155 305.528 55.7316 305.632 55.4782C305.742 55.2204 305.923 54.9779 306.176 54.7508C306.434 54.5192 306.784 54.2898 307.225 54.0627C307.461 53.9403 307.653 53.8268 307.802 53.7219C307.95 53.6127 308.059 53.4969 308.129 53.3746C308.199 53.2523 308.234 53.1037 308.234 52.929C308.234 52.7498 308.195 52.5926 308.116 52.4571C308.037 52.3173 307.922 52.2081 307.769 52.1295C307.616 52.0508 307.426 52.0115 307.199 52.0115C306.849 52.0115 306.57 52.1054 306.36 52.2933C306.15 52.4812 306.019 52.752 305.967 53.1059L305.501 53.0731C305.554 52.6144 305.729 52.2496 306.026 51.9788C306.323 51.7079 306.714 51.5725 307.199 51.5725C307.513 51.5725 307.782 51.6314 308.005 51.7494C308.232 51.863 308.404 52.0203 308.522 52.2212C308.64 52.4222 308.699 52.6537 308.699 52.9159C308.699 53.1561 308.656 53.3637 308.568 53.5384C308.485 53.7088 308.348 53.8683 308.155 54.0168C307.968 54.161 307.716 54.3139 307.402 54.4755C306.956 54.7071 306.618 54.9474 306.386 55.1964C306.159 55.4454 306.037 55.6791 306.019 55.8976H308.699V56.3301H305.475Z" fill="#2E2E2E"/>
<g clip-path="url(#clip10_18_17388)">
<rect x="312.894" y="50.085" width="10.2979" height="7.48937" rx="0.936172" fill="#249F58"/>
<path fill-rule="evenodd" clip-rule="evenodd" d="M318.043 51.084L321.721 53.8301L318.043 56.5762L314.365 53.8301" fill="#FFDA2C"/>
<path d="M318.043 55.5771C318.991 55.5771 319.759 54.7947 319.759 53.8296C319.759 52.8644 318.991 52.082 318.043 52.082C317.095 52.082 316.327 52.8644 316.327 53.8296C316.327 54.7947 317.095 55.5771 318.043 55.5771Z" fill="#1A47B8"/>
<path fill-rule="evenodd" clip-rule="evenodd" d="M317.308 54.5781V55.0774H317.798V54.5781H317.308ZM318.288 54.5781V55.0774H318.779V54.5781H318.288Z" fill="white"/>
<path fill-rule="evenodd" clip-rule="evenodd" d="M316.817 53.0811C316.817 53.0811 317.927 53.2808 318.727 53.6293L319.759 54.0796" fill="white"/>
<path d="M316.817 53.0811C316.817 53.0811 317.927 53.2808 318.727 53.6293L319.759 54.0796" stroke="white" stroke-width="0.468086"/>
</g>
<defs>
<filter id="filter0_d_18_17388" x="49.1733" y="96.5104" width="72.9728" height="26.1642" filterUnits="userSpaceOnUse" color-interpolation-filters="sRGB">
<feFlood flood-opacity="0" result="BackgroundImageFix"/>
<feColorMatrix in="SourceAlpha" type="matrix" values="0 0 0 0 0 0 0 0 0 0 0 0 0 0 0 0 0 0 127 0" result="hardAlpha"/>
<feOffset dy="0.528024"/>
<feGaussianBlur stdDeviation="0.792035"/>
<feComposite in2="hardAlpha" operator="out"/>
<feColorMatrix type="matrix" values="0 0 0 0 0.180392 0 0 0 0 0.180392 0 0 0 0 0.180392 0 0 0 0.06 0"/>
<feBlend mode="normal" in2="BackgroundImageFix" result="effect1_dropShadow_18_17388"/>
<feBlend mode="normal" in="SourceGraphic" in2="effect1_dropShadow_18_17388" result="shape"/>
</filter>
<filter id="filter1_d_18_17388" x="56.1942" y="2.89317" width="72.9728" height="26.1642" filterUnits="userSpaceOnUse" color-interpolation-filters="sRGB">
<feFlood flood-opacity="0" result="BackgroundImageFix"/>
<feColorMatrix in="SourceAlpha" type="matrix" values="0 0 0 0 0 0 0 0 0 0 0 0 0 0 0 0 0 0 127 0" result="hardAlpha"/>
<feOffset dy="0.528024"/>
<feGaussianBlur stdDeviation="0.792035"/>
<feComposite in2="hardAlpha" operator="out"/>
<feColorMatrix type="matrix" values="0 0 0 0 0.180392 0 0 0 0 0.180392 0 0 0 0 0.180392 0 0 0 0.06 0"/>
<feBlend mode="normal" in2="BackgroundImageFix" result="effect1_dropShadow_18_17388"/>
<feBlend mode="normal" in="SourceGraphic" in2="effect1_dropShadow_18_17388" result="shape"/>
</filter>
<filter id="filter2_d_18_17388" x="238.28" y="114.765" width="72.9728" height="26.1642" filterUnits="userSpaceOnUse" color-interpolation-filters="sRGB">
<feFlood flood-opacity="0" result="BackgroundImageFix"/>
<feColorMatrix in="SourceAlpha" type="matrix" values="0 0 0 0 0 0 0 0 0 0 0 0 0 0 0 0 0 0 127 0" result="hardAlpha"/>
<feOffset dy="0.528024"/>
<feGaussianBlur stdDeviation="0.792035"/>
<feComposite in2="hardAlpha" operator="out"/>
<feColorMatrix type="matrix" values="0 0 0 0 0.180392 0 0 0 0 0.180392 0 0 0 0 0.180392 0 0 0 0.06 0"/>
<feBlend mode="normal" in2="BackgroundImageFix" result="effect1_dropShadow_18_17388"/>
<feBlend mode="normal" in="SourceGraphic" in2="effect1_dropShadow_18_17388" result="shape"/>
</filter>
<filter id="filter3_d_18_17388" x="197.088" y="2.89317" width="72.9728" height="26.1642" filterUnits="userSpaceOnUse" color-interpolation-filters="sRGB">
<feFlood flood-opacity="0" result="BackgroundImageFix"/>
<feColorMatrix in="SourceAlpha" type="matrix" values="0 0 0 0 0 0 0 0 0 0 0 0 0 0 0 0 0 0 127 0" result="hardAlpha"/>
<feOffset dy="0.528024"/>
<feGaussianBlur stdDeviation="0.792035"/>
<feComposite in2="hardAlpha" operator="out"/>
<feColorMatrix type="matrix" values="0 0 0 0 0.180392 0 0 0 0 0.180392 0 0 0 0 0.180392 0 0 0 0.06 0"/>
<feBlend mode="normal" in2="BackgroundImageFix" result="effect1_dropShadow_18_17388"/>
<feBlend mode="normal" in="SourceGraphic" in2="effect1_dropShadow_18_17388" result="shape"/>
</filter>
<filter id="filter4_d_18_17388" x="147.003" y="41.7438" width="72.9728" height="26.1642" filterUnits="userSpaceOnUse" color-interpolation-filters="sRGB">
<feFlood flood-opacity="0" result="BackgroundImageFix"/>
<feColorMatrix in="SourceAlpha" type="matrix" values="0 0 0 0 0 0 0 0 0 0 0 0 0 0 0 0 0 0 127 0" result="hardAlpha"/>
<feOffset dy="0.528024"/>
<feGaussianBlur stdDeviation="0.792035"/>
<feComposite in2="hardAlpha" operator="out"/>
<feColorMatrix type="matrix" values="0 0 0 0 0.180392 0 0 0 0 0.180392 0 0 0 0 0.180392 0 0 0 0.06 0"/>
<feBlend mode="normal" in2="BackgroundImageFix" result="effect1_dropShadow_18_17388"/>
<feBlend mode="normal" in="SourceGraphic" in2="effect1_dropShadow_18_17388" result="shape"/>
</filter>
<filter id="filter5_d_18_17388" x="259.812" y="41.276" width="72.9728" height="26.1642" filterUnits="userSpaceOnUse" color-interpolation-filters="sRGB">
<feFlood flood-opacity="0" result="BackgroundImageFix"/>
<feColorMatrix in="SourceAlpha" type="matrix" values="0 0 0 0 0 0 0 0 0 0 0 0 0 0 0 0 0 0 127 0" result="hardAlpha"/>
<feOffset dy="0.528024"/>
<feGaussianBlur stdDeviation="0.792035"/>
<feComposite in2="hardAlpha" operator="out"/>
<feColorMatrix type="matrix" values="0 0 0 0 0.180392 0 0 0 0 0.180392 0 0 0 0 0.180392 0 0 0 0.06 0"/>
<feBlend mode="normal" in2="BackgroundImageFix" result="effect1_dropShadow_18_17388"/>
<feBlend mode="normal" in="SourceGraphic" in2="effect1_dropShadow_18_17388" result="shape"/>
</filter>
<linearGradient id="paint0_linear_18_17388" x1="207.204" y1="111.818" x2="228.314" y2="-0.305098" gradientUnits="userSpaceOnUse">
<stop stop-color="#F9D94A" stop-opacity="0.1"/>
<stop offset="0.5" stop-color="#F9D94A"/>
<stop offset="1" stop-color="#F9D94A" stop-opacity="0"/>
</linearGradient>
<linearGradient id="paint1_linear_18_17388" x1="143" y1="111.872" x2="179.277" y2="8.42515" gradientUnits="userSpaceOnUse">
<stop stop-color="#F9D94A" stop-opacity="0.1"/>
<stop offset="0.5" stop-color="#F9D94A"/>
<stop offset="1" stop-color="#F9D94A" stop-opacity="0"/>
</linearGradient>
<linearGradient id="paint2_linear_18_17388" x1="58.9326" y1="111.037" x2="78.0146" y2="36.5054" gradientUnits="userSpaceOnUse">
<stop stop-color="#F9D94A" stop-opacity="0.1"/>
<stop offset="0.5" stop-color="#F9D94A"/>
<stop offset="1" stop-color="#F9D94A" stop-opacity="0"/>
</linearGradient>
<linearGradient id="paint3_linear_18_17388" x1="304.119" y1="179.524" x2="353.977" y2="97.6603" gradientUnits="userSpaceOnUse">
<stop stop-color="#F9D94A" stop-opacity="0.1"/>
<stop offset="0.5" stop-color="#F9D94A"/>
<stop offset="1" stop-color="#F9D94A" stop-opacity="0"/>
</linearGradient>
<clipPath id="clip0_18_17388">
<rect width="358" height="173.192" fill="white"/>
</clipPath>
<clipPath id="clip1_18_17388">
<rect width="10.2979" height="7.48937" fill="white" transform="translate(100.255 105.319)"/>
</clipPath>
<clipPath id="clip2_18_17388">
<rect x="100.255" y="105.319" width="10.2979" height="7.48937" rx="0.936172" fill="white"/>
</clipPath>
<clipPath id="clip3_18_17388">
<rect width="10.2979" height="7.48937" fill="white" transform="translate(107.276 11.7021)"/>
</clipPath>
<clipPath id="clip4_18_17388">
<rect x="107.276" y="11.7021" width="10.2979" height="7.48937" rx="0.936172" fill="white"/>
</clipPath>
<clipPath id="clip5_18_17388">
<rect width="10.2979" height="7.48937" fill="white" transform="translate(289.362 123.574)"/>
</clipPath>
<clipPath id="clip6_18_17388">
<rect x="289.362" y="123.574" width="10.2979" height="7.48937" rx="0.936172" fill="white"/>
</clipPath>
<clipPath id="clip7_18_17388">
<rect width="10.2979" height="7.48937" fill="white" transform="translate(250.17 11.7021)"/>
</clipPath>
<clipPath id="clip8_18_17388">
<rect x="250.17" y="11.7021" width="10.2979" height="7.48937" rx="0.936172" fill="white"/>
</clipPath>
<clipPath id="clip9_18_17388">
<rect width="10.2979" height="7.48937" fill="white" transform="translate(199.085 50.5527)"/>
</clipPath>
<clipPath id="clip10_18_17388">
<rect width="10.2979" height="7.48937" fill="white" transform="translate(312.894 50.085)"/>
</clipPath>
</defs>
</svg>
