<svg width="24" height="24" viewBox="0 0 24 24" fill="none" xmlns="http://www.w3.org/2000/svg">
<path d="M18.1394 21.6198C17.2594 21.8798 16.2194 21.9998 14.9994 21.9998H8.99937C7.77937 21.9998 6.73937 21.8798 5.85938 21.6198C6.07937 19.0198 8.74937 16.9697 11.9994 16.9697C15.2494 16.9697 17.9194 19.0198 18.1394 21.6198Z" stroke="#2E2E2E" stroke-width="1.5" stroke-linecap="round" stroke-linejoin="round"/>
<path d="M15.001 2H9.00098C4.00098 2 2.00098 4 2.00098 9V15C2.00098 18.78 3.14098 20.85 5.86098 21.62C6.08098 19.02 8.75098 16.97 12.001 16.97C15.251 16.97 17.921 19.02 18.141 21.62C20.861 20.85 22.001 18.78 22.001 15V9C22.001 4 20.001 2 15.001 2ZM12.001 14.17C10.021 14.17 8.42097 12.56 8.42097 10.58C8.42097 8.60002 10.021 7 12.001 7C13.981 7 15.581 8.60002 15.581 10.58C15.581 12.56 13.981 14.17 12.001 14.17Z" stroke="#2E2E2E" stroke-width="1.5" stroke-linecap="round" stroke-linejoin="round"/>
<path d="M15.5799 10.58C15.5799 12.56 13.9799 14.17 11.9999 14.17C10.0199 14.17 8.41992 12.56 8.41992 10.58C8.41992 8.60002 10.0199 7 11.9999 7C13.9799 7 15.5799 8.60002 15.5799 10.58Z" stroke="#2E2E2E" stroke-width="1.5" stroke-linecap="round" stroke-linejoin="round"/>
</svg>
