<svg width="47" height="28" viewBox="0 0 47 28" fill="none" xmlns="http://www.w3.org/2000/svg">
<g clip-path="url(#clip0_18_6906)">
<path d="M16.7241 20.5966L18.955 7.50391H22.5254L20.2907 20.5966H16.7241Z" fill="#0058A0"/>
<path d="M33.2331 7.82699C32.5257 7.56155 31.4183 7.27637 30.0343 7.27637C26.5083 7.27637 24.0244 9.05168 24.0022 11.5974C23.9824 13.4789 25.7751 14.5283 27.1293 15.1542C28.5195 15.7962 28.9862 16.206 28.98 16.7789C28.9701 17.6567 27.8701 18.0567 26.8429 18.0567C25.4157 18.0567 24.6564 17.8592 23.4849 17.3703L23.0256 17.1629L22.5244 20.0937C23.3565 20.4591 24.8985 20.7752 26.4997 20.7913C30.2516 20.7913 32.6862 19.0369 32.7134 16.3172C32.7269 14.8283 31.7775 13.6949 29.7183 12.7604C28.4701 12.1542 27.7059 11.7505 27.7133 11.1369C27.7133 10.5924 28.3602 10.011 29.7577 10.011C30.9244 9.99243 31.7701 10.2468 32.4269 10.5122L32.7479 10.664L33.2306 7.82575L33.2331 7.82699Z" fill="#0058A0"/>
<path d="M43.3071 7.82324H40.5502C39.6959 7.82324 39.0564 8.05658 38.6812 8.90967L33.3823 20.9085H37.1305C37.1305 20.9085 37.7416 19.2949 37.8811 18.9406C38.291 18.9406 41.9306 18.9467 42.4515 18.9467C42.5577 19.4048 42.8849 20.9085 42.8849 20.9085H46.1973L43.3071 7.82324ZM38.9058 16.2628C39.2009 15.5085 40.3268 12.6023 40.3268 12.6023C40.3071 12.6369 40.6207 11.8443 40.7997 11.3529L41.0416 12.4825C41.0416 12.4825 41.7243 15.6085 41.8688 16.264H38.9058V16.2628Z" fill="#0058A0"/>
<path d="M13.7306 7.51367L10.2367 16.4421L9.86385 14.6285C9.2145 12.5359 7.18856 10.2692 4.92188 9.13591L8.11696 20.5878L11.8923 20.5829L17.5096 7.51367H13.7293H13.7306Z" fill="#0058A0"/>
<path d="M6.99535 7.50488H1.23976L1.19531 7.77649C5.67188 8.86044 8.63487 11.4802 9.86331 14.6272L8.61388 8.61106C8.39783 7.78143 7.77067 7.53451 6.99659 7.50612L6.99535 7.50488Z" fill="#FAA61A"/>
</g>
<defs>
<clipPath id="clip0_18_6906">
<rect width="46.1176" height="14" fill="white" transform="translate(0.441406 7)"/>
</clipPath>
</defs>
</svg>
