<svg width="16" height="16" viewBox="0 0 16 16" fill="none" xmlns="http://www.w3.org/2000/svg">
<path d="M14.6663 8.00016C14.6663 4.3335 11.6663 1.3335 7.99967 1.3335C4.33301 1.3335 1.33301 4.3335 1.33301 8.00016C1.33301 11.6668 4.33301 14.6668 7.99967 14.6668" stroke="#2E2E2E" stroke-linecap="round" stroke-linejoin="round"/>
<path d="M5.33333 2H6C4.66667 5.86667 4.66667 10.1333 6 14H5.33333" stroke="#2E2E2E" stroke-linecap="round" stroke-linejoin="round"/>
<path d="M10 2C10.6667 3.93333 11 6 11 8" stroke="#2E2E2E" stroke-linecap="round" stroke-linejoin="round"/>
<path d="M2 10.6667V10C3.93333 10.6667 6 11 8 11" stroke="#2E2E2E" stroke-linecap="round" stroke-linejoin="round"/>
<path d="M2 6.00029C5.86667 4.73363 10.1333 4.73363 14 6.00029" stroke="#2E2E2E" stroke-linecap="round" stroke-linejoin="round"/>
<path d="M14.6669 14.6664L12.9336 12.9331" stroke="#2E2E2E" stroke-linecap="round" stroke-linejoin="round"/>
<path d="M8.86621 12.1334L12.1329 8.8667L13.3995 12.4L12.3995 13.4L8.86621 12.1334Z" stroke="#2E2E2E" stroke-linecap="round" stroke-linejoin="round"/>
</svg>
