<svg width="89" height="34" viewBox="0 0 89 34" fill="none" xmlns="http://www.w3.org/2000/svg">
<g clip-path="url(#clip0_2004_187)">
<path d="M62.7296 22.3879C59.8096 22.3879 57.4354 20 57.4354 17.0592C57.4354 14.1208 59.8096 11.7329 62.7296 11.7329C64.6245 11.7329 66.2737 12.7215 67.2142 14.2217L60.445 16.2312L61.14 18.603L68.0102 16.5661L70.7147 15.7655C70.093 11.8934 66.7646 8.92285 62.7457 8.92285C58.275 8.92285 54.6597 12.5633 54.6597 17.0592C54.6597 21.5575 58.275 25.1956 62.7457 25.1956C66.7073 25.1956 70.0059 22.3146 70.6987 18.5159L67.4597 19.4771C66.5765 21.2089 64.7988 22.3879 62.7296 22.3879ZM79.9706 8.92285C75.5021 8.92285 71.8869 12.5633 71.8869 17.0592C71.8869 21.5575 75.5021 25.1956 79.9706 25.1956C84.4414 25.1956 88.0565 21.5575 88.0565 17.0592C88.0565 12.5633 84.4414 8.92285 79.9706 8.92285ZM79.9706 22.3879C77.0504 22.3879 74.6762 20 74.6762 17.0592C74.6762 14.1208 77.0504 11.7329 79.9706 11.7329C82.893 11.7329 85.2648 14.1208 85.2648 17.0592C85.2648 20 82.893 22.3879 79.9706 22.3879ZM53.9211 9.60872H40.9768V12.5908H48.3975L40.1372 24.5121H53.9211V21.5277H45.8353L53.9211 9.60872Z" fill="#C2C2C2"/>
<path d="M36.3334 3.05546C35.2347 1.14923 33.2665 0 31.069 0H6.08855C3.89101 0 1.92285 1.13548 0.824079 3.05546C-0.274693 4.96168 -0.274693 7.24869 0.824079 9.16867L13.3212 30.9445C14.42 32.8508 16.3881 34 18.5719 34C20.7695 34 22.7376 32.8645 23.8364 30.9445L36.3334 9.16867C37.4322 7.24869 37.4322 4.96168 36.3334 3.05546ZM28.3049 11.279L14.6953 20.0577H22.2742L23.8364 19.0369L18.542 28.2515L11.7888 16.477L22.405 9.62056H14.8259L9.7473 12.9237L5.59766 5.67508H31.5163L28.3049 11.279Z" fill="#C2C2C2"/>
</g>
<defs>
<clipPath id="clip0_2004_187">
<rect width="88.4" height="34" fill="white"/>
</clipPath>
</defs>
</svg>
